<svg width="16" height="16" viewBox="0 0 16 16" fill="none" xmlns="http://www.w3.org/2000/svg">
<g clip-path="url(#clip0)">
<path d="M12.2305 0.74707H3.76922C2.10052 0.74707 0.747314 2.10028 0.747314 3.76897V12.2303C0.747314 13.899 2.10052 15.2522 3.76922 15.2522H12.2305C13.8998 15.2522 15.2524 13.899 15.2524 12.2303V3.76897C15.2524 2.10028 13.8998 0.74707 12.2305 0.74707ZM5.58236 12.2303H3.76922V5.58211H5.58236V12.2303ZM4.67579 4.81576C4.09196 4.81576 3.61812 4.3383 3.61812 3.74963C3.61812 3.16097 4.09196 2.68351 4.67579 2.68351C5.25962 2.68351 5.73345 3.16097 5.73345 3.74963C5.73345 4.3383 5.26022 4.81576 4.67579 4.81576ZM12.8349 12.2303H11.0218V8.84335C11.0218 6.8078 8.60426 6.96191 8.60426 8.84335V12.2303H6.79112V5.58211H8.60426V6.64884C9.44797 5.08592 12.8349 4.97048 12.8349 8.14529V12.2303Z" fill="white"/>
</g>
<defs>
<clipPath id="clip0">
<rect width="14.5051" height="14.5051" fill="white" transform="translate(0.747314 0.74707)"/>
</clipPath>
</defs>
</svg>
