<svg width="15" height="12" viewBox="0 0 15 12" fill="none" xmlns="http://www.w3.org/2000/svg">
<path d="M1.76028 2.40412C1.77873 2.22189 1.70924 2.04178 1.57317 1.91914L0.187117 0.249418V0H4.4908L7.81733 7.29549L10.7419 0H14.8446V0.249418L13.6595 1.38566C13.5574 1.46354 13.5067 1.59153 13.5279 1.71822V10.0668C13.5067 10.1935 13.5574 10.3215 13.6595 10.3994L14.8169 11.5356V11.785H8.99547V11.5356L10.1944 10.3717C10.3122 10.2539 10.3122 10.2192 10.3122 10.0391V3.29094L6.97877 11.7573H6.5283L2.64736 3.29094V8.96521C2.615 9.20377 2.69423 9.44395 2.86219 9.61647L4.4215 11.5079V11.7573H0V11.5079L1.55931 9.61647C1.72605 9.44367 1.80066 9.20189 1.76028 8.96521V2.40412Z" fill="white"/>
</svg>
