<svg width="16" height="16" viewBox="0 0 16 16" fill="none" xmlns="http://www.w3.org/2000/svg">
<path d="M14.6668 3.86681C14.1657 4.0842 13.6358 4.22792 13.0935 4.29347C13.6656 3.95169 14.0943 3.41399 14.3002 2.78014C13.7625 3.10018 13.174 3.32567 12.5602 3.44681C12.1499 3.00185 11.6035 2.70567 11.0067 2.60471C10.4099 2.50374 9.79652 2.60371 9.26269 2.88893C8.72885 3.17415 8.30478 3.62849 8.05699 4.1807C7.80919 4.7329 7.75169 5.35173 7.8935 5.94014C6.80645 5.88516 5.74312 5.60211 4.7726 5.10938C3.80207 4.61665 2.94606 3.92527 2.26016 3.08014C2.01959 3.50025 1.89318 3.97602 1.8935 4.46014C1.89264 4.90973 2.00297 5.35255 2.21467 5.74918C2.42636 6.14581 2.73284 6.48395 3.10683 6.73347C2.67215 6.72165 2.24675 6.60501 1.86683 6.39347V6.42681C1.87009 7.05673 2.09083 7.6662 2.49171 8.15212C2.89259 8.63803 3.449 8.97057 4.06683 9.09347C3.829 9.16585 3.58208 9.20401 3.3335 9.20681C3.16142 9.2048 2.98978 9.18919 2.82016 9.16014C2.9961 9.70201 3.33658 10.1756 3.79421 10.5149C4.25185 10.8543 4.80388 11.0425 5.3735 11.0535C4.41163 11.8103 3.22408 12.2234 2.00016 12.2268C1.77732 12.2275 1.55465 12.2142 1.3335 12.1868C2.58311 12.9936 4.03937 13.422 5.52683 13.4201C6.55329 13.4308 7.57159 13.2368 8.52224 12.8495C9.47289 12.4622 10.3368 11.8894 11.0636 11.1645C11.7904 10.4395 12.3655 9.57707 12.7552 8.62741C13.1449 7.67775 13.3415 6.65996 13.3335 5.63347C13.3335 5.52014 13.3335 5.40014 13.3335 5.28014C13.8566 4.89001 14.3078 4.41176 14.6668 3.86681Z" fill="white"/>
</svg>
