<svg width="22" height="22" viewBox="0 0 22 22" fill="none" xmlns="http://www.w3.org/2000/svg">
<path d="M22 10.9823C22 7.69823 20.5522 4.73194 18.2568 2.7191C18.2568 2.68379 18.2215 2.68379 18.2215 2.64848C18.1862 2.64848 18.1862 2.61316 18.1509 2.61316C16.2087 0.988764 13.7014 0 10.9823 0C4.94382 0 0 4.94382 0 10.9823C0 17.0209 4.94382 21.9647 10.9823 21.9647C17.0562 22 22 17.0562 22 10.9823ZM1.05939 10.9823C1.05939 5.50883 5.50883 1.05939 10.9823 1.05939C13.2777 1.05939 15.3965 1.83628 17.0562 3.14286L15.7496 4.66132C14.4077 3.67255 12.7833 3.07223 10.9823 3.07223C6.60353 3.07223 3.07223 6.60353 3.07223 10.9823C3.07223 15.1846 6.35634 18.61 10.488 18.8925V20.9053C5.22632 20.6228 1.05939 16.2793 1.05939 10.9823ZM10.9823 17.8684C7.20385 17.8684 4.09631 14.7961 4.09631 11.0177C4.09631 7.23917 7.16854 4.16693 10.947 4.16693C14.7255 4.16693 17.7978 7.23917 17.7978 11.0177C17.8684 14.7608 14.7961 17.8684 10.9823 17.8684ZM11.512 20.9053V18.8925C15.6437 18.61 18.9278 15.1846 18.9278 10.9823C18.9278 8.79294 18.0096 6.7801 16.5618 5.33226L17.8684 3.8138C19.74 5.61477 20.9053 8.1573 20.9053 10.9823C20.9406 16.2793 16.7384 20.6228 11.512 20.9053Z" fill="black"/>
</svg>
