<svg width="22" height="22" viewBox="0 0 22 22" fill="none" xmlns="http://www.w3.org/2000/svg">
<path d="M22.0001 16.0464C22.0001 12.7618 19.3314 10.0588 16.0126 10.0588C12.728 10.0588 10.025 12.7276 10.025 16.0464C10.025 17.8598 10.8119 19.4679 12.0779 20.5627C12.1121 20.5969 12.1463 20.6312 12.1805 20.6654C13.207 21.5207 14.5413 22.034 15.9784 22.034C17.4154 22.034 18.7497 21.5207 19.7762 20.6654C19.8104 20.6312 19.8446 20.5969 19.8788 20.5627C21.2132 19.4336 22.0001 17.8256 22.0001 16.0464ZM11.0857 16.0464C11.0857 13.3092 13.3096 11.0853 16.0468 11.0853C18.784 11.0853 21.0079 13.3092 21.0079 16.0464C21.0079 17.107 20.6658 18.0993 20.0841 18.9204C19.9473 17.5861 18.8182 16.5596 17.4496 16.5596H14.6782C13.3096 16.5596 12.2147 17.5861 12.0437 18.8862C11.4278 18.0993 11.0857 17.107 11.0857 16.0464ZM14.8493 20.8364V19.5021C14.8493 19.2284 14.6098 18.9889 14.3361 18.9889C14.0623 18.9889 13.8228 19.2284 13.8228 19.5021V20.4601C13.5491 20.3232 13.2754 20.1522 13.0017 19.9469V19.2284C13.0017 18.3388 13.7202 17.5861 14.644 17.5861H17.4154C18.3049 17.5861 19.0577 18.3046 19.0577 19.2284V19.9469C18.8182 20.1522 18.5445 20.3232 18.2365 20.4601V19.5021C18.2365 19.2284 17.997 18.9889 17.7233 18.9889C17.4496 18.9889 17.2101 19.2284 17.2101 19.5021V20.8364C16.8337 20.9391 16.4574 20.9733 16.0468 20.9733C15.6362 20.9733 15.2256 20.9391 14.8493 20.8364Z" fill="black"/>
<path d="M16.0468 16.457C17.1759 16.457 18.1339 15.5332 18.1339 14.3699C18.1339 13.2408 17.2101 12.2828 16.0468 12.2828C14.8835 12.2828 13.9597 13.2066 13.9597 14.3699C13.9597 15.5332 14.8835 16.457 16.0468 16.457ZM16.0468 13.3434C16.6284 13.3434 17.1074 13.8224 17.1074 14.4041C17.1074 14.9857 16.6284 15.4647 16.0468 15.4647C15.4651 15.4647 14.9861 14.9857 14.9861 14.4041C14.9861 13.7882 15.4651 13.3434 16.0468 13.3434Z" fill="black"/>
<path d="M5.9873 6.39812C7.11638 6.39812 8.07439 5.47433 8.07439 4.31103C8.07439 3.14773 7.1506 2.22394 5.9873 2.22394C4.824 2.22394 3.90021 3.14773 3.90021 4.31103C3.90021 5.47433 4.824 6.39812 5.9873 6.39812ZM5.9873 3.28459C6.56895 3.28459 7.04795 3.7636 7.04795 4.34524C7.04795 4.92689 6.56895 5.4059 5.9873 5.4059C5.40565 5.4059 4.92665 4.92689 4.92665 4.34524C4.92665 3.7636 5.40565 3.28459 5.9873 3.28459Z" fill="black"/>
<path d="M9.88802 10.4697C11.154 9.3748 11.9409 7.76672 11.9409 5.95334C11.9409 2.66874 9.27216 0 5.98756 0C2.66874 0 0 2.66874 0 5.98756C0 7.80093 0.786936 9.40902 2.05288 10.5039C2.08709 10.5381 2.12131 10.5723 2.15552 10.6065C3.18196 11.4619 4.51633 11.9751 5.95334 11.9751C7.39036 11.9751 8.72473 11.4619 9.75117 10.6065C9.8196 10.5381 9.85381 10.5039 9.88802 10.4697ZM1.02644 5.98756C1.02644 3.25039 3.25039 1.02644 5.98756 1.02644C8.72473 1.02644 10.9487 3.25039 10.9487 5.98756C10.9487 7.04821 10.6065 8.04043 10.0249 8.86159C9.8196 7.52722 8.72473 6.50078 7.35614 6.50078H4.58476C3.21617 6.50078 2.12131 7.52722 1.95023 8.82737C1.36858 8.04043 1.02644 7.04821 1.02644 5.98756ZM4.79005 10.7776V9.44323C4.79005 9.16952 4.55054 8.93001 4.27683 8.93001C4.00311 8.93001 3.76361 9.16952 3.76361 9.44323V10.4012C3.48989 10.2644 3.21617 10.0933 2.94246 9.88802V9.16952C2.94246 8.27994 3.66096 7.52722 4.58476 7.52722H7.35614C8.24572 7.52722 8.99844 8.24572 8.99844 9.16952V9.88802C8.75894 10.0933 8.48523 10.2644 8.17729 10.4012V9.44323C8.17729 9.16952 7.93779 8.93001 7.66407 8.93001C7.39036 8.93001 7.15086 9.16952 7.15086 9.44323V10.7776C6.77449 10.8802 6.39813 10.9145 5.98756 10.9145C5.57698 10.9145 5.16641 10.8802 4.79005 10.7776Z" fill="black"/>
<path d="M9.23769 19.1599H5.88465C4.61871 19.1599 3.59227 18.1335 3.59227 16.8676V14.7463L4.20814 15.3621C4.31078 15.4648 4.44764 15.499 4.5845 15.499C4.72136 15.499 4.85821 15.4648 4.96086 15.3621C5.16615 15.1568 5.16615 14.8489 4.96086 14.6436L3.48963 13.1724L3.07905 12.796L2.70269 13.1724L1.23147 14.6436C1.02618 14.8489 1.02618 15.1568 1.23147 15.3621C1.43675 15.5674 1.74468 15.5674 1.94997 15.3621L2.56584 14.7463V16.8676C2.56584 18.6809 4.07128 20.1864 5.88465 20.1864H9.23769C9.5114 20.1864 9.75091 19.9469 9.75091 19.6732C9.75091 19.3994 9.5114 19.1599 9.23769 19.1599Z" fill="black"/>
<path d="M12.7622 2.83995H16.1152C17.3812 2.83995 18.4076 3.86638 18.4076 5.13232V7.25363L17.7917 6.63777C17.5864 6.43248 17.2785 6.43248 17.0732 6.63777C16.8679 6.84306 16.8679 7.15099 17.0732 7.35628L18.5445 8.8275L18.9208 9.20386L19.2972 8.8275L20.7684 7.35628C20.9737 7.15099 20.9737 6.84306 20.7684 6.63777C20.5631 6.43248 20.2552 6.43248 20.0499 6.63777L19.434 7.25363V5.13232C19.434 3.31895 17.9286 1.81351 16.1152 1.81351H12.7622C12.4885 1.81351 12.249 2.05301 12.249 2.32673C12.249 2.60044 12.4885 2.83995 12.7622 2.83995Z" fill="black"/>
</svg>
