<svg width="41" height="15" viewBox="0 0 41 15" fill="none" xmlns="http://www.w3.org/2000/svg">
<path fill-rule="evenodd" clip-rule="evenodd" d="M3.78914 0C1.69646 0 0 1.69645 0 3.78914V10.4201C0 12.5128 1.69646 14.2093 3.78914 14.2093H36.9441C39.0368 14.2093 40.7333 12.5128 40.7333 10.4201V3.78914C40.7333 1.69646 39.0368 0 36.9441 0H3.78914ZM5.96064 11.2309C6.33956 11.3219 6.8132 11.3673 7.38157 11.3673H9.54138C10.1173 11.3673 10.5948 11.3219 10.9737 11.2309C11.3526 11.1324 11.6557 10.9809 11.8831 10.7762C12.1104 10.564 12.2696 10.2912 12.3605 9.95778C12.459 9.61676 12.5083 9.19996 12.5083 8.70737V7.87755C12.5083 7.38496 12.459 6.96815 12.3605 6.62713C12.2696 6.28611 12.1104 6.01329 11.8831 5.80867C11.6557 5.59648 11.3526 5.44492 10.9737 5.35398C10.5948 5.25546 10.1173 5.2062 9.54138 5.2062H6.11979V3.2169H4.42604V8.70737C4.42604 9.19996 4.47151 9.61676 4.56245 9.95778C4.66097 10.2912 4.8239 10.564 5.05125 10.7762C5.2786 10.9809 5.58173 11.1324 5.96064 11.2309ZM10.7577 7.28644C10.7956 7.45316 10.8145 7.66914 10.8145 7.93438V8.6619C10.8145 8.91956 10.7956 9.13175 10.7577 9.29847C10.7198 9.45762 10.6516 9.58645 10.5531 9.68497C10.4546 9.77591 10.3182 9.84032 10.1439 9.87821C9.96955 9.9161 9.74978 9.93505 9.48454 9.93505H7.43841C7.17317 9.93505 6.9534 9.9161 6.7791 9.87821C6.61237 9.84032 6.47975 9.77591 6.38124 9.68497C6.28272 9.58645 6.21451 9.45762 6.17662 9.29847C6.13873 9.13175 6.11979 8.92335 6.11979 8.67327V6.66123H9.48454C9.74978 6.66123 9.96955 6.68018 10.1439 6.71807C10.3182 6.74838 10.4546 6.80901 10.5531 6.89995C10.6516 6.99089 10.7198 7.11972 10.7577 7.28644ZM15.774 9.19617V8.91198H22.1057V6.88858C22.1057 6.64608 22.0716 6.42252 22.0034 6.2179C21.9352 6.00571 21.8139 5.82762 21.6396 5.68363C21.4729 5.53207 21.2417 5.4146 20.9462 5.33124C20.6582 5.24788 20.2945 5.2062 19.8549 5.2062H16.8767C16.331 5.2062 15.8801 5.24788 15.5239 5.33124C15.1678 5.4146 14.8798 5.55101 14.66 5.74047C14.4478 5.92235 14.2962 6.16864 14.2053 6.47935C14.1219 6.78248 14.0803 7.15761 14.0803 7.60473V9.02566C14.0803 9.84411 14.2887 10.439 14.7055 10.8103C15.1223 11.1817 15.8195 11.3673 16.7971 11.3673H18.7978V10.0828H16.7971C16.6 10.0828 16.4333 10.0715 16.2969 10.0487C16.1681 10.026 16.062 9.98431 15.9786 9.92368C15.9028 9.85548 15.8498 9.76454 15.8195 9.65086C15.7892 9.53719 15.774 9.38562 15.774 9.19617ZM20.2528 6.61576C20.3589 6.68397 20.4119 6.82038 20.4119 7.02499V7.82071H15.774V7.49105C15.774 7.27128 15.793 7.09698 15.8309 6.96815C15.8687 6.83932 15.9294 6.7408 16.0127 6.6726C16.1037 6.60439 16.2211 6.56271 16.3651 6.54756C16.5091 6.52482 16.6872 6.51346 16.8994 6.51346H19.7185C19.9762 6.51346 20.1543 6.54756 20.2528 6.61576ZM24.0221 11.3673V6.58166H23.1582V5.2062H24.0221V3.46698H25.75V5.2062H27.6938V6.58166H25.75V11.3673H24.0221ZM29.2961 11.2537C29.5841 11.3295 29.9516 11.3673 30.3987 11.3673H33.7294C34.275 11.3673 34.7259 11.3295 35.0821 11.2537C35.4459 11.1703 35.7339 11.0339 35.946 10.8444C36.1658 10.655 36.3174 10.4087 36.4007 10.1056C36.4917 9.80243 36.5372 9.4273 36.5372 8.98019V7.47969C36.5372 7.08562 36.4841 6.74838 36.378 6.46799C36.2795 6.18001 36.1203 5.94508 35.9006 5.76321C35.6808 5.57375 35.3966 5.43355 35.048 5.34261C34.707 5.25167 34.2902 5.2062 33.7976 5.2062H32.1152V6.41115H33.7976C34.1765 6.41115 34.4455 6.47935 34.6047 6.61576C34.7638 6.74459 34.8434 7.00604 34.8434 7.40011V7.53652H30.2851C29.8607 7.53652 29.5083 7.57442 29.2279 7.6502C28.9551 7.7184 28.7391 7.8245 28.58 7.96849C28.4208 8.10489 28.3071 8.27541 28.2389 8.48002C28.1783 8.67705 28.148 8.9044 28.148 9.16207V9.7418C28.148 9.99189 28.1821 10.2192 28.2503 10.4238C28.3185 10.6209 28.436 10.7914 28.6027 10.9354C28.777 11.0718 29.0081 11.1779 29.2961 11.2537ZM30.4669 8.58233H34.8434V9.10523C34.8434 9.33258 34.8207 9.51824 34.7752 9.66223C34.7297 9.80622 34.6615 9.91989 34.5706 10.0033C34.4796 10.079 34.3622 10.1321 34.2182 10.1624C34.0742 10.1927 33.9037 10.2079 33.7067 10.2079H30.5238C30.304 10.2079 30.1335 10.1662 30.0122 10.0828C29.891 9.99947 29.8304 9.8479 29.8304 9.62813V9.20753C29.8304 8.96503 29.8872 8.8021 30.0009 8.71874C30.1146 8.6278 30.2699 8.58233 30.4669 8.58233Z" fill="#FFD541"/>
</svg>
