<svg width="352" height="202" viewBox="0 0 352 202" fill="none" xmlns="http://www.w3.org/2000/svg">
<path d="M5.28516 192.35C5.22233 193.283 5.34803 193.906 5.09673 194.466C4.71979 195.275 3.96587 195.524 3.33763 195.4C2.70939 195.275 2.5209 193.968 3.08631 193.408C3.65173 192.972 4.3428 192.785 5.28516 192.35Z" fill="#9ECFC3"/>
<path d="M6.03906 179.899C5.0967 180.211 4.3428 180.646 3.90303 180.522C3.33761 180.335 3.2748 179.65 3.84022 178.779C4.40564 177.97 5.22237 177.596 5.66213 177.97C5.97625 178.219 5.91341 179.028 6.03906 179.899Z" fill="#9ECFC3"/>
<path d="M19.5469 189.921C18.6673 190.108 17.9134 190.481 17.5365 190.295C17.0339 190.046 17.0339 189.299 17.5993 188.489C18.1648 187.742 18.9186 187.493 19.2956 187.867C19.6097 188.178 19.4212 188.987 19.5469 189.921Z" fill="#9ECFC3"/>
<path d="M32.2363 200.815C31.4196 201.002 30.7914 201.313 30.4144 201.189C29.849 201.002 29.849 200.255 30.2888 199.508C30.7286 198.761 31.4196 198.512 31.8594 198.885C32.1107 199.197 32.0479 199.944 32.2363 200.815Z" fill="#9ECFC3"/>
<path d="M8.11133 147.53C7.79721 148.589 7.79722 149.273 7.42028 149.833C7.23181 150.082 6.41509 150.269 6.1638 150.02C5.9125 149.771 5.91252 148.837 6.10099 148.651C6.60358 148.153 7.23179 147.966 8.11133 147.53Z" fill="#9ECFC3"/>
<path d="M21.3047 157.801C21.0534 158.797 21.0534 159.482 20.6764 159.979C20.488 160.228 19.6085 160.415 19.3572 160.291C19.1059 160.104 19.0431 159.232 19.2315 158.983C19.6713 158.548 20.3623 158.361 21.3047 157.801Z" fill="#9ECFC3"/>
<path d="M33.8697 170.438C33.1158 171.247 32.2991 171.309 32.1735 170.624C32.1107 170.251 32.2363 169.504 32.4876 169.13C32.9274 168.508 33.8069 168.57 33.9326 169.13C34.0582 169.628 33.9325 170.189 33.8697 170.438Z" fill="#9ECFC3"/>
<path d="M43.4815 183.447C43.67 182.7 43.67 182.078 43.9213 181.704C44.2354 181.082 45.0521 181.082 45.3662 181.58C45.6804 182.078 45.4919 183.074 44.9265 183.385C44.4867 183.572 44.1098 183.447 43.4815 183.447Z" fill="#9ECFC3"/>
<path d="M54.0378 197.018C54.1634 196.271 54.2262 195.711 54.4147 195.338C54.7288 194.777 55.4199 194.84 55.734 195.338C55.9853 195.898 55.8597 196.832 55.2943 197.081C54.9801 197.267 54.5404 197.081 54.0378 197.018Z" fill="#9ECFC3"/>
<path d="M66.8516 194.279C66.5374 195.275 66.4746 195.898 66.1605 196.333C65.7836 196.956 64.904 196.769 64.904 196.147C64.904 195.711 65.1554 194.964 65.4067 194.653C65.7208 194.342 66.1605 194.466 66.8516 194.279Z" fill="#9ECFC3"/>
<path d="M56.6758 181.892C56.1103 181.892 55.7334 182.016 55.4193 181.892C54.9795 181.643 55.1052 180.647 55.6078 180.211C55.9219 179.962 56.4873 179.962 56.613 180.211C56.8014 180.46 56.6758 181.145 56.6758 181.892Z" fill="#9ECFC3"/>
<path d="M46.4355 166.329C46.2471 167.138 46.2471 167.699 45.9958 168.072C45.6817 168.632 44.7393 168.57 44.6765 168.01C44.6137 167.574 44.8021 166.952 45.1163 166.64C45.3676 166.391 45.8073 166.454 46.4355 166.329Z" fill="#9ECFC3"/>
<path d="M34.5605 156.058C33.9323 156.245 33.4297 156.494 33.1156 156.431C32.613 156.369 32.5501 155.871 32.8014 155.311C33.1156 154.626 33.8066 154.253 34.1835 154.626C34.3092 154.938 34.3721 155.435 34.5605 156.058Z" fill="#9ECFC3"/>
<path d="M21.1172 146.036C20.4261 146.223 19.9863 146.472 19.6094 146.472C19.1068 146.409 19.044 145.911 19.2325 145.351C19.5466 144.666 20.2376 144.293 20.6146 144.666C20.8659 144.978 20.9287 145.413 21.1172 146.036Z" fill="#9ECFC3"/>
<path d="M8.55273 133.462C8.36426 134.271 8.36428 134.769 8.17581 135.143C7.86169 135.703 6.85645 135.703 6.79363 135.143C6.73081 134.769 6.91926 134.084 7.17056 133.835C7.42186 133.524 7.92449 133.586 8.55273 133.462Z" fill="#9ECFC3"/>
<path d="M42.5394 198.886C42.665 198.014 42.665 197.454 42.8535 197.018C43.1676 196.333 43.9843 196.084 44.2356 196.645C44.4241 197.018 44.4241 197.89 44.2356 198.076C43.8587 198.45 43.2933 198.512 42.5394 198.886Z" fill="#9ECFC3"/>
<path d="M32.9277 183.572C32.8021 184.568 32.8649 185.253 32.6136 185.813C32.488 186.062 31.7341 186.249 31.3571 186.249C30.8545 186.187 30.8545 185.066 31.3571 184.506C31.6713 184.133 32.1738 184.008 32.9277 183.572Z" fill="#9ECFC3"/>
<path d="M18.6042 175.232C18.1016 174.609 18.3529 173.675 19.044 173.115C19.6094 172.617 20.1748 172.555 20.3004 173.053C20.4261 173.426 20.3633 174.36 20.112 174.547C19.6723 174.982 19.044 175.107 18.6042 175.232Z" fill="#9ECFC3"/>
<path d="M6.91992 162.532C6.79427 163.528 6.8571 164.213 6.6058 164.773C6.48015 165.022 5.60057 165.333 5.22363 165.333C4.65821 165.333 4.65821 164.213 5.22363 163.653C5.53775 163.217 6.04039 163.03 6.91992 162.532Z" fill="#9ECFC3"/>
<path d="M8.61603 118.833C8.61603 119.767 8.74168 120.14 8.61603 120.514C8.49038 121.012 7.61086 121.447 7.29674 121.136C6.98262 120.763 6.85694 120.265 7.42236 119.642C7.7993 119.269 8.23909 119.082 8.61603 118.833Z" fill="#9ECFC3"/>
<path d="M21.1805 129.789C21.1805 130.723 21.3061 131.096 21.1805 131.532C20.992 132.092 20.0496 132.653 19.7355 132.341C19.4214 132.03 19.2958 131.47 19.924 130.785C20.3009 130.349 20.7407 130.1 21.1805 129.789Z" fill="#9ECFC3"/>
<path d="M35.1895 141.554C34.0586 141.99 33.556 142.301 33.3047 142.177C32.8021 142.052 32.7393 141.492 33.3675 140.683C33.9958 139.936 34.5612 139.873 34.8124 140.309C35.0009 140.558 35.0638 140.994 35.1895 141.554Z" fill="#9ECFC3"/>
<path d="M48.6348 151.203C47.8181 151.639 47.3155 152.012 47.0014 152.012C46.3731 152.012 46.436 151.328 46.9385 150.518C47.1898 150.145 47.9437 149.647 48.1322 149.771C48.3835 150.02 48.3835 150.581 48.6348 151.203Z" fill="#9ECFC3"/>
<path d="M60.3203 163.279C59.5036 163.715 59.0009 164.088 58.6868 164.088C58.1214 164.026 58.1843 163.279 58.7497 162.47C59.001 162.096 59.8177 161.598 59.9433 161.723C60.2574 161.909 60.1947 162.594 60.3203 163.279Z" fill="#9ECFC3"/>
<path d="M71.25 174.795C70.8731 175.853 70.7475 176.476 70.4333 176.911C69.7423 177.907 69.1768 177.97 69.0512 177.409C68.9883 177.098 69.3025 176.102 69.491 175.915C69.9307 175.417 70.4961 175.293 71.25 174.795Z" fill="#9ECFC3"/>
<path d="M81.2402 189.051C80.8633 190.109 80.7377 190.732 80.4236 191.167C79.7325 192.163 79.167 192.225 79.0414 191.665C78.9786 191.354 79.2927 190.296 79.4812 190.109C79.9838 189.673 80.4863 189.487 81.2402 189.051Z" fill="#9ECFC3"/>
<path d="M11.2533 103.334C10.8763 103.147 10.3738 103.209 10.3738 102.898C10.3738 102.587 10.8763 101.653 11.1905 101.466C11.5046 101.217 12.07 101.279 12.1328 101.528C12.1328 101.777 11.6302 102.524 11.2533 103.334Z" fill="#9ECFC3"/>
<path d="M24.6978 113.169C24.1324 113.293 23.5041 113.604 23.4413 113.355C23.3785 113.106 23.7554 112.11 24.0067 111.861C24.3837 111.488 25.1376 111.177 25.2632 111.363C25.4517 111.488 25.0119 112.359 24.6978 113.169Z" fill="#9ECFC3"/>
<path d="M39.023 122.63C38.2063 122.817 37.5781 123.128 37.3896 122.941C37.2011 122.755 37.5152 122.008 37.578 121.51C38.0806 121.136 38.7717 120.514 39.0858 120.514C39.3371 120.576 39.0858 121.323 39.023 122.63Z" fill="#9ECFC3"/>
<path d="M54.0371 128.544C53.8486 129.353 53.8486 129.913 53.5345 130.349C53.1575 130.847 52.5293 131.221 52.0267 131.656C52.0895 131.158 51.9639 130.723 52.2152 130.225C52.4665 129.789 53.1576 129.291 54.0371 128.544Z" fill="#9ECFC3"/>
<path d="M66.2873 141.555C65.7219 141.679 65.0937 141.99 65.0309 141.741C64.968 141.43 65.4706 140.372 65.7847 139.998C66.2245 139.563 66.9784 139.251 67.104 139.438C67.1668 139.687 66.6643 140.621 66.2873 141.555Z" fill="#9ECFC3"/>
<path d="M77.9093 154.44C77.2183 154.502 76.59 154.813 76.4644 154.502C76.3387 154.253 76.7156 153.444 76.8413 152.821C77.3439 152.51 78.035 151.826 78.2863 151.888C78.5376 152.012 78.1606 152.884 77.9093 154.44Z" fill="#9ECFC3"/>
<path d="M87.7745 168.259C87.2719 168.322 86.6437 168.571 86.6437 168.259C86.6437 167.948 87.1463 166.765 87.4604 166.454C87.9002 166.018 88.5284 165.832 88.6541 166.018C88.7797 166.267 88.2143 167.263 87.7745 168.259Z" fill="#9ECFC3"/>
<path d="M97.2605 180.771C97.8259 180.708 98.4542 180.397 98.4542 180.708C98.517 181.02 97.9516 182.078 97.5746 182.514C97.2605 182.887 96.5695 183.074 96.5066 182.825C96.381 182.514 96.8835 181.642 97.2605 180.771Z" fill="#9ECFC3"/>
<path d="M108.318 196.707C107.313 196.956 106.685 197.33 106.622 197.081C106.559 196.832 106.999 195.96 107.187 195.4C107.627 195.213 108.255 194.777 108.444 194.902C108.632 195.089 108.444 195.836 108.318 196.707Z" fill="#9ECFC3"/>
<path d="M3.27344 73.0184C2.6452 73.3296 2.07981 73.7654 1.89134 73.6409C1.70287 73.5786 1.89134 72.9562 1.89134 72.5827C2.26828 72.3337 2.83365 71.8357 3.02213 71.8979C3.27342 71.9602 3.21061 72.5204 3.27344 73.0184Z" fill="#9ECFC3"/>
<path d="M16.9707 82.4796C16.2796 82.8531 15.6514 83.3511 15.4629 83.2888C15.2744 83.2266 15.5257 82.5418 15.5257 82.1683C15.9655 81.8571 16.5309 81.2969 16.7822 81.2969C17.0335 81.2969 16.9079 81.8571 16.9707 82.4796Z" fill="#9ECFC3"/>
<path d="M28.9697 92.6889C29.4095 91.8174 29.5979 91.1949 29.9749 90.8214C30.289 90.4479 31.0429 90.1367 31.1686 90.3234C31.2942 90.5101 30.9172 91.3816 30.6031 91.7551C30.1634 92.1286 29.6608 92.3154 28.9697 92.6889Z" fill="#9ECFC3"/>
<path d="M46.0586 98.291C45.6188 99.2248 45.3675 99.9095 45.0534 100.283C44.6137 100.719 43.9226 101.092 43.7341 100.968C43.6085 100.843 43.9854 99.9095 44.3624 99.4115C44.7393 98.9757 45.3047 98.789 46.0586 98.291Z" fill="#9ECFC3"/>
<path d="M60.5083 108.127C59.6916 108.625 59.0006 109.247 58.7493 109.185C58.5608 109.123 58.8749 108.376 58.9377 107.94C59.4403 107.566 60.1942 106.819 60.4455 106.819C60.6968 106.819 60.5083 107.504 60.5083 108.127Z" fill="#9ECFC3"/>
<path d="M74.83 117.028C74.0761 117.526 73.385 118.087 73.1337 118.024C72.9453 117.962 73.2594 117.153 73.385 116.655C73.8876 116.281 74.5787 115.597 74.83 115.597C75.0813 115.659 74.8929 116.344 74.83 117.028Z" fill="#9ECFC3"/>
<path d="M86.5798 129.291C85.9516 129.478 85.3234 129.851 85.2606 129.602C85.1977 129.353 85.7003 128.482 85.9516 127.922C86.3285 127.735 86.9568 127.299 87.0825 127.486C87.2081 127.61 86.8311 128.42 86.5798 129.291Z" fill="#9ECFC3"/>
<path d="M96.9449 143.11C96.3167 143.235 95.7513 143.546 95.6884 143.297C95.6256 143.048 96.1283 142.177 96.4424 141.554C96.8193 141.43 97.3847 140.994 97.5104 141.181C97.636 141.43 97.259 142.239 96.9449 143.11Z" fill="#9ECFC3"/>
<path d="M107.373 155.81C106.933 156.743 106.619 157.553 106.305 157.864C105.928 158.237 105.3 158.424 105.237 158.237C105.174 158.051 105.614 156.992 105.991 156.619C106.305 156.183 106.745 156.121 107.373 155.81Z" fill="#9ECFC3"/>
<path d="M115.668 173.426C115.102 173.488 114.537 173.737 114.537 173.488C114.474 173.239 114.977 172.43 115.165 171.87C115.542 171.745 116.045 171.434 116.17 171.621C116.296 171.87 115.919 172.617 115.668 173.426Z" fill="#9ECFC3"/>
<path d="M125.719 187.805C125.091 188.054 124.588 188.49 124.4 188.365C124.274 188.241 124.525 187.494 124.588 187.058C124.965 186.809 125.53 186.311 125.719 186.436C125.907 186.436 125.782 187.12 125.719 187.805Z" fill="#9ECFC3"/>
<path d="M137.027 199.445C136.713 200.192 136.588 200.815 136.336 201.064C136.022 201.375 135.457 201.5 135.331 201.375C135.205 201.251 135.52 200.379 135.771 200.068C136.022 199.757 136.462 199.694 137.027 199.445Z" fill="#9ECFC3"/>
<path d="M183.266 195.337C182.952 195.275 182.637 195.337 182.449 195.212C182.386 195.15 182.952 194.217 183.077 194.217C183.454 194.03 183.705 194.092 184.02 194.092C183.831 194.403 183.58 194.714 183.266 195.337Z" fill="#9ECFC3"/>
<path d="M7.10711 38.9683C7.29558 38.5948 7.42126 38.1591 7.60973 37.8478C7.67256 37.7233 8.30078 37.5988 8.30078 37.6611C8.23796 37.9723 8.17513 38.3458 7.98666 38.7193C7.92384 38.7193 7.48405 38.8438 7.10711 38.9683Z" fill="#9ECFC3"/>
<path d="M23.2528 45.4412C23.4413 45.0055 23.6298 44.5697 23.8811 44.1962C23.9439 44.0717 24.635 43.9473 24.5721 43.9473C24.5093 44.3208 24.3836 44.6942 24.1323 45.0677C24.1323 45.1922 23.6926 45.2545 23.2528 45.4412Z" fill="#9ECFC3"/>
<path d="M40.8438 51.1064C40.3412 51.5421 40.027 51.7911 39.7129 52.0401C39.7129 51.7289 39.5872 51.4176 39.7129 51.1064C39.7757 50.9819 40.2783 50.6084 40.5296 50.3594C40.6553 50.5461 40.7809 50.8574 40.8438 51.1064Z" fill="#9ECFC3"/>
<path d="M56.8008 57.954C56.2982 58.3275 56.0469 58.5765 55.7328 58.8878C55.7328 58.5765 55.6072 58.2653 55.7328 57.954C55.7956 57.8295 56.2983 57.456 56.5495 57.207C56.6124 57.456 56.6751 57.705 56.8008 57.954Z" fill="#9ECFC3"/>
<path d="M70.8731 66.1712C71.1244 65.6732 71.3129 65.2375 71.627 64.8017C71.6898 64.6772 72.3809 64.5527 72.3809 64.5527C72.2552 64.9262 72.1295 65.362 71.8782 65.7977C71.7526 65.9222 71.3128 66.0467 70.8731 66.1712Z" fill="#9ECFC3"/>
<path d="M87.4608 72.1465C87.5236 72.52 87.6492 72.8312 87.5864 72.8935C87.2094 73.267 86.7697 73.6405 86.3299 74.014C86.2671 73.8272 86.1415 73.516 86.2671 73.3915C86.644 72.9557 87.0838 72.5822 87.4608 72.1465Z" fill="#9ECFC3"/>
<path d="M101.218 81.8574C101.281 82.2309 101.343 82.6667 101.281 82.7289C100.904 83.1024 100.527 83.4136 100.15 83.7249C100.15 83.4759 100.024 83.1647 100.15 83.0402C100.464 82.6044 100.841 82.2309 101.218 81.8574Z" fill="#9ECFC3"/>
<path d="M112.525 94.7432C112.463 95.2412 112.463 95.4902 112.463 95.8014C112.086 96.0504 111.709 96.2994 111.332 96.5484C111.395 96.2372 111.332 95.8636 111.457 95.7391C111.771 95.3034 112.148 95.0544 112.525 94.7432Z" fill="#9ECFC3"/>
<path d="M120.756 111.364C121.07 110.803 121.322 110.305 121.636 109.87C121.699 109.745 122.201 109.807 122.201 109.87C122.013 110.305 121.824 110.866 121.51 111.301C121.51 111.364 121.133 111.301 120.756 111.364Z" fill="#9ECFC3"/>
<path d="M131.123 125.307C131.06 125.867 130.997 126.178 130.935 126.489C130.558 126.738 130.181 126.987 129.741 127.236C129.804 126.925 129.804 126.489 129.929 126.303C130.306 125.929 130.746 125.618 131.123 125.307Z" fill="#9ECFC3"/>
<path d="M139.98 141.118C139.918 141.678 139.855 141.99 139.792 142.301C139.352 142.612 138.975 142.861 138.598 143.172C138.661 142.861 138.661 142.363 138.787 142.239C139.101 141.803 139.541 141.492 139.98 141.118Z" fill="#9ECFC3"/>
<path d="M149.152 157.49C148.65 157.926 148.336 158.237 148.022 158.549C148.022 158.175 147.959 157.864 148.147 157.366C148.21 157.179 148.964 156.494 149.027 156.557C149.152 156.743 149.152 157.117 149.152 157.49Z" fill="#9ECFC3"/>
<path d="M157.885 172.368C158.262 171.745 158.639 171.185 159.016 170.687C159.142 170.563 159.456 170.625 159.645 170.625C159.33 171.185 159.079 171.745 158.702 172.243C158.577 172.368 158.262 172.306 157.885 172.368Z" fill="#9ECFC3"/>
<path d="M169.696 184.506C170.01 183.946 170.262 183.386 170.639 182.888C170.764 182.763 171.392 182.639 171.33 182.701C171.141 183.199 170.89 183.697 170.639 184.195C170.576 184.32 170.136 184.382 169.696 184.506Z" fill="#9ECFC3"/>
<path d="M151.855 193.034C152.106 192.972 152.421 192.847 152.672 192.785C152.483 193.283 152.295 193.719 152.106 194.155C151.918 194.092 151.541 194.217 151.478 194.03C151.478 193.843 151.729 193.408 151.855 193.034Z" fill="#9ECFC3"/>
<path d="M140.922 181.394C140.733 181.082 140.545 180.833 140.482 180.522C140.482 180.522 141.048 179.775 141.173 179.713C141.424 179.651 141.676 179.713 141.676 179.962C141.676 180.211 141.299 180.771 140.922 181.394Z" fill="#9ECFC3"/>
<path d="M130.935 166.08C131.061 165.706 131.186 165.333 131.312 165.021C131.626 165.084 131.877 165.084 132.191 165.146C131.94 165.519 131.689 166.142 131.5 166.266C131.312 166.391 131.123 166.142 130.935 166.08Z" fill="#9ECFC3"/>
<path d="M122.828 148.712C123.08 148.65 123.331 148.588 123.52 148.588C123.331 149.086 123.08 149.584 122.891 150.082C122.703 150.02 122.451 150.02 122.389 149.771C122.326 149.646 122.64 149.086 122.828 148.712Z" fill="#9ECFC3"/>
<path d="M115.038 133.026C114.724 133.275 114.472 133.587 114.158 133.836C114.158 133.4 114.221 132.964 114.221 132.528C114.472 132.404 114.912 132.03 115.038 132.155C115.164 132.279 115.038 132.715 115.038 133.026Z" fill="#9ECFC3"/>
<path d="M105.175 117.028C105.427 116.966 105.741 116.842 105.992 116.779C105.741 117.34 105.49 117.838 105.301 118.398C105.113 118.336 104.736 118.398 104.736 118.211C104.673 117.962 104.987 117.402 105.175 117.028Z" fill="#9ECFC3"/>
<path d="M94.4963 105.077C94.3078 104.828 94.1194 104.579 93.9938 104.33C93.9938 104.33 94.622 103.458 94.8104 103.334C95.0617 103.209 95.4387 103.271 95.3759 103.52C95.3759 103.707 94.9361 104.33 94.4963 105.077Z" fill="#9ECFC3"/>
<path d="M81.9299 93.8096C81.6157 93.9963 81.3016 94.1208 80.9875 94.3076C81.176 93.8096 81.4273 93.2493 81.6157 92.7513C81.9299 92.6891 82.3696 92.5023 82.4325 92.6268C82.4953 92.7513 82.1183 93.3738 81.9299 93.8096Z" fill="#9ECFC3"/>
<path d="M67.3555 84.5342C67.2298 84.9077 67.1042 85.2189 67.0413 85.5924C66.6016 85.7792 66.2246 85.9037 65.7849 86.0904C65.9733 85.7169 66.2246 85.0944 66.4131 84.9077C66.7272 84.6587 67.0413 84.6587 67.3555 84.5342Z" fill="#9ECFC3"/>
<path d="M52.0273 77.5621C51.6504 77.9356 51.3363 78.2468 50.9594 78.6203C50.8965 78.3091 50.8337 77.9356 50.8337 77.6243C51.2106 77.3753 51.6504 76.9396 51.9017 76.9396C52.0274 76.8774 51.9645 77.3131 52.0273 77.5621Z" fill="#9ECFC3"/>
<path d="M35.6924 69.7187C36.0065 69.5319 36.3206 69.4075 36.6348 69.2207C36.4463 69.7187 36.2578 70.1544 36.0693 70.6524C35.818 70.6524 35.3783 70.8392 35.3155 70.6524C35.2527 70.5902 35.5668 70.0922 35.6924 69.7187Z" fill="#9ECFC3"/>
<path d="M20.237 62.9962C20.3627 62.685 20.4255 62.3737 20.4884 62.0625C20.8653 62.0002 21.2422 61.8757 21.6191 61.8135C21.4307 62.187 21.2422 62.685 20.9909 62.8717C20.8024 63.1207 20.4883 62.9962 20.237 62.9962Z" fill="#9ECFC3"/>
<path d="M6.29164 54.7795C6.04035 54.904 5.7262 55.0285 5.4749 55.153C5.60055 54.7795 5.7262 54.3438 5.78902 53.9703C6.04032 53.9703 6.41723 53.7835 6.54288 53.908C6.66853 53.9703 6.35447 54.4683 6.29164 54.7795Z" fill="#9ECFC3"/>
<path d="M224.039 196.085C223.976 196.271 223.913 196.458 223.851 196.583C223.851 196.645 223.725 196.583 223.599 196.583C223.662 196.396 223.725 196.209 223.788 196.022C223.788 195.96 223.913 196.085 224.039 196.085Z" fill="#9ECFC3"/>
<path d="M214.301 181.58C214.238 181.767 214.175 182.016 214.049 182.202C213.987 182.265 213.861 182.202 213.798 182.202C213.861 181.953 213.987 181.704 214.049 181.518C214.112 181.518 214.238 181.58 214.301 181.58Z" fill="#9ECFC3"/>
<path d="M204.375 167.387C204.249 167.636 204.187 167.885 204.061 168.072C203.998 168.134 203.872 168.134 203.747 168.134C203.872 167.885 203.935 167.574 204.124 167.387C204.124 167.325 204.312 167.387 204.375 167.387Z" fill="#9ECFC3"/>
<path d="M4.15625 15.4374C3.96778 15.5619 3.77929 15.6242 3.59082 15.7487C3.59082 15.6864 3.46519 15.562 3.52801 15.4997C3.65366 15.3752 3.84208 15.2507 4.03056 15.1885C4.09338 15.2507 4.09343 15.313 4.15625 15.4374Z" fill="#9ECFC3"/>
<path d="M22.0586 19.9199C21.8701 20.0444 21.6816 20.1689 21.4932 20.2934C21.4932 20.2311 21.3675 20.1066 21.4304 20.0444C21.556 19.9199 21.8073 19.7954 21.9958 19.6709C21.9958 19.7331 22.0586 19.8576 22.0586 19.9199Z" fill="#9ECFC3"/>
<path d="M39.3994 25.0866C39.2737 25.1488 39.1481 25.1488 39.0225 25.2111C39.0853 25.0243 39.0852 24.8376 39.2109 24.6509C39.2109 24.5886 39.4622 24.5886 39.5879 24.5264C39.5251 24.7131 39.4622 24.8998 39.3994 25.0866Z" fill="#9ECFC3"/>
<path d="M56.8652 30.2532C56.6768 30.3777 56.4255 30.5021 56.237 30.6889C56.237 30.5644 56.1742 30.4399 56.237 30.4399C56.4255 30.3154 56.6139 30.1909 56.8023 30.0664C56.8023 30.0664 56.8024 30.1909 56.8652 30.2532Z" fill="#9ECFC3"/>
<path d="M73.5137 36.3532C73.3252 36.4777 73.0739 36.6022 72.8854 36.789C72.8854 36.6645 72.8226 36.54 72.8854 36.4777C73.0739 36.3532 73.2623 36.2287 73.4508 36.042C73.4508 36.1665 73.5137 36.291 73.5137 36.3532Z" fill="#9ECFC3"/>
<path d="M89.2819 43.5739C89.1562 43.6361 89.0306 43.6361 88.905 43.6984C88.9678 43.5116 89.0305 43.2627 89.1562 43.0759C89.1562 43.0137 89.4076 43.0137 89.5332 43.0137C89.4076 43.2004 89.3447 43.3871 89.2819 43.5739Z" fill="#9ECFC3"/>
<path d="M104.799 51.1687C104.61 51.2932 104.422 51.4176 104.233 51.5421C104.233 51.4176 104.171 51.2931 104.233 51.2309C104.422 51.1064 104.61 50.9819 104.799 50.8574C104.799 50.9819 104.799 51.1064 104.799 51.1687Z" fill="#9ECFC3"/>
<path d="M118.432 60.6934C118.369 60.8801 118.306 61.1291 118.18 61.3158C118.118 61.3781 117.992 61.3781 117.866 61.3781C117.929 61.1291 118.055 60.9424 118.118 60.7556C118.18 60.6934 118.369 60.6934 118.432 60.6934Z" fill="#9ECFC3"/>
<path d="M130.116 73.2668C129.99 73.2668 129.927 73.329 129.801 73.329C129.927 73.08 129.99 72.831 130.116 72.6443C130.116 72.582 130.304 72.6443 130.43 72.582C130.367 72.7688 130.241 73.0178 130.116 73.2668Z" fill="#9ECFC3"/>
<path d="M141.425 86.0275C141.237 86.152 140.985 86.2766 140.797 86.4633C140.797 86.3388 140.797 86.0898 140.86 86.0275C141.048 85.8408 141.237 85.7163 141.425 85.5918C141.488 85.7163 141.425 85.8408 141.425 86.0275Z" fill="#9ECFC3"/>
<path d="M151.602 100.034C151.476 100.096 151.35 100.096 151.225 100.158C151.35 99.8471 151.476 99.5981 151.664 99.2868C151.727 99.2246 151.853 99.2246 151.979 99.2246C151.916 99.4736 151.727 99.7848 151.602 100.034Z" fill="#9ECFC3"/>
<path d="M161.969 113.915C161.843 113.978 161.717 113.978 161.592 114.04C161.717 113.729 161.906 113.417 162.032 113.106C162.094 113.044 162.283 113.044 162.346 113.044C162.22 113.355 162.094 113.604 161.969 113.915Z" fill="#9ECFC3"/>
<path d="M172.65 127.299C172.461 127.486 172.21 127.611 171.959 127.797C172.021 127.611 172.021 127.362 172.084 127.299C172.273 127.113 172.524 126.926 172.775 126.739C172.775 126.988 172.713 127.113 172.65 127.299Z" fill="#9ECFC3"/>
<path d="M183.33 140.683C183.078 140.869 182.827 141.056 182.576 141.243C182.639 141.056 182.639 140.869 182.702 140.745C182.89 140.496 183.141 140.371 183.393 140.185C183.393 140.371 183.33 140.558 183.33 140.683Z" fill="#9ECFC3"/>
<path d="M193.821 154.253C193.695 154.315 193.569 154.315 193.444 154.377C193.569 154.066 193.695 153.755 193.821 153.506C193.883 153.443 194.009 153.443 194.135 153.443C194.072 153.755 193.946 154.004 193.821 154.253Z" fill="#9ECFC3"/>
<path d="M200.794 186.374C200.606 186.374 200.354 186.374 200.229 186.311C200.166 186.311 200.291 186 200.354 185.813C200.543 185.813 200.794 185.813 200.982 185.876C200.982 185.876 200.857 186.187 200.794 186.374Z" fill="#9ECFC3"/>
<path d="M211.537 198.512C211.725 198.512 211.976 198.512 212.102 198.636C212.165 198.636 212.039 198.947 211.976 199.072C211.914 199.196 211.662 199.321 211.599 199.259C211.599 199.01 211.599 198.761 211.537 198.512Z" fill="#9ECFC3"/>
<path d="M7.42157 25.5225C7.17027 25.5225 6.9818 25.5848 6.79333 25.5225C6.7305 25.5225 6.79333 25.3358 6.79333 25.2113C7.04462 25.2113 7.2959 25.149 7.48438 25.2113C7.48438 25.2735 7.42157 25.4603 7.42157 25.5225Z" fill="#9ECFC3"/>
<path d="M24.5717 30.9375C24.3204 30.9375 24.1319 30.9998 23.8806 30.9375C23.8178 30.9375 23.8806 30.7508 23.8806 30.6263C24.1319 30.6263 24.3832 30.5641 24.5717 30.6263C24.6345 30.6263 24.5717 30.813 24.5717 30.9375Z" fill="#9ECFC3"/>
<path d="M41.4076 36.6648C41.1563 36.6648 40.905 36.7271 40.7166 36.7271C40.6538 36.7271 40.7166 36.5403 40.6538 36.4158C40.9051 36.4158 41.1563 36.3536 41.4076 36.3536C41.4704 36.2913 41.4076 36.5403 41.4076 36.6648Z" fill="#9ECFC3"/>
<path d="M57.9326 42.8269C57.6814 42.8269 57.4301 42.8892 57.2416 42.8269C57.1788 42.8269 57.2416 42.5779 57.3044 42.4534C57.5557 42.4534 57.807 42.3912 57.9955 42.4534C58.0583 42.5157 57.9955 42.7024 57.9326 42.8269Z" fill="#9ECFC3"/>
<path d="M74.0777 49.5503C73.8264 49.5503 73.5752 49.6125 73.3867 49.6125C73.3239 49.6125 73.3867 49.3635 73.3867 49.239C73.638 49.239 73.8893 49.1768 74.1406 49.1768C74.2034 49.1768 74.0777 49.4258 74.0777 49.5503Z" fill="#9ECFC3"/>
<path d="M89.72 56.9575C89.5315 56.9575 89.2802 56.9575 89.0918 56.9575C89.0289 56.9575 89.1546 56.7085 89.1546 56.584C89.4059 56.584 89.6572 56.584 89.8457 56.584C89.8457 56.584 89.72 56.833 89.72 56.9575Z" fill="#9ECFC3"/>
<path d="M104.421 65.424C104.232 65.424 103.981 65.424 103.793 65.3618C103.73 65.3618 103.793 65.1128 103.855 64.9883C104.107 64.9883 104.295 64.9883 104.484 65.0505C104.547 65.0505 104.484 65.2995 104.421 65.424Z" fill="#9ECFC3"/>
<path d="M116.234 76.4414C116.422 76.4414 116.673 76.5037 116.862 76.5659C116.925 76.5659 116.799 76.8772 116.736 77.0017C116.673 77.1262 116.422 77.1884 116.359 77.1884C116.234 76.9394 116.234 76.6904 116.234 76.4414Z" fill="#9ECFC3"/>
<path d="M127.416 90.5102C127.227 90.4479 127.039 90.4479 126.913 90.3857C126.85 90.3234 126.976 90.0744 126.976 89.8877C127.165 89.9499 127.416 89.95 127.541 90.0122C127.604 90.0122 127.479 90.3234 127.416 90.5102Z" fill="#9ECFC3"/>
<path d="M137.278 105.077C137.09 105.014 136.901 105.014 136.776 104.952C136.713 104.89 136.839 104.641 136.901 104.454C137.09 104.516 137.341 104.516 137.467 104.579C137.467 104.579 137.341 104.89 137.278 105.077Z" fill="#9ECFC3"/>
<path d="M146.764 120.078C146.576 120.016 146.387 120.016 146.262 119.891C146.199 119.829 146.387 119.518 146.45 119.331C146.639 119.393 146.827 119.393 147.016 119.518C147.016 119.518 146.827 119.891 146.764 120.078Z" fill="#9ECFC3"/>
<path d="M156.503 134.706C156.314 134.706 156.063 134.706 155.937 134.644C155.874 134.644 156.063 134.271 156.126 134.084C156.314 134.084 156.565 134.084 156.754 134.146C156.754 134.146 156.565 134.52 156.503 134.706Z" fill="#9ECFC3"/>
<path d="M166.68 148.775C166.491 148.775 166.24 148.775 166.114 148.65C166.051 148.65 166.24 148.277 166.303 148.09C166.491 148.09 166.742 148.09 166.931 148.152C166.994 148.214 166.805 148.588 166.68 148.775Z" fill="#9ECFC3"/>
<path d="M177.234 162.034C177.234 161.722 177.234 161.473 177.234 161.162C177.359 161.1 177.674 160.913 177.674 160.975C177.736 161.162 177.674 161.473 177.736 161.722C177.611 161.847 177.422 161.909 177.234 162.034Z" fill="#9ECFC3"/>
<path d="M189.36 173.986C189.172 173.986 188.92 173.986 188.795 173.923C188.732 173.923 188.92 173.55 188.983 173.363C189.172 173.363 189.423 173.363 189.611 173.426C189.611 173.426 189.423 173.799 189.36 173.986Z" fill="#9ECFC3"/>
</svg>
