<svg width="746" height="330" viewBox="0 0 746 330" fill="none" xmlns="http://www.w3.org/2000/svg">
<path d="M750.067 4.97412C750.318 4.4719 749.062 3.30003 747.305 2.54669C745.547 1.79336 743.705 1.54227 743.454 2.04449C743.203 2.54672 744.542 3.63483 746.3 4.47186C748.142 5.2252 749.816 5.56004 750.067 4.97412Z" fill="#11B382"/>
<path d="M725.292 -2.14002C723.618 -2.89335 722.111 -3.3119 721.86 -3.06079C721.609 -2.80968 722.781 -1.97263 724.371 -1.2193C726.129 -0.382266 727.803 0.119965 727.971 -0.214849C728.222 -0.46596 726.966 -1.38669 725.292 -2.14002Z" fill="#11B382"/>
<path d="M746.384 9.07596C746.719 8.82485 745.714 7.90414 744.124 7.06711C742.533 6.23007 740.776 5.72781 740.357 5.97892C739.855 6.23003 741.027 7.15077 742.785 8.07151C744.375 8.82484 746.049 9.32707 746.384 9.07596Z" fill="#11B382"/>
<path d="M739.018 2.71422C739.269 2.2957 737.93 1.20757 736.005 0.370534C734.331 -0.382797 732.741 -0.717652 732.573 -0.299135C732.322 0.119383 733.661 1.12383 735.587 1.96087C737.261 2.7979 738.767 3.13274 739.018 2.71422Z" fill="#11B382"/>
<path d="M735.755 5.64365C735.923 5.39254 734.751 4.55551 733.077 3.71848C731.403 2.88144 729.896 2.37918 729.729 2.63029C729.561 2.8814 730.733 3.71848 732.407 4.55551C734.081 5.39255 735.504 5.89476 735.755 5.64365Z" fill="#11B382"/>
<path d="M739.941 10.3316C741.447 11.1686 743.121 11.8383 743.373 11.6709C743.624 11.5034 742.452 10.5827 740.778 9.66195C739.271 8.82492 737.932 8.32268 737.597 8.49008C737.346 8.57379 738.35 9.41083 739.941 10.3316Z" fill="#11B382"/>
<path d="M722.863 0.202708C721.188 -0.634327 719.682 -1.22028 719.514 -1.13658C719.263 -1.05288 720.435 -0.21581 722.109 0.621225C723.532 1.37456 724.955 1.96048 725.29 1.87678C725.541 1.79307 724.453 1.03974 722.863 0.202708Z" fill="#11B382"/>
<path d="M748.56 15.772C747.137 14.935 745.63 14.3491 745.296 14.4328C744.961 14.5165 746.133 15.5209 747.723 16.4416C749.23 17.3623 750.569 17.8646 750.736 17.6135C750.988 17.5298 749.983 16.609 748.56 15.772Z" fill="#11B382"/>
<path d="M732.909 7.40179C733.16 7.31809 732.239 6.56475 730.816 5.72772C729.309 4.89068 727.552 4.13734 727.384 4.30475C727.217 4.38845 728.305 5.22552 729.812 6.06255C731.235 6.89959 732.658 7.48549 732.909 7.40179Z" fill="#11B382"/>
<path d="M730.482 8.48957C730.65 8.40586 729.562 7.56885 728.139 6.73181C726.799 5.97848 725.628 5.39258 725.376 5.39258C725.125 5.39258 726.13 6.22961 727.553 7.06665C728.892 7.90368 730.315 8.57327 730.482 8.48957Z" fill="#11B382"/>
<path d="M745.88 17.7807C744.541 16.86 743.034 16.1904 742.867 16.3578C742.699 16.4415 743.453 17.1948 744.708 18.0318C746.048 18.9526 747.554 19.7059 747.889 19.6222C748.224 19.5385 747.303 18.6178 745.88 17.7807Z" fill="#11B382"/>
<path d="M722.866 2.88122C723.117 2.88122 722.028 2.12787 720.522 1.29083C719.015 0.453797 717.592 -0.21582 717.425 -0.21582C717.174 -0.21582 718.262 0.537481 719.768 1.37452C721.191 2.21155 722.614 2.88122 722.866 2.88122Z" fill="#11B382"/>
<path d="M740.61 13.345C740.777 13.1776 739.606 12.3405 738.183 11.4197C736.676 10.5827 735.337 9.91311 735.169 10.0805C735.002 10.2479 736.09 11.0013 737.597 11.922C739.103 12.8427 740.443 13.5124 740.61 13.345Z" fill="#11B382"/>
<path d="M737.928 14.6006C738.095 14.5169 737.258 13.6798 735.919 12.8428C734.496 11.9221 733.073 11.1688 732.906 11.2525C732.738 11.3362 733.826 12.2569 735.249 13.1776C736.589 14.1821 737.76 14.768 737.928 14.6006Z" fill="#11B382"/>
<path d="M717.84 2.04419C719.179 2.88122 720.351 3.46711 720.518 3.46711C720.686 3.46711 719.681 2.63007 718.175 1.79304C716.919 1.0397 715.664 0.370117 715.412 0.370117C715.245 0.370117 716.417 1.12345 717.84 2.04419Z" fill="#11B382"/>
<path d="M743.371 19.5381C742.032 18.6174 740.777 17.9478 740.609 18.0315C740.442 18.1152 741.279 19.0359 742.534 19.9566C743.79 20.8774 745.045 21.547 745.297 21.3796C745.464 21.2959 744.711 20.4589 743.371 19.5381Z" fill="#11B382"/>
<path d="M728.22 9.49384C728.304 9.32643 727.299 8.48938 725.876 7.65235C724.537 6.81531 723.365 6.22939 723.365 6.3968C723.365 6.5642 724.453 7.48498 725.709 8.32202C727.048 9.15905 728.136 9.66124 728.22 9.49384Z" fill="#11B382"/>
<path d="M733.577 14.4328C732.405 13.5958 731.066 12.8424 730.899 13.0098C730.731 13.0935 731.401 13.8469 732.573 14.6839C733.828 15.6046 735.084 16.358 735.419 16.2743C735.67 16.1906 734.833 15.2698 733.577 14.4328Z" fill="#11B382"/>
<path d="M716.501 2.71423C715.245 1.87719 713.99 1.20756 713.822 1.29126C713.655 1.37496 714.408 1.96088 715.496 2.79791C716.752 3.63495 718.091 4.3883 718.342 4.3883C718.593 4.3046 717.672 3.55126 716.501 2.71423Z" fill="#11B382"/>
<path d="M739.771 22.3011C740.943 23.2218 742.031 23.8078 742.282 23.6404C742.533 23.4729 741.78 22.6359 740.608 21.7152C739.353 20.7107 738.013 20.0411 737.93 20.2922C737.846 20.4596 738.683 21.3803 739.771 22.3011Z" fill="#11B382"/>
<path d="M725.54 11.0007C725.791 10.917 724.954 10.1637 723.866 9.24297C722.61 8.32223 721.271 7.56891 721.187 7.73632C721.104 7.90373 721.941 8.74077 723.113 9.57781C724.201 10.4985 725.373 11.0844 725.54 11.0007Z" fill="#11B382"/>
<path d="M748.894 31.7597C749.145 31.5086 748.308 30.5041 747.22 29.5834C746.132 28.6627 744.96 28.0767 744.709 28.3279C744.541 28.579 745.295 29.5834 746.383 30.5042C747.471 31.5086 748.643 32.0108 748.894 31.7597Z" fill="#11B382"/>
<path d="M730.813 16.5253C729.725 15.6882 728.47 15.0186 728.302 15.186C728.051 15.3534 728.805 16.1905 729.893 17.1112C730.981 17.9482 732.153 18.6178 732.404 18.4504C732.655 18.283 731.902 17.446 730.813 16.5253Z" fill="#11B382"/>
<path d="M713.489 4.72271C714.661 5.55974 715.665 5.9783 715.749 5.81089C715.833 5.64349 714.912 4.72274 713.824 3.96941C712.652 3.13237 711.564 2.63016 711.48 2.88127C711.396 3.04868 712.317 3.96938 713.489 4.72271Z" fill="#11B382"/>
<path d="M739.017 26.8204C739.184 26.4856 738.347 25.4811 737.259 24.5604C736.171 23.6396 735.083 23.2211 734.999 23.5559C734.916 23.8907 735.585 24.8115 736.673 25.6485C737.761 26.5693 738.933 27.1552 739.017 26.8204Z" fill="#11B382"/>
<path d="M703.527 -0.0482906C704.699 0.788744 705.871 1.29096 705.954 1.03984C706.038 0.788734 705.117 -0.131994 703.946 -0.885326C702.857 -1.55495 701.937 -1.97348 701.769 -1.88978C701.518 -1.72237 702.355 -0.885326 703.527 -0.0482906Z" fill="#11B382"/>
<path d="M720.267 12.3405C721.439 13.1775 722.527 13.7634 722.695 13.4286C722.778 13.0938 721.941 12.173 720.77 11.336C719.765 10.5827 718.844 10.1642 718.593 10.3316C718.342 10.5827 719.095 11.5034 720.267 12.3405Z" fill="#11B382"/>
<path d="M700.178 3.88587C701.182 4.6392 702.27 5.05775 702.522 4.80664C702.856 4.55553 702.019 3.46739 700.931 2.71405C699.927 2.04443 698.922 1.70962 698.755 2.04444C698.588 2.29555 699.173 3.04884 700.178 3.88587Z" fill="#11B382"/>
<path d="M716.67 16.7764C717.675 17.5297 718.679 18.0319 719.014 17.7808C719.349 17.5297 718.512 16.3579 717.423 15.5208C716.419 14.7675 715.498 14.4327 715.247 14.7675C715.08 15.0186 715.666 15.9393 716.67 16.7764Z" fill="#11B382"/>
<path d="M735.167 31.5914C735.418 31.2565 734.832 30.2521 733.911 29.415C732.99 28.578 731.902 27.9921 731.567 28.2432C731.149 28.578 731.735 29.5825 732.823 30.5869C733.827 31.4239 734.916 31.9262 735.167 31.5914Z" fill="#11B382"/>
<path d="M712.566 8.8243C712.817 8.57318 712.147 7.81984 711.143 6.98281C710.138 6.22948 709.05 5.64358 708.715 5.81099C708.38 5.9784 709.218 7.06654 710.306 7.90358C711.394 8.65691 712.398 9.07541 712.566 8.8243Z" fill="#11B382"/>
<path d="M726.629 20.8781C727.55 21.7152 728.638 22.2174 728.973 22.0499C729.308 21.8825 728.805 21.0455 727.801 20.1248C726.713 19.1203 725.457 18.5344 725.206 18.7855C725.039 19.1204 725.625 20.0411 726.629 20.8781Z" fill="#11B382"/>
<path d="M743.789 33.7685C742.785 32.8477 741.697 32.3455 741.445 32.5966C741.111 32.8478 741.864 34.1033 742.952 35.024C743.957 35.8611 744.961 36.2796 745.128 35.9448C745.38 35.6937 744.794 34.6892 743.789 33.7685Z" fill="#11B382"/>
<path d="M738.515 40.9669C739.52 41.9713 740.524 42.3898 740.859 42.055C741.194 41.6365 740.608 40.632 739.603 39.6276C738.766 38.7906 737.846 38.372 737.511 38.6232C737.092 38.958 737.511 40.0462 738.515 40.9669Z" fill="#11B382"/>
<path d="M725.039 27.491C725.206 26.9887 724.536 25.9843 723.448 25.1473C722.444 24.3939 721.439 24.1429 721.356 24.6451C721.272 25.1473 721.858 26.068 722.779 26.8214C723.867 27.6584 724.871 27.9095 725.039 27.491Z" fill="#11B382"/>
<path d="M692.143 1.29153C692.394 0.956716 691.808 0.0359566 690.72 -0.717375C689.716 -1.47071 688.628 -1.72178 688.46 -1.30326C688.293 -0.968445 688.879 -0.13145 689.799 0.538178C690.804 1.29151 691.892 1.62634 692.143 1.29153Z" fill="#11B382"/>
<path d="M708.717 13.93C709.052 13.5952 708.466 12.6744 707.462 11.8374C706.457 11.0004 705.369 10.6656 705.118 11.0004C704.951 11.3352 705.453 12.256 706.29 12.9256C707.294 13.8463 708.382 14.2648 708.717 13.93Z" fill="#11B382"/>
<path d="M744.041 52.7693C744.962 53.69 745.966 53.8574 746.218 53.2715C746.385 52.7693 745.799 51.5975 745.046 50.8441C744.209 50.0908 743.288 49.756 742.953 50.1745C742.618 50.593 743.204 51.9323 744.041 52.7693Z" fill="#11B382"/>
<path d="M730.563 38.2885C730.815 37.7863 730.396 36.7818 729.475 36.0285C728.554 35.1078 727.466 34.773 727.215 35.3589C726.964 35.8611 727.466 36.8655 728.303 37.7026C729.14 38.5396 730.312 38.8744 730.563 38.2885Z" fill="#11B382"/>
<path d="M698.255 10.8334C698.506 10.4149 698.087 9.57782 697.167 8.82449C696.162 7.98745 695.074 7.73635 694.739 8.15487C694.488 8.65709 695.074 9.74525 696.162 10.4149C697.083 11.1682 697.92 11.2519 698.255 10.8334Z" fill="#11B382"/>
<path d="M712.232 23.473C712.985 24.2263 714.073 24.5612 714.492 24.2264C714.91 23.8915 714.492 22.8034 713.571 21.9664C712.734 21.213 711.73 20.8782 711.311 21.1293C710.893 21.4641 711.311 22.636 712.232 23.473Z" fill="#11B382"/>
<path d="M734.748 47.8299C733.911 46.9929 732.99 46.7418 732.656 47.244C732.321 47.7462 732.739 48.8344 733.66 49.7551C734.497 50.5922 735.502 50.8432 735.836 50.341C736.087 49.8388 735.585 48.5832 734.748 47.8299Z" fill="#11B382"/>
<path d="M719.933 35.6096C720.268 35.1911 719.849 34.1029 719.012 33.2659C718.175 32.4289 717.171 32.1778 716.836 32.5963C716.418 33.0148 716.836 34.1029 717.673 34.94C718.678 35.777 719.598 36.1118 719.933 35.6096Z" fill="#11B382"/>
<path d="M687.373 8.99196C687.708 8.57344 687.206 7.48526 686.369 6.81564C685.532 6.14601 684.443 5.9786 684.109 6.39712C683.774 6.89934 684.192 7.82008 685.113 8.48971C685.95 9.24304 687.038 9.41047 687.373 8.99196Z" fill="#11B382"/>
<path d="M703.946 21.7146C704.197 21.2124 703.695 20.1242 702.858 19.4546C702.021 18.7013 701.017 18.5339 700.682 19.0361C700.347 19.5383 700.766 20.5428 701.77 21.2961C702.607 21.9657 703.611 22.2168 703.946 21.7146Z" fill="#11B382"/>
<path d="M738.348 62.8964C739.101 63.7335 740.19 63.9846 740.441 63.3987C740.776 62.8965 740.441 61.892 739.771 61.055C738.934 60.1343 737.93 59.7994 737.511 60.3016C737.176 60.8039 737.511 61.9757 738.348 62.8964Z" fill="#11B382"/>
<path d="M724.954 47.9146C725.122 47.1612 724.536 45.9894 723.615 45.3197C722.778 44.7338 722.025 44.8175 721.773 45.4035C721.522 46.0731 722.108 47.3286 722.945 47.9983C723.866 48.7516 724.787 48.6679 724.954 47.9146Z" fill="#11B382"/>
<path d="M675.988 8.2386C676.407 7.65268 675.904 6.64826 674.984 6.06233C674.147 5.56011 673.226 5.4764 672.891 5.89492C672.473 6.39714 672.807 7.48527 673.644 8.2386C674.398 8.82453 675.57 8.82453 675.988 8.2386Z" fill="#11B382"/>
<path d="M692.73 20.3752C693.232 19.7056 692.814 18.7012 691.893 18.0315C691.14 17.4456 690.219 17.2782 689.8 17.613C689.298 18.0315 689.633 19.2871 690.47 20.1241C691.14 20.8775 692.228 21.0449 692.73 20.3752Z" fill="#11B382"/>
<path d="M709.138 33.5166C709.305 32.7633 708.719 31.5915 707.715 31.0055C706.878 30.5033 706.041 30.587 705.873 31.173C705.622 31.9263 706.208 33.0981 707.045 33.7678C707.966 34.3537 708.886 34.27 709.138 33.5166Z" fill="#11B382"/>
<path d="M744.459 73.6945C743.79 73.0249 742.953 72.7738 742.618 73.1086C742.199 73.5271 742.618 74.6152 743.538 75.4523C744.208 76.1219 745.129 76.4568 745.38 76.1219C745.715 75.7034 745.296 74.5316 744.459 73.6945Z" fill="#11B382"/>
<path d="M729.811 60.8887C730.062 60.3865 729.559 59.1309 728.639 58.3776C727.885 57.7917 727.048 57.6243 726.797 58.1265C726.546 58.6287 726.881 59.5494 727.634 60.2191C728.555 61.1398 729.559 61.3909 729.811 60.8887Z" fill="#11B382"/>
<path d="M710.975 43.8965C710.724 44.4824 711.143 45.4031 711.896 46.0727C712.733 46.8261 713.821 46.9935 713.989 46.3238C714.156 45.8216 713.654 44.7334 712.984 44.0638C712.231 43.3105 711.226 43.2268 710.975 43.8965Z" fill="#11B382"/>
<path d="M663.099 6.56494C662.346 6.06272 661.341 6.14646 661.006 6.64868C660.588 7.2346 661.006 8.23902 661.927 8.82495C662.68 9.32717 663.685 9.24347 664.103 8.82495C664.522 8.23902 664.02 7.15087 663.099 6.56494Z" fill="#11B382"/>
<path d="M681.178 20.1247C681.596 19.5387 681.094 18.3669 680.173 17.781C679.42 17.2787 678.499 17.2787 678.165 17.781C677.746 18.3669 678.165 19.455 679.085 20.041C679.839 20.5432 680.843 20.6269 681.178 20.1247Z" fill="#11B382"/>
<path d="M697.752 32.7634C698.087 32.2612 697.669 31.0057 696.832 30.336C696.078 29.7501 695.158 29.6664 694.823 30.1686C694.404 30.7546 694.823 31.8427 695.743 32.5123C696.497 33.0982 697.418 33.1819 697.752 32.7634Z" fill="#11B382"/>
<path d="M735.167 72.5233C735.335 72.1048 734.833 71.1841 733.995 70.4307C733.242 69.7611 732.405 69.51 732.238 70.0122C732.07 70.4307 732.656 71.3515 733.41 72.0211C734.247 72.6907 735 72.9418 735.167 72.5233Z" fill="#11B382"/>
<path d="M718.175 55.95C717.338 55.2804 716.501 55.113 716.333 55.6153C716.166 56.0338 716.752 57.0382 717.505 57.6241C718.342 58.2937 719.096 58.4612 719.263 58.0426C719.43 57.5404 718.928 56.6197 718.175 55.95Z" fill="#11B382"/>
<path d="M634.304 0.203502C634.555 -0.298719 634.053 -1.05208 633.216 -1.5543C632.379 -1.97282 631.291 -1.88911 631.039 -1.38688C630.788 -0.884664 631.291 -0.0475982 632.128 0.370919C632.965 0.789437 633.969 0.789427 634.304 0.203502Z" fill="#11B382"/>
<path d="M650.042 9.15966C650.879 9.66188 651.884 9.74555 652.219 9.32703C652.553 8.82481 652.219 8.07152 651.381 7.48559C650.544 6.98337 649.54 6.89964 649.205 7.40186C648.787 7.82037 649.205 8.65744 650.042 9.15966Z" fill="#11B382"/>
<path d="M667.787 19.6222C668.624 20.1244 669.545 20.1244 669.796 19.6222C670.047 19.12 669.545 18.2829 668.624 17.697C667.787 17.1948 666.783 17.1948 666.615 17.697C666.364 18.1992 666.95 19.12 667.787 19.6222Z" fill="#11B382"/>
<path d="M686.619 31.5084C686.954 31.0899 686.536 30.1691 685.782 29.5832C685.029 28.9136 684.025 28.7462 683.69 29.1647C683.355 29.5832 683.773 30.5039 684.611 31.0899C685.364 31.7595 686.285 31.9269 686.619 31.5084Z" fill="#11B382"/>
<path d="M703.108 44.3153C703.443 43.8968 703.024 42.9761 702.187 42.3064C701.434 41.6368 700.513 41.3857 700.178 41.8042C699.927 42.139 700.346 43.1434 701.099 43.8131C701.936 44.4827 702.773 44.7338 703.108 44.3153Z" fill="#11B382"/>
<path d="M738.183 80.7254C737.932 80.9765 738.35 81.7298 739.02 82.3995C739.69 83.0691 740.527 83.4039 740.694 83.1528C740.862 82.9854 740.443 82.1483 739.941 81.6461C739.271 80.9765 738.434 80.558 738.183 80.7254Z" fill="#11B382"/>
<path d="M722.196 66.4959C721.945 66.747 722.279 67.5003 723.033 68.2536C723.702 68.8395 724.539 69.1743 724.791 68.9232C724.958 68.6721 724.539 67.9188 724.037 67.4166C723.368 66.6632 722.447 66.2447 722.196 66.4959Z" fill="#11B382"/>
<path d="M708.634 55.1127C708.885 54.7778 708.299 53.8571 707.63 53.2712C706.96 52.7689 706.291 52.5178 706.039 52.8526C705.788 53.1038 706.123 53.9408 706.877 54.6105C707.546 55.1127 708.467 55.4475 708.634 55.1127Z" fill="#11B382"/>
<path d="M622.252 0.872776C622.503 0.454259 622.001 -0.382797 621.164 -0.717611C620.41 -1.05242 619.741 -1.13613 619.406 -0.717611C619.071 -0.299093 619.489 0.454238 620.243 0.956459C620.996 1.29127 622.001 1.29129 622.252 0.872776Z" fill="#11B382"/>
<path d="M639.579 8.15481C638.323 7.65259 637.486 7.73627 637.319 8.23849C637.151 8.74071 637.821 9.49407 638.658 9.82888C639.495 10.1637 640.416 9.91255 640.332 9.32663C640.332 8.99181 639.83 8.48962 639.579 8.15481Z" fill="#11B382"/>
<path d="M655.314 17.4462C654.979 17.8647 655.398 18.618 656.151 19.1203C656.904 19.6225 657.825 19.6225 658.16 19.204C658.327 18.8692 657.992 18.1158 657.407 17.6973C656.653 17.1951 655.649 17.0277 655.314 17.4462Z" fill="#11B382"/>
<path d="M675.404 29.9181C675.571 29.4159 674.985 28.5788 674.148 28.1603C673.478 27.8255 672.725 27.8255 672.558 28.1603C672.39 28.5788 672.893 29.4159 673.646 29.9181C674.399 30.4203 675.32 30.4203 675.404 29.9181Z" fill="#11B382"/>
<path d="M690.388 41.7208C691.058 42.3068 691.979 42.4742 692.23 42.1394C692.397 41.8882 692.062 41.0512 691.476 40.549C690.807 39.9631 689.802 39.6283 689.468 39.9631C689.216 40.2979 689.635 41.1349 690.388 41.7208Z" fill="#11B382"/>
<path d="M687.626 49.2535C687.793 49.0024 687.291 48.3328 686.621 47.9143C685.868 47.4121 685.198 47.2446 685.115 47.5795C685.031 47.8306 685.533 48.5002 686.203 48.9187C686.789 49.3373 687.458 49.5046 687.626 49.2535Z" fill="#11B382"/>
<path d="M669.63 36.614C668.877 36.1117 668.123 35.9443 667.956 36.1954C667.705 36.4466 668.123 37.0325 668.877 37.5347C669.546 37.9532 670.3 38.1206 670.551 37.8695C670.718 37.7021 670.383 37.1162 669.63 36.614Z" fill="#11B382"/>
<path d="M653.055 27.4899C653.222 27.1551 652.72 26.5692 651.967 26.2344C651.13 25.8159 650.46 25.8159 650.376 26.1507C650.293 26.4855 650.795 27.0714 651.465 27.4899C652.218 27.8248 652.887 27.8248 653.055 27.4899Z" fill="#11B382"/>
<path d="M635.058 18.4501C635.309 18.1153 634.975 17.613 634.137 17.2782C633.384 16.9434 632.547 16.8598 632.38 17.1109C632.129 17.4457 632.547 17.9479 633.3 18.3664C634.054 18.7012 634.807 18.7849 635.058 18.4501Z" fill="#11B382"/>
<path d="M614.383 8.15544C614.634 8.49025 615.052 8.99244 615.555 9.32726C616.141 9.74577 616.978 9.7458 617.145 9.41099C617.312 9.07618 616.81 8.49022 616.057 8.0717C615.22 7.65319 614.55 7.65322 614.383 8.15544Z" fill="#11B382"/>
<path d="M704.366 61.4747C704.533 61.2236 704.031 60.6376 703.278 60.1354C702.524 59.6332 701.938 59.3821 701.771 59.7169C701.687 59.968 702.189 60.6377 702.859 61.1399C703.612 61.5584 704.198 61.7258 704.366 61.4747Z" fill="#11B382"/>
<path d="M719.934 73.1929C719.264 72.607 718.511 72.2722 718.343 72.4396C718.176 72.607 718.511 73.1929 719.18 73.7788C719.766 74.281 720.52 74.6159 720.687 74.5322C721.022 74.2811 720.687 73.7789 719.934 73.1929Z" fill="#11B382"/>
<path d="M736.172 86.6692C735.503 86.0832 734.833 85.6647 734.666 85.8321C734.498 85.9995 734.917 86.5017 735.587 87.0877C736.172 87.5899 736.926 88.0084 737.093 87.9247C737.261 87.7573 736.842 87.2551 736.172 86.6692Z" fill="#11B382"/>
<path d="M609.195 0.286755C609.614 0.370459 610.284 0.537876 610.702 0.454173C611.204 0.370469 610.702 -0.633993 609.865 -1.13621C609.112 -1.55473 608.442 -1.72213 608.107 -1.38731C607.856 -1.0525 608.191 -0.382873 609.195 0.286755Z" fill="#11B382"/>
<path d="M627.439 8.23828C626.685 8.40569 626.1 8.40569 625.848 8.6568C625.514 8.90791 626.099 9.57754 626.853 9.91235C627.774 10.3309 628.862 10.3309 628.694 9.74493C628.527 9.41012 627.941 8.90791 627.439 8.23828Z" fill="#11B382"/>
<path d="M646.775 18.5337C646.524 18.1988 646.189 17.6967 645.603 17.3618C644.85 16.8596 643.929 16.9433 643.762 17.4455C643.678 17.864 644.264 18.45 645.017 18.7848C645.854 19.1196 646.608 19.0359 646.775 18.5337Z" fill="#11B382"/>
<path d="M663.183 26.9883C662.513 27.072 661.844 27.072 661.593 27.2394C661.258 27.4905 661.844 28.1601 662.597 28.5786C663.434 29.0808 664.522 29.1646 664.355 28.6624C664.187 28.2438 663.685 27.6579 663.183 26.9883Z" fill="#11B382"/>
<path d="M680.761 38.6226C679.756 37.953 679.086 37.8693 678.835 38.1204C678.584 38.4553 679.003 39.0412 679.672 39.5434C680.509 40.1293 681.514 40.3804 681.43 39.8782C681.347 39.5434 680.928 38.9575 680.761 38.6226Z" fill="#11B382"/>
<path d="M696.916 51.9316C697.251 52.0153 697.92 52.2664 698.172 52.1827C698.59 52.099 697.92 51.0946 697.083 50.5086C696.414 50.0064 695.744 49.9227 695.577 50.2575C695.409 50.5086 695.828 51.1783 696.916 51.9316Z" fill="#11B382"/>
<path d="M714.575 65.241C714.826 64.9062 714.407 64.2365 713.821 63.6506C713.068 62.981 712.231 62.7298 712.064 63.0646C711.896 63.3995 712.398 64.0691 713.068 64.4876C713.654 64.9061 714.156 65.0736 714.575 65.241Z" fill="#11B382"/>
<path d="M730.062 77.4612C729.141 76.6241 728.472 76.373 728.304 76.6241C728.137 76.7916 728.472 77.4612 729.141 78.0471C729.978 78.7167 730.899 79.219 730.815 78.7167C730.732 78.3819 730.23 77.796 730.062 77.4612Z" fill="#11B382"/>
<path d="M747.137 93.2814C746.635 92.6118 746.467 92.1096 746.049 91.6074C745.547 91.0214 744.709 90.5192 744.458 90.6029C744.124 90.6866 744.458 91.3563 745.295 92.0259C745.798 92.5281 746.3 92.7792 747.137 93.2814Z" fill="#11B382"/>
<path d="M742.617 95.0393C741.947 94.5371 741.361 94.2023 741.361 94.3697C741.361 94.5371 741.612 94.872 742.198 95.3742C742.868 95.9601 743.538 96.2949 743.621 96.2112C743.705 96.1275 743.287 95.6253 742.617 95.0393Z" fill="#11B382"/>
<path d="M727.383 82.9025C727.132 82.5677 726.797 82.1491 726.295 81.7306C725.709 81.2284 725.039 80.9773 725.039 81.2284C725.039 81.3958 725.29 81.8143 725.96 82.3165C726.546 82.8188 727.215 83.1536 727.383 82.9025Z" fill="#11B382"/>
<path d="M710.811 70.0949C710.559 69.7601 710.225 69.3416 709.722 68.923C709.136 68.4208 708.467 68.2534 708.467 68.5883C708.467 68.8394 708.718 69.1742 709.388 69.6764C710.057 70.1786 710.727 70.4297 710.811 70.0949Z" fill="#11B382"/>
<path d="M604.673 7.73658C605.343 8.15509 606.012 8.15507 606.096 7.82026C606.096 7.48545 605.427 6.64843 604.841 6.48102C604.338 6.31362 603.836 6.31362 603.669 6.48102C603.334 6.64843 603.92 7.31806 604.673 7.73658Z" fill="#11B382"/>
<path d="M622.752 16.7763C622.082 16.4415 621.329 16.3578 621.162 16.6926C620.994 16.9438 621.245 17.3622 621.915 17.697C622.584 18.1156 623.422 18.1993 623.673 17.9482C623.84 17.7808 623.421 17.1948 622.752 16.7763Z" fill="#11B382"/>
<path d="M640.08 26.4022C640.834 26.8207 641.587 26.9044 641.754 26.6533C641.922 26.4022 641.503 25.8163 640.834 25.4815C640.164 25.1467 639.662 25.1467 639.327 25.3141C638.992 25.4815 639.327 25.9837 640.08 26.4022Z" fill="#11B382"/>
<path d="M659.667 35.9447C659.416 35.6935 659.081 35.1913 658.579 34.8565C657.993 34.4379 657.156 34.438 657.156 34.7728C657.072 35.0239 657.324 35.4424 657.993 35.7772C658.663 36.1958 659.416 36.3632 659.667 35.9447Z" fill="#11B382"/>
<path d="M677.075 46.491C676.824 46.2399 676.49 45.7376 675.987 45.3191C675.401 44.9006 674.648 44.8169 674.564 45.068C674.481 45.3191 674.732 45.6539 675.401 46.1561C676.071 46.6584 676.824 46.8258 677.075 46.491Z" fill="#11B382"/>
<path d="M694.068 57.9588C693.817 57.7077 693.482 57.2055 692.98 56.787C692.394 56.2847 691.641 56.201 691.641 56.5359C691.641 56.787 691.892 57.1218 692.478 57.624C693.231 58.0425 693.901 58.2936 694.068 57.9588Z" fill="#11B382"/>
<path d="M732.655 90.3516C733.241 90.6864 733.743 90.9375 733.994 91.0213C734.329 91.105 733.91 90.6864 733.408 90.1842C732.822 89.682 731.818 89.0961 731.901 89.3472C731.901 89.4309 732.236 89.8494 732.655 90.3516Z" fill="#11B382"/>
<path d="M717.508 78.4655C717.257 78.2144 717.089 77.8795 716.754 77.5447C716.252 77.0425 715.248 76.5403 715.164 76.7914C715.164 76.9588 715.415 77.2936 716.001 77.7959C716.671 78.2144 717.173 78.4655 717.508 78.4655Z" fill="#11B382"/>
<path d="M700.767 66.3286C700.599 66.0775 700.432 65.8264 700.013 65.4078C699.511 64.9893 698.423 64.4871 698.423 64.7382C698.339 64.9056 698.674 65.3242 699.26 65.7427C699.846 66.1612 700.432 66.4123 700.767 66.3286Z" fill="#11B382"/>
<path d="M594.376 4.2205C593.707 4.1368 593.204 3.96938 592.953 4.05309C592.618 4.13679 593.372 5.05754 594.041 5.47605C594.627 5.81087 595.213 5.97826 595.213 5.55974C595.13 5.22492 594.795 4.80643 594.376 4.2205Z" fill="#11B382"/>
<path d="M612.541 16.6924C612.373 16.4413 612.206 16.1064 611.787 15.7716C611.285 15.3531 610.113 15.102 610.113 15.3531C610.029 15.6042 610.281 16.0227 610.95 16.4413C611.536 16.7761 612.206 16.9435 612.541 16.6924Z" fill="#11B382"/>
<path d="M630.538 25.7325C630.287 25.4814 630.119 25.1466 629.701 24.8954C629.199 24.5606 628.027 24.3932 627.943 24.6443C627.859 24.8955 628.111 25.2302 628.864 25.5651C629.617 25.8999 630.119 25.9836 630.538 25.7325Z" fill="#11B382"/>
<path d="M646.944 34.2707C647.614 34.3544 648.2 34.5217 648.451 34.438C648.786 34.3543 648.451 33.9358 647.865 33.5173C647.279 33.0988 646.107 32.8477 646.107 33.1825C646.191 33.4336 646.61 33.8522 646.944 34.2707Z" fill="#11B382"/>
<path d="M665.359 42.9754C664.689 42.8917 664.187 42.7243 663.936 42.808C663.685 42.8917 664.438 43.7287 665.108 43.9798C665.694 44.2309 666.364 44.3983 666.28 44.0635C666.196 43.8961 665.778 43.4776 665.359 42.9754Z" fill="#11B382"/>
<path d="M682.855 53.7733C682.186 53.6059 681.683 53.3548 681.349 53.4385C680.93 53.4385 681.516 54.1081 682.269 54.6104C682.939 55.0289 683.525 55.1963 683.525 54.9452C683.609 54.694 683.19 54.2756 682.855 53.7733Z" fill="#11B382"/>
<path d="M739.521 99.1399C740.023 99.1399 740.525 99.2236 740.609 99.0561C740.776 98.805 740.358 98.3028 739.688 97.8843C739.102 97.4658 738.516 97.2984 738.6 97.6332C738.767 97.8843 739.186 98.3866 739.521 99.1399Z" fill="#11B382"/>
<path d="M724.539 86.5013C724.037 85.9154 723.786 85.4969 723.451 85.1621C722.949 84.7436 722.363 84.4924 722.195 84.6599C722.028 84.8273 722.363 85.3295 722.949 85.748C723.284 86.0829 723.786 86.2502 724.539 86.5013Z" fill="#11B382"/>
<path d="M707.798 74.2812C707.212 73.6953 706.961 73.3605 706.542 73.0256C706.04 72.6071 705.454 72.4397 705.37 72.6071C705.286 72.7745 705.621 73.2768 706.207 73.6116C706.626 73.9464 707.128 74.0301 707.798 74.2812Z" fill="#11B382"/>
<path d="M584.919 3.04905C584.416 2.37942 584.249 1.96094 583.83 1.62613C583.328 1.20761 582.742 0.956499 582.575 1.20761C582.407 1.45872 582.742 1.96091 583.244 2.37943C583.663 2.71424 584.165 2.79794 584.919 3.04905Z" fill="#11B382"/>
<path d="M600.07 14.6839C600.656 14.6839 601.158 14.7676 601.409 14.6839C601.66 14.6002 601.158 13.8468 600.656 13.5957C600.07 13.2609 599.4 13.0098 599.4 13.3446C599.4 13.6794 599.735 14.0979 600.07 14.6839Z" fill="#11B382"/>
<path d="M619.488 24.9794C618.986 24.4772 618.734 24.0587 618.316 23.8076C617.73 23.4727 617.144 23.389 616.977 23.6401C616.809 23.8913 617.144 24.3098 617.73 24.5609C618.148 24.812 618.651 24.812 619.488 24.9794Z" fill="#11B382"/>
<path d="M637.822 33.1818C637.152 32.6796 636.901 32.3448 636.399 32.0937C635.813 31.8426 635.227 31.7589 635.143 32.01C635.06 32.2611 635.478 32.6797 636.148 32.8471C636.65 33.0982 637.069 33.0981 637.822 33.1818Z" fill="#11B382"/>
<path d="M655.818 42.2216C655.232 41.7194 654.898 41.3009 654.479 41.0497C653.893 40.7149 653.307 40.6312 653.224 40.8823C653.14 41.1334 653.558 41.552 654.144 41.8031C654.646 42.0542 655.065 42.0542 655.818 42.2216Z" fill="#11B382"/>
<path d="M671.889 51.7647C672.391 51.8484 672.893 51.9321 673.061 51.8484C673.228 51.7647 672.809 51.2625 672.14 50.9277C671.554 50.5929 670.884 50.4255 670.968 50.6766C670.968 50.9277 671.387 51.2625 671.889 51.7647Z" fill="#11B382"/>
<path d="M689.549 61.5585C688.963 61.3911 688.46 61.2237 688.293 61.3074C688.126 61.3911 688.544 61.8096 689.13 62.2281C689.716 62.6467 690.302 62.8141 690.302 62.563C690.302 62.3956 689.883 62.0607 689.549 61.5585Z" fill="#11B382"/>
<path d="M667.619 57.6233C668.205 57.707 668.707 57.8744 668.958 57.8744C669.293 57.7907 668.875 57.2048 668.372 56.87C667.954 56.7026 667.284 56.4515 667.201 56.5352C667.117 56.7863 667.452 57.2048 667.619 57.6233Z" fill="#11B382"/>
<path d="M651.883 47.9143C651.381 47.4121 651.213 47.161 650.878 46.9098C650.292 46.4913 649.539 46.3239 649.539 46.575C649.539 46.7424 649.874 47.161 650.125 47.3284C650.46 47.5795 651.046 47.6632 651.883 47.9143Z" fill="#11B382"/>
<path d="M633.719 39.041C633.3 38.6224 633.133 38.3713 632.798 38.1202C632.296 37.7854 631.375 37.618 631.375 37.7854C631.375 37.9528 631.626 38.2877 631.877 38.4551C632.296 38.7062 632.882 38.7898 633.719 39.041Z" fill="#11B382"/>
<path d="M613.798 30.504C614.384 30.504 614.886 30.5877 615.054 30.4203C615.137 30.3366 614.635 29.8344 614.3 29.667C613.965 29.4996 613.212 29.3321 613.212 29.4158C613.129 29.6669 613.463 30.0018 613.798 30.504Z" fill="#11B382"/>
<path d="M597.809 20.8779C597.307 20.3757 597.139 20.0408 596.804 19.7897C596.302 19.3712 595.465 19.2038 595.549 19.4549C595.549 19.706 595.884 20.1245 596.135 20.2919C596.553 20.5431 597.056 20.6268 597.809 20.8779Z" fill="#11B382"/>
<path d="M580.318 9.3271C580.402 8.82487 579.9 8.23897 579.314 7.98786C578.979 7.82045 578.477 7.82045 578.477 7.98786C578.477 8.15527 578.895 8.82491 579.146 8.99231C579.565 9.15972 580.067 9.24339 580.318 9.3271Z" fill="#11B382"/>
<path d="M684.945 69.0075C685.531 69.0075 686.033 69.0912 686.201 68.9238C686.284 68.8401 685.782 68.1705 685.531 68.0031C685.196 67.7519 684.443 67.5846 684.443 67.752C684.359 67.9194 684.694 68.4216 684.945 69.0075Z" fill="#11B382"/>
<path d="M703.025 81.3951C703.109 80.8929 702.607 80.1396 702.021 79.9721C701.686 79.8047 701.184 79.8047 701.184 80.0558C701.184 80.3069 701.602 80.9766 701.853 81.0603C702.272 81.3114 702.774 81.3114 703.025 81.3951Z" fill="#11B382"/>
<path d="M719.851 94.9554C719.516 94.2858 719.432 93.8672 719.097 93.5324C718.679 92.9465 717.842 92.6117 717.758 92.9465C717.674 93.1976 717.842 93.7835 718.093 93.9509C718.511 94.3695 719.014 94.5369 719.851 94.9554Z" fill="#11B382"/>
<path d="M736.004 108.934C735.586 108.181 735.502 107.763 735.167 107.344C734.665 106.758 733.912 106.507 733.828 106.926C733.828 107.177 733.996 107.846 734.247 108.097C734.749 108.432 735.251 108.6 736.004 108.934Z" fill="#11B382"/>
<path d="M741.444 120.401C741.193 119.899 741.109 119.564 740.774 119.23C740.439 118.727 740.021 118.56 739.77 118.644C739.435 118.727 739.686 119.23 740.188 119.648C740.523 119.899 740.858 120.067 741.444 120.401Z" fill="#11B382"/>
<path d="M725.54 105.837C725.122 105.251 724.955 104.916 724.62 104.581C724.201 104.079 723.615 104.079 723.615 104.414C723.615 104.749 723.866 105.084 724.369 105.418C724.703 105.586 725.038 105.586 725.54 105.837Z" fill="#11B382"/>
<path d="M708.633 90.7702C708.047 90.6028 707.628 90.3517 707.461 90.5191C707.377 90.6028 707.461 91.0213 707.712 91.2724C708.047 91.6909 708.884 92.1095 708.968 91.8584C708.968 91.6072 708.8 91.2724 708.633 90.7702Z" fill="#11B382"/>
<path d="M691.891 77.7127C691.389 77.629 690.887 77.4616 690.803 77.5453C690.719 77.629 690.887 78.0475 691.138 78.2986C691.473 78.7171 692.393 79.0519 692.393 78.8008C692.393 78.5497 692.142 78.2149 691.891 77.7127Z" fill="#11B382"/>
<path d="M674.816 65.5754C674.314 65.5754 673.896 65.408 673.812 65.5754C673.728 65.7428 674.063 66.1613 674.314 66.3287C674.816 66.7472 675.486 66.9146 675.486 66.5798C675.486 66.4124 675.151 66.0776 674.816 65.5754Z" fill="#11B382"/>
<path d="M657.49 54.6944C656.988 54.6944 656.569 54.6107 656.486 54.6944C656.402 54.8618 656.737 55.1967 656.988 55.4478C657.49 55.7826 658.244 55.95 658.16 55.6989C658.16 55.4478 657.825 55.1966 657.49 54.6944Z" fill="#11B382"/>
<path d="M639.915 45.1516C639.412 45.0679 638.91 44.9842 638.826 45.0679C638.743 45.1516 638.91 45.4864 639.161 45.6538C639.58 45.9886 640.501 46.156 640.501 45.9886C640.417 45.8212 640.166 45.5701 639.915 45.1516Z" fill="#11B382"/>
<path d="M621.414 36.6977C620.912 36.6977 620.409 36.614 620.409 36.7814C620.326 36.8651 620.661 37.1999 620.995 37.3673C621.498 37.7021 622.251 37.7021 622.167 37.451C622.167 37.2836 621.832 37.0325 621.414 36.6977Z" fill="#11B382"/>
<path d="M603 28.9131C603.502 28.9131 603.92 28.9132 604.088 28.8295C604.255 28.6621 603.586 27.9924 603.083 27.9087C602.749 27.825 602.33 27.9087 602.33 27.9924C602.33 28.1598 602.665 28.4946 603 28.9131Z" fill="#11B382"/>
<path d="M586.761 18.8687C586.342 18.3665 586.091 18.0317 585.756 17.7806C585.254 17.4458 584.668 17.4458 584.668 17.8643C584.668 18.1991 585.003 18.5339 585.505 18.7013C585.924 18.8687 586.258 18.8687 586.761 18.8687Z" fill="#11B382"/>
<path d="M569.605 7.65242C569.186 7.0665 569.019 6.73168 568.684 6.39687C568.182 5.97835 567.596 6.06207 567.596 6.56429C567.596 6.9828 567.847 7.40133 568.349 7.56874C568.684 7.65244 569.019 7.56872 569.605 7.65242Z" fill="#11B382"/>
<path d="M588.602 10.582C589.104 11.0843 589.355 11.4191 589.773 11.6702C590.276 12.0887 591.029 12.2561 590.862 11.9213C590.778 11.6702 590.359 11.2517 590.108 11.0843C589.69 10.9169 589.271 10.8331 588.602 10.582Z" fill="#11B382"/>
<path d="M608.189 22.8868C607.938 22.6357 607.77 22.3008 607.352 22.0497C607.184 21.8823 606.431 21.7149 606.347 21.7986C606.18 21.8823 606.431 22.2171 606.682 22.4682C607.101 22.8031 607.854 23.0542 608.189 22.8868Z" fill="#11B382"/>
<path d="M626.686 32.0945C626.016 31.5923 625.598 31.3411 625.179 31.09C624.928 31.0063 624.259 30.9227 624.175 31.0064C624.091 31.0901 624.51 31.5086 624.761 31.676C625.263 31.9271 625.765 31.9271 626.686 32.0945Z" fill="#11B382"/>
<path d="M643.26 40.13C643.846 40.13 644.348 40.2137 644.432 40.0463C644.515 39.9626 644.013 39.5441 643.678 39.293C643.176 38.9582 642.423 38.9581 642.506 39.2093C642.506 39.4604 642.841 39.7115 643.26 40.13Z" fill="#11B382"/>
<path d="M660.838 49.2532C661.508 49.3369 662.094 49.5043 662.345 49.4206C662.429 49.4206 662.01 48.9184 661.759 48.6673C661.341 48.3325 660.504 48.0814 660.42 48.3325C660.42 48.4999 660.671 48.8347 660.838 49.2532Z" fill="#11B382"/>
<path d="M680.341 60.1342C679.671 59.4646 679.337 59.1298 678.918 58.795C678.667 58.6276 678.081 58.5439 677.997 58.6276C677.914 58.7113 678.332 59.2972 678.5 59.3809C678.918 59.7157 679.504 59.7994 680.341 60.1342Z" fill="#11B382"/>
<path d="M696.327 70.1788C695.49 69.6766 694.988 69.6766 695.072 70.0952C695.072 70.43 695.406 70.8485 695.909 71.0159C696.327 71.1833 696.913 71.3507 696.913 71.1833C696.913 70.8485 696.495 70.43 696.327 70.1788Z" fill="#11B382"/>
<path d="M711.48 81.8145C711.983 82.4004 712.234 82.8189 712.569 83.1537C713.071 83.5722 713.824 83.6559 713.741 83.3211C713.657 83.07 713.322 82.4004 713.071 82.3167C712.652 82.0655 712.234 82.0656 711.48 81.8145Z" fill="#11B382"/>
<path d="M730.231 96.4625C730.064 96.1277 729.897 95.6255 729.478 95.207C729.311 95.0396 728.641 94.8722 728.474 94.9559C728.306 95.0396 728.474 95.6254 728.725 95.9603C729.06 96.5462 729.897 96.7973 730.231 96.4625Z" fill="#11B382"/>
<path d="M746.468 110.357C746.301 110.022 746.133 109.436 745.798 109.018C745.631 108.85 744.961 108.683 744.794 108.766C744.627 108.934 744.794 109.52 744.961 109.855C745.296 110.44 746.05 110.692 746.468 110.357Z" fill="#11B382"/>
<path d="M745.463 134.882C745.212 133.459 745.296 132.873 745.045 132.538C744.71 131.953 744.124 131.869 743.789 132.622C743.454 133.376 743.705 134.045 744.208 134.38C744.543 134.631 744.961 134.631 745.463 134.882Z" fill="#11B382"/>
<path d="M730.314 117.974C730.231 117.137 730.314 116.634 730.147 116.3C729.812 115.63 729.31 115.546 728.975 115.965C728.808 116.132 728.808 116.969 728.975 117.137C729.226 117.471 729.645 117.639 730.314 117.974Z" fill="#11B382"/>
<path d="M715.08 101.987C714.661 101.317 714.41 100.815 714.075 100.564C713.908 100.397 713.489 100.648 713.238 100.732C713.489 101.15 713.657 101.736 713.908 102.071C714.075 102.238 714.494 102.071 715.08 101.987Z" fill="#11B382"/>
<path d="M697.333 87.5897C698.003 87.7571 698.421 87.9245 698.673 87.9245C699.007 87.9245 698.756 87.2549 698.338 86.92C697.835 86.5852 697.417 86.2504 697.249 86.6689C697.166 86.9201 697.25 87.2548 697.333 87.5897Z" fill="#11B382"/>
<path d="M556.293 7.06729C556.962 7.15099 557.381 7.31836 557.632 7.23466C557.967 7.15095 557.716 6.39763 557.297 6.14652C556.795 5.89541 556.293 5.728 556.209 6.14652C556.125 6.48133 556.293 6.81618 556.293 7.06729Z" fill="#11B382"/>
<path d="M575.543 17.7811C574.957 17.3626 574.706 17.0278 574.288 16.7767C574.037 16.693 573.618 16.6929 573.618 16.8604C573.534 17.1952 573.953 17.53 574.455 17.6974C574.706 17.7811 574.957 17.7811 575.543 17.7811Z" fill="#11B382"/>
<path d="M593.375 27.7416C592.789 27.1557 592.622 26.9047 592.37 26.7372C591.868 26.4024 591.366 26.3187 591.282 26.5698C591.198 26.8209 591.617 27.072 592.119 27.3231C592.538 27.4905 592.873 27.5742 593.375 27.7416Z" fill="#11B382"/>
<path d="M610.198 35.3584C609.864 35.4421 609.529 35.3584 609.361 35.5258C609.361 35.5258 609.78 35.9443 610.115 36.028C610.617 36.2791 611.203 36.2791 611.035 36.028C610.952 35.9443 610.617 35.6932 610.198 35.3584Z" fill="#11B382"/>
<path d="M629.869 44.5662C629.283 44.0639 629.116 43.8965 628.864 43.7291C628.362 43.478 627.86 43.3106 627.776 43.5617C627.693 43.7291 628.111 43.9802 628.697 44.2313C629.032 44.315 629.367 44.3988 629.869 44.5662Z" fill="#11B382"/>
<path d="M647.781 53.4383C647.195 53.0198 646.86 52.7687 646.525 52.6013C646.274 52.5176 646.107 52.5176 645.855 52.5176C646.19 52.7687 646.441 53.0198 646.86 53.2709C646.944 53.3546 647.195 53.3546 647.781 53.4383Z" fill="#11B382"/>
<path d="M665.358 64.0693C664.772 63.4833 664.604 63.316 664.353 63.1486C663.851 62.8137 663.432 62.6463 663.349 62.8137C663.265 62.9811 663.683 63.316 664.186 63.5671C664.52 63.7345 664.855 63.8182 665.358 64.0693Z" fill="#11B382"/>
<path d="M682.518 75.5368C681.932 74.9509 681.764 74.6998 681.513 74.5323C681.011 74.1975 680.592 73.9464 680.509 74.1138C680.425 74.2812 680.844 74.6161 681.346 74.8672C681.681 75.1183 682.015 75.2857 682.518 75.5368Z" fill="#11B382"/>
<path d="M746.969 156.561C746.718 155.556 746.634 154.803 746.383 154.552C746.132 154.301 745.797 154.552 745.462 154.552C745.462 155.138 745.379 155.891 745.546 156.31C745.63 156.561 746.048 156.394 746.969 156.561Z" fill="#11B382"/>
<path d="M731.232 137.143C731.65 137.059 732.069 137.143 732.236 136.808C732.404 136.473 732.236 135.803 732.236 135.301C731.901 135.301 731.483 135.05 731.316 135.301C731.148 135.552 731.232 136.306 731.232 137.143Z" fill="#11B382"/>
<path d="M717.673 119.062C717.59 118.392 717.673 117.723 717.506 117.555C717.339 117.304 716.836 117.137 716.669 117.388C716.502 117.555 716.585 118.309 716.669 118.643C716.836 118.811 717.255 118.811 717.673 119.062Z" fill="#11B382"/>
<path d="M703.11 102.322C702.775 101.568 702.607 101.066 702.356 100.899C702.105 100.647 701.77 100.731 701.436 100.731C701.519 101.15 701.519 101.652 701.687 101.903C701.854 102.07 702.273 102.07 703.11 102.322Z" fill="#11B382"/>
<path d="M687.037 87.0035C686.953 86.5013 686.953 86.0827 686.786 85.9153C686.535 85.6642 686.116 85.5805 685.949 85.6642C685.865 85.7479 685.949 86.3339 686.116 86.585C686.2 86.7524 686.619 86.8361 687.037 87.0035Z" fill="#11B382"/>
<path d="M546.248 7.9041C545.662 7.23447 545.495 6.89962 545.327 6.81591C545.076 6.73221 544.741 6.81595 544.49 6.89965C544.658 7.15076 544.741 7.48554 544.993 7.65295C545.244 7.73665 545.662 7.73669 546.248 7.9041Z" fill="#11B382"/>
<path d="M563.658 17.3618C563.491 17.027 563.407 16.7759 563.24 16.6085C562.989 16.441 562.487 16.3573 562.319 16.441C562.235 16.5247 562.403 16.8596 562.57 17.027C562.821 17.1944 563.24 17.1944 563.658 17.3618Z" fill="#11B382"/>
<path d="M582.076 26.4861C581.49 25.9839 581.239 25.7328 580.988 25.6491C580.737 25.5654 580.485 25.5654 580.234 25.5654C580.402 25.7328 580.569 25.984 580.82 26.1514C581.155 26.3188 581.49 26.3187 582.076 26.4861Z" fill="#11B382"/>
<path d="M598.23 34.1035C598.649 34.3546 598.9 34.6057 599.151 34.6895C599.402 34.7732 599.737 34.7732 599.737 34.6895C599.737 34.6057 599.319 34.2709 599.068 34.1872C598.9 34.1035 598.649 34.1872 598.23 34.1035Z" fill="#11B382"/>
<path d="M618.401 42.8081C618.066 42.557 617.732 42.3896 617.564 42.3059C617.313 42.2222 616.895 42.2222 616.895 42.3059C616.895 42.3896 617.313 42.7244 617.564 42.8081C617.732 42.8918 617.983 42.8081 618.401 42.8081Z" fill="#11B382"/>
<path d="M636.816 51.5135C636.23 51.0113 635.979 50.7602 635.728 50.6765C635.477 50.5928 635.226 50.5928 634.975 50.5928C635.142 50.7602 635.309 51.0113 635.56 51.1787C635.895 51.2624 636.23 51.3461 636.816 51.5135Z" fill="#11B382"/>
<path d="M652.971 61.306C653.306 61.306 653.725 61.4734 653.808 61.3897C653.892 61.306 653.557 60.8874 653.39 60.8037C653.139 60.6363 652.636 60.5527 652.553 60.6364C652.553 60.6364 652.804 60.9712 652.971 61.306Z" fill="#11B382"/>
<path d="M669.71 73.1088C670.129 73.1925 670.547 73.3599 670.631 73.2762C670.715 73.1925 670.547 72.7739 670.463 72.5228C670.129 72.4391 669.71 72.188 669.626 72.2717C669.459 72.2717 669.626 72.6902 669.71 73.1088Z" fill="#11B382"/>
<path d="M734.246 156.812C733.912 157.064 733.577 157.147 733.493 157.482C733.409 157.817 733.577 158.654 733.744 158.821C733.912 158.989 734.33 158.821 734.414 158.57C734.497 158.319 734.33 157.65 734.246 156.812Z" fill="#11B382"/>
<path d="M720.354 136.473C720.019 136.724 719.684 136.724 719.601 137.059C719.517 137.31 719.768 138.063 719.935 138.314C720.103 138.482 720.521 138.398 720.605 138.147C720.689 137.812 720.438 137.142 720.354 136.473Z" fill="#11B382"/>
<path d="M706.457 119.146C706.206 118.476 706.122 117.89 705.871 117.723C705.703 117.556 705.369 117.723 705.201 117.807C705.285 118.225 705.369 118.727 705.536 118.979C705.787 119.146 706.122 119.062 706.457 119.146Z" fill="#11B382"/>
<path d="M690.721 101.401C691.056 101.317 691.391 101.317 691.391 101.149C691.391 100.898 691.223 100.312 690.972 100.145C690.805 99.9775 690.386 100.061 690.303 100.229C690.303 100.396 690.554 100.898 690.721 101.401Z" fill="#11B382"/>
<path d="M515.781 0.203302C515.613 -0.298919 515.53 -0.717426 515.362 -0.884833C515.195 -1.05224 514.776 -0.80115 514.441 -0.80115C514.525 -0.466336 514.441 -0.0478393 514.692 0.119568C514.86 0.286975 515.278 0.203302 515.781 0.203302Z" fill="#11B382"/>
<path d="M533.946 9.07556C533.611 8.65704 533.444 8.23853 533.193 8.23853C532.941 8.15482 532.69 8.40592 532.355 8.48963C532.523 8.74074 532.607 9.07557 532.858 9.24298C533.109 9.32668 533.444 9.15927 533.946 9.07556Z" fill="#11B382"/>
<path d="M552.023 17.8645C551.772 17.446 551.688 17.1948 551.521 17.0274C551.353 16.9437 550.935 17.0274 550.684 17.0274C550.767 17.2785 550.767 17.6134 550.935 17.6971C551.102 17.8645 551.521 17.8645 552.023 17.8645Z" fill="#11B382"/>
<path d="M570.358 26.1511C570.023 25.8163 569.772 25.5652 569.521 25.4814C569.27 25.3977 569.019 25.5651 568.768 25.5651C568.935 25.7325 569.102 26.0674 569.354 26.1511C569.605 26.2348 569.939 26.1511 570.358 26.1511Z" fill="#11B382"/>
<path d="M587.931 33.3496C587.596 33.4333 587.262 33.4333 587.262 33.517C587.262 33.6007 587.596 33.9355 587.848 34.0192C588.099 34.1029 588.517 34.0192 588.517 33.9355C588.517 33.9355 588.182 33.6844 587.931 33.3496Z" fill="#11B382"/>
<path d="M607.268 41.8878C606.85 41.6367 606.682 41.3856 606.431 41.3018C606.18 41.2181 605.929 41.3018 605.762 41.3018C605.929 41.4693 606.096 41.6367 606.348 41.7204C606.515 41.8041 606.85 41.8041 607.268 41.8878Z" fill="#11B382"/>
<path d="M624.68 49.8393C625.015 49.7556 625.35 49.7556 625.35 49.6719C625.35 49.5882 625.182 49.3371 624.931 49.2534C624.764 49.1697 624.261 49.0859 624.178 49.0859C624.178 49.0859 624.345 49.3371 624.68 49.8393Z" fill="#11B382"/>
<path d="M642.676 58.7952C642.341 58.7115 641.923 58.6277 641.923 58.7114C641.839 58.7951 642.09 59.13 642.258 59.2137C642.509 59.3811 642.927 59.4648 643.011 59.4648C643.095 59.3811 642.844 59.13 642.676 58.7952Z" fill="#11B382"/>
<path d="M660.004 71.6016C659.752 71.183 659.669 70.9319 659.501 70.6808C659.334 70.5134 658.999 70.5134 658.748 70.4297C658.832 70.6808 658.832 70.9319 659.083 71.0994C659.25 71.3505 659.585 71.4341 660.004 71.6016Z" fill="#11B382"/>
<path d="M676.158 85.6644C675.991 85.1622 675.907 84.8274 675.74 84.5763C675.572 84.4089 675.237 84.4089 674.986 84.3252C675.07 84.5763 675.07 84.9111 675.237 85.1622C675.405 85.3296 675.74 85.4133 676.158 85.6644Z" fill="#11B382"/>
<path d="M654.562 78.8843C654.813 79.0517 655.232 79.3029 655.232 79.3029C655.232 79.1354 655.148 78.968 655.148 78.8006C654.98 78.7169 654.646 78.4658 654.646 78.4658C654.478 78.5495 654.562 78.7169 654.562 78.8843Z" fill="#11B382"/>
<path d="M638.825 65.9942C638.657 65.8268 638.406 65.5757 638.239 65.4083C638.155 65.4083 637.82 65.3246 637.904 65.4083C637.988 65.5757 638.239 65.8268 638.406 65.9942C638.49 65.9942 638.657 65.9942 638.825 65.9942Z" fill="#11B382"/>
<path d="M621.414 55.3638C621.163 55.1964 620.912 55.029 620.661 54.9453C620.577 54.9453 620.326 55.029 620.326 55.029C620.494 55.1965 620.745 55.3638 620.996 55.5312C621.079 55.4475 621.247 55.4475 621.414 55.3638Z" fill="#11B382"/>
<path d="M602.663 48.2486C602.579 48.0812 602.496 47.9975 602.496 47.9138C602.244 47.9138 601.91 47.8301 601.742 47.8301C601.658 47.8301 601.826 47.9975 601.826 48.0812C602.077 48.1649 602.328 48.2486 602.663 48.2486Z" fill="#11B382"/>
<path d="M583.499 42.3063C583.415 42.1389 583.415 42.0552 583.331 41.8878C583.08 41.8878 582.745 41.8041 582.494 41.8878C582.41 41.8878 582.578 42.0552 582.578 42.2226C582.913 42.2226 583.164 42.2226 583.499 42.3063Z" fill="#11B382"/>
<path d="M563.576 36.1123C563.409 36.196 563.158 36.3634 562.99 36.4471C562.99 36.4471 563.409 36.7819 563.409 36.6982C563.66 36.6145 563.911 36.5308 564.078 36.4471C564.162 36.4471 563.827 36.2797 563.576 36.1123Z" fill="#11B382"/>
<path d="M544.574 31.5078C544.574 31.2566 544.574 31.0893 544.574 30.9219C544.239 30.9219 543.988 30.9219 543.737 30.9219C543.653 30.9219 543.653 31.3404 543.737 31.3404C543.904 31.5078 544.239 31.5078 544.574 31.5078Z" fill="#11B382"/>
<path d="M524.15 26.4861C524.569 26.4024 524.987 26.4025 524.987 26.4025C525.071 26.1514 524.987 25.9002 524.987 25.5654C524.736 25.5654 524.401 25.5654 524.318 25.6491C524.15 25.9002 524.15 26.1513 524.15 26.4861Z" fill="#11B382"/>
<path d="M505.82 20.5432C505.569 20.3758 505.401 20.1247 505.067 20.041C504.983 20.041 504.564 20.5432 504.564 20.6269C504.648 20.878 504.983 21.0454 505.15 21.2128C505.401 21.0454 505.569 20.7943 505.82 20.5432Z" fill="#11B382"/>
<path d="M486.235 15.5208C486.235 15.0185 486.319 14.7674 486.319 14.4326C485.984 14.6 485.649 14.6837 485.314 14.8511C485.23 14.9348 485.23 15.4371 485.23 15.6882C485.565 15.6882 485.9 15.6045 486.235 15.5208Z" fill="#11B382"/>
<path d="M465.812 10.08C466.231 9.91261 466.65 9.82889 466.733 9.74518C466.901 9.24296 466.901 8.82449 466.984 8.32227C466.733 8.40597 466.315 8.40596 466.315 8.57337C466.064 9.07559 465.98 9.5778 465.812 10.08Z" fill="#11B382"/>
<path d="M447.731 3.71887C447.898 3.13294 447.982 2.71442 448.065 2.2959C447.731 2.3796 447.396 2.46331 447.061 2.71442C446.977 2.79812 446.726 3.80255 446.81 3.80255C446.977 3.88625 447.312 3.80257 447.731 3.71887Z" fill="#11B382"/>
<path d="M670.299 94.5364C670.55 94.7875 670.717 94.8712 670.884 95.0386C670.801 94.7875 670.717 94.5364 670.633 94.369C670.466 94.2853 670.215 94.0342 670.215 94.0342C670.215 94.1179 670.299 94.2853 670.299 94.5364Z" fill="#11B382"/>
<path d="M685.95 112.7C685.783 112.365 685.616 112.114 685.448 111.779C685.364 111.779 685.113 111.696 685.113 111.779C685.197 112.03 685.364 112.365 685.532 112.616C685.616 112.616 685.783 112.7 685.95 112.7Z" fill="#11B382"/>
<path d="M700.179 132.371C700.012 132.036 699.844 131.701 699.761 131.366C699.677 131.366 699.426 131.199 699.426 131.366C699.509 131.618 699.677 131.952 699.761 132.287C699.844 132.287 700.012 132.371 700.179 132.371Z" fill="#11B382"/>
<path d="M713.489 152.543C713.321 152.543 713.154 152.459 713.07 152.543L713.321 153.213C713.489 153.296 713.656 153.38 713.824 153.38C713.824 153.464 713.656 152.962 713.489 152.543Z" fill="#11B382"/>
<path d="M726.463 175.395C726.714 175.73 726.882 175.897 727.049 176.064C726.965 175.73 726.965 175.478 726.882 175.144C726.714 174.976 726.463 174.641 726.463 174.725C726.379 174.809 726.463 175.144 726.463 175.395Z" fill="#11B382"/>
<path d="M739.939 199.25C739.939 198.916 739.939 198.748 739.939 198.497C739.772 198.246 739.521 197.911 739.353 197.744C739.27 197.66 739.27 198.162 739.27 198.246C739.521 198.664 739.772 198.916 739.939 199.25Z" fill="#11B382"/>
<path d="M500.713 6.56415C500.965 6.39674 501.216 6.31304 501.383 6.14563C501.216 5.89452 501.048 5.5597 500.881 5.30859C500.713 5.476 500.295 5.72712 500.295 5.89453C500.379 6.14564 500.63 6.31304 500.713 6.56415Z" fill="#11B382"/>
<path d="M519.882 13.9301C519.882 13.6789 519.965 13.4279 519.965 13.1768C519.631 13.1768 519.296 13.1767 518.961 13.2604C519.045 13.5116 519.045 13.8464 519.128 13.9301C519.38 14.0138 519.631 13.9301 519.882 13.9301Z" fill="#11B382"/>
<path d="M538.131 21.1288C538.299 21.0451 538.55 20.9614 538.717 20.8777C538.55 20.6266 538.299 20.4591 538.131 20.208C537.964 20.3754 537.629 20.4591 537.629 20.6265C537.713 20.8776 537.964 20.9614 538.131 21.1288Z" fill="#11B382"/>
<path d="M557.718 27.742C557.383 27.6583 557.049 27.4909 556.714 27.4072C556.714 27.4072 556.463 27.6583 556.546 27.8257C556.63 27.9932 556.965 28.1605 557.132 28.1605C557.383 28.0768 557.467 27.9094 557.718 27.742Z" fill="#11B382"/>
<path d="M575.877 34.8564C576.045 34.8564 576.296 34.7727 576.463 34.7727C576.212 34.6053 576.045 34.4379 575.794 34.2705C575.626 34.3542 575.375 34.3542 575.375 34.4379C575.459 34.6053 575.71 34.689 575.877 34.8564Z" fill="#11B382"/>
<path d="M594.797 41.5523C594.965 41.5523 595.132 41.5523 595.383 41.5523C595.132 41.3849 594.965 41.2175 594.713 41.1338C594.546 41.2175 594.295 41.2175 594.295 41.3012C594.295 41.3012 594.63 41.4686 594.797 41.5523Z" fill="#11B382"/>
<path d="M614.049 48.4996C614.049 48.4159 613.966 48.3321 613.966 48.2484C613.631 48.1647 613.38 48.0811 613.045 48.0811C613.129 48.1648 613.212 48.3321 613.38 48.4158C613.547 48.4158 613.882 48.4159 614.049 48.4996Z" fill="#11B382"/>
<path d="M631.627 57.2053C631.794 57.2053 631.961 57.2891 632.129 57.2891C631.961 57.1217 631.71 56.9542 631.543 56.7031C631.375 56.7031 631.124 56.7031 631.208 56.7868C631.208 56.9542 631.459 57.1216 631.627 57.2053Z" fill="#11B382"/>
<path d="M648.703 68.7558C648.871 68.7558 649.038 68.8395 649.206 68.8395C649.038 68.5884 648.787 68.421 648.62 68.1699C648.536 68.1699 648.201 68.1699 648.285 68.2536C648.285 68.421 648.536 68.5884 648.703 68.7558Z" fill="#11B382"/>
<path d="M665.442 82.8181C665.358 82.6507 665.191 82.3996 665.107 82.2322C664.94 82.2322 664.689 82.1484 664.521 82.1484C664.689 82.3995 664.856 82.6507 665.024 82.7344C665.107 82.9018 665.275 82.8181 665.442 82.8181Z" fill="#11B382"/>
<path d="M680.343 98.8055C680.51 98.8892 680.677 98.9728 680.845 99.0566C680.677 98.7217 680.594 98.3869 680.426 98.1358C680.259 98.1358 680.008 98.0521 680.008 98.1358C680.008 98.2195 680.175 98.5543 680.343 98.8055Z" fill="#11B382"/>
<path d="M695.492 117.22C695.492 116.969 695.492 116.802 695.492 116.551C695.241 116.383 694.989 116.132 694.738 115.965C694.822 116.216 694.822 116.551 694.906 116.718C695.073 116.969 695.324 117.053 695.492 117.22Z" fill="#11B382"/>
<path d="M708.967 135.803C709.051 136.138 709.134 136.389 709.218 136.724C709.385 136.724 709.636 136.724 709.804 136.724C709.636 136.473 709.553 136.054 709.385 135.887C709.302 135.719 709.134 135.803 708.967 135.803Z" fill="#11B382"/>
<path d="M723.449 158.151C723.365 157.816 723.281 157.565 723.281 157.23C723.03 157.23 722.863 157.23 722.695 157.23C722.779 157.565 722.946 157.984 723.114 158.151C723.114 158.319 723.281 158.151 723.449 158.151Z" fill="#11B382"/>
<path d="M736.673 180.5C736.589 180.166 736.589 179.831 736.506 179.496C736.254 179.496 736.087 179.58 735.836 179.58C735.92 179.915 736.087 180.417 736.171 180.584C736.338 180.752 736.506 180.584 736.673 180.5Z" fill="#11B382"/>
<path d="M651.132 84.9111C651.132 84.7437 651.048 84.5763 651.048 84.4089C650.964 84.4089 650.797 84.3252 650.797 84.3252C650.797 84.4089 650.797 84.5763 650.881 84.7437C650.964 84.8274 651.048 84.8274 651.132 84.9111Z" fill="#11B382"/>
<path d="M634.64 71.5185C634.64 71.4348 634.556 71.2674 634.556 71.1837C634.472 71.1837 634.305 71.1 634.305 71.1837C634.305 71.2674 634.388 71.4348 634.388 71.5185C634.472 71.5185 634.556 71.5185 634.64 71.5185Z" fill="#11B382"/>
<path d="M616.726 61.4736C616.642 61.4736 616.475 61.4736 616.475 61.4736C616.475 61.5573 616.475 61.641 616.558 61.8084C616.642 61.8084 616.893 61.8921 616.893 61.8084C616.809 61.7247 616.726 61.5573 616.726 61.4736Z" fill="#11B382"/>
<path d="M597.895 54.4432C597.979 54.3595 598.146 54.3595 598.23 54.2758C598.23 54.2758 598.146 54.1921 598.063 54.1084C597.979 54.1921 597.812 54.1921 597.728 54.2758C597.644 54.3595 597.812 54.4432 597.895 54.4432Z" fill="#11B382"/>
<path d="M578.977 48.4999C578.893 48.4162 578.893 48.3324 578.81 48.165C578.726 48.165 578.559 48.165 578.559 48.165C578.559 48.2487 578.642 48.3324 578.642 48.4161C578.81 48.4998 578.893 48.4999 578.977 48.4999Z" fill="#11B382"/>
<path d="M558.971 43.8123C559.055 43.7286 559.223 43.7286 559.306 43.6449C559.306 43.6449 559.139 43.5612 559.139 43.4775C558.971 43.5612 558.888 43.5612 558.804 43.6449C558.72 43.7286 558.888 43.8123 558.971 43.8123Z" fill="#11B382"/>
<path d="M539.219 40.1301C539.136 40.0464 539.136 39.9626 539.052 39.8789C538.968 39.8789 538.801 39.8789 538.801 39.9626C538.801 40.0463 538.884 40.13 538.884 40.2137C538.968 40.2137 539.052 40.2138 539.219 40.1301Z" fill="#11B382"/>
<path d="M518.711 37.4513C518.628 37.3676 518.628 37.2839 518.544 37.2002C518.46 37.2002 518.293 37.2839 518.293 37.2839C518.293 37.3676 518.377 37.4513 518.46 37.535C518.544 37.4513 518.628 37.4513 518.711 37.4513Z" fill="#11B382"/>
<path d="M497.952 35.5258C497.868 35.4421 497.784 35.4421 497.784 35.3584C497.701 35.3584 497.533 35.3584 497.533 35.4421C497.533 35.5258 497.617 35.5258 497.701 35.6095C497.701 35.5258 497.868 35.5258 497.952 35.5258Z" fill="#11B382"/>
<path d="M476.942 34.1866C476.858 34.1029 476.858 34.0193 476.774 33.9355C476.691 33.9355 476.439 34.0192 476.439 34.0192C476.439 34.1029 476.523 34.1867 476.607 34.2704C476.691 34.2704 476.774 34.1866 476.942 34.1866Z" fill="#11B382"/>
<path d="M455.513 33.0989C455.68 33.0152 455.847 32.8477 455.931 32.764C455.931 32.6803 455.847 32.6804 455.764 32.5967C455.596 32.7641 455.429 32.8478 455.345 33.0152C455.261 32.9315 455.429 33.0152 455.513 33.0989Z" fill="#11B382"/>
<path d="M434.503 31.7592C434.671 31.5918 434.838 31.4244 434.922 31.257C434.922 31.1733 434.838 31.0896 434.754 31.0059C434.587 31.1733 434.419 31.3407 434.252 31.5081C434.252 31.5918 434.419 31.6755 434.503 31.7592Z" fill="#11B382"/>
<path d="M413.661 30.0848C413.829 29.9174 413.996 29.6663 414.164 29.4152C414.247 29.3315 414.08 29.2478 413.996 29.1641C413.829 29.4152 413.578 29.5826 413.41 29.8337C413.41 29.9174 413.578 30.0011 413.661 30.0848Z" fill="#11B382"/>
<path d="M392.905 28.0764C393.073 27.8253 393.324 27.5742 393.491 27.3231C393.575 27.2394 393.408 27.072 393.408 26.9883C393.24 27.2394 392.989 27.4905 392.822 27.8253C392.654 27.8253 392.822 27.9927 392.905 28.0764Z" fill="#11B382"/>
<path d="M666.364 101.484C666.364 101.317 666.364 101.066 666.364 100.898C666.281 100.898 666.113 100.814 666.113 100.814C666.113 100.982 666.113 101.149 666.113 101.317C666.197 101.4 666.281 101.4 666.364 101.484Z" fill="#11B382"/>
<path d="M680.593 120.987C680.593 120.736 680.593 120.485 680.593 120.234C680.509 120.234 680.341 120.15 680.341 120.15C680.258 120.318 680.342 120.569 680.258 120.82C680.425 120.904 680.509 120.987 680.593 120.987Z" fill="#11B382"/>
<path d="M693.901 142.833C693.901 142.666 693.901 142.498 693.817 142.331C693.65 142.415 693.482 142.498 693.398 142.582C693.398 142.582 693.398 142.917 693.482 143.084C693.566 143.001 693.733 142.917 693.901 142.833Z" fill="#11B382"/>
<path d="M706.036 167.526C706.12 167.191 706.12 166.856 706.204 166.522C706.12 166.522 705.953 166.438 705.953 166.522C705.869 166.773 705.869 167.191 705.785 167.526C705.785 167.526 705.953 167.526 706.036 167.526Z" fill="#11B382"/>
<path d="M717.76 193.39C717.76 193.139 717.76 192.972 717.76 192.721C717.593 192.888 717.425 192.972 717.258 193.223C717.258 193.307 717.258 193.641 717.258 193.893C717.425 193.725 717.593 193.558 717.76 193.39Z" fill="#11B382"/>
<path d="M728.555 221.515C728.639 221.096 728.723 220.678 728.806 220.176C728.723 220.176 728.555 220.176 728.472 220.259C728.388 220.678 728.304 221.096 728.137 221.515C728.304 221.599 728.472 221.599 728.555 221.515Z" fill="#11B382"/>
<path d="M739.104 250.225C739.272 249.723 739.355 249.221 739.523 248.719C739.439 248.802 739.272 248.719 739.188 248.886C739.021 249.305 738.937 249.807 738.77 250.309C738.937 250.225 739.021 250.225 739.104 250.225Z" fill="#11B382"/>
<path d="M230.603 0.872616C230.771 0.705209 230.938 0.454109 231.106 0.202998C231.106 0.119295 231.022 -0.0481324 231.022 -0.131836C230.854 0.119275 230.687 0.286671 230.52 0.537782C230.436 0.537782 230.603 0.705209 230.603 0.872616Z" fill="#11B382"/>
<path d="M250.607 5.72736C250.607 5.64366 250.523 5.47628 250.523 5.39258C250.356 5.64369 250.105 5.89477 249.938 6.14588C249.938 6.22958 250.021 6.39701 250.105 6.48071C250.272 6.1459 250.44 5.97847 250.607 5.72736Z" fill="#11B382"/>
<path d="M270.614 9.99694C270.614 9.66213 270.698 9.41099 270.698 9.07617C270.53 9.15988 270.363 9.3273 270.279 9.41101C270.195 9.74582 270.195 9.99693 270.195 10.248C270.363 10.248 270.53 10.0806 270.614 9.99694Z" fill="#11B382"/>
<path d="M291.372 12.4234C291.372 12.256 291.289 12.1723 291.289 12.0049C291.038 12.3397 290.787 12.5908 290.619 12.9257C290.535 13.0094 290.703 13.1768 290.703 13.3442C290.87 13.0094 291.121 12.7582 291.372 12.4234Z" fill="#11B382"/>
<path d="M311.962 15.1021C311.962 14.9347 311.879 14.7673 311.879 14.6836C311.628 15.0184 311.376 15.3532 311.209 15.688C311.125 15.7717 311.293 15.9392 311.293 16.1066C311.46 15.688 311.711 15.4369 311.962 15.1021Z" fill="#11B382"/>
<path d="M332.217 18.4507C332.217 18.1159 332.301 17.7811 332.385 17.4463C332.217 17.6137 331.966 17.7811 331.966 17.8648C331.883 18.1996 331.883 18.5344 331.799 18.8693C331.966 18.7019 332.05 18.6181 332.217 18.4507Z" fill="#11B382"/>
<path d="M352.557 21.7151C352.641 21.3803 352.641 20.9618 352.725 20.627C352.557 20.7944 352.306 20.8781 352.306 21.0455C352.222 21.3803 352.139 21.7151 352.139 22.0499C352.222 21.9662 352.39 21.7988 352.557 21.7151Z" fill="#11B382"/>
<path d="M372.9 24.7281C372.9 24.5607 372.816 24.477 372.816 24.3096C372.565 24.6444 372.314 24.8955 372.146 25.2303C372.063 25.314 372.23 25.4814 372.23 25.5651C372.481 25.314 372.732 24.9792 372.9 24.7281Z" fill="#11B382"/>
<path d="M410.816 13.1777C410.648 13.0103 410.564 12.7592 410.397 12.5918C410.313 12.5918 410.062 12.8429 409.979 13.0103C410.146 13.2614 410.23 13.5125 410.397 13.6799C410.397 13.6799 410.648 13.3451 410.816 13.1777Z" fill="#11B382"/>
<path d="M429.816 17.3622C429.984 17.5296 430.068 17.7807 430.235 17.9481C430.235 17.9481 430.57 17.697 430.653 17.5296C430.737 17.3622 430.653 17.0273 430.653 17.0273C430.402 17.0273 430.151 17.1948 429.816 17.3622Z" fill="#11B382"/>
<path d="M450.743 21.3804C450.576 21.213 450.408 21.0456 450.241 20.9619C450.157 20.9619 449.99 21.213 449.822 21.2967C449.99 21.4642 450.157 21.6316 450.324 21.7153C450.408 21.799 450.659 21.5478 450.743 21.3804Z" fill="#11B382"/>
<path d="M470.915 24.9793C470.748 24.8956 470.58 24.7282 470.413 24.6445C470.329 24.6445 470.162 24.8119 470.078 24.8956C470.246 25.063 470.413 25.1467 470.58 25.2304C470.58 25.3141 470.748 25.1467 470.915 24.9793Z" fill="#11B382"/>
<path d="M491.087 28.4113C490.92 28.3276 490.752 28.1602 490.585 28.1602C490.501 28.1602 490.334 28.3276 490.25 28.4113C490.417 28.495 490.585 28.6624 490.836 28.7461C490.836 28.6624 491.003 28.495 491.087 28.4113Z" fill="#11B382"/>
<path d="M510.422 31.5912C510.589 31.6749 510.757 31.8423 511.008 31.8423C511.091 31.8423 511.259 31.7586 511.343 31.6749C511.343 31.5912 511.259 31.4238 511.259 31.4238C510.924 31.5075 510.673 31.5075 510.422 31.5912Z" fill="#11B382"/>
<path d="M531.182 35.1913C531.266 35.1913 531.433 35.1076 531.517 35.1076C531.349 35.0239 531.182 34.9401 531.015 34.8564C530.931 34.8564 530.763 34.9402 530.68 34.9402C530.847 35.0239 531.015 35.1076 531.182 35.1913Z" fill="#11B382"/>
<path d="M551.689 38.7905C551.521 38.7068 551.354 38.623 551.103 38.623C551.019 38.623 550.935 38.6231 550.852 38.7068C551.019 38.7905 551.27 38.8742 551.437 38.9579C551.437 38.8742 551.605 38.7905 551.689 38.7905Z" fill="#11B382"/>
<path d="M571.526 42.976C571.359 42.8923 571.191 42.8086 570.94 42.8086C570.857 42.8086 570.773 42.8086 570.605 42.8086C570.773 42.8923 570.94 42.976 571.191 43.0597C571.275 43.0597 571.442 43.0597 571.526 42.976Z" fill="#11B382"/>
<path d="M591.03 48.1652C590.863 48.0815 590.696 47.9978 590.444 47.9141C590.361 47.9141 590.277 47.9141 590.193 47.9141C590.361 47.9978 590.612 48.0815 590.779 48.1652C590.863 48.1652 590.947 48.1652 591.03 48.1652Z" fill="#11B382"/>
<path d="M610.029 54.6105C609.861 54.5268 609.694 54.4431 609.527 54.3594C609.443 54.3594 609.359 54.3594 609.275 54.3594C609.443 54.4431 609.61 54.5268 609.861 54.6942C609.861 54.6105 609.945 54.6105 610.029 54.6105Z" fill="#11B382"/>
<path d="M627.946 63.1483C628.029 63.1483 628.113 63.1483 628.197 63.232C628.029 63.1483 627.862 62.9809 627.694 62.8972C627.611 62.8972 627.527 62.8135 627.443 62.8135C627.611 62.8972 627.778 62.9809 627.946 63.1483Z" fill="#11B382"/>
<path d="M644.6 74.1973C644.767 74.3647 644.934 74.5321 645.102 74.6995C645.102 74.6995 645.269 74.7832 645.353 74.7832C645.353 74.7832 645.269 74.6158 645.185 74.6158C645.018 74.4484 644.767 74.3647 644.6 74.1973Z" fill="#11B382"/>
<path d="M661.424 89.1794C661.256 89.012 661.172 88.8446 661.005 88.6772C660.921 88.5935 660.838 88.5935 660.754 88.5098C660.921 88.6772 661.005 88.9283 661.172 89.0957C661.256 89.0957 661.34 89.1794 661.424 89.1794Z" fill="#11B382"/>
<path d="M676.49 105.92C676.323 105.753 676.156 105.585 675.988 105.418C676.072 105.502 676.072 105.669 676.156 105.753C676.323 105.92 676.49 106.088 676.658 106.171C676.574 106.088 676.574 106.004 676.49 105.92Z" fill="#11B382"/>
<path d="M690.972 125.591C690.889 125.34 690.721 125.089 690.554 124.838C690.554 124.754 690.386 124.754 690.303 124.754C690.47 125.005 690.554 125.256 690.721 125.507C690.805 125.591 690.889 125.507 690.972 125.591Z" fill="#11B382"/>
<path d="M704.533 147.019C704.45 146.768 704.282 146.433 704.198 146.182C704.198 146.099 704.031 146.099 703.947 146.099C704.031 146.35 704.198 146.685 704.282 146.936C704.282 147.019 704.45 147.019 704.533 147.019Z" fill="#11B382"/>
<path d="M717.338 170.205C717.254 169.87 717.171 169.535 717.087 169.284C717.087 169.2 716.92 169.2 716.836 169.2C716.92 169.535 717.003 169.87 717.087 170.205C717.087 170.205 717.254 170.205 717.338 170.205Z" fill="#11B382"/>
<path d="M729.643 194.897C729.559 194.562 729.475 194.227 729.392 193.893C729.392 193.809 729.224 193.893 729.141 193.893C729.224 194.227 729.308 194.646 729.392 194.981C729.392 194.981 729.559 194.897 729.643 194.897Z" fill="#11B382"/>
<path d="M741.447 220.511C741.364 220.176 741.363 219.758 741.196 219.423C741.196 219.339 741.029 219.423 740.861 219.423C740.945 219.841 740.945 220.26 741.029 220.595C741.196 220.679 741.364 220.595 741.447 220.511Z" fill="#11B382"/>
<path d="M351.388 -0.382565C351.22 -0.549972 351.136 -0.801062 350.969 -0.884766C350.885 -0.884766 350.634 -0.549993 350.467 -0.298882C350.634 -0.0477716 350.718 0.119646 350.885 0.287053C350.969 0.287053 351.22 -0.131455 351.388 -0.382565Z" fill="#11B382"/>
<path d="M371.475 2.88184C371.141 3.04924 370.89 3.21663 370.555 3.38404C370.555 3.55144 370.555 3.96997 370.638 3.96997C370.889 3.88627 371.141 3.71886 371.475 3.55145C371.475 3.38405 371.475 3.13295 371.475 2.88184Z" fill="#11B382"/>
<path d="M391.148 8.49018C390.98 8.32277 390.896 8.0717 390.729 7.9043C390.645 7.9043 390.394 8.23909 390.311 8.4065C390.478 8.65761 390.562 8.90873 390.729 8.99243C390.729 9.07614 390.98 8.74129 391.148 8.49018Z" fill="#11B382"/>
</svg>
