<svg width="44" height="44" viewBox="0 0 44 44" fill="none" xmlns="http://www.w3.org/2000/svg">
    <path d="M37.125 28.1016H6.875C3.08413 28.1016 0 31.1857 0 34.9766C0 38.7674 3.08413 41.8516 6.875 41.8516H37.125C40.9159 41.8516 44 38.7674 44 34.9766C44 31.1857 40.9159 28.1016 37.125 28.1016ZM9.10938 37.125C7.92284 37.125 6.96094 36.1631 6.96094 34.9766C6.96094 33.79 7.92284 32.8281 9.10938 32.8281C10.2959 32.8281 11.2578 33.79 11.2578 34.9766C11.2578 36.1631 10.2959 37.125 9.10938 37.125ZM17.7031 37.125C16.5166 37.125 15.5547 36.1631 15.5547 34.9766C15.5547 33.79 16.5166 32.8281 17.7031 32.8281C18.8897 32.8281 19.8516 33.79 19.8516 34.9766C19.8516 36.1631 18.8897 37.125 17.7031 37.125ZM26.2969 37.125C25.1103 37.125 24.1484 36.1631 24.1484 34.9766C24.1484 33.79 25.1103 32.8281 26.2969 32.8281C27.4834 32.8281 28.4453 33.79 28.4453 34.9766C28.4453 36.1631 27.4834 37.125 26.2969 37.125ZM34.8906 37.125C33.7041 37.125 32.7422 36.1631 32.7422 34.9766C32.7422 33.79 33.7041 32.8281 34.8906 32.8281C36.0772 32.8281 37.0391 33.79 37.0391 34.9766C37.0391 36.1631 36.0772 37.125 34.8906 37.125Z" fill="#FFD567"/>
    <path d="M30.1641 10.9141H28.4453V8.59375C28.4453 5.0398 25.5539 2.14844 22 2.14844C18.4461 2.14844 15.5547 5.0398 15.5547 8.59375V10.9141H13.8359C13.124 10.9141 12.5469 11.4912 12.5469 12.2031V22.4297C12.5469 23.1416 13.124 23.7188 13.8359 23.7188H30.1641C30.876 23.7188 31.4531 23.1416 31.4531 22.4297V12.2031C31.4531 11.4912 30.876 10.9141 30.1641 10.9141ZM23.2891 17.7141V18.2188C23.2891 18.9307 22.7119 19.5078 22 19.5078C21.2881 19.5078 20.7109 18.9307 20.7109 18.2188V17.7141C20.2106 17.537 19.8516 17.061 19.8516 16.5C19.8516 15.7881 20.4287 15.2109 21.1406 15.2109H22.8594C23.5713 15.2109 24.1484 15.7881 24.1484 16.5C24.1484 17.061 23.7894 17.537 23.2891 17.7141ZM25.8672 10.9141H18.1328V8.59375C18.1328 6.46138 19.8676 4.72656 22 4.72656C24.1324 4.72656 25.8672 6.46138 25.8672 8.59375V10.9141Z" fill="#FFD567"/>
</svg>
