<svg width="144" height="124" viewBox="0 0 144 124" fill="none" xmlns="http://www.w3.org/2000/svg">
<path d="M18.6509 22.9395L21.6589 21.7925C23.4637 20.6455 22.8621 20.6455 22.8621 18.925V16.0575C22.8621 14.9105 22.2605 14.337 20.4557 14.9105L18.0493 16.0575C16.2444 17.2045 16.8461 17.2045 16.8461 18.925V21.7925C16.2444 23.513 17.4477 24.0865 18.6509 22.9395Z" fill="#FFD541"/>
<path d="M13.2353 24.0871V21.2196C13.2353 20.0726 12.6337 19.4991 10.8289 20.0726L2.40642 24.6606C0.601605 25.8076 0 26.9546 0 29.2486V42.439C0 43.586 1.20321 44.1595 2.40642 43.586C3.00803 43.586 4.81284 42.439 4.81284 42.439C6.01605 41.8655 6.01605 40.7185 6.01605 38.4245V33.2631C6.01605 31.5426 7.21926 29.8221 8.42247 29.2486L12.0321 27.5281C13.2353 25.8076 13.2353 25.8076 13.2353 24.0871Z" fill="#FFD541"/>
<path d="M12.0327 38.4241V56.2025C12.0327 56.776 12.6343 57.3495 13.2359 57.3495C13.8375 57.3495 13.8375 57.3495 14.4391 57.3495C15.6423 56.776 17.4472 55.629 17.4472 55.629C18.6504 55.0555 18.6504 54.482 18.6504 51.6145V41.2916C18.6504 39.5711 19.252 38.4241 21.0568 37.8506L36.0969 29.8217C36.6985 29.2482 37.3001 29.2482 38.5033 29.2482C39.1049 29.2482 40.3081 29.2482 40.9097 29.8217L60.1611 40.7181C60.7627 41.2916 61.3643 40.7181 61.3643 40.1446C61.3643 40.1446 61.3643 39.5711 61.3643 38.9976C61.3643 37.8506 61.3643 36.1301 61.3643 36.1301C61.3643 34.9831 60.7627 34.4096 58.9579 33.8361L39.7065 22.9397C39.1049 22.3662 37.9017 22.3662 37.3001 22.3662C36.6985 22.3662 36.0969 22.3662 34.8937 22.9397L13.8375 34.4096C12.6343 34.9831 12.0327 36.1301 12.0327 38.4241Z" fill="#FFD541"/>
<path d="M60.1608 66.5254C60.1608 65.952 59.5592 65.3785 58.9576 64.805C58.9576 64.805 56.5512 63.0845 55.348 63.0845C54.7464 63.0845 54.1448 63.0845 53.5432 63.0845C52.9416 63.0845 52.34 63.0845 51.1368 63.658L23.4629 79.1424C22.8613 79.1424 22.8613 79.7159 22.8613 79.7159C22.8613 80.2894 22.8613 80.2894 23.4629 80.8629C24.6661 82.0099 27.6742 83.1569 27.6742 83.1569C28.2758 83.1569 28.8774 83.7304 28.8774 83.7304C29.479 83.7304 30.6822 83.1569 31.8854 82.5834L58.356 67.6724C59.5592 67.6724 60.1608 67.0989 60.1608 66.5254Z" fill="#FFD541"/>
<path d="M45.1196 57.9229C45.1196 57.3494 44.518 56.7759 43.9163 56.2024C43.9163 56.2024 41.5099 54.4819 40.3067 54.4819C39.7051 54.4819 39.1035 54.4819 38.5019 54.4819C37.9003 54.4819 37.2987 54.4819 36.6971 55.0554L12.0313 68.8194C11.4297 68.8194 11.4297 69.3929 11.4297 69.3929C11.4297 69.9664 11.4297 69.9664 12.0313 70.5399C13.2345 71.6869 16.2425 72.8338 16.2425 72.8338C16.8441 72.8338 17.4457 73.4073 17.4457 73.4073C18.0473 73.4073 19.2505 72.8338 20.4538 72.2603L43.9163 59.0699C44.518 58.4964 45.1196 58.4964 45.1196 57.9229Z" fill="#FFD541"/>
<path d="M121.524 21.2197L124.532 22.9402C126.336 23.5137 126.938 22.9402 126.938 21.7932V18.9258C126.938 17.2053 126.938 16.6318 125.735 16.0583L122.727 14.3378C120.922 13.7643 120.32 14.3378 120.32 15.4848V18.3523C120.32 20.0727 120.32 20.6462 121.524 21.2197Z" fill="#FFD541"/>
<path d="M141.376 24.6606L132.954 20.0726C131.149 19.4991 130.547 20.0726 130.547 21.2196V24.0871C130.547 25.8076 130.547 25.8076 131.751 26.9546L135.36 28.6751C137.165 29.8221 137.767 30.9691 137.767 32.6896V37.851C137.767 40.145 137.767 41.292 138.97 41.8655C138.97 41.8655 140.775 43.0125 141.376 43.0125C142.579 43.586 143.783 43.0125 143.783 41.8655V28.6751C144.384 26.9546 143.783 25.8076 141.376 24.6606Z" fill="#FFD541"/>
<path d="M106.485 21.793C105.883 21.793 104.68 21.793 104.078 22.3665L84.8268 33.2629C83.022 34.4099 82.4204 34.4099 82.4204 35.5569C82.4204 35.5569 82.4204 37.2774 82.4204 38.4244C82.4204 38.9979 82.4204 38.9979 82.4204 39.5714C83.022 40.1449 83.6236 40.1449 83.6236 40.1449L102.875 29.2484C103.477 28.6749 104.078 28.6749 105.281 28.6749C105.883 28.6749 107.086 28.6749 107.688 29.2484L122.728 37.2774C123.931 37.8509 125.134 39.5714 125.134 40.7184V51.0413C125.134 53.3353 125.134 53.9088 126.338 55.0558C126.338 55.0558 128.142 56.2028 129.346 56.7763C129.947 56.7763 129.947 56.7763 130.549 56.7763C131.15 56.7763 131.752 56.2028 131.752 55.6293V37.2774C131.752 34.9834 131.15 34.4099 129.346 33.2629L108.289 21.793C107.688 22.3665 107.086 21.793 106.485 21.793Z" fill="#FFD541"/>
<path d="M120.322 79.1424L92.6481 63.658C92.0465 63.0845 91.4449 63.0845 90.2417 63.0845C89.6401 63.0845 89.0385 63.0845 88.4369 63.0845C87.2336 63.658 84.8272 64.805 84.8272 64.805C84.2256 65.3785 83.624 65.952 83.624 66.5254C83.624 67.0989 83.624 67.0989 84.2256 67.6724L110.696 82.5834C111.899 83.1569 113.103 83.7304 113.704 83.7304C114.306 83.7304 114.907 83.7304 114.907 83.1569C114.907 83.1569 117.915 82.0099 119.119 80.8629C119.72 80.2894 119.72 80.2894 119.72 79.7159C120.924 79.7159 120.322 79.7159 120.322 79.1424Z" fill="#FFD541"/>
<path d="M107.687 88.3185L75.8017 70.5401V60.2172L104.077 44.7328C105.28 44.1593 106.484 44.1593 107.687 44.7328L114.304 48.1737C116.109 48.7472 116.711 48.1737 116.711 47.0267V44.7328C116.711 43.0123 116.711 42.4388 115.508 41.8653C115.508 41.8653 108.89 38.4243 108.89 37.8508C107.687 37.2773 105.882 36.7038 104.077 37.8508L76.4033 53.3352V29.8218L104.679 14.3374C105.882 13.7639 107.085 13.7639 108.288 14.3374L114.906 17.7784C116.711 18.3519 117.312 17.7784 117.312 16.6314V13.7639C117.312 12.0434 117.312 11.4699 116.109 10.8964C116.109 10.8964 109.492 7.45546 109.492 6.88196C108.288 6.30847 106.484 5.73497 104.679 6.88196L75.8017 21.7929V3.44098C75.8017 1.72049 73.9969 0 72.1921 0C70.3873 0 68.5825 1.72049 68.5825 3.44098V21.7929L40.9087 6.30847C39.1039 5.16147 37.299 5.73497 36.0958 6.30847L29.4782 10.3229C27.6734 11.4699 28.275 11.4699 28.275 13.1904V16.0579C28.275 17.2049 28.8766 17.7784 30.6814 17.2049L37.299 13.7639C38.5022 13.1904 39.7055 13.1904 40.9087 13.7639L69.1841 29.2483V52.7617L41.5103 37.2773C39.7055 36.1303 37.9006 36.7038 36.6974 37.2773L30.0798 41.2918C28.275 42.4388 28.8766 42.4388 28.8766 44.1593V47.0267C28.8766 48.1737 29.4782 48.7472 31.283 48.1737L37.9006 44.7328C39.1039 44.1593 40.3071 44.1593 41.5103 44.7328L69.7857 60.2172V70.5401L37.9006 88.3185C37.299 88.3185 37.299 88.892 37.299 88.892C37.299 89.4655 37.299 89.4655 37.9006 90.039C39.1039 91.186 42.1119 92.333 42.1119 92.333C42.7135 92.333 43.3151 92.9065 43.3151 92.9065C43.9167 92.9065 45.1199 92.333 46.3231 91.7595L69.7857 79.1426V120.434C69.7857 122.155 71.5905 123.875 73.3953 123.875C75.2001 123.875 77.005 122.155 77.005 120.434V79.1426L100.468 91.7595C101.671 92.333 102.874 92.9065 103.476 92.9065C104.077 92.9065 104.679 92.9065 104.679 92.333C104.679 92.333 107.687 91.186 108.89 90.039C109.492 89.4655 109.492 89.4655 109.492 88.892C108.288 88.892 108.288 88.892 107.687 88.3185Z" fill="#FFD541"/>
<path d="M131.75 68.2461L107.085 54.4822C106.483 53.9087 105.881 53.9087 105.28 53.9087C104.678 53.9087 104.077 53.9087 103.475 53.9087C102.272 54.4822 99.8653 55.6292 99.8653 55.6292C99.2637 56.2027 98.6621 56.7762 98.6621 57.3497C98.6621 57.9232 98.6621 57.9232 99.2637 58.4967L122.726 71.6871C123.93 72.2606 125.133 72.8341 125.734 72.8341C126.336 72.8341 126.938 72.8341 126.938 72.2606C126.938 72.2606 129.946 71.1136 131.149 69.9666C131.75 69.3931 131.75 69.3931 131.75 68.8196C132.352 68.8196 132.352 68.8196 131.75 68.2461Z" fill="#FFD541"/>
</svg>
