<svg width="128" height="35" viewBox="0 0 128 35" fill="none" xmlns="http://www.w3.org/2000/svg">
    <g clip-path="url(#clip0)">
        <path d="M68.4557 8.0618C68.1519 8.0618 67.9494 8.0618 67.8481 8.16011C67.7468 8.25843 67.5443 8.35674 67.443 8.55337L61.4684 16.2219L55.4937 8.55337C55.3924 8.35674 55.1899 8.25843 55.0886 8.16011C54.8861 8.0618 54.6835 8.0618 54.3797 8.0618C53.9747 8.0618 53.6709 8.16011 53.4684 8.25843C53.2658 8.45506 53.0633 8.65169 53.0633 8.94663V18.4831H55.1899V11.7978L60.3544 18.2865C60.557 18.5815 60.962 18.6798 61.3671 18.6798C61.7722 18.6798 62.1772 18.5815 62.3797 18.2865L67.5443 11.7978V18.4831H69.6709V9.04494C69.6709 8.75 69.5696 8.45506 69.2658 8.35674C69.1646 8.16011 68.8608 8.0618 68.4557 8.0618Z" fill="white"/>
        <path d="M76.6583 8.35674H74.3292V18.5815H76.6583V8.35674Z" fill="white"/>
        <path d="M89.519 15.0421C90.2279 15.0421 90.8354 15.0421 91.3418 14.9438C91.8481 14.8455 92.2532 14.6489 92.6582 14.4522C93.0633 14.2556 93.2658 13.9607 93.4684 13.5674C93.6709 13.1742 93.6709 12.6826 93.6709 12.0927V11.4045C93.6709 10.8146 93.5696 10.323 93.4684 9.92977C93.2658 9.53651 93.0633 9.24157 92.7595 8.94662C92.4557 8.74999 91.9494 8.55336 91.443 8.45505C90.9367 8.35674 90.3291 8.35674 89.519 8.35674H81.3165V10.2247H89.4177C89.8228 10.2247 90.1266 10.2247 90.3291 10.2247C90.6329 10.2247 90.8355 10.323 90.9367 10.4213C91.038 10.5197 91.1392 10.618 91.2405 10.8146C91.3418 11.0112 91.3418 11.2079 91.3418 11.5028V12.0927C91.3418 12.3876 91.3418 12.5843 91.2405 12.7809C91.1392 12.9775 91.038 13.0758 90.9367 13.1742C90.8355 13.2725 90.6329 13.3708 90.3291 13.3708C90.1266 13.3708 89.7215 13.3708 89.4177 13.3708H81.3165V18.5815H83.6456V14.8455L89.8228 18.5815H93.8734L87.6962 15.1404H89.519V15.0421Z" fill="white"/>
        <path d="M100.962 16.5168C100.76 16.5168 100.557 16.4185 100.456 16.2219C100.354 16.1236 100.253 15.927 100.152 15.7303C100.152 15.5337 100.051 15.2388 100.051 14.9438V14.2556H108.962V12.4859H97.8228V15.0421C97.8228 15.7303 97.9241 16.2219 98.0254 16.7135C98.1266 17.205 98.3291 17.5 98.6329 17.7949C98.9367 18.0899 99.3418 18.2865 99.8481 18.3848C100.354 18.4831 100.962 18.5815 101.772 18.5815H109.063V16.6152H101.772C101.468 16.6152 101.165 16.6152 100.962 16.5168Z" fill="white"/>
        <path d="M109.165 8.35674H101.873C101.063 8.35674 100.456 8.45505 99.9494 8.55336C99.443 8.65168 99.038 8.84831 98.7342 9.14325C98.4304 9.4382 98.2279 9.73314 98.1266 10.2247H109.266V8.35674H109.165Z" fill="white"/>
        <path d="M40.7089 16.5168C40.5064 16.5168 40.3038 16.4185 40.2026 16.2219C40.1013 16.1236 40 15.927 39.8988 15.7303C39.8988 15.5337 39.7975 15.2388 39.7975 14.9438V14.2556H48.7089V12.4859H37.5696V15.0421C37.5696 15.7303 37.6709 16.2219 37.7722 16.7135C37.8734 17.205 38.076 17.5 38.3798 17.7949C38.6836 18.0899 39.0886 18.2865 39.595 18.3848C40.1013 18.4831 40.7089 18.5815 41.519 18.5815H48.8102V16.6152H41.519C41.2152 16.6152 40.9114 16.6152 40.7089 16.5168Z" fill="white"/>
        <path d="M48.9114 8.35674H41.519C40.7089 8.35674 40.1013 8.45505 39.5949 8.55336C39.0886 8.65168 38.6836 8.84831 38.3798 9.14325C38.076 9.4382 37.8734 9.73314 37.7722 10.2247H48.9114V8.35674Z" fill="white"/>
        <path d="M128 18.5815L122.127 13.2725L127.797 8.35674H124.658L120.506 11.8961L116.354 8.35674H113.013L118.684 13.2725L112.709 18.5815H115.949L120.405 14.7472L124.557 18.5815H128Z" fill="white"/>
        <path d="M7.39244 11.9944L7.89877 11.7978C8.20257 11.6011 8.1013 11.6011 8.1013 11.3062V10.8146C8.1013 10.618 8.00003 10.5197 7.69624 10.618L7.29117 10.8146C6.98738 11.0112 7.08864 11.0112 7.08864 11.3062V11.7978C6.98738 12.0927 7.18991 12.191 7.39244 11.9944Z" fill="white"/>
        <path d="M6.48102 12.191V11.6994C6.48102 11.5028 6.37976 11.4045 6.07596 11.5028L4.65824 12.2893C4.35444 12.4859 4.25317 12.6826 4.25317 13.0758V15.3371C4.25317 15.5337 4.45571 15.632 4.65824 15.5337C4.7595 15.5337 5.0633 15.3371 5.0633 15.3371C5.26583 15.2388 5.26583 15.0421 5.26583 14.6489V13.764C5.26583 13.4691 5.46836 13.1742 5.6709 13.0758L6.27849 12.7809C6.48102 12.4859 6.48102 12.4859 6.48102 12.191Z" fill="white"/>
        <path d="M6.2785 14.6489V17.6966C6.2785 17.7949 6.37977 17.8933 6.48104 17.8933C6.5823 17.8933 6.5823 17.8933 6.68357 17.8933C6.8861 17.7949 7.1899 17.5983 7.1899 17.5983C7.39243 17.5 7.39243 17.4017 7.39243 16.9101V15.1405C7.39243 14.8455 7.49369 14.6489 7.79749 14.5506L10.3291 13.1742C10.4304 13.0758 10.5317 13.0758 10.7342 13.0758C10.8355 13.0758 11.038 13.0758 11.1393 13.1742L14.3798 15.0421C14.481 15.1405 14.5823 15.0421 14.5823 14.9438C14.5823 14.9438 14.5823 14.8455 14.5823 14.7472C14.5823 14.5506 14.5823 14.2556 14.5823 14.2556C14.5823 14.059 14.481 13.9607 14.1772 13.8624L10.9367 11.9944C10.8355 11.8961 10.6329 11.8961 10.5317 11.8961C10.4304 11.8961 10.3291 11.8961 10.1266 11.9944L6.5823 13.9607C6.37977 14.059 6.2785 14.2556 6.2785 14.6489Z" fill="white"/>
        <path d="M14.3797 19.4663C14.3797 19.368 14.2785 19.2697 14.1772 19.1713C14.1772 19.1713 13.7721 18.8764 13.5696 18.8764C13.4683 18.8764 13.3671 18.8764 13.2658 18.8764C13.1645 18.8764 13.0633 18.8764 12.8608 18.9747L8.20252 21.6292C8.10126 21.6292 8.10126 21.7275 8.10126 21.7275C8.10126 21.8258 8.10126 21.8258 8.20252 21.9242C8.40506 22.1208 8.91138 22.3174 8.91138 22.3174C9.01265 22.3174 9.11392 22.4157 9.11392 22.4157C9.21518 22.4157 9.41771 22.3174 9.62024 22.2191L14.0759 19.6629C14.2785 19.6629 14.3797 19.5646 14.3797 19.4663Z" fill="white"/>
        <path d="M11.8481 17.9916C11.8481 17.8933 11.7469 17.7949 11.6456 17.6966C11.6456 17.6966 11.2405 17.4017 11.038 17.4017C10.9367 17.4017 10.8355 17.4017 10.7342 17.4017C10.6329 17.4017 10.5317 17.4017 10.4304 17.5L6.27851 19.8596C6.17725 19.8596 6.17725 19.9579 6.17725 19.9579C6.17725 20.0562 6.17725 20.0562 6.27851 20.1545C6.48104 20.3511 6.98737 20.5478 6.98737 20.5478C7.08864 20.5478 7.1899 20.6461 7.1899 20.6461C7.29117 20.6461 7.4937 20.5478 7.69623 20.4494L11.6456 18.1882C11.7469 18.0899 11.8481 18.0899 11.8481 17.9916Z" fill="white"/>
        <path d="M24.7089 11.6994L25.2152 11.9944C25.519 12.0927 25.6203 11.9944 25.6203 11.7978V11.3062C25.6203 11.0112 25.6203 10.9129 25.4177 10.8146L24.9114 10.5197C24.6076 10.4213 24.5063 10.5197 24.5063 10.7163V11.2079C24.5063 11.5028 24.5063 11.6011 24.7089 11.6994Z" fill="white"/>
        <path d="M28.0506 12.2893L26.6329 11.5028C26.3291 11.4045 26.2278 11.5028 26.2278 11.6994V12.191C26.2278 12.4859 26.2278 12.4859 26.4304 12.6826L27.038 12.9775C27.3418 13.1742 27.443 13.3708 27.443 13.6657V14.5506C27.443 14.9438 27.443 15.1404 27.6456 15.2388C27.6456 15.2388 27.9494 15.4354 28.0506 15.4354C28.2532 15.5337 28.4557 15.4354 28.4557 15.2388V12.9775C28.557 12.6826 28.4557 12.4859 28.0506 12.2893Z" fill="white"/>
        <path d="M22.1772 11.7977C22.076 11.7977 21.8734 11.7977 21.7722 11.8961L18.5316 13.764C18.2279 13.9607 18.1266 13.9607 18.1266 14.1573C18.1266 14.1573 18.1266 14.4522 18.1266 14.6489C18.1266 14.7472 18.1266 14.7472 18.1266 14.8455C18.2279 14.9438 18.3291 14.9438 18.3291 14.9438L21.5696 13.0758C21.6709 12.9775 21.7722 12.9775 21.9747 12.9775C22.076 12.9775 22.2785 12.9775 22.3798 13.0758L24.9114 14.4522C25.1139 14.5506 25.3165 14.8455 25.3165 15.0421V16.8118C25.3165 17.205 25.3165 17.3034 25.519 17.5C25.519 17.5 25.8228 17.6966 26.0253 17.7949C26.1266 17.7949 26.1266 17.7949 26.2279 17.7949C26.3291 17.7949 26.4304 17.6966 26.4304 17.5983V14.4522C26.4304 14.059 26.3291 13.9607 26.0253 13.764L22.481 11.7977C22.3798 11.8961 22.2785 11.7977 22.1772 11.7977Z" fill="white"/>
        <path d="M24.5063 21.6292L19.8481 18.9747C19.7468 18.8764 19.6456 18.8764 19.443 18.8764C19.3418 18.8764 19.2405 18.8764 19.1392 18.8764C18.9367 18.9747 18.5316 19.1713 18.5316 19.1713C18.4304 19.2697 18.3291 19.368 18.3291 19.4663C18.3291 19.5646 18.3291 19.5646 18.4304 19.6629L22.8861 22.2191C23.0886 22.3174 23.2911 22.4157 23.3924 22.4157C23.4937 22.4157 23.5949 22.4157 23.5949 22.3174C23.5949 22.3174 24.1013 22.1208 24.3038 21.9242C24.4051 21.8258 24.4051 21.8258 24.4051 21.7275C24.6076 21.7275 24.5063 21.7275 24.5063 21.6292Z" fill="white"/>
        <path d="M22.3798 23.2023L17.0127 20.1545V18.3848L21.7722 15.7303C21.9747 15.632 22.1772 15.632 22.3798 15.7303L23.4937 16.3202C23.7975 16.4185 23.8987 16.3202 23.8987 16.1236V15.7303C23.8987 15.4354 23.8987 15.3371 23.6962 15.2388C23.6962 15.2388 22.5823 14.6489 22.5823 14.5506C22.3797 14.4522 22.076 14.3539 21.7722 14.5506L17.1139 17.2051V13.1742L21.8734 10.5197C22.076 10.4213 22.2785 10.4213 22.481 10.5197L23.5949 11.1096C23.8987 11.2079 24 11.1096 24 10.9129V10.4213C24 10.1264 24 10.0281 23.7975 9.92978C23.7975 9.92978 22.6835 9.33989 22.6835 9.24157C22.481 9.14326 22.1772 9.04494 21.8734 9.24157L17.0127 11.7978V8.65169C17.0127 8.35674 16.7089 8.0618 16.4051 8.0618C16.1013 8.0618 15.7975 8.35674 15.7975 8.65169V11.7978L11.1392 9.14326C10.8354 8.94663 10.5316 9.04494 10.3291 9.14326L9.21519 9.83146C8.9114 10.0281 9.01266 10.0281 9.01266 10.323V10.8146C9.01266 11.0112 9.11393 11.1096 9.41773 11.0112L10.5316 10.4213C10.7342 10.323 10.9367 10.323 11.1392 10.4213L15.8987 13.0758V17.1067L11.2405 14.4522C10.9367 14.2556 10.6329 14.3539 10.4304 14.4522L9.31646 15.1405C9.01266 15.3371 9.11393 15.3371 9.11393 15.632V16.1236C9.11393 16.3202 9.21519 16.4185 9.51899 16.3202L10.6329 15.7303C10.8354 15.632 11.038 15.632 11.2405 15.7303L16 18.3848V20.1545L10.6329 23.2023C10.5316 23.2023 10.5316 23.3006 10.5316 23.3006C10.5316 23.3989 10.5316 23.3989 10.6329 23.4972C10.8354 23.6938 11.3418 23.8905 11.3418 23.8905C11.443 23.8905 11.5443 23.9888 11.5443 23.9888C11.6456 23.9888 11.8481 23.8905 12.0506 23.7921L16 21.6292V28.7079C16 29.0028 16.3038 29.2978 16.6076 29.2978C16.9114 29.2978 17.2152 29.0028 17.2152 28.7079V21.6292L21.1646 23.7921C21.3671 23.8905 21.5696 23.9888 21.6709 23.9888C21.7722 23.9888 21.8734 23.9888 21.8734 23.8905C21.8734 23.8905 22.3797 23.6938 22.5823 23.4972C22.6835 23.3989 22.6835 23.3989 22.6835 23.3006C22.481 23.3006 22.481 23.3006 22.3798 23.2023Z" fill="white"/>
        <path d="M26.4304 19.7612L22.2785 17.4017C22.1772 17.3034 22.076 17.3034 21.9747 17.3034C21.8734 17.3034 21.7722 17.3034 21.6709 17.3034C21.4684 17.4017 21.0633 17.5983 21.0633 17.5983C20.962 17.6966 20.8608 17.7949 20.8608 17.8933C20.8608 17.9916 20.8608 17.9916 20.962 18.0899L24.9114 20.3511C25.1139 20.4494 25.3165 20.5478 25.4177 20.5478C25.519 20.5478 25.6203 20.5478 25.6203 20.4494C25.6203 20.4494 26.1266 20.2528 26.3291 20.0562C26.4304 19.9579 26.4304 19.9579 26.4304 19.8596C26.5317 19.8596 26.5317 19.8596 26.4304 19.7612Z" fill="white"/>
        <path d="M8.00003 4.81741C7.7975 4.81741 7.69623 4.7191 7.59496 4.62078C7.4937 4.32584 7.59496 4.12921 7.7975 3.93258L9.51901 2.94944C9.72155 2.85112 10.0253 2.94944 10.1266 3.14606C10.2279 3.34269 10.2279 3.63764 9.92408 3.73595L8.20256 4.7191C8.20256 4.81741 8.10129 4.81741 8.00003 4.81741Z" fill="#FFD541"/>
        <path d="M0.506306 17.0084C0.303774 17.0084 0.101242 16.8118 0.101242 16.6152V11.5028C-2.34991e-05 9.53652 1.01263 7.76685 2.73415 6.88202L4.35441 5.89888C4.55694 5.80056 4.86074 5.89887 4.962 6.0955C5.06327 6.29213 5.06327 6.58708 4.75947 6.68539L3.13922 7.57022C1.7215 8.35674 0.911369 9.83146 0.911369 11.4045V16.5169C0.911369 16.8118 0.708837 17.0084 0.506306 17.0084Z" fill="#FFD541"/>
        <path d="M16.4051 35C15.3924 35 14.481 34.8034 13.6709 34.3118L2.73418 28.2163C1.11392 27.2331 0.101266 25.5618 0 23.5955V20.6461C0 20.4494 0.202532 20.2528 0.405063 20.2528C0.607595 20.2528 0.810127 20.4494 0.810127 20.6461V23.5955C0.810127 25.1685 1.72152 26.6433 3.13924 27.4298L14.1772 33.5253C14.8861 33.9185 15.5949 34.1152 16.4051 34.1152C17.2152 34.1152 18.0253 33.9185 18.7342 33.5253L23.0886 31.0674C23.2911 30.9691 23.5949 30.9691 23.6962 31.264C23.7975 31.4607 23.7975 31.7556 23.4937 31.8539L19.1392 34.3118C18.3291 34.7051 17.4177 35 16.4051 35Z" fill="#FFD541"/>
        <path d="M30.3797 17.8933C30.1772 17.8933 29.9747 17.6966 29.9747 17.5V11.4045C29.9747 10.5197 29.4684 9.63483 28.6582 9.14326L26.3291 7.86517C26.1266 7.76686 26.0253 7.47191 26.1266 7.27528C26.2278 7.07865 26.5316 6.98034 26.7342 7.07865L29.0633 8.35674C30.1772 8.94663 30.8861 10.1264 30.8861 11.3062V17.4017C30.7848 17.6966 30.5823 17.8933 30.3797 17.8933Z" fill="#FFD541"/>
        <path d="M26.5316 29.986C26.4304 29.986 26.2278 29.8876 26.1266 29.7893L25.0126 28.3146C24.9114 28.2163 24.9114 28.118 24.9114 27.9213C24.9114 27.823 25.0126 27.7247 25.1139 27.6264L28.4557 25.7584C29.2658 25.2668 29.7721 24.4803 29.7721 23.4972V22.1208C29.7721 21.9242 29.9747 21.7275 30.1772 21.7275C30.3797 21.7275 30.5823 21.9242 30.5823 22.1208V23.4972C30.5823 24.677 29.8734 25.8567 28.8607 26.4466L25.924 28.118L26.5316 28.9045L29.3671 27.3315C30.7848 26.5449 31.5949 25.0702 31.5949 23.4972V11.3062C31.5949 9.73314 30.6835 8.25842 29.2658 7.47191C29.0633 7.37359 28.962 7.07865 29.0633 6.88202C29.1645 6.68539 29.4683 6.58707 29.6709 6.68539C31.3924 7.66854 32.405 9.33988 32.405 11.2079V23.3989C32.405 25.2668 31.3924 27.0365 29.6709 28.0197L26.4304 29.7893C26.7342 29.986 26.6329 29.986 26.5316 29.986Z" fill="#FFD541"/>
        <path d="M16.4051 33.132C15.7975 33.132 15.1899 32.9354 14.6835 32.6404L11.7468 31.0674C11.5443 30.9691 11.443 30.6742 11.5443 30.4775C11.6456 30.2809 11.9494 30.1826 12.1519 30.2809L15.0886 31.8539C15.4937 32.0506 15.8987 32.1489 16.4051 32.1489C16.9114 32.1489 17.3165 32.0506 17.7215 31.7556L23.7975 28.3146C24 28.2163 24.3038 28.2163 24.4051 28.5112C24.5063 28.7079 24.5063 29.0028 24.2025 29.1011L18.1266 32.5421C17.6203 32.9354 17.0127 33.132 16.4051 33.132Z" fill="#FFD541"/>
        <path d="M7.89876 28.8062C7.79749 28.8062 7.69622 28.8062 7.69622 28.7079L3.74686 26.5449C2.63293 25.9551 1.92407 24.7753 1.92407 23.5955V15.0421C1.92407 14.8455 2.1266 14.6489 2.32914 14.6489C2.53167 14.6489 2.7342 14.8455 2.7342 15.0421V23.5955C2.7342 24.4803 3.24053 25.3652 4.05065 25.8567L8.10129 28.0197C8.30382 28.118 8.40508 28.4129 8.30382 28.6096C8.20255 28.7079 8.00002 28.8062 7.89876 28.8062Z" fill="#FFD541"/>
        <path d="M2.32914 11.8961C2.1266 11.8961 1.92407 11.6994 1.92407 11.5028C1.92407 10.323 2.63293 9.14326 3.64559 8.55337L8.60762 5.70225C8.91141 5.50562 9.11395 5.50562 9.31648 5.80056C9.41774 5.99719 9.31648 6.19382 9.11395 6.39045L4.15192 9.14326C3.34179 9.63483 2.83546 10.4213 2.83546 11.4045C2.83546 11.6994 2.63293 11.8961 2.32914 11.8961Z" fill="#FFD541"/>
        <path d="M23.2911 6.19296C23.1899 6.19296 23.0886 6.19296 23.0886 6.09465L17.6203 3.0469C16.8101 2.55532 15.7975 2.65364 14.9873 3.0469L11.6456 4.91487C11.443 5.01319 11.1392 5.01319 11.038 4.71825C10.9367 4.52162 10.9367 4.22667 11.2405 4.12836L14.5823 2.26038C15.6962 1.67049 17.0127 1.67049 18.1266 2.26038L23.2911 5.1115L23.8987 4.32499L18.6329 1.37555C17.3165 0.589031 15.4937 0.589031 14.076 1.37555L11.9494 2.55532C11.7468 2.65364 11.443 2.65364 11.3418 2.35869C11.2405 2.16207 11.2405 1.86712 11.5443 1.76881L13.6709 0.589031C15.2911 -0.2958 17.519 -0.2958 19.1392 0.589031L24.8101 3.7351C24.9114 3.83341 25.0127 3.93173 25.0127 4.03004C25.0127 4.12836 25.0127 4.32499 24.9114 4.4233L23.7975 5.89802C23.5949 6.09465 23.4937 6.19296 23.2911 6.19296Z" fill="#FFD541"/>
        <path d="M68.0506 26.3483H37.7722V26.8399H68.0506V26.3483Z" fill="#FFD541"/>
        <path d="M127.797 26.3483H99.1392V26.8399H127.797V26.3483Z" fill="#FFD541"/>
        <path d="M95.1899 30.0843C95.2911 29.8876 95.3924 29.7893 95.3924 29.5927C95.3924 29.3961 95.1899 29.1994 94.8861 29.1994C94.5823 29.1994 94.2785 29.2978 94.076 29.4944C93.7722 29.7893 93.6709 29.986 93.6709 30.1826C93.6709 30.4775 93.7722 30.5759 94.076 30.6742C93.9747 30.8708 93.8734 30.9691 93.7722 31.1657L93.8734 31.2641C94.2785 31.0674 94.7848 30.8708 95.4937 30.7725C95.5949 30.5758 95.6962 30.3792 95.7975 30.2809V30.1826C95.5949 30.1826 95.3924 30.1826 95.0886 30.1826C94.481 30.1826 94.1772 29.986 94.1772 29.8876C94.1772 29.7893 94.3798 29.691 94.5823 29.691C94.6836 29.691 94.7848 29.691 94.7848 29.7893L95.1899 30.0843ZM94.481 29.0028C94.6836 28.7079 94.8861 28.5112 94.9874 28.2163C95.0886 28.0197 95.1899 27.3315 95.1899 26.3483C95.1899 25.0702 95.1899 23.7921 94.9874 22.4157L94.8861 22.3174C94.5823 22.5141 94.3798 22.809 94.076 23.1039C94.2785 24.4803 94.2785 25.9551 94.2785 27.3315C94.2785 27.9214 94.2785 28.4129 94.1772 28.9045L94.481 29.0028ZM90.4304 26.8399C90.6329 26.4466 90.8355 26.25 91.2405 26.25C91.6456 26.25 92.0506 26.7416 92.2532 27.4298C92.2532 27.4298 92.1519 27.5281 92.0506 27.5281C91.4431 27.5281 90.9367 27.2332 90.4304 26.8399ZM90.0253 28.0197C90.6329 28.5112 91.2405 28.7079 91.7468 28.7079C92.6582 28.7079 92.8608 27.5281 92.8608 27.4298C92.8608 26.7416 92.4557 25.0702 91.3418 25.0702C91.038 25.0702 90.7342 25.1685 90.4304 25.4635C89.8228 26.0534 89.9241 26.9382 89.4177 27.2332C89.3165 27.4298 89.1139 27.5281 88.9114 27.5281H88.8101C88.5063 27.5281 88.3038 27.823 88.3038 28.2163C88.3038 28.5112 88.5063 28.9045 88.8101 28.9045H88.9114C89.4177 28.8062 89.8228 28.5112 90.0253 28.0197ZM92.4557 30.9691C91.6456 31.2641 90.8355 31.4607 90.0253 31.7556L89.8228 32.3455C90.6329 32.0506 91.3418 31.8539 92.1519 31.559L92.4557 30.9691ZM88.8101 27.5281C88 27.5281 87.5949 27.0365 87.2911 26.25H87.1899C86.9874 26.545 86.8861 26.8399 86.6836 27.2332C86.8861 27.7247 87.1899 28.118 87.3924 28.4129C87.2912 28.8062 87.0886 29.2978 86.5823 29.691C86.1772 30.0843 85.6709 30.2809 85.1646 30.2809C85.0633 30.2809 84.8608 30.2809 84.557 30.1826L84.4557 30.4775C85.1646 30.9691 85.7722 31.1657 86.2785 31.1657C86.7848 31.1657 87.2912 30.7725 87.5949 30.1826C87.7975 29.7893 88 29.3961 88 28.7079C88.2025 28.8062 88.4051 28.8062 88.7089 28.8062H88.8101V27.5281ZM83.9494 24.1854C83.5443 24.0871 83.038 24.0871 82.6329 23.9888C83.443 23.5955 84.4557 23.3006 85.5696 22.9073C85.7722 22.5141 85.9747 22.2191 86.1772 21.8259C84.6582 22.3174 83.443 22.7107 82.7342 23.1039C82.2279 23.3006 82.0253 23.5955 82.0253 24.0871C82.0253 24.382 82.0253 24.5787 82.1266 24.8736C83.443 25.7584 84.3544 26.545 84.3544 27.0365C84.3544 27.3315 83.443 27.5281 82.1266 27.5281H82.0253C81.7215 27.5281 81.519 27.823 81.519 28.2163C81.519 28.5112 81.6203 28.9045 82.0253 28.9045H82.1266C83.5443 28.9045 84.4557 28.6096 84.7595 28.0197C84.962 27.6264 85.0633 27.2332 85.0633 26.8399C85.0633 26.0534 84.7595 25.6601 83.7468 24.7753L83.9494 24.1854ZM77.2658 28.8062C77.7722 28.8062 78.1772 28.6096 78.481 28.2163C78.6836 28.6096 78.9874 28.7079 79.2912 28.7079C79.6962 28.7079 80.1013 28.5112 80.4051 28.118C80.6076 28.5112 81.2152 28.7079 81.9241 28.7079H82.0253V27.5281H81.9241C81.6203 27.5281 81.3165 27.4298 81.1139 27.3315C80.9114 27.2332 80.9114 27.0365 80.9114 26.7416C80.9114 26.545 81.0127 26.25 81.1139 25.9551H81.0127L80.5063 26.25C80.4051 26.6433 80.3038 26.9382 80.1013 27.2332C79.8987 27.4298 79.6962 27.5281 79.3924 27.5281C79.2912 27.5281 79.1899 27.5281 79.0886 27.4298C79.0886 27.3315 78.9874 27.2332 78.9874 27.1348C78.9874 27.0365 79.0886 26.6433 79.2912 26.1517C79.0886 26.25 78.8861 26.3483 78.6836 26.4466C78.5823 26.8399 78.481 27.1348 78.2785 27.2332C78.076 27.4298 77.9747 27.4298 77.7722 27.4298C77.4684 27.4298 77.3671 27.2332 77.2658 27.0365C77.0633 26.6433 76.962 26.3483 76.7595 25.9551H76.6582C76.4557 26.3483 76.2532 26.6433 76.0506 27.0365C76.557 27.7247 76.7595 28.2163 76.7595 28.7079C76.7595 28.9045 76.4557 29.1011 76.1519 29.2978C75.7468 29.5927 75.3418 29.691 74.8355 29.691C74.4304 29.691 74.0253 29.5927 73.7215 29.2978C73.3165 29.0028 73.2152 28.6096 73.2152 28.118C73.2152 27.9214 73.3165 27.5281 73.519 27.0365L73.1139 26.8399C72.7089 27.4298 72.6076 28.118 72.6076 28.7079C72.6076 29.8876 73.3165 30.8708 74.6329 30.8708C75.443 30.8708 76.1519 30.4775 76.6582 29.986C77.0633 29.7893 77.1646 29.3961 77.2658 28.8062Z" fill="#FFD541"/>
    </g>
    <defs>
        <clipPath id="clip0">
            <rect width="128" height="35" fill="white"/>
        </clipPath>
    </defs>
</svg>
