<svg width="132" height="38" viewBox="0 0 132 38" fill="none" xmlns="http://www.w3.org/2000/svg">
    <path d="M70.7574 8.30859C70.4816 8.30859 70.2675 8.34919 70.1157 8.42735C69.9614 8.50762 69.8163 8.63682 69.6779 8.81711L63.5209 16.9269L57.4113 8.81711C57.2734 8.63682 57.1206 8.50762 56.9503 8.42735C56.7815 8.34919 56.5536 8.30859 56.2691 8.30859C55.8981 8.30859 55.5883 8.38881 55.3403 8.54724C55.0913 8.70561 54.9673 8.9547 54.9673 9.29336V19.3707H57.1566V12.2446L62.426 19.1476C62.6699 19.4551 63.0239 19.6083 63.4885 19.6083C63.9547 19.6083 64.3087 19.4551 64.5526 19.1476L69.8374 12.2446V19.3707H72.0591V9.29336C72.0591 8.9547 71.9341 8.70561 71.6861 8.54724C71.4371 8.38881 71.1273 8.30859 70.7574 8.30859Z" fill="#FFD567"/>
    <path d="M76.7708 19.3694H79.1834V8.5459H76.7708V19.3694Z" fill="#FFD567"/>
    <path d="M92.373 15.7042C93.1129 15.7042 93.7524 15.6572 94.2932 15.5614C94.8325 15.4655 95.2791 15.2998 95.6336 15.0612C95.9881 14.8235 96.2505 14.5015 96.4193 14.0931C96.588 13.6855 96.6724 13.1707 96.6724 12.5465V11.7993C96.6724 11.1553 96.5942 10.6207 96.4342 10.1976C96.2768 9.77451 96.0257 9.44104 95.6814 9.19817C95.3377 8.95434 94.8957 8.78552 94.356 8.68966C93.8173 8.59483 93.1659 8.54688 92.4038 8.54688H83.9294V10.579H92.2459C92.6364 10.579 92.9647 10.5946 93.2297 10.6259C93.4941 10.6571 93.6994 10.7207 93.8487 10.8166C93.9974 10.9114 94.1028 11.049 94.1661 11.2293C94.2289 11.4085 94.2613 11.642 94.2613 11.9275V12.5142C94.2613 12.8102 94.2289 13.0499 94.1661 13.2291C94.1028 13.4094 93.9943 13.5459 93.8399 13.6418C93.6871 13.7366 93.4808 13.8002 93.2209 13.8325C92.9616 13.8638 92.6364 13.8794 92.2459 13.8794H83.9294V19.3703H86.3251V15.4342L92.6575 19.3703H96.8165L90.4676 15.7042H92.373Z" fill="#FFD567"/>
    <path d="M104.203 17.252C103.974 17.2041 103.797 17.1176 103.67 16.9894C103.544 16.8633 103.457 16.6934 103.41 16.4819C103.361 16.2703 103.338 16.0005 103.338 15.6722V14.9114H112.558V12.9971H100.942V15.6566C100.942 16.3443 101.007 16.9237 101.14 17.3938C101.272 17.8648 101.496 18.2462 101.814 18.537C102.132 18.8288 102.554 19.0393 103.085 19.1727C103.614 19.3039 104.274 19.3707 105.068 19.3707H112.621V17.3229H105.068C104.719 17.3229 104.431 17.2989 104.203 17.252Z" fill="#FFD567"/>
    <path d="M112.603 8.54688H105.069C104.275 8.54688 103.614 8.61253 103.085 8.74492C102.554 8.87726 102.132 9.08878 101.814 9.37955C101.497 9.67134 101.274 10.0538 101.14 10.5311C101.137 10.5405 101.137 10.553 101.134 10.5634H112.603V8.54688Z" fill="#FFD567"/>
    <path d="M42.1731 17.252C41.9449 17.2041 41.7688 17.1176 41.6417 16.9894C41.5145 16.8633 41.428 16.6934 41.3801 16.4819C41.3311 16.2703 41.3082 16.0005 41.3082 15.6722V14.9114H50.5289V12.9971H38.9124V15.6566C38.9124 16.3443 38.978 16.9237 39.1103 17.3938C39.2427 17.8648 39.4668 18.2462 39.7846 18.537C40.1024 18.8288 40.5245 19.0393 41.0549 19.1727C41.5843 19.3039 42.244 19.3707 43.0381 19.3707H50.5924V17.3229H43.0381C42.689 17.3229 42.4003 17.2989 42.1731 17.252Z" fill="#FFD567"/>
    <path d="M50.5736 8.54688H43.038C42.2439 8.54688 41.5843 8.61253 41.0549 8.74492C40.5244 8.87726 40.1024 9.08878 39.7845 9.37955C39.4667 9.67134 39.2426 10.0538 39.1103 10.5311C39.1071 10.5405 39.1071 10.553 39.104 10.5634H50.5736V8.54688Z" fill="#FFD567"/>
    <path d="M132 19.3703L125.921 13.7523L131.809 8.54688H128.524L124.279 12.2964L120.049 8.54688H116.573L122.446 13.7679L116.225 19.3703H119.589L124.142 15.33L128.493 19.3703H132Z" fill="#FFD567"/>
    <path d="M39.1085 28.1624H70.2501V27.6758H39.1085V28.1624Z" fill="#FFD567"/>
    <path d="M102.296 28.1622H131.802V27.6484H102.296V28.1622Z" fill="#FFD567"/>
    <path d="M79.8081 30.2661C80.2959 30.2661 80.7076 30.0879 81.0086 29.669H81.0369C81.236 30.1088 81.5308 30.2318 81.8611 30.2318C82.2645 30.2318 82.6499 29.9785 83.0199 29.5731H83.041C83.2056 30.04 83.8776 30.2318 84.5913 30.2318H84.6885V28.8593H84.5913C84.2414 28.8593 83.9404 28.7978 83.7202 28.6675C83.5421 28.557 83.466 28.3997 83.466 28.0766C83.466 27.8776 83.5555 27.542 83.6517 27.2262L83.5828 27.1783L83.0677 27.493C82.9448 27.8922 82.848 28.2694 82.6561 28.5029C82.4647 28.7425 82.2311 28.8593 81.963 28.8593C81.8735 28.8593 81.7716 28.8384 81.6744 28.7228C81.6265 28.654 81.607 28.5643 81.607 28.4268C81.607 28.2903 81.7299 27.9057 81.8807 27.4315L81.8328 27.3836C81.6203 27.4868 81.414 27.6035 81.2159 27.7203C81.0909 28.1048 80.9751 28.4132 80.8033 28.5987C80.6386 28.7634 80.4606 28.8593 80.2676 28.8593C79.9532 28.8593 79.8709 28.7019 79.7531 28.4268C79.5956 28.0297 79.4382 27.6515 79.2663 27.295L79.1912 27.2877C78.9442 27.665 78.7317 28.0297 78.5388 28.4205C79.0194 29.1406 79.2602 29.717 79.2869 30.1703C79.2463 30.3964 79.0044 30.6225 78.6829 30.8424C78.299 31.104 77.8668 31.2749 77.3456 31.2749C76.9134 31.2749 76.5347 31.1373 76.1992 30.8841C75.7937 30.5402 75.7114 30.1286 75.7114 29.6763C75.7114 29.4283 75.7999 29.0448 76.0345 28.5362L75.6636 28.3517C75.2653 28.9896 75.0945 29.7378 75.0945 30.3484C75.0945 31.5969 75.7876 32.6682 77.1871 32.6682C78.0165 32.6682 78.7919 32.2837 79.2725 31.6865C79.5478 31.3364 79.7196 30.856 79.8081 30.2661ZM86.6978 25.3807C86.2527 25.3181 85.7783 25.2431 85.2916 25.14V25.0993C86.1493 24.721 87.1706 24.3573 88.3391 23.9936C88.5516 23.6164 88.7497 23.2318 88.9288 22.8556L88.8799 22.8066C87.3425 23.3152 86.0525 23.7883 85.3399 24.1312C84.8665 24.3511 84.653 24.6866 84.653 25.14C84.653 25.4078 84.7009 25.6954 84.7904 26.0049C86.1838 26.9449 87.1032 27.7473 87.1032 28.3236C87.1032 28.6331 86.157 28.8593 84.7832 28.8593H84.6885C84.3582 28.8593 84.2079 29.2167 84.2079 29.546C84.2079 29.8753 84.3582 30.2318 84.6885 30.2318H84.7832C86.2661 30.2318 87.1778 29.9295 87.4665 29.3397C87.6656 28.9208 87.7958 28.5029 87.7958 28.0975C87.7958 27.3013 87.501 26.8011 86.4724 25.909L86.6978 25.3807ZM91.6456 28.8593H91.5509C90.7806 28.8593 90.4107 28.3101 90.0541 27.5139H89.9502C89.7793 27.8161 89.6219 28.16 89.4644 28.53C89.697 29.0375 89.9574 29.4564 90.2254 29.7993C90.1431 30.2182 89.875 30.6986 89.4228 31.1103C88.9967 31.5084 88.5038 31.7418 87.9265 31.7418C87.7762 31.7418 87.5699 31.7147 87.3085 31.6251L87.1583 31.9679C87.8858 32.4483 88.4755 32.6474 88.9839 32.6474C89.5468 32.6474 89.9918 32.2493 90.37 31.6522C90.6098 31.2613 90.8161 30.8091 90.8161 30.1015C91.0286 30.1703 91.2483 30.2318 91.5288 30.2318H91.6456V28.8593ZM95.4619 32.5244L95.4336 32.4963C94.6448 32.7985 93.8009 33.0726 92.9494 33.3404L92.7919 33.9792L92.8264 34.0199C93.6296 33.7593 94.4323 33.4842 95.1732 33.1695L95.4619 32.5244ZM92.8815 29.422C93.4984 29.9097 94.1709 30.1703 94.6926 30.1703C95.6054 30.1703 95.8524 28.9624 95.8524 28.8666C95.8524 28.1048 95.468 26.355 94.3227 26.355C94.0134 26.355 93.7119 26.4853 93.4171 26.7594C92.7441 27.3836 92.8671 28.3445 92.3325 28.681C92.1539 28.7905 91.9543 28.8593 91.7413 28.8593H91.6456C91.3173 28.8593 91.165 29.2167 91.165 29.546C91.165 29.9024 91.3235 30.2318 91.6394 30.2318H91.7279C92.2846 30.2318 92.669 29.9295 92.8609 29.422H92.8815ZM93.2859 28.1256C93.4716 27.7546 93.7248 27.5348 94.0886 27.5348C94.5491 27.5348 94.9607 28.0297 95.1053 28.7978C95.1053 28.8384 95.023 28.8593 94.8928 28.8593C94.3572 28.8593 93.8215 28.5987 93.2859 28.1256ZM97.4511 30.4235C97.6847 30.1494 97.8704 29.8816 98.015 29.621C98.1652 29.3876 98.2275 28.6675 98.2275 27.59C98.2275 26.2581 98.2059 24.8721 98.068 23.3902L97.9527 23.3287C97.6919 23.582 97.4305 23.8706 97.1562 24.2C97.3209 25.7027 97.3898 27.1783 97.3898 28.6602C97.3898 29.3189 97.3687 29.8274 97.3003 30.3141L97.4511 30.4235ZM98.193 31.6042C98.3237 31.4125 98.3911 31.2478 98.3911 31.0967C98.3911 30.8633 98.1987 30.7122 97.9044 30.7122C97.6095 30.7122 97.3147 30.8497 97.0543 31.0758C96.7595 31.3437 96.6144 31.6386 96.6144 31.8512C96.6144 32.1117 96.7647 32.2837 97.0322 32.4004C96.9375 32.5651 96.848 32.737 96.7647 32.9152L96.848 32.9975C97.2252 32.7568 97.8148 32.5994 98.563 32.5025C98.6736 32.3181 98.7683 32.1325 98.8444 31.9471L98.8166 31.8856C98.5769 31.8992 98.3777 31.9064 98.1236 31.9064C97.5411 31.9064 97.2252 31.7209 97.2252 31.5427C97.2252 31.4396 97.4104 31.3093 97.6847 31.302C97.7804 31.302 97.8627 31.3301 97.9183 31.3979L98.1035 31.6042H98.193Z" fill="#FFD567"/>
    <path d="M8.23198 5.07448C8.07252 5.07448 7.91621 4.99216 7.83074 4.84417C7.70154 4.6222 7.77656 4.33874 7.9975 4.20952L9.77847 3.17365C10.0004 3.04443 10.2849 3.11946 10.4121 3.34039C10.5413 3.56236 10.4663 3.84582 10.2454 3.97504L8.46542 5.01091C8.39143 5.05364 8.31116 5.07448 8.23198 5.07448Z" fill="#FFD567"/>
    <path d="M0.483593 17.9984C0.228273 17.9984 0.020891 17.792 0.0198489 17.5367L4.85896e-05 12.1042C-0.0082884 10.1126 1.05676 8.25249 2.77834 7.251L4.47387 6.26201C4.69584 6.13384 4.97826 6.20783 5.10748 6.4298C5.23777 6.65074 5.16167 6.93523 4.94074 7.0634L3.24417 8.05239C1.80813 8.88815 0.921281 10.4399 0.926493 12.101L0.947337 17.5336C0.948377 17.7889 0.742038 17.9984 0.484635 17.9984H0.483593Z" fill="#FFD567"/>
    <path d="M16.8904 37.0462C15.8973 37.0462 14.9364 36.7908 14.0923 36.3073L2.86139 29.8785C1.13147 28.8864 0.0539181 27.0345 0.0466231 25.043L0.0351602 21.9365C0.034118 21.6801 0.2415 21.4717 0.497862 21.4717H0.498903C0.754225 21.4717 0.961604 21.677 0.962648 21.9333L0.974112 25.0399C0.979319 26.7011 1.87972 28.2465 3.32201 29.0739L14.553 35.5028C15.2574 35.9061 16.0588 36.1187 16.8706 36.1187C17.7022 36.1156 18.5089 35.8967 19.2185 35.484L23.6746 32.8902C23.8966 32.762 24.1811 32.835 24.3093 33.057C24.4385 33.2789 24.3624 33.5624 24.1415 33.6916L19.6854 36.2865C18.835 36.7805 17.868 37.0431 16.8904 37.0462Z" fill="#FFD567"/>
    <path d="M31.2092 18.9605C30.9539 18.9605 30.7464 18.7542 30.7454 18.4989L30.7214 11.9918C30.7183 11.0258 30.1941 10.1264 29.3552 9.64499L26.9313 8.25687C26.7082 8.12973 26.6311 7.84627 26.7583 7.6243C26.8854 7.40233 27.1689 7.32417 27.3908 7.45239L29.8169 8.84046C30.9424 9.48661 31.6448 10.6923 31.6489 11.9887L31.6729 18.4957C31.6739 18.751 31.4676 18.9605 31.2102 18.9605H31.2092Z" fill="#FFD567"/>
    <path d="M27.3309 31.7632C27.184 31.7632 27.0413 31.6944 26.9516 31.5673L25.8209 29.9676C25.7459 29.8613 25.7198 29.729 25.7459 29.6008C25.774 29.4737 25.8543 29.3642 25.9668 29.2996L29.4204 27.2883C30.2562 26.8017 30.7721 25.8992 30.7689 24.9321L30.7637 23.4492C30.7616 23.1928 30.969 22.9854 31.2254 22.9844H31.2275C31.4817 22.9844 31.6901 23.1907 31.6912 23.4471L31.6953 24.929C31.7016 26.2264 31.0076 27.4373 29.8873 28.0897L26.8714 29.8457L27.4633 30.6846L30.4021 28.9745C31.8381 28.1377 32.726 26.587 32.7198 24.9248L32.6729 11.9848C32.6666 10.3236 31.7662 8.77817 30.325 7.95178C30.102 7.82464 30.0248 7.54015 30.153 7.31818C30.2812 7.09724 30.5636 7.02011 30.7856 7.14725C32.5145 8.13727 33.592 9.99016 33.6004 11.9817L33.6472 24.9227C33.6556 26.9132 32.5905 28.7733 30.8689 29.7759L27.5634 31.6997C27.4904 31.7424 27.4102 31.7632 27.3309 31.7632Z" fill="#FFD567"/>
    <path d="M16.8705 35.0948C16.238 35.0948 15.6127 34.929 15.0624 34.6143L12.0643 32.8969C11.8413 32.7708 11.7652 32.4873 11.8923 32.2643C12.0184 32.0424 12.3019 31.9652 12.5249 32.0924L15.522 33.8088C15.9336 34.0433 16.3985 34.1673 16.8705 34.1673H16.8809C17.3562 34.1652 17.8251 34.0381 18.2378 33.7983L24.4603 30.1749C24.6812 30.0467 24.9647 30.1217 25.0939 30.3427C25.2231 30.5636 25.1471 30.8481 24.9261 30.9763L18.7036 34.5997C18.1513 34.9207 17.5218 35.0926 16.8841 35.0948H16.8705Z" fill="#FFD567"/>
    <path d="M8.07437 30.5443C7.99621 30.5443 7.91703 30.5235 7.84509 30.4818L3.83086 28.185C2.70537 27.5389 2.00298 26.3321 1.99777 25.0357L1.96546 16.0224C1.96442 15.7661 2.17076 15.5576 2.42712 15.5576C2.70953 15.5576 2.89191 15.7629 2.89191 16.0193L2.92525 25.0326C2.92942 25.9997 3.45256 26.898 4.29251 27.3805L8.30468 29.6773C8.52768 29.8044 8.6048 30.0889 8.47766 30.3099C8.3922 30.46 8.23485 30.5443 8.07437 30.5443Z" fill="#FFD567"/>
    <path d="M2.41481 12.5587C2.15949 12.5587 1.95211 12.3524 1.95107 12.0971C1.9469 10.7996 2.63991 9.58869 3.76019 8.93529L8.90516 5.94023C9.12605 5.81097 9.41058 5.88604 9.53978 6.10802C9.66796 6.32788 9.59294 6.61236 9.37199 6.74161L4.22706 9.73667C3.39128 10.2233 2.87543 11.1258 2.87855 12.0939C2.8796 12.3493 2.67326 12.5587 2.41585 12.5587H2.41481Z" fill="#FFD567"/>
    <path d="M24.0073 6.51212C23.9292 6.51212 23.85 6.49231 23.7781 6.45064L18.1256 3.21589C17.2992 2.74381 16.2342 2.7459 15.4099 3.22527L11.9562 5.23762C11.7332 5.36579 11.4498 5.29077 11.3216 5.06982C11.1924 4.8489 11.2674 4.56439 11.4884 4.43621L14.944 2.42492C16.0476 1.78089 17.4774 1.77672 18.5852 2.41033L23.876 5.43875L24.4763 4.60295L19.0958 1.52244C17.6932 0.720011 15.8246 0.726267 14.4282 1.53912L12.2387 2.81468C12.0167 2.94286 11.7332 2.86887 11.604 2.6469C11.4758 2.42596 11.5509 2.14251 11.7718 2.01329L13.9613 0.737731C15.6412 -0.238738 17.8703 -0.246033 19.5554 0.716887L25.384 4.0548C25.4976 4.11941 25.5789 4.22987 25.607 4.3591C25.6351 4.48624 25.607 4.62067 25.5299 4.72697L24.3846 6.31933C24.295 6.44436 24.1522 6.51212 24.0073 6.51212Z" fill="#FFD567"/>
    <path d="M27.6019 17.2367C27.6019 17.3962 27.3809 17.4795 27.2299 17.4181C27.1444 17.3837 26.8755 17.2138 26.8755 17.2138C26.6692 17.0846 26.6598 16.9846 26.6525 16.5813L26.6494 16.5375V15.6913C26.6494 15.4266 26.5097 15.1817 26.2836 15.0441L25.774 14.7502C25.5239 14.5877 25.5656 14.5981 25.551 14.3084V13.8321C25.551 13.6529 25.6625 13.5654 25.9168 13.6925L27.2101 14.4543C27.5008 14.6283 27.5967 14.7961 27.6019 15.141V17.2367ZM25.7396 21.5605C25.525 21.7304 25.1049 21.9284 25.0997 21.9305C25.0331 21.9669 24.9632 21.9847 24.8882 21.9847C24.7621 21.9847 24.6173 21.9346 24.4328 21.8325L20.9573 19.7733C20.8854 19.7243 20.849 19.6638 20.851 19.5951C20.8542 19.5117 20.9167 19.4231 21.0178 19.3658C21.0209 19.3637 21.3794 19.1178 21.544 19.0604C21.6337 19.0302 21.7108 19.0167 21.7837 19.0167C21.888 19.0167 21.99 19.0448 22.0974 19.1042L25.7532 21.2583C25.8084 21.2958 25.8626 21.3364 25.8647 21.3896C25.8657 21.4376 25.824 21.4949 25.7396 21.5605ZM23.9889 23.2456C23.7742 23.4144 23.3532 23.6124 23.348 23.6145C23.2813 23.651 23.2125 23.6677 23.1375 23.6677C23.0124 23.6677 22.8675 23.6198 22.682 23.5166L18.6949 21.1572C18.6219 21.1093 18.5855 21.0478 18.5875 20.979C18.5907 20.8956 18.6543 20.807 18.7543 20.7507C18.7574 20.7477 19.1159 20.5017 19.2816 20.4454C19.3712 20.4152 19.4462 20.4006 19.5202 20.4006C19.6245 20.4006 19.7266 20.4298 19.8339 20.4882L24.0014 22.9424C24.0577 22.9799 24.1108 23.0205 24.1129 23.0737C24.115 23.1205 24.0732 23.1789 23.9889 23.2456ZM22.1433 24.6858C21.9286 24.8557 21.5086 25.0526 21.5024 25.0558C21.4356 25.0922 21.3679 25.1089 21.2929 25.1089C21.1668 25.1089 21.0219 25.0599 20.8354 24.9578L17.3808 22.9694V29.3889C17.3808 29.6943 17.1338 29.9423 16.8284 29.9423C16.5221 29.9423 16.2751 29.6943 16.2751 29.3889V22.9653L12.8121 24.9578C12.6266 25.0599 12.4817 25.1089 12.3557 25.1089C12.2806 25.1089 12.2108 25.0922 12.1441 25.0558C12.1399 25.0526 11.7189 24.8557 11.5043 24.6858C11.4198 24.6202 11.3782 24.5618 11.3802 24.5149C11.3823 24.4618 11.4355 24.4211 11.4917 24.3836L16.2751 21.6376V20.0078L12.0493 17.5681C11.8711 17.466 11.6512 17.466 11.473 17.5681L10.5038 18.1267C10.2495 18.2539 10.138 18.1663 10.138 17.9871V17.5098C10.1526 17.2211 10.1109 17.1825 10.361 17.021C10.361 17.021 11.3615 16.4437 11.373 16.4364C11.5647 16.3301 11.8065 16.2665 12.1149 16.4155L16.2751 18.8353V15.1754L12.0493 12.7358C11.8711 12.6337 11.6512 12.6337 11.473 12.7358L10.5038 13.2944C10.2495 13.4215 10.138 13.334 10.138 13.1548V12.6775C10.1526 12.3888 10.1109 12.3502 10.361 12.1887C10.361 12.1887 11.3615 11.6114 11.373 11.6041C11.5647 11.4967 11.8065 11.4342 12.1149 11.5832L16.2751 14.002V11.0664C16.2751 10.761 16.5221 10.513 16.8284 10.513C17.1338 10.513 17.3808 10.761 17.3808 11.0664V13.9978L21.5326 11.5832C21.841 11.4342 22.0828 11.4967 22.2746 11.6041C22.286 11.6114 23.2875 12.1887 23.2875 12.1887C23.5366 12.3502 23.4949 12.3888 23.5095 12.6775V13.1548C23.5095 13.334 23.399 13.4215 23.1447 13.2944L22.1745 12.7358C21.9963 12.6337 21.7764 12.6337 21.5982 12.7358L17.3808 15.1702V18.8301L21.5326 16.4155C21.841 16.2665 22.0828 16.3301 22.2746 16.4364C22.286 16.4437 23.2875 17.021 23.2875 17.021C23.5366 17.1825 23.4949 17.2211 23.5095 17.5098V17.9871C23.5095 18.1663 23.399 18.2539 23.1447 18.1267L22.1745 17.5681C21.9963 17.466 21.7764 17.466 21.5982 17.5681L17.3808 20.0025V21.6429L22.1568 24.3836C22.212 24.4211 22.2663 24.4618 22.2673 24.5149C22.2693 24.5618 22.2277 24.6202 22.1433 24.6858ZM10.5101 23.6677C10.435 23.6677 10.3663 23.651 10.2995 23.6145C10.2943 23.6124 9.87335 23.4144 9.65864 23.2456C9.57425 23.1789 9.53257 23.1205 9.53463 23.0737C9.53674 23.0205 9.58989 22.9799 9.64613 22.9424L13.8136 20.4882C13.9209 20.4298 14.0241 20.4006 14.1273 20.4006C14.2013 20.4006 14.2773 20.4152 14.3659 20.4454C14.5316 20.5017 14.8901 20.7477 14.8932 20.7507C14.9933 20.807 15.0568 20.8956 15.06 20.979C15.0631 21.0478 15.0256 21.1093 14.9526 21.1572L10.9655 23.5166C10.78 23.6198 10.6361 23.6677 10.5101 23.6677ZM8.75928 21.9847C8.68426 21.9847 8.61547 21.9669 8.54775 21.9305C8.54256 21.9284 8.12362 21.7304 7.90788 21.5605C7.82349 21.4949 7.78182 21.4376 7.78284 21.3896C7.7849 21.3364 7.84016 21.2958 7.89537 21.2583L11.5501 19.1042C11.6575 19.0448 11.7596 19.0167 11.8638 19.0167C11.9378 19.0167 12.0139 19.0302 12.1035 19.0604C12.2681 19.1178 12.6266 19.3637 12.6297 19.3658C12.7298 19.4231 12.7944 19.5117 12.7965 19.5951C12.7985 19.6638 12.7621 19.7243 12.6902 19.7733L9.21469 21.8325C9.03023 21.9346 8.88539 21.9847 8.75928 21.9847ZM6.99813 15.6913V16.5375L6.99499 16.5813C6.98768 16.9846 6.97832 17.0846 6.77199 17.2138C6.77199 17.2138 6.50417 17.3837 6.41768 17.4181C6.26656 17.4795 6.04562 17.3962 6.04562 17.2367V15.141C6.05081 14.7961 6.14672 14.6283 6.43852 14.4543L7.73072 13.6925C7.98501 13.5654 8.09651 13.6529 8.09651 13.8321V14.3084C8.08194 14.5981 8.12362 14.5877 7.87453 14.7502L7.36391 15.0441C7.13777 15.1817 6.99813 15.4266 6.99813 15.6913ZM11.3917 14.0864C11.5001 14.0291 11.6043 14.002 11.7095 14.002C11.8242 14.002 11.9409 14.0333 12.0639 14.1L14.9015 15.808C15.1642 15.9654 15.234 16.0143 15.2413 16.205C15.2413 16.2071 15.2528 16.4791 15.2403 16.6636C15.2361 16.7198 15.2236 16.7678 15.2017 16.8053C15.1538 16.8897 15.0662 16.9137 14.985 16.8668L12.0972 15.1702C11.9951 15.1098 11.8794 15.0795 11.7606 15.0795C11.6439 15.0795 11.5293 15.1098 11.4271 15.1681L9.2168 16.4448C9.0115 16.5635 8.88333 16.7855 8.88333 17.0231V18.6592L8.88122 18.6978C8.87392 19.0636 8.86455 19.1646 8.67073 19.2856C8.66862 19.2866 8.44042 19.4335 8.24243 19.5305C8.18197 19.5597 8.12465 19.5752 8.07253 19.5752C7.95686 19.5752 7.87973 19.4992 7.87973 19.3867V16.5416C7.88498 16.2207 7.97353 16.0654 8.24346 15.9039L11.3917 14.0864ZM8.56545 13.556C8.58109 13.2673 8.53839 13.2288 8.78742 13.0672L9.2168 12.8182C9.47212 12.691 9.58259 12.7785 9.58259 12.9578V13.4351C9.56797 13.7237 9.60965 13.7623 9.36062 13.9238L8.93021 14.1729C8.67592 14.3001 8.56545 14.2125 8.56545 14.0333V13.556ZM25.404 15.9039C25.674 16.0654 25.7625 16.2207 25.7688 16.5416V19.3867C25.7688 19.4992 25.6906 19.5752 25.575 19.5752C25.5229 19.5752 25.4655 19.5597 25.4051 19.5305C25.2071 19.4335 24.9789 19.2866 24.9757 19.2856C24.7829 19.1646 24.7736 19.0636 24.7673 18.6978L24.7642 18.6592V17.0231C24.7642 16.7855 24.636 16.5635 24.4307 16.4448L22.2193 15.1681C22.1183 15.1098 22.0026 15.0795 21.8869 15.0795C21.7681 15.0795 21.6524 15.1098 21.5503 15.1702L18.6636 16.8668C18.5813 16.9137 18.4938 16.8897 18.4458 16.8053C18.424 16.7678 18.4114 16.7198 18.4072 16.6636C18.3958 16.4791 18.4072 16.2071 18.4062 16.205C18.4145 16.0143 18.4833 15.9654 18.7449 15.808L21.5837 14.1C21.7066 14.0333 21.8233 14.002 21.938 14.002C22.0443 14.002 22.1474 14.0291 22.2558 14.0864L25.404 15.9039ZM24.0389 12.938C24.0389 12.7598 24.1504 12.6722 24.4047 12.7994L24.8517 13.0724C25.1019 13.234 25.0591 13.2725 25.0747 13.5612V14.0385C25.0747 14.2177 24.9632 14.3053 24.709 14.1771L24.2608 13.904C24.0118 13.7425 24.0545 13.704 24.0389 13.4153V12.938ZM27.9687 10.4807L18.2082 4.84488C17.3683 4.3603 16.2803 4.3603 15.4393 4.84488L5.67983 10.4807C4.82634 10.9736 4.2959 11.8928 4.2959 12.8775V24.1481C4.2959 25.1339 4.82634 26.0521 5.67983 26.546L15.4403 32.1807C15.8603 32.4236 16.3386 32.5517 16.8243 32.5517C17.3089 32.5517 17.7872 32.4236 18.2082 32.1807L27.9687 26.545C28.8222 26.0521 29.3526 25.1339 29.3526 24.1481V12.8775C29.3526 11.8928 28.8222 10.9746 27.9687 10.4807Z" fill="#FFD567"/>
</svg>
