<svg width="22" height="22" viewBox="0 0 22 22" fill="none" xmlns="http://www.w3.org/2000/svg">
<path d="M19.4575 18.0096C21.0465 16.1027 22 13.6661 22 10.9823C22 7.69823 20.5522 4.73194 18.2568 2.7191L18.2215 2.68379C18.2215 2.68379 18.1862 2.64848 18.1509 2.64848C16.2087 0.988764 13.7014 0 10.9823 0C4.94382 0 0 4.94382 0 10.9823C0 17.0562 4.90851 21.9647 10.9823 21.9647C14.3018 21.9647 17.3034 20.4815 19.3162 18.1156C19.3868 18.0803 19.4221 18.0449 19.4575 18.0096ZM20.9406 10.9823C20.9406 13.2424 20.199 15.2905 18.9278 16.9502L15.8555 14.3724C16.5265 13.4189 16.9149 12.2536 16.9149 10.9823C16.9149 9.39326 16.2793 7.91011 15.2552 6.85072L17.8684 3.8138C19.74 5.65008 20.9406 8.19262 20.9406 10.9823ZM10.9823 15.8555C8.29856 15.8555 6.10915 13.6661 6.10915 10.9823C6.10915 8.29856 8.29856 6.10915 10.9823 6.10915C13.6661 6.10915 15.8555 8.29856 15.8555 10.9823C15.8555 13.6661 13.6661 15.8555 10.9823 15.8555ZM1.05939 10.9823C1.05939 5.50883 5.50883 1.05939 10.9823 1.05939C13.2777 1.05939 15.3965 1.83628 17.0562 3.14286L14.443 6.17978C13.4543 5.47352 12.2889 5.04976 10.9823 5.04976C7.69823 5.04976 5.04976 7.69823 5.04976 10.9823C5.04976 14.0899 7.41573 16.6324 10.4526 16.8796V20.87C5.22632 20.6228 1.05939 16.2793 1.05939 10.9823ZM11.512 20.9053V16.9149C12.9246 16.7737 14.1958 16.1734 15.1493 15.2199L18.2215 17.7978C16.5265 19.5987 14.1605 20.764 11.512 20.9053Z" fill="#141717"/>
</svg>
