<svg width="22" height="22" viewBox="0 0 22 22" fill="none" xmlns="http://www.w3.org/2000/svg">
<path d="M10.9823 0C4.94382 0 0 4.94382 0 10.9823C0 17.0209 4.94382 21.9647 10.9823 21.9647C17.0562 21.9647 21.9647 17.0209 21.9647 10.9823C21.9647 4.94382 17.0562 0 10.9823 0ZM10.9823 20.9406C7.5923 20.9406 4.59069 19.2103 2.78973 16.5971L7.52167 11.8652L10.6645 15.008L16.4559 9.21669V10.2408C16.4559 10.5233 16.703 10.7705 16.9856 10.7705C17.2681 10.7705 17.5152 10.5233 17.5152 10.2408V7.94543V7.41573H14.6902C14.4077 7.41573 14.1605 7.66292 14.1605 7.94543C14.1605 8.22793 14.4077 8.47512 14.6902 8.47512H15.7143L10.6645 13.5249L7.52167 10.382L2.22472 15.679C1.48315 14.2665 1.05939 12.6774 1.05939 10.9823C1.05939 5.50883 5.50883 1.05939 10.9823 1.05939C16.4559 1.05939 20.9053 5.50883 20.9053 10.9823C20.9053 16.4559 16.4559 20.9406 10.9823 20.9406Z" fill="#141717"/>
</svg>
