<svg width="22" height="25" viewBox="0 0 22 25" fill="none" xmlns="http://www.w3.org/2000/svg">
<path d="M22 18.75L21.8442 18.2132C21.8442 18.2132 21.8442 18.2132 21.8442 18.1748L21.1823 15.7592C21.1044 15.4525 20.7929 15.2607 20.4814 15.3374C20.1699 15.4141 19.9752 15.7209 20.0531 16.0276L20.3257 17.1012L16.7434 15.1074C17.1327 14.3021 17.3274 13.4202 17.3274 12.5C17.3274 11.5798 17.1327 10.6979 16.7434 9.89264L20.3646 7.82209L20.092 8.89571C20.0142 9.20245 20.2089 9.5092 20.5204 9.58589C20.5593 9.58589 20.6372 9.62423 20.6761 9.62423C20.9487 9.62423 21.1823 9.47086 21.2212 9.20245L21.8832 6.78681C21.8832 6.78681 21.8832 6.78681 21.8832 6.74847L22.0389 6.21166L21.4938 6.05828L19.0407 5.40644C18.7292 5.32976 18.4177 5.52147 18.3398 5.82822C18.2619 6.13497 18.4566 6.44172 18.7681 6.51841L19.8584 6.82515L16.2372 8.89571C15.1858 7.43865 13.5504 6.44172 11.6814 6.28834V2.18558L12.4991 2.9908C12.6159 3.10583 12.7717 3.14417 12.9274 3.14417C13.0832 3.14417 13.2389 3.10583 13.3558 2.9908C13.5894 2.76074 13.5894 2.41564 13.3558 2.18558L11.0195 0L10.6301 0.383436L8.83894 2.14724C8.60531 2.3773 8.60531 2.72239 8.83894 2.95245C9.07257 3.18252 9.42301 3.18252 9.65664 2.95245L10.4354 2.18558V6.28834C8.56637 6.44172 6.89204 7.43865 5.87965 8.89571L2.25841 6.82515L3.34867 6.55675C3.66018 6.48006 3.85487 6.17331 3.77699 5.86656C3.69912 5.55982 3.38761 5.3681 3.07611 5.44479L0.623009 6.09663L0 6.25L0.817699 9.20245C0.895575 9.47086 1.1292 9.62423 1.36283 9.62423C1.40177 9.62423 1.47965 9.62423 1.51858 9.58589C1.83009 9.5092 2.02478 9.20245 1.9469 8.89571L1.67434 7.82209L5.29558 9.89264C4.9062 10.6979 4.7115 11.5798 4.7115 12.5C4.7115 13.4202 4.9062 14.3021 5.29558 15.1074L1.67434 17.1779L1.9469 16.1043C2.02478 15.7975 1.83009 15.4908 1.51858 15.4141C1.20708 15.3374 0.895575 15.5291 0.817699 15.8359L0 18.75L2.99823 19.5552C3.03717 19.5552 3.11504 19.5936 3.15398 19.5936C3.42655 19.5936 3.66018 19.4402 3.69912 19.1718C3.77699 18.865 3.5823 18.5583 3.2708 18.4816L2.18053 18.2132L5.84071 16.1043C6.07434 16.4494 6.3469 16.7561 6.65841 17.0245C6.69735 17.0629 6.73628 17.1012 6.81416 17.1396C7.78761 17.9831 9.03363 18.5583 10.3965 18.6733V22.7761L9.6177 22.0092C9.38407 21.7791 9.03363 21.7791 8.8 22.0092C8.56637 22.2393 8.56637 22.6227 8.8 22.8528L10.5912 24.6166L10.9805 25L13.2 22.8144C13.4336 22.5844 13.4336 22.2393 13.2 22.0092C12.9664 21.7791 12.6159 21.7791 12.3823 22.0092L11.5646 22.8144V18.7117C12.9274 18.5966 14.1735 18.0215 15.1469 17.1779C15.2248 17.1396 15.2637 17.1012 15.3027 17.0245C15.6142 16.7561 15.8867 16.411 16.1204 16.1043L19.7416 18.1748L18.6903 18.4433C18.3788 18.5199 18.1841 18.8267 18.2619 19.1334C18.3398 19.4018 18.5735 19.5552 18.8071 19.5552C18.846 19.5552 18.9239 19.5552 18.9628 19.5169L21.4159 18.865L22 18.75ZM11.0195 7.43865C13.8619 7.43865 16.1593 9.70092 16.1593 12.5C16.1593 13.6887 15.731 14.7623 15.069 15.6058C14.5239 14.5706 13.5504 13.7653 12.4212 13.3819C12.8885 12.9985 13.2 12.385 13.2 11.6948C13.2 10.5061 12.1876 9.5092 10.9805 9.5092C9.77345 9.5092 8.76106 10.5061 8.76106 11.6948C8.76106 12.3466 9.07257 12.9601 9.53982 13.3819C8.41062 13.7653 7.47611 14.5322 6.89204 15.6058C6.23009 14.7623 5.80177 13.6503 5.80177 12.5C5.84071 9.70092 8.13805 7.43865 11.0195 7.43865ZM11.0195 17.5997C9.81239 17.5997 8.72212 17.1779 7.82655 16.4877C8.33274 15.184 9.57876 14.3405 11.0195 14.3405C12.4602 14.3405 13.7062 15.2224 14.2124 16.4877C13.3168 17.1779 12.1876 17.5997 11.0195 17.5997ZM11.0195 12.7684C10.4354 12.7684 9.96814 12.3083 9.96814 11.7331C9.96814 11.158 10.4354 10.6979 11.0195 10.6979C11.6035 10.6979 12.0708 11.158 12.0708 11.7331C12.0708 12.3083 11.5646 12.7684 11.0195 12.7684Z" fill="#141717"/>
</svg>
