<svg width="22" height="21" viewBox="0 0 22 21" fill="none" xmlns="http://www.w3.org/2000/svg">
<path d="M5.17271 10.2181C2.33091 10.2181 0 12.6399 0 15.6257C0 17.185 0.638607 18.5783 1.62845 19.5404C1.66038 19.5736 1.69231 19.6068 1.75617 19.6399C2.68215 20.4693 3.86357 21.0001 5.17271 21.0001C6.48186 21.0001 7.69521 20.5025 8.58926 19.6399C8.65312 19.6068 8.68505 19.5736 8.71698 19.5072C9.73875 18.512 10.3454 17.1186 10.3454 15.5925C10.3774 12.6399 8.04644 10.2181 5.17271 10.2181ZM2.58636 19.0428C3.00145 17.9148 4.02322 17.185 5.20464 17.185C6.38607 17.185 7.40784 17.948 7.82293 19.0428C7.08853 19.6399 6.19448 19.9717 5.20464 19.9717C4.2148 20.0049 3.28882 19.6399 2.58636 19.0428ZM5.17271 15.858C4.69376 15.858 4.3106 15.4598 4.3106 14.9622C4.3106 14.4646 4.69376 14.0665 5.17271 14.0665C5.65167 14.0665 6.03483 14.4646 6.03483 14.9622C6.06676 15.4598 5.65167 15.858 5.17271 15.858ZM8.5254 18.3129C8.07837 17.4172 7.28012 16.7205 6.35414 16.3888C6.7373 16.057 6.99274 15.5262 6.99274 14.929C6.99274 13.9006 6.16255 13.038 5.17271 13.038C4.18287 13.038 3.35268 13.9006 3.35268 14.929C3.35268 15.493 3.60813 16.0238 3.99129 16.3888C3.06531 16.7205 2.29898 17.384 1.82003 18.3129C1.30914 17.5499 0.95791 16.621 0.95791 15.6257C0.95791 13.2039 2.8418 11.2466 5.17271 11.2466C7.50363 11.2466 9.38752 13.2039 9.38752 15.6257C9.41945 16.621 9.06822 17.5499 8.5254 18.3129Z" fill="black"/>
<path d="M22 15.6261C22 12.6403 19.6691 10.2516 16.8273 10.2516C13.9536 10.2516 11.6546 12.6734 11.6546 15.6261C11.6546 17.1853 12.2932 18.5787 13.283 19.5407C13.315 19.5739 13.3469 19.6071 13.4108 19.6403C14.3367 20.4697 15.5182 21.0005 16.8273 21.0005C18.1365 21.0005 19.3498 20.5028 20.2439 19.6403C20.3077 19.6071 20.3397 19.5739 20.3716 19.5076C21.3614 18.5455 22 17.1521 22 15.6261ZM12.5806 15.6261C12.5806 13.2043 14.4645 11.2469 16.7954 11.2469C19.1263 11.2469 21.0102 13.2043 21.0102 15.6261C21.0102 16.6545 20.659 17.5834 20.1161 18.3133C19.6691 17.4175 18.8709 16.7208 17.9449 16.3891C18.328 16.0573 18.5835 15.5265 18.5835 14.9294C18.5835 13.9009 17.7533 13.0384 16.7635 13.0384C15.7736 13.0384 15.0073 13.9009 15.0073 14.9625C15.0073 15.5265 15.2627 16.0573 15.6459 16.4223C14.7199 16.754 13.9536 17.4175 13.4746 18.3464C12.9318 17.5502 12.5806 16.6213 12.5806 15.6261ZM16.8273 15.8583C16.3484 15.8583 15.9652 15.4602 15.9652 14.9625C15.9652 14.4649 16.3484 14.0668 16.8273 14.0668C17.3063 14.0668 17.6894 14.4649 17.6894 14.9625C17.6894 15.4602 17.3063 15.8583 16.8273 15.8583ZM14.209 19.0763C14.6241 17.9483 15.6459 17.2185 16.8273 17.2185C18.0087 17.2185 19.0305 17.9815 19.4456 19.0763C18.7112 19.6734 17.8172 20.0052 16.8273 20.0052C15.8375 20.0052 14.9115 19.6403 14.209 19.0763Z" fill="black"/>
<path d="M14.4645 9.32261C15.4863 8.32735 16.093 6.93398 16.093 5.40792C16.093 2.42213 13.762 0.0335083 10.9202 0.0335083C8.07844 0.0335083 5.74753 2.42213 5.74753 5.37474C5.74753 6.93398 6.38613 8.32735 7.37597 9.28943C7.40791 9.32261 7.43984 9.35578 7.5037 9.38896C8.42968 10.2183 9.6111 10.7492 10.9202 10.7492C12.2294 10.7492 13.4427 10.2515 14.3368 9.38896C14.4006 9.38896 14.4326 9.35578 14.4645 9.32261ZM6.70544 5.37474C6.70544 2.95294 8.58933 0.995594 10.9202 0.995594C13.2512 0.995594 15.135 2.95294 15.135 5.37474C15.135 6.40318 14.7838 7.33209 14.241 8.06194C13.794 7.16621 12.9957 6.46953 12.0697 6.13777C12.4529 5.80602 12.7083 5.27522 12.7083 4.67806C12.7083 3.64962 11.8782 2.78706 10.8883 2.78706C9.89847 2.78706 9.06828 3.64962 9.06828 4.67806C9.06828 5.24204 9.32372 5.77285 9.70689 6.13777C8.78091 6.46953 8.01458 7.13304 7.53563 8.06194C7.02474 7.33209 6.70544 6.40318 6.70544 5.37474ZM10.9202 5.64014C10.4413 5.64014 10.0581 5.24204 10.0581 4.74441C10.0581 4.24678 10.4413 3.84867 10.9202 3.84867C11.3992 3.84867 11.7824 4.24678 11.7824 4.74441C11.7824 5.20886 11.3992 5.64014 10.9202 5.64014ZM8.30195 8.82498C8.71705 7.69702 9.73882 6.96716 10.9202 6.96716C12.1017 6.96716 13.1234 7.73019 13.5385 8.82498C12.8041 9.42214 11.9101 9.75389 10.9202 9.75389C9.9304 9.78706 9.03635 9.42214 8.30195 8.82498Z" fill="black"/>
</svg>
