<svg width="22" height="25" viewBox="0 0 22 25" fill="none" xmlns="http://www.w3.org/2000/svg">
<path d="M8.03854 11.7804C9.23085 11.7804 10.1924 10.8334 10.1924 9.65918C10.1924 8.48493 9.23085 7.53796 8.03854 7.53796C6.84623 7.53796 5.8847 8.48493 5.8847 9.65918C5.8847 10.8334 6.84623 11.7804 8.03854 11.7804ZM8.03854 8.63645C8.577 8.63645 9.03854 9.09099 9.03854 9.6213C9.03854 10.1516 8.577 10.6061 8.03854 10.6061C7.50008 10.6061 7.03854 10.1516 7.03854 9.6213C7.03854 9.09099 7.50008 8.63645 8.03854 8.63645Z" fill="#141717"/>
<path d="M11.6926 15.3789C11.6926 16.5531 12.6541 17.5001 13.8464 17.5001C15.0387 17.5001 16.0002 16.5531 16.0002 15.3789C16.0002 14.2047 15.0387 13.2577 13.8464 13.2577C12.6541 13.2577 11.6926 14.2047 11.6926 15.3789ZM14.8849 15.3789C14.8849 15.9092 14.4233 16.3638 13.8849 16.3638C13.3464 16.3638 12.8849 15.9092 12.8849 15.3789C12.8849 14.8486 13.3464 14.3941 13.8849 14.3941C14.4233 14.3562 14.8849 14.8107 14.8849 15.3789Z" fill="#141717"/>
<path d="M14.4619 8.10625L6.50034 15.9472C6.26957 16.1744 6.26957 16.5153 6.50034 16.7426C6.61572 16.8563 6.76957 16.8941 6.92341 16.8941C7.07726 16.8941 7.23111 16.8563 7.34649 16.7426L15.308 8.9017C15.5388 8.67443 15.5388 8.33352 15.308 8.10625C15.0388 7.87897 14.6926 7.87897 14.4619 8.10625Z" fill="#141717"/>
<path d="M21.577 9.77301C20.5386 5.83361 17.6924 2.87907 14.0001 1.85634C13.6924 1.78058 13.3847 1.9321 13.2693 2.23513C13.1924 2.53816 13.3462 2.84119 13.6539 2.95483C16.9616 3.86392 19.5001 6.51543 20.4232 10.0382C21.3462 13.523 20.5001 17.0457 18.077 19.4321C16.5001 20.9851 14.4616 22.0079 12.2693 22.273L12.8078 21.6669C13.0386 21.4397 13.0001 21.0609 12.7693 20.8715C12.5386 20.6442 12.1539 20.6821 11.9616 20.9094L10.1155 22.9548L12.1924 24.773C12.3078 24.8866 12.4232 24.9245 12.577 24.9245C12.7309 24.9245 12.8847 24.8488 13.0001 24.7351C13.2309 24.5079 13.1924 24.1291 12.9616 23.9397L12.3462 23.3715C14.8078 23.0685 17.1539 21.9321 18.9232 20.1897C21.6539 17.576 22.6155 13.6366 21.577 9.77301Z" fill="#141717"/>
<path d="M7.96168 21.9699C4.76937 20.9471 2.34629 18.2577 1.46168 14.735C0.615522 11.2502 1.50014 7.80319 3.84629 5.49259C5.38475 3.97744 7.46168 2.99259 9.61552 2.68956L9.07706 3.29562C8.84629 3.52289 8.88475 3.90168 9.11552 4.09107C9.23091 4.20471 9.34629 4.24259 9.50014 4.24259C9.65398 4.24259 9.80783 4.16683 9.92321 4.05319L11.7694 2.00774L9.69244 0.189559C9.46168 -0.0377141 9.07706 0.000164736 8.88475 0.227437C8.65398 0.45471 8.69244 0.833498 8.92321 1.02289L9.5386 1.59107C7.07706 1.8941 4.73091 2.99259 3.00014 4.73501C0.384752 7.31077 -0.615248 11.1744 0.346291 15.038C1.30783 18.9396 4.0386 21.9699 7.61552 23.1062C7.69244 23.1062 7.73091 23.1441 7.80783 23.1441C8.0386 23.1441 8.26937 22.9926 8.34629 22.7653C8.42321 22.3865 8.26937 22.0456 7.96168 21.9699Z" fill="#141717"/>
</svg>
