<svg width="30" height="22" viewBox="0 0 30 22" fill="none" xmlns="http://www.w3.org/2000/svg">
    <path d="M11 0C4.92433 0 0 4.92433 0 11C0 17.0756 4.92433 22 11 22C17.0756 22 22 17.0756 22 11C22.0138 4.92433 17.0756 0 11 0ZM11 15.092C12.5674 15.092 13.9268 14.2043 14.6204 12.9142H16.8676C16.3405 14.5233 15.1614 15.855 13.6355 16.5763V18.9344H11.6936V17.1311C11.4716 17.1589 11.2358 17.1727 11 17.1727C10.7642 17.1727 10.5284 17.1589 10.3064 17.1311V18.9344H8.36443V16.5763C6.26985 15.5914 4.82723 13.4552 4.82723 11C4.82723 8.54475 6.26985 6.40857 8.36443 5.4237V3.06557H10.3064V4.86885C10.5284 4.8411 10.7642 4.82723 11 4.82723C11.2358 4.82723 11.4716 4.8411 11.6936 4.86885V3.06557H13.6355V5.4237C15.1614 6.14501 16.3405 7.47666 16.8676 9.08574H14.6204C13.9268 7.7957 12.5674 6.90793 11 6.90793C8.73895 6.90793 6.90793 8.73895 6.90793 11C6.90793 13.261 8.75283 15.092 11 15.092Z" fill="#648280"/>
    <path d="M30 11.5L23.7442 6V9.32735H19V13.6575H23.7442V17L30 11.5Z" fill="#E85E59"/>
</svg>
