<svg width="30" height="22" viewBox="0 0 30 22" fill="none" xmlns="http://www.w3.org/2000/svg">
    <path d="M19 0C12.9243 0 8 4.92433 8 11C8 17.0756 12.9243 22 19 22C25.0756 22 30 17.0756 30 11C30.0138 4.92433 25.0756 0 19 0ZM19 15.092C20.5674 15.092 21.9268 14.2043 22.6204 12.9142H24.8676C24.3405 14.5233 23.1614 15.855 21.6355 16.5763V18.9344H19.6936V17.1311C19.4716 17.1589 19.2358 17.1727 19 17.1727C18.7642 17.1727 18.5284 17.1589 18.3064 17.1311V18.9344H16.3644V16.5763C14.2699 15.5914 12.8272 13.4552 12.8272 11C12.8272 8.54475 14.2699 6.40857 16.3644 5.4237V3.06557H18.3064V4.86885C18.5284 4.8411 18.7642 4.82723 19 4.82723C19.2358 4.82723 19.4716 4.8411 19.6936 4.86885V3.06557H21.6355V5.4237C23.1614 6.14501 24.3405 7.47666 24.8676 9.08574H22.6204C21.9268 7.7957 20.5674 6.90793 19 6.90793C16.739 6.90793 14.9079 8.73895 14.9079 11C14.9079 13.261 16.7528 15.092 19 15.092Z" fill="#648280"/>
    <path d="M11 11.5L4.74422 6V9.32735H0V13.6575H4.74422V17L11 11.5Z" fill="#54B489"/>
</svg>
