<svg width="30" height="22" viewBox="0 0 30 22" fill="none" xmlns="http://www.w3.org/2000/svg">
    <path d="M10.9891 0C4.92765 0 0 4.92765 0 10.9891C0 17.0723 4.92765 22 10.9891 22C17.0723 22 22 17.0723 22 10.9891C22 4.92765 17.0723 0 10.9891 0ZM11.9921 16.3746V17.7919H10.2478V16.3746C8.59068 16.222 7.36967 15.6115 6.47572 14.7611L7.91477 12.7334C8.6779 13.4965 9.8553 14.107 11.2725 14.107C12.1883 14.107 12.7552 13.7146 12.7552 13.2131C12.7552 12.6244 12.0575 12.3845 10.9455 12.1447C9.22299 11.7958 6.82458 11.3598 6.82458 8.87413C6.82458 7.28246 8.04559 5.88702 10.2478 5.64718V4.16452H11.9921V5.66898C13.2567 5.82161 14.3687 6.32309 15.2408 7.06442L13.7582 9.00496C12.886 8.28543 11.7304 7.91477 10.8147 7.91477C9.92071 7.91477 9.57185 8.28543 9.57185 8.72151C9.57185 9.2666 10.226 9.46284 11.3816 9.68087C13.1041 10.0515 15.5025 10.553 15.5025 12.9078C15.5025 14.8048 14.2815 16.113 11.9921 16.3746Z" fill="#648280"/>
    <path d="M30 11.5L23.7442 6V9.32735H19V13.6575H23.7442V17L30 11.5Z" fill="#E85E59"/>
</svg>
