<svg width="30" height="22" viewBox="0 0 30 22" fill="none" xmlns="http://www.w3.org/2000/svg">
    <path d="M18.9891 0C12.9277 0 8 4.92765 8 10.9891C8 17.0723 12.9277 22 18.9891 22C25.0723 22 30 17.0723 30 10.9891C30 4.92765 25.0723 0 18.9891 0ZM19.9921 16.3746V17.7919H18.2478V16.3746C16.5907 16.222 15.3697 15.6115 14.4757 14.7611L15.9148 12.7334C16.6779 13.4965 17.8553 14.107 19.2725 14.107C20.1883 14.107 20.7552 13.7146 20.7552 13.2131C20.7552 12.6244 20.0575 12.3845 18.9455 12.1447C17.223 11.7958 14.8246 11.3598 14.8246 8.87413C14.8246 7.28246 16.0456 5.88702 18.2478 5.64718V4.16452H19.9921V5.66898C21.2567 5.82161 22.3687 6.32309 23.2408 7.06442L21.7582 9.00496C20.886 8.28543 19.7304 7.91477 18.8147 7.91477C17.9207 7.91477 17.5719 8.28543 17.5719 8.72151C17.5719 9.2666 18.226 9.46284 19.3816 9.68087C21.1041 10.0515 23.5025 10.553 23.5025 12.9078C23.5025 14.8048 22.2815 16.113 19.9921 16.3746Z" fill="#648280"/>
    <path d="M11 11.5L4.74422 6V9.32735H0V13.6575H4.74422V17L11 11.5Z" fill="#54B489"/>
</svg>
