<svg width="22" height="22" viewBox="0 0 22 22" fill="none" xmlns="http://www.w3.org/2000/svg">
    <path d="M0.916015 11.0002C0.916015 12.9945 1.50739 14.944 2.61536 16.6022C3.72333 18.2604 5.29814 19.5528 7.14063 20.3159C8.98311 21.0791 11.0105 21.2788 12.9665 20.8897C14.9225 20.5007 16.7192 19.5403 18.1293 18.1302C19.5395 16.72 20.4999 14.9233 20.8889 12.9673C21.278 11.0113 21.0783 8.98393 20.3151 7.14144C19.552 5.29895 18.2595 3.72415 16.6014 2.61618C14.9432 1.50821 12.9936 0.916831 10.9993 0.916832L10.9994 11.0002L0.916015 11.0002Z" fill="#11B382"/>
    <ellipse cx="11" cy="11" rx="6" ry="6" transform="rotate(-90 11 11)" fill="#141717"/>
</svg>
