<svg width="17" height="18" viewBox="0 0 17 18" fill="none" xmlns="http://www.w3.org/2000/svg">
<path d="M8.31445 17.0549C12.8584 17.0549 16.6201 13.341 16.6201 8.86538C16.6201 4.38972 12.8584 0.68454 8.30566 0.68454C3.76172 0.68454 0 4.38972 0 8.86538C0 13.341 3.77051 17.0549 8.31445 17.0549ZM8.79785 2.29474C9.53613 2.57176 10.2129 3.45477 10.6963 4.6754C10.1162 4.77929 9.4834 4.84854 8.79785 4.86586V2.29474ZM5.92383 4.6754C6.40723 3.45477 7.08398 2.57176 7.82227 2.29474V4.86586C7.13672 4.84854 6.50391 4.77929 5.92383 4.6754ZM10.5908 2.55445C11.4609 2.85744 12.252 3.33357 12.9111 3.9309C12.5508 4.13001 12.1377 4.30315 11.6719 4.44167C11.3818 3.69717 11.0127 3.05655 10.5908 2.55445ZM3.70898 3.9309C4.36816 3.33357 5.15918 2.85744 6.0293 2.55445C5.60742 3.05655 5.23828 3.69717 4.94824 4.44167C4.48242 4.30315 4.06934 4.13001 3.70898 3.9309ZM12.4453 8.38059C12.4102 7.27249 12.2432 6.24232 11.9795 5.33333C12.5859 5.14288 13.1309 4.90914 13.5879 4.64078C14.4404 5.67096 14.9854 6.9695 15.0908 8.38059H12.4453ZM1.53809 8.38059C1.63477 6.9695 2.17969 5.67096 3.03223 4.64078C3.48926 4.90914 4.03418 5.14288 4.64062 5.33333C4.37695 6.24232 4.20996 7.27249 4.1748 8.38059H1.53809ZM5.16797 8.38059C5.21191 7.38504 5.37012 6.42411 5.61621 5.57573C6.30176 5.71424 7.04883 5.80081 7.82227 5.82678V8.38059H5.16797ZM8.79785 8.38059V5.82678C9.57129 5.80081 10.3184 5.71424 11.0039 5.57573C11.25 6.42411 11.4082 7.38504 11.4521 8.38059H8.79785ZM1.53809 9.34151H4.1748C4.20996 10.4669 4.37695 11.5144 4.64062 12.4407C4.04297 12.6225 3.50684 12.8562 3.0498 13.116C2.18848 12.0771 1.63477 10.7786 1.53809 9.34151ZM5.16797 9.34151H7.82227V11.9473C7.04004 11.9732 6.30176 12.0598 5.61621 12.1983C5.37012 11.3326 5.20312 10.363 5.16797 9.34151ZM8.79785 11.9473V9.34151H11.4521C11.4082 10.363 11.25 11.3326 11.0039 12.1983C10.3184 12.0598 9.57129 11.9732 8.79785 11.9473ZM11.9795 12.4407C12.2432 11.5144 12.4102 10.4669 12.4453 9.34151H15.0908C14.9941 10.7786 14.4404 12.0858 13.5791 13.1246C13.1221 12.8562 12.5859 12.6225 11.9795 12.4407ZM5.92383 13.0986C6.50391 12.9948 7.13672 12.9255 7.82227 12.9082V15.4706C7.08398 15.1936 6.40723 14.3106 5.92383 13.0986ZM8.79785 12.9082C9.4834 12.9255 10.1162 12.9948 10.6963 13.0986C10.2129 14.3106 9.53613 15.1936 8.79785 15.4706V12.9082ZM3.73535 13.8258C4.0957 13.6267 4.5 13.4622 4.94824 13.3324C5.22949 14.0509 5.58105 14.6742 5.98535 15.1677C5.1416 14.8647 4.38574 14.4058 3.73535 13.8258ZM11.6719 13.3324C12.1289 13.4709 12.5332 13.6354 12.8936 13.8258C12.2432 14.4145 11.4697 14.8733 10.626 15.1763C11.0303 14.6742 11.3906 14.0509 11.6719 13.3324Z" fill="black"/>
</svg>
