<?xml version="1.0" encoding="UTF-8" standalone="no"?>
<!DOCTYPE svg PUBLIC "-//W3C//DTD SVG 1.1//EN" "http://www.w3.org/Graphics/SVG/1.1/DTD/svg11.dtd">
<svg width="100%" height="100%" viewBox="0 0 128 35" version="1.1" xmlns="http://www.w3.org/2000/svg" xmlns:xlink="http://www.w3.org/1999/xlink" xml:space="preserve" xmlns:serif="http://www.serif.com/" style="fill-rule:evenodd;clip-rule:evenodd;stroke-linejoin:round;stroke-miterlimit:2;">
    <g>
        <path d="M8,4.817C7.797,4.817 7.696,4.719 7.595,4.621C7.494,4.326 7.595,4.129 7.797,3.933L9.519,2.949C9.721,2.851 10.025,2.949 10.127,3.146C10.228,3.343 10.228,3.638 9.924,3.736L8.203,4.719C8.203,4.817 8.101,4.817 8,4.817Z" style="fill:white;fill-rule:nonzero;"/>
        <path d="M0.506,17.008C0.304,17.008 0.101,16.812 0.101,16.615L0.101,11.503C0,9.537 1.013,7.767 2.734,6.882L4.354,5.899C4.557,5.801 4.861,5.899 4.962,6.096C5.063,6.292 5.063,6.587 4.759,6.685L3.139,7.57C1.721,8.357 0.911,9.831 0.911,11.405L0.911,16.517C0.911,16.812 0.709,17.008 0.506,17.008Z" style="fill:white;fill-rule:nonzero;"/>
        <path d="M16.405,35C15.392,35 14.481,34.803 13.671,34.312L2.734,28.216C1.114,27.233 0.101,25.562 0,23.596L0,20.646C0,20.449 0.203,20.253 0.405,20.253C0.608,20.253 0.81,20.449 0.81,20.646L0.81,23.596C0.81,25.169 1.722,26.643 3.139,27.43L14.177,33.525C14.886,33.919 15.595,34.115 16.405,34.115C17.215,34.115 18.025,33.919 18.734,33.525L23.089,31.067C23.291,30.969 23.595,30.969 23.696,31.264C23.798,31.461 23.798,31.756 23.494,31.854L19.139,34.312C18.329,34.705 17.418,35 16.405,35Z" style="fill:white;fill-rule:nonzero;"/>
        <path d="M30.38,17.893C30.177,17.893 29.975,17.697 29.975,17.5L29.975,11.405C29.975,10.52 29.468,9.635 28.658,9.143L26.329,7.865C26.127,7.767 26.025,7.472 26.127,7.275C26.228,7.079 26.532,6.98 26.734,7.079L29.063,8.357C30.177,8.947 30.886,10.126 30.886,11.306L30.886,17.402C30.785,17.697 30.582,17.893 30.38,17.893Z" style="fill:white;fill-rule:nonzero;"/>
        <path d="M26.532,29.986C26.431,29.986 26.228,29.888 26.127,29.789L25.013,28.315C24.912,28.216 24.912,28.118 24.912,27.921C24.912,27.823 25.013,27.725 25.114,27.626L28.456,25.758C29.266,25.267 29.772,24.48 29.772,23.497L29.772,22.121C29.772,21.924 29.975,21.728 30.177,21.728C30.38,21.728 30.583,21.924 30.583,22.121L30.583,23.497C30.583,24.677 29.874,25.857 28.861,26.447L25.924,28.118L26.532,28.904L29.367,27.331C30.785,26.545 31.595,25.07 31.595,23.497L31.595,11.306C31.595,9.733 30.684,8.258 29.266,7.472C29.064,7.374 28.962,7.079 29.064,6.882C29.165,6.685 29.469,6.587 29.671,6.685C31.393,7.669 32.405,9.34 32.405,11.208L32.405,23.399C32.405,25.267 31.393,27.037 29.671,28.02L26.431,29.789C26.734,29.986 26.633,29.986 26.532,29.986Z" style="fill:white;fill-rule:nonzero;"/>
        <path d="M16.405,33.132C15.797,33.132 15.19,32.935 14.683,32.64L11.747,31.067C11.544,30.969 11.443,30.674 11.544,30.478C11.645,30.281 11.949,30.183 12.152,30.281L15.088,31.854C15.493,32.051 15.899,32.149 16.405,32.149C16.911,32.149 17.316,32.051 17.721,31.756L23.797,28.315C24,28.216 24.304,28.216 24.405,28.511C24.506,28.708 24.506,29.003 24.202,29.101L18.126,32.542C17.62,32.935 17.013,33.132 16.405,33.132Z" style="fill:white;fill-rule:nonzero;"/>
        <path d="M7.899,28.806C7.797,28.806 7.696,28.806 7.696,28.708L3.747,26.545C2.633,25.955 1.924,24.775 1.924,23.596L1.924,15.042C1.924,14.846 2.126,14.649 2.329,14.649C2.531,14.649 2.734,14.846 2.734,15.042L2.734,23.596C2.734,24.48 3.24,25.365 4.05,25.857L8.101,28.02C8.304,28.118 8.405,28.413 8.304,28.61C8.202,28.708 8,28.806 7.899,28.806Z" style="fill:white;fill-rule:nonzero;"/>
        <path d="M2.329,11.896C2.126,11.896 1.924,11.699 1.924,11.503C1.924,10.323 2.633,9.143 3.645,8.553L8.607,5.702C8.911,5.506 9.114,5.506 9.316,5.801C9.418,5.997 9.316,6.194 9.114,6.39L4.152,9.143C3.342,9.635 2.835,10.421 2.835,11.405C2.835,11.699 2.633,11.896 2.329,11.896Z" style="fill:white;fill-rule:nonzero;"/>
        <path d="M23.291,6.193C23.19,6.193 23.089,6.193 23.089,6.095L17.62,3.047C16.81,2.555 15.798,2.654 14.988,3.047L11.646,4.915C11.443,5.013 11.139,5.013 11.038,4.718C10.937,4.522 10.937,4.227 11.241,4.128L14.582,2.26C15.696,1.671 17.013,1.671 18.127,2.26L23.291,5.112L23.899,4.325L18.633,1.376C17.317,0.589 15.494,0.589 14.076,1.376L11.95,2.555C11.747,2.654 11.443,2.654 11.342,2.359C11.241,2.162 11.241,1.867 11.544,1.769L13.671,0.589C15.291,-0.296 17.519,-0.296 19.139,0.589L24.81,3.735C24.912,3.833 25.013,3.932 25.013,4.03C25.013,4.128 25.013,4.325 24.912,4.423L23.798,5.898C23.595,6.095 23.494,6.193 23.291,6.193Z" style="fill:white;fill-rule:nonzero;"/>
        <path d="M68.456,8.062C68.152,8.062 67.95,8.062 67.848,8.16C67.747,8.258 67.545,8.357 67.443,8.553L61.469,16.222L55.494,8.553C55.393,8.357 55.19,8.258 55.089,8.16C54.886,8.062 54.684,8.062 54.38,8.062C53.975,8.062 53.671,8.16 53.469,8.258C53.266,8.455 53.064,8.652 53.064,8.947L53.064,18.483L55.19,18.483L55.19,11.798L60.355,18.287C60.557,18.581 60.962,18.68 61.367,18.68C61.772,18.68 62.177,18.581 62.38,18.287L67.545,11.798L67.545,18.483L69.671,18.483L69.671,9.045C69.671,8.75 69.57,8.455 69.266,8.357C69.165,8.16 68.861,8.062 68.456,8.062Z" style="fill:white;fill-rule:nonzero;"/>
        <rect x="74.329" y="8.357" width="2.329" height="10.225" style="fill:white;fill-rule:nonzero;"/>
        <path d="M89.519,15.042C90.228,15.042 90.836,15.042 91.342,14.944C91.849,14.846 92.254,14.649 92.659,14.452C93.064,14.256 93.266,13.961 93.469,13.567C93.671,13.174 93.671,12.683 93.671,12.093L93.671,11.405C93.671,10.815 93.57,10.323 93.469,9.93C93.266,9.537 93.064,9.242 92.76,8.947C92.456,8.75 91.95,8.553 91.444,8.455C90.937,8.357 90.33,8.357 89.519,8.357L81.317,8.357L81.317,10.225L90.33,10.225C90.633,10.225 90.836,10.323 90.937,10.421C91.038,10.52 91.14,10.618 91.241,10.815C91.342,11.011 91.342,11.208 91.342,11.503L91.342,12.093C91.342,12.388 91.342,12.584 91.241,12.781C91.14,12.977 91.038,13.076 90.937,13.174C90.836,13.273 90.633,13.371 90.33,13.371L89.418,13.371L81.317,13.371L81.317,18.581L83.646,18.581L83.646,14.846L89.823,18.581L93.874,18.581L87.697,15.14L89.519,15.14L89.519,15.042Z" style="fill:white;fill-rule:nonzero;"/>
        <path d="M100.962,16.517C100.759,16.517 100.557,16.419 100.456,16.222C100.354,16.124 100.253,15.927 100.152,15.73C100.152,15.534 100.051,15.239 100.051,14.944L100.051,14.256L108.962,14.256L108.962,12.486L97.823,12.486L97.823,15.042C97.823,15.73 97.924,16.222 98.025,16.714C98.127,17.205 98.329,17.5 98.633,17.795C98.937,18.09 99.342,18.287 99.848,18.385C100.354,18.483 100.962,18.581 101.772,18.581L109.063,18.581L109.063,16.615L101.772,16.615C101.468,16.615 101.165,16.615 100.962,16.517Z" style="fill:white;fill-rule:nonzero;"/>
        <path d="M109.165,8.357L101.874,8.357C101.064,8.357 100.456,8.455 99.95,8.553C99.443,8.652 99.038,8.848 98.735,9.143C98.431,9.438 98.228,9.733 98.127,10.225L109.266,10.225L109.266,8.357L109.165,8.357Z" style="fill:white;fill-rule:nonzero;"/>
        <path d="M40.709,16.517C40.507,16.517 40.304,16.419 40.203,16.222C40.102,16.124 40,15.927 39.899,15.73C39.899,15.534 39.798,15.239 39.798,14.944L39.798,14.256L48.709,14.256L48.709,12.486L37.57,12.486L37.57,15.042C37.57,15.73 37.671,16.222 37.772,16.714C37.874,17.205 38.076,17.5 38.38,17.795C38.684,18.09 39.089,18.287 39.595,18.385C40.102,18.483 40.709,18.581 41.519,18.581L48.81,18.581L48.81,16.615L41.519,16.615C41.215,16.615 40.912,16.615 40.709,16.517Z" style="fill:white;fill-rule:nonzero;"/>
        <path d="M48.912,8.357L41.519,8.357C40.709,8.357 40.102,8.455 39.595,8.553C39.089,8.652 38.684,8.848 38.38,9.143C38.076,9.438 37.874,9.733 37.773,10.225L48.912,10.225L48.912,8.357Z" style="fill:white;fill-rule:nonzero;"/>
        <path d="M128,18.581L122.127,13.273L127.798,8.357L124.658,8.357L120.506,11.896L116.355,8.357L113.013,8.357L118.684,13.273L112.709,18.581L115.949,18.581L120.405,14.747L124.557,18.581L128,18.581Z" style="fill:white;fill-rule:nonzero;"/>
        <path d="M7.392,11.994L7.899,11.798C8.202,11.601 8.101,11.601 8.101,11.306L8.101,10.815C8.101,10.618 8,10.52 7.696,10.618L7.291,10.815C6.987,11.011 7.088,11.011 7.088,11.306L7.088,11.798C6.987,12.093 7.19,12.191 7.392,11.994Z" style="fill:white;fill-rule:nonzero;"/>
        <path d="M6.481,12.191L6.481,11.699C6.481,11.503 6.38,11.405 6.076,11.503L4.658,12.289C4.354,12.486 4.253,12.683 4.253,13.076L4.253,15.337C4.253,15.534 4.455,15.632 4.658,15.534C4.759,15.534 5.063,15.337 5.063,15.337C5.266,15.239 5.266,15.042 5.266,14.649L5.266,13.764C5.266,13.469 5.468,13.174 5.671,13.076L6.278,12.781C6.481,12.486 6.481,12.486 6.481,12.191Z" style="fill:white;fill-rule:nonzero;"/>
        <path d="M6.278,14.649L6.278,17.697C6.278,17.795 6.38,17.893 6.481,17.893L6.683,17.893C6.886,17.795 7.19,17.598 7.19,17.598C7.392,17.5 7.392,17.402 7.392,16.91L7.392,15.14C7.392,14.846 7.494,14.649 7.797,14.551L10.329,13.174C10.43,13.076 10.532,13.076 10.734,13.076C10.835,13.076 11.038,13.076 11.139,13.174L14.38,15.042C14.481,15.14 14.582,15.042 14.582,14.944L14.582,14.747L14.582,14.256C14.582,14.059 14.481,13.961 14.177,13.862L10.937,11.994C10.835,11.896 10.633,11.896 10.532,11.896C10.43,11.896 10.329,11.896 10.126,11.994L6.582,13.961C6.38,14.059 6.278,14.256 6.278,14.649Z" style="fill:white;fill-rule:nonzero;"/>
        <path d="M14.38,19.466C14.38,19.368 14.278,19.27 14.177,19.171C14.177,19.171 13.772,18.876 13.569,18.876L13.266,18.876C13.164,18.876 13.063,18.876 12.861,18.975L8.202,21.629C8.101,21.629 8.101,21.728 8.101,21.728C8.101,21.826 8.101,21.826 8.202,21.924C8.405,22.121 8.911,22.317 8.911,22.317C9.012,22.317 9.114,22.416 9.114,22.416C9.215,22.416 9.418,22.317 9.62,22.219L14.076,19.663C14.278,19.663 14.38,19.565 14.38,19.466Z" style="fill:white;fill-rule:nonzero;"/>
        <path d="M11.848,17.992C11.848,17.893 11.746,17.795 11.645,17.697C11.645,17.697 11.24,17.402 11.038,17.402L10.734,17.402C10.633,17.402 10.531,17.402 10.43,17.5L6.278,19.86C6.177,19.86 6.177,19.958 6.177,19.958C6.177,20.056 6.177,20.056 6.278,20.155C6.481,20.351 6.987,20.548 6.987,20.548C7.088,20.548 7.189,20.646 7.189,20.646C7.291,20.646 7.493,20.548 7.696,20.449L11.645,18.188C11.746,18.09 11.848,18.09 11.848,17.992Z" style="fill:white;fill-rule:nonzero;"/>
        <path d="M24.708,11.699L25.215,11.994C25.519,12.093 25.62,11.994 25.62,11.798L25.62,11.306C25.62,11.011 25.62,10.913 25.417,10.815L24.911,10.52C24.607,10.421 24.506,10.52 24.506,10.716L24.506,11.208C24.506,11.503 24.506,11.601 24.708,11.699Z" style="fill:white;fill-rule:nonzero;"/>
        <path d="M28.05,12.289L26.633,11.503C26.329,11.405 26.228,11.503 26.228,11.699L26.228,12.191C26.228,12.486 26.228,12.486 26.43,12.683L27.038,12.977C27.342,13.174 27.443,13.371 27.443,13.666L27.443,14.551C27.443,14.944 27.443,15.14 27.645,15.239C27.645,15.239 27.949,15.435 28.05,15.435C28.253,15.534 28.455,15.435 28.455,15.239L28.455,12.977C28.557,12.683 28.455,12.486 28.05,12.289Z" style="fill:white;fill-rule:nonzero;"/>
        <path d="M22.177,11.798C22.076,11.798 21.873,11.798 21.772,11.896L18.532,13.764C18.228,13.961 18.127,13.961 18.127,14.157L18.127,14.846C18.228,14.944 18.329,14.944 18.329,14.944L21.57,13.076C21.671,12.977 21.772,12.977 21.975,12.977C22.076,12.977 22.278,12.977 22.38,13.076L24.911,14.452C25.114,14.551 25.316,14.846 25.316,15.042L25.316,16.812C25.316,17.205 25.316,17.303 25.519,17.5C25.519,17.5 25.823,17.697 26.025,17.795L26.228,17.795C26.329,17.795 26.43,17.697 26.43,17.598L26.43,14.452C26.43,14.059 26.329,13.961 26.025,13.764L22.481,11.798C22.38,11.896 22.278,11.798 22.177,11.798Z" style="fill:white;fill-rule:nonzero;"/>
        <path d="M24.506,21.629L19.848,18.975C19.747,18.876 19.646,18.876 19.443,18.876L19.139,18.876C18.937,18.975 18.532,19.171 18.532,19.171C18.43,19.27 18.329,19.368 18.329,19.466C18.329,19.565 18.329,19.565 18.43,19.663L22.886,22.219C23.089,22.317 23.291,22.416 23.392,22.416C23.494,22.416 23.595,22.416 23.595,22.317C23.595,22.317 24.101,22.121 24.304,21.924C24.405,21.826 24.405,21.826 24.405,21.728C24.608,21.728 24.506,21.728 24.506,21.629Z" style="fill:white;fill-rule:nonzero;"/>
        <path d="M22.379,23.202L17.012,20.155L17.012,18.385L21.772,15.73C21.974,15.632 22.177,15.632 22.379,15.73L23.493,16.32C23.797,16.419 23.898,16.32 23.898,16.124L23.898,15.73C23.898,15.435 23.898,15.337 23.696,15.239C23.696,15.239 22.582,14.649 22.582,14.551C22.379,14.452 22.076,14.354 21.772,14.551L17.114,17.205L17.114,13.174L21.873,10.52C22.076,10.421 22.278,10.421 22.481,10.52L23.595,11.11C23.898,11.208 24,11.11 24,10.913L24,10.421C24,10.126 24,10.028 23.797,9.93C23.797,9.93 22.683,9.34 22.683,9.242C22.481,9.143 22.177,9.045 21.873,9.242L17.012,11.798L17.012,8.652C17.012,8.357 16.709,8.062 16.405,8.062C16.101,8.062 15.797,8.357 15.797,8.652L15.797,11.798L11.139,9.143C10.835,8.947 10.531,9.045 10.329,9.143L9.215,9.831C8.911,10.028 9.012,10.028 9.012,10.323L9.012,10.815C9.012,11.011 9.114,11.11 9.417,11.011L10.531,10.421C10.734,10.323 10.936,10.323 11.139,10.421L15.898,13.076L15.898,17.107L11.24,14.452C10.936,14.256 10.633,14.354 10.43,14.452L9.316,15.14C9.012,15.337 9.114,15.337 9.114,15.632L9.114,16.124C9.114,16.32 9.215,16.419 9.519,16.32L10.633,15.73C10.835,15.632 11.038,15.632 11.24,15.73L16,18.385L16,20.155L10.633,23.202C10.531,23.202 10.531,23.301 10.531,23.301C10.531,23.399 10.531,23.399 10.633,23.497C10.835,23.694 11.341,23.891 11.341,23.891C11.443,23.891 11.544,23.989 11.544,23.989C11.645,23.989 11.848,23.891 12.05,23.792L16,21.629L16,28.708C16,29.003 16.303,29.298 16.607,29.298C16.911,29.298 17.215,29.003 17.215,28.708L17.215,21.629L21.164,23.792C21.367,23.891 21.569,23.989 21.671,23.989C21.772,23.989 21.873,23.989 21.873,23.891C21.873,23.891 22.379,23.694 22.582,23.497C22.683,23.399 22.683,23.399 22.683,23.301C22.481,23.301 22.481,23.301 22.379,23.202Z" style="fill:white;fill-rule:nonzero;"/>
        <path d="M26.43,19.761L22.278,17.402C22.177,17.303 22.076,17.303 21.974,17.303L21.671,17.303C21.468,17.402 21.063,17.598 21.063,17.598C20.962,17.697 20.86,17.795 20.86,17.893C20.86,17.992 20.86,17.992 20.962,18.09L24.911,20.351C25.113,20.449 25.316,20.548 25.417,20.548C25.519,20.548 25.62,20.548 25.62,20.449C25.62,20.449 26.126,20.253 26.329,20.056C26.43,19.958 26.43,19.958 26.43,19.86C26.531,19.86 26.531,19.86 26.43,19.761Z" style="fill:white;fill-rule:nonzero;"/>
        <rect x="37.772" y="26.348" width="30.278" height="0.492" style="fill:white;fill-rule:nonzero;"/>
        <rect x="99.139" y="26.348" width="28.658" height="0.492" style="fill:white;fill-rule:nonzero;"/>
        <path d="M95.19,30.084C95.291,29.888 95.392,29.789 95.392,29.593C95.392,29.396 95.19,29.199 94.886,29.199C94.582,29.199 94.278,29.298 94.076,29.494C93.772,29.789 93.671,29.986 93.671,30.183C93.671,30.478 93.772,30.576 94.076,30.674C93.975,30.871 93.873,30.969 93.772,31.166L93.873,31.264C94.278,31.067 94.785,30.871 95.494,30.773C95.595,30.576 95.696,30.379 95.797,30.281L95.797,30.183L95.088,30.183C94.481,30.183 94.177,29.986 94.177,29.888C94.177,29.789 94.38,29.691 94.582,29.691C94.683,29.691 94.785,29.691 94.785,29.789L95.19,30.084ZM94.481,29.003C94.683,28.708 94.886,28.511 94.987,28.216C95.088,28.02 95.19,27.331 95.19,26.348C95.19,25.07 95.19,23.792 94.987,22.416L94.886,22.317C94.582,22.514 94.38,22.809 94.076,23.104C94.278,24.48 94.278,25.955 94.278,27.331C94.278,27.921 94.278,28.413 94.177,28.904L94.481,29.003ZM90.43,26.84C90.633,26.447 90.835,26.25 91.24,26.25C91.645,26.25 92.051,26.742 92.253,27.43C92.253,27.43 92.152,27.528 92.051,27.528C91.443,27.528 90.937,27.233 90.43,26.84ZM90.025,28.02C90.633,28.511 91.24,28.708 91.747,28.708C92.658,28.708 92.861,27.528 92.861,27.43C92.861,26.742 92.456,25.07 91.342,25.07C91.038,25.07 90.734,25.169 90.43,25.464C89.823,26.053 89.924,26.938 89.418,27.233C89.316,27.43 89.114,27.528 88.911,27.528L88.81,27.528C88.506,27.528 88.304,27.823 88.304,28.216C88.304,28.511 88.506,28.904 88.81,28.904L88.911,28.904C89.418,28.806 89.823,28.511 90.025,28.02ZM92.456,30.969C91.645,31.264 90.835,31.461 90.025,31.756L89.823,32.346C90.633,32.051 91.342,31.854 92.152,31.559L92.456,30.969ZM88.81,27.528C88,27.528 87.595,27.037 87.291,26.25L87.19,26.25C86.987,26.545 86.886,26.84 86.683,27.233C86.886,27.725 87.19,28.118 87.392,28.413C87.291,28.806 87.088,29.298 86.582,29.691C86.177,30.084 85.671,30.281 85.164,30.281C85.063,30.281 84.861,30.281 84.557,30.183L84.456,30.478C85.164,30.969 85.772,31.166 86.278,31.166C86.785,31.166 87.291,30.773 87.595,30.183C87.797,29.789 88,29.396 88,28.708C88.202,28.806 88.405,28.806 88.709,28.806L88.81,28.806L88.81,27.528ZM83.949,24.185C83.544,24.087 83.038,24.087 82.633,23.989C83.443,23.596 84.456,23.301 85.569,22.907C85.772,22.514 85.975,22.219 86.177,21.826C84.658,22.317 83.443,22.711 82.734,23.104C82.228,23.301 82.025,23.596 82.025,24.087C82.025,24.382 82.025,24.579 82.126,24.874C83.443,25.758 84.354,26.545 84.354,27.037C84.354,27.331 83.443,27.528 82.126,27.528L82.025,27.528C81.721,27.528 81.519,27.823 81.519,28.216C81.519,28.511 81.62,28.904 82.025,28.904L82.126,28.904C83.544,28.904 84.456,28.61 84.759,28.02C84.962,27.626 85.063,27.233 85.063,26.84C85.063,26.053 84.759,25.66 83.747,24.775L83.949,24.185ZM77.266,28.806C77.772,28.806 78.177,28.61 78.481,28.216C78.683,28.61 78.987,28.708 79.291,28.708C79.696,28.708 80.101,28.511 80.405,28.118C80.607,28.511 81.215,28.708 81.924,28.708L82.025,28.708L82.025,27.528L81.924,27.528C81.62,27.528 81.316,27.43 81.114,27.331C80.911,27.233 80.911,27.037 80.911,26.742C80.911,26.545 81.013,26.25 81.114,25.955L81.013,25.955L80.506,26.25C80.405,26.643 80.304,26.938 80.101,27.233C79.899,27.43 79.696,27.528 79.392,27.528C79.291,27.528 79.19,27.528 79.088,27.43C79.088,27.331 78.987,27.233 78.987,27.135C78.987,27.037 79.088,26.643 79.291,26.152C79.088,26.25 78.886,26.348 78.683,26.447C78.582,26.84 78.481,27.135 78.278,27.233C78.076,27.43 77.975,27.43 77.772,27.43C77.468,27.43 77.367,27.233 77.266,27.037C77.063,26.643 76.962,26.348 76.759,25.955L76.658,25.955C76.456,26.348 76.253,26.643 76.051,27.037C76.557,27.725 76.759,28.216 76.759,28.708C76.759,28.904 76.456,29.101 76.152,29.298C75.747,29.593 75.342,29.691 74.835,29.691C74.43,29.691 74.025,29.593 73.721,29.298C73.316,29.003 73.215,28.61 73.215,28.118C73.215,27.921 73.316,27.528 73.519,27.037L73.114,26.84C72.709,27.43 72.607,28.118 72.607,28.708C72.607,29.888 73.316,30.871 74.633,30.871C75.443,30.871 76.152,30.478 76.658,29.986C77.063,29.789 77.164,29.396 77.266,28.806Z" style="fill:white;fill-rule:nonzero;"/>
    </g>
</svg>
