<svg width="128" height="35" viewBox="0 0 128 35" fill="none" xmlns="http://www.w3.org/2000/svg">
<g clip-path="url(#clip0)">
<path d="M7.99997 4.81744C7.79743 4.81744 7.69617 4.71912 7.5949 4.62081C7.49364 4.32586 7.5949 4.12923 7.79743 3.9326L9.51895 2.94946C9.72148 2.85114 10.0253 2.94946 10.1265 3.14609C10.2278 3.34272 10.2278 3.63766 9.92402 3.73597L8.2025 4.71912C8.2025 4.81744 8.10123 4.81744 7.99997 4.81744Z" fill="black"/>
<path d="M0.506245 17.0084C0.303713 17.0084 0.101181 16.8118 0.101181 16.6152V11.5028C-8.45343e-05 9.53653 1.01257 7.76687 2.73409 6.88204L4.35435 5.89889C4.55688 5.80058 4.86067 5.89889 4.96194 6.09552C5.06321 6.29215 5.06321 6.58709 4.75941 6.68541L3.13916 7.57024C1.72143 8.35676 0.911308 9.83147 0.911308 11.4045V16.5169C0.911308 16.8118 0.708776 17.0084 0.506245 17.0084Z" fill="black"/>
<path d="M16.4051 35C15.3924 35 14.481 34.8034 13.6709 34.3118L2.73418 28.2163C1.11392 27.2331 0.101266 25.5618 0 23.5955V20.6461C0 20.4494 0.202532 20.2528 0.405063 20.2528C0.607595 20.2528 0.810127 20.4494 0.810127 20.6461V23.5955C0.810127 25.1685 1.72152 26.6433 3.13924 27.4298L14.1772 33.5253C14.8861 33.9185 15.5949 34.1152 16.4051 34.1152C17.2152 34.1152 18.0253 33.9185 18.7342 33.5253L23.0886 31.0674C23.2911 30.9691 23.5949 30.9691 23.6962 31.264C23.7975 31.4607 23.7975 31.7556 23.4937 31.8539L19.1392 34.3118C18.3291 34.7051 17.4177 35 16.4051 35Z" fill="black"/>
<path d="M30.3798 17.8933C30.1773 17.8933 29.9747 17.6966 29.9747 17.5V11.4045C29.9747 10.5197 29.4684 9.63485 28.6583 9.14328L26.3292 7.86519C26.1266 7.76687 26.0254 7.47193 26.1266 7.2753C26.2279 7.07867 26.5317 6.98035 26.7342 7.07867L29.0634 8.35676C30.1773 8.94665 30.8861 10.1264 30.8861 11.3062V17.4017C30.7849 17.6966 30.5823 17.8933 30.3798 17.8933Z" fill="black"/>
<path d="M26.5319 29.986C26.4306 29.986 26.2281 29.8876 26.1268 29.7893L25.0129 28.3146C24.9116 28.2163 24.9116 28.118 24.9116 27.9213C24.9116 27.823 25.0129 27.7247 25.1142 27.6264L28.4559 25.7584C29.266 25.2668 29.7724 24.4803 29.7724 23.4972V22.1208C29.7724 21.9242 29.9749 21.7275 30.1774 21.7275C30.38 21.7275 30.5825 21.9242 30.5825 22.1208V23.4972C30.5825 24.677 29.8736 25.8567 28.861 26.4466L25.9243 28.118L26.5319 28.9045L29.3673 27.3315C30.785 26.5449 31.5952 25.0702 31.5952 23.4972V11.3062C31.5952 9.73314 30.6838 8.25842 29.266 7.47191C29.0635 7.37359 28.9623 7.07865 29.0635 6.88202C29.1648 6.68539 29.4686 6.58707 29.6711 6.68539C31.3926 7.66854 32.4053 9.33988 32.4053 11.2079V23.3989C32.4053 25.2668 31.3926 27.0365 29.6711 28.0197L26.4306 29.7893C26.7344 29.986 26.6331 29.986 26.5319 29.986Z" fill="black"/>
<path d="M16.4049 33.132C15.7973 33.132 15.1897 32.9354 14.6834 32.6404L11.7467 31.0674C11.5441 30.9691 11.4429 30.6742 11.5441 30.4775C11.6454 30.2809 11.9492 30.1826 12.1517 30.2809L15.0884 31.8539C15.4935 32.0506 15.8986 32.1489 16.4049 32.1489C16.9112 32.1489 17.3163 32.0506 17.7213 31.7556L23.7973 28.3146C23.9998 28.2163 24.3036 28.2163 24.4049 28.5112C24.5061 28.7079 24.5061 29.0028 24.2023 29.1011L18.1264 32.5421C17.6201 32.9354 17.0125 33.132 16.4049 33.132Z" fill="black"/>
<path d="M7.89851 28.8062C7.79725 28.8062 7.69598 28.8062 7.69598 28.7079L3.74661 26.545C2.63269 25.9551 1.92383 24.7753 1.92383 23.5955V15.0422C1.92383 14.8455 2.12636 14.6489 2.32889 14.6489C2.53142 14.6489 2.73395 14.8455 2.73395 15.0422V23.5955C2.73395 24.4804 3.24028 25.3652 4.05041 25.8568L8.10104 28.0197C8.30357 28.118 8.40484 28.4129 8.30357 28.6096C8.20231 28.7079 7.99978 28.8062 7.89851 28.8062Z" fill="black"/>
<path d="M2.32889 11.8961C2.12636 11.8961 1.92383 11.6994 1.92383 11.5028C1.92383 10.323 2.63269 9.14327 3.64535 8.55338L8.60737 5.70225C8.91117 5.50563 9.1137 5.50563 9.31623 5.80057C9.4175 5.9972 9.31623 6.19383 9.1137 6.39046L4.15168 9.14327C3.34155 9.63484 2.83522 10.4214 2.83522 11.4045C2.83522 11.6994 2.63269 11.8961 2.32889 11.8961Z" fill="black"/>
<path d="M23.2913 6.19297C23.19 6.19297 23.0887 6.19297 23.0887 6.09466L17.6204 3.0469C16.8103 2.55533 15.7976 2.65365 14.9875 3.0469L11.6457 4.91488C11.4432 5.0132 11.1394 5.0132 11.0381 4.71825C10.9368 4.52162 10.9368 4.22668 11.2406 4.12836L14.5824 2.26039C15.6963 1.6705 17.0128 1.6705 18.1267 2.26039L23.2913 5.11151L23.8989 4.32499L18.633 1.37556C17.3166 0.589039 15.4938 0.589039 14.0761 1.37556L11.9495 2.55533C11.747 2.65365 11.4432 2.65365 11.3419 2.3587C11.2406 2.16207 11.2406 1.86713 11.5444 1.76881L13.671 0.589039C15.2913 -0.295793 17.5191 -0.295793 19.1394 0.589039L24.8103 3.73511C24.9115 3.83342 25.0128 3.93174 25.0128 4.03005C25.0128 4.12836 25.0128 4.32499 24.9115 4.42331L23.7976 5.89803C23.5951 6.09466 23.4938 6.19297 23.2913 6.19297Z" fill="black"/>
<path d="M68.4559 8.0618C68.1521 8.0618 67.9496 8.0618 67.8483 8.16011C67.747 8.25843 67.5445 8.35674 67.4432 8.55337L61.4685 16.2219L55.4939 8.55337C55.3926 8.35674 55.1901 8.25843 55.0888 8.16011C54.8863 8.0618 54.6837 8.0618 54.3799 8.0618C53.9749 8.0618 53.6711 8.16011 53.4685 8.25843C53.266 8.45506 53.0635 8.65169 53.0635 8.94663V18.4831H55.1901V11.7978L60.3546 18.2865C60.5571 18.5815 60.9622 18.6798 61.3673 18.6798C61.7723 18.6798 62.1774 18.5815 62.3799 18.2865L67.5445 11.7978V18.4831H69.6711V9.04494C69.6711 8.75 69.5698 8.45506 69.266 8.35674C69.1647 8.16011 68.8609 8.0618 68.4559 8.0618Z" fill="black"/>
<path d="M76.6582 8.35675H74.3291V18.5815H76.6582V8.35675Z" fill="black"/>
<path d="M89.5194 15.0421C90.2283 15.0421 90.8359 15.0421 91.3422 14.9438C91.8485 14.8455 92.2536 14.6489 92.6587 14.4523C93.0637 14.2556 93.2663 13.9607 93.4688 13.5674C93.6713 13.1742 93.6713 12.6826 93.6713 12.0927V11.4045C93.6713 10.8146 93.5701 10.323 93.4688 9.92978C93.2663 9.53653 93.0637 9.24158 92.7599 8.94664C92.4561 8.75001 91.9498 8.55338 91.4435 8.45507C90.9371 8.35675 90.3295 8.35675 89.5194 8.35675H81.3169V10.2247H89.4182C89.8232 10.2247 90.127 10.2247 90.3295 10.2247C90.6333 10.2247 90.8359 10.323 90.9371 10.4214C91.0384 10.5197 91.1397 10.618 91.2409 10.8146C91.3422 11.0112 91.3422 11.2079 91.3422 11.5028V12.0927C91.3422 12.3876 91.3422 12.5843 91.2409 12.7809C91.1397 12.9775 91.0384 13.0759 90.9371 13.1742C90.8359 13.2725 90.6333 13.3708 90.3295 13.3708C90.127 13.3708 89.722 13.3708 89.4182 13.3708H81.3169V18.5815H83.646V14.8455L89.8232 18.5815H93.8738L87.6966 15.1405H89.5194V15.0421Z" fill="black"/>
<path d="M100.962 16.5169C100.759 16.5169 100.557 16.4185 100.456 16.2219C100.354 16.1236 100.253 15.927 100.152 15.7303C100.152 15.5337 100.051 15.2388 100.051 14.9438V14.2556H108.962V12.486H97.8228V15.0421C97.8228 15.7303 97.924 16.2219 98.0253 16.7135C98.1266 17.2051 98.3291 17.5 98.6329 17.795C98.9367 18.0899 99.3417 18.2865 99.8481 18.3848C100.354 18.4832 100.962 18.5815 101.772 18.5815H109.063V16.6152H101.772C101.468 16.6152 101.165 16.6152 100.962 16.5169Z" fill="black"/>
<path d="M109.165 8.35675H101.874C101.064 8.35675 100.456 8.45506 99.9497 8.55338C99.4434 8.65169 99.0383 8.84832 98.7345 9.14327C98.4307 9.43821 98.2282 9.73315 98.127 10.2247H109.266V8.35675H109.165Z" fill="black"/>
<path d="M40.7091 16.5169C40.5065 16.5169 40.304 16.4185 40.2027 16.2219C40.1015 16.1236 40.0002 15.927 39.8989 15.7303C39.8989 15.5337 39.7977 15.2388 39.7977 14.9438V14.2556H48.7091V12.486H37.5698V15.0421C37.5698 15.7303 37.6711 16.2219 37.7724 16.7135C37.8736 17.2051 38.0762 17.5 38.38 17.795C38.6838 18.0899 39.0888 18.2865 39.5951 18.3848C40.1015 18.4832 40.7091 18.5815 41.5192 18.5815H48.8103V16.6152H41.5192C41.2154 16.6152 40.9116 16.6152 40.7091 16.5169Z" fill="black"/>
<path d="M48.9117 8.35675H41.5193C40.7092 8.35675 40.1016 8.45506 39.5952 8.55338C39.0889 8.65169 38.6839 8.84832 38.3801 9.14327C38.0763 9.43821 37.8737 9.73315 37.7725 10.2247H48.9117V8.35675Z" fill="black"/>
<path d="M128 18.5815L122.127 13.2725L127.798 8.35675H124.658L120.506 11.8961L116.355 8.35675H113.013L118.684 13.2725L112.709 18.5815H115.949L120.405 14.7472L124.557 18.5815H128Z" fill="black"/>
<path d="M7.39226 11.9944L7.89859 11.7978C8.20238 11.6011 8.10112 11.6011 8.10112 11.3062V10.8146C8.10112 10.618 7.99985 10.5197 7.69605 10.618L7.29099 10.8146C6.98719 11.0112 7.08846 11.0112 7.08846 11.3062V11.7978C6.98719 12.0927 7.18972 12.191 7.39226 11.9944Z" fill="black"/>
<path d="M6.48078 12.191V11.6994C6.48078 11.5028 6.37951 11.4045 6.07571 11.5028L4.65799 12.2893C4.3542 12.4859 4.25293 12.6826 4.25293 13.0758V15.3371C4.25293 15.5337 4.45546 15.632 4.65799 15.5337C4.75926 15.5337 5.06306 15.3371 5.06306 15.3371C5.26559 15.2388 5.26559 15.0421 5.26559 14.6489V13.764C5.26559 13.4691 5.46812 13.1742 5.67065 13.0758L6.27825 12.7809C6.48078 12.4859 6.48078 12.4859 6.48078 12.191Z" fill="black"/>
<path d="M6.27832 14.6489V17.6966C6.27832 17.7949 6.37959 17.8932 6.48085 17.8932C6.58212 17.8932 6.58212 17.8932 6.68338 17.8932C6.88592 17.7949 7.18971 17.5983 7.18971 17.5983C7.39224 17.5 7.39224 17.4017 7.39224 16.9101V15.1404C7.39224 14.8455 7.49351 14.6489 7.79731 14.5506L10.329 13.1741C10.4302 13.0758 10.5315 13.0758 10.734 13.0758C10.8353 13.0758 11.0378 13.0758 11.1391 13.1741L14.3796 15.0421C14.4809 15.1404 14.5821 15.0421 14.5821 14.9438C14.5821 14.9438 14.5821 14.8455 14.5821 14.7472C14.5821 14.5506 14.5821 14.2556 14.5821 14.2556C14.5821 14.059 14.4809 13.9607 14.1771 13.8623L10.9365 11.9944C10.8353 11.8961 10.6328 11.8961 10.5315 11.8961C10.4302 11.8961 10.329 11.8961 10.1264 11.9944L6.58212 13.9607C6.37959 14.059 6.27832 14.2556 6.27832 14.6489Z" fill="black"/>
<path d="M14.3796 19.4663C14.3796 19.368 14.2783 19.2697 14.177 19.1713C14.177 19.1713 13.772 18.8764 13.5694 18.8764C13.4682 18.8764 13.3669 18.8764 13.2656 18.8764C13.1644 18.8764 13.0631 18.8764 12.8606 18.9747L8.20234 21.6292C8.10107 21.6292 8.10107 21.7275 8.10107 21.7275C8.10107 21.8258 8.10107 21.8258 8.20234 21.9242C8.40487 22.1208 8.9112 22.3174 8.9112 22.3174C9.01247 22.3174 9.11373 22.4157 9.11373 22.4157C9.215 22.4157 9.41753 22.3174 9.62006 22.2191L14.0758 19.6629C14.2783 19.6629 14.3796 19.5646 14.3796 19.4663Z" fill="black"/>
<path d="M11.8476 17.9916C11.8476 17.8932 11.7464 17.7949 11.6451 17.6966C11.6451 17.6966 11.24 17.4017 11.0375 17.4017C10.9363 17.4017 10.835 17.4017 10.7337 17.4017C10.6325 17.4017 10.5312 17.4017 10.4299 17.5L6.27802 19.8595C6.17676 19.8595 6.17676 19.9579 6.17676 19.9579C6.17676 20.0562 6.17676 20.0562 6.27802 20.1545C6.48056 20.3511 6.98688 20.5477 6.98688 20.5477C7.08815 20.5477 7.18942 20.6461 7.18942 20.6461C7.29068 20.6461 7.49321 20.5477 7.69575 20.4494L11.6451 18.1882C11.7464 18.0899 11.8476 18.0899 11.8476 17.9916Z" fill="black"/>
<path d="M24.7084 11.6994L25.2147 11.9944C25.5185 12.0927 25.6198 11.9944 25.6198 11.7977V11.3062C25.6198 11.0112 25.6198 10.9129 25.4172 10.8146L24.9109 10.5196C24.6071 10.4213 24.5059 10.5196 24.5059 10.7163V11.2079C24.5059 11.5028 24.5059 11.6011 24.7084 11.6994Z" fill="black"/>
<path d="M28.0503 12.2893L26.6326 11.5028C26.3288 11.4045 26.2275 11.5028 26.2275 11.6994V12.191C26.2275 12.4859 26.2275 12.4859 26.4301 12.6826L27.0377 12.9775C27.3415 13.1742 27.4427 13.3708 27.4427 13.6657V14.5506C27.4427 14.9438 27.4427 15.1404 27.6453 15.2388C27.6453 15.2388 27.9491 15.4354 28.0503 15.4354C28.2529 15.5337 28.4554 15.4354 28.4554 15.2388V12.9775C28.5567 12.6826 28.4554 12.4859 28.0503 12.2893Z" fill="black"/>
<path d="M22.1771 11.7978C22.0758 11.7978 21.8733 11.7978 21.772 11.8961L18.5315 13.7641C18.2277 13.9607 18.1265 13.9607 18.1265 14.1573C18.1265 14.1573 18.1265 14.4523 18.1265 14.6489C18.1265 14.7472 18.1265 14.7472 18.1265 14.8455C18.2277 14.9438 18.329 14.9438 18.329 14.9438L21.5695 13.0759C21.6708 12.9775 21.772 12.9775 21.9746 12.9775C22.0758 12.9775 22.2784 12.9775 22.3796 13.0759L24.9113 14.4523C25.1138 14.5506 25.3163 14.8455 25.3163 15.0421V16.8118C25.3163 17.2051 25.3163 17.3034 25.5189 17.5C25.5189 17.5 25.8227 17.6966 26.0252 17.795C26.1265 17.795 26.1265 17.795 26.2277 17.795C26.329 17.795 26.4303 17.6966 26.4303 17.5983V14.4523C26.4303 14.059 26.329 13.9607 26.0252 13.7641L22.4809 11.7978C22.3796 11.8961 22.2784 11.7978 22.1771 11.7978Z" fill="black"/>
<path d="M24.5063 21.6292L19.8481 18.9747C19.7468 18.8764 19.6456 18.8764 19.443 18.8764C19.3418 18.8764 19.2405 18.8764 19.1392 18.8764C18.9367 18.9747 18.5316 19.1713 18.5316 19.1713C18.4304 19.2697 18.3291 19.368 18.3291 19.4663C18.3291 19.5646 18.3291 19.5646 18.4304 19.6629L22.8861 22.2191C23.0886 22.3174 23.2911 22.4157 23.3924 22.4157C23.4937 22.4157 23.5949 22.4157 23.5949 22.3174C23.5949 22.3174 24.1013 22.1208 24.3038 21.9242C24.4051 21.8258 24.4051 21.8258 24.4051 21.7275C24.6076 21.7275 24.5063 21.7275 24.5063 21.6292Z" fill="black"/>
<path d="M22.3794 23.2023L17.0123 20.1545V18.3848L21.7718 15.7303C21.9743 15.632 22.1769 15.632 22.3794 15.7303L23.4933 16.3202C23.7971 16.4185 23.8984 16.3202 23.8984 16.1236V15.7303C23.8984 15.4354 23.8984 15.3371 23.6958 15.2388C23.6958 15.2388 22.5819 14.6489 22.5819 14.5506C22.3794 14.4522 22.0756 14.3539 21.7718 14.5506L17.1136 17.2051V13.1742L21.8731 10.5197C22.0756 10.4213 22.2781 10.4213 22.4806 10.5197L23.5946 11.1096C23.8984 11.2079 23.9996 11.1096 23.9996 10.9129V10.4213C23.9996 10.1264 23.9996 10.0281 23.7971 9.92978C23.7971 9.92978 22.6832 9.33989 22.6832 9.24157C22.4806 9.14326 22.1769 9.04494 21.8731 9.24157L17.0123 11.7978V8.65169C17.0123 8.35674 16.7085 8.0618 16.4047 8.0618C16.1009 8.0618 15.7971 8.35674 15.7971 8.65169V11.7978L11.1389 9.14326C10.8351 8.94663 10.5313 9.04494 10.3288 9.14326L9.21483 9.83146C8.91103 10.0281 9.0123 10.0281 9.0123 10.323V10.8146C9.0123 11.0112 9.11356 11.1096 9.41736 11.0112L10.5313 10.4213C10.7338 10.323 10.9363 10.323 11.1389 10.4213L15.8984 13.0758V17.1067L11.2401 14.4522C10.9363 14.2556 10.6325 14.3539 10.43 14.4522L9.31609 15.1405C9.0123 15.3371 9.11356 15.3371 9.11356 15.632V16.1236C9.11356 16.3202 9.21483 16.4185 9.51863 16.3202L10.6325 15.7303C10.8351 15.632 11.0376 15.632 11.2401 15.7303L15.9996 18.3848V20.1545L10.6325 23.2023C10.5313 23.2023 10.5313 23.3006 10.5313 23.3006C10.5313 23.3989 10.5313 23.3989 10.6325 23.4972C10.8351 23.6938 11.3414 23.8905 11.3414 23.8905C11.4427 23.8905 11.5439 23.9888 11.5439 23.9888C11.6452 23.9888 11.8477 23.8905 12.0503 23.7921L15.9996 21.6292V28.7079C15.9996 29.0028 16.3034 29.2978 16.6072 29.2978C16.911 29.2978 17.2148 29.0028 17.2148 28.7079V21.6292L21.1642 23.7921C21.3667 23.8905 21.5693 23.9888 21.6705 23.9888C21.7718 23.9888 21.8731 23.9888 21.8731 23.8905C21.8731 23.8905 22.3794 23.6938 22.5819 23.4972C22.6832 23.3989 22.6832 23.3989 22.6832 23.3006C22.4806 23.3006 22.4806 23.3006 22.3794 23.2023Z" fill="black"/>
<path d="M26.43 19.7612L22.2781 17.4017C22.1768 17.3034 22.0755 17.3034 21.9743 17.3034C21.873 17.3034 21.7717 17.3034 21.6705 17.3034C21.4679 17.4017 21.0629 17.5983 21.0629 17.5983C20.9616 17.6966 20.8604 17.7949 20.8604 17.8933C20.8604 17.9916 20.8604 17.9916 20.9616 18.0899L24.911 20.3511C25.1135 20.4494 25.316 20.5478 25.4173 20.5478C25.5186 20.5478 25.6198 20.5478 25.6198 20.4494C25.6198 20.4494 26.1262 20.2528 26.3287 20.0562C26.43 19.9579 26.43 19.9579 26.43 19.8596C26.5312 19.8596 26.5312 19.8596 26.43 19.7612Z" fill="black"/>
<path d="M68.0504 26.3483H37.772V26.8399H68.0504V26.3483Z" fill="black"/>
<path d="M127.797 26.3483H99.1392V26.8399H127.797V26.3483Z" fill="black"/>
<path d="M95.1897 30.0843C95.291 29.8876 95.3922 29.7893 95.3922 29.5927C95.3922 29.3961 95.1897 29.1994 94.8859 29.1994C94.5821 29.1994 94.2783 29.2977 94.0758 29.4944C93.772 29.7893 93.6707 29.9859 93.6707 30.1826C93.6707 30.4775 93.772 30.5758 94.0758 30.6742C93.9745 30.8708 93.8732 30.9691 93.772 31.1657L93.8732 31.264C94.2783 31.0674 94.7846 30.8708 95.4935 30.7725C95.5948 30.5758 95.696 30.3792 95.7973 30.2809V30.1826C95.5948 30.1826 95.3922 30.1826 95.0884 30.1826C94.4808 30.1826 94.177 29.9859 94.177 29.8876C94.177 29.7893 94.3796 29.691 94.5821 29.691C94.6834 29.691 94.7846 29.691 94.7846 29.7893L95.1897 30.0843ZM94.4808 29.0028C94.6834 28.7079 94.8859 28.5112 94.9872 28.2163C95.0884 28.0197 95.1897 27.3315 95.1897 26.3483C95.1897 25.0702 95.1897 23.7921 94.9872 22.4157L94.8859 22.3174C94.5821 22.514 94.3796 22.809 94.0758 23.1039C94.2783 24.4803 94.2783 25.955 94.2783 27.3315C94.2783 27.9213 94.2783 28.4129 94.177 28.9045L94.4808 29.0028ZM90.4302 26.8399C90.6327 26.4466 90.8353 26.25 91.2403 26.25C91.6454 26.25 92.0505 26.7416 92.253 27.4298C92.253 27.4298 92.1517 27.5281 92.0505 27.5281C91.4429 27.5281 90.9365 27.2331 90.4302 26.8399ZM90.0251 28.0197C90.6327 28.5112 91.2403 28.7079 91.7467 28.7079C92.6581 28.7079 92.8606 27.5281 92.8606 27.4298C92.8606 26.7416 92.4555 25.0702 91.3416 25.0702C91.0378 25.0702 90.734 25.1685 90.4302 25.4635C89.8226 26.0534 89.9239 26.9382 89.4176 27.2331C89.3163 27.4298 89.1138 27.5281 88.9112 27.5281H88.81C88.5062 27.5281 88.3036 27.823 88.3036 28.2163C88.3036 28.5112 88.5062 28.9045 88.81 28.9045H88.9112C89.4176 28.8062 89.8226 28.5112 90.0251 28.0197ZM92.4555 30.9691C91.6454 31.264 90.8353 31.4607 90.0251 31.7556L89.8226 32.3455C90.6327 32.0506 91.3416 31.8539 92.1517 31.559L92.4555 30.9691ZM88.81 27.5281C87.9998 27.5281 87.5948 27.0365 87.291 26.25H87.1897C86.9872 26.5449 86.8859 26.8399 86.6834 27.2331C86.8859 27.7247 87.1897 28.118 87.3922 28.4129C87.291 28.8062 87.0884 29.2977 86.5821 29.691C86.177 30.0843 85.6707 30.2809 85.1644 30.2809C85.0631 30.2809 84.8606 30.2809 84.5568 30.1826L84.4555 30.4775C85.1644 30.9691 85.772 31.1657 86.2783 31.1657C86.7846 31.1657 87.291 30.7725 87.5948 30.1826C87.7973 29.7893 87.9998 29.3961 87.9998 28.7079C88.2024 28.8062 88.4049 28.8062 88.7087 28.8062H88.81V27.5281ZM83.9492 24.1854C83.5441 24.0871 83.0378 24.0871 82.6327 23.9888C83.4429 23.5955 84.4555 23.3006 85.5694 22.9073C85.772 22.514 85.9745 22.2191 86.177 21.8258C84.6581 22.3174 83.4429 22.7107 82.734 23.1039C82.2277 23.3006 82.0251 23.5955 82.0251 24.0871C82.0251 24.382 82.0251 24.5786 82.1264 24.8736C83.4429 25.7584 84.3543 26.5449 84.3543 27.0365C84.3543 27.3315 83.4429 27.5281 82.1264 27.5281H82.0251C81.7213 27.5281 81.5188 27.823 81.5188 28.2163C81.5188 28.5112 81.6201 28.9045 82.0251 28.9045H82.1264C83.5441 28.9045 84.4555 28.6095 84.7593 28.0197C84.9619 27.6264 85.0631 27.2331 85.0631 26.8399C85.0631 26.0534 84.7593 25.6601 83.7467 24.7753L83.9492 24.1854ZM77.2657 28.8062C77.772 28.8062 78.177 28.6095 78.4808 28.2163C78.6834 28.6095 78.9872 28.7079 79.291 28.7079C79.696 28.7079 80.1011 28.5112 80.4049 28.118C80.6074 28.5112 81.215 28.7079 81.9239 28.7079H82.0251V27.5281H81.9239C81.6201 27.5281 81.3163 27.4298 81.1138 27.3315C80.9112 27.2331 80.9112 27.0365 80.9112 26.7416C80.9112 26.5449 81.0125 26.25 81.1138 25.955H81.0125L80.5062 26.25C80.4049 26.6433 80.3036 26.9382 80.1011 27.2331C79.8986 27.4298 79.696 27.5281 79.3922 27.5281C79.291 27.5281 79.1897 27.5281 79.0884 27.4298C79.0884 27.3315 78.9872 27.2331 78.9872 27.1348C78.9872 27.0365 79.0884 26.6433 79.291 26.1517C79.0884 26.25 78.8859 26.3483 78.6834 26.4466C78.5821 26.8399 78.4808 27.1348 78.2783 27.2331C78.0758 27.4298 77.9745 27.4298 77.772 27.4298C77.4682 27.4298 77.3669 27.2331 77.2657 27.0365C77.0631 26.6433 76.9619 26.3483 76.7593 25.955H76.6581C76.4555 26.3483 76.253 26.6433 76.0505 27.0365C76.5568 27.7247 76.7593 28.2163 76.7593 28.7079C76.7593 28.9045 76.4555 29.1011 76.1517 29.2977C75.7467 29.5927 75.3416 29.691 74.8353 29.691C74.4302 29.691 74.0251 29.5927 73.7214 29.2977C73.3163 29.0028 73.215 28.6095 73.215 28.118C73.215 27.9213 73.3163 27.5281 73.5188 27.0365L73.1138 26.8399C72.7087 27.4298 72.6074 28.118 72.6074 28.7079C72.6074 29.8876 73.3163 30.8708 74.6327 30.8708C75.4429 30.8708 76.1517 30.4775 76.6581 29.9859C77.0631 29.7893 77.1644 29.3961 77.2657 28.8062Z" fill="black"/>
</g>
<defs>
<clipPath id="clip0">
<rect width="128" height="35" fill="white"/>
</clipPath>
</defs>
</svg>
