<?xml version="1.0" encoding="UTF-8" standalone="no"?>
<!DOCTYPE svg PUBLIC "-//W3C//DTD SVG 1.1//EN" "http://www.w3.org/Graphics/SVG/1.1/DTD/svg11.dtd">
<svg width="100%" height="100%" viewBox="0 0 16 16" version="1.1" xmlns="http://www.w3.org/2000/svg" xmlns:xlink="http://www.w3.org/1999/xlink" xml:space="preserve" xmlns:serif="http://www.serif.com/" style="fill-rule:evenodd;clip-rule:evenodd;stroke-linejoin:round;stroke-miterlimit:2;">
    <path d="M14.592,0.592L1.407,0.592C1.191,0.592 0.983,0.678 0.83,0.831C0.678,0.984 0.592,1.191 0.592,1.407L0.592,14.592C0.592,14.699 0.613,14.805 0.654,14.904C0.695,15.003 0.755,15.093 0.83,15.168C0.906,15.244 0.996,15.304 1.095,15.345C1.194,15.386 1.3,15.407 1.407,15.407L8.503,15.407L8.503,9.666L6.577,9.666L6.577,7.444L8.503,7.444L8.503,5.777C8.463,5.386 8.509,4.991 8.638,4.619C8.767,4.248 8.976,3.909 9.25,3.627C9.524,3.344 9.856,3.125 10.224,2.985C10.591,2.845 10.985,2.787 11.377,2.815C11.954,2.811 12.53,2.841 13.103,2.903L13.103,4.903L11.925,4.903C10.992,4.903 10.814,5.348 10.814,5.992L10.814,7.422L13.036,7.422L12.747,9.644L10.814,9.644L10.814,15.407L14.592,15.407C14.699,15.407 14.805,15.386 14.904,15.345C15.003,15.304 15.092,15.244 15.168,15.168C15.244,15.093 15.304,15.003 15.345,14.904C15.386,14.805 15.407,14.699 15.407,14.592L15.407,1.407C15.407,1.3 15.386,1.194 15.345,1.095C15.304,0.996 15.244,0.907 15.168,0.831C15.092,0.755 15.003,0.695 14.904,0.654C14.805,0.613 14.699,0.592 14.592,0.592Z" style="fill:white;fill-rule:nonzero;"/>
</svg>
