<svg width="16" height="16" viewBox="0 0 16 16" fill="none" xmlns="http://www.w3.org/2000/svg">
<path d="M14.5918 0.592285H1.40661C1.19051 0.592285 0.983258 0.678132 0.830451 0.830939C0.677643 0.983746 0.591797 1.191 0.591797 1.4071V14.5923C0.591797 14.6993 0.612873 14.8052 0.653821 14.9041C0.694769 15.003 0.754788 15.0928 0.830451 15.1684C0.906113 15.2441 0.995938 15.3041 1.0948 15.3451C1.19365 15.386 1.29961 15.4071 1.40661 15.4071H8.50291V9.66636H6.57698V7.44414H8.50291V5.77747C8.46301 5.38618 8.50921 4.9909 8.63825 4.61935C8.7673 4.2478 8.97607 3.90899 9.24992 3.62666C9.52377 3.34434 9.85607 3.12535 10.2235 2.98505C10.591 2.84476 10.9847 2.78655 11.377 2.81451C11.9535 2.81096 12.5298 2.84064 13.1029 2.9034V4.9034H11.9251C10.9918 4.9034 10.814 5.34784 10.814 5.99229V7.42192H13.0362L12.7474 9.64414H10.814V15.4071H14.5918C14.6988 15.4071 14.8048 15.386 14.9036 15.3451C15.0025 15.3041 15.0923 15.2441 15.168 15.1684C15.2436 15.0928 15.3036 15.003 15.3446 14.9041C15.3855 14.8052 15.4066 14.6993 15.4066 14.5923V1.4071C15.4066 1.3001 15.3855 1.19414 15.3446 1.09528C15.3036 0.996426 15.2436 0.906602 15.168 0.830939C15.0923 0.755276 15.0025 0.695258 14.9036 0.654309C14.8048 0.613361 14.6988 0.592285 14.5918 0.592285Z" fill="black"/>
</svg>
