<?xml version="1.0" encoding="UTF-8" standalone="no"?>
<!DOCTYPE svg PUBLIC "-//W3C//DTD SVG 1.1//EN" "http://www.w3.org/Graphics/SVG/1.1/DTD/svg11.dtd">
<svg width="100%" height="100%" viewBox="0 0 17 17" version="1.1" xmlns="http://www.w3.org/2000/svg" xmlns:xlink="http://www.w3.org/1999/xlink" xml:space="preserve" xmlns:serif="http://www.serif.com/" style="fill-rule:evenodd;clip-rule:evenodd;stroke-linejoin:round;stroke-miterlimit:2;">
    <path d="M10.798,8.652C10.798,7.91 10.535,7.277 10.011,6.753C9.486,6.228 8.853,5.966 8.111,5.966C7.37,5.966 6.737,6.228 6.212,6.753C5.687,7.277 5.425,7.91 5.425,8.652C5.425,9.393 5.687,10.027 6.212,10.551C6.737,11.076 7.37,11.338 8.111,11.338C8.853,11.338 9.486,11.076 10.011,10.551C10.535,10.027 10.798,9.393 10.798,8.652ZM12.246,8.652C12.246,9.799 11.843,10.775 11.039,11.579C10.234,12.384 9.259,12.786 8.111,12.786C6.964,12.786 5.988,12.384 5.184,11.579C4.379,10.775 3.977,9.799 3.977,8.652C3.977,7.505 4.379,6.529 5.184,5.724C5.988,4.92 6.964,4.518 8.111,4.518C9.259,4.518 10.234,4.92 11.039,5.724C11.843,6.529 12.246,7.505 12.246,8.652ZM13.379,4.35C13.379,4.616 13.284,4.843 13.096,5.032C12.907,5.221 12.679,5.315 12.414,5.315C12.148,5.315 11.92,5.221 11.731,5.032C11.543,4.843 11.448,4.616 11.448,4.35C11.448,4.084 11.543,3.857 11.731,3.668C11.92,3.479 12.148,3.384 12.414,3.384C12.679,3.384 12.907,3.479 13.096,3.668C13.284,3.857 13.379,4.084 13.379,4.35ZM8.111,2.041C8.062,2.041 7.795,2.04 7.309,2.036C6.822,2.033 6.453,2.033 6.202,2.036C5.95,2.04 5.612,2.05 5.189,2.068C4.766,2.085 4.406,2.12 4.108,2.172C3.811,2.225 3.561,2.29 3.358,2.367C3.008,2.506 2.7,2.709 2.435,2.975C2.169,3.241 1.966,3.549 1.826,3.899C1.749,4.101 1.684,4.352 1.632,4.649C1.579,4.946 1.544,5.306 1.527,5.73C1.51,6.153 1.499,6.49 1.496,6.742C1.492,6.994 1.492,7.363 1.496,7.849C1.499,8.335 1.501,8.603 1.501,8.652C1.501,8.701 1.499,8.968 1.496,9.455C1.492,9.941 1.492,10.31 1.496,10.562C1.499,10.813 1.51,11.151 1.527,11.574C1.544,11.997 1.579,12.358 1.632,12.655C1.684,12.952 1.749,13.202 1.826,13.405C1.966,13.755 2.169,14.063 2.435,14.329C2.7,14.594 3.008,14.797 3.358,14.937C3.561,15.014 3.811,15.079 4.108,15.131C4.406,15.184 4.766,15.219 5.189,15.236C5.612,15.254 5.95,15.264 6.202,15.268C6.453,15.271 6.822,15.271 7.309,15.268C7.795,15.264 8.062,15.262 8.111,15.262C8.16,15.262 8.428,15.264 8.914,15.268C9.4,15.271 9.769,15.271 10.021,15.268C10.273,15.264 10.61,15.254 11.034,15.236C11.457,15.219 11.817,15.184 12.114,15.131C12.412,15.079 12.662,15.014 12.865,14.937C13.214,14.797 13.522,14.594 13.788,14.329C14.054,14.063 14.257,13.755 14.397,13.405C14.474,13.202 14.538,12.952 14.591,12.655C14.643,12.358 14.678,11.997 14.696,11.574C14.713,11.151 14.724,10.813 14.727,10.562C14.731,10.31 14.731,9.941 14.727,9.455C14.724,8.968 14.722,8.701 14.722,8.652C14.722,8.603 14.724,8.335 14.727,7.849C14.731,7.363 14.731,6.994 14.727,6.742C14.724,6.49 14.713,6.153 14.696,5.73C14.678,5.306 14.643,4.946 14.591,4.649C14.538,4.352 14.474,4.101 14.397,3.899C14.257,3.549 14.054,3.241 13.788,2.975C13.522,2.709 13.214,2.506 12.865,2.367C12.662,2.29 12.412,2.225 12.114,2.172C11.817,2.12 11.457,2.085 11.034,2.068C10.61,2.05 10.273,2.04 10.021,2.036C9.769,2.033 9.4,2.033 8.914,2.036C8.428,2.04 8.16,2.041 8.111,2.041ZM16.17,8.652C16.17,10.254 16.153,11.363 16.118,11.978C16.048,13.433 15.614,14.559 14.816,15.357C14.019,16.154 12.893,16.588 11.438,16.658C10.822,16.693 9.713,16.711 8.111,16.711C6.509,16.711 5.401,16.693 4.785,16.658C3.33,16.588 2.204,16.154 1.406,15.357C0.609,14.559 0.175,13.433 0.105,11.978C0.07,11.363 0.053,10.254 0.053,8.652C0.053,7.05 0.07,5.941 0.105,5.326C0.175,3.871 0.609,2.744 1.406,1.947C2.204,1.149 3.33,0.716 4.785,0.646C5.401,0.611 6.509,0.593 8.111,0.593C9.713,0.593 10.822,0.611 11.438,0.646C12.893,0.716 14.019,1.149 14.816,1.947C15.614,2.744 16.048,3.871 16.118,5.326C16.153,5.941 16.17,7.05 16.17,8.652Z" style="fill:white;fill-rule:nonzero;"/>
</svg>
