<svg width="17" height="17" viewBox="0 0 17 17" fill="none" xmlns="http://www.w3.org/2000/svg">
<path d="M10.7975 8.65187C10.7975 7.91037 10.5352 7.27729 10.0106 6.75264C9.48592 6.22799 8.85285 5.96567 8.11134 5.96567C7.36984 5.96567 6.73676 6.22799 6.21211 6.75264C5.68746 7.27729 5.42514 7.91037 5.42514 8.65187C5.42514 9.39337 5.68746 10.0265 6.21211 10.5511C6.73676 11.0757 7.36984 11.3381 8.11134 11.3381C8.85285 11.3381 9.48592 11.0757 10.0106 10.5511C10.5352 10.0265 10.7975 9.39337 10.7975 8.65187ZM12.2456 8.65187C12.2456 9.7991 11.8433 10.7749 11.0389 11.5794C10.2344 12.3839 9.25857 12.7861 8.11134 12.7861C6.96411 12.7861 5.98826 12.3839 5.1838 11.5794C4.37934 10.7749 3.97711 9.7991 3.97711 8.65187C3.97711 7.50464 4.37934 6.52879 5.1838 5.72433C5.98826 4.91987 6.96411 4.51764 8.11134 4.51764C9.25857 4.51764 10.2344 4.91987 11.0389 5.72433C11.8433 6.52879 12.2456 7.50464 12.2456 8.65187ZM13.3788 4.34975C13.3788 4.61557 13.2844 4.84292 13.0955 5.03179C12.9066 5.22066 12.6793 5.3151 12.4135 5.3151C12.1476 5.3151 11.9203 5.22066 11.7314 5.03179C11.5425 4.84292 11.4481 4.61557 11.4481 4.34975C11.4481 4.08393 11.5425 3.85658 11.7314 3.6677C11.9203 3.47883 12.1476 3.38439 12.4135 3.38439C12.6793 3.38439 12.9066 3.47883 13.0955 3.6677C13.2844 3.85658 13.3788 4.08393 13.3788 4.34975ZM8.11134 2.04129C8.06237 2.04129 7.7948 2.03954 7.30863 2.03605C6.82245 2.03255 6.45345 2.03255 6.20162 2.03605C5.94979 2.03954 5.61226 2.05004 5.18905 2.06752C4.76583 2.08501 4.40557 2.11999 4.10827 2.17245C3.81097 2.22492 3.56089 2.28963 3.35802 2.36658C3.00826 2.50648 2.70046 2.70935 2.43464 2.97517C2.16882 3.24099 1.96595 3.54878 1.82605 3.89855C1.7491 4.10141 1.68439 4.3515 1.63193 4.6488C1.57946 4.9461 1.54449 5.30636 1.527 5.72957C1.50951 6.15279 1.49902 6.49032 1.49552 6.74215C1.49202 6.99398 1.49202 7.36298 1.49552 7.84916C1.49902 8.33533 1.50077 8.6029 1.50077 8.65187C1.50077 8.70084 1.49902 8.96841 1.49552 9.45458C1.49202 9.94076 1.49202 10.3098 1.49552 10.5616C1.49902 10.8134 1.50951 11.1509 1.527 11.5742C1.54449 11.9974 1.57946 12.3576 1.63193 12.6549C1.68439 12.9522 1.7491 13.2023 1.82605 13.4052C1.96595 13.755 2.16882 14.0627 2.43464 14.3286C2.70046 14.5944 3.00826 14.7973 3.35802 14.9372C3.56089 15.0141 3.81097 15.0788 4.10827 15.1313C4.40557 15.1838 4.76583 15.2187 5.18905 15.2362C5.61226 15.2537 5.94979 15.2642 6.20162 15.2677C6.45345 15.2712 6.82245 15.2712 7.30863 15.2677C7.7948 15.2642 8.06237 15.2624 8.11134 15.2624C8.16031 15.2624 8.42788 15.2642 8.91405 15.2677C9.40023 15.2712 9.76923 15.2712 10.0211 15.2677C10.2729 15.2642 10.6104 15.2537 11.0336 15.2362C11.4569 15.2187 11.8171 15.1838 12.1144 15.1313C12.4117 15.0788 12.6618 15.0141 12.8647 14.9372C13.2144 14.7973 13.5222 14.5944 13.788 14.3286C14.0539 14.0627 14.2567 13.755 14.3966 13.4052C14.4736 13.2023 14.5383 12.9522 14.5908 12.6549C14.6432 12.3576 14.6782 11.9974 14.6957 11.5742C14.7132 11.1509 14.7237 10.8134 14.7272 10.5616C14.7307 10.3098 14.7307 9.94076 14.7272 9.45458C14.7237 8.96841 14.7219 8.70084 14.7219 8.65187C14.7219 8.6029 14.7237 8.33533 14.7272 7.84916C14.7307 7.36298 14.7307 6.99398 14.7272 6.74215C14.7237 6.49032 14.7132 6.15279 14.6957 5.72957C14.6782 5.30636 14.6432 4.9461 14.5908 4.6488C14.5383 4.3515 14.4736 4.10141 14.3966 3.89855C14.2567 3.54878 14.0539 3.24099 13.788 2.97517C13.5222 2.70935 13.2144 2.50648 12.8647 2.36658C12.6618 2.28963 12.4117 2.22492 12.1144 2.17245C11.8171 2.11999 11.4569 2.08501 11.0336 2.06752C10.6104 2.05004 10.2729 2.03954 10.0211 2.03605C9.76923 2.03255 9.40023 2.03255 8.91405 2.03605C8.42788 2.03954 8.16031 2.04129 8.11134 2.04129ZM16.1699 8.65187C16.1699 10.2538 16.1525 11.3626 16.1175 11.9781C16.0475 13.4332 15.6138 14.5594 14.8164 15.3569C14.0189 16.1543 12.8926 16.5881 11.4376 16.658C10.822 16.693 9.71327 16.7105 8.11134 16.7105C6.50941 16.7105 5.40066 16.693 4.78507 16.658C3.33004 16.5881 2.2038 16.1543 1.40633 15.3569C0.608862 14.5594 0.175152 13.4332 0.105199 11.9781C0.0702228 11.3626 0.0527344 10.2538 0.0527344 8.65187C0.0527344 7.04994 0.0702228 5.94118 0.105199 5.3256C0.175152 3.87057 0.608862 2.74432 1.40633 1.94686C2.2038 1.14939 3.33004 0.715679 4.78507 0.645726C5.40066 0.61075 6.50941 0.593262 8.11134 0.593262C9.71327 0.593262 10.822 0.61075 11.4376 0.645726C12.8926 0.715679 14.0189 1.14939 14.8164 1.94686C15.6138 2.74432 16.0475 3.87057 16.1175 5.3256C16.1525 5.94118 16.1699 7.04994 16.1699 8.65187Z" fill="black"/>
</svg>
