<svg width="18" height="18" viewBox="0 0 18 18" fill="none" xmlns="http://www.w3.org/2000/svg">
<g clip-path="url(#clip0)">
<path d="M13.6459 0.940918H4.24439C2.39028 0.940918 0.886719 2.44448 0.886719 4.29859V13.7001C0.886719 15.5542 2.39028 17.0577 4.24439 17.0577H13.6459C15.5006 17.0577 17.0035 15.5542 17.0035 13.7001V4.29859C17.0035 2.44448 15.5006 0.940918 13.6459 0.940918ZM6.25899 13.7001H4.24439V6.31319H6.25899V13.7001ZM5.25169 5.46168C4.60299 5.46168 4.0765 4.93117 4.0765 4.2771C4.0765 3.62302 4.60299 3.09251 5.25169 3.09251C5.90039 3.09251 6.42687 3.62302 6.42687 4.2771C6.42687 4.93117 5.90106 5.46168 5.25169 5.46168ZM14.3174 13.7001H12.3028V9.93678C12.3028 7.67506 9.61666 7.8463 9.61666 9.93678V13.7001H7.60206V6.31319H9.61666V7.49845C10.5541 5.76186 14.3174 5.6336 14.3174 9.16116V13.7001Z" fill="black"/>
</g>
<defs>
<clipPath id="clip0">
<rect width="16.1168" height="16.1168" fill="white" transform="translate(0.886719 0.940918)"/>
</clipPath>
</defs>
</svg>
