<?xml version="1.0" encoding="UTF-8" standalone="no"?>
<!DOCTYPE svg PUBLIC "-//W3C//DTD SVG 1.1//EN" "http://www.w3.org/Graphics/SVG/1.1/DTD/svg11.dtd">
<svg width="100%" height="100%" viewBox="0 0 18 18" version="1.1" xmlns="http://www.w3.org/2000/svg" xmlns:xlink="http://www.w3.org/1999/xlink" xml:space="preserve" xmlns:serif="http://www.serif.com/" style="fill-rule:evenodd;clip-rule:evenodd;stroke-linejoin:round;stroke-miterlimit:2;">
    <path d="M13.646,0.941L4.244,0.941C2.39,0.941 0.887,2.444 0.887,4.299L0.887,13.7C0.887,15.554 2.39,17.058 4.244,17.058L13.646,17.058C15.501,17.058 17.004,15.554 17.004,13.7L17.004,4.299C17.004,2.444 15.501,0.941 13.646,0.941ZM6.259,13.7L4.244,13.7L4.244,6.313L6.259,6.313L6.259,13.7ZM5.252,5.462C4.603,5.462 4.077,4.931 4.077,4.277C4.077,3.623 4.603,3.093 5.252,3.093C5.9,3.093 6.427,3.623 6.427,4.277C6.427,4.931 5.901,5.462 5.252,5.462ZM14.317,13.7L12.303,13.7L12.303,9.937C12.303,7.675 9.617,7.846 9.617,9.937L9.617,13.7L7.602,13.7L7.602,6.313L9.617,6.313L9.617,7.498C10.554,5.762 14.317,5.634 14.317,9.161L14.317,13.7Z" style="fill:white;fill-rule:nonzero;"/>
</svg>
