<?xml version="1.0" encoding="UTF-8" standalone="no"?>
<!DOCTYPE svg PUBLIC "-//W3C//DTD SVG 1.1//EN" "http://www.w3.org/Graphics/SVG/1.1/DTD/svg11.dtd">
<svg width="100%" height="100%" viewBox="0 0 18 14" version="1.1" xmlns="http://www.w3.org/2000/svg" xmlns:xlink="http://www.w3.org/1999/xlink" xml:space="preserve" xmlns:serif="http://www.serif.com/" style="fill-rule:evenodd;clip-rule:evenodd;stroke-linejoin:round;stroke-miterlimit:2;">
    <path d="M2.542,3.124C2.562,2.921 2.485,2.721 2.334,2.585L0.794,0.73L0.794,0.453L5.576,0.453L9.272,8.559L12.521,0.453L17.08,0.453L17.08,0.73L15.763,1.992C15.65,2.079 15.593,2.221 15.617,2.362L15.617,11.638C15.593,11.779 15.65,11.921 15.763,12.008L17.049,13.27L17.049,13.547L10.581,13.547L10.581,13.27L11.913,11.977C12.044,11.846 12.044,11.807 12.044,11.607L12.044,4.109L8.34,13.516L7.84,13.516L3.527,4.109L3.527,10.414C3.491,10.679 3.58,10.946 3.766,11.138L5.499,13.239L5.499,13.516L0.586,13.516L0.586,13.239L2.318,11.138C2.504,10.946 2.587,10.677 2.542,10.414L2.542,3.124Z" style="fill:white;fill-rule:nonzero;"/>
</svg>
