<svg width="18" height="14" viewBox="0 0 18 14" fill="none" xmlns="http://www.w3.org/2000/svg">
<path d="M2.54181 3.12388C2.5623 2.9214 2.48509 2.72128 2.3339 2.58501L0.793845 0.729768V0.452637H5.57572L9.27185 8.55874L12.5214 0.452637H17.0799V0.729768L15.7632 1.99226C15.6497 2.07879 15.5934 2.22101 15.6169 2.36177V11.638C15.5934 11.7787 15.6497 11.921 15.7632 12.0075L17.0491 13.27V13.5471H10.5809V13.27L11.9131 11.9767C12.044 11.8458 12.044 11.8073 12.044 11.6072V4.10924L8.34012 13.5163H7.8396L3.52745 4.10924V10.414C3.49149 10.6791 3.57953 10.9459 3.76615 11.1376L5.49872 13.2392V13.5163H0.585938V13.2392L2.3185 11.1376C2.50377 10.9456 2.58667 10.677 2.54181 10.414V3.12388Z" fill="black"/>
</svg>
