<svg width="18" height="18" viewBox="0 0 18 18" fill="none" xmlns="http://www.w3.org/2000/svg">
<g clip-path="url(#clip0)">
<path d="M10.6512 11.3866C10.7118 11.4465 10.7118 11.5442 10.6512 11.6048C10.3196 11.9342 9.79989 12.0946 9.06055 12.0946L9.05484 12.0932L9.04914 12.0946C8.31051 12.0946 7.79005 11.9342 7.45852 11.6041C7.39792 11.5442 7.39792 11.4465 7.45852 11.3866C7.51841 11.3268 7.6168 11.3268 7.6774 11.3866C7.94761 11.6554 8.39606 11.7866 9.04914 11.7866L9.05484 11.788L9.06055 11.7866C9.71291 11.7866 10.1614 11.6554 10.4323 11.3866C10.4929 11.3268 10.5913 11.3268 10.6512 11.3866ZM8.19857 9.6627C8.19857 9.30123 7.90341 9.00749 7.54122 9.00749C7.17832 9.00749 6.88316 9.30123 6.88316 9.6627C6.88316 10.0235 7.17832 10.3172 7.54122 10.3172C7.90341 10.3179 8.19857 10.0242 8.19857 9.6627ZM17.6111 8.99965C17.6111 13.7245 13.7804 17.5552 9.05556 17.5552C4.33075 17.5552 0.5 13.7245 0.5 8.99965C0.5 4.27484 4.33075 0.444092 9.05556 0.444092C13.7804 0.444092 17.6111 4.27484 17.6111 8.99965ZM14.0463 8.90767C14.0463 8.30094 13.5508 7.80757 12.9412 7.80757C12.6439 7.80757 12.3744 7.92664 12.1755 8.11771C11.4226 7.6222 10.4038 7.30707 9.27657 7.26643L9.89329 5.32432L11.5638 5.71574L11.5616 5.73998C11.5616 6.2362 11.9673 6.63974 12.4657 6.63974C12.964 6.63974 13.369 6.2362 13.369 5.73998C13.369 5.24376 12.964 4.84022 12.4657 4.84022C12.0828 4.84022 11.757 5.07906 11.6251 5.41344L9.82484 4.99137C9.74642 4.97212 9.66585 5.01775 9.64161 5.09475L8.9536 7.26073C7.77293 7.27499 6.7042 7.59297 5.91781 8.10274C5.72031 7.92093 5.45866 7.80686 5.16919 7.80686C4.56032 7.80757 4.06481 8.30094 4.06481 8.90767C4.06481 9.31121 4.28655 9.66056 4.61237 9.85235C4.59098 9.96928 4.57672 10.0883 4.57672 10.2088C4.57672 11.8351 6.57658 13.1584 9.03488 13.1584C11.4932 13.1584 13.493 11.8351 13.493 10.2088C13.493 10.0948 13.4809 9.98282 13.4617 9.87231C13.8082 9.68623 14.0463 9.32618 14.0463 8.90767ZM10.5727 9.0082C10.2098 9.0082 9.91539 9.30194 9.91539 9.66341C9.91539 10.0242 10.2106 10.3179 10.5727 10.3179C10.9349 10.3179 11.2301 10.0242 11.2301 9.66341C11.2301 9.30194 10.9356 9.0082 10.5727 9.0082Z" fill="black"/>
</g>
<defs>
<clipPath id="clip0">
<rect width="17.1111" height="17.1111" fill="white" transform="translate(0.5 0.444092)"/>
</clipPath>
</defs>
</svg>
