<?xml version="1.0" encoding="UTF-8" standalone="no"?>
<!DOCTYPE svg PUBLIC "-//W3C//DTD SVG 1.1//EN" "http://www.w3.org/Graphics/SVG/1.1/DTD/svg11.dtd">
<svg width="100%" height="100%" viewBox="0 0 18 18" version="1.1" xmlns="http://www.w3.org/2000/svg" xmlns:xlink="http://www.w3.org/1999/xlink" xml:space="preserve" xmlns:serif="http://www.serif.com/" style="fill-rule:evenodd;clip-rule:evenodd;stroke-linejoin:round;stroke-miterlimit:2;">
    <path d="M10.651,11.387C10.712,11.447 10.712,11.544 10.651,11.605C10.32,11.934 9.8,12.095 9.061,12.095L9.055,12.093L9.049,12.095C8.311,12.095 7.79,11.934 7.459,11.604C7.398,11.544 7.398,11.447 7.459,11.387C7.518,11.327 7.617,11.327 7.677,11.387C7.948,11.655 8.396,11.787 9.049,11.787L9.055,11.788L9.061,11.787C9.713,11.787 10.161,11.655 10.432,11.387C10.493,11.327 10.591,11.327 10.651,11.387ZM8.199,9.663C8.199,9.301 7.903,9.007 7.541,9.007C7.178,9.007 6.883,9.301 6.883,9.663C6.883,10.024 7.178,10.317 7.541,10.317C7.903,10.318 8.199,10.024 8.199,9.663ZM17.611,9C17.611,13.725 13.78,17.555 9.056,17.555C4.331,17.555 0.5,13.725 0.5,9C0.5,4.275 4.331,0.444 9.056,0.444C13.78,0.444 17.611,4.275 17.611,9ZM14.046,8.908C14.046,8.301 13.551,7.808 12.941,7.808C12.644,7.808 12.374,7.927 12.176,8.118C11.423,7.622 10.404,7.307 9.277,7.266L9.893,5.324L11.564,5.716L11.562,5.74C11.562,6.236 11.967,6.64 12.466,6.64C12.964,6.64 13.369,6.236 13.369,5.74C13.369,5.244 12.964,4.84 12.466,4.84C12.083,4.84 11.757,5.079 11.625,5.413L9.825,4.991C9.746,4.972 9.666,5.018 9.642,5.095L8.954,7.261C7.773,7.275 6.704,7.593 5.918,8.103C5.72,7.921 5.459,7.807 5.169,7.807C4.56,7.808 4.065,8.301 4.065,8.908C4.065,9.311 4.287,9.661 4.612,9.852C4.591,9.969 4.577,10.088 4.577,10.209C4.577,11.835 6.577,13.158 9.035,13.158C11.493,13.158 13.493,11.835 13.493,10.209C13.493,10.095 13.481,9.983 13.462,9.872C13.808,9.686 14.046,9.326 14.046,8.908ZM10.573,9.008C10.21,9.008 9.915,9.302 9.915,9.663C9.915,10.024 10.211,10.318 10.573,10.318C10.935,10.318 11.23,10.024 11.23,9.663C11.23,9.302 10.936,9.008 10.573,9.008Z" style="fill:white;fill-rule:nonzero;"/>
</svg>
