<svg width="19" height="18" viewBox="0 0 19 18" fill="none" xmlns="http://www.w3.org/2000/svg">
<g clip-path="url(#clip0)">
<path d="M16.8064 5.5429C17.2344 6.56347 17.4648 7.61697 17.4648 8.73631C17.4648 9.85565 17.2344 10.9092 16.8064 11.9297C16.3784 12.9503 15.7858 13.8063 15.0615 14.5635C14.3372 15.2878 13.4483 15.8803 12.4278 16.3083C11.4072 16.7363 10.3537 16.9668 9.23436 16.9668C8.11502 16.9668 7.06152 16.7363 6.04094 16.3083C5.02037 15.8803 4.1644 15.2878 3.4072 14.5635C2.68292 13.8392 2.09033 12.9503 1.66234 11.9297C1.23436 10.9092 1.00391 9.85565 1.00391 8.73631C1.00391 7.61697 1.23436 6.56347 1.66234 5.5429C2.09033 4.52232 2.68292 3.66635 3.4072 2.90915C4.13148 2.18487 5.02037 1.59228 6.04094 1.1643C7.06152 0.736312 8.11502 0.505859 9.23436 0.505859C10.3537 0.505859 11.4072 0.736312 12.4278 1.1643C13.4483 1.59228 14.3043 2.18487 15.0615 2.90915C15.7858 3.66635 16.3455 4.55524 16.8064 5.5429ZM11.901 12.5223L13.2508 6.16841C13.3167 5.90504 13.2837 5.70751 13.1521 5.57582C13.0204 5.44413 12.8887 5.44413 12.6911 5.50997L4.75699 8.5717C4.59238 8.63755 4.4607 8.70339 4.39485 8.80215C4.32901 8.90092 4.32901 8.96676 4.36193 9.03261C4.39485 9.09845 4.49362 9.1643 4.65823 9.19722L6.69938 9.82273L11.4072 6.85977C11.5389 6.761 11.6376 6.761 11.7035 6.79392C11.7364 6.82685 11.7364 6.85977 11.6706 6.92561L7.85164 10.4153L7.68703 12.5223C7.81872 12.5223 7.95041 12.4565 8.11502 12.3248L9.10267 11.3701L11.1438 12.8845C11.5718 13.1149 11.8023 12.9832 11.901 12.5223Z" fill="black"/>
</g>
<defs>
<clipPath id="clip0">
<rect width="17.7778" height="17.7778" fill="white" transform="translate(0.445312 0.11084)"/>
</clipPath>
</defs>
</svg>
