<?xml version="1.0" encoding="UTF-8" standalone="no"?>
<!DOCTYPE svg PUBLIC "-//W3C//DTD SVG 1.1//EN" "http://www.w3.org/Graphics/SVG/1.1/DTD/svg11.dtd">
<svg width="100%" height="100%" viewBox="0 0 19 18" version="1.1" xmlns="http://www.w3.org/2000/svg" xmlns:xlink="http://www.w3.org/1999/xlink" xml:space="preserve" xmlns:serif="http://www.serif.com/" style="fill-rule:evenodd;clip-rule:evenodd;stroke-linejoin:round;stroke-miterlimit:2;">
    <path d="M16.806,5.543C17.234,6.563 17.465,7.617 17.465,8.736C17.465,9.856 17.234,10.909 16.806,11.93C16.378,12.95 15.786,13.806 15.062,14.564C14.337,15.288 13.448,15.88 12.428,16.308C11.407,16.736 10.354,16.967 9.234,16.967C8.115,16.967 7.062,16.736 6.041,16.308C5.02,15.88 4.164,15.288 3.407,14.564C2.683,13.839 2.09,12.95 1.662,11.93C1.234,10.909 1.004,9.856 1.004,8.736C1.004,7.617 1.234,6.563 1.662,5.543C2.09,4.522 2.683,3.666 3.407,2.909C4.131,2.185 5.02,1.592 6.041,1.164C7.062,0.736 8.115,0.506 9.234,0.506C10.354,0.506 11.407,0.736 12.428,1.164C13.448,1.592 14.304,2.185 15.062,2.909C15.786,3.666 16.346,4.555 16.806,5.543ZM11.901,12.522L13.251,6.168C13.317,5.905 13.284,5.708 13.152,5.576C13.02,5.444 12.889,5.444 12.691,5.51L4.757,8.572C4.592,8.638 4.461,8.703 4.395,8.802C4.329,8.901 4.329,8.967 4.362,9.033C4.395,9.098 4.494,9.164 4.658,9.197L6.699,9.823L11.407,6.86C11.539,6.761 11.638,6.761 11.704,6.794C11.736,6.827 11.736,6.86 11.671,6.926L7.852,10.415L7.687,12.522C7.819,12.522 7.95,12.457 8.115,12.325L9.103,11.37L11.144,12.884C11.572,13.115 11.802,12.983 11.901,12.522Z" style="fill:white;fill-rule:nonzero;"/>
</svg>
