<svg width="16" height="14" viewBox="0 0 16 14" fill="none" xmlns="http://www.w3.org/2000/svg">
<path d="M15.6293 2.41413C15.0725 2.65568 14.4837 2.81536 13.8811 2.8882C14.5168 2.50844 14.9932 1.911 15.2219 1.20672C14.6245 1.56232 13.9706 1.81287 13.2885 1.94746C12.8326 1.45307 12.2255 1.12398 11.5625 1.0118C10.8994 0.899614 10.2178 1.01069 9.62467 1.3276C9.03152 1.64451 8.56033 2.14934 8.285 2.76289C8.00967 3.37645 7.94578 4.06405 8.10334 4.71783C6.89551 4.65674 5.71404 4.34224 4.63568 3.79477C3.55732 3.24729 2.60619 2.47909 1.84408 1.54005C1.57678 2.00684 1.43632 2.53548 1.43668 3.07339C1.43573 3.57293 1.55832 4.06495 1.79353 4.50566C2.02874 4.94636 2.36928 5.32206 2.78482 5.59931C2.30184 5.58617 1.82918 5.45657 1.40705 5.22153V5.25857C1.41067 5.95849 1.65593 6.63568 2.10135 7.17558C2.54678 7.71549 3.16501 8.08497 3.85149 8.22153C3.58723 8.30195 3.31288 8.34436 3.03668 8.34746C2.84548 8.34523 2.65477 8.32789 2.4663 8.29561C2.66179 8.89769 3.0401 9.42386 3.54858 9.80091C4.05707 10.178 4.67044 10.3871 5.30334 10.3993C4.2346 11.2403 2.91511 11.6992 1.55519 11.703C1.30759 11.7038 1.06018 11.689 0.814453 11.6586C2.20292 12.5551 3.82098 13.031 5.47371 13.0289C6.61422 13.0408 7.74566 12.8253 8.80195 12.3949C9.85823 11.9646 10.8182 11.3281 11.6257 10.5226C12.4333 9.71717 13.0722 8.75886 13.5052 7.70369C13.9383 6.64851 14.1567 5.51763 14.1478 4.37709C14.1478 4.25116 14.1478 4.11783 14.1478 3.9845C14.729 3.55102 15.2304 3.01963 15.6293 2.41413Z" fill="black"/>
</svg>
