<?xml version="1.0" encoding="UTF-8" standalone="no"?>
<!DOCTYPE svg PUBLIC "-//W3C//DTD SVG 1.1//EN" "http://www.w3.org/Graphics/SVG/1.1/DTD/svg11.dtd">
<svg width="100%" height="100%" viewBox="0 0 16 14" version="1.1" xmlns="http://www.w3.org/2000/svg" xmlns:xlink="http://www.w3.org/1999/xlink" xml:space="preserve" xmlns:serif="http://www.serif.com/" style="fill-rule:evenodd;clip-rule:evenodd;stroke-linejoin:round;stroke-miterlimit:2;">
    <path d="M15.629,2.414C15.073,2.656 14.484,2.815 13.881,2.888C14.517,2.508 14.993,1.911 15.222,1.207C14.624,1.562 13.971,1.813 13.289,1.947C12.833,1.453 12.226,1.124 11.563,1.012C10.899,0.9 10.218,1.011 9.625,1.328C9.032,1.645 8.56,2.149 8.285,2.763C8.01,3.376 7.946,4.064 8.103,4.718C6.896,4.657 5.714,4.342 4.636,3.795C3.557,3.247 2.606,2.479 1.844,1.54C1.577,2.007 1.436,2.535 1.437,3.073C1.436,3.573 1.558,4.065 1.794,4.506C2.029,4.946 2.369,5.322 2.785,5.599C2.302,5.586 1.829,5.457 1.407,5.222L1.407,5.259C1.411,5.958 1.656,6.636 2.101,7.176C2.547,7.715 3.165,8.085 3.851,8.222C3.587,8.302 3.313,8.344 3.037,8.347C2.845,8.345 2.655,8.328 2.466,8.296C2.662,8.898 3.04,9.424 3.549,9.801C4.057,10.178 4.67,10.387 5.303,10.399C4.235,11.24 2.915,11.699 1.555,11.703C1.308,11.704 1.06,11.689 0.814,11.659C2.203,12.555 3.821,13.031 5.474,13.029C6.614,13.041 7.746,12.825 8.802,12.395C9.858,11.965 10.818,11.328 11.626,10.523C12.433,9.717 13.072,8.759 13.505,7.704C13.938,6.649 14.157,5.518 14.148,4.377L14.148,3.985C14.729,3.551 15.23,3.02 15.629,2.414Z" style="fill:white;fill-rule:nonzero;"/>
</svg>
