<svg width="173" height="421" viewBox="0 0 173 421" fill="none" xmlns="http://www.w3.org/2000/svg">
<path d="M131.261 183.427C131.301 183.295 131.441 183.221 131.573 183.261L133.725 183.917C133.857 183.957 133.932 184.097 133.891 184.229C133.851 184.361 133.712 184.435 133.579 184.395L132.004 183.915C180.174 274.794 157.081 359.397 124.679 392.674C87.7484 430.603 38.2155 422.458 0.269554 407.097C0.216028 406.97 0.275812 406.823 0.403086 406.77C38.2983 422.109 87.614 430.025 124.321 392.326C156.549 359.227 179.645 274.867 131.563 184.151L131.083 185.725C131.043 185.857 130.903 185.932 130.771 185.892C130.639 185.851 130.565 185.712 130.605 185.58L131.261 183.427Z" fill="#B9B9B9"/>
<path d="M109.257 0.442887C109.288 0.308475 109.423 0.225107 109.557 0.256681L111.748 0.7712C111.882 0.802773 111.965 0.937331 111.934 1.07174C111.902 1.20616 111.768 1.28952 111.633 1.25795L110.029 0.881161C138.415 46.999 162.026 126.111 169.999 202.849C174 241.364 174.064 279.293 168.809 312.165C163.556 345.031 152.981 372.87 135.682 391.172C128.103 399.19 115.065 410.974 93.5197 416.866C72.0718 422.731 41.5178 422.408 0.272545 407.104C0.215245 406.978 0.270629 406.83 0.396249 406.773C41.5647 422.047 72.062 422.215 93.3878 416.384C114.811 410.526 127.773 398.811 135.318 390.828C152.519 372.631 163.069 344.906 168.316 312.086C173.561 279.27 173.5 241.386 169.501 202.901C161.533 126.21 137.938 47.1794 109.605 1.14602L109.229 2.74761C109.197 2.88202 109.063 2.96539 108.928 2.93381C108.794 2.90224 108.711 2.76768 108.742 2.63327L109.257 0.442887Z" fill="#B9B9B9"/>
</svg>
