<svg width="1033" height="467" viewBox="0 0 1033 467" fill="none" xmlns="http://www.w3.org/2000/svg">
<path d="M1029.22 216.586C1029.45 216.431 1029.76 216.491 1029.91 216.72L1032.44 220.445C1032.59 220.673 1032.53 220.984 1032.3 221.139C1032.08 221.294 1031.77 221.234 1031.61 221.006L1029.76 218.278C1012.56 306.834 979.412 367.406 938.423 406.527C897.25 445.825 848.195 463.445 799.527 466.066C750.865 468.687 702.589 456.314 662.941 435.628C623.768 415.191 592.442 385.142 578.031 354.827C578.126 354.568 578.414 354.435 578.673 354.531C592.966 384.58 624.363 414.373 663.403 434.741C702.911 455.354 751.01 467.678 799.473 465.068C847.93 462.458 896.75 444.92 937.733 405.804C978.536 366.86 1011.6 306.495 1028.78 218.092L1026.06 219.938C1025.83 220.093 1025.52 220.034 1025.36 219.805C1025.21 219.576 1025.27 219.265 1025.49 219.111L1029.22 216.586Z" fill="black"/>
<path d="M651.167 65.5286C651.427 65.6209 651.563 65.9067 651.471 66.167C633.477 74.8551 605.846 91.3191 586.957 118.165C567.833 145.344 556.254 184.04 568.613 238.707L570.354 235.918C570.501 235.683 570.809 235.612 571.043 235.758C571.278 235.904 571.349 236.213 571.203 236.447L568.82 240.265C568.674 240.499 568.365 240.57 568.131 240.424L564.314 238.041C564.079 237.895 564.008 237.587 564.154 237.352C564.3 237.118 564.609 237.047 564.843 237.193L567.64 238.939C555.219 184.004 566.843 145.014 586.139 117.59C605.172 90.5385 633.104 74.2487 651.167 65.5286Z" fill="black"/>
<path d="M652.369 3.66281C652.555 3.86674 652.541 4.18299 652.337 4.36919L649.014 7.4034C648.81 7.58959 648.494 7.57522 648.307 7.37129C648.121 7.16737 648.136 6.85111 648.34 6.66492L650.77 4.44603C498.557 -2.09911 407.579 65.886 361.54 119.498C361.264 119.52 361.023 119.315 361.001 119.04C407.201 65.2367 498.236 -3.11553 650.818 3.44718L648.596 1.0139C648.41 0.809969 648.425 0.493713 648.629 0.307518C648.832 0.121324 649.149 0.135699 649.335 0.339626L652.369 3.66281Z" fill="black"/>
<path d="M1.51881 149.364C1.59373 149.098 1.86993 148.944 2.13571 149.019L6.46693 150.24C6.73272 150.314 6.88744 150.591 6.81253 150.856C6.73761 151.122 6.46141 151.277 6.19563 151.202L3.02876 150.309C42.9612 221.08 89.2278 251.593 138.24 261.486C187.54 271.438 239.687 260.547 291.137 248.575C294.493 247.794 297.847 247.009 301.197 246.224L301.199 246.223C349.146 234.991 396.288 223.947 439.547 229.371C485.637 235.15 527.883 261.054 561.478 323.646C561.397 323.91 561.118 324.059 560.854 323.978C527.396 261.646 485.156 236.097 439.422 230.363C396.35 224.963 349.378 235.965 301.376 247.209L301.358 247.213C298.031 247.993 294.699 248.773 291.363 249.549C239.939 261.515 187.585 272.468 138.042 262.467C88.6952 252.505 42.2043 221.776 2.15452 150.795L1.26043 153.967C1.18551 154.233 0.909312 154.387 0.643527 154.312C0.377742 154.237 0.223015 153.961 0.297934 153.695L1.51881 149.364Z" fill="black"/>
</svg>
