<svg width="754" height="416" viewBox="0 0 754 416" fill="none" xmlns="http://www.w3.org/2000/svg">
<mask id="mask0" mask-type="alpha" maskUnits="userSpaceOnUse" x="563" y="179" width="191" height="192">
<path fill-rule="evenodd" clip-rule="evenodd" d="M563.19 179.702H753.655V370.758H563.19V179.702Z" fill="white"/>
</mask>
<g mask="url(#mask0)">
<path d="M753.655 275.23C753.655 327.989 711.018 370.758 658.422 370.758C605.828 370.758 563.19 327.989 563.19 275.23C563.19 222.47 605.828 179.702 658.422 179.702C711.018 179.702 753.655 222.47 753.655 275.23" stroke="white"/>
</g>
<path d="M194.717 -102.258C149.591 -67.5684 114.02 -20.9987 95.8715 33.0139C55.6182 152.821 114.426 309.741 241.542 346.645C360.29 381.121 496.424 308.267 517.898 182.652C529.651 113.902 538.648 47.5799 609.099 15.3083C623.471 8.72365 638.814 4.28505 652.713 -3.2596C728.835 -44.5856 611.472 -104.429 577.569 -122.205C500.629 -162.548 410.239 -179.715 324.583 -162.024C277.641 -152.329 232.78 -131.52 194.717 -102.258" stroke="white"/>
<path d="M49.963 103.788C49.963 117.34 39.003 128.324 25.4813 128.324C11.961 128.324 1.00098 117.34 1.00098 103.788C1.00098 90.2376 11.961 79.2533 25.4813 79.2533C39.003 79.2533 49.963 90.2376 49.963 103.788" stroke="white"/>
<path d="M218.928 387.184C218.928 413.592 197.568 434.999 171.218 434.999C144.868 434.999 123.507 413.592 123.507 387.184C123.507 360.775 144.868 339.367 171.218 339.367C197.568 339.367 218.928 360.775 218.928 387.184" stroke="white"/>
<path d="M57 140.5C57 143.537 54.5374 146 51.5 146C48.4626 146 46 143.537 46 140.5C46 137.463 48.4626 135 51.5 135C54.5374 135 57 137.463 57 140.5" stroke="white"/>
<mask id="mask1" mask-type="alpha" maskUnits="userSpaceOnUse" x="582" y="195" width="143" height="144">
<path fill-rule="evenodd" clip-rule="evenodd" d="M582.187 267.233C582.187 306.867 614.094 338.997 653.456 338.997C692.817 338.997 724.724 306.867 724.724 267.233C724.724 227.597 692.817 195.466 653.456 195.466C614.094 195.466 582.187 227.597 582.187 267.233Z" fill="white"/>
</mask>
<g mask="url(#mask1)">
<path d="M582.187 267.233C582.187 306.867 614.094 338.997 653.456 338.997V338.997C692.817 338.997 724.724 306.867 724.724 267.233V267.233C724.724 227.597 692.817 195.466 653.456 195.466V195.466C614.094 195.466 582.187 227.597 582.187 267.233" stroke="white"/>
</g>
<mask id="mask2" mask-type="alpha" maskUnits="userSpaceOnUse" x="134" y="-148" width="485" height="433">
<path fill-rule="evenodd" clip-rule="evenodd" d="M324.271 -139.771C286.002 -130.415 249.776 -112.017 219.387 -86.8973C183.358 -57.1172 155.535 -17.8877 142.244 26.9129C112.767 126.288 165.775 253.097 271.293 279.514C369.869 304.193 479.51 240.405 493.389 136.835C500.984 80.1504 506.386 25.5365 563.292 -3.02481C574.901 -8.84976 587.369 -12.9483 598.559 -19.5472C659.851 -55.6975 561.656 -101.202 533.275 -114.75C489.231 -135.77 440.345 -147.724 391.509 -147.725C368.924 -147.725 346.353 -145.169 324.271 -139.771Z" fill="white"/>
</mask>
<g mask="url(#mask2)">
<path d="M324.271 -139.771C286.002 -130.415 249.776 -112.017 219.387 -86.8973V-86.8973C183.358 -57.1172 155.535 -17.8877 142.244 26.9129V26.9129C112.767 126.288 165.775 253.097 271.293 279.514V279.514C369.869 304.193 479.51 240.405 493.389 136.835V136.835C500.984 80.1504 506.386 25.5365 563.292 -3.02481V-3.02481C574.901 -8.84976 587.369 -12.9483 598.559 -19.5472V-19.5472C659.851 -55.6975 561.656 -101.202 533.275 -114.75V-114.75C489.231 -135.77 440.345 -147.724 391.509 -147.725V-147.725C368.924 -147.725 346.353 -145.169 324.271 -139.771" stroke="white"/>
</g>
</svg>
