<svg width="338" height="270" viewBox="0 0 338 270" fill="none" xmlns="http://www.w3.org/2000/svg">
<path opacity="0.0365746" fill-rule="evenodd" clip-rule="evenodd" d="M67.7237 199.272C73.867 199.272 78.7243 199.088 83.5611 199.319C89.481 199.602 95.4092 199.367 101.311 199.696C105.07 199.906 108.82 199.752 112.565 199.969C120.06 200.402 127.568 200.409 135.061 200.724C139.673 200.918 144.287 200.69 148.879 201.006C158.332 201.658 167.791 201.299 177.243 201.254C184.045 201.221 190.856 200.763 197.643 200.242C204.862 199.689 212.023 198.573 219.206 197.678C226.388 196.784 233.576 195.87 240.783 195.14C248.886 194.32 256.947 193.164 264.989 191.849C268.275 191.311 271.65 191.277 274.989 191.103C282.244 190.727 289.511 190.522 296.758 190.022C301.677 189.684 306.608 189.432 311.512 188.991C326.229 187.668 340.976 188.33 355.703 187.938C362.652 187.753 369.598 187.629 376.536 187.749C382.59 187.854 388.666 188.024 394.676 188.997C395.761 189.173 396.931 189.299 397.863 188.29C398.427 187.679 399.273 187.606 400.101 187.71C404.533 188.269 408.965 188.83 413.398 189.379C419.976 190.193 426.499 191.353 432.95 192.842C444.107 195.418 455.203 198.263 466.374 200.774C473.047 202.272 479.771 203.573 486.632 204.078C492.45 204.507 498.266 204.978 504.081 205.449C510.168 205.942 516.219 206.874 522.305 207.389C530.162 208.052 537.923 209.305 545.625 210.894C552.074 212.223 558.501 213.742 564.468 216.642C567.075 217.909 569.521 219.466 571.492 221.671C573.808 224.262 574.854 228.354 573.175 230.975C570.683 234.866 568.5 238.956 563.715 241.022C555.132 244.729 546.507 248.238 537.164 249.289C529.116 250.195 521.164 251.667 513.146 252.713C508.266 253.35 503.37 253.876 498.486 254.482C493.379 255.116 488.28 255.8 483.173 256.44C479.187 256.939 475.195 257.392 471.209 257.887C467 258.408 462.796 258.977 458.586 259.482C456.057 259.786 453.521 260.044 450.983 260.259C445.397 260.732 439.811 261.24 434.216 261.577C431.895 261.717 429.561 261.964 427.247 261.924C422.914 261.848 418.591 262.139 414.29 262.399C407.051 262.835 399.818 262.741 392.6 262.554C387.641 262.426 382.668 261.792 377.706 261.385C372.002 260.916 366.318 260.322 360.657 259.546C354.382 258.686 348.146 257.562 341.881 256.626C337.406 255.959 332.912 255.419 328.427 254.811C323.664 254.167 318.91 253.452 314.138 252.877C310.318 252.416 306.481 252.068 302.644 251.76C296.923 251.302 291.175 251.291 285.455 250.96C279.296 250.604 273.215 251.206 267.098 251.375C262.897 251.49 258.735 251.891 254.565 252.381C248.742 253.066 243.101 254.537 237.454 255.989C227.517 258.543 217.641 261.35 207.598 263.474C201.789 264.703 195.926 265.677 190.027 266.415C185.146 267.026 180.288 267.847 175.397 268.345C172.527 268.637 169.655 268.968 166.769 269.179C161.704 269.549 156.642 269.514 151.581 269.446C140.57 269.3 129.793 267.62 119.317 264.187C113.543 262.294 108.391 259.359 104.381 254.738C102.419 252.477 100.684 250.017 98.9004 247.609C95.0125 242.359 89.7338 239.068 83.7125 236.797C74.6031 233.363 65.1943 231.12 55.5915 229.551C49.885 228.619 44.1383 228.154 38.4034 227.516C29.7495 226.553 21.0043 226.184 12.5054 224.113C8.7584 223.2 5.00548 222.08 2.09178 219.352C-0.665745 216.77 -0.679889 213.053 1.94857 210.32C4.68547 207.473 8.09245 205.709 11.7593 204.35C17.4883 202.229 23.4389 201.235 29.492 200.602C36.2234 199.896 42.9761 199.837 49.7217 199.515C56.1626 199.208 62.5905 199.519 67.7237 199.272Z" fill="black"/>
<path fill-rule="evenodd" clip-rule="evenodd" d="M72.5864 0L72.4403 31.7332L109.62 31.905L116.288 38.6192L116.32 31.9352L116.466 0.201477L72.5864 0Z" fill="#FFD542"/>
<path fill-rule="evenodd" clip-rule="evenodd" d="M91.0976 17.2259C91.0915 19.073 92.588 20.5743 94.4386 20.581C96.2887 20.5861 97.7945 19.0939 97.7996 17.2469C97.8062 15.4009 96.3097 13.898 94.4596 13.8924C92.6085 13.8862 91.1033 15.3784 91.0976 17.2259Z" fill="white"/>
<path fill-rule="evenodd" clip-rule="evenodd" d="M80.0914 17.1918C80.0852 19.0378 81.5807 20.5402 83.4319 20.5453C85.2825 20.5504 86.7877 19.0588 86.7939 17.2117C86.799 15.3647 85.3035 13.8633 83.4534 13.8577C81.6022 13.8521 80.0975 15.3447 80.0914 17.1918Z" fill="white"/>
<path fill-rule="evenodd" clip-rule="evenodd" d="M101.851 17.2599C101.846 19.1059 103.341 20.6083 105.192 20.6134C107.043 20.6201 108.548 19.1269 108.554 17.2809C108.559 15.4343 107.064 13.9319 105.213 13.9258C103.363 13.9207 101.858 15.4134 101.851 17.2599Z" fill="white"/>
<path fill-rule="evenodd" clip-rule="evenodd" d="M170.542 30.0044L228.446 30.2703L228.254 72.1484L228.213 80.9689L219.414 72.1075L170.35 71.881L170.542 30.0044Z" fill="#00C620"/>
<path fill-rule="evenodd" clip-rule="evenodd" d="M189.064 60.2453H192.583C193.129 60.2453 193.574 59.8004 193.574 59.2558V50.2972C193.574 49.7526 193.129 49.3072 192.583 49.3072H189.064C188.518 49.3072 188.073 49.7526 188.073 50.2972V59.2558C188.073 59.8004 188.518 60.2453 189.064 60.2453ZM199.278 42.1696V40.9255C199.267 40.1093 199.985 39.3853 200.801 39.3853C201.577 39.3853 202.097 39.8736 202.277 40.5266C202.666 41.9359 203.059 43.3539 201.252 47.1079H205.683H206.663C207.587 47.1079 208.335 47.855 208.335 48.7754C208.335 49.612 207.717 50.3049 206.912 50.4246C207.706 50.4762 208.335 51.1364 208.335 51.9418C208.335 52.7814 207.653 53.4621 206.811 53.4621H206.801C207.337 53.6845 207.714 54.2117 207.714 54.8274C207.714 55.507 207.253 56.0797 206.627 56.2521C206.926 56.5144 207.114 56.8984 207.114 57.3259C207.114 58.115 206.473 58.7547 205.683 58.7547H195.878C195.374 58.7547 194.96 58.343 194.96 57.8388V51.0449C194.96 45.6883 199.278 43.872 199.278 42.1696Z" fill="white"/>
<path fill-rule="evenodd" clip-rule="evenodd" d="M20.1629 117.253C20.1629 117.253 21.0496 119.638 21.7358 120.018C22.4241 120.399 22.6117 125.718 22.6706 126.351C22.7177 126.883 22.3282 127.4 22.1212 127.319C21.9157 127.238 21.4549 124.458 21.0332 123.6C20.678 122.882 20.4217 122.629 20.3264 122.889C20.2316 123.148 20.5755 126.028 20.759 127.582C20.9209 128.953 20.7031 133.338 19.9615 132.981C19.221 132.624 17.6384 125.951 17.4882 123.834C17.3396 121.717 17.7106 118.991 17.7106 118.991L20.1629 117.253Z" fill="#EEA886"/>
<path fill-rule="evenodd" clip-rule="evenodd" d="M54.5572 47.7339C54.5572 47.7339 57.048 43.0156 55.8344 37.9914C54.6192 32.9668 48.5333 27.5182 41.7381 29.9523C36.9154 31.6792 34.9285 37.7941 35.6613 41.0801C37.2675 48.2765 31.8545 51.9931 33.1147 55.8119C34.2197 59.1655 34.3499 61.7775 33.5068 62.4551C32.6637 63.1342 29.9444 65.5544 30.2442 68.4186C30.5445 71.2843 43.518 60.0701 43.518 60.0701C43.518 60.0701 50.5859 45.9027 54.5572 47.7339Z" fill="#303669"/>
<path fill-rule="evenodd" clip-rule="evenodd" d="M74.2439 212.116C74.2439 212.116 78.573 217.932 77.9795 218.854C77.385 219.775 72.833 219.907 70.0614 218.854C67.2903 217.8 67.2237 210.985 65.9711 208.057C65.4458 206.832 66.5687 203.213 68.1482 202.95C69.7278 202.688 71.4451 203.459 71.4451 203.459C71.4451 203.459 69.8072 207.583 74.2439 212.116Z" fill="#303669"/>
<path fill-rule="evenodd" clip-rule="evenodd" d="M71.474 203.412C71.474 203.412 72.1038 205.758 72.437 208.123C72.7127 210.084 75.802 214.376 75.6708 214.903C75.5371 215.43 71.9747 215.908 70.5238 214.55C69.0719 213.191 68.1381 209.243 67.8178 206.882C67.5211 204.681 67.1449 203.595 67.1449 203.595C67.1449 203.595 70.0882 201.963 71.474 203.412Z" fill="#EEA886"/>
<path fill-rule="evenodd" clip-rule="evenodd" d="M65.9714 208.057V214.145H66.7622V209.44L65.9714 208.057Z" fill="#303669"/>
<path fill-rule="evenodd" clip-rule="evenodd" d="M36.5629 212.213C36.5629 212.213 40.7362 217.932 40.1412 218.854C39.5477 219.775 34.9952 219.907 32.2246 218.854C29.453 217.8 29.3864 210.985 28.1328 208.057C27.6095 206.832 28.7314 203.212 30.3114 202.95C31.8899 202.688 33.7421 203.514 33.7421 203.514C33.7421 203.514 32.1252 207.68 36.5629 212.213Z" fill="#303669"/>
<path fill-rule="evenodd" clip-rule="evenodd" d="M33.7422 203.514C33.7422 203.514 34.0722 206.214 34.5996 208.124C35.127 210.032 37.9652 214.376 37.833 214.903C37.7012 215.43 34.1378 215.908 32.6864 214.55C31.234 213.192 30.1127 209.261 29.9809 206.882C29.8482 204.502 30.3115 202.95 30.3115 202.95C30.3115 202.95 32.3564 202.066 33.7422 203.514Z" fill="#EEA886"/>
<path fill-rule="evenodd" clip-rule="evenodd" d="M28.1329 208.057V214.145H28.9258V209.44L28.1329 208.057Z" fill="#303669"/>
<path fill-rule="evenodd" clip-rule="evenodd" d="M17.1311 120.128C17.4453 120.198 21.7431 119.028 21.3823 118.757C21.2403 118.65 24.2477 100.922 25.8354 93.2616C26.8399 88.4093 29.4552 78.3963 29.4552 78.3963C29.4552 78.3963 29.9318 79.6634 30.6709 85.3943C31.1408 89.0449 31.0747 91.8615 30.8871 96.158C30.7226 99.9349 29.8749 102.606 29.1236 104.413L29.2834 104.442C28.505 106.436 27.7322 108.701 26.9689 111.263C25.0353 117.754 24.2281 122.278 24.0583 126.639C22.3816 136.871 22.202 151.033 22.4337 163.92C22.7027 178.826 24.3248 184.292 24.3248 184.292C24.3248 184.292 25.5764 185.264 27.9144 186.468C28.8711 194.666 30.0559 203.25 30.2571 203.574C30.5984 204.122 33.7421 203.514 33.7421 203.514C33.7421 203.514 34.3419 196.359 34.9399 189.253C39.1541 190.485 44.5065 191.333 50.7846 190.844C56.6969 190.383 59.6253 189.691 61.1382 189.07C63.9932 196.571 67.2366 204.335 67.8495 204.759C69.8426 206.141 71.7337 204.623 71.7337 204.623C71.7337 204.623 69.5199 194.368 67.9349 186.504C68.9516 186.179 70.0212 185.917 71.0299 185.67C74.8074 184.745 77.7306 184.03 73.8185 181.012C68.5997 176.986 64.0321 158.234 62.2604 150.96C61.9727 149.779 61.7587 148.9 61.6276 148.437C61.5538 148.175 61.4707 147.782 61.3794 147.278C60.586 140.415 59.637 132.842 59.1631 130.428C59.0717 129.963 58.9538 129.348 58.8162 128.622C58.0903 123.44 57.3531 118.9 56.7392 117.413C55.8851 112.756 55.1533 108.733 55.1533 108.733C55.1533 108.733 54.945 108.187 54.5567 107.291C54.3116 105.492 54.0049 102.596 53.8277 99.5565V99.556C53.7964 99.0278 53.7687 98.4944 53.7462 97.9621C53.5622 93.5147 53.7216 89.115 54.8147 87.6939C57.6299 84.0341 57.8846 78.8401 57.7165 75.9463C57.7165 75.9463 65.5034 89.9966 65.9908 91.0561C67.2567 93.8106 64.6702 93.735 62.1979 93.6627H62.1979C61.4482 93.6408 60.709 93.6191 60.0909 93.6768L54.3832 93.0126L55.8018 96.7369L67.7846 96.0854C73.3693 95.4216 75.447 92.1714 71.4377 84.2545C70.2179 81.8475 62.6724 67.5191 61.365 66.1573C60.055 64.7961 54.5785 61.6404 49.1747 59.9381C43.7724 58.2353 39.2706 59.371 39.2706 59.371C39.2706 59.371 32.6932 60.61 27.562 62.6386C24.2415 63.9518 19.4389 89.1963 19.219 90.4384C18.0951 96.7481 16.5361 119.994 17.1311 120.128Z" fill="#BC995A"/>
<path fill-rule="evenodd" clip-rule="evenodd" d="M37.1718 59.5588C37.1718 59.5588 40.1571 72.5971 45.5865 75.0828C45.5865 75.0828 51.5171 67.552 49.4723 59.6192C49.4723 59.6192 43.1695 57.1544 37.1718 59.5588Z" fill="#303669"/>
<path fill-rule="evenodd" clip-rule="evenodd" d="M44.7119 63.4724C49.0466 62.6542 48.1246 60.2493 48.1246 60.2493C48.1246 60.2493 47.9243 58.8921 47.8453 57.1755C47.8264 56.7362 47.813 56.274 47.8156 55.8035C47.8182 55.0902 47.852 54.3625 47.9355 53.6757C48.2902 50.7737 40.0671 52.5052 40.0671 52.5052C40.0671 52.5052 40.5417 58.3798 39.4075 60.1394C38.2739 61.9005 40.3772 64.2891 44.7119 63.4724Z" fill="#303669"/>
<path fill-rule="evenodd" clip-rule="evenodd" d="M52.7427 35.9899C52.7427 35.9899 57.2829 44.7184 52.7806 52.9877C48.2773 61.2564 39.43 49.3866 38.857 47.9942C38.2841 46.6018 35.2506 38.7242 41.2847 36.331C47.3194 33.9373 51.4579 33.6203 52.7427 35.9899Z" fill="#EEA886"/>
<path fill-rule="evenodd" clip-rule="evenodd" d="M46.4138 92.0726C46.4138 92.0726 44.042 89.6467 43.6837 89.7868C43.3245 89.928 44.6826 92.4659 44.6826 92.4659L46.4138 92.0726Z" fill="#EEA886"/>
<path fill-rule="evenodd" clip-rule="evenodd" d="M47.8453 57.1751C47.8263 56.7363 47.813 56.2741 47.8155 55.8036C47.8155 55.8036 45.7302 55.552 43.9774 53.8589C43.9774 55.0454 45.5577 56.8788 47.8453 57.1751Z" fill="#303669"/>
<path fill-rule="evenodd" clip-rule="evenodd" d="M54.7719 40.5583C48.3191 31.448 39.3555 47.5227 40.9679 49.8611C42.5807 52.2006 42.7918 54.3664 42.4423 56.8389C42.0918 59.3108 51.5305 73.11 43.6554 76.42C35.7798 79.7291 31.6434 65.8072 32.8114 62.3816C33.9297 59.0971 36.3605 58.5745 36.5306 54.2816C36.6998 49.9887 32.8114 27.6077 53.28 34.3659L54.7719 40.5583Z" fill="#303669"/>
<path fill-rule="evenodd" clip-rule="evenodd" d="M41.9094 101.291L45.7608 100.146C46.4076 99.9541 46.7745 99.2761 46.5823 98.6312L43.6442 88.7885C43.4515 88.1442 42.7734 87.777 42.1261 87.9693L38.2737 89.1132C37.6279 89.3055 37.26 89.9841 37.4532 90.6279L40.3903 100.471C40.583 101.116 41.2626 101.483 41.9094 101.291Z" fill="#D8D8D8"/>
<path fill-rule="evenodd" clip-rule="evenodd" d="M49.6077 92.8707C49.6077 92.8707 48.9952 93.1484 48.4571 93.018C47.5269 92.7925 46.7125 91.602 45.5169 92.2295C44.3207 92.8574 45.421 96.976 46.0478 97.5753C46.6751 98.1756 48.5519 97.8023 50.8725 96.2033C53.1952 94.6048 49.6077 92.8707 49.6077 92.8707Z" fill="#EEA886"/>
<path fill-rule="evenodd" clip-rule="evenodd" d="M45.9528 92.0728C45.9528 92.0728 43.9115 92.2343 41.6672 92.6757C39.6977 93.0628 37.4904 93.8625 37.4155 94.2639C37.3335 94.7114 39.4502 94.155 41.4315 93.8947C43.2565 93.6559 42.9413 93.9914 42.9413 93.9914C42.9413 93.9914 43.0259 93.8912 41.0958 94.5171C39.0202 95.19 36.9671 96.0788 36.9364 96.5641C36.9215 96.8003 37.0471 96.901 37.845 96.7732C37.4032 96.9399 37.3904 97.0775 37.4504 97.2585C37.7517 98.1912 40.9702 97.6517 42.2489 97.437C41.268 97.6078 40.569 97.8322 41.1486 98.295C41.8118 98.8248 46.3238 97.868 47.9746 97.6717C49.7781 97.4579 45.9528 92.0728 45.9528 92.0728Z" fill="#EEA886"/>
<path fill-rule="evenodd" clip-rule="evenodd" d="M48.6462 97.8426L67.7886 97.1369C74.0529 95.8912 75.7436 91.8525 71.7338 83.9355C71.0558 82.5963 68.6209 78.0456 66.3695 74.0381L58.7788 77.0096C60.754 80.5779 64.2754 86.1502 64.6674 87.0052C66.3187 90.5945 63.2801 90.5454 60.3876 90.9397L48.9778 91.9466L48.6462 97.8426Z" fill="#BC995A"/>
<path fill-rule="evenodd" clip-rule="evenodd" d="M33.766 203.23C33.766 203.23 32.7512 203.776 30.1662 203.23L29.9576 203.789C29.9576 203.789 32.4166 204.57 33.766 203.789C33.766 203.789 33.8874 203.605 33.766 203.23Z" fill="#303669"/>
<path fill-rule="evenodd" clip-rule="evenodd" d="M71.474 203.412C71.474 203.412 70.349 204.111 67.1623 203.609L66.9916 204.15C66.9916 204.15 70.042 205.098 71.6375 204.06C71.6375 204.06 71.6472 203.861 71.474 203.412Z" fill="#303669"/>
<path fill-rule="evenodd" clip-rule="evenodd" d="M48.6462 97.8435L54.1233 99.2416C54.1233 99.2416 54.1233 99.2411 54.1243 99.238V99.237C54.093 98.7087 54.0654 98.1754 54.0428 97.6431L48.6462 97.8435Z" fill="#806738"/>
<path fill-rule="evenodd" clip-rule="evenodd" d="M41.8295 89.4536C41.8295 89.7726 42.0894 90.0319 42.4097 90.0319C42.7279 90.0319 42.9878 89.7726 42.9878 89.4536C42.9878 89.1345 42.7279 88.8762 42.4097 88.8762C42.0894 88.8762 41.8295 89.1345 41.8295 89.4536Z" fill="#48484D"/>
<path fill-rule="evenodd" clip-rule="evenodd" d="M46.6334 56.8787L47.8452 55.8925C47.8452 55.8925 39.5895 49.2053 42.0176 45.1292C44.4457 41.053 39.1041 43.4459 39.1041 43.4459L37.1718 52.2717L46.6334 56.8787Z" fill="#303669"/>
<path fill-rule="evenodd" clip-rule="evenodd" d="M161.1 208.386L159.724 203.832L153.545 204.719L154.394 208.817L161.1 208.386Z" fill="#EEA886"/>
<path fill-rule="evenodd" clip-rule="evenodd" d="M120.458 208.73L120.068 211.21L113.343 209.97L113.768 206.261L120.458 208.73Z" fill="#EEA886"/>
<path fill-rule="evenodd" clip-rule="evenodd" d="M136.302 129.151C136.302 129.151 137.345 138.046 138.492 147.162C138.752 149.235 139.019 151.322 139.278 153.316C140.134 159.868 140.926 165.44 141.264 166.417C142.175 169.049 152.218 205.427 152.218 205.427C152.218 205.427 160.769 206.307 161.1 205.23C161.1 205.23 154.367 164.294 154.49 162.801C154.615 161.31 153.147 119.236 153.147 119.236C153.147 119.236 136.802 126.733 136.302 129.151Z" fill="#00732F"/>
<path fill-rule="evenodd" clip-rule="evenodd" d="M277.017 212.45L268.77 157.722L270.357 157.479L278.604 212.205L277.017 212.45Z" fill="black"/>
<path fill-rule="evenodd" clip-rule="evenodd" d="M266.945 212.45L258.698 157.722L260.288 157.479L268.534 212.205L266.945 212.45Z" fill="black"/>
<path fill-rule="evenodd" clip-rule="evenodd" d="M217.342 212.45L215.753 212.205L224.001 157.479L225.588 157.722L217.342 212.45Z" fill="black"/>
<path fill-rule="evenodd" clip-rule="evenodd" d="M271.35 158.28L277.81 90.4612C277.81 90.4612 266.511 88.9874 259.684 89.3505L249.422 158.28H271.35Z" fill="#037F4D"/>
<path fill-rule="evenodd" clip-rule="evenodd" d="M249.422 158.28H271.35V154.833H249.422V158.28Z" fill="#084834"/>
<path fill-rule="evenodd" clip-rule="evenodd" d="M235.077 155.517L231.648 90.8889C231.648 90.8889 260.245 87.7911 277.81 90.4609L235.077 155.517Z" fill="#037F4D"/>
<path fill-rule="evenodd" clip-rule="evenodd" d="M257.913 69.9621C257.913 69.9621 262.328 57.0415 253.902 53.036C245.475 49.03 238.32 54.8211 236.97 57.9538C235.618 61.0864 235.975 66.7835 237.128 70.7563C238.281 74.7296 238.113 80.778 235.609 82.7994C233.105 84.8234 230 88.1815 230.154 95.0205C230.249 99.2622 246.884 84.1678 246.884 84.1678L257.913 69.9621Z" fill="#FCCCA2"/>
<path fill-rule="evenodd" clip-rule="evenodd" d="M246.669 208.997C246.669 208.997 246.407 218.129 247.714 218.677C249.019 219.227 253.966 216.051 256.147 212.911C258.329 209.772 253.414 202.463 252.607 198.432C252.27 196.743 248.426 193.707 246.553 194.576C244.678 195.447 243.311 197.676 243.311 197.676C243.311 197.676 248.079 200.937 246.669 208.997Z" fill="#D4C3BD"/>
<path fill-rule="evenodd" clip-rule="evenodd" d="M243.311 197.676C243.311 197.676 244.934 200.792 245.768 203.21C246.603 205.628 246.758 212.324 247.284 212.788C247.809 213.253 251.955 211.167 252.508 208.663C253.06 206.16 251.38 201.156 249.78 198.524C248.18 195.894 246.553 194.576 246.553 194.576C246.553 194.576 243.726 195.124 243.311 197.676Z" fill="#DE9673"/>
<path fill-rule="evenodd" clip-rule="evenodd" d="M252.607 198.432L257.061 204.918L256.217 205.494L252.775 200.481L252.607 198.432Z" fill="#D4C3BD"/>
<path fill-rule="evenodd" clip-rule="evenodd" d="M236.576 126.725C236.576 126.725 238.754 130.394 236.576 133.065C234.398 135.737 219.756 143.076 219.863 147.315C219.97 151.553 222.653 158.188 223.616 159.87C224.58 161.554 228.136 168.538 229.984 172.626C231.832 176.713 242.514 196.268 244.603 200.676C246.691 205.084 245.406 183.045 245.406 183.045L234.724 151.789L259.684 127.525C259.684 127.525 256.662 120.816 236.576 126.725Z" fill="#D59575"/>
<path fill-rule="evenodd" clip-rule="evenodd" d="M246.072 85.332C246.072 85.332 239.146 86.8636 236.398 88.4682C233.648 90.0708 227.544 97.4447 227.544 100.614C227.544 103.785 254.241 106.747 254.241 106.747L259.301 125.181C259.301 125.181 272.796 121.894 274.403 119.169C276.008 116.444 269.089 97.0494 268.125 92.9616C267.162 88.8753 262.112 86.118 256.491 85.332C250.868 84.5476 246.072 85.332 246.072 85.332Z" fill="#464473"/>
<path fill-rule="evenodd" clip-rule="evenodd" d="M262.441 127.331C262.441 127.331 261.96 130.483 263.244 131.818C264.53 133.156 270.45 140.944 267.315 148.596C264.436 155.624 258.853 155.489 258.853 155.489H250.214C250.214 155.489 252.722 168.139 251.912 176.472C251.102 184.807 247.291 203.841 247.211 204.802C247.131 205.765 243.559 208.772 242.514 207.249C242.514 207.249 242.418 195.788 241.855 191.46C241.293 187.132 238.9 169.821 238.176 167.257C237.454 164.692 233.197 156.917 233.197 156.116C233.197 155.315 229.038 142.767 238.116 139.562C247.191 136.355 250.4 127.398 262.441 127.331Z" fill="#EEA886"/>
<path fill-rule="evenodd" clip-rule="evenodd" d="M238.213 216.088C238.213 216.088 232.254 223.023 232.924 224.269C233.594 225.517 239.44 226.152 243.116 225.079C246.791 224.006 247.576 215.239 249.49 211.599C250.292 210.076 249.217 205.302 247.212 204.802C245.206 204.304 242.737 205.18 242.737 205.18C242.737 205.18 244.39 210.706 238.213 216.088Z" fill="#E6D3CC"/>
<path fill-rule="evenodd" clip-rule="evenodd" d="M242.737 205.18C242.737 205.18 242.035 208.62 241.159 211.024C240.284 213.428 236.187 218.73 236.302 219.421C236.418 220.112 240.955 221.091 242.963 219.492C244.97 217.892 246.818 212.948 247.233 209.897C247.645 206.848 247.211 204.803 247.211 204.803C247.211 204.803 244.669 203.457 242.737 205.18Z" fill="#EEA886"/>
<path fill-rule="evenodd" clip-rule="evenodd" d="M249.49 211.599L248.865 219.436L247.846 219.354L248.328 213.298L249.49 211.599Z" fill="#E6D3CC"/>
<path fill-rule="evenodd" clip-rule="evenodd" d="M267.315 148.596C264.597 155.716 258.853 155.489 258.853 155.489H250.215C250.215 155.489 246.61 149.791 237.785 148.812C235.829 148.595 233.616 148.61 231.13 148.97C231.1 148.974 231.07 148.978 231.04 148.983C219.314 150.716 221.579 155.011 221.614 155.123C220.641 152.748 219.617 148.973 219.863 146.94C220.988 137.679 234.398 135.738 236.576 133.065C238.754 130.393 236.576 126.725 236.576 126.725C256.663 120.816 259.684 127.526 259.684 127.526C260.564 127.404 262.821 126.107 263.78 126.101C263.78 126.101 264.786 128.292 265.494 130.27C266.118 132.013 270.263 140.871 267.315 148.596Z" fill="#464473"/>
<path fill-rule="evenodd" clip-rule="evenodd" d="M251.41 161.554L225.588 163.838C225.588 163.838 221.163 155.517 220.67 151.972C220.178 148.428 219.664 140.977 228.778 137.292C237.893 133.608 252.615 142.384 252.615 142.384L251.997 150.02L250.233 154.833L251.41 161.554Z" fill="#464473"/>
<path fill-rule="evenodd" clip-rule="evenodd" d="M258.981 97.6096L261.953 125.181H222.835L219.863 97.6096H258.981Z" fill="#DED1C5"/>
<path fill-rule="evenodd" clip-rule="evenodd" d="M258.532 125.181H265.066V122.7H258.532V125.181Z" fill="#DED1C5"/>
<path fill-rule="evenodd" clip-rule="evenodd" d="M195.877 128.933H303.623V125.181H195.877V128.933Z" fill="#BC8551"/>
<path fill-rule="evenodd" clip-rule="evenodd" d="M250.401 55.2395C250.401 55.2395 259.164 57.8265 257.913 69.9621C256.66 82.0978 250.936 81.4734 250.401 81.5624C249.864 81.6509 243.068 82.0978 240.921 67.3751C238.775 52.652 250.401 55.2395 250.401 55.2395Z" fill="#EEA886"/>
<path fill-rule="evenodd" clip-rule="evenodd" d="M254.577 79.3299C254.577 79.3299 254.114 83.3477 254.888 85.8468C255.664 88.3458 244.68 88.4138 244.687 86.3592C244.693 84.0253 245.81 82.0749 244.758 78.0756C243.707 74.0752 254.577 79.3299 254.577 79.3299Z" fill="#EEA886"/>
<path fill-rule="evenodd" clip-rule="evenodd" d="M248.138 60.6512C248.138 60.6512 252.901 68.2092 257.912 69.9622C257.912 69.9622 260.649 57.2798 249.346 54.6213C238.042 51.9657 239.813 67.433 240.657 71.5566C240.657 71.5566 243.01 65.4888 248.138 60.6512Z" fill="#FCCCA2"/>
<path fill-rule="evenodd" clip-rule="evenodd" d="M246.058 79.8428C246.058 79.8428 249.525 83.4479 253.961 80.2176C253.961 80.2176 253.594 82.5218 250.404 82.8204C247.215 83.117 246.058 79.8428 246.058 79.8428Z" fill="#A77860"/>
<path fill-rule="evenodd" clip-rule="evenodd" d="M256.01 85.2687C256.01 85.2687 255.854 93.6683 249.179 93.9179C242.502 94.1674 243.892 85.8613 243.892 85.8613C243.892 85.8613 248.776 83.8875 256.01 85.2687Z" fill="#EEA886"/>
<path fill-rule="evenodd" clip-rule="evenodd" d="M300.855 215.136H303.623V128.933H300.855V215.136Z" fill="#807066"/>
<path fill-rule="evenodd" clip-rule="evenodd" d="M195.877 215.136H198.644V128.933H195.877V215.136Z" fill="#807066"/>
<path fill-rule="evenodd" clip-rule="evenodd" d="M127.266 116.378C127.266 116.378 118.453 157.526 117.707 160.675C116.959 163.824 112.281 207.151 112.281 207.151C112.281 207.151 115.023 209.068 121.593 208.735C121.593 208.735 131.584 163.264 132.382 161.754C135.479 155.897 146.203 126.85 147.698 122.79C149.193 118.729 153.327 114.626 153.327 114.626C153.327 114.626 142.525 108.316 127.266 116.378Z" fill="#00732F"/>
<path fill-rule="evenodd" clip-rule="evenodd" d="M104.402 72.1026C104.402 72.1026 98.1844 68.723 97.6022 68.8631C97.019 69.0027 96.8755 69.3668 97.4449 69.7079C98.0143 70.0495 103.367 73.156 103.367 73.156C103.367 73.156 95.4097 70.456 94.9049 70.4581C94.6107 70.4596 94.293 71.1479 94.5826 71.3601C94.8726 71.5718 102.629 74.7249 102.629 74.7249C102.629 74.7249 95.194 72.2177 94.7763 72.3537C94.4109 72.4723 94.2699 73.1857 94.8111 73.4117C95.3503 73.6377 102.138 76.3761 102.138 76.3761C102.138 76.3761 96.6274 74.911 96.3425 75.2495C96.1698 75.4561 95.8684 76.036 97.3009 76.3669C98.7323 76.6977 102.042 77.8555 102.042 77.8555L104.402 72.1026Z" fill="#EEA886"/>
<path fill-rule="evenodd" clip-rule="evenodd" d="M111.002 77.1603C111.002 77.1603 109.02 75.912 109.119 74.5349C109.203 73.3634 108.515 71.7639 108.304 71.2709C108.022 70.6112 107.856 68.2641 107.081 68.6134C106.304 68.9631 107.178 72.4931 107.223 73.2693C107.269 74.044 104.642 71.9203 103.883 71.927C103.125 71.9326 100.176 76.6776 102.134 77.9171C104.09 79.1572 106.916 79.128 107.222 79.4169C107.527 79.7069 108.614 80.3788 108.614 80.3788L111.002 77.1603Z" fill="#EEA886"/>
<path fill-rule="evenodd" clip-rule="evenodd" d="M131.602 71.9866C131.602 71.9866 127.074 83.6876 126.147 83.6411C125.22 83.5945 109.727 76.0391 109.727 76.0391C109.727 76.0391 107.287 79.5159 108.049 80.018C109.113 80.7186 128.789 95.5686 130.312 94.8333C131.839 94.0974 132.528 84.9916 132.528 84.9916C132.528 84.9916 136.33 72.4969 131.602 71.9866Z" fill="#EEA886"/>
<path fill-rule="evenodd" clip-rule="evenodd" d="M130.256 53.8238C130.256 53.8238 130.288 54.2605 130.327 54.9339C130.355 55.4305 130.388 56.0554 130.413 56.7319C130.481 58.5646 130.496 60.7686 130.252 61.7709C129.794 63.6445 138.299 56.0262 138.299 56.0262C138.299 56.0262 137.876 49.8111 138.518 42.876C139.159 35.9398 130.256 53.8238 130.256 53.8238Z" fill="#EEA886"/>
<path fill-rule="evenodd" clip-rule="evenodd" d="M126.04 91.7691C126.241 92.5504 126.447 93.364 126.653 94.217C126.747 94.6092 126.834 95.0162 126.913 95.4355C128.074 101.459 127.048 111.196 126.082 120.982C126.082 120.982 131.801 123.954 154.392 127.585C155.288 98.3488 148.7 68.4146 148.7 68.4146C147.023 62.068 143.538 59.7766 138.285 55.813C138.285 55.813 137.723 55.746 130.58 60.8438C130.081 61.2008 127.571 65.8378 126.124 70.9688C123.567 80.0466 124.224 84.7455 126.04 91.7691Z" fill="#EDDAD3"/>
<path fill-rule="evenodd" clip-rule="evenodd" d="M130.327 54.9339C130.356 55.4304 130.399 56.3928 130.425 57.0683C133.208 55.1369 134.516 53.3272 135.195 52.5586C133.919 53.8263 130.327 54.9339 130.327 54.9339Z" fill="#A77860"/>
<path fill-rule="evenodd" clip-rule="evenodd" d="M132.425 69.8563C132.425 69.8563 132.901 62.5551 140.837 64.0089C145.205 64.8097 146.405 69.8415 143.944 88.6617C143.944 88.6617 142.179 101.512 141.377 103.071C138.463 108.735 125.377 129.186 123.228 129.308L118.846 128.53C118.846 128.53 124.87 116.512 127.021 111.868C129.183 107.198 132.534 97.4638 132.534 97.4638L132.425 69.8563Z" fill="#EEA886"/>
<path fill-rule="evenodd" clip-rule="evenodd" d="M138.492 147.162C138.752 149.236 139.019 151.323 139.278 153.316C139.278 153.315 139.278 153.315 139.278 153.314C142.452 145.309 145.641 128.434 145.704 128.132C145.262 129.327 138.492 147.162 138.492 147.162Z" fill="#084834"/>
<path fill-rule="evenodd" clip-rule="evenodd" d="M138.285 55.8127C138.285 55.8127 127.601 67.5 124.943 76.0392C124.943 76.0392 125.682 68.9553 130.385 60.8701C130.385 60.8701 133.69 55.8782 138.285 55.8127Z" fill="#EEA886"/>
<path fill-rule="evenodd" clip-rule="evenodd" d="M124.955 36.3271C124.955 36.3271 122.025 41.2858 122.015 42.3249C122.005 43.3634 123.265 43.3665 122.605 44.4537C121.947 45.5413 120.607 47.5771 121.253 48.2362C121.897 48.8954 123.436 48.5732 123.757 49.9876C124.076 51.4021 125.865 55.7103 127.833 55.7021C129.804 55.694 136.575 52.2878 137.026 50.9009C137.476 49.5136 140.048 41.7787 140.867 40.2907C141.685 38.8026 127.431 31.6236 126.193 33.9748L124.955 36.3271Z" fill="#EEA886"/>
<path fill-rule="evenodd" clip-rule="evenodd" d="M125.219 35.8266C125.219 35.8266 123.1 34.7983 123.856 32.7058C124.612 30.6133 126.417 27.8366 130.555 29.1692C134.693 30.5018 137.821 33.3276 140.681 33.7878C143.541 34.2496 144.204 37.0294 141.69 42.21C139.177 47.3901 138.168 49.9423 138.168 49.9423C138.168 49.9423 137.304 45.473 136.217 45.6459C135.132 45.8187 133.386 42.8727 133.386 42.8727L133.096 43.6341L131.166 43.5058C131.166 43.5058 133.684 38.0761 132.351 37.3904C131.017 36.7036 125.427 36.4295 125.219 35.8266Z" fill="#464473"/>
<path fill-rule="evenodd" clip-rule="evenodd" d="M131.166 43.5056C131.166 43.5056 129.885 48.1498 128.826 48.2004C127.766 48.2506 124.15 48.8432 123.475 49.374C123.475 49.374 122.945 49.7775 123.169 50.4515C123.392 51.1254 124.029 55.1432 122.75 56.4764C122.75 56.4764 123.661 57.9107 128.226 56.3158C132.791 54.7214 135.195 52.5588 135.195 52.5588C135.195 52.5588 131.922 46.3427 133.096 43.634L131.166 43.5056Z" fill="#464473"/>
<path fill-rule="evenodd" clip-rule="evenodd" d="M133.388 42.0808C133.388 42.0808 134.718 39.5736 137.133 41.3142C138.889 42.5799 136.554 46.8099 134.735 46.7255C132.917 46.6406 132.402 44.2771 133.388 42.0808Z" fill="#EEA886"/>
<path fill-rule="evenodd" clip-rule="evenodd" d="M145.353 79.6012L129.572 77.0076C129.572 77.0076 130.492 60.5764 139.8 61.2668C149.107 61.9566 147.851 69.8428 145.353 79.6012Z" fill="#EDDAD3"/>
<path fill-rule="evenodd" clip-rule="evenodd" d="M119.353 127.742C119.353 127.742 117.977 128.752 117.26 128.874C116.542 128.997 112.08 129.534 111.678 130.409C111.277 131.283 108.032 136.434 108.742 136.946C109.452 137.458 109.807 137.044 110.019 136.662C110.233 136.279 112.856 132.848 113.238 132.717C113.238 132.717 111.081 136.575 111.792 137.423C112.502 138.27 113.35 137.894 113.921 137.954C114.495 138.012 115.532 138.489 116.395 137.851C117.258 137.212 120.274 132.423 121.035 131.658C121.796 130.894 125.252 127.794 125.241 127.574C125.228 127.353 119.353 127.742 119.353 127.742Z" fill="#EEA886"/>
<path fill-rule="evenodd" clip-rule="evenodd" d="M120.068 211.21C120.068 211.21 114.994 210.137 114.819 209.979C114.643 209.821 113.585 207.797 112.793 208.132C112 208.469 111.947 210.911 111.169 211.311C110.393 211.711 104.243 215.7 103.483 216.433C102.724 217.165 98.1285 216.645 97.5786 217.932C97.0266 219.219 96.9287 222.28 103.806 221.68C110.685 221.081 118.507 222.333 119.998 221.55C121.491 220.766 120.506 213.191 120.068 211.21Z" fill="#30230B"/>
<path fill-rule="evenodd" clip-rule="evenodd" d="M161.1 208.386C161.1 208.386 155.919 208.137 155.721 208.01C155.523 207.881 154.153 206.051 153.425 206.509C152.696 206.968 153.035 209.387 152.332 209.905C151.629 210.424 146.199 215.344 145.565 216.19C144.934 217.033 140.314 217.254 139.977 218.612C139.64 219.97 140.034 223.007 146.728 221.317C153.421 219.626 161.342 219.615 162.689 218.602C164.037 217.591 161.85 210.271 161.1 208.386Z" fill="#30230B"/>
</svg>
