<svg width="1080" height="839" viewBox="0 0 1080 839" fill="none" xmlns="http://www.w3.org/2000/svg">
<mask id="mask0" mask-type="alpha" maskUnits="userSpaceOnUse" x="806" y="472" width="274" height="274">
<path fill-rule="evenodd" clip-rule="evenodd" d="M806.271 472.514H1079.27V745.654H806.271V472.514Z" fill="white"/>
</mask>
<g mask="url(#mask0)">
<path d="M1079.27 609.084C1079.27 684.511 1018.16 745.654 942.77 745.654C867.385 745.654 806.271 684.511 806.271 609.084C806.271 533.658 867.385 472.514 942.77 472.514C1018.16 472.514 1079.27 533.658 1079.27 609.084" stroke="#D0D0D0"/>
</g>
<path d="M278.128 69.416C213.447 119.01 162.462 185.587 136.449 262.805C78.7528 434.085 163.044 658.422 345.243 711.181C515.448 760.47 710.572 656.316 741.353 476.733C758.198 378.445 771.094 283.629 872.073 237.493C892.673 228.079 914.665 221.733 934.587 210.947C1043.69 151.866 875.475 66.3121 826.88 40.8999C716.6 -16.7767 587.041 -41.3191 464.268 -16.0266C396.985 -2.16654 332.684 27.5824 278.128 69.416" stroke="#D0D0D0"/>
<path d="M71.0755 364.441C71.0755 383.817 55.3896 399.522 36.0375 399.522C16.6873 399.522 1.0014 383.817 1.0014 364.441C1.0014 345.067 16.6873 329.362 36.0375 329.362C55.3896 329.362 71.0755 345.067 71.0755 364.441" stroke="#D0D0D0"/>
<path d="M312.897 769.633C312.897 807.391 282.326 837.999 244.615 837.999C206.903 837.999 176.331 807.391 176.331 769.633C176.331 731.875 206.903 701.266 244.615 701.266C282.326 701.266 312.897 731.875 312.897 769.633" stroke="#D0D0D0"/>
<path d="M81 416C81 420.418 77.418 424 73 424C68.582 424 65 420.418 65 416C65 411.582 68.582 408 73 408C77.418 408 81 411.582 81 416" stroke="#D0D0D0"/>
<mask id="mask1" mask-type="alpha" maskUnits="userSpaceOnUse" x="833" y="495" width="205" height="206">
<path fill-rule="evenodd" clip-rule="evenodd" d="M833.269 598.334C833.269 655.032 879.01 700.996 935.436 700.996C991.863 700.996 1037.6 655.032 1037.6 598.334C1037.6 541.632 991.863 495.666 935.436 495.666C879.01 495.666 833.269 541.632 833.269 598.334Z" fill="white"/>
</mask>
<g mask="url(#mask1)">
<path d="M833.269 598.334C833.269 655.032 879.01 700.996 935.436 700.996V700.996C991.863 700.996 1037.6 655.032 1037.6 598.334V598.334C1037.6 541.632 991.863 495.666 935.436 495.666V495.666C879.01 495.666 833.269 541.632 833.269 598.334" stroke="#D0D0D0"/>
</g>
<mask id="mask2" mask-type="alpha" maskUnits="userSpaceOnUse" x="192" y="4" width="694" height="620">
<path fill-rule="evenodd" clip-rule="evenodd" d="M464.265 15.783C409.504 29.1795 357.667 55.523 314.182 91.4911C262.628 134.132 222.815 190.304 203.797 254.453C161.616 396.746 237.468 578.319 388.457 616.144C529.511 651.481 686.4 560.146 706.259 411.847C717.128 330.682 724.858 252.482 806.286 211.586C822.898 203.245 840.739 197.377 856.751 187.928C944.455 136.165 803.945 71.0081 763.333 51.6093C700.31 21.5118 630.357 4.39536 560.476 4.39337C528.159 4.39337 495.862 8.05347 464.265 15.783Z" fill="white"/>
</mask>
<g mask="url(#mask2)">
<path d="M464.265 15.783C409.504 29.1795 357.667 55.523 314.182 91.4911V91.4911C262.628 134.132 222.815 190.304 203.797 254.453V254.453C161.616 396.746 237.468 578.319 388.457 616.144V616.144C529.511 651.481 686.4 560.146 706.259 411.847V411.847C717.128 330.682 724.858 252.482 806.286 211.586V211.586C822.898 203.245 840.739 197.377 856.751 187.928V187.928C944.455 136.165 803.945 71.0081 763.333 51.6093V51.6093C700.31 21.5118 630.357 4.39536 560.476 4.39337V4.39337C528.159 4.39337 495.862 8.05347 464.265 15.783" stroke="#D0D0D0"/>
</g>
</svg>
