<svg width="324" height="256" viewBox="0 0 324 256" fill="none" xmlns="http://www.w3.org/2000/svg">
<path opacity="0.0365746" fill-rule="evenodd" clip-rule="evenodd" d="M-182.276 185.783C-176.133 185.783 -171.276 185.599 -166.439 185.83C-160.519 186.113 -154.591 185.878 -148.689 186.207C-144.93 186.417 -141.18 186.263 -137.435 186.48C-129.94 186.913 -122.432 186.92 -114.939 187.235C-110.327 187.429 -105.713 187.201 -101.121 187.517C-91.6675 188.169 -82.2092 187.81 -72.7574 187.765C-65.9552 187.732 -59.1442 187.274 -52.3567 186.753C-45.1385 186.2 -37.9768 185.084 -30.7939 184.189C-23.6122 183.295 -16.424 182.381 -9.217 181.651C-1.11415 180.831 6.94742 179.675 14.989 178.36C18.2751 177.822 21.6497 177.788 24.9889 177.614C32.2443 177.238 39.5115 177.033 46.758 176.533C51.6766 176.195 56.6076 175.943 61.5121 175.502C76.2291 174.179 90.9756 174.841 105.703 174.449C112.652 174.264 119.598 174.14 126.536 174.26C132.59 174.365 138.666 174.535 144.676 175.508C145.761 175.684 146.931 175.81 147.863 174.801C148.427 174.19 149.273 174.117 150.101 174.221C154.533 174.78 158.965 175.341 163.398 175.89C169.976 176.704 176.499 177.864 182.95 179.353C194.107 181.929 205.203 184.774 216.374 187.285C223.047 188.783 229.771 190.084 236.632 190.589C242.45 191.018 248.266 191.489 254.081 191.96C260.168 192.453 266.219 193.385 272.305 193.9C280.162 194.563 287.923 195.816 295.625 197.404C302.074 198.734 308.501 200.253 314.468 203.153C317.075 204.42 319.521 205.977 321.492 208.182C323.808 210.773 324.854 214.865 323.175 217.486C320.683 221.377 318.5 225.467 313.715 227.533C305.132 231.24 296.507 234.749 287.164 235.8C279.116 236.706 271.164 238.178 263.146 239.224C258.266 239.861 253.37 240.386 248.486 240.993C243.379 241.627 238.28 242.311 233.173 242.951C229.187 243.45 225.195 243.903 221.209 244.398C217 244.919 212.796 245.487 208.586 245.993C206.057 246.297 203.521 246.555 200.983 246.77C195.397 247.243 189.811 247.751 184.216 248.088C181.895 248.228 179.561 248.475 177.247 248.435C172.914 248.359 168.591 248.65 164.29 248.91C157.051 249.346 149.818 249.252 142.6 249.065C137.641 248.937 132.668 248.303 127.706 247.896C122.002 247.427 116.318 246.833 110.657 246.057C104.382 245.197 98.1455 244.073 91.8809 243.137C87.406 242.47 82.9117 241.93 78.4268 241.322C73.6637 240.678 68.9101 239.963 64.1382 239.388C60.3175 238.927 56.4809 238.579 52.6437 238.271C46.923 237.813 41.1746 237.802 35.455 237.471C29.2964 237.115 23.215 237.717 17.0982 237.886C12.8974 238.001 8.73489 238.402 4.56473 238.892C-1.25797 239.577 -6.89853 241.048 -12.5462 242.5C-22.4831 245.054 -32.3592 247.861 -42.4022 249.985C-48.2113 251.214 -54.0741 252.188 -59.9734 252.926C-64.8543 253.537 -69.7116 254.358 -74.6032 254.856C-77.4733 255.148 -80.3451 255.479 -83.2305 255.69C-88.2959 256.06 -93.3578 256.025 -98.419 255.957C-109.43 255.811 -120.207 254.131 -130.683 250.698C-136.457 248.805 -141.609 245.869 -145.619 241.248C-147.581 238.988 -149.316 236.528 -151.1 234.12C-154.987 228.87 -160.266 225.579 -166.287 223.308C-175.397 219.874 -184.806 217.631 -194.408 216.062C-200.115 215.13 -205.862 214.665 -211.597 214.027C-220.25 213.064 -228.996 212.695 -237.495 210.624C-241.242 209.711 -244.995 208.591 -247.908 205.863C-250.666 203.281 -250.68 199.564 -248.051 196.831C-245.315 193.983 -241.908 192.22 -238.241 190.861C-232.512 188.74 -226.561 187.746 -220.508 187.113C-213.777 186.407 -207.024 186.348 -200.278 186.026C-193.837 185.719 -187.409 186.03 -182.276 185.783Z" fill="black"/>
<path fill-rule="evenodd" clip-rule="evenodd" d="M292.523 121.423C292.503 172.428 291.071 182.412 278.235 193.839C273.208 198.315 263.963 207.612 237.288 212.241C229.28 213.631 219.703 214.6 208.2 214.892C203.506 215.011 199.198 214.842 195.257 214.413C191.953 214.057 188.907 213.517 186.108 212.818C156.791 205.488 154.602 180.424 167.424 159.34C170.82 153.756 174.701 148.624 178.769 143.838C185.048 136.448 191.781 129.883 197.878 123.755C203.497 118.109 208.578 112.832 212.271 107.624C213.829 105.429 215.139 103.247 216.14 101.053C216.378 100.533 216.617 100.02 216.858 99.5112C217.647 97.8534 218.459 96.2605 219.278 94.7361C220.818 91.874 222.386 89.2579 223.899 86.9163C225.105 85.0458 226.276 83.3521 227.366 81.8487C231.11 76.686 233.89 73.7871 233.89 73.7871C233.89 73.7871 234.237 73.624 234.878 73.3596C235.218 73.2169 235.644 73.0451 236.146 72.8544C236.348 72.7771 236.559 72.6974 236.785 72.6145C237.008 72.5327 237.242 72.4478 237.488 72.3609C237.714 72.2816 237.948 72.1993 238.189 72.1175C238.473 72.0203 238.769 71.9221 239.078 71.8219C239.258 71.7636 239.442 71.7038 239.63 71.6455C239.741 71.6102 239.855 71.5749 239.968 71.5402C240.01 71.5279 240.054 71.5136 240.098 71.5008C243.903 70.3374 249.124 69.124 254.806 68.9215C271.654 68.3216 292.544 76.6108 292.523 121.423Z" fill="#4CA380"/>
<path fill-rule="evenodd" clip-rule="evenodd" d="M271 113.582C270.992 134.538 270.419 138.64 265.287 143.335C263.277 145.174 259.58 148.994 248.915 150.895C245.713 151.466 241.884 151.865 237.284 151.985C235.407 152.034 233.685 151.964 232.109 151.788C230.788 151.642 229.57 151.42 228.451 151.133C216.729 148.121 215.854 137.823 220.98 129.161C222.338 126.867 223.89 124.758 225.517 122.792C228.027 119.756 230.719 117.058 233.157 114.541C235.404 112.221 237.435 110.053 238.912 107.913C239.535 107.011 240.059 106.115 240.459 105.213C240.554 105 240.65 104.789 240.746 104.58C241.062 103.899 241.386 103.244 241.714 102.618C242.33 101.442 242.956 100.367 243.561 99.4053C244.043 98.6368 244.512 97.941 244.947 97.3233C246.444 95.2022 247.556 94.0111 247.556 94.0111C247.556 94.0111 247.695 93.9441 247.951 93.8355C248.087 93.7769 248.258 93.7063 248.458 93.6279C248.539 93.5962 248.623 93.5634 248.714 93.5294C248.803 93.4958 248.896 93.4609 248.995 93.4252C249.085 93.3926 249.179 93.3588 249.275 93.3252C249.389 93.2852 249.507 93.2449 249.63 93.2037C249.702 93.1798 249.776 93.1552 249.851 93.1312C249.896 93.1168 249.941 93.1023 249.986 93.088C250.003 93.0829 250.021 93.077 250.038 93.0718C251.56 92.5938 253.647 92.0953 255.919 92.0121C262.656 91.7656 271.008 95.1713 271 113.582Z" fill="#239265"/>
<path fill-rule="evenodd" clip-rule="evenodd" d="M224.366 65.9763C224.366 65.9763 225.035 88.099 222.222 89.5586C219.41 91.0182 225.716 91.0182 225.716 91.0182L228.591 89.5586L231.164 88.2799L232.501 83.9355L231.564 76.1468L224.366 65.9763Z" fill="#A7A7A7"/>
<path fill-rule="evenodd" clip-rule="evenodd" d="M211.498 0.114014L153.594 0.379923L153.786 42.258L153.827 51.0786L162.626 42.2171L211.69 41.9906L211.498 0.114014Z" fill="#00732F"/>
<path d="M193.505 18.9946L183.317 8.76209C182.716 8.16018 181.744 8.16731 181.151 8.76132C180.554 9.36174 180.554 10.3366 181.151 10.9363L191.341 21.168C191.938 21.7675 192.908 21.7675 193.505 21.168C194.104 20.567 194.104 19.5955 193.505 18.9946Z" fill="white"/>
<path d="M180.395 12.3508L180.318 12.7368C179.778 15.4501 178.465 18.0278 176.689 20.117L182.233 25.6835C184.313 23.9008 186.845 22.5472 189.547 22.0041L189.932 21.9271L180.395 12.3508Z" fill="white"/>
<path fill-rule="evenodd" clip-rule="evenodd" d="M171.884 25.0736L175.673 21.27L181.085 26.704L177.296 30.508C176.397 31.4106 174.944 31.4069 174.049 30.508L171.884 28.3345C170.985 27.4319 170.989 25.9725 171.884 25.0736ZM175.132 27.2478C175.431 27.548 175.915 27.548 176.214 27.2478L177.296 26.1611C177.595 25.8609 177.595 25.3745 177.296 25.0744C176.997 24.7742 176.513 24.7742 176.214 25.0744L175.132 26.1611C174.833 26.4613 174.833 26.9477 175.132 27.2478Z" fill="white"/>
<path d="M184.28 30.9171L185.321 29.8717C186.22 28.9691 186.217 27.5097 185.321 26.6116L184.548 25.8345C184.121 26.1228 183.712 26.436 183.316 26.7703L184.239 27.699C184.537 27.9969 184.539 28.4818 184.239 28.785L183.181 29.8477L181.625 28.3346L179.461 30.5082L182.933 33.8869C183.526 34.4835 184.499 34.4869 185.097 33.8862C185.694 33.2865 185.694 32.3116 185.097 31.7119L184.28 30.9171Z" fill="white"/>
<path d="M187.372 8.10327C186.949 8.10327 186.607 8.44701 186.607 8.87179V10.4088C186.607 10.8336 186.949 11.1774 187.372 11.1774C187.795 11.1774 188.137 10.8336 188.137 10.4088V8.87179C188.137 8.44701 187.795 8.10327 187.372 8.10327Z" fill="white"/>
<path d="M193.495 14.2515H191.964C191.541 14.2515 191.199 14.5952 191.199 15.02C191.199 15.4448 191.541 15.7885 191.964 15.7885H193.495C193.918 15.7885 194.26 15.4448 194.26 15.02C194.26 14.5952 193.918 14.2515 193.495 14.2515Z" fill="white"/>
<path d="M192.505 9.86552C192.206 9.56533 191.722 9.56533 191.423 9.86552L189.892 11.4026C189.593 11.7027 189.593 12.1891 189.892 12.4893C190.191 12.7895 190.676 12.7895 190.974 12.4893L192.505 10.9523C192.804 10.6521 192.804 10.1657 192.505 9.86552Z" fill="white"/>
<mask id="mask0" mask-type="alpha" maskUnits="userSpaceOnUse" x="247" y="18" width="52" height="46">
<path fill-rule="evenodd" clip-rule="evenodd" d="M247.685 18.4014H298.804V63.2434H247.685V18.4014Z" fill="white"/>
</mask>
<g mask="url(#mask0)">
<path fill-rule="evenodd" clip-rule="evenodd" d="M298.634 18.4014L247.685 18.6361L247.855 55.4829L247.89 63.2434L255.633 55.4461L298.804 55.2482L298.634 18.4014Z" fill="#BC995A"/>
<path d="M268.698 38.4984C269.31 38.4984 269.901 38.458 270.46 38.3828V32.114C269.901 32.0389 269.31 31.9985 268.698 31.9985C265.207 31.9985 262.376 33.3112 262.376 34.9305V35.5664C262.376 37.1856 265.207 38.4984 268.698 38.4984Z" fill="white"/>
<path d="M268.698 41.7716C269.31 41.7716 269.901 41.7312 270.46 41.6561V39.8187C269.901 39.8938 269.31 39.9347 268.698 39.9347C265.651 39.9347 263.107 38.9345 262.509 37.6033C262.422 37.7972 262.376 37.998 262.376 38.2038V38.8396C262.376 40.4589 265.207 41.7716 268.698 41.7716Z" fill="white"/>
<path d="M270.46 43.2349V43.0921C269.901 43.1672 269.31 43.2082 268.698 43.2082C265.651 43.2082 263.107 42.2079 262.509 40.8767C262.422 41.0706 262.376 41.2713 262.376 41.4772V42.113C262.376 43.7324 265.207 45.045 268.698 45.045C269.397 45.045 270.068 44.9924 270.696 44.8954C270.54 44.5698 270.46 44.2265 270.46 43.8707V43.2349Z" fill="white"/>
<path d="M277.814 27.0327C274.322 27.0327 271.492 28.3454 271.492 29.9647V30.6005C271.492 32.2198 274.322 33.5325 277.814 33.5325C281.305 33.5325 284.136 32.2198 284.136 30.6005V29.9647C284.136 28.3454 281.305 27.0327 277.814 27.0327Z" fill="white"/>
<path d="M277.814 34.9689C274.766 34.9689 272.222 33.9687 271.625 32.6375C271.538 32.8313 271.492 33.0321 271.492 33.238V33.8738C271.492 35.4931 274.322 36.8058 277.814 36.8058C281.305 36.8058 284.136 35.4931 284.136 33.8738V33.238C284.136 33.0321 284.09 32.8313 284.003 32.6375C283.405 33.9687 280.862 34.9689 277.814 34.9689Z" fill="white"/>
<path d="M277.814 38.2423C274.766 38.2423 272.222 37.2421 271.625 35.9109C271.538 36.1047 271.492 36.3055 271.492 36.5114V37.1473C271.492 38.7666 274.322 40.0793 277.814 40.0793C281.305 40.0793 284.136 38.7666 284.136 37.1473V36.5114C284.136 36.3055 284.09 36.1047 284.003 35.9109C283.405 37.2422 280.862 38.2423 277.814 38.2423Z" fill="white"/>
<path d="M277.814 41.6925C274.766 41.6925 272.222 40.6923 271.625 39.3611C271.538 39.555 271.492 39.7557 271.492 39.9615V40.5974C271.492 42.2168 274.322 43.5294 277.814 43.5294C281.305 43.5294 284.136 42.2168 284.136 40.5974V39.9615C284.136 39.7557 284.09 39.5549 284.003 39.3611C283.405 40.6922 280.862 41.6925 277.814 41.6925Z" fill="white"/>
<path d="M277.814 44.9657C274.766 44.9657 272.222 43.9655 271.625 42.6343C271.538 42.8282 271.492 43.0291 271.492 43.2348V43.8706C271.492 45.4899 274.322 46.8026 277.814 46.8026C281.305 46.8026 284.136 45.4899 284.136 43.8706V43.2347C284.136 43.0289 284.09 42.8281 284.003 42.6343C283.405 43.9655 280.862 44.9657 277.814 44.9657Z" fill="white"/>
</g>
<path fill-rule="evenodd" clip-rule="evenodd" d="M196.499 200.627L196.815 198.17L203.926 198.333L203.848 200.517C203.848 200.517 203.848 200.517 203.848 200.517C203.861 200.547 205.029 203.378 205.191 205.127C205.356 206.883 204.249 207.612 202.116 208.511C201.204 208.897 200.585 209.776 199.899 210.749C198.981 212.052 197.944 213.525 195.925 214.211C192.399 215.411 185.683 215.298 185.889 211.613C186.009 209.434 187.731 208.493 189.492 207.531C190.711 206.864 191.948 206.188 192.686 205.084C194.481 202.397 196.479 200.644 196.499 200.627ZM202.218 200.947C202.052 200.981 201.892 201.008 201.75 201.024C201.905 201.002 202.061 200.976 202.218 200.947Z" fill="#00194D"/>
<path fill-rule="evenodd" clip-rule="evenodd" d="M212.853 200.529L212.566 198.068L219.505 196.506L219.958 198.644C219.958 198.644 219.958 198.644 219.958 198.644C219.977 198.67 221.796 201.135 222.376 202.792C222.961 204.456 222.063 205.431 220.211 206.82C219.42 207.415 219.031 208.417 218.601 209.527C218.026 211.014 217.376 212.694 215.583 213.848C212.452 215.866 205.908 217.38 205.216 213.755C204.806 211.612 206.249 210.282 207.724 208.923C208.746 207.981 209.783 207.025 210.232 205.775C211.324 202.734 212.838 200.55 212.853 200.529ZM218.48 199.456C218.327 199.528 218.179 199.593 218.045 199.643C218.189 199.585 218.335 199.522 218.48 199.456Z" fill="#00194D"/>
<path fill-rule="evenodd" clip-rule="evenodd" d="M220.669 100.766C220.669 100.766 219.317 108.786 218.228 114.082C217.786 116.23 217.388 117.931 217.141 118.465C216.828 119.14 214.292 121.857 211.188 125.047C205.741 130.642 198.543 137.688 198.543 137.688L195.729 132.358C195.729 132.358 202.122 124.881 206.457 119.891C208.462 117.584 210.027 115.808 210.314 115.551C211.219 114.743 212.27 106.773 213.749 100.208C215.227 93.6416 218.19 90.0134 218.19 90.0134L220.669 100.766Z" fill="#E8E8E8"/>
<path fill-rule="evenodd" clip-rule="evenodd" d="M211.188 125.047C205.741 130.641 198.543 137.688 198.543 137.688L195.729 132.359C195.729 132.359 202.122 124.881 206.456 119.892C207.784 120.542 210.223 122.093 211.188 125.047Z" fill="#EEA886"/>
<path fill-rule="evenodd" clip-rule="evenodd" d="M246.448 136.603C246.65 137.317 209.415 136.603 209.415 136.603C209.415 136.603 219.715 129.123 220.383 127.126C221.051 125.127 217.76 113.137 217.331 109.236C216.988 106.114 216.127 92.1462 218.19 90.0133C220.345 87.7828 228.107 85.4453 228.107 85.4453L239.425 85.8657C239.425 85.8657 241.293 86.2538 242.628 86.873C243.963 87.4918 251.599 90.2051 252.838 94.0112C254.078 97.8183 245.22 110.056 245.22 110.056C245.22 110.056 245.202 110.606 245.176 111.507C245.141 112.709 245.091 114.536 245.045 116.518C244.986 119.083 244.933 121.909 244.933 123.972C244.933 128.826 246.248 135.89 246.448 136.603Z" fill="#E8E8E8"/>
<path fill-rule="evenodd" clip-rule="evenodd" d="M251.248 146.68C251.45 147.516 251.574 148.331 251.585 149.093C251.592 149.579 251.515 150.174 251.368 150.856L251.585 150.949C251.585 150.949 251.247 151.88 250.62 153.49C249.822 155.867 248.614 158.711 247.322 161.509C242.665 172.279 234.731 188.504 226.247 196.459C224.725 197.886 223.152 199.013 221.558 199.891C221.635 199.726 221.711 199.544 221.787 199.347C222.08 198.589 222.379 197.581 222.679 196.393C223.278 194.014 223.882 190.879 224.425 187.493C225.511 180.724 226.359 172.922 226.428 168.117C226.461 165.831 227.457 164.11 229.012 162.776C230.576 161.433 232.706 160.483 234.985 159.773C237.26 159.063 239.656 158.6 241.739 158.215L242.22 158.126C243.076 157.968 243.871 157.822 244.568 157.674C245.39 157.5 246.096 157.321 246.612 157.113C247.685 156.68 248.575 155.677 249.274 154.427C249.977 153.169 250.509 151.621 250.843 150.032C251.078 148.914 251.217 147.768 251.248 146.68ZM250.453 144.184C250.518 144.558 250.564 144.958 250.59 145.38C250.674 146.771 250.541 148.358 250.216 149.9C249.892 151.443 249.379 152.927 248.716 154.114C248.048 155.309 247.249 156.165 246.372 156.52C245.912 156.705 245.254 156.875 244.436 157.048C243.748 157.194 242.962 157.339 242.106 157.496L241.623 157.586C239.54 157.971 237.11 158.44 234.794 159.162C232.481 159.883 230.256 160.864 228.595 162.29C226.924 163.724 225.825 165.61 225.788 168.107C225.72 172.868 224.877 180.637 223.793 187.392C223.251 190.768 222.651 193.883 222.058 196.236C221.762 197.414 221.469 198.393 221.19 199.116C221.05 199.478 220.917 199.768 220.791 199.984C220.661 200.208 220.558 200.322 220.491 200.366C220.372 200.446 220.244 200.531 220.11 200.619C209.89 205.283 199.231 200.417 196.319 198.886C196.066 198.84 195.808 198.789 195.545 198.733C195.545 198.733 183.665 155.673 183.283 151.391C182.903 147.109 182.716 140.048 211.992 134.68L246.449 136.605C246.449 136.605 248.94 140.256 250.453 144.184Z" fill="#E8E8E8"/>
<path fill-rule="evenodd" clip-rule="evenodd" d="M231.212 60.9109C231.212 60.9109 221.389 58.7008 223.632 71.0364C225.877 83.3725 228.24 84.3416 234.166 81.7888C240.094 79.2361 239.563 71.3325 239.861 67.4574C240.159 63.5812 234.348 61.0464 231.212 60.9109Z" fill="#EEA886"/>
<path fill-rule="evenodd" clip-rule="evenodd" d="M228.613 88.6123C228.613 88.6123 232.965 93.2146 239.84 89.0316C239.84 89.0316 238.303 79.0565 239.112 74.1995C239.921 69.3411 230.141 81.7263 230.141 81.7263C230.269 81.7943 230.354 82.2581 230.374 82.9178C230.391 83.4762 230.361 84.1762 230.271 84.8942C230.069 86.5091 229.567 88.2155 228.613 88.6123Z" fill="#EEA886"/>
<path fill-rule="evenodd" clip-rule="evenodd" d="M237.706 69.7788C236.283 69.6576 237.706 75.0595 237.706 75.0595C237.706 75.0595 239.904 67.9476 236.706 68.3659C233.507 68.7843 235.082 68.0867 233.661 67.4915C232.24 66.8963 224.456 69.3662 223.316 68.3659C222.175 67.3672 222.713 60.4567 224.776 59.5112C226.837 58.5651 232.533 56.4466 236.706 59.2652C236.706 59.2652 239.959 58.895 240.442 61.5142C240.924 64.1339 240.267 71.8391 239.382 73.7869C239.382 73.7869 239.129 69.8995 237.706 69.7788Z" fill="#3A3F47"/>
<path fill-rule="evenodd" clip-rule="evenodd" d="M230.271 84.894C237.365 82.7115 237.9 78.4492 237.907 78.3838C235.572 82.3883 230.374 82.9181 230.374 82.9181C230.391 83.4765 230.361 84.1765 230.271 84.894Z" fill="#A77860"/>
<path fill-rule="evenodd" clip-rule="evenodd" d="M205.156 136.081C205.156 136.081 230.87 139.244 246.449 136.605L216.682 132.893C216.682 132.893 216.506 133.65 205.156 136.081Z" fill="#E8E8E8"/>
<path fill-rule="evenodd" clip-rule="evenodd" d="M224.388 131.724L222.473 132.693C222.473 132.693 222.91 135.729 223.958 136.649L226.108 136.102C226.108 136.102 225.66 132.772 224.388 131.724Z" fill="#EEA886"/>
<path fill-rule="evenodd" clip-rule="evenodd" d="M254.144 125.507C253.761 125.95 248.706 127.979 242.995 130.174L242.994 130.174C235.193 133.173 226.392 136.01 226.392 136.01L224.389 131.724C224.389 131.724 233.604 126.728 239.832 123.223C242.774 121.568 245.048 120.246 245.37 119.941C246.372 118.989 246.631 117.464 245.895 114.802C245.158 112.141 243.462 99.9091 243.271 98.4819C243.081 97.0552 243.748 93.2486 247.324 93.0578C250.901 92.8676 252.722 93.876 252.722 93.876C252.722 93.876 253.619 94.2478 254.287 102.907C254.955 111.567 255.049 124.461 254.144 125.507Z" fill="#E8E8E8"/>
<path fill-rule="evenodd" clip-rule="evenodd" d="M245.176 111.508C245.142 112.709 245.09 114.536 245.044 116.518C241.554 107.981 243.571 101.167 243.606 101.053C243.228 103.37 245.149 111.394 245.176 111.508Z" fill="#B0B0B0"/>
<path fill-rule="evenodd" clip-rule="evenodd" d="M218.228 114.082C217.786 116.229 217.388 117.931 217.141 118.465C215.948 112.709 217.021 105.338 217.021 105.338C217.183 108.859 218.228 114.082 218.228 114.082Z" fill="#B0B0B0"/>
<path fill-rule="evenodd" clip-rule="evenodd" d="M242.995 130.174L242.994 130.174C235.192 133.173 226.108 136.101 226.108 136.101L224.388 131.724C224.388 131.724 233.605 126.728 239.832 123.223C239.832 123.223 242.098 124.325 242.995 130.174Z" fill="#EEA886"/>
<path fill-rule="evenodd" clip-rule="evenodd" d="M223.834 136.357L187.284 135.819L205.737 145.167L223.834 136.357Z" fill="#959595"/>
<path fill-rule="evenodd" clip-rule="evenodd" d="M205.738 145.167L223.834 138.174V136.357L204.308 143.384L205.738 145.167Z" fill="#C8C8C8"/>
<path fill-rule="evenodd" clip-rule="evenodd" d="M222.886 132.759C222.886 132.759 220.604 132.405 219.026 132.038C217.804 131.754 214.768 132.145 213.995 132.927C213.222 133.709 210.762 139.158 210.297 139.489C209.831 139.823 210.535 140.591 211.351 140.205C211.351 140.205 212.102 142.589 213.953 141.697C215.804 140.804 217.061 138.855 218.03 138.513C218.999 138.17 224.646 136.438 224.646 136.438C224.646 136.438 224.341 132.179 222.886 132.759Z" fill="#EEA886"/>
<path fill-rule="evenodd" clip-rule="evenodd" d="M214.552 132.57C214.552 132.57 213.085 133.277 212.704 133.592C212.32 133.907 210.767 135.066 210.392 135.339C210.017 135.611 210.959 136.386 213.734 135.188C216.508 133.989 214.552 132.57 214.552 132.57Z" fill="#EEA886"/>
<path fill-rule="evenodd" clip-rule="evenodd" d="M205.738 145.167L194.867 115.551L159.82 116.122L170.18 143.415L205.738 145.167Z" fill="#C8C8C8"/>
<path fill-rule="evenodd" clip-rule="evenodd" d="M183.652 128.653C184.722 130.787 184.399 133.11 182.93 133.843C181.463 134.576 179.406 133.439 178.336 131.306C177.267 129.174 177.591 126.85 179.058 126.117C180.526 125.384 182.583 126.52 183.652 128.653Z" fill="white"/>
<path fill-rule="evenodd" clip-rule="evenodd" d="M236.095 69.576C236.224 68.4874 238.38 68.088 238.553 69.7197C238.727 71.3515 237.574 74.2157 236.756 73.9339C235.938 73.6526 235.917 71.0764 236.095 69.576Z" fill="#EEA886"/>
<path fill-rule="evenodd" clip-rule="evenodd" d="M134.64 18.9635C134.64 18.9635 128.867 18.3601 126.786 23.9227C124.707 29.4853 122.748 31.3068 122.503 34.2293C121.511 46.0479 115.979 43.375 117.535 50.1874C119.091 57.0013 120.169 58.0322 120.169 58.0322L133.393 55.4442L146.791 55.4877C146.791 55.4877 141.55 52.8761 142.716 47.3135C143.884 41.7504 146.791 32.6338 145.148 26.4238C143.507 20.2143 138.09 19.4386 134.64 18.9635Z" fill="#464240"/>
<path fill-rule="evenodd" clip-rule="evenodd" d="M138.292 201.592C138.292 201.592 142.439 207.275 141.849 208.19C141.259 209.106 136.734 209.237 133.981 208.19C131.228 207.143 131.163 200.372 129.917 197.463C129.396 196.244 130.511 192.65 132.08 192.389C133.649 192.128 135.49 192.949 135.49 192.949C135.49 192.949 133.883 197.088 138.292 201.592Z" fill="#303669"/>
<path fill-rule="evenodd" clip-rule="evenodd" d="M135.49 192.949C135.49 192.949 135.818 195.631 136.342 197.528C136.866 199.425 139.684 203.742 139.554 204.266C139.423 204.789 135.883 205.263 134.441 203.914C132.998 202.565 131.884 198.658 131.753 196.294C131.621 193.93 132.08 192.389 132.08 192.389C132.08 192.389 134.113 191.509 135.49 192.949Z" fill="#EEA886"/>
<path fill-rule="evenodd" clip-rule="evenodd" d="M129.917 197.463V203.512H130.703V198.837L129.917 197.463Z" fill="#303669"/>
<path fill-rule="evenodd" clip-rule="evenodd" d="M127.442 201.592C127.442 201.592 131.588 207.275 130.998 208.19C130.408 209.106 125.884 209.237 123.131 208.19C120.377 207.143 120.312 200.372 119.066 197.463C118.545 196.244 119.661 192.65 121.23 192.389C122.799 192.128 124.638 192.949 124.638 192.949C124.638 192.949 123.033 197.088 127.442 201.592Z" fill="#303669"/>
<path fill-rule="evenodd" clip-rule="evenodd" d="M124.639 192.949C124.639 192.949 124.967 195.631 125.491 197.528C126.016 199.425 128.834 203.742 128.704 204.266C128.572 204.789 125.032 205.263 123.59 203.914C122.148 202.565 121.033 198.658 120.902 196.294C120.771 193.93 121.23 192.389 121.23 192.389C121.23 192.389 123.263 191.509 124.639 192.949Z" fill="#EEA886"/>
<path fill-rule="evenodd" clip-rule="evenodd" d="M119.066 197.463V203.512H119.853V198.837L119.066 197.463Z" fill="#303669"/>
<path fill-rule="evenodd" clip-rule="evenodd" d="M145.913 98.7736C145.913 98.7736 149.05 116.016 149.897 120.329C150.745 124.644 153.119 145.534 153.373 149.088C153.627 152.641 145.639 169.726 145.14 170.905C136.781 190.636 135.816 195.1 135.816 195.1C135.816 195.1 133.072 196.816 131.803 194.768C131.418 194.144 136.948 171.521 137.86 165.243C138.708 159.407 140.912 150.392 140.318 148.344C139.725 146.295 134.299 118.063 133.281 116.878C132.264 115.695 130.738 117.556 130.145 120.178C129.552 122.8 128.281 145.468 127.518 148.344C126.754 151.219 127.347 160.946 126.924 165.852C126.5 170.758 124.735 193.657 124.735 193.657C124.735 193.657 121.32 194.266 120.981 193.722C120.642 193.176 117.685 168.288 117.6 162.452C117.515 156.616 117.425 148.568 117.26 146.043C115.69 121.859 112.724 118.695 117.909 101.288C130.598 58.697 145.913 98.7736 145.913 98.7736Z" fill="#EEA886"/>
<path fill-rule="evenodd" clip-rule="evenodd" d="M145.913 98.7736C145.913 98.7736 149.05 116.016 149.897 120.329C150.745 124.644 153.119 145.534 153.372 149.088C153.627 152.641 145.913 169.726 145.743 170.994C145.574 172.263 139.221 190.424 139.221 190.424C139.221 190.424 132.804 190.315 131.055 188.655C130.704 188.322 136.948 171.521 137.86 165.243C138.708 159.407 140.912 150.392 140.318 148.344C139.725 146.295 134.299 118.063 133.281 116.878C132.264 115.695 130.738 117.556 130.145 120.178C129.551 122.8 128.281 145.468 127.518 148.344C126.754 151.219 127.347 160.946 126.924 165.852C126.5 170.758 127.393 188.189 127.393 188.189C127.393 188.189 118.988 188.629 118.65 188.083C118.31 187.539 117.685 168.288 117.6 162.452C117.515 156.616 117.425 148.568 117.26 146.043C115.69 121.859 112.724 118.695 117.909 101.288C130.598 58.697 145.913 98.7736 145.913 98.7736Z" fill="#464473"/>
<path fill-rule="evenodd" clip-rule="evenodd" d="M116.649 104.577C116.16 104.379 120.085 91.4299 120.863 87.5599C121.565 84.0694 123.956 80.8723 121.621 74.9257C120.284 71.52 120.373 67.4956 120.373 67.4956C120.373 67.4956 116.8 75.3598 116.461 77.391C116.122 79.4206 128.81 75.7275 128.986 76.0088C129.32 76.5431 129.691 79.9688 129.691 81.1531C129.691 82.1318 111.272 86.4748 109.092 82.6268C108.474 81.5345 112.474 60.6505 115.056 57.8681C119.294 53.3016 130.427 49.4091 130.427 49.4091C130.427 49.4091 133.48 47.7748 138.848 49.4664C144.218 51.159 151.733 56.3448 153.033 57.6984C154.332 59.0524 159.533 79.4456 159.987 82.0868C160.414 84.5715 160.246 89.7987 154.561 89.1303L139.218 85.6239L140.171 80.9577L151.671 81.8654C154.019 82.2653 152.893 80.2096 152.593 79.0667C152.3 77.9463 149.414 67.5672 149.414 67.5672C149.581 70.4426 147.408 79.8849 146.277 83.1556C145.146 86.4257 147.645 103.927 147.816 105.843C147.816 105.843 138.578 113.413 116.649 104.577Z" fill="#BC995A"/>
<path fill-rule="evenodd" clip-rule="evenodd" d="M127.923 50.3675C127.923 50.3675 131.708 58.1612 134.868 60.445C134.868 60.445 140.56 51.9354 140.269 49.9732C140.269 49.9732 133.965 47.1838 127.923 50.3675Z" fill="#EEA886"/>
<path fill-rule="evenodd" clip-rule="evenodd" d="M127.787 76.6446C127.787 76.6446 129.539 75.9395 130.005 75.3049C130.47 74.6693 132.026 74.2908 133.176 74.6319C134.326 74.9745 133.69 79.9071 133.69 79.9071L127.618 80.6916L127.787 76.6446Z" fill="#EEA886"/>
<path fill-rule="evenodd" clip-rule="evenodd" d="M138.777 80.4124C138.777 80.4124 138.193 77.2251 138.333 76.637C138.473 76.0495 137.295 75.4588 137.132 76.9127C136.968 78.367 136.881 79.2915 136.881 79.2915L138.777 80.4124Z" fill="#EEA886"/>
<path fill-rule="evenodd" clip-rule="evenodd" d="M136.252 82.6253L131.832 82.4443C131.266 82.4223 130.818 81.9621 130.81 81.397L130.692 71.7404C130.684 71.136 131.185 70.6471 131.791 70.6666L137.083 70.8389C137.69 70.8599 138.157 71.3804 138.11 71.9828L137.357 81.6456C137.313 82.2157 136.825 82.6478 136.252 82.6253Z" fill="#51578C"/>
<path fill-rule="evenodd" clip-rule="evenodd" d="M138.874 80.6717C138.874 80.6717 138.956 79.7661 137.214 78.9366C134.9 77.8357 131.813 76.7168 131.285 77.0052C130.526 77.422 130.918 77.9983 132.38 78.479C133.842 78.9597 134.324 79.1136 134.324 79.1136C134.324 79.1136 131.464 78.8415 130.822 79.1826C130.181 79.5252 130.145 80.3132 130.613 80.4436C131.083 80.572 132.188 80.6502 132.188 80.6502C132.188 80.6502 130.975 80.6968 130.853 81.1826C130.764 81.5431 130.719 82.0585 131.868 82.2707C131.868 82.2707 131.088 83.1329 132.257 83.6867C133.425 84.2395 135.54 84.7437 136.602 84.9176C138.81 85.2791 143.799 85.0096 143.799 85.0096L141.751 81.5512C141.751 81.5512 140.61 81.6397 139.826 81.3743C138.767 81.0133 138.874 80.6717 138.874 80.6717Z" fill="#EEA886"/>
<path fill-rule="evenodd" clip-rule="evenodd" d="M140.171 80.9573L139.218 85.624L148.994 87.8581L149.372 81.6839L140.171 80.9573Z" fill="#8B6E3A"/>
<path fill-rule="evenodd" clip-rule="evenodd" d="M128.986 76.0085C128.986 76.0085 129.792 77.7339 129.691 81.1534C129.691 81.1534 123.627 83.363 118.918 83.8759V77.9405L128.986 76.0085Z" fill="#8B6E3A"/>
<path fill-rule="evenodd" clip-rule="evenodd" d="M139.218 85.624L146.072 89.427C146.024 88.6334 145.991 87.8745 145.974 87.1689L139.218 85.624Z" fill="#523F1C"/>
<path fill-rule="evenodd" clip-rule="evenodd" d="M121.201 86.1299C126.7 83.9495 128.901 81.9838 129.505 81.3594C129.635 81.2259 129.691 81.1533 129.691 81.1533L121.882 83.4263H121.881C121.686 84.3693 121.431 85.255 121.201 86.1299Z" fill="#523F1C"/>
<path fill-rule="evenodd" clip-rule="evenodd" d="M133.878 22.217C133.878 22.217 126.233 23.319 127.352 34.5787C128.471 45.8415 135.219 44.9471 135.67 44.9379C136.122 44.9287 142.44 45.1726 142.987 31.4302C142.987 31.4302 143.241 21.2689 133.878 22.217Z" fill="#EEA886"/>
<path fill-rule="evenodd" clip-rule="evenodd" d="M130.482 42.9401C130.482 42.9401 130.954 48.7978 129.823 50.5528C128.693 52.3078 130.791 54.6907 135.114 53.8751C139.435 53.061 139.184 50.6162 139.184 50.6162C139.184 50.6162 137.974 46.9998 138.328 44.106C138.682 41.2132 130.482 42.9401 130.482 42.9401Z" fill="#EEA886"/>
<path fill-rule="evenodd" clip-rule="evenodd" d="M134.753 26.2993C134.753 26.2993 131.181 30.0461 129.521 31.9437C127.862 33.8409 127.671 37.5058 127.671 37.5058C127.671 37.5058 124.876 34.0991 126.045 30.132C127.214 26.1648 129.98 18.4468 136.98 20.8164C143.982 23.1887 144.241 33.6251 143.42 38.7991C143.42 38.7991 140.277 27.3757 134.753 26.2993Z" fill="#464240"/>
<path fill-rule="evenodd" clip-rule="evenodd" d="M137.766 44.4274C137.766 44.4274 134.508 45.9635 131.338 43.6941C131.338 43.6941 132.219 45.5094 134.552 45.7672C136.885 46.0254 137.766 44.4274 137.766 44.4274Z" fill="#A77860"/>
<path fill-rule="evenodd" clip-rule="evenodd" d="M138.875 46.4702C138.875 46.4702 149.395 55.8087 146.665 61.6347C144.335 66.6067 136.073 63.5574 137.437 58.3477C138.8 53.1374 138.875 46.4702 138.875 46.4702Z" fill="#464240"/>
<path fill-rule="evenodd" clip-rule="evenodd" d="M136.011 72.7005C136.011 73.0626 136.306 73.3566 136.668 73.3566C137.031 73.3566 137.326 73.0626 137.326 72.7005C137.326 72.3385 137.031 72.0444 136.668 72.0444C136.306 72.0444 136.011 72.3385 136.011 72.7005Z" fill="#48484D"/>
<path fill-rule="evenodd" clip-rule="evenodd" d="M229.898 85.3607L230.165 85.1707C230.165 85.1707 231.09 87.5028 233.653 87.5028C236.216 87.5028 239.608 85.4223 239.608 85.4223L241.359 88.186C241.359 88.186 240.991 92.8484 240.525 92.8484C240.059 92.8484 225.344 92.8484 225.344 92.8484L225.934 88.186L228.01 86.8004L229.898 85.3607Z" fill="#E8E8E8"/>
<path fill-rule="evenodd" clip-rule="evenodd" d="M223.2 70.0069C223.2 70.0069 230.023 67.4252 233.633 69.1357C237.244 70.8463 235.417 78.0909 235.417 79.6656C235.417 81.2403 234.667 93.4599 235.955 93.4599C237.244 93.4599 240.398 93.3489 242.233 94.8607C244.068 96.3724 246.441 94.3668 246.441 93.4599C246.441 92.5531 247.003 91.1737 244.068 88.5832C241.133 85.9928 240.574 84.2922 240.574 81.9789C240.574 79.6656 245.532 60.5458 237.865 58.0152C230.199 55.4845 223.093 58.0162 222.37 62.8967C221.647 67.7772 223.2 70.0069 223.2 70.0069Z" fill="#C7C7C7"/>
<path d="M222.141 65.9763L241.359 64.0569" stroke="#626161" stroke-width="1.92" stroke-linecap="round" stroke-linejoin="round"/>
</svg>
