<svg width="896" height="422" viewBox="0 0 896 422" fill="none" xmlns="http://www.w3.org/2000/svg">
<path opacity="0.0365746" fill-rule="evenodd" clip-rule="evenodd" d="M105.715 312.253C115.305 312.253 122.887 311.966 130.437 312.327C139.678 312.769 148.931 312.401 158.145 312.916C164.011 313.244 169.866 313.004 175.711 313.342C187.41 314.02 199.13 314.031 210.826 314.523C218.026 314.826 225.228 314.469 232.397 314.963C247.153 315.982 261.917 315.422 276.671 315.35C287.289 315.299 297.921 314.583 308.516 313.769C319.784 312.905 330.963 311.16 342.175 309.761C353.386 308.365 364.606 306.937 375.856 305.796C388.505 304.513 401.089 302.706 413.641 300.651C418.771 299.811 424.039 299.757 429.251 299.486C440.576 298.897 451.92 298.577 463.232 297.796C470.91 297.267 478.607 296.874 486.263 296.185C509.236 294.117 532.255 295.151 555.243 294.539C566.09 294.25 576.934 294.056 587.764 294.243C597.213 294.407 606.699 294.673 616.08 296.194C617.774 296.469 619.599 296.666 621.054 295.088C621.935 294.133 623.256 294.02 624.547 294.183C631.466 295.055 638.384 295.933 645.304 296.791C655.573 298.063 665.754 299.876 675.824 302.203C693.24 306.23 710.56 310.677 727.999 314.6C738.416 316.943 748.911 318.975 759.62 319.766C768.702 320.436 777.781 321.172 786.858 321.907C796.36 322.677 805.805 324.135 815.306 324.939C827.569 325.976 839.684 327.934 851.708 330.417C861.774 332.495 871.807 334.869 881.12 339.401C885.19 341.382 889.008 343.816 892.085 347.262C895.701 351.312 897.333 357.707 894.713 361.804C890.823 367.885 887.415 374.278 879.946 377.508C866.548 383.3 853.084 388.785 838.499 390.427C825.937 391.843 813.525 394.144 801.009 395.78C793.391 396.776 785.749 397.596 778.124 398.544C770.153 399.535 762.192 400.605 754.221 401.604C748 402.384 741.768 403.093 735.545 403.866C728.975 404.681 722.414 405.569 715.842 406.359C711.894 406.834 707.936 407.237 703.974 407.574C695.254 408.313 686.534 409.107 677.8 409.634C674.178 409.852 670.535 410.239 666.922 410.176C660.159 410.058 653.41 410.512 646.697 410.918C635.397 411.6 624.106 411.453 612.838 411.161C605.099 410.96 597.335 409.97 589.589 409.333C580.686 408.6 571.813 407.672 562.976 406.46C553.182 405.115 543.447 403.358 533.668 401.896C526.682 400.852 519.667 400.009 512.666 399.058C505.231 398.051 497.811 396.934 490.362 396.036C484.398 395.316 478.409 394.772 472.419 394.29C463.49 393.574 454.516 393.557 445.588 393.039C435.975 392.482 426.482 393.423 416.934 393.688C410.376 393.868 403.879 394.495 397.369 395.261C388.28 396.331 379.475 398.63 370.66 400.899C355.148 404.892 339.732 409.279 324.055 412.599C314.987 414.519 305.836 416.042 296.627 417.196C289.008 418.149 281.426 419.433 273.79 420.212C269.31 420.668 264.827 421.185 260.323 421.515C252.416 422.093 244.515 422.038 236.614 421.933C219.427 421.704 202.604 419.079 186.251 413.712C177.238 410.755 169.196 406.166 162.936 398.944C159.874 395.411 157.166 391.566 154.381 387.802C148.312 379.596 140.072 374.453 130.673 370.904C116.454 365.536 101.767 362.03 86.777 359.578C77.8692 358.121 68.8988 357.395 59.9468 356.398C46.4383 354.893 32.7872 354.316 19.5207 351.079C13.6717 349.651 7.81343 347.901 3.26522 343.638C-1.03921 339.601 -1.06129 333.793 3.04167 329.52C7.3139 325.07 12.6321 322.313 18.356 320.19C27.2988 316.875 36.5875 315.322 46.0363 314.332C56.5439 313.228 67.0847 313.137 77.6144 312.633C87.6685 312.153 97.7023 312.639 105.715 312.253Z" fill="black"/>
<path fill-rule="evenodd" clip-rule="evenodd" d="M113.306 0.798828L113.078 50.3966L171.114 50.6652L181.522 61.1592L181.572 50.7123L181.8 1.11373L113.306 0.798828Z" fill="#FFD542"/>
<path fill-rule="evenodd" clip-rule="evenodd" d="M846.866 211.66C846.834 291.379 844.599 306.984 824.562 324.844C816.715 331.84 802.283 346.371 760.644 353.606C748.144 355.778 733.195 357.293 715.238 357.75C707.911 357.936 701.187 357.671 695.036 357C689.878 356.445 685.123 355.601 680.754 354.508C634.991 343.051 631.574 303.877 651.588 270.923C656.89 262.197 662.947 254.175 669.298 246.695C679.1 235.145 689.609 224.883 699.126 215.306C707.898 206.481 715.83 198.234 721.594 190.094C724.026 186.663 726.071 183.252 727.633 179.823C728.004 179.011 728.378 178.208 728.754 177.414C729.986 174.823 731.253 172.333 732.532 169.95C734.936 165.477 737.382 161.388 739.745 157.728C741.627 154.805 743.455 152.158 745.156 149.808C751.001 141.739 755.34 137.208 755.34 137.208C755.34 137.208 755.882 136.953 756.883 136.54C757.414 136.317 758.079 136.048 758.862 135.75C759.177 135.629 759.507 135.505 759.859 135.375C760.207 135.247 760.573 135.115 760.958 134.979C761.31 134.855 761.675 134.726 762.051 134.598C762.494 134.446 762.957 134.293 763.438 134.136C763.719 134.045 764.006 133.952 764.301 133.861C764.474 133.805 764.651 133.75 764.828 133.696C764.894 133.677 764.962 133.654 765.03 133.634C770.971 131.816 779.121 129.92 787.99 129.603C814.289 128.666 846.898 141.621 846.866 211.66Z" fill="#4CA380"/>
<path fill-rule="evenodd" clip-rule="evenodd" d="M815 189.251C814.986 223.479 814.025 230.179 805.406 237.847C802.031 240.851 795.824 247.09 777.913 250.196C772.536 251.129 766.106 251.779 758.383 251.975C755.231 252.055 752.339 251.941 749.693 251.653C747.474 251.415 745.429 251.052 743.55 250.583C723.866 245.664 722.396 228.845 731.004 214.696C733.285 210.949 735.89 207.505 738.622 204.294C742.838 199.334 747.358 194.928 751.452 190.816C755.225 187.027 758.637 183.487 761.117 179.992C762.162 178.519 763.042 177.054 763.714 175.582C763.874 175.233 764.035 174.888 764.196 174.547C764.726 173.435 765.271 172.366 765.821 171.343C766.855 169.422 767.908 167.667 768.924 166.095C769.733 164.84 770.52 163.704 771.251 162.695C773.765 159.23 775.632 157.285 775.632 157.285C775.632 157.285 775.865 157.175 776.295 156.998C776.524 156.902 776.81 156.787 777.147 156.659C777.282 156.607 777.424 156.554 777.576 156.498C777.725 156.443 777.883 156.386 778.048 156.328C778.199 156.275 778.357 156.219 778.518 156.164C778.709 156.099 778.908 156.033 779.115 155.966C779.236 155.927 779.359 155.887 779.486 155.848C779.561 155.824 779.637 155.8 779.713 155.777C779.741 155.769 779.771 155.759 779.8 155.751C782.355 154.97 785.861 154.156 789.675 154.02C800.988 153.617 815.014 159.18 815 189.251Z" fill="#037F4D" fill-opacity="0.7"/>
<path fill-rule="evenodd" clip-rule="evenodd" d="M740.474 125C740.474 125 741.518 159.577 737.128 161.858C732.738 164.139 742.58 164.139 742.58 164.139L747.069 161.858L751.085 159.86L753.172 153.07L751.709 140.896L740.474 125Z" fill="#A7A7A7"/>
<path fill-rule="evenodd" clip-rule="evenodd" d="M142.201 27.7223C142.192 30.6091 144.528 32.9557 147.416 32.9661C150.304 32.9741 152.655 30.6419 152.663 27.755C152.673 24.8698 150.337 22.5208 147.449 22.512C144.56 22.5024 142.21 24.8346 142.201 27.7223Z" fill="white"/>
<path fill-rule="evenodd" clip-rule="evenodd" d="M125.021 27.6691C125.011 30.5544 127.345 32.9025 130.235 32.9105C133.124 32.9185 135.473 30.5871 135.483 27.7003C135.491 24.8134 133.157 22.4668 130.269 22.458C127.379 22.4492 125.03 24.7822 125.021 27.6691Z" fill="white"/>
<path fill-rule="evenodd" clip-rule="evenodd" d="M158.987 27.7753C158.979 30.6606 161.313 33.0087 164.203 33.0167C167.091 33.0271 169.441 30.6933 169.451 27.8081C169.459 24.922 167.124 22.5738 164.235 22.5642C161.347 22.5562 158.997 24.8892 158.987 27.7753Z" fill="white"/>
<path fill-rule="evenodd" clip-rule="evenodd" d="M720.387 22.0596L630 22.4752L630.3 87.9291L630.364 101.715L644.099 87.8652L720.687 87.5111L720.387 22.0596Z" fill="#00732F"/>
<path d="M692.301 51.5695L676.397 35.5765C675.459 34.6358 673.941 34.6469 673.015 35.5753C672.085 36.5138 672.085 38.0375 673.015 38.9747L688.922 54.9666C689.854 55.9035 691.369 55.9035 692.301 54.9666C693.235 54.0271 693.235 52.5088 692.301 51.5695Z" fill="white"/>
<path d="M671.836 41.1855L671.716 41.7889C670.873 46.0296 668.823 50.0584 666.052 53.3238L674.705 62.024C677.952 59.2378 681.904 57.1221 686.122 56.2732L686.723 56.1529L671.836 41.1855Z" fill="white"/>
<path fill-rule="evenodd" clip-rule="evenodd" d="M658.551 61.0706L664.465 55.1257L672.913 63.6189L666.999 69.5644C665.596 70.9751 663.327 70.9693 661.93 69.5644L658.551 66.1673C657.148 64.7565 657.154 62.4755 658.551 61.0706ZM663.62 64.4688C664.087 64.938 664.843 64.938 665.31 64.4688L666.999 62.7703C667.466 62.3011 667.466 61.541 666.999 61.0718C666.533 60.6026 665.776 60.6026 665.31 61.0718L663.62 62.7703C663.154 63.2395 663.154 63.9997 663.62 64.4688Z" fill="white"/>
<path d="M677.901 70.2038L679.526 68.5698C680.929 67.1591 680.924 64.8782 679.526 63.4743L678.319 62.2598C677.652 62.7104 677.014 63.2 676.395 63.7224L677.837 65.174C678.302 65.6396 678.305 66.3975 677.837 66.8713L676.185 68.5323L673.757 66.1673L670.378 69.5646L675.798 74.8455C676.723 75.7779 678.242 75.7832 679.176 74.8443C680.108 73.907 680.108 72.3833 679.176 71.446L677.901 70.2038Z" fill="white"/>
<path d="M682.727 34.5466C682.067 34.5466 681.532 35.0839 681.532 35.7478V38.1501C681.532 38.8141 682.067 39.3513 682.727 39.3513C683.387 39.3513 683.922 38.8141 683.922 38.1501V35.7478C683.922 35.0839 683.387 34.5466 682.727 34.5466Z" fill="white"/>
<path d="M692.285 44.156H689.895C689.235 44.156 688.701 44.6933 688.701 45.3572C688.701 46.0211 689.235 46.5583 689.895 46.5583H692.285C692.945 46.5583 693.479 46.0211 693.479 45.3572C693.479 44.6933 692.945 44.156 692.285 44.156Z" fill="white"/>
<path d="M690.74 37.3009C690.273 36.8317 689.517 36.8317 689.05 37.3009L686.661 39.7032C686.194 40.1724 686.194 40.9326 686.661 41.4017C687.128 41.8709 687.884 41.871 688.35 41.4017L690.74 38.9994C691.206 38.5302 691.206 37.77 690.74 37.3009Z" fill="white"/>
<path fill-rule="evenodd" clip-rule="evenodd" d="M266.212 47.6948L356.599 48.1104L356.299 113.564L356.235 127.351L342.5 113.5L265.912 113.146L266.212 47.6948Z" fill="#00C620"/>
<path fill-rule="evenodd" clip-rule="evenodd" d="M295.124 94.9602H300.617C301.469 94.9602 302.165 94.2648 302.165 93.4137V79.4117C302.165 78.5605 301.469 77.8644 300.617 77.8644H295.124C294.273 77.8644 293.577 78.5605 293.577 79.4117V93.4137C293.577 94.2648 294.273 94.9602 295.124 94.9602ZM311.068 66.7086V64.764C311.05 63.4884 312.172 62.3567 313.445 62.3567C314.657 62.3567 315.469 63.12 315.75 64.1406C316.357 66.3433 316.969 68.5596 314.149 74.4268H321.065H322.597C324.038 74.4268 325.206 75.5945 325.206 77.0332C325.206 78.3407 324.241 79.4237 322.985 79.6107C324.225 79.6915 325.206 80.7233 325.206 81.9821C325.206 83.2944 324.141 84.3582 322.827 84.3582H322.811C323.648 84.7059 324.237 85.5299 324.237 86.4922C324.237 87.5544 323.517 88.4496 322.54 88.7189C323.006 89.1289 323.301 89.7291 323.301 90.3973C323.301 91.6305 322.3 92.6304 321.065 92.6304H305.761C304.973 92.6304 304.328 91.987 304.328 91.199V80.5802C304.328 72.2082 311.068 69.3692 311.068 66.7086Z" fill="white"/>
<mask id="mask0" mask-type="alpha" maskUnits="userSpaceOnUse" x="776" y="50" width="81" height="71">
<path fill-rule="evenodd" clip-rule="evenodd" d="M776.874 50.6418H856.669V120.728H776.874V50.6418Z" fill="white"/>
</mask>
<g mask="url(#mask0)">
<path fill-rule="evenodd" clip-rule="evenodd" d="M856.405 50.6418L776.874 51.0087L777.139 108.599L777.194 120.728L789.281 108.541L856.669 108.232L856.405 50.6418Z" fill="#BC995A"/>
<path d="M809.675 82.0525C810.63 82.0525 811.553 81.9894 812.426 81.8719V72.0741C811.553 71.9567 810.63 71.8936 809.675 71.8936C804.225 71.8936 799.807 73.9452 799.807 76.4761V77.4699C799.807 80.0007 804.225 82.0525 809.675 82.0525Z" fill="white"/>
<path d="M809.675 87.1685C810.63 87.1685 811.553 87.1054 812.426 86.988V84.1161C811.552 84.2335 810.63 84.2975 809.675 84.2975C804.918 84.2975 800.947 82.7342 800.014 80.6536C799.879 80.9566 799.807 81.2704 799.807 81.5921V82.586C799.807 85.1169 804.225 87.1685 809.675 87.1685Z" fill="white"/>
<path d="M812.426 89.4556V89.2323C811.552 89.3498 810.63 89.4137 809.675 89.4137C804.918 89.4137 800.947 87.8504 800.014 85.7698C799.878 86.0728 799.807 86.3866 799.807 86.7083V87.7021C799.807 90.2331 804.225 92.2847 809.675 92.2847C810.765 92.2847 811.814 92.2024 812.794 92.0509C812.551 91.542 812.426 91.0053 812.426 90.4493V89.4556Z" fill="white"/>
<path d="M823.904 64.1323C818.454 64.1323 814.036 66.184 814.036 68.7149V69.7087C814.036 72.2396 818.454 74.2912 823.904 74.2912C829.355 74.2912 833.773 72.2396 833.773 69.7087V68.7149C833.773 66.184 829.355 64.1323 823.904 64.1323Z" fill="white"/>
<path d="M823.904 76.5363C819.147 76.5363 815.176 74.9731 814.243 72.8923C814.108 73.1953 814.036 73.5091 814.036 73.8309V74.8247C814.036 77.3556 818.454 79.4073 823.904 79.4073C829.355 79.4073 833.773 77.3556 833.773 74.8247V73.8309C833.773 73.5091 833.701 73.1953 833.565 72.8923C832.633 74.9731 828.662 76.5363 823.904 76.5363Z" fill="white"/>
<path d="M823.904 81.6525C819.147 81.6525 815.176 80.0892 814.243 78.0085C814.108 78.3115 814.036 78.6253 814.036 78.9471V79.9409C814.036 82.4719 818.454 84.5236 823.904 84.5236C829.355 84.5236 833.773 82.4719 833.773 79.9409V78.9471C833.773 78.6253 833.701 78.3115 833.565 78.0085C832.633 80.0893 828.662 81.6525 823.904 81.6525Z" fill="white"/>
<path d="M823.904 87.0449C819.147 87.0449 815.176 85.4815 814.243 83.4009C814.108 83.704 814.036 84.0177 814.036 84.3394V85.3333C814.036 87.8642 818.454 89.9158 823.904 89.9158C829.355 89.9158 833.773 87.8642 833.773 85.3333V84.3394C833.773 84.0177 833.701 83.7038 833.565 83.4009C832.633 85.4814 828.662 87.0449 823.904 87.0449Z" fill="white"/>
<path d="M823.904 92.1611C819.147 92.1611 815.176 90.5978 814.243 88.5172C814.108 88.8202 814.036 89.1341 814.036 89.4557V90.4495C814.036 92.9804 818.454 95.032 823.904 95.032C829.355 95.032 833.773 92.9804 833.773 90.4495V89.4556C833.773 89.1339 833.701 88.82 833.565 88.5171C832.633 90.5977 828.662 92.1611 823.904 92.1611Z" fill="white"/>
</g>
<path fill-rule="evenodd" clip-rule="evenodd" d="M696.973 335.453L697.467 331.614L708.568 331.869L708.446 335.281C708.446 335.282 708.446 335.282 708.446 335.282C708.465 335.329 710.289 339.754 710.543 342.486C710.8 345.232 709.071 346.371 705.742 347.777C704.319 348.379 703.352 349.753 702.282 351.274C700.849 353.311 699.229 355.613 696.078 356.685C690.574 358.561 680.091 358.383 680.411 352.624C680.599 349.219 683.287 347.748 686.036 346.244C687.938 345.203 689.87 344.145 691.023 342.419C693.824 338.22 696.942 335.481 696.973 335.453ZM705.902 335.954C705.642 336.006 705.393 336.049 705.171 336.074C705.412 336.039 705.656 336 705.902 335.954Z" fill="#00194D"/>
<path fill-rule="evenodd" clip-rule="evenodd" d="M722.499 335.3L722.05 331.456L732.882 329.017L733.59 332.358C733.59 332.358 733.59 332.358 733.59 332.358C733.62 332.399 736.46 336.252 737.367 338.842C738.281 341.444 736.879 342.967 733.989 345.137C732.754 346.065 732.148 347.632 731.478 349.367C730.58 351.69 729.565 354.315 726.767 356.118C721.88 359.27 711.665 361.634 710.583 355.968C709.942 352.619 712.194 350.541 714.497 348.417C716.091 346.946 717.71 345.453 718.41 343.499C720.113 338.747 722.476 335.335 722.499 335.3ZM731.284 333.627C731.045 333.74 730.813 333.841 730.604 333.919C730.829 333.828 731.056 333.73 731.284 333.627Z" fill="#00194D"/>
<path fill-rule="evenodd" clip-rule="evenodd" d="M734.703 179.375C734.703 179.375 732.593 191.909 730.893 200.187C730.203 203.544 729.581 206.203 729.195 207.038C728.708 208.092 724.749 212.338 719.903 217.325C711.4 226.069 700.165 237.082 700.165 237.082L695.773 228.753C695.773 228.753 705.752 217.066 712.517 209.267C715.649 205.66 718.09 202.884 718.538 202.483C719.952 201.22 721.593 188.764 723.901 178.503C726.208 168.239 730.833 162.569 730.833 162.569L734.703 179.375Z" fill="#E8E8E8"/>
<path fill-rule="evenodd" clip-rule="evenodd" d="M719.903 217.325C711.4 226.069 700.165 237.083 700.165 237.083L695.772 228.753C695.772 228.753 705.751 217.066 712.517 209.267C714.59 210.283 718.397 212.707 719.903 217.325Z" fill="#EEA886"/>
<path fill-rule="evenodd" clip-rule="evenodd" d="M774.944 235.387C775.259 236.503 717.136 235.387 717.136 235.387C717.136 235.387 733.213 223.696 734.256 220.574C735.299 217.45 730.162 198.71 729.492 192.613C728.956 187.734 727.612 165.902 730.832 162.569C734.197 159.083 746.313 155.429 746.313 155.429L763.98 156.086C763.98 156.086 766.896 156.693 768.98 157.661C771.064 158.628 782.984 162.869 784.918 168.817C786.854 174.768 773.026 193.894 773.026 193.894C773.026 193.894 772.999 194.754 772.957 196.163C772.904 198.041 772.824 200.897 772.752 203.994C772.66 208.004 772.579 212.42 772.579 215.645C772.579 223.231 774.631 234.273 774.944 235.387Z" fill="#E8E8E8"/>
<path fill-rule="evenodd" clip-rule="evenodd" d="M782.436 251.139C782.752 252.444 782.945 253.718 782.962 254.908C782.972 255.668 782.852 256.598 782.624 257.663L782.962 257.808C782.962 257.808 782.434 259.265 781.455 261.781C780.21 265.495 778.324 269.94 776.308 274.313C769.039 291.148 756.654 316.507 743.409 328.94C741.035 331.17 738.579 332.931 736.091 334.303C736.211 334.045 736.33 333.76 736.448 333.453C736.905 332.268 737.373 330.693 737.84 328.836C738.775 325.118 739.719 320.217 740.567 314.926C742.262 304.347 743.585 292.152 743.694 284.641C743.745 281.069 745.299 278.379 747.726 276.293C750.168 274.194 753.493 272.71 757.049 271.6C760.601 270.491 764.341 269.768 767.593 269.165C767.74 269.138 767.886 269.111 768.032 269.084L768.344 269.026L768.344 269.026C769.679 268.78 770.921 268.551 772.009 268.32C773.293 268.048 774.394 267.768 775.199 267.443C776.874 266.766 778.265 265.198 779.355 263.244C780.453 261.279 781.282 258.859 781.804 256.376C782.171 254.629 782.388 252.839 782.436 251.139ZM781.194 247.234C781.296 247.818 781.367 248.444 781.408 249.105C781.54 251.279 781.332 253.76 780.825 256.17C780.319 258.582 779.519 260.9 778.482 262.757C777.44 264.624 776.193 265.962 774.824 266.516C774.107 266.806 773.079 267.071 771.802 267.342C770.728 267.57 769.501 267.796 768.165 268.043C767.917 268.088 767.666 268.135 767.411 268.182C764.16 268.784 760.366 269.517 756.751 270.646C753.141 271.773 749.667 273.307 747.074 275.535C744.466 277.777 742.75 280.724 742.694 284.627C742.586 292.068 741.271 304.21 739.579 314.768C738.733 320.045 737.795 324.914 736.871 328.592C736.408 330.432 735.951 331.963 735.515 333.093C735.297 333.658 735.089 334.112 734.893 334.45C734.69 334.8 734.529 334.977 734.425 335.047C734.239 335.172 734.04 335.304 733.83 335.442C717.877 342.731 701.239 335.126 696.693 332.733C696.298 332.661 695.895 332.581 695.485 332.493C695.485 332.493 676.941 265.192 676.345 258.499C675.75 251.807 675.458 240.771 721.158 232.382L774.945 235.389C774.945 235.389 778.833 241.095 781.194 247.234Z" fill="#E8E8E8"/>
<path fill-rule="evenodd" clip-rule="evenodd" d="M751.161 117.083C751.161 117.083 735.826 113.628 739.329 132.908C742.833 152.189 746.522 153.704 755.772 149.714C765.025 145.724 764.196 133.371 764.661 127.315C765.126 121.256 756.055 117.294 751.161 117.083Z" fill="#EEA886"/>
<path fill-rule="evenodd" clip-rule="evenodd" d="M747.103 160.379C747.103 160.379 753.896 167.572 764.629 161.035C764.629 161.035 762.229 145.444 763.492 137.853C764.755 130.259 749.488 149.617 749.488 149.617C749.688 149.723 749.821 150.448 749.852 151.479C749.879 152.352 749.832 153.446 749.692 154.568C749.377 157.092 748.592 159.759 747.103 160.379Z" fill="#EEA886"/>
<path fill-rule="evenodd" clip-rule="evenodd" d="M761.297 130.943C759.076 130.754 761.297 139.197 761.297 139.197C761.297 139.197 764.728 128.081 759.736 128.735C754.743 129.389 757.201 128.298 754.984 127.368C752.765 126.438 740.615 130.298 738.836 128.735C737.054 127.174 737.893 116.373 741.113 114.895C744.331 113.416 753.223 110.105 759.736 114.511C759.736 114.511 764.815 113.932 765.568 118.026C766.32 122.12 765.295 134.163 763.914 137.208C763.914 137.208 763.518 131.132 761.297 130.943Z" fill="#3A3F47"/>
<path fill-rule="evenodd" clip-rule="evenodd" d="M749.692 154.568C760.765 151.157 761.6 144.495 761.611 144.393C757.965 150.651 749.852 151.479 749.852 151.479C749.879 152.352 749.832 153.446 749.692 154.568Z" fill="#A77860"/>
<path fill-rule="evenodd" clip-rule="evenodd" d="M710.487 234.571C710.487 234.571 750.627 239.515 774.945 235.389L728.479 229.588C728.479 229.588 728.204 230.772 710.487 234.571Z" fill="#E8E8E8"/>
<path fill-rule="evenodd" clip-rule="evenodd" d="M740.509 227.761L737.519 229.276C737.519 229.276 738.201 234.02 739.837 235.459L743.194 234.603C743.194 234.603 742.494 229.399 740.509 227.761Z" fill="#EEA886"/>
<path fill-rule="evenodd" clip-rule="evenodd" d="M786.956 218.044C786.359 218.736 778.467 221.908 769.553 225.338L769.551 225.339C757.374 230.026 743.636 234.461 743.636 234.461L740.509 227.761C740.509 227.761 754.895 219.952 764.615 214.475C769.208 211.888 772.758 209.821 773.261 209.344C774.824 207.857 775.229 205.473 774.08 201.313C772.93 197.154 770.282 178.036 769.984 175.805C769.688 173.575 770.729 167.625 776.311 167.327C781.895 167.03 784.737 168.606 784.737 168.606C784.737 168.606 786.137 169.187 787.18 182.722C788.223 196.256 788.37 216.41 786.956 218.044Z" fill="#E8E8E8"/>
<path fill-rule="evenodd" clip-rule="evenodd" d="M772.957 196.163C772.904 198.042 772.824 200.897 772.752 203.994C767.304 190.652 770.452 180.002 770.506 179.824C769.917 183.444 772.915 195.986 772.957 196.163Z" fill="#B0B0B0"/>
<path fill-rule="evenodd" clip-rule="evenodd" d="M730.893 200.187C730.202 203.544 729.582 206.203 729.195 207.038C727.334 198.041 729.008 186.521 729.008 186.521C729.262 192.023 730.893 200.187 730.893 200.187Z" fill="#B0B0B0"/>
<path fill-rule="evenodd" clip-rule="evenodd" d="M769.553 225.338L769.552 225.339C757.373 230.025 743.193 234.603 743.193 234.603L740.509 227.761C740.509 227.761 754.895 219.952 764.616 214.475C764.616 214.475 768.153 216.196 769.553 225.338Z" fill="#EEA886"/>
<path fill-rule="evenodd" clip-rule="evenodd" d="M739.643 235.002L682.59 234.162L711.395 248.773L739.643 235.002Z" fill="#959595"/>
<path fill-rule="evenodd" clip-rule="evenodd" d="M711.395 248.773L739.643 237.842V235.002L709.163 245.985L711.395 248.773Z" fill="#C8C8C8"/>
<path fill-rule="evenodd" clip-rule="evenodd" d="M738.164 229.38C738.164 229.38 734.601 228.826 732.138 228.253C730.231 227.808 725.492 228.42 724.285 229.641C723.078 230.864 719.238 239.38 718.513 239.898C717.785 240.42 718.884 241.621 720.158 241.017C720.158 241.017 721.33 244.743 724.219 243.349C727.109 241.953 729.071 238.907 730.584 238.372C732.096 237.836 740.91 235.129 740.91 235.129C740.91 235.129 740.435 228.472 738.164 229.38Z" fill="#EEA886"/>
<path fill-rule="evenodd" clip-rule="evenodd" d="M725.155 229.083C725.155 229.083 722.865 230.188 722.269 230.68C721.671 231.172 719.247 232.985 718.661 233.411C718.075 233.836 719.546 235.048 723.878 233.175C728.207 231.302 725.155 229.083 725.155 229.083Z" fill="#EEA886"/>
<path fill-rule="evenodd" clip-rule="evenodd" d="M711.395 248.773L694.427 202.483L639.719 203.376L655.891 246.034L711.395 248.773Z" fill="#C8C8C8"/>
<path fill-rule="evenodd" clip-rule="evenodd" d="M676.921 222.962C678.591 226.297 678.086 229.928 675.794 231.073C673.503 232.219 670.292 230.442 668.623 227.108C666.953 223.775 667.459 220.144 669.75 218.998C672.04 217.852 675.251 219.627 676.921 222.962Z" fill="white"/>
<path fill-rule="evenodd" clip-rule="evenodd" d="M758.783 130.626C758.984 128.925 762.349 128.301 762.62 130.851C762.892 133.401 761.092 137.878 759.814 137.437C758.537 136.998 758.504 132.971 758.783 130.626Z" fill="#EEA886"/>
<path fill-rule="evenodd" clip-rule="evenodd" d="M600.413 51.5207C600.413 51.5207 591.402 50.5776 588.154 59.2717C584.909 67.9659 581.85 70.8128 581.467 75.3805C579.92 93.8526 571.284 89.6749 573.714 100.322C576.143 110.972 577.824 112.584 577.824 112.584L598.467 108.539L619.382 108.607C619.382 108.607 611.199 104.525 613.02 95.8307C614.843 87.1357 619.382 72.8868 616.817 63.1808C614.255 53.4756 605.799 52.2632 600.413 51.5207Z" fill="#464240"/>
<path fill-rule="evenodd" clip-rule="evenodd" d="M606.114 336.963C606.114 336.963 612.587 345.844 611.667 347.275C610.746 348.707 603.683 348.91 599.386 347.275C595.088 345.638 594.986 335.055 593.042 330.509C592.227 328.603 593.969 322.985 596.418 322.578C598.867 322.17 601.74 323.454 601.74 323.454C601.74 323.454 599.232 329.923 606.114 336.963Z" fill="#303669"/>
<path fill-rule="evenodd" clip-rule="evenodd" d="M601.74 323.454C601.74 323.454 602.252 327.646 603.07 330.611C603.889 333.575 608.288 340.322 608.085 341.142C607.88 341.959 602.354 342.699 600.102 340.591C597.851 338.483 596.111 332.377 595.907 328.682C595.701 324.987 596.418 322.578 596.418 322.578C596.418 322.578 599.591 321.204 601.74 323.454Z" fill="#EEA886"/>
<path fill-rule="evenodd" clip-rule="evenodd" d="M593.042 330.509V339.963H594.269V332.656L593.042 330.509Z" fill="#303669"/>
<path fill-rule="evenodd" clip-rule="evenodd" d="M589.178 336.963C589.178 336.963 595.649 345.844 594.729 347.275C593.808 348.707 586.746 348.91 582.449 347.275C578.15 345.638 578.049 335.055 576.103 330.509C575.29 328.603 577.032 322.985 579.481 322.578C581.929 322.17 584.801 323.454 584.801 323.454C584.801 323.454 582.296 329.923 589.178 336.963Z" fill="#303669"/>
<path fill-rule="evenodd" clip-rule="evenodd" d="M584.802 323.454C584.802 323.454 585.314 327.646 586.132 330.611C586.951 333.575 591.351 340.322 591.148 341.142C590.942 341.959 585.415 342.699 583.165 340.591C580.914 338.483 579.174 332.377 578.969 328.682C578.764 324.987 579.482 322.578 579.482 322.578C579.482 322.578 582.654 321.204 584.802 323.454Z" fill="#EEA886"/>
<path fill-rule="evenodd" clip-rule="evenodd" d="M576.103 330.509V339.963H577.332V332.656L576.103 330.509Z" fill="#303669"/>
<path fill-rule="evenodd" clip-rule="evenodd" d="M618.011 176.261C618.011 176.261 622.907 203.211 624.23 209.952C625.554 216.696 629.259 249.345 629.655 254.9C630.052 260.453 617.583 287.158 616.803 289C603.755 319.839 602.249 326.815 602.249 326.815C602.249 326.815 597.966 329.497 595.986 326.297C595.384 325.322 604.017 289.963 605.44 280.151C606.763 271.028 610.204 256.939 609.277 253.737C608.351 250.536 599.882 206.41 598.292 204.558C596.705 202.708 594.323 205.616 593.397 209.716C592.471 213.813 590.487 249.242 589.296 253.737C588.104 258.231 589.03 273.435 588.369 281.103C587.707 288.77 584.951 324.561 584.951 324.561C584.951 324.561 579.622 325.512 579.092 324.661C578.563 323.808 573.947 284.909 573.815 275.788C573.683 266.666 573.541 254.087 573.284 250.141C570.834 212.342 566.203 207.397 574.297 180.191C594.104 113.623 618.011 176.261 618.011 176.261Z" fill="#EEA886"/>
<path fill-rule="evenodd" clip-rule="evenodd" d="M618.011 176.261C618.011 176.261 622.907 203.211 624.23 209.952C625.554 216.696 629.259 249.345 629.655 254.9C630.052 260.453 618.011 287.157 617.746 289.139C617.482 291.123 607.565 319.508 607.565 319.508C607.565 319.508 597.547 319.337 594.818 316.742C594.269 316.222 604.017 289.963 605.44 280.151C606.763 271.028 610.204 256.939 609.277 253.737C608.351 250.536 599.882 206.41 598.292 204.558C596.705 202.708 594.323 205.616 593.397 209.716C592.471 213.813 590.487 249.242 589.296 253.737C588.104 258.231 589.03 273.435 588.369 281.103C587.707 288.77 589.102 316.013 589.102 316.013C589.102 316.013 575.981 316.702 575.453 315.849C574.923 314.998 573.947 284.909 573.815 275.788C573.683 266.666 573.541 254.087 573.284 250.141C570.834 212.342 566.203 207.397 574.297 180.191C594.104 113.623 618.011 176.261 618.011 176.261Z" fill="#464473"/>
<path fill-rule="evenodd" clip-rule="evenodd" d="M572.331 185.33C571.567 185.021 577.693 164.783 578.908 158.734C580.003 153.278 583.737 148.282 580.091 138.987C578.004 133.664 578.143 127.374 578.143 127.374C578.143 127.374 572.567 139.666 572.037 142.84C571.508 146.013 591.313 140.24 591.588 140.68C592.11 141.515 592.688 146.869 592.688 148.72C592.688 150.25 563.937 157.038 560.535 151.024C559.569 149.317 565.814 116.676 569.843 112.327C576.459 105.19 593.838 99.1058 593.838 99.1058C593.838 99.1058 598.603 96.5514 606.983 99.1953C615.364 101.841 627.095 109.946 629.125 112.062C631.153 114.178 639.271 146.052 639.98 150.18C640.646 154.063 640.383 162.233 631.51 161.189L607.56 155.708L609.047 148.415L626.999 149.834C630.663 150.459 628.907 147.246 628.439 145.459C627.981 143.708 623.475 127.486 623.475 127.486C623.737 131.98 620.344 146.738 618.579 151.85C616.814 156.961 620.715 184.315 620.981 187.31C620.981 187.31 606.561 199.142 572.331 185.33Z" fill="#BC995A"/>
<path fill-rule="evenodd" clip-rule="evenodd" d="M589.928 100.604C589.928 100.604 595.837 112.785 600.77 116.355C600.77 116.355 609.654 103.054 609.201 99.9877C609.201 99.9877 599.361 95.6279 589.928 100.604Z" fill="#EEA886"/>
<path fill-rule="evenodd" clip-rule="evenodd" d="M589.716 141.674C589.716 141.674 592.452 140.572 593.179 139.58C593.904 138.587 596.333 137.995 598.129 138.529C599.924 139.064 598.93 146.774 598.93 146.774L589.453 148L589.716 141.674Z" fill="#EEA886"/>
<path fill-rule="evenodd" clip-rule="evenodd" d="M606.871 147.563C606.871 147.563 605.96 142.581 606.178 141.662C606.398 140.744 604.558 139.821 604.303 142.093C604.047 144.366 603.911 145.811 603.911 145.811L606.871 147.563Z" fill="#EEA886"/>
<path fill-rule="evenodd" clip-rule="evenodd" d="M602.93 151.022L596.03 150.739C595.147 150.704 594.447 149.985 594.436 149.102L594.251 134.009C594.239 133.064 595.02 132.3 595.967 132.33L604.227 132.6C605.175 132.633 605.903 133.446 605.83 134.388L604.655 149.49C604.586 150.381 603.824 151.057 602.93 151.022Z" fill="#51578C"/>
<path fill-rule="evenodd" clip-rule="evenodd" d="M607.023 147.968C607.023 147.968 607.151 146.553 604.431 145.256C600.819 143.536 596.001 141.787 595.177 142.238C593.991 142.889 594.603 143.79 596.885 144.541C599.167 145.292 599.921 145.533 599.921 145.533C599.921 145.533 595.456 145.108 594.453 145.641C593.453 146.176 593.396 147.408 594.128 147.612C594.861 147.812 596.587 147.935 596.587 147.935C596.587 147.935 594.692 148.007 594.503 148.767C594.363 149.33 594.293 150.136 596.086 150.467C596.086 150.467 594.869 151.815 596.693 152.681C598.517 153.545 601.819 154.333 603.475 154.604C606.923 155.169 614.711 154.748 614.711 154.748L611.513 149.343C611.513 149.343 609.733 149.481 608.509 149.066C606.856 148.502 607.023 147.968 607.023 147.968Z" fill="#EEA886"/>
<path fill-rule="evenodd" clip-rule="evenodd" d="M609.047 148.415L607.56 155.709L622.821 159.201L623.41 149.551L609.047 148.415Z" fill="#8B6E3A"/>
<path fill-rule="evenodd" clip-rule="evenodd" d="M591.588 140.68C591.588 140.68 592.846 143.377 592.688 148.721C592.688 148.721 583.222 152.175 575.871 152.976V143.699L591.588 140.68Z" fill="#8B6E3A"/>
<path fill-rule="evenodd" clip-rule="evenodd" d="M607.56 155.709L618.258 161.653C618.184 160.412 618.132 159.226 618.106 158.123L607.56 155.709Z" fill="#523F1C"/>
<path fill-rule="evenodd" clip-rule="evenodd" d="M579.435 156.499C588.019 153.091 591.454 150.019 592.398 149.043C592.602 148.834 592.688 148.721 592.688 148.721L580.499 152.274H580.498C580.193 153.747 579.795 155.132 579.435 156.499Z" fill="#523F1C"/>
<path fill-rule="evenodd" clip-rule="evenodd" d="M599.225 56.6057C599.225 56.6057 587.29 58.328 589.038 75.9265C590.785 93.5299 601.317 92.132 602.021 92.1176C602.726 92.1032 612.589 92.4844 613.442 71.0056C613.442 71.0056 613.839 55.1239 599.225 56.6057Z" fill="#EEA886"/>
<path fill-rule="evenodd" clip-rule="evenodd" d="M593.922 88.9954C593.922 88.9954 594.66 98.1507 592.895 100.894C591.131 103.637 594.405 107.361 601.153 106.086C607.899 104.814 607.506 100.993 607.506 100.993C607.506 100.993 605.618 95.3405 606.171 90.8176C606.722 86.2963 593.922 88.9954 593.922 88.9954Z" fill="#EEA886"/>
<path fill-rule="evenodd" clip-rule="evenodd" d="M600.59 62.9865C600.59 62.9865 595.014 68.8425 592.423 71.8085C589.834 74.7737 589.536 80.5019 589.536 80.5019C589.536 80.5019 585.172 75.1773 586.996 68.9768C588.821 62.7763 593.139 50.7133 604.067 54.417C614.996 58.1247 615.4 74.4364 614.12 82.5232C614.12 82.5232 609.213 64.6689 600.59 62.9865Z" fill="#464240"/>
<path fill-rule="evenodd" clip-rule="evenodd" d="M605.293 91.3197C605.293 91.3197 600.208 93.7206 595.259 90.1736C595.259 90.1736 596.634 93.0109 600.276 93.4137C603.918 93.8173 605.293 91.3197 605.293 91.3197Z" fill="#A77860"/>
<path fill-rule="evenodd" clip-rule="evenodd" d="M607.025 94.5127C607.025 94.5127 623.446 109.108 619.185 118.214C615.548 125.985 602.651 121.219 604.779 113.077C606.907 104.933 607.025 94.5127 607.025 94.5127Z" fill="#464240"/>
<path fill-rule="evenodd" clip-rule="evenodd" d="M602.554 135.51C602.554 136.076 603.014 136.535 603.58 136.535C604.146 136.535 604.606 136.076 604.606 135.51C604.606 134.944 604.146 134.484 603.58 134.484C603.014 134.484 602.554 134.944 602.554 135.51Z" fill="#48484D"/>
<path fill-rule="evenodd" clip-rule="evenodd" d="M31.4739 184.061C31.4739 184.061 32.8579 187.788 33.9291 188.383C35.0035 188.978 35.2963 197.29 35.3883 198.281C35.4619 199.112 34.8539 199.92 34.5307 199.793C34.2099 199.667 33.4907 195.321 32.8323 193.982C32.2779 192.858 31.8779 192.464 31.7291 192.869C31.5811 193.275 32.1179 197.776 32.4043 200.204C32.6571 202.348 32.3171 209.202 31.1595 208.643C30.0035 208.085 27.5331 197.656 27.2987 194.347C27.0667 191.037 27.6459 186.777 27.6459 186.777L31.4739 184.061Z" fill="#EEA886"/>
<path fill-rule="evenodd" clip-rule="evenodd" d="M85.1625 75.4049C85.1625 75.4049 89.0505 68.0303 87.1561 60.1778C85.2593 52.3244 75.7593 43.8085 65.1521 47.6129C57.6241 50.3119 54.5225 59.8692 55.6665 65.0052C58.1737 76.2529 49.7241 82.0618 51.6913 88.0306C53.4161 93.272 53.6193 97.3545 52.3033 98.4135C50.9873 99.4749 46.7425 103.258 47.2105 107.734C47.6793 112.213 67.9305 94.6858 67.9305 94.6858C67.9305 94.6858 78.9633 72.5428 85.1625 75.4049Z" fill="#303669"/>
<path fill-rule="evenodd" clip-rule="evenodd" d="M115.893 332.329C115.893 332.329 122.651 341.418 121.724 342.859C120.796 344.299 113.691 344.504 109.364 342.859C105.039 341.212 104.935 330.56 102.979 325.984C102.159 324.068 103.912 318.412 106.378 318.001C108.843 317.592 111.524 318.797 111.524 318.797C111.524 318.797 108.967 325.243 115.893 332.329Z" fill="#303669"/>
<path fill-rule="evenodd" clip-rule="evenodd" d="M111.569 318.724C111.569 318.724 112.552 322.391 113.072 326.088C113.503 329.152 118.325 335.861 118.12 336.685C117.912 337.508 112.351 338.255 110.086 336.132C107.82 334.009 106.362 327.837 105.862 324.147C105.399 320.708 104.812 319.01 104.812 319.01C104.812 319.01 109.406 316.46 111.569 318.724Z" fill="#EEA886"/>
<path fill-rule="evenodd" clip-rule="evenodd" d="M102.98 325.984V335.5H104.214V328.145L102.98 325.984Z" fill="#303669"/>
<path fill-rule="evenodd" clip-rule="evenodd" d="M57.0739 332.48C57.0739 332.48 63.5883 341.419 62.6595 342.859C61.7331 344.298 54.6267 344.505 50.3019 342.859C45.9755 341.213 45.8715 330.56 43.9147 325.984C43.0979 324.069 44.8491 318.412 47.3155 318.002C49.7795 317.592 52.6707 318.883 52.6707 318.883C52.6707 318.883 50.1467 325.395 57.0739 332.48Z" fill="#303669"/>
<path fill-rule="evenodd" clip-rule="evenodd" d="M52.6707 318.884C52.6707 318.884 53.1859 323.104 54.0091 326.088C54.8323 329.071 59.2627 335.861 59.0563 336.684C58.8507 337.508 53.2883 338.254 51.0227 336.132C48.7555 334.009 47.0051 327.865 46.7995 324.147C46.5923 320.428 47.3155 318.001 47.3155 318.001C47.3155 318.001 50.5075 316.62 52.6707 318.884Z" fill="#EEA886"/>
<path fill-rule="evenodd" clip-rule="evenodd" d="M43.9149 325.984V335.5H45.1525V328.145L43.9149 325.984Z" fill="#303669"/>
<path fill-rule="evenodd" clip-rule="evenodd" d="M28.2047 188.54C28.6951 188.65 35.4039 186.821 34.8407 186.397C34.6191 186.23 39.3135 158.523 41.7919 146.55C43.3599 138.966 47.4423 123.316 47.4423 123.316C47.4423 123.316 48.1863 125.296 49.3399 134.253C50.0735 139.959 49.9703 144.361 49.6775 151.077C49.5917 153.048 49.3871 154.826 49.1089 156.426C46.7458 160.987 44.3944 166.98 42.0978 174.698C39.0795 184.844 37.8195 191.914 37.5545 198.73C34.9372 214.723 34.6569 236.857 35.0184 257C35.4384 280.297 37.9704 288.84 37.9704 288.84C37.9704 288.84 39.9242 290.36 43.5738 292.241C45.0671 305.054 46.9166 318.471 47.2306 318.976C47.7634 319.834 52.6706 318.884 52.6706 318.884C52.6706 318.884 53.6069 307.7 54.5404 296.594C61.1186 298.52 69.4736 299.845 79.2736 299.08C88.5026 298.36 93.0737 297.278 95.4353 296.307C99.8919 308.031 104.955 320.166 105.911 320.83C109.023 322.989 111.975 320.617 111.975 320.617C111.975 320.617 108.519 304.588 106.045 292.296C107.632 291.789 109.301 291.38 110.876 290.994C116.773 289.549 121.336 288.43 115.229 283.713C107.082 277.42 99.9526 248.112 97.1869 236.743C96.7379 234.897 96.4039 233.524 96.1992 232.8C96.084 232.391 95.9543 231.777 95.8117 230.989C94.5733 220.262 93.092 208.426 92.3522 204.653C92.2095 203.926 92.0255 202.965 91.8108 201.83C90.6776 193.731 89.5269 186.635 88.5686 184.31C87.4112 177.992 86.3977 172.42 86.1505 171.06L87.0919 171.229C86.7759 170.168 85.9031 163.531 85.4871 156.388V156.388C85.4383 155.562 85.3951 154.728 85.3599 153.896C85.0727 146.945 85.3215 140.069 87.0279 137.847C91.4223 132.127 91.8199 124.009 91.5575 119.486C91.5575 119.486 103.713 141.446 104.473 143.103C106.449 147.408 102.412 147.289 98.5528 147.176H98.5528C97.3825 147.142 96.2287 147.108 95.2639 147.199L86.3543 146.16L88.5687 151.981L107.273 150.963C115.991 149.926 119.234 144.846 112.976 132.472C111.072 128.71 99.2935 106.315 97.2527 104.187C95.2079 102.059 86.6591 97.1269 78.2239 94.4662C69.7911 91.8047 62.7639 93.5799 62.7639 93.5799C62.7639 93.5799 52.4967 95.5164 44.4871 98.687C39.3039 100.739 31.8071 140.196 31.4639 142.137C29.7095 151.999 27.2759 188.331 28.2047 188.54Z" fill="#BC995A"/>
<path fill-rule="evenodd" clip-rule="evenodd" d="M58.0243 93.8866C58.0243 93.8866 62.6843 114.265 71.1595 118.15C71.1595 118.15 80.4171 106.38 77.2251 93.9809C77.2251 93.9809 67.3867 90.1286 58.0243 93.8866Z" fill="#303669"/>
<path fill-rule="evenodd" clip-rule="evenodd" d="M69.7942 100.003C76.5606 98.7247 75.1214 94.9658 75.1214 94.9658C75.1214 94.9658 74.8086 92.8446 74.6854 90.1616C74.6558 89.475 74.635 88.7525 74.639 88.0172C74.643 86.9023 74.6958 85.765 74.8262 84.6916C75.3798 80.1559 62.5438 82.8621 62.5438 82.8621C62.5438 82.8621 63.2846 92.0438 61.5142 94.794C59.7446 97.5466 63.0278 101.28 69.7942 100.003Z" fill="#303669"/>
<path fill-rule="evenodd" clip-rule="evenodd" d="M82.3301 57.0496C82.3301 57.0496 89.4173 70.6918 82.3893 83.6164C75.3597 96.5401 61.5493 77.9881 60.6549 75.8118C59.7605 73.6355 55.0253 61.3231 64.4445 57.5827C73.8645 53.8414 80.3245 53.3459 82.3301 57.0496Z" fill="#EEA886"/>
<path fill-rule="evenodd" clip-rule="evenodd" d="M72.4508 144.705C72.4508 144.705 68.7484 140.913 68.1892 141.132C67.6284 141.353 69.7484 145.319 69.7484 145.319L72.4508 144.705Z" fill="#EEA886"/>
<path fill-rule="evenodd" clip-rule="evenodd" d="M74.6853 90.1609C74.6557 89.4751 74.6349 88.7526 74.6389 88.0173C74.6389 88.0173 71.3837 87.6241 68.6477 84.9778C68.6477 86.8323 71.1145 89.6978 74.6853 90.1609Z" fill="#303669"/>
<path fill-rule="evenodd" clip-rule="evenodd" d="M85.4976 64.1898C75.425 49.9506 61.4331 75.0748 63.9499 78.7298C66.4675 82.3863 66.7971 85.7714 66.2515 89.6357C65.7043 93.4992 80.4379 115.067 68.1451 120.24C55.8515 125.412 49.3947 103.653 51.2179 98.2987C52.9635 93.1652 56.7579 92.3483 57.0235 85.6387C57.2875 78.9291 51.2179 43.9484 83.1688 54.5112L85.4976 64.1898Z" fill="#303669"/>
<path fill-rule="evenodd" clip-rule="evenodd" d="M65.4195 159.113L71.4315 157.323C72.4411 157.023 73.0139 155.963 72.7139 154.955L68.1275 139.572C67.8267 138.565 66.7683 137.991 65.7579 138.291L59.7443 140.079C58.7363 140.38 58.1619 141.44 58.4635 142.447L63.0483 157.831C63.3491 158.839 64.4099 159.412 65.4195 159.113Z" fill="#D8D8D8"/>
<path fill-rule="evenodd" clip-rule="evenodd" d="M77.4363 145.952C77.4363 145.952 76.4803 146.386 75.6403 146.182C74.1883 145.83 72.9171 143.969 71.0507 144.95C69.1835 145.931 70.9011 152.368 71.8795 153.305C72.8587 154.243 75.7883 153.66 79.4107 151.161C83.0363 148.662 77.4363 145.952 77.4363 145.952Z" fill="#EEA886"/>
<path fill-rule="evenodd" clip-rule="evenodd" d="M71.7312 144.705C71.7312 144.705 68.5448 144.957 65.0416 145.647C61.9672 146.252 58.5216 147.502 58.4048 148.13C58.2768 148.829 61.5808 147.959 64.6736 147.553C67.5224 147.179 67.0304 147.704 67.0304 147.704C67.0304 147.704 67.1624 147.547 64.1496 148.525C60.9096 149.577 57.7048 150.966 57.6568 151.725C57.6336 152.094 57.8296 152.251 59.0752 152.051C58.3856 152.312 58.3656 152.527 58.4592 152.81C58.9296 154.268 63.9536 153.425 65.9496 153.089C64.4184 153.356 63.3272 153.707 64.232 154.43C65.2672 155.258 72.3104 153.763 74.8872 153.456C77.7024 153.122 71.7312 144.705 71.7312 144.705Z" fill="#EEA886"/>
<path fill-rule="evenodd" clip-rule="evenodd" d="M75.9355 153.723L105.816 152.62C115.595 150.673 118.234 144.361 111.975 131.987C110.916 129.893 107.116 122.781 103.601 116.517L91.7523 121.162C94.8355 126.739 100.332 135.448 100.944 136.785C103.522 142.394 98.7787 142.318 94.2635 142.934L76.4531 144.508L75.9355 153.723Z" fill="#BC995A"/>
<path fill-rule="evenodd" clip-rule="evenodd" d="M52.7079 318.439C52.7079 318.439 51.1239 319.293 47.0887 318.439L46.7631 319.314C46.7631 319.314 50.6015 320.534 52.7079 319.314C52.7079 319.314 52.8975 319.026 52.7079 318.439Z" fill="#303669"/>
<path fill-rule="evenodd" clip-rule="evenodd" d="M111.569 318.724C111.569 318.724 109.813 319.816 104.839 319.032L104.572 319.878C104.572 319.878 109.334 321.359 111.824 319.737C111.824 319.737 111.84 319.426 111.569 318.724Z" fill="#303669"/>
<path fill-rule="evenodd" clip-rule="evenodd" d="M75.9355 153.724L84.4851 155.91C84.4851 155.91 84.4851 155.909 84.4867 155.904V155.902C84.4379 155.077 84.3947 154.243 84.3595 153.411L75.9355 153.724Z" fill="#806738"/>
<path fill-rule="evenodd" clip-rule="evenodd" d="M65.2949 140.611C65.2949 141.11 65.7005 141.515 66.2005 141.515C66.6973 141.515 67.1029 141.11 67.1029 140.611C67.1029 140.112 66.6973 139.709 66.2005 139.709C65.7005 139.709 65.2949 140.112 65.2949 140.611Z" fill="#48484D"/>
<path fill-rule="evenodd" clip-rule="evenodd" d="M72.7937 89.698L74.6853 88.1566C74.6853 88.1566 61.7983 77.7047 65.5885 71.3339C69.3787 64.963 61.0406 68.703 61.0406 68.703L58.0243 82.4974L72.7937 89.698Z" fill="#303669"/>
<path fill-rule="evenodd" clip-rule="evenodd" d="M251.473 326.498L249.326 319.381L239.679 320.767L241.006 327.172L251.473 326.498Z" fill="#EEA886"/>
<path fill-rule="evenodd" clip-rule="evenodd" d="M188.032 327.036L187.423 330.913L176.926 328.974L177.589 323.177L188.032 327.036Z" fill="#EEA886"/>
<path fill-rule="evenodd" clip-rule="evenodd" d="M212.765 202.658C212.765 202.658 214.392 216.56 216.183 230.807C216.589 234.048 217.005 237.31 217.41 240.427C218.746 250.667 219.982 259.376 220.51 260.903C221.931 265.016 237.608 321.874 237.608 321.874C237.608 321.874 250.956 323.249 251.473 321.566C251.473 321.566 240.963 257.584 241.155 255.251C241.35 252.921 239.059 187.16 239.059 187.16C239.059 187.16 213.544 198.878 212.765 202.658Z" fill="#00732F"/>
<path fill-rule="evenodd" clip-rule="evenodd" d="M432.416 332.85L419.543 247.312L422.021 246.933L434.895 332.467L432.416 332.85Z" fill="black"/>
<path fill-rule="evenodd" clip-rule="evenodd" d="M416.695 332.85L403.822 247.312L406.302 246.933L419.175 332.467L416.695 332.85Z" fill="black"/>
<path fill-rule="evenodd" clip-rule="evenodd" d="M339.265 332.85L336.785 332.467L349.66 246.933L352.137 247.312L339.265 332.85Z" fill="black"/>
<path fill-rule="evenodd" clip-rule="evenodd" d="M423.571 248.185L433.655 142.186C433.655 142.186 416.018 139.883 405.36 140.451L389.342 248.185H423.571Z" fill="#037F4D"/>
<path fill-rule="evenodd" clip-rule="evenodd" d="M389.342 248.185H423.571V242.797H389.342V248.185Z" fill="#084834"/>
<path fill-rule="evenodd" clip-rule="evenodd" d="M366.949 243.866L361.598 142.855C361.598 142.855 406.237 138.013 433.655 142.186L366.949 243.866Z" fill="#037F4D"/>
<path fill-rule="evenodd" clip-rule="evenodd" d="M402.595 110.147C402.595 110.147 409.488 89.9528 396.334 83.6923C383.18 77.431 372.012 86.4825 369.904 91.3786C367.794 96.2748 368.351 105.179 370.151 111.388C371.95 117.599 371.689 127.052 367.779 130.211C363.871 133.375 359.025 138.623 359.264 149.313C359.413 155.942 385.379 132.35 385.379 132.35L402.595 110.147Z" fill="#FCCCA2"/>
<path fill-rule="evenodd" clip-rule="evenodd" d="M385.044 327.454C385.044 327.454 384.635 341.726 386.675 342.584C388.713 343.443 396.434 338.479 399.84 333.57C403.245 328.666 395.572 317.242 394.313 310.942C393.787 308.301 387.788 303.556 384.863 304.914C381.936 306.276 379.802 309.759 379.802 309.759C379.802 309.759 387.246 314.856 385.044 327.454Z" fill="#D4C3BD"/>
<path fill-rule="evenodd" clip-rule="evenodd" d="M379.802 309.76C379.802 309.76 382.336 314.63 383.638 318.409C384.941 322.188 385.184 332.653 386.005 333.38C386.824 334.105 393.295 330.845 394.158 326.932C395.021 323.019 392.398 315.198 389.901 311.086C387.403 306.975 384.863 304.915 384.863 304.915C384.863 304.915 380.451 305.771 379.802 309.76Z" fill="#DE9673"/>
<path fill-rule="evenodd" clip-rule="evenodd" d="M394.314 310.941L401.266 321.078L399.949 321.978L394.576 314.143L394.314 310.941Z" fill="#D4C3BD"/>
<path fill-rule="evenodd" clip-rule="evenodd" d="M369.29 198.865C369.29 198.865 372.69 204.599 369.29 208.774C365.89 212.951 343.034 224.421 343.2 231.046C343.368 237.671 347.555 248.04 349.059 250.67C350.564 253.301 356.115 264.218 358.999 270.607C361.883 276.995 378.559 307.558 381.819 314.448C385.079 321.338 383.073 286.892 383.073 286.892L366.398 238.039L405.36 200.116C405.36 200.116 400.643 189.629 369.29 198.865Z" fill="#D59575"/>
<path fill-rule="evenodd" clip-rule="evenodd" d="M384.112 134.17C384.112 134.17 373.301 136.564 369.011 139.072C364.719 141.576 355.191 153.102 355.191 158.055C355.191 163.011 396.864 167.641 396.864 167.641L404.763 196.452C404.763 196.452 425.828 191.315 428.336 187.056C430.842 182.797 420.041 152.484 418.536 146.095C417.033 139.708 409.151 135.398 400.377 134.17C391.598 132.944 384.112 134.17 384.112 134.17Z" fill="#464473"/>
<path fill-rule="evenodd" clip-rule="evenodd" d="M409.664 199.812C409.664 199.812 408.912 204.739 410.918 206.826C412.925 208.916 422.165 221.09 417.272 233.05C412.778 244.033 404.064 243.823 404.064 243.823H390.578C390.578 243.823 394.492 263.593 393.229 276.619C391.964 289.646 386.016 319.395 385.891 320.897C385.765 322.402 380.189 327.102 378.559 324.721C378.559 324.721 378.408 306.808 377.529 300.044C376.652 293.279 372.916 266.223 371.787 262.215C370.66 258.206 364.015 246.054 364.015 244.802C364.015 243.55 357.523 223.938 371.693 218.929C385.86 213.916 390.868 199.917 409.664 199.812Z" fill="#EEA886"/>
<path fill-rule="evenodd" clip-rule="evenodd" d="M371.844 338.536C371.844 338.536 362.543 349.376 363.588 351.324C364.634 353.274 373.76 354.266 379.498 352.589C385.234 350.912 386.459 337.21 389.447 331.521C390.699 329.14 389.021 321.679 385.891 320.898C382.76 320.119 378.906 321.488 378.906 321.488C378.906 321.488 381.486 330.125 371.844 338.536Z" fill="#E6D3CC"/>
<path fill-rule="evenodd" clip-rule="evenodd" d="M378.907 321.488C378.907 321.488 377.811 326.865 376.443 330.621C375.078 334.378 368.682 342.666 368.862 343.746C369.043 344.826 376.125 346.356 379.259 343.857C382.393 341.356 385.277 333.628 385.924 328.861C386.568 324.095 385.891 320.898 385.891 320.898C385.891 320.898 381.922 318.794 378.907 321.488Z" fill="#EEA886"/>
<path fill-rule="evenodd" clip-rule="evenodd" d="M389.447 331.52L388.472 343.769L386.881 343.642L387.634 334.176L389.447 331.52Z" fill="#E6D3CC"/>
<path fill-rule="evenodd" clip-rule="evenodd" d="M417.271 233.05C413.029 244.177 404.063 243.823 404.063 243.823H390.579C390.579 243.823 384.951 234.917 371.177 233.387C368.123 233.048 364.669 233.07 360.788 233.633C360.742 233.64 360.695 233.646 360.647 233.655C342.344 236.363 345.879 243.075 345.934 243.25C344.415 239.539 342.817 233.638 343.2 230.461C344.956 215.987 365.889 212.952 369.29 208.775C372.689 204.599 369.29 198.865 369.29 198.865C400.644 189.63 405.36 200.117 405.36 200.117C406.734 199.927 410.257 197.9 411.755 197.89C411.755 197.89 413.324 201.314 414.429 204.406C415.404 207.131 421.875 220.975 417.271 233.05Z" fill="#464473"/>
<path fill-rule="evenodd" clip-rule="evenodd" d="M392.444 253.302L352.137 256.871C352.137 256.871 345.23 243.866 344.461 238.326C343.692 232.786 342.89 221.141 357.117 215.382C371.345 209.623 394.326 223.34 394.326 223.34L393.361 235.275L390.607 242.797L392.444 253.302Z" fill="#464473"/>
<path fill-rule="evenodd" clip-rule="evenodd" d="M404.262 153.359L408.902 196.452H347.84L343.2 153.359H404.262Z" fill="#DED1C5"/>
<path fill-rule="evenodd" clip-rule="evenodd" d="M403.562 196.452H413.761V192.575H403.562V196.452Z" fill="#DED1C5"/>
<path fill-rule="evenodd" clip-rule="evenodd" d="M305.759 202.317H473.948V196.452H305.759V202.317Z" fill="#BC8551"/>
<path fill-rule="evenodd" clip-rule="evenodd" d="M390.87 87.1363C390.87 87.1363 404.549 91.1797 402.595 110.147C400.64 129.115 391.705 128.139 390.87 128.278C390.031 128.416 379.423 129.115 376.072 106.104C372.723 83.0922 390.87 87.1363 390.87 87.1363Z" fill="#EEA886"/>
<path fill-rule="evenodd" clip-rule="evenodd" d="M397.389 124.789C397.389 124.789 396.665 131.069 397.875 134.974C399.085 138.88 381.939 138.987 381.951 135.775C381.959 132.127 383.704 129.079 382.061 122.828C380.42 116.576 397.389 124.789 397.389 124.789Z" fill="#EEA886"/>
<path fill-rule="evenodd" clip-rule="evenodd" d="M387.337 95.5946C387.337 95.5946 394.772 107.407 402.595 110.147C402.595 110.147 406.867 90.3252 389.223 86.1699C371.577 82.0195 374.341 106.194 375.659 112.639C375.659 112.639 379.333 103.155 387.337 95.5946Z" fill="#FCCCA2"/>
<path fill-rule="evenodd" clip-rule="evenodd" d="M384.09 125.59C384.09 125.59 389.503 131.225 396.426 126.176C396.426 126.176 395.854 129.778 390.875 130.244C385.897 130.708 384.09 125.59 384.09 125.59Z" fill="#A77860"/>
<path fill-rule="evenodd" clip-rule="evenodd" d="M399.625 134.071C399.625 134.071 399.382 147.199 388.962 147.589C378.539 147.979 380.709 134.997 380.709 134.997C380.709 134.997 388.333 131.912 399.625 134.071Z" fill="#EEA886"/>
<path fill-rule="evenodd" clip-rule="evenodd" d="M469.628 337.049H473.948V202.317H469.628V337.049Z" fill="#807066"/>
<path fill-rule="evenodd" clip-rule="evenodd" d="M305.759 337.049H310.078V202.317H305.759V337.049Z" fill="#807066"/>
<path fill-rule="evenodd" clip-rule="evenodd" d="M198.659 182.693C198.659 182.693 184.903 247.007 183.737 251.928C182.571 256.85 175.268 324.568 175.268 324.568C175.268 324.568 179.548 327.564 189.804 327.044C189.804 327.044 205.4 255.974 206.645 253.614C211.479 244.46 228.219 199.061 230.553 192.715C232.886 186.368 239.34 179.955 239.34 179.955C239.34 179.955 222.478 170.093 198.659 182.693Z" fill="#00732F"/>
<path fill-rule="evenodd" clip-rule="evenodd" d="M162.968 113.493C162.968 113.493 153.263 108.21 152.355 108.429C151.444 108.648 151.22 109.217 152.109 109.75C152.998 110.284 161.354 115.139 161.354 115.139C161.354 115.139 148.932 110.919 148.144 110.922C147.685 110.925 147.189 112 147.641 112.332C148.094 112.663 160.201 117.591 160.201 117.591C160.201 117.591 148.595 113.673 147.943 113.885C147.373 114.071 147.153 115.185 147.998 115.539C148.839 115.892 159.435 120.172 159.435 120.172C159.435 120.172 150.833 117.882 150.388 118.411C150.119 118.734 149.648 119.64 151.884 120.158C154.119 120.675 159.285 122.484 159.285 122.484L162.968 113.493Z" fill="#EEA886"/>
<path fill-rule="evenodd" clip-rule="evenodd" d="M173.272 121.397C173.272 121.397 170.177 119.447 170.331 117.294C170.463 115.463 169.39 112.963 169.059 112.193C168.619 111.162 168.361 107.493 167.151 108.039C165.939 108.586 167.303 114.103 167.373 115.316C167.445 116.527 163.343 113.208 162.159 113.218C160.976 113.227 156.372 120.643 159.428 122.58C162.482 124.519 166.893 124.473 167.371 124.925C167.847 125.378 169.543 126.428 169.543 126.428L173.272 121.397Z" fill="#EEA886"/>
<path fill-rule="evenodd" clip-rule="evenodd" d="M205.427 113.312C205.427 113.312 198.359 131.6 196.913 131.527C195.466 131.454 171.281 119.646 171.281 119.646C171.281 119.646 167.473 125.08 168.662 125.864C170.322 126.959 201.036 150.169 203.414 149.02C205.797 147.87 206.874 133.638 206.874 133.638C206.874 133.638 212.807 114.109 205.427 113.312Z" fill="#EEA886"/>
<path fill-rule="evenodd" clip-rule="evenodd" d="M203.326 84.9234C203.326 84.9234 203.377 85.606 203.438 86.6586C203.482 87.4346 203.532 88.4113 203.571 89.4687C203.677 92.3332 203.702 95.7779 203.32 97.3445C202.605 100.273 215.881 88.3658 215.881 88.3658C215.881 88.3658 215.222 78.6518 216.223 67.8124C217.223 56.9715 203.326 84.9234 203.326 84.9234Z" fill="#EEA886"/>
<path fill-rule="evenodd" clip-rule="evenodd" d="M196.745 144.23C197.059 145.452 197.381 146.723 197.702 148.056C197.849 148.669 197.985 149.306 198.109 149.961C199.92 159.376 198.319 174.594 196.811 189.889C196.811 189.889 205.738 194.535 241.002 200.209C242.401 154.514 232.117 107.728 232.117 107.728C229.499 97.8089 224.059 94.2275 215.859 88.0325C215.859 88.0325 214.982 87.9278 203.832 95.8955C203.053 96.4534 199.135 103.701 196.876 111.72C192.885 125.909 193.911 133.253 196.745 144.23Z" fill="#EDDAD3"/>
<path fill-rule="evenodd" clip-rule="evenodd" d="M203.438 86.6585C203.482 87.4346 203.549 88.9388 203.589 89.9946C207.934 86.9758 209.977 84.1473 211.037 82.946C209.044 84.9274 203.438 86.6585 203.438 86.6585Z" fill="#A77860"/>
<path fill-rule="evenodd" clip-rule="evenodd" d="M206.712 109.982C206.712 109.982 207.455 98.5703 219.843 100.843C226.661 102.094 228.534 109.959 224.693 139.374C224.693 139.374 221.938 159.459 220.686 161.896C216.137 170.748 195.711 202.712 192.356 202.903L185.516 201.687C185.516 201.687 194.919 182.902 198.276 175.644C201.652 168.346 206.882 153.131 206.882 153.131L206.712 109.982Z" fill="#EEA886"/>
<path fill-rule="evenodd" clip-rule="evenodd" d="M216.183 230.807C216.589 234.049 217.005 237.311 217.41 240.427C217.41 240.425 217.41 240.425 217.41 240.424C222.364 227.912 227.342 201.536 227.441 201.064C226.75 202.932 216.183 230.807 216.183 230.807Z" fill="#084834"/>
<path fill-rule="evenodd" clip-rule="evenodd" d="M215.859 88.0322C215.859 88.0322 199.181 106.299 195.033 119.645C195.033 119.645 196.187 108.574 203.528 95.9367C203.528 95.9367 208.686 88.1345 215.859 88.0322Z" fill="#EEA886"/>
<path fill-rule="evenodd" clip-rule="evenodd" d="M195.052 57.5767C195.052 57.5767 190.479 65.327 190.463 66.951C190.447 68.5743 192.413 68.5791 191.383 70.2783C190.356 71.9782 188.264 75.16 189.272 76.1903C190.279 77.2205 192.681 76.717 193.181 78.9277C193.679 81.1384 196.472 87.872 199.544 87.8592C202.62 87.8464 213.19 82.5227 213.894 80.3551C214.597 78.1868 218.611 66.0974 219.891 63.7716C221.167 61.4458 198.917 50.2253 196.984 53.9002L195.052 57.5767Z" fill="#EEA886"/>
<path fill-rule="evenodd" clip-rule="evenodd" d="M195.464 56.7947C195.464 56.7947 192.156 55.1874 193.336 51.9169C194.516 48.6464 197.334 44.3065 203.793 46.3894C210.252 48.4722 215.136 52.8888 219.599 53.6081C224.064 54.3298 225.099 58.6745 221.175 66.7717C217.252 74.868 215.676 78.857 215.676 78.857C215.676 78.857 214.328 71.8716 212.632 72.1418C210.938 72.4119 208.212 67.8075 208.212 67.8075L207.76 68.9975L204.747 68.7969C204.747 68.7969 208.677 60.3106 206.596 59.2388C204.514 58.1654 195.789 57.737 195.464 56.7947Z" fill="#464473"/>
<path fill-rule="evenodd" clip-rule="evenodd" d="M204.746 68.7966C204.746 68.7966 202.748 76.0554 201.094 76.1345C199.44 76.2128 193.794 77.1391 192.742 77.9687C192.742 77.9687 191.914 78.5993 192.263 79.6527C192.612 80.7061 193.606 86.9858 191.61 89.0694C191.61 89.0694 193.032 91.3113 200.158 88.8185C207.283 86.3264 211.037 82.9464 211.037 82.9464C211.037 82.9464 205.927 73.2308 207.76 68.9972L204.746 68.7966Z" fill="#464473"/>
<path fill-rule="evenodd" clip-rule="evenodd" d="M208.216 66.5697C208.216 66.5697 210.292 62.651 214.062 65.3717C216.802 67.3498 213.157 73.9611 210.318 73.8292C207.481 73.6966 206.676 70.0025 208.216 66.5697Z" fill="#EEA886"/>
<path fill-rule="evenodd" clip-rule="evenodd" d="M226.892 125.213L202.258 121.159C202.258 121.159 203.695 95.4775 218.225 96.5565C232.753 97.6347 230.792 109.961 226.892 125.213Z" fill="#EDDAD3"/>
<path fill-rule="evenodd" clip-rule="evenodd" d="M186.307 200.455C186.307 200.455 184.159 202.034 183.039 202.225C181.919 202.416 174.954 203.256 174.327 204.623C173.701 205.99 168.635 214.04 169.743 214.841C170.851 215.641 171.406 214.994 171.737 214.397C172.071 213.799 176.166 208.436 176.761 208.231C176.761 208.231 173.395 214.261 174.504 215.586C175.612 216.909 176.936 216.323 177.828 216.416C178.723 216.507 180.343 217.252 181.69 216.255C183.037 215.257 187.744 207.771 188.932 206.576C190.121 205.381 195.515 200.537 195.498 200.192C195.478 199.847 186.307 200.455 186.307 200.455Z" fill="#EEA886"/>
<path fill-rule="evenodd" clip-rule="evenodd" d="M187.423 330.912C187.423 330.912 179.503 329.235 179.23 328.988C178.955 328.741 177.304 325.577 176.067 326.101C174.829 326.628 174.746 330.445 173.532 331.07C172.32 331.695 162.721 337.929 161.534 339.076C160.349 340.22 153.176 339.407 152.318 341.419C151.456 343.43 151.303 348.213 162.039 347.276C172.777 346.34 184.986 348.297 187.315 347.073C189.644 345.848 188.107 334.008 187.423 330.912Z" fill="#30230B"/>
<path fill-rule="evenodd" clip-rule="evenodd" d="M251.473 326.498C251.473 326.498 243.386 326.11 243.076 325.911C242.767 325.71 240.63 322.85 239.493 323.566C238.355 324.283 238.883 328.064 237.786 328.874C236.689 329.685 228.214 337.374 227.224 338.696C226.239 340.014 219.027 340.359 218.501 342.482C217.975 344.604 218.59 349.351 229.039 346.709C239.487 344.067 251.851 344.05 253.954 342.466C256.058 340.886 252.644 329.445 251.473 326.498Z" fill="#30230B"/>
<path fill-rule="evenodd" clip-rule="evenodd" d="M749.11 155.297L749.526 155C749.526 155 750.969 158.645 754.971 158.645C758.972 158.645 764.266 155.393 764.266 155.393L767 159.713C767 159.713 766.425 167 765.697 167C764.969 167 742 167 742 167L742.922 159.713L746.162 157.547L749.11 155.297Z" fill="#E8E8E8"/>
<path fill-rule="evenodd" clip-rule="evenodd" d="M738.653 131.299C738.653 131.299 749.304 127.264 754.94 129.938C760.575 132.611 757.724 143.935 757.724 146.396C757.724 148.857 756.554 167.956 758.565 167.956C760.575 167.956 765.5 167.782 768.364 170.145C771.228 172.508 774.933 169.373 774.933 167.956C774.933 166.538 775.81 164.382 771.228 160.334C766.647 156.285 765.774 153.627 765.774 150.011C765.774 146.396 773.513 116.512 761.546 112.557C749.579 108.602 738.487 112.558 737.359 120.187C736.23 127.815 738.653 131.299 738.653 131.299Z" fill="#C7C7C7"/>
<path d="M737 125L767 122" stroke="#626161" stroke-width="3" stroke-linecap="round" stroke-linejoin="round"/>
</svg>
