<svg width="27" height="26" viewBox="0 0 27 26" fill="none" xmlns="http://www.w3.org/2000/svg">
<g clip-path="url(#clip0)">
<path d="M25.93 16.1914C24.2136 22.9203 17.236 27.0151 10.3472 25.3357C3.45828 23.6563 -0.731876 16.8433 0.987129 10.1144C2.70613 3.3855 9.67987 -0.711879 16.5675 0.967517C23.455 2.64691 27.6491 9.45996 25.93 16.1914Z" fill="#F7931A"/>
<path d="M19.1283 11.3609C19.3842 9.689 18.0817 8.79089 16.2997 8.19174L16.8783 5.92826L15.4666 5.58534L14.9034 7.78979C14.5332 7.69935 14.1526 7.61393 13.7733 7.52978L14.339 5.31026L12.9286 4.96735L12.3526 7.22957L9.50729 6.54123L9.13186 8.01337C9.13186 8.01337 10.1784 8.24826 10.1566 8.26208C10.7274 8.4015 10.8316 8.77079 10.8136 9.06346L9.23086 15.2661C9.16143 15.4356 8.984 15.6894 8.58414 15.5926C8.59828 15.6127 7.55814 15.3414 7.55814 15.3414L6.85742 16.9216L9.69886 17.6225L9.11514 19.9123L10.5243 20.2553L11.1029 17.9893C11.4886 18.091 11.8614 18.1852 12.2266 18.2744L11.6506 20.5303L13.061 20.8733L13.6447 18.5872C16.0503 19.0318 17.8593 18.8522 18.6205 16.7281C19.2337 15.0173 18.5909 14.0301 17.3245 13.3857C18.2476 13.1772 18.9419 12.5855 19.1283 11.3609ZM15.9037 15.7773C15.4666 17.4881 12.5184 16.5636 11.5606 16.3312L12.3359 13.2978C13.2924 13.5301 16.3589 13.9924 15.9037 15.7773ZM16.3409 11.337C15.9436 12.8945 13.4879 12.1032 12.6907 11.9085L13.3927 9.15642C14.1899 9.35111 16.7549 9.71286 16.3409 11.337Z" fill="white"/>
</g>
<defs>
<clipPath id="clip0">
<rect width="25.7144" height="25.1206" fill="white" transform="translate(0.601562 0.589844)"/>
</clipPath>
</defs>
</svg>
