<svg width="38" height="40" viewBox="0 0 38 40" fill="none" xmlns="http://www.w3.org/2000/svg">
<path fill-rule="evenodd" clip-rule="evenodd" d="M19 1L35.4545 10.5V29.5L19 39L2.54552 29.5V10.5L19 1Z" stroke="white" stroke-linejoin="round"/>
<path fill-rule="evenodd" clip-rule="evenodd" d="M22.862 19.8786C23.8291 19.3233 24.3519 18.2117 24.1717 17.0965C23.9478 15.3749 21.9329 14.725 20.3433 14.5882V12H18.7761V14.5654H17.7239V12H16.1568V14.5654H13V16.2187H14.1754C14.7015 16.2187 14.959 16.3783 14.959 16.8115V23.9148C14.959 24.5077 14.6679 24.6901 14.3545 24.6901H13.1567V26.3776H16.2015V29H17.7799V26.3776H18.8321V29H20.3657V26.3776H20.7015C23.9254 26.3776 25 24.77 25 22.5808C24.9742 21.2901 24.0955 20.1796 22.862 19.8786ZM17.8 16.25H18.9677C19.7851 16.25 21.3965 16.3825 21.3965 17.6409C21.4526 18.4622 20.8232 19.182 19.9602 19.2857H17.8V16.25ZM19.5132 24.7379V24.75C21.1711 24.75 22 23.9875 22 22.6321C22 21.2766 20.2537 21.1071 19.7895 21.1071H17.8V24.7379H19.5132Z" fill="#FFD542"/>
</svg>
