<svg width="1217" height="237" viewBox="0 0 1217 237" fill="none" xmlns="http://www.w3.org/2000/svg">
<path d="M741.415 217.841C741.415 217.841 740.81 213.771 740.523 211.931C740.204 210.092 738.259 207.611 738.259 204.489C738.259 201.368 738.418 198.803 741.224 197.298C744.062 195.793 747.345 196.852 748.015 195.96C748.684 195.068 748.142 193.758 750.183 191.473C752.223 189.187 752.351 186.985 753.18 183.557C754.009 180.1 757.356 163.572 756.591 152.534C756.591 152.534 755.922 149.551 756.24 147.935C756.559 146.29 758.313 145.092 760.927 143.559C763.541 142.026 769.28 137.343 773.361 132.41C777.442 127.476 780.056 122.821 780.917 118.808C781.778 114.822 783.818 102.613 784.424 96.3976C785.03 90.1819 786.21 84.3842 787.708 80.7607C789.175 77.1651 792.331 73.8204 795.647 71.2282C798.962 68.636 802.055 65.8487 804.095 63.7303C806.104 61.612 807.698 60.0511 809.26 58.1C810.854 56.1489 810.886 55.7865 812.767 55.7029C814.648 55.6192 814.489 55.0618 814.106 54.4764C813.724 53.919 810.376 53.7517 808.91 53.8632C807.443 53.9747 806.008 53.1664 807.571 51.7727C809.133 50.3791 809.994 49.6823 812.576 49.0691C815.127 48.4558 819.813 47.3967 822.428 46.0588C825.042 44.7209 828.9 43.4387 832.024 43.7453L832.662 33.3208C832.662 33.3208 828.932 32.7912 828.198 30.8958C827.465 29.0283 830.462 28.2479 832.662 26.7149C834.862 25.154 837.795 25.2933 841.684 26.7706C845.574 28.2479 848.093 31.4812 850.516 33.0699C852.939 34.6587 854.501 36.3869 856.701 35.0211C858.901 33.6553 863.077 30.199 866.329 28.8611C869.549 27.551 873.63 26.464 877.297 27.9134C880.995 29.3628 889.667 34.9096 892.122 36.136C894.577 37.3624 896.808 38.5609 897.829 38.7839C897.829 38.7839 897.765 36.3868 899.168 34.0733C900.57 31.7599 901.176 31.955 901.304 30.1433C901.431 28.3037 900.57 24.7916 902.483 24.8752C904.364 24.9589 903.472 29.1398 906.182 29.2792C908.892 29.4185 914.088 30.199 914.598 32.4288C915.077 34.6587 916.161 37.446 918.807 39.0626C921.421 40.6514 923.43 42.4074 924.546 44.8324C925.662 47.2573 925.98 48.7625 927.893 48.1214C929.806 47.4803 930.316 46.3933 930.316 46.3933C930.316 46.3933 930.89 47.1459 930.189 48.5953C929.456 50.0168 930.508 50.2676 929.583 51.494C928.659 52.7204 927.638 52.4974 928.34 54.3649C929.073 56.2324 929.456 56.8178 932.102 58.0442C934.748 59.2706 936.629 59.5494 937.107 61.7514C937.585 63.9812 937.554 64.5386 940.168 66.2946C942.782 68.0785 944.918 70.9216 948.17 72.5382C951.422 74.1549 961.497 77.7505 969.244 77.7505C977.024 77.7505 986.492 73.6253 989.553 71.925C992.582 70.2248 992.231 69.3049 994.399 68.3015C996.567 67.298 995.738 67.0751 997.332 65.1519C998.926 63.2008 999.5 64.1484 1000.97 64.0369C1002.43 63.9254 1002.34 62.2809 1002.37 61.5283C1002.4 60.8036 1001.86 59.6609 1003.77 59.3821C1005.69 59.1034 1005.75 58.1836 1007.09 56.79C1008.43 55.3963 1010.53 51.8006 1012.09 50.407C1013.66 49.0133 1013.72 47.9262 1015.03 47.2294C1016.33 46.5605 1016.4 45.6407 1015.19 44.4979C1014.01 43.3272 1012.41 41.5991 1013.11 37.4181C1013.78 33.2372 1014.33 34.9096 1016.21 35.1883C1018.09 35.467 1018.85 36.6098 1019.78 38.4773C1020.7 40.3448 1021.12 40.7351 1022.42 39.8989C1023.73 39.0348 1026.76 37.8919 1029.09 37.4738C1031.41 37.0279 1033.74 36.9722 1035.18 37.5854C1036.61 38.1986 1037.79 39.1741 1038.3 38.115C1038.78 37.0279 1038.72 34.8259 1039.89 35.9966C1041.07 37.1672 1041.43 38.4494 1043.08 38.533C1044.74 38.6167 1048.34 38.4216 1048.82 40.8186C1049.3 43.2436 1051.44 42.4074 1051.72 44.6372C1052.01 46.8392 1054.05 47.5082 1053.51 49.6823C1052.97 51.8564 1052.14 51.6334 1051.44 52.6926C1050.73 53.7518 1050.67 54.6716 1048.79 54.9503C1046.88 55.229 1045.67 54.8109 1045.67 54.8109C1045.67 54.8109 1045.54 56.6505 1045 58.9919C1044.42 61.3611 1044.96 62.8384 1042.8 63.8418C1040.63 64.8453 1039.23 63.6746 1037.69 64.7059C1036.16 65.7372 1036.48 67.2145 1034.92 68.6081C1033.36 70.0018 1026.79 74.2663 1024.05 77.8062C1021.31 81.3461 1020.67 81.3182 1018.25 83.5759C1015.79 85.8337 1015.15 86.1682 1013.53 88.3144C1011.93 90.4327 1011.62 88.5931 1009.42 90.5163C1007.22 92.4395 1002.18 95.5056 1000.42 96.6763C998.671 97.8749 987.034 102.836 984.58 104.927C982.157 107.017 977.215 108.439 972.337 109.47C967.459 110.529 954.929 112.675 954.929 112.675C954.929 112.675 953.495 115.714 952.06 118.417C950.625 121.093 948.585 120.257 948.266 122.264C947.915 124.271 947.851 138.932 947.596 149.747C947.341 160.561 949.095 166.331 950.306 170.428C951.518 174.526 953.239 177.369 952.857 180.1C952.474 182.832 952.06 182.804 951.9 185.201C951.741 187.57 953.016 194.26 954.068 197.41C955.121 200.587 956.81 203.793 957.48 206.747C958.149 209.729 959.488 211.792 960.827 213.687C962.166 215.583 963.314 217.645 963.601 219.513C963.92 221.353 967.395 222.83 969.786 224.781C972.177 226.732 974.377 232.139 974.377 232.139C974.377 232.139 965.068 233.171 962.995 232.892C960.923 232.613 957.002 228.014 956.428 227.067C955.854 226.119 954.324 223.833 953.782 222.523C953.24 221.213 950.211 219.234 949.828 215.193C949.446 211.151 946.194 199.416 944.791 194.957C943.388 190.497 940.582 185.201 939.243 183.139C937.904 181.048 936.406 178.038 936.852 174.386C937.299 170.735 935.481 162.958 934.844 159.614C934.206 156.269 931.91 149.551 931.337 145.315C930.763 141.078 929.934 137.733 929.774 136.814C929.615 135.894 925.757 134.054 924.641 131.434C923.557 128.814 923.749 125.525 923.749 125.525C923.749 125.525 921.74 124.326 919.572 125.135C917.436 125.943 913.961 127.615 911.602 128.619C909.242 129.622 904.97 130.877 903.376 132.633C901.782 134.389 896.203 143.308 893.62 147.572C891.038 151.865 886.574 159.363 884.821 164.408C883.035 169.453 883.195 173.857 881.314 176.895C879.433 179.933 876.404 181.606 874.746 184.839C873.088 188.072 869.677 195.431 868.497 200.866C867.317 206.329 866.839 207.388 867.126 209.423C867.413 211.458 867.349 212.545 866.202 214.329C865.054 216.112 864.735 217.562 865.277 219.234C865.787 220.907 868.146 223.945 867.923 227.067C867.732 230.188 855.649 228.683 855.649 228.683C855.649 228.683 853.257 223.248 853.385 221.408C853.513 219.597 854.246 217.785 854.565 215.778C854.883 213.771 853.64 210.594 855.011 208.447C856.414 206.301 857.466 202.873 858.646 200.364C859.857 197.856 861.993 193.535 863.842 190.887C865.691 188.211 867.668 183.362 867.796 178.038C867.923 172.714 867.062 169.564 869.804 166.22C872.514 162.847 875.033 156.185 876.34 152.227C877.647 148.241 880.58 138.124 881.664 134.305C882.748 130.514 883.099 128.312 882.366 126.64C881.633 124.94 877.647 121.651 875.447 119.532C873.279 117.414 872.355 118.835 868.242 117.553C864.129 116.243 855.904 113.289 852.62 112.397C849.304 111.505 849.432 109.86 846.116 109.163C842.8 108.439 836.806 107.073 835.467 108.467C834.128 109.86 832.215 113.623 831.578 117.079C830.94 120.536 831.227 122.933 829.378 125.609C827.529 128.284 826.477 128.591 825.648 131.49C824.851 134.389 825.01 134.751 822.555 137.399C820.068 140.047 818.984 140.716 818.889 142.36C818.793 144.005 816.593 152.339 815.605 157.802C814.648 163.265 813.277 164.659 813.341 167.056C813.405 169.453 814.234 172.965 813.373 176.421C812.544 179.877 814.202 186.929 815.509 192.671C816.816 198.413 819.558 208.28 824.468 214.189C829.346 220.126 831.833 227.568 831.833 227.568C831.833 227.568 820.865 228.321 819.845 227.903C818.825 227.485 818.06 223.053 817.04 222.272C816.051 221.492 813.086 218.231 813.532 214.775C813.947 211.318 812.48 207.946 811.205 204.768C809.93 201.591 802.98 185.285 801.481 182.107C800.015 178.93 797.336 174.386 797.336 174.386C797.336 174.386 794.977 171.878 797.177 166.861C799.377 161.816 801.354 153.677 802.724 148.604C804.095 143.531 802.852 139.629 803.235 137.064C803.617 134.5 804.223 131.239 803.203 130.821C802.183 130.403 800.588 132.159 799.473 133.58C798.325 135.002 797.815 136.814 794.818 137.761C791.821 138.709 789.589 137.315 786.911 139.963C784.233 142.583 779.801 146.402 776.9 148.855C774.031 151.28 771.225 152.255 769.79 154.931C768.356 157.607 766.666 161.398 764.53 165.133C762.394 168.895 761.756 172.519 760.895 176.142C760.034 179.766 758.791 186.149 758.632 189.076C758.44 192.002 759.556 194.622 759.014 196.629C758.472 198.608 756.591 198.72 754.838 199.723C753.084 200.754 753.594 202.956 751.554 205.27C749.513 207.555 750.31 208.141 750.406 209.98C750.502 211.82 755.156 214.802 754.742 217.896C754.232 221.018 741.415 217.841 741.415 217.841Z" fill="black"/>
<path d="M1165.57 80.036C1165.61 79.4785 1166.91 78.6422 1165.32 77.2765C1163.72 75.9107 1164.84 75.0466 1166.34 74.5728C1167.84 74.0989 1174.37 73.8481 1176.25 73.9317C1178.14 74.0154 1178.96 74.2383 1178.65 75.8828C1178.33 77.5273 1179.25 79.3949 1180.05 80.3704C1180.85 81.346 1182.76 83.9939 1183.08 85.6663C1183.4 87.3387 1182.03 88.9274 1181.32 89.9866C1180.62 91.0458 1180.53 92.8854 1180.18 95.0595C1179.83 97.2336 1180.21 97.9862 1178.2 99.7422C1176.19 101.47 1175.49 102.557 1175.81 104.397C1176.13 106.237 1178.77 107.101 1180.34 109.191C1181.9 111.282 1183.2 113.734 1183.17 117.776C1183.14 121.818 1184.48 123.518 1186.2 126.166C1187.92 128.814 1191.69 135.587 1193.5 137.148C1195.29 138.709 1198.89 141.803 1201.54 143.029C1204.18 144.256 1206.54 143.81 1207.82 146.82C1209.09 149.83 1209.83 148.381 1212.28 149.412C1214.74 150.443 1217.32 152.952 1216.97 154.959C1216.65 156.966 1213.97 159.028 1212.7 159.53C1211.42 160.004 1210.59 159.418 1210.46 158.136C1210.34 156.854 1208.55 155.293 1207.31 154.68C1206.1 154.067 1204.28 152.506 1203.04 152.45C1201.79 152.394 1199.59 153.76 1198.35 153.342C1197.11 152.924 1197.01 151.447 1195.38 150.443C1193.76 149.44 1189.74 146.876 1188.5 146.457C1187.25 146.039 1183.43 143.837 1181.61 142.444C1179.79 141.078 1178.1 138.235 1177.78 139.684C1177.5 141.134 1175.62 150.973 1175.49 153.147C1175.36 155.349 1174.02 159.864 1173.45 162.234C1172.88 164.603 1174.47 166.303 1175.55 169.118C1176.64 171.934 1177.63 172.881 1178.74 174.944C1179.86 177.006 1181.71 181.327 1182.06 185.926C1182.41 190.525 1181.64 192.866 1181.64 196.183C1181.64 199.472 1181.58 200.587 1180.24 201.618C1178.9 202.65 1174.72 205.939 1173.39 207.165C1172.05 208.392 1166.02 210.677 1162.96 212.74C1159.9 214.802 1157.22 213.938 1157.06 216.67C1156.9 219.401 1155.82 219.903 1157.38 221.631C1158.94 223.359 1158.94 223.555 1159.01 225.756C1159.07 227.958 1162.32 229.937 1163.44 232.195C1164.55 234.453 1158.15 233.031 1156.9 232.446C1155.69 231.833 1147.5 228.683 1146.48 227.903C1145.49 227.122 1142.94 227.178 1142.49 227.708C1142.05 228.237 1143.99 230.718 1146.57 233.031C1149.15 235.345 1150.33 236.711 1147.62 236.376C1144.91 236.07 1139.18 233.784 1137.74 233.338C1136.31 232.892 1132.8 232 1132.89 230.16C1133.02 228.349 1134.23 225.283 1134.14 223.61C1134.04 221.966 1133.25 220.99 1131.36 220.907C1129.48 220.823 1127.7 219.095 1126.52 217.924C1125.34 216.753 1123.71 215.778 1124.89 213.632C1126.07 211.485 1127.86 210.092 1128.24 206.998C1128.65 203.904 1129.39 198.441 1130.98 193.368C1132.54 188.295 1134.68 181.243 1136.56 177.843C1138.44 174.442 1139.24 172.101 1140.07 168.644C1140.93 165.216 1141.63 160.645 1141.57 157.885C1141.53 155.126 1141.98 151.475 1143.03 148.046C1144.09 144.618 1145.3 141.914 1144.91 141.357C1144.53 140.799 1139.81 135.42 1141.38 130.737C1142.94 126.027 1143.67 127.532 1145.33 124.493C1146.99 121.455 1146.64 120.508 1146.95 118.529C1147.27 116.522 1148.55 109.609 1152.95 106.515C1157.35 103.421 1159.71 102.418 1162.1 101.247C1164.49 100.077 1165.57 99.4077 1165.45 98.0977C1165.32 96.8155 1162.67 95.394 1162.19 92.8018C1161.72 90.2096 1161.91 90.7671 1161.81 88.7602C1161.72 86.7255 1161.4 85.2482 1162.8 82.7396C1164.3 80.3426 1165.57 80.036 1165.57 80.036Z" fill="black"/>
<path d="M768.293 21.0566C768.293 21.0566 769.058 20.5549 770.939 21.1402C772.821 21.7255 775.02 22.06 776.646 22.1158C778.272 22.1715 779.611 21.4468 779.643 20.6663C779.675 19.8859 780.568 19.6629 781.014 19.3006C781.461 18.9382 781.556 17.3773 780.855 15.9558C780.185 14.5064 779.516 13.1963 779.261 11.7748C779.038 10.3533 778.655 8.65305 775.658 7.00854C772.629 5.36403 768.421 4.4442 766.062 4.10972C763.734 3.77524 764.308 3.91468 761.662 3.83106C759.016 3.74744 756.21 3.63588 753.628 2.79968C751.013 1.93562 750.025 1.37822 747.092 0.514157C744.159 -0.349908 744.031 0.0124387 741.799 0.597773C739.568 1.15523 737.24 0.820764 734.722 1.12737C732.203 1.43397 728.887 -0.349921 729.238 2.24227C729.557 4.83447 732.426 6.59048 730.736 8.34648C729.047 10.1025 727.516 11.4683 726.687 13.4751C725.858 15.5098 726.974 16.9593 726.273 19.2449C725.571 21.5304 723.18 25.8229 721.809 30.5334C720.438 35.244 718.876 43.2993 716.644 47.09C714.413 50.8807 708.26 57.2358 701.277 58.6573C694.295 60.1067 684.986 57.7096 682.977 56.3717C680.968 55.0059 680.873 54.2534 677.844 52.4695C674.847 50.6856 675.421 50.4627 674.624 48.5116C673.827 46.5605 672.392 45.9751 669.81 44.2191C667.227 42.4631 667.291 41.4318 664.549 39.7873C661.839 38.1428 660.436 39.6479 660.245 37.1951C660.054 34.7423 660.245 30.5056 657.44 27.4395C654.634 24.3735 651.605 22.8683 649.182 20.8615C646.759 18.8546 644.719 18.3808 644.368 16.4576C644.017 14.5064 644.4 12.7226 644.751 11.3289C645.101 9.93526 646.153 9.18266 645.93 7.9005C645.707 6.61834 645.452 5.69848 643.826 5.50337C642.2 5.33613 640 5.64276 640.032 7.70537C640.096 9.76797 640.446 11.4403 638.693 14.7293C636.939 18.0184 637.067 18.4086 633.751 19.8302C630.436 21.2517 625.334 23.9275 621.604 25.0703C617.874 26.241 612.422 26.2967 608.023 26.2967C603.623 26.2689 595.11 25.349 590.87 24.9309C586.63 24.5407 585.036 23.4536 582.613 21.6976C580.189 19.9416 581.178 17.7955 579.265 17.6004C577.352 17.4052 578.819 17.8511 577.448 15.3426C576.077 12.8619 576.427 11.6912 575.79 9.74013C575.152 7.78902 577.958 7.51023 576.077 6.28382C574.228 5.0574 570.912 6.22807 570.147 6.98064C569.382 7.73321 569.923 8.76457 570.752 9.82375C571.581 10.8829 571.326 13.4473 571.263 14.9803C571.199 16.5133 571.836 15.6492 571.199 16.5133C570.561 17.4052 569.445 16.2067 569.063 18.1021C568.68 20.0253 568.871 19.2448 566.161 20.5827C563.452 21.9206 563.515 23.593 561.666 25.572C559.817 27.5789 558.032 27.5232 556.884 30.3105C555.736 33.0978 556.278 34.1569 555.832 37.0836C555.417 40.0381 554.811 40.4005 553.791 43.4386C552.771 46.5047 553.504 49.7379 552.133 51.2431C550.731 52.7482 547.128 51.0759 545.853 53.6123C544.545 56.1487 544.067 57.5424 542.505 59.8001C540.943 62.0578 538.966 66.2388 536.416 70.5313C533.865 74.8237 532.558 74.6564 532.239 78.5029C531.92 82.3494 532.494 89.3177 533.036 93.3314C533.61 97.3451 535.65 104.23 535.937 107.463C536.224 110.696 536.224 110.947 534.311 114.097C532.398 117.247 530.326 121.177 530.677 126.194C531.059 131.239 531.538 133.162 532.94 135.141C534.343 137.12 536.288 139.238 535.81 137.176C535.3 135.085 535.013 135.336 535.969 133.441C536.926 131.545 538.488 129.539 538.36 125.943C538.233 122.319 540.401 119.95 540.401 119.95C540.401 119.95 539.476 130.598 538.87 134.695C538.233 138.792 535.172 144.98 533.578 147.907C531.984 150.806 530.645 154.485 529.083 156.52C527.521 158.527 526.15 159.363 527.074 162.234C527.967 165.105 529.242 166.805 529.975 169.676C530.741 172.547 535.3 185.954 536.097 191.11C536.894 196.295 538.775 203.681 538.711 205.353C538.647 207.026 537.627 206.858 537.213 209.283C536.798 211.708 539.891 215.165 539.891 215.165L553.154 215.109C553.154 215.109 553.664 210.482 551.687 208.113C549.742 205.743 550.061 208.057 547.766 203.346C545.47 198.636 545.629 198.775 544.514 193.451C543.43 188.128 542.888 180.128 542.505 175.752C542.122 171.376 542.633 172.937 542.633 172.937C542.633 172.937 545.279 179.32 545.725 182.832C546.171 186.316 547.861 191.277 548.403 195.263C548.945 199.277 549.168 201.2 548.977 202.231C548.786 203.263 546.49 205.353 546.203 208.196C545.916 211.011 546.171 212.322 546.171 212.322L560.742 212.433C560.742 212.433 561.953 208.475 559.881 205.465C557.808 202.427 556.342 202.12 556.119 200.448C555.895 198.775 555.704 199.528 554.684 196.016C553.664 192.504 553.409 188.518 552.899 186.288C552.42 184.086 552.484 179.208 552.452 176.365C552.452 173.522 554.11 168.951 553.217 166.108C552.325 163.237 551.719 160.143 551.719 160.143C551.719 160.143 552.229 155.126 552.707 151.419C553.154 147.712 553.249 145.51 553.409 142.444C553.536 139.35 554.684 136.953 554.748 135.531C554.811 134.11 558.446 132.047 559.976 130.43C561.507 128.814 564.95 124.41 566.225 122.654C567.469 120.898 569.573 119.922 570.434 117.637C571.263 115.351 572.028 114.738 572.028 114.738C572.028 114.738 574.164 109.804 574.674 108.522C575.184 107.24 584.525 108.996 586.725 108.662C588.957 108.355 595.78 110.25 597.788 110.975C599.829 111.7 600.084 112.592 602.284 112.926C604.484 113.261 615.387 112.982 617.268 113.316C619.181 113.651 626.195 114.264 627.407 113.93C628.586 113.595 631.679 113.818 631.679 113.818C631.679 113.818 629.702 125.079 629.32 130.347C628.937 135.615 628.012 139.824 626.769 144.924C625.526 150.025 624.697 151.921 623.708 154.206C622.72 156.492 622.688 157.384 621.7 159.418C620.712 161.453 621.222 163.767 620.967 166.331C620.712 168.895 620.935 173.522 620.361 176.477C619.787 179.403 616.28 189.215 614.845 191.472C613.411 193.73 611.402 196.127 610.828 199.305C610.254 202.51 610.956 202.9 609.999 204.684C609.043 206.44 606.747 211.903 606.747 211.903C606.747 211.903 605.089 213.018 607.13 213.325C609.17 213.659 624.856 214.83 627.853 214.022C630.818 213.213 631.52 211.179 628.459 210.175C625.398 209.172 622.497 208.447 622.465 206.106C622.433 203.792 623.964 202.287 622.752 199.695C621.54 197.075 624.123 192.281 624.474 187.514C624.824 182.748 627.471 176.672 628.873 174.414C630.308 172.156 632.763 169.536 634.516 166.749C636.27 163.962 636.908 162.707 635.983 160.478C635.058 158.248 635.537 153.649 636.971 148.158C638.406 142.667 640.988 136.981 642.2 133.023C643.412 129.065 645.643 125.413 647.237 122.515C648.831 119.616 651.414 114.543 651.414 114.543L655.846 113.93C655.846 113.93 656.292 117.023 655.431 119.978C654.57 122.905 653.582 128.396 651.35 136.061C649.087 143.698 648.672 146.903 647.652 149.83C646.632 152.757 644.623 155.265 644.4 159.892C644.209 164.519 644.814 163.516 645.229 167.892C645.611 172.296 646.632 176.059 646.377 178.484C646.121 180.936 645.866 186.706 645.388 190.803C644.91 194.901 645.324 198.524 645.229 201.34C645.101 204.155 646.982 204.879 647.333 206.942C647.684 209.005 647.716 208.113 645.579 210.231C643.412 212.349 643.38 213.381 644.081 214.44C644.782 215.499 656.387 215.638 659.799 215.109C663.21 214.579 668.917 215.304 667.961 213.464C667.004 211.625 664.262 210.37 662.222 209.785C660.181 209.2 658.3 208.364 657.471 207.193C656.643 205.994 657.025 204.099 655.814 201.59C654.602 199.11 654.475 195.096 654.475 195.096C654.475 195.096 654.506 184.17 654.315 182.219C654.092 180.268 655.144 169.899 655.144 169.899C655.144 169.899 658.938 164.101 658.811 160.115C658.683 156.129 658.811 153.537 659.671 150.611C660.532 147.684 665.793 135.252 667.004 131.545C668.184 127.866 671.149 124.466 673.381 120.173C675.644 115.881 676.346 116.02 676.186 113.177C676.027 110.334 676.027 109.944 677.111 108.829C678.195 107.714 681.16 106.906 682.148 104.509C683.136 102.084 687.122 95.5334 687.122 95.5334C687.122 95.5334 690.533 95.2547 695.443 94.1397C700.353 93.0248 709.885 90.126 713.361 88.3143C716.836 86.5025 725.826 79.0883 728.377 75.2975C730.896 71.5068 733.255 68.5244 734.562 65.2075C735.869 61.9185 738.484 56.7062 739.185 53.668C739.918 50.602 742.086 47.7033 743.234 45.557C744.35 43.4108 745.561 42.5467 746.263 40.3726C746.932 38.1985 749.068 36.8606 749.068 36.8606C749.068 36.8606 751.555 37.0836 751.874 33.4879C752.193 29.8923 752.193 29.8923 752.193 29.8923C752.193 29.8923 752.512 29.2512 755.126 26.5197C757.74 23.7881 758.282 24.8195 760.1 23.8718C761.917 22.8962 760.801 24.2898 763.224 23.4536C765.615 22.6453 766.508 22.4224 767.114 21.9206C767.688 21.5583 768.293 21.0566 768.293 21.0566Z" fill="black"/>
<path d="M218.934 65.9881C218.934 65.9881 221.58 64.26 219.763 61.9187C217.946 59.5773 217.563 60.0512 216.862 58.769C216.16 57.4869 215.778 57.9607 214.216 56.2605C212.653 54.5602 214.247 54.7553 211.474 54.0306C208.7 53.3059 204.906 53.9748 203.089 54.2257C201.24 54.4766 200.506 54.588 199.454 54.0306C198.434 53.501 197.509 53.6125 197.095 54.7553C196.68 55.8981 194.927 55.7308 192.918 55.8702C190.91 56.0096 189.029 55.034 187.212 54.5881C185.426 54.1421 183.418 53.4731 181.664 54.1142C179.911 54.7553 179.4 55.5078 177.551 55.5078C175.67 55.48 173.885 55.0619 172.578 56.4555C171.271 57.8492 168.911 56.1489 169.708 58.769C170.473 61.3891 171.653 61.7793 171.271 63.2008C170.888 64.6223 169.326 65.3749 168.624 66.8243C167.955 68.2737 168.784 69.3886 167.891 70.6151C166.998 71.8136 166.265 72.8727 167.445 75.1862C168.624 77.4718 170.282 77.1374 169.358 78.8934C168.433 80.6494 167.094 85.4714 166.106 88.7604C165.117 92.0495 162.886 96.1746 160.335 97.5962C157.784 99.0456 155.648 99.4636 153.863 99.8539C152.046 100.244 150.005 99.1571 147.327 99.1013C144.649 99.0456 140.409 97.0387 139.197 96.5092C138.018 95.9796 135.595 93.8612 133.14 92.2724C130.653 90.6836 130.366 90.7394 130.493 89.7638C130.621 88.7883 131.514 87.5898 131.45 85.5272C131.386 83.4924 131.163 83.1022 128.389 81.5692C125.615 80.0361 125.265 79.8132 122.491 79.0885C119.717 78.3638 119.654 78.1129 119.143 77.7785C118.601 77.444 117.804 78.2244 116.306 77.6112C114.776 76.998 116.306 76.6635 115.509 74.0156C114.744 71.3955 116.593 70.4478 114.744 67.9671C112.895 65.4864 112.48 63.2287 110.28 64.8732C108.08 66.5456 107.666 67.6883 107.698 69.6116C107.73 71.507 107.283 73.486 107.283 73.486C107.283 73.486 106.008 73.3745 104.255 74.0435C102.501 74.6846 94.4349 75.9109 91.438 76.6077C88.4411 77.3046 80.6618 78.3638 80.6618 78.3638C80.6618 78.3638 79.3229 73.486 78.6215 72.0923C77.8882 70.6987 76.1028 69.305 75.242 69.8067C74.413 70.3363 72.1494 72.5383 72.1494 74.4616C72.1813 76.3569 72.2451 79.3672 72.2451 79.3672C72.2451 79.3672 68.5468 80.5378 65.8687 81.2068C63.1587 81.8479 57.5474 81.7922 54.4868 82.2103C51.4261 82.6284 47.4409 82.2102 43.8382 82.0151C40.2036 81.82 36.0909 81.4298 35.1982 84.4122C34.3374 87.3946 33.3172 91.4919 33.1259 93.8333C32.9346 96.1746 32.9346 98.0979 32.01 98.9062C31.0535 99.7145 29.1087 100.244 26.877 100.69C24.6133 101.136 21.7121 101.526 19.8948 102.725C18.0775 103.923 13.6141 104.258 12.7852 108.467C11.9881 112.675 13.2315 114.404 11.3504 116.188C9.46939 117.944 8.32161 119.337 7.14198 120.591C5.96234 121.846 6.69569 123.239 4.91029 125.664C3.15678 128.089 0.893127 129.371 1.97711 130.291C3.09299 131.239 2.96544 131.518 2.45532 133.915C1.94521 136.312 1.21199 141.05 0.925049 143.698C0.606232 146.346 0.510559 147.573 1.4989 149.496C2.45535 151.419 2.4554 152.227 3.12491 154.206C3.79443 156.157 6.15364 158.973 6.15364 158.973C6.15364 158.973 8.73611 161.23 10.0752 162.54C11.4142 163.85 12.3069 164.408 12.2431 166.889C12.2112 169.341 10.6491 176.254 9.0231 180.296C7.39713 184.337 6.40877 185.842 5.32478 187.626C4.24078 189.41 2.58286 189.772 4.84647 192.894C7.11009 195.988 10.3621 203.625 11.733 206.162C13.1358 208.698 14.7618 214.356 16.2284 218.259C17.6949 222.161 17.8544 225.673 19.3209 226.843C20.7875 228.014 20.2455 227.68 20.2136 229.324C20.1817 230.969 18.7152 233.226 20.66 233.505C22.5729 233.784 34.3374 232.195 36.856 230.606C39.3747 229.045 40.6181 227.234 38.8646 226.091C37.1111 224.976 32.9664 225.394 30.7028 225.004C28.4392 224.614 27.1958 222.746 24.7409 220.488C22.3179 218.231 22.3816 217.813 21.744 215.973C21.1064 214.133 18.4601 201.953 17.9181 198.051C17.3761 194.176 17.6631 190.581 18.5558 188.546C19.4485 186.511 21.0744 182.47 22.0947 180.268C23.1149 178.094 24.167 174.386 24.6453 172.686C25.1235 170.986 25.9524 170.317 25.9524 170.317C25.9524 170.317 26.6538 177.731 26.1755 180.268C25.6973 182.804 26.2394 184.226 24.9641 186.595C23.657 188.964 22.4135 190.776 24.3902 192.142C26.3668 193.507 30.2246 195.988 31.8824 197.41C33.5403 198.831 38.9921 205.744 41.3195 208.28C43.6469 210.844 47.3771 216.057 47.3771 216.057C47.3771 216.057 47.7916 218.454 48.2698 219.346C48.7481 220.238 50.5653 220.934 51.1073 221.269C51.6493 221.603 51.1711 222.495 51.5218 225.311C51.8725 228.126 51.8405 228.823 52.7651 228.823C53.6897 228.823 61.7559 227.596 63.8601 227.039C65.9643 226.481 69.1844 225.366 68.9612 224.168C68.738 222.969 65.4542 222.858 63.2225 221.798C60.9908 220.739 58.2807 219.457 57.7069 218.036C57.133 216.614 57.4837 215.053 54.965 214.022C52.4463 212.991 50.8841 211.29 49.5451 209.033C48.2061 206.747 42.7542 198.887 41.5108 196.323C40.2674 193.758 39.6616 190.274 38.7371 187.682C38.7371 187.682 38.482 186.205 38.4182 184.17C38.3544 182.135 39.2472 181.856 39.7573 177.703C40.2674 173.522 39.7892 171.683 40.2355 169.843C40.6819 168.004 42.2122 166.833 43.1049 164.937C44.0294 163.042 44.1251 160.143 44.3164 158.61C44.5077 157.077 44.6991 156.38 44.0933 154.68C43.4875 152.98 42.6586 152.701 44.157 152.367C45.6555 152.032 47.2814 153.314 49.5769 153.816C51.8405 154.318 54.2955 153.175 55.7302 153.259C57.1649 153.342 59.7154 153.677 62.266 154.82C64.8165 155.99 67.3671 156.185 70.619 156.13C73.9029 156.102 78.0795 155.934 79.9605 155.962C81.8416 155.99 84.0095 155.962 86.4644 155.628C88.8874 155.293 90.1628 155.405 92.7771 155.043C95.3595 154.68 97.5594 154.68 97.5594 154.68C97.5594 154.68 98.6752 155.739 100.652 157.133C102.629 158.499 102.246 159.112 103.011 161.593C103.776 164.073 104.159 164.436 106.327 167.028C108.495 169.592 110.631 174.498 111.587 176.421C112.544 178.344 113.723 181.327 113.851 183.083C114.01 184.839 113.373 185.731 113.628 188.852C113.883 191.974 112.927 192.783 111.428 193.953C109.898 195.124 103.075 200.559 101.385 201.59C99.6954 202.65 96.6348 204.684 95.6783 204.545C94.7219 204.406 96.0609 203.124 94.3393 202.26C92.6176 201.395 92.1075 202.009 91.3743 201.423C90.641 200.838 89.4295 201.005 86.5282 202.343C83.6588 203.681 81.969 204.74 80.2793 206.747C78.5895 208.754 78.4302 210.426 78.1432 212.238C77.8244 214.05 77.4418 215.332 79.3866 214.942C81.3314 214.524 82.001 213.771 83.1168 214.022C84.2646 214.273 86.018 213.632 87.7397 212.851C89.4613 212.071 90.354 211.681 92.3626 211.681C94.403 211.681 95.1682 212.545 97.3681 212.517C99.5361 212.489 101.226 212.266 102.278 210.203C103.33 208.141 106.199 205.994 107.762 204.963C109.292 203.932 115.636 199.249 118.028 197.688C120.419 196.127 122.969 195.654 125.424 193.675C127.879 191.696 128.294 187.821 126.955 185.536C126.349 184.504 125.679 182.693 125.01 180.881C124.213 178.679 123.479 176.449 123.001 175.696C122.14 174.303 120.419 165.551 119.909 163.544C119.399 161.565 119.271 156.52 119.08 155.321C118.857 154.123 119.654 152.367 120.642 150.862C121.63 149.356 123.479 148.437 123.479 148.437C123.479 148.437 122.395 151.057 123.288 153.509C124.213 155.99 125.329 162.262 125.424 164.687C125.552 167.139 125.647 172.157 125.679 173.94C125.679 173.94 124.404 180.797 124.021 182.219C123.639 183.64 125.329 184.365 125.998 186.316C126.668 188.267 129.314 190.107 129.856 193.033C130.366 195.96 132.853 203.681 133.203 206.524C133.554 209.339 133.012 210.649 134.415 213.325C135.818 216.001 136.2 215.416 136.583 216.726C136.965 218.036 135.467 219.206 137.157 219.931C138.846 220.656 147.837 219.29 149.24 219.374C150.643 219.457 157.434 218.955 158.231 218.008C158.996 217.088 159.283 216.084 157.338 214.719C155.361 213.353 151.886 213.13 149.941 212.572C147.965 212.015 145 210.231 143.023 208.865C141.046 207.5 140.983 207.082 140.122 205.716C139.261 204.322 137.762 196.88 137.252 194.762C136.71 192.643 136.838 189.884 136.87 187.292C136.87 184.699 137.093 182.47 137.699 180.63C138.305 178.763 138.719 178.428 137.858 176.226C136.997 174.024 137.157 173.188 136.902 170.763C136.615 168.338 137.731 160.534 137.89 158.75C138.018 156.966 138.847 151.921 139.293 149.133C139.739 146.346 139.707 143.615 140.122 142.332C140.504 141.05 142.322 139.712 143.693 138.709C145.064 137.705 145.733 136.925 145.733 136.925C145.733 136.925 151.057 137.845 151.982 137.706C152.907 137.594 152.396 136.563 152.396 135.587C152.396 134.639 152.205 133.552 152.141 132.493C152.109 131.406 151.504 131.629 152.875 131.295C154.214 130.96 154.469 129.706 155.425 129.845C156.382 129.985 159.092 127.699 159.092 127.699C159.092 127.699 161.961 127.03 164.767 126.25C167.604 125.469 169.421 124.243 169.421 124.243C169.421 124.243 169.963 124.717 172.323 123.853C174.682 122.989 175.83 121.595 175.638 120.536C175.447 119.477 179.783 116.689 180.835 115.463C181.855 114.236 185.426 109.637 187.435 104.314C189.443 98.9898 190.814 97.0108 190.814 97.0108C190.814 97.0108 192.344 91.6034 193.365 87.6455C194.385 83.6875 194.194 82.6005 194.576 81.3183C194.959 80.0361 195.979 80.4543 196.712 79.2557C197.446 78.0572 196.744 77.7505 197.764 77.1931C198.753 76.6356 200.474 76.6914 200.634 75.8552C200.793 75.019 200.474 74.0992 201.048 73.7368C201.622 73.4024 203.121 73.04 204.141 72.6498C205.161 72.2317 205.257 71.8136 206.946 70.7823C208.636 69.7231 209.497 69.3329 210.485 68.6639C211.442 67.995 213.419 68.4131 213.419 68.4131C213.419 68.4131 214.726 67.8277 215.459 67.6047C216.192 67.3539 216.575 67.7163 217.467 67.4654C218.233 67.2982 218.934 65.9881 218.934 65.9881Z" fill="black"/>
<path d="M506.891 63.2007C507.242 63.2565 510.526 63.2286 511.259 62.0858C511.992 60.9151 512.184 60.1904 511.418 59.0198C510.653 57.8212 510.621 57.3195 510.175 55.8144C509.729 54.3092 510.175 54.0863 509.537 53.3058C508.9 52.5254 508.166 51.94 508.166 51.94C508.166 51.94 508.772 50.2676 507.178 49.5429C505.616 48.7904 505.52 49.0969 504.755 48.1214C503.99 47.1458 503.384 46.5605 501.12 45.9473C498.857 45.3341 493.596 45.2783 492.066 45.1389C490.536 44.9996 487.858 45.1389 487.858 45.1389C487.858 45.1389 487.571 44.1355 486.901 44.5536C486.232 44.9996 485.976 44.6094 485.498 44.7209C485.052 44.8324 485.275 44.7209 484.701 45.2784C484.159 45.8079 482.756 45.7801 481.927 45.6128C481.099 45.4456 480.493 44.8602 479.09 44.916C477.687 44.9717 476.667 45.3341 475.36 44.8881C474.053 44.4421 472.746 44.0798 471.088 43.8568C469.43 43.6338 467.102 43.5502 464.903 44.0519C462.703 44.5537 461.332 45.139 459.738 45.4177C458.112 45.6964 455.752 45.4177 455.147 46.5605C454.509 47.7033 455.274 48.7068 453.68 49.2921C452.086 49.8774 452.086 50.0725 452.532 51.3826C452.947 52.6926 453.871 54.1698 452.66 55.1454C451.448 56.1209 449.472 56.6227 448.77 58.4902C448.069 60.3577 449.503 60.9151 448.547 62.3924C447.591 63.8697 445.614 64.2599 445.614 64.2599C445.614 64.2599 442.33 66.1553 440.481 68.0785C438.632 70.0018 437.898 71.6742 435.539 73.3187C433.18 74.9632 434.009 75.2419 431.044 76.1896C428.079 77.1373 422.244 77.5275 419.821 77.862C417.398 78.1965 412.233 78.0292 409.077 78.1686C405.921 78.3079 404.359 77.4717 402.701 77.4438C401.075 77.416 400.023 77.5833 398.588 76.8307C397.121 76.0781 396.611 77.1373 395.527 76.2732C394.411 75.4091 394.985 75.0747 394.475 74.1827C393.965 73.2908 392.435 73.5695 392.148 72.5382C391.861 71.5348 393.168 70.3362 392.817 68.5245C392.467 66.7127 393.168 66.88 390.904 66.0716C388.641 65.2633 385.899 64.3714 382.774 63.2007C379.65 62.0301 380.096 61.5841 376.398 60.5527C372.7 59.4936 370.596 59.4936 369.639 59.1313C368.683 58.7689 368.651 58.2672 366.802 56.7063C364.952 55.1454 363.964 54.2814 363.231 54.0026C362.497 53.7239 362.689 52.8041 362.625 51.6891C362.561 50.5742 363.167 47.3688 363.071 45.5292C362.944 43.6896 363.454 42.4352 363.135 41.0416C362.816 39.6201 363.103 38.7839 361.796 38.1429C360.457 37.5018 360.106 37.1116 359.118 38.0592C358.13 39.0348 357.715 39.9546 357.715 41.5991C357.715 43.2436 357.237 45.0832 357.237 46.8392C357.237 48.5674 358.098 51.299 356.759 50.4349C355.42 49.5708 353.06 49.0691 351.052 48.9576C349.075 48.8461 341.487 49.2084 338.235 49.7659C334.983 50.3233 329.276 50.7136 326.981 50.9087C324.654 51.1317 321.147 50.8808 319.807 50.3234C318.5 49.7659 317.767 49.515 317.448 48.0935C317.129 46.672 316.715 43.9404 315.631 41.3203C314.547 38.7281 313.559 38.1428 312.028 37.7247C310.466 37.2787 309.701 37.9477 309.191 38.8675C308.649 39.8152 308.234 40.6514 308.617 42.6862C308.968 44.7209 309 46.6441 308.585 47.7869C308.202 48.9297 307.979 49.1527 307.023 49.097C306.098 49.0412 301.667 49.3478 297.458 49.5429C293.25 49.738 287.702 50.407 284.833 51.0759C281.964 51.717 278.233 51.9122 276.703 52.0794C275.205 52.2466 274.535 52.8041 272.016 51.9958C269.498 51.1875 269.816 50.6578 268.191 50.6578C266.565 50.63 265.481 50.3791 265.257 50.7972C265.066 51.2153 265.417 51.494 266.214 52.804C267.011 54.0862 267.138 54.8109 266.341 55.0339C265.544 55.2848 264.779 54.3928 264.907 56.6505C265.034 58.8804 264.875 59.9117 264.747 61.7792C264.62 63.6188 264.141 63.4516 264.779 65.9601C265.417 68.4966 266.086 70.0018 265.162 70.0297C264.237 70.0854 260.953 69.9182 259.2 70.1969C257.478 70.4756 255.533 71.3954 253.971 72.4824C252.409 73.5695 250.145 75.1304 249.061 76.0781C247.945 77.0536 248.742 76.4126 248.36 77.8341C247.977 79.2835 248.647 78.949 247.403 79.4229C246.16 79.8967 245.108 80.2591 244.725 81.597C244.343 82.9349 244.693 82.7119 243.578 83.6038C242.462 84.4679 240.995 85.3598 240.613 86.7256C240.23 88.0635 240.007 88.0914 238.508 88.8718C237.042 89.6523 236.372 90.2098 235.671 91.8821C234.97 93.5545 234.619 93.666 233.184 95.0596C231.749 96.4533 227.541 104.007 227.541 104.007C227.541 104.007 225.692 105.93 225.309 111.365C224.959 116.801 225.851 116.438 226.042 119.086C226.202 121.734 226.138 122.765 225.787 124.605C225.437 126.473 224.895 127.002 226.074 129.399C227.286 131.796 228.211 132.047 228.179 135.03C228.115 137.984 227.892 140.047 228.466 141.468C229.008 142.862 229.39 142.946 229.581 142.444C229.773 141.914 231.048 135.838 231.558 134.472C232.068 133.134 232.833 134.221 232.515 131.044C232.196 127.894 233.312 127.03 232.132 125.023C230.952 123.044 230.697 120.591 230.697 120.591C230.697 120.591 231.462 121.874 233.216 123.741C234.969 125.609 235.065 125.497 234.938 127.03C234.81 128.563 234.619 129.399 234.045 131.35C233.471 133.329 230.092 141.245 227.796 145.343C225.469 149.44 224.193 151.447 222.504 154.29C220.814 157.133 220.144 157.886 218.263 159.196C216.35 160.506 216.542 161.732 217.466 164.965C218.359 168.199 220.654 176.672 221.898 181.717C223.141 186.762 224.13 191.11 224.544 193.953C224.958 196.796 225.437 198.608 225.564 200.643C225.692 202.678 225.979 203.374 226.967 204.573C227.987 205.744 227.955 205.353 227.605 207.416C227.254 209.479 226.266 210.231 227.828 211.179C229.422 212.127 236.627 211.681 241.155 211.458C245.714 211.235 248.424 209.785 248.806 208.754C249.221 207.723 247.818 205.827 245.65 205.019C243.482 204.211 238.413 203.43 238.413 203.43C238.413 203.43 235.543 202.538 234.491 200.448C233.439 198.357 229.9 188.713 229.645 180.658C229.39 172.603 230.57 170.791 231.335 168.226C232.1 165.634 232.451 163.488 233.375 161.704C234.332 159.92 239.465 152.729 240.453 151.363C241.41 149.998 243.036 147.879 244.311 145.677C245.586 143.475 247.053 142.695 247.754 142.555C248.456 142.416 250.751 142.109 251.867 140.939C252.951 139.768 253.589 138.402 255.374 137.204C257.159 136.005 260.029 134.835 260.029 134.835C260.029 134.835 263.026 139.601 264.11 142.109C265.194 144.618 267.298 150.248 268.191 153.147C269.083 156.074 269.785 158.387 270.582 161.398C271.347 164.436 271.506 164.937 271.538 167.167C271.57 169.425 271.442 171.153 273.387 172.603C275.364 174.052 279.158 177.229 280.911 179.097C282.665 180.964 286.172 182.832 287.894 184.477C289.647 186.121 298.287 193.48 300.328 196.155C302.368 198.803 303.803 201.2 303.803 201.2C303.803 201.2 304.823 202.371 306.162 203.235C307.501 204.099 307.947 203.653 308.043 204.991C308.139 206.301 307.66 210.008 308.968 210.677C310.307 211.318 315.758 210.761 317.129 210.482C318.5 210.203 323.219 208.865 324.685 208.085C326.152 207.305 328.958 205.214 327.587 203.96C326.216 202.705 322.677 202.26 321.019 201.814C319.361 201.368 315.185 199.835 315.185 199.835C315.185 199.835 314.388 198.134 311.582 196.211C308.776 194.288 307.724 194.344 305.843 192.281C303.962 190.218 300.71 186.706 296.916 182.275C293.122 177.843 290.317 172.073 289.647 170.568C288.978 169.063 289.201 167 287.766 164.519C286.331 162.039 286.044 161.035 285.789 159C285.534 156.966 285.375 154.011 284.291 150.081C283.239 146.151 282.697 145.148 282.761 142.583C282.824 140.019 282.155 140.27 283.653 138.263C285.152 136.256 285.726 136.005 285.407 134.305C285.056 132.577 285.439 131.044 285.343 129.288C285.247 127.56 285.534 126.919 285.534 126.919C285.534 126.919 288.085 126.389 290.412 126.389C292.74 126.389 294.876 126.473 297.713 127.476C300.583 128.452 304.504 129.594 310.721 130.04C316.938 130.458 322.23 130.821 326.566 131.016C330.902 131.211 335.78 130.793 337.056 130.626C338.331 130.458 337.725 130.096 339.893 131.323C342.061 132.549 341.328 133.608 343.432 133.72C345.536 133.831 347.641 133.525 347.641 133.525C347.641 133.525 350.574 133.692 352.997 135.113C355.42 136.535 355.643 136.228 357.715 137.538C359.788 138.876 360.712 138.82 360.712 138.82C360.712 138.82 360.776 143.419 360.808 146.067C360.872 148.715 360.935 149.942 360.202 153.342C359.469 156.743 359.851 157.049 359.724 158.973C359.628 160.924 358.799 160.868 358.831 163.293C358.863 165.746 359.469 165.913 360.202 168.226C360.935 170.54 361.573 171.543 361.732 173.773C361.86 176.003 362.242 181.94 362.242 181.94C362.242 181.94 361.987 191.138 361.732 194.232C361.445 197.326 360.425 197.772 361.19 200.392C361.956 203.012 362.434 203.597 362.434 203.597C362.434 203.597 361.509 205.493 361.732 207.416C361.987 209.339 361.541 209.98 363.295 210.203C365.08 210.426 381.499 209.646 382.296 209.395C383.093 209.144 386.473 208.893 386.505 207.667C386.537 206.44 384.528 204.294 383.093 203.653C381.659 203.012 377.673 203.096 375.76 202.26C373.848 201.423 373.082 200.336 371.775 198.162C370.468 195.96 369.639 195.709 369.48 193.479C369.352 191.222 368.364 181.076 371.743 171.515C371.743 171.515 373.497 169.481 374.358 166.498C375.218 163.488 374.645 163.739 374.134 159.363C373.624 154.987 375.027 151.252 375.027 151.252C375.027 151.252 377.928 154.485 380.192 157.022C382.456 159.558 382.934 159.446 383.731 162.986C384.528 166.526 383.093 169.648 383.093 169.648C383.093 169.648 376.207 175.195 372.827 177.397C369.448 179.599 362.912 183.501 360.553 183.083C358.193 182.693 357.715 180.574 354.049 181.968C350.382 183.362 350.032 185.034 348.565 189.494C347.099 193.953 347.832 198.329 349.84 200.476C351.849 202.622 353.698 202.12 355.483 200.922C357.269 199.723 361.158 194.427 363.518 192.978C365.877 191.528 368.842 190.581 372.572 186.623C376.302 182.665 381.945 179.432 384.751 177.871C387.589 176.31 389.725 174.86 391.988 174.052C394.284 173.216 398.014 171.209 399.927 168.143C401.84 165.077 402.669 163.516 401.84 161.398C401.011 159.307 398.747 156.743 395.942 154.931C393.136 153.119 389.884 147.963 387.876 145.315C385.835 142.639 382.87 138.291 381.786 135.782C380.702 133.274 380.511 132.159 380.511 132.159C380.511 132.159 380.702 129.399 382.137 126.473C383.603 123.546 382.774 123.49 383.763 122.71C384.783 121.957 385.708 121.901 388.162 120.257C390.617 118.612 393.391 114.181 393.391 114.181L396.42 113.93C396.42 113.93 396.93 112.592 397.185 111.449C397.472 110.306 400.246 109.665 400.246 109.665L404.869 108.745C404.869 108.745 404.327 111.226 406.208 111.449C408.089 111.672 409.3 112.229 410.512 111.338C411.755 110.473 412.265 109.414 412.265 109.414C412.265 109.414 413.445 109.777 415.581 110.167C417.717 110.585 421.447 110.39 424.349 109.944C427.25 109.498 431.936 108.16 435.061 107.296C438.153 106.432 442.011 104.509 444.434 104.091C446.857 103.672 448.77 104.091 452.15 104.035C455.529 103.979 456.868 104.843 461.14 101.861C465.381 98.9061 468.824 95.7844 471.47 92.9971C474.085 90.2097 475.009 87.9241 476.571 84.7745C478.134 81.6527 478.644 80.3984 480.11 77.9734C481.609 75.5485 481.768 74.4336 482.151 73.0678C482.533 71.7299 482.916 72.0086 484.351 71.1167C485.817 70.2247 488.049 68.5802 488.049 68.5802C488.049 68.5802 489.165 67.6047 490.886 67.326C492.608 67.0472 494.553 66.1274 496.721 65.3191C498.889 64.5108 499.176 63.5631 500.355 63.7024C501.535 63.8418 502.045 64.5386 503.288 65.8208C504.532 67.103 505.52 68.0506 506.445 67.6046C507.337 67.1587 508.103 66.1832 507.274 65.7372C506.413 65.2633 505.967 65.1797 506.158 64.5665C506.222 63.8418 505.839 63.0335 506.891 63.2007Z" fill="black"/>
<path d="M1118.77 152.924C1123.9 153.175 1129.93 151.558 1135.29 150.165C1136.31 149.914 1137.29 149.635 1138.25 149.384C1145.39 147.573 1147.11 145.733 1147.5 145.176L1147.56 145.092L1147.59 144.897L1147.75 142.137L1146.6 144.674C1146.41 144.813 1144.95 145.621 1135.8 146.318C1134.07 146.458 1132.19 146.569 1130.25 146.708C1118.87 147.461 1111.92 148.046 1111.47 149.83C1111.28 150.666 1112.33 151.252 1113.13 151.642C1114.69 152.395 1116.6 152.813 1118.77 152.924ZM1144.56 146.207C1143.29 146.876 1141.22 147.712 1137.93 148.52C1136.98 148.771 1135.99 149.022 1134.97 149.301C1129.71 150.694 1123.78 152.255 1118.84 152.032C1116.79 151.921 1115.07 151.558 1113.61 150.862C1112.62 150.388 1112.46 150.109 1112.46 150.025C1112.78 148.771 1123.74 148.046 1130.31 147.6C1132.26 147.461 1134.14 147.35 1135.89 147.21C1138.83 146.987 1142.2 146.653 1144.56 146.207Z" fill="black"/>
<path d="M1140.74 171.181C1141.92 171.237 1143.1 171.237 1144.28 171.181L1144.21 170.289C1114.53 171.543 1091.03 138.569 1076.56 110.669C1060.84 80.3426 1052.07 49.3478 1051.98 49.0412L1050.99 49.2641C1051.08 49.5707 1059.85 80.6493 1075.63 111.059C1095.56 149.412 1117.97 170.094 1140.74 171.181Z" fill="black"/>
<path d="M1136.66 167.139C1139.14 167.251 1141.66 167.223 1144.18 167.028L1144.09 166.136C1107.93 168.867 1082.01 138.96 1066.64 113.4C1049.94 85.6106 1041.71 56.8177 1041.62 56.511L1040.63 56.734C1040.72 57.0127 1048.95 85.9171 1065.72 113.79C1086.06 147.6 1110.45 165.885 1136.66 167.139Z" fill="black"/>
<path d="M795.647 81.9593C796.412 81.9593 797.178 81.9593 797.975 81.9314L797.943 81.0394C777.634 81.7363 762.139 73.5973 751.873 56.9014C744.222 44.4142 742.532 31.5369 742.532 31.4254L741.512 31.5369C741.543 31.6763 743.233 44.693 750.98 57.3473C757.931 68.6638 771.321 81.9593 795.647 81.9593Z" fill="black"/>
<path d="M792.139 75.1583L792.234 74.2663C745.049 70.9773 745.751 26.2689 745.751 25.8229L744.73 25.795C744.73 25.9065 744.475 37.4181 750.15 49.1805C755.411 60.051 766.984 73.4023 792.139 75.1583Z" fill="black"/>
<path d="M505.999 77.4717C506.35 77.4438 506.701 77.4438 507.051 77.416C526.659 76.0502 545.756 62.9498 563.77 38.4772L562.909 38.0033C545.087 62.1972 526.244 75.1861 506.988 76.524C485.722 78.0291 471.503 64.4271 471.375 64.2877L470.61 64.873C470.77 65.0124 484.861 78.4751 505.999 77.4717Z" fill="black"/>
<path d="M488.304 73.4301C493.756 73.1793 500.005 72.4824 506.604 70.9773C525.989 66.6291 552.578 54.4764 569.221 21.2238L568.296 20.8615C551.813 53.7517 525.542 65.7929 506.413 70.0853C485.658 74.7401 468.569 71.5905 468.378 71.5626L468.155 72.4266C468.25 72.4824 476.412 73.9876 488.304 73.4301Z" fill="black"/>
<path d="M219.888 107.24C229.293 105.958 240.006 99.6587 251.93 88.3701L251.165 87.7569C235.447 102.613 221.929 108.745 210.993 105.902C194.032 101.526 188.931 76.9142 188.867 76.6634L187.847 76.8028C188.07 77.8341 193.107 102.223 210.674 106.766C213.608 107.519 216.668 107.686 219.888 107.24Z" fill="black"/>
<path d="M226.458 93.8331C235.926 92.551 246.448 87.2272 257.861 77.9176L257.16 77.2487C241.442 90.0703 227.542 95.1989 215.841 92.551C200.282 89.039 194.065 72.6496 194.002 72.4824L193.013 72.7611C193.077 72.9283 199.485 89.7916 215.586 93.4151C219.029 94.2234 222.664 94.3348 226.458 93.8331Z" fill="black"/>
</svg>
