<svg width="27" height="26" viewBox="0 0 27 26" fill="none" xmlns="http://www.w3.org/2000/svg">
<g clip-path="url(#clip0)">
<path d="M13.7439 25.7104C20.8447 25.7104 26.6011 20.087 26.6011 13.1501C26.6011 6.21328 20.8447 0.589844 13.7439 0.589844C6.64307 0.589844 0.886719 6.21328 0.886719 13.1501C0.886719 20.087 6.64307 25.7104 13.7439 25.7104Z" fill="#BA946B"/>
<path d="M19.1239 7.94372C19.1745 7.84502 19.3513 7.79566 19.4523 7.84502L20.7153 8.51128C21.3215 8.83207 21.7004 9.44898 21.7004 10.0659V13.2738C21.6499 13.4219 21.5236 13.5453 21.4226 13.5453C21.3215 13.5453 21.1952 13.4466 21.1952 13.3479V10.1399C21.1952 9.67107 20.9174 9.20222 20.488 8.95546L19.225 8.28919C19.1239 8.21516 19.0734 8.0671 19.1239 7.94372ZM11.0914 6.2904L12.9101 5.30334C13.5163 4.98255 14.2236 4.98255 14.8298 5.30334L17.6336 6.80861L17.962 6.38911L15.1076 4.83449C14.4004 4.41499 13.4152 4.41499 12.6322 4.83449L11.4703 5.4514C11.3692 5.50076 11.1924 5.50076 11.1419 5.3527C11.0914 5.25399 11.0914 5.08126 11.2429 5.0319L12.4049 4.41499C13.2889 3.94614 14.4762 3.94614 15.3602 4.41499L18.4167 6.06831C18.4672 6.11767 18.5177 6.16702 18.5177 6.21637C18.5177 6.26573 18.5177 6.36443 18.4672 6.41378L17.861 7.20343C17.7599 7.30213 17.6841 7.35149 17.5831 7.35149C17.5326 7.35149 17.4821 7.35149 17.4821 7.30214L14.5267 5.72284C14.0973 5.4514 13.5415 5.52543 13.1121 5.72284L11.2934 6.7099C11.1924 6.75925 11.0156 6.75925 10.9651 6.6112C10.9145 6.48781 10.9145 6.33975 11.0914 6.2904ZM11.0156 10.9789C11.1924 10.8309 11.3945 10.7075 11.6723 10.6581C11.9502 10.6088 12.2786 10.5594 12.708 10.5594H16.6485H16.699V11.5465H10.6872C10.7377 11.2997 10.8388 11.127 11.0156 10.9789ZM10.5104 12.7556H16.5474V13.6933H11.7229V14.0635C11.7229 14.2115 11.7734 14.3843 11.7734 14.483C11.8239 14.5817 11.8744 14.6804 11.9502 14.7544C12.0007 14.8531 12.127 14.9025 12.228 14.9025C12.3291 14.9518 12.5059 14.9518 12.6575 14.9518H16.598V15.9882H12.6575C12.228 15.9882 11.8997 15.9389 11.6218 15.8895C11.344 15.8402 11.1166 15.7415 10.9651 15.5687C10.7882 15.4207 10.6872 15.2479 10.6367 15.0012C10.5862 14.7297 10.5356 14.483 10.5356 14.1128V12.7556H10.5104ZM10.0305 7.17875C10.081 7.27746 10.0305 7.37616 9.92941 7.49955L7.25189 8.95546C6.82247 9.2269 6.54462 9.62172 6.54462 10.1399C6.54462 10.288 6.44358 10.4114 6.26676 10.4114C6.16572 10.4114 6.03942 10.3127 6.03942 10.214C6.03942 9.59704 6.41832 8.95546 6.97403 8.65934L9.65156 7.15408C9.82837 7.00602 9.92941 7.00602 10.0305 7.17875ZM7.20137 17.7649L9.39896 18.9001C9.5 18.9494 9.57578 19.0975 9.5 19.2208C9.44948 19.2702 9.32318 19.3196 9.27266 19.3196C9.22214 19.3196 9.17162 19.3196 9.17162 19.2702L7.02455 18.1351C6.41832 17.8143 6.03942 17.1974 6.03942 16.5805V12.0647C6.03942 11.966 6.14046 11.8673 6.26676 11.8673C6.3678 11.8673 6.4941 11.966 6.4941 12.0647V16.5805C6.46884 17.0493 6.74669 17.5182 7.20137 17.7649ZM5.05429 10.1893C5.00378 9.15287 5.55949 8.21516 6.46884 7.74631L7.35293 7.22811C7.45396 7.17875 7.63078 7.22811 7.6813 7.32681C7.73182 7.42552 7.73182 7.59825 7.58026 7.6476L6.69617 8.11646C5.93838 8.53596 5.48371 9.30093 5.48371 10.1399V12.8297C5.48371 12.9777 5.38267 13.1011 5.25637 13.1011C5.15533 13.1011 5.02903 13.0024 5.02903 12.9037V10.1893H5.05429ZM17.7094 20.9235L15.3602 22.2314C14.9308 22.4288 14.4256 22.6015 13.8699 22.6015C13.3142 22.6015 12.8343 22.5028 12.3796 22.2314L6.46884 19.0234C5.58475 18.5052 5.05429 17.6169 4.97852 16.5805V15.0259C4.97852 14.9271 5.07955 14.8284 5.20585 14.8284C5.30689 14.8284 5.43319 14.9271 5.43319 15.0259V16.5805C5.43319 17.4195 5.93838 18.1844 6.69617 18.6039L12.6575 21.8119C13.0364 22.0093 13.4152 22.1327 13.8699 22.1327C14.2993 22.1327 14.754 22.034 15.1329 21.8119L17.4821 20.504C17.5831 20.4547 17.7599 20.4547 17.8104 20.6027C17.861 20.7261 17.861 20.8742 17.7094 20.9235ZM18.0883 19.4923L14.8045 21.3183C14.5267 21.5158 14.1983 21.6391 13.8699 21.6391C13.5415 21.6391 13.2132 21.5404 12.9353 21.3677L11.344 20.5287C11.2429 20.4793 11.1671 20.3313 11.2429 20.2079C11.2934 20.1092 11.4703 20.0598 11.5713 20.1092L13.1627 20.9482C13.39 21.0469 13.5921 21.0963 13.8699 21.0963C14.1478 21.0963 14.3751 21.0469 14.5772 20.8988L17.861 19.0728C17.962 19.0234 18.1388 19.0234 18.1893 19.1715C18.2398 19.2702 18.2398 19.4183 18.0883 19.4923ZM22.534 16.4571C22.534 17.4441 21.9783 18.3818 21.0437 18.9001L19.3008 19.8378C19.4776 19.9365 19.4018 19.9365 19.3513 19.9365C19.3008 19.9365 19.1745 19.8871 19.1239 19.8378L18.5177 19.0481C18.4672 18.9988 18.4672 18.9494 18.4672 18.8507C18.4672 18.8013 18.5177 18.752 18.5682 18.7026L20.3869 17.7156C20.8163 17.4441 21.0942 17.0493 21.0942 16.5311V15.8155C21.0942 15.7168 21.1952 15.6181 21.3215 15.6181C21.4226 15.6181 21.5489 15.7168 21.5489 15.8155V16.5311C21.5489 17.148 21.17 17.7896 20.6143 18.0857L19.0229 18.9741L19.3513 19.3936L20.8921 18.5546C21.6499 18.1351 22.1046 17.3701 22.1046 16.5311V10.0906C22.1046 9.25157 21.5994 8.4866 20.8416 8.0671C20.7406 8.01775 20.6648 7.86969 20.7406 7.74631C20.7911 7.6476 20.9679 7.59825 21.0689 7.6476C22.0035 8.16581 22.5593 9.05416 22.5593 10.0412V16.4571H22.534Z" fill="white"/>
<path d="M5.28109 13.1009C5.38213 13.1009 5.50842 13.0022 5.50842 12.8295V10.1397C5.50842 9.30074 5.93784 8.53577 6.72089 8.11627L7.60498 7.64742C7.7818 7.59807 7.7818 7.45001 7.70602 7.32662C7.6555 7.22792 7.47868 7.17857 7.37764 7.22792L6.46829 7.74612C5.53368 8.21498 4.97797 9.15268 5.05375 10.1891V12.8788C5.05375 12.9775 5.15479 13.1009 5.28109 13.1009Z" fill="white"/>
<path d="M17.4821 20.5283L15.1329 21.8114C14.754 22.0088 14.2993 22.1322 13.8699 22.1322C13.4405 22.1322 13.0364 22.0335 12.6575 21.8114L6.69617 18.6035C5.93838 18.184 5.43319 17.419 5.43319 16.58V15.0254C5.43319 14.9267 5.33215 14.828 5.20585 14.828C5.10481 14.828 4.97852 14.9267 4.97852 15.0254V16.58C5.02903 17.6164 5.58475 18.5048 6.46884 19.023L12.3796 22.2309C12.809 22.5024 13.3142 22.6011 13.8699 22.6011C14.4256 22.6011 14.9056 22.453 15.3602 22.2309L17.7094 20.9231C17.8862 20.8737 17.8862 20.7257 17.8104 20.6023C17.7599 20.4542 17.5831 20.4542 17.4821 20.5283Z" fill="white"/>
<path d="M19.2244 8.26395L20.4874 8.93022C20.9168 9.20166 21.1946 9.64583 21.1946 10.1147V13.3226C21.1946 13.4213 21.2957 13.52 21.422 13.52C21.523 13.52 21.6493 13.4213 21.6998 13.2486V10.0407C21.6998 9.42374 21.3209 8.78216 20.7147 8.48604L19.4517 7.81978C19.3507 7.77042 19.1739 7.81978 19.1233 7.91848C19.0728 8.06654 19.1233 8.2146 19.2244 8.26395Z" fill="white"/>
<path d="M21.0432 7.64729C20.9421 7.59794 20.7653 7.64729 20.7148 7.746C20.6643 7.8447 20.7148 8.01744 20.8158 8.06679C21.5736 8.48629 22.0788 9.25126 22.0788 10.0903V16.5308C22.0788 17.3698 21.6494 18.1348 20.8663 18.5543L19.3255 19.3933L18.9971 18.9738L20.5885 18.0854C21.1442 17.7646 21.5231 17.1477 21.5231 16.5308V15.8152C21.5231 15.7165 21.4221 15.6178 21.2958 15.6178C21.1947 15.6178 21.0684 15.7165 21.0684 15.8152V16.5308C21.0684 17.049 20.7906 17.4685 20.3611 17.7153L18.5424 18.7023C18.4919 18.7517 18.4414 18.801 18.4414 18.8504C18.4414 18.9491 18.4414 18.9984 18.4919 19.0478L19.0982 19.8374C19.1487 19.8868 19.275 19.9362 19.3255 19.9362C19.376 19.9362 19.4265 19.9362 19.275 19.8374L21.0179 18.8997C21.9525 18.3815 22.5082 17.4438 22.5082 16.4568V10.0409C22.5335 9.05385 21.9778 8.1655 21.0432 7.64729Z" fill="white"/>
<path d="M17.8605 19.0724L14.5768 20.8984C14.3494 21.0465 14.1473 21.0958 13.8695 21.0958C13.5916 21.0958 13.3643 21.0465 13.1622 20.9478L11.5709 20.1088C11.4698 20.0594 11.293 20.1088 11.2425 20.2075C11.192 20.3062 11.2425 20.4789 11.3435 20.5283L12.9349 21.3673C13.2127 21.5153 13.5411 21.6387 13.8695 21.6387C14.1979 21.6387 14.5262 21.54 14.8041 21.3179L18.0878 19.4919C18.2647 19.4425 18.2647 19.2945 18.1889 19.1711C18.1384 19.023 17.9868 19.023 17.8605 19.0724Z" fill="white"/>
<path d="M6.2664 11.8423C6.16536 11.8423 6.03906 11.941 6.03906 12.0397V16.5555C6.03906 17.1724 6.41796 17.814 7.02419 18.1101L9.17126 19.2452C9.17126 19.2946 9.22178 19.2946 9.2723 19.2946C9.32282 19.2946 9.44912 19.2452 9.49964 19.1959C9.55016 19.0972 9.49964 18.9244 9.3986 18.8751L7.20101 17.7646C6.77159 17.4932 6.49374 17.049 6.49374 16.5802V12.0644C6.46848 11.941 6.36744 11.8423 6.2664 11.8423Z" fill="white"/>
<path d="M6.03906 10.1887C6.03906 10.2874 6.1401 10.3861 6.2664 10.3861C6.44322 10.3861 6.54426 10.2874 6.54426 10.1147C6.54426 9.59645 6.82211 9.17695 7.25153 8.93019L9.92905 7.47428C10.0301 7.37557 10.1059 7.27687 10.0301 7.15348C9.92905 7.00543 9.80275 7.00543 9.6512 7.10413L6.97367 8.60939C6.41796 8.93019 6.03906 9.57177 6.03906 10.1887Z" fill="white"/>
<path d="M11.2946 6.70946L13.1133 5.7224C13.5427 5.52499 14.0984 5.45096 14.5278 5.7224L17.4832 7.32637C17.4832 7.37572 17.5337 7.37572 17.5842 7.37572C17.6853 7.37572 17.7611 7.32637 17.8621 7.22766L18.4683 6.43802C18.5188 6.38866 18.5188 6.28996 18.5188 6.2406C18.5188 6.19125 18.4683 6.1419 18.4178 6.09255L15.3614 4.43922C14.4773 3.97037 13.2901 3.97037 12.406 4.43922L11.2441 5.03146C11.0672 5.08081 11.0672 5.22887 11.143 5.35225C11.1935 5.50031 11.3704 5.50031 11.4714 5.45096L12.6333 4.83405C13.3911 4.41455 14.3763 4.41455 15.1088 4.83405L17.9631 6.38866L17.6348 6.80816L14.8309 5.3029C14.2247 4.98211 13.5174 4.98211 12.9112 5.3029L11.0925 6.28996C10.9157 6.33931 10.9157 6.48737 10.9915 6.61075C11.0167 6.75881 11.1935 6.75881 11.2946 6.70946Z" fill="white"/>
<path d="M10.9392 15.5435C11.116 15.6916 11.3181 15.815 11.5959 15.8643C11.8738 15.9137 12.2022 15.963 12.6316 15.963H16.5721V14.9266H12.6568C12.48 14.9266 12.3285 14.9266 12.2274 14.8773C12.1264 14.8773 12.0001 14.8279 11.9496 14.7292C11.899 14.6798 11.8485 14.5811 11.7727 14.4578C11.7727 14.3591 11.7222 14.1863 11.7222 14.0383V13.6681H16.5468V12.7304H10.5098V14.0876C10.5098 14.4578 10.5603 14.7045 10.6108 14.976C10.6866 15.2474 10.7876 15.3955 10.9392 15.5435Z" fill="white"/>
<path d="M16.6993 10.5592H16.6488H12.7083C12.2789 10.5592 11.9505 10.6086 11.6726 10.6579C11.3948 10.7073 11.1674 10.806 11.0159 10.9787C10.8391 11.1268 10.738 11.2995 10.6875 11.5463H16.6993V10.5592Z" fill="white"/>
</g>
<defs>
<clipPath id="clip0">
<rect width="25.7144" height="25.1206" fill="white" transform="translate(0.886719 0.589844)"/>
</clipPath>
</defs>
</svg>
