<svg width="37" height="41" viewBox="0 0 37 41" fill="none" xmlns="http://www.w3.org/2000/svg">
<mask id="mask0" mask-type="alpha" maskUnits="userSpaceOnUse" x="0" y="0" width="37" height="40">
<path fill-rule="evenodd" clip-rule="evenodd" d="M0 0.404297H36.6393V39.6404H0V0.404297Z" fill="white"/>
</mask>
<g mask="url(#mask0)">
<path fill-rule="evenodd" clip-rule="evenodd" d="M29.48 8.61692C29.5854 8.40803 29.9534 8.30339 30.1647 8.40803L32.7965 9.81854C34.0601 10.4969 34.8494 11.8032 34.8494 13.1086V19.8981C34.7444 20.2117 34.481 20.4727 34.2705 20.4727C34.0601 20.4727 33.7971 20.2638 33.7971 20.0553V13.2654C33.7971 12.2727 33.2178 11.2808 32.323 10.7583L29.6905 9.34824C29.48 9.19147 29.3746 8.87793 29.48 8.61692ZM12.7397 5.11753L16.5296 3.02864C17.7932 2.34945 19.2672 2.34945 20.5308 3.02864L26.374 6.21409L27.0583 5.32601L21.1097 2.03591C19.6356 1.14824 17.5827 1.14824 15.9507 2.03591L13.529 3.34137C13.3186 3.44601 12.9502 3.44601 12.8447 3.13288C12.7397 2.92399 12.7397 2.55834 13.0552 2.45369L15.4769 1.14824C17.3197 0.156317 19.7936 0.156317 21.6364 1.14824L28.006 4.64763C28.1114 4.75187 28.2164 4.85611 28.2164 4.96117C28.2164 5.06541 28.2164 5.2743 28.1114 5.37854L26.8478 7.05005C26.637 7.25894 26.4794 7.36319 26.269 7.36319C26.1635 7.36319 26.0581 7.36319 26.0581 7.25894L19.899 3.91632C19.0038 3.34137 17.8461 3.49814 16.9509 3.91632L13.1602 6.00521C12.9502 6.10985 12.5814 6.10985 12.4763 5.79672C12.3709 5.5349 12.3709 5.22218 12.7397 5.11753ZM11.529 18.8016H24.1102V20.7862H14.0554V21.5696C14.0554 21.8828 14.1608 22.2484 14.1608 22.4573C14.2662 22.6666 14.3713 22.8755 14.5292 23.0319C14.6347 23.2404 14.898 23.3454 15.1085 23.3454C15.319 23.4501 15.6874 23.4501 16.0033 23.4501H24.2157V25.6436H16.0033C15.1085 25.6436 14.4242 25.5393 13.8449 25.4347C13.2657 25.3297 12.7922 25.1212 12.4763 24.7555C12.1079 24.442 11.8974 24.0767 11.792 23.5543C11.6866 22.9798 11.5816 22.4573 11.5816 21.6739V18.8016H11.529ZM10.5284 6.99793C10.6339 7.20682 10.5284 7.41531 10.318 7.67713L4.73775 10.7583C3.84299 11.3329 3.26372 12.1684 3.26372 13.2654C3.26372 13.5785 3.05286 13.84 2.68445 13.84C2.47399 13.84 2.21061 13.6307 2.21061 13.4222C2.21061 12.1159 3.00034 10.7583 4.15848 10.1313L9.73872 6.945C10.1075 6.63228 10.318 6.63228 10.5284 6.99793ZM4.63232 29.4036L9.21276 31.8068C9.42282 31.9107 9.58077 32.2246 9.42282 32.4852C9.31779 32.5899 9.05442 32.6941 8.94938 32.6941C8.84395 32.6941 8.73852 32.6941 8.73852 32.5899L4.26391 30.1878C3.00034 29.5086 2.21061 28.2028 2.21061 26.8969V17.3393C2.21061 17.1297 2.42147 16.9212 2.68445 16.9212C2.89531 16.9212 3.15868 17.1297 3.15868 17.3393V26.8969C3.10577 27.8892 3.68464 28.8816 4.63232 29.4036ZM0.157706 13.3696C0.0522758 11.1761 1.21042 9.19147 3.10577 8.19874L4.94861 7.10218C5.15867 6.99793 5.52748 7.10218 5.63291 7.31147C5.73794 7.51995 5.73794 7.88561 5.42205 7.98985L3.57961 8.98218C2.00054 9.87066 1.05287 11.4892 1.05287 13.2654V18.9583C1.05287 19.2719 0.842405 19.5329 0.579028 19.5329C0.368168 19.5329 0.10519 19.324 0.10519 19.1143V13.3696H0.157706ZM26.5319 36.0888L21.6364 38.8573C20.7412 39.2751 19.6885 39.6404 18.5304 39.6404C17.3723 39.6404 16.3721 39.4319 15.4244 38.8573L3.10577 32.0674C1.26333 30.9709 0.157706 29.0905 -0.000240326 26.8969V23.6068C-0.000240326 23.3979 0.21062 23.1882 0.473598 23.1882C0.684459 23.1882 0.947437 23.3979 0.947437 23.6068V26.8969C0.947437 28.6727 2.00054 30.2921 3.57961 31.1798L16.0033 37.9692C16.793 38.3874 17.5827 38.6484 18.5304 38.6484C19.4256 38.6484 20.3724 38.44 21.1626 37.9692L26.0581 35.2016C26.269 35.0969 26.637 35.0969 26.7428 35.4101C26.8478 35.6715 26.8478 35.9846 26.5319 36.0888ZM27.3217 33.0602L20.4779 36.9248C19.899 37.3426 19.2147 37.6036 18.5304 37.6036C17.8461 37.6036 17.1614 37.3951 16.5825 37.0294L13.2657 35.2537C13.0552 35.149 12.8972 34.8355 13.0552 34.5745C13.1602 34.366 13.529 34.2614 13.7399 34.366L17.056 36.1414C17.5298 36.3507 17.9511 36.4549 18.5304 36.4549C19.1093 36.4549 19.5831 36.3507 20.0044 36.0367L26.8478 32.1717C27.0583 32.0674 27.4271 32.0674 27.5321 32.381C27.6372 32.5899 27.6372 32.9034 27.3217 33.0602ZM36.5868 26.6355C36.5868 28.7248 35.4286 30.7094 33.4808 31.8068L29.8484 33.7915C30.2172 34 30.0589 34 29.9534 34C29.8484 34 29.5854 33.8953 29.48 33.7915L28.2164 32.1195C28.1114 32.0153 28.1114 31.9107 28.1114 31.7022C28.1114 31.5975 28.2164 31.4929 28.3219 31.3882L32.1122 29.2989C33.0069 28.7248 33.5858 27.8892 33.5858 26.7927V25.2775C33.5858 25.069 33.7971 24.8602 34.0601 24.8602C34.2705 24.8602 34.5339 25.069 34.5339 25.2775V26.7927C34.5339 28.0981 33.7442 29.4557 32.586 30.0828L29.2695 31.9628L29.9534 32.8509L33.1653 31.0751C34.7444 30.1878 35.6916 28.568 35.6916 26.7927V13.1608C35.6916 11.385 34.6393 9.76601 33.0599 8.87793C32.8494 8.77369 32.6911 8.46016 32.8494 8.19874C32.9544 7.98985 33.3228 7.88561 33.5333 7.98985C35.4816 9.08723 36.6393 10.9668 36.6393 13.0561V26.6355H36.5868Z" fill="white"/>
</g>
<path fill-rule="evenodd" clip-rule="evenodd" d="M12.4238 24.702C12.7926 25.0155 13.2135 25.2765 13.7924 25.3812C14.3716 25.485 15.0559 25.5901 15.9507 25.5901H24.1635V23.3965H16.0036C15.6352 23.3965 15.3189 23.3965 15.1088 23.2919C14.8984 23.2919 14.635 23.1876 14.5296 22.9788C14.4241 22.8745 14.3191 22.6652 14.1612 22.4042C14.1612 22.1953 14.0561 21.8297 14.0561 21.5161V20.7327H24.1106V18.748H11.529V21.6208C11.529 22.4042 11.6344 22.9262 11.7395 23.5004C11.8974 24.0749 12.1083 24.3889 12.4238 24.702Z" fill="#FFD542"/>
<path fill-rule="evenodd" clip-rule="evenodd" d="M12.5814 15.0408C12.9502 14.7276 13.3715 14.4662 13.9504 14.362C14.5292 14.2573 15.2139 14.1531 16.1087 14.1531H24.3211H24.4265V16.242H11.8974C12.0025 15.7195 12.2133 15.3547 12.5814 15.0408Z" fill="#FFD542"/>
</svg>
