<svg width="489" height="403" viewBox="0 0 489 403" fill="none" xmlns="http://www.w3.org/2000/svg">
<mask id="mask0" mask-type="alpha" maskUnits="userSpaceOnUse" x="0" y="333" width="489" height="70">
<path fill-rule="evenodd" clip-rule="evenodd" d="M6.10352e-05 333.284H488.985V403H6.10352e-05V333.284Z" fill="white"/>
</mask>
<g mask="url(#mask0)">
<path opacity="0.05" fill-rule="evenodd" clip-rule="evenodd" d="M53.5332 345.705C58.7666 345.705 62.9046 345.549 67.0249 345.745C72.068 345.986 77.1182 345.786 82.1462 346.067C85.3478 346.245 111.15 346.654 114.34 346.838C137.909 348.202 176.196 381.012 182.579 381.28C186.509 381.445 156.428 362.234 160.34 362.504C168.393 363.059 170.857 365.59 178.909 365.551C184.704 365.523 190.506 365.132 196.288 364.689C202.437 364.218 208.538 363.266 214.657 362.504C220.775 361.742 226.899 360.964 233.038 360.342C239.941 359.642 246.809 358.657 253.659 357.537C256.459 357.079 259.334 357.05 262.178 356.902C268.359 356.581 328.602 383.462 334.776 383.037C338.966 382.748 275.662 342.912 279.84 342.537C292.377 341.409 286.314 336.382 298.86 336.048C304.779 335.89 310.697 335.784 316.608 335.886C321.764 335.976 326.941 336.121 332.061 336.95C332.985 337.1 333.981 337.207 334.776 336.347C335.256 335.827 335.977 335.765 336.682 335.854C340.458 336.329 343.5 336.347 348 336.347C354 336.347 364.505 336.007 370 337.276C379.504 339.471 382 341.199 391.5 347C396.4 349.992 404 356.342 405.5 360.342C403.5 365.842 327.107 359.941 332.061 360.342C337.247 360.762 350.23 371.537 357 373.037C357.55 374.245 410 374.354 410 374.354C417 375.5 419.5 374.5 424.5 378C426.721 379.08 429.821 381.158 431.5 383.037C434.5 385.354 432.5 383.854 435 385.854C436.875 387.354 435.5 386.354 438 388.354C438.625 388.854 442.5 391.347 438 391.854C431 392.642 435.5 392.354 428.5 392.749C424 392.749 424.656 392.232 420.495 392.749C416.145 393.289 411.801 393.872 407.45 394.417C404.055 394.842 400.654 395.229 397.258 395.651C393.672 396.095 390.092 396.579 386.505 397.01C384.351 397.269 382.19 397.489 380.028 397.672C375.269 398.075 370.511 398.508 365.744 398.795C363.767 398.914 361.779 399.125 359.807 399.091C356.116 399.026 352.433 399.274 348.77 399.495C342.603 399.867 336.441 399.787 330.292 399.628C326.068 399.518 321.831 398.978 317.604 398.631C312.745 398.232 307.903 397.726 303.08 397.065C297.735 396.332 292.422 386.224 287.085 385.427C283.273 384.858 279.444 384.398 275.624 383.88C271.566 383.331 267.516 382.722 263.451 382.232C260.197 381.839 256.928 381.543 253.659 381.28C248.786 380.89 243.889 380.881 239.016 380.598C233.77 380.295 229.711 381.136 224.5 381.28C219.289 381.424 198.445 381.964 196.288 385.427C194.131 388.89 222.811 403.325 218 404.562C209.535 406.739 190 404.562 181.5 404.562C176.551 405.609 165.366 403.933 160.34 404.562C156.182 405.082 149.426 404.137 145.259 404.562C142.814 404.81 140.367 405.092 137.909 405.272C133.594 405.588 129.282 405.558 124.97 405.5C115.591 405.376 109.425 407.487 100.5 404.562C95.5814 402.949 94.5388 403.474 91.1223 399.537C89.4515 397.611 83.666 388.089 82.1462 386.037C78.8342 381.563 123 381.28 127.84 381.28C130.453 381.28 138.303 382.058 136 379.5C131.5 374.5 130.5 372.5 124.97 372.371C121.627 372.018 118.04 372.567 116.84 372.371C111.979 371.577 78.5 371.975 73.5001 371.975C71 371.975 70.5 370.913 66 367.413C61 362.913 58.9822 361.237 56.5 358.913C54.3644 356.913 54.5 357.413 52.0001 355.413C49.2393 353.204 49.0001 352.913 46.5001 350.413C44.5875 348.5 46.5 350.413 43.5 347.413C43.0001 346 46.0671 345.705 47.5 345.705C50.5034 345.705 49 345.705 53.5332 345.705Z" fill="black"/>
</g>
<path fill-rule="evenodd" clip-rule="evenodd" d="M315.605 394.796C302.692 393.386 293.283 381.694 294.696 368.814L332.358 25.4998C333.77 12.6191 345.492 3.23363 358.404 4.64316C371.317 6.05268 380.726 17.7444 379.312 30.6251L341.651 373.939C340.238 386.82 328.517 396.206 315.605 394.796Z" fill="#FFCB42"/>
<mask id="mask1" mask-type="alpha" maskUnits="userSpaceOnUse" x="294" y="4" width="86" height="391">
<path fill-rule="evenodd" clip-rule="evenodd" d="M315.605 394.796C302.692 393.386 293.283 381.694 294.696 368.814L332.358 25.4998C333.77 12.6191 345.492 3.23363 358.404 4.64316C371.317 6.05268 380.726 17.7444 379.312 30.6251L341.651 373.939C340.238 386.82 328.517 396.206 315.605 394.796Z" fill="white"/>
</mask>
<g mask="url(#mask1)">
<g opacity="0.536691" filter="url(#filter0_f)">
<path fill-rule="evenodd" clip-rule="evenodd" d="M346.779 144.321C364.742 144.321 379.304 129.962 379.304 112.249C379.304 94.537 364.742 80.1782 346.779 80.1782C328.816 80.1782 314.253 94.537 314.253 112.249C314.253 129.962 328.816 144.321 346.779 144.321Z" fill="black"/>
</g>
<g opacity="0.536691" filter="url(#filter1_f)">
<path fill-rule="evenodd" clip-rule="evenodd" d="M336.884 293.144C354.847 293.144 369.409 278.786 369.409 261.073C369.409 243.361 354.847 229.002 336.884 229.002C318.92 229.002 304.358 243.361 304.358 261.073C304.358 278.786 318.92 293.144 336.884 293.144Z" fill="black"/>
</g>
</g>
<path fill-rule="evenodd" clip-rule="evenodd" d="M174.4 390.786C161.487 389.376 152.079 377.684 153.492 364.804L191.153 21.4898C192.566 8.60909 204.287 -0.776377 217.2 0.633146C230.113 2.04267 239.522 13.7344 238.109 26.6151L200.447 369.929C199.034 382.81 187.313 392.196 174.4 390.786Z" fill="#FFCB42"/>
<mask id="mask2" mask-type="alpha" maskUnits="userSpaceOnUse" x="153" y="0" width="86" height="391">
<path fill-rule="evenodd" clip-rule="evenodd" d="M174.4 390.786C161.487 389.376 152.079 377.684 153.492 364.804L191.153 21.4898C192.566 8.60909 204.287 -0.776377 217.2 0.633146C230.113 2.04267 239.522 13.7344 238.109 26.6151L200.447 369.929C199.034 382.81 187.313 392.196 174.4 390.786Z" fill="white"/>
</mask>
<g mask="url(#mask2)">
<g opacity="0.536691" filter="url(#filter2_f)">
<path fill-rule="evenodd" clip-rule="evenodd" d="M205.983 145.657C223.947 145.657 238.509 131.298 238.509 113.586C238.509 95.8733 223.947 81.5145 205.983 81.5145C188.02 81.5145 173.458 95.8733 173.458 113.586C173.458 131.298 188.02 145.657 205.983 145.657Z" fill="black"/>
</g>
<g opacity="0.536691" filter="url(#filter3_f)">
<path fill-rule="evenodd" clip-rule="evenodd" d="M188.55 294.48C206.513 294.48 221.076 280.121 221.076 262.408C221.076 244.696 206.513 230.337 188.55 230.337C170.587 230.337 156.024 244.696 156.024 262.408C156.024 280.121 170.587 294.48 188.55 294.48Z" fill="black"/>
</g>
</g>
<path fill-rule="evenodd" clip-rule="evenodd" d="M422.179 136.812H121.68C109.105 136.812 98.8163 126.549 98.8163 114.005C98.8163 101.461 109.105 91.1982 121.68 91.1982H422.179C434.754 91.1982 445.043 101.461 445.043 114.005C445.043 126.549 434.754 136.812 422.179 136.812Z" fill="#FFCB42"/>
<path fill-rule="evenodd" clip-rule="evenodd" d="M423.162 282.625L102.641 289.735C90.0698 290.013 79.5543 279.981 79.2749 267.44L79.2528 266.438C78.9734 253.897 89.0306 243.408 101.603 243.13L422.123 236.02C434.695 235.741 445.21 245.773 445.489 258.315L445.512 259.317C445.791 271.858 435.734 282.346 423.162 282.625Z" fill="#FFCB42"/>
<mask id="mask3" mask-type="alpha" maskUnits="userSpaceOnUse" x="79" y="236" width="367" height="54">
<path fill-rule="evenodd" clip-rule="evenodd" d="M423.162 282.625L102.641 289.735C90.0698 290.013 79.5543 279.981 79.2749 267.44L79.2528 266.438C78.9734 253.897 89.0306 243.408 101.603 243.13L422.123 236.02C434.695 235.741 445.21 245.773 445.489 258.315L445.512 259.317C445.791 271.858 435.734 282.346 423.162 282.625Z" fill="white"/>
</mask>
<g mask="url(#mask3)">
<g filter="url(#filter4_f)">
<path fill-rule="evenodd" clip-rule="evenodd" d="M420.773 295.143C438.736 295.143 453.298 280.784 453.298 263.071C453.298 245.359 438.736 231 420.773 231C402.809 231 388.247 245.359 388.247 263.071C388.247 280.784 402.809 295.143 420.773 295.143Z" fill="black"/>
</g>
</g>
<path fill-rule="evenodd" clip-rule="evenodd" d="M429.718 64L382 64.2222L382.159 99.1008L382.192 106.447L389.444 99.0659L429.877 98.8786L429.718 64Z" fill="#BC995A"/>
<path d="M401.681 83.0234C402.253 83.0234 402.807 82.9852 403.331 82.9141V76.9802C402.807 76.9091 402.253 76.8708 401.681 76.8708C398.411 76.8708 395.76 78.1134 395.76 79.6462V80.2481C395.76 81.7808 398.411 83.0234 401.681 83.0234Z" fill="white"/>
<path d="M401.681 86.1219C402.253 86.1219 402.807 86.0836 403.331 86.0126V84.2733C402.807 84.3444 402.254 84.3831 401.681 84.3831C398.826 84.3831 396.444 83.4363 395.884 82.1762C395.803 82.3598 395.76 82.5498 395.76 82.7446V83.3465C395.76 84.8793 398.411 86.1219 401.681 86.1219Z" fill="white"/>
<path d="M403.331 87.507V87.3718C402.807 87.4429 402.254 87.4817 401.681 87.4817C398.826 87.4817 396.444 86.5349 395.884 85.2748C395.803 85.4583 395.76 85.6483 395.76 85.8432V86.445C395.76 87.9779 398.411 89.2204 401.681 89.2204C402.335 89.2204 402.964 89.1706 403.552 89.0788C403.406 88.7706 403.331 88.4456 403.331 88.1089V87.507Z" fill="white"/>
<path d="M410.218 72.1703C406.948 72.1703 404.297 73.4129 404.297 74.9457V75.5476C404.297 77.0804 406.948 78.3229 410.218 78.3229C413.488 78.3229 416.139 77.0804 416.139 75.5476V74.9457C416.139 73.4129 413.488 72.1703 410.218 72.1703Z" fill="white"/>
<path d="M410.218 79.6827C407.364 79.6827 404.981 78.7359 404.422 77.4757C404.34 77.6592 404.297 77.8493 404.297 78.0442V78.6461C404.297 80.1789 406.948 81.4214 410.218 81.4214C413.488 81.4214 416.139 80.1789 416.139 78.6461V78.0442C416.139 77.8493 416.096 77.6592 416.015 77.4757C415.455 78.7359 413.073 79.6827 410.218 79.6827Z" fill="white"/>
<path d="M410.218 82.7812C407.364 82.7812 404.981 81.8344 404.422 80.5743C404.34 80.7578 404.297 80.9478 404.297 81.1427V81.7446C404.297 83.2775 406.948 84.52 410.218 84.52C413.488 84.52 416.139 83.2775 416.139 81.7446V81.1427C416.139 80.9478 416.096 80.7578 416.015 80.5743C415.455 81.8344 413.073 82.7812 410.218 82.7812Z" fill="white"/>
<path d="M410.218 86.047C407.364 86.047 404.981 85.1002 404.422 83.8401C404.34 84.0236 404.297 84.2136 404.297 84.4085V85.0104C404.297 86.5432 406.948 87.7858 410.218 87.7858C413.488 87.7858 416.139 86.5432 416.139 85.0104V84.4085C416.139 84.2136 416.096 84.0235 416.015 83.8401C415.455 85.1001 413.073 86.047 410.218 86.047Z" fill="white"/>
<path d="M410.218 89.1455C407.364 89.1455 404.981 88.1987 404.422 86.9386C404.34 87.1222 404.297 87.3123 404.297 87.507V88.1089C404.297 89.6417 406.948 90.8842 410.218 90.8842C413.488 90.8842 416.139 89.6417 416.139 88.1089V87.5069C416.139 87.3121 416.096 87.122 416.015 86.9386C415.455 88.1987 413.073 89.1455 410.218 89.1455Z" fill="white"/>
<path fill-rule="evenodd" clip-rule="evenodd" d="M275.31 66L321 66.2078L320.848 98.9348L320.816 105.828L313.873 98.9028L275.158 98.7258L275.31 66Z" fill="#00732F"/>
<path d="M289.507 80.7549L297.547 72.7585C298.021 72.2881 298.788 72.2936 299.256 72.7579C299.726 73.2271 299.726 73.9889 299.256 74.4576L291.215 82.4535C290.744 82.9219 289.978 82.9219 289.507 82.4535C289.035 81.9837 289.035 81.2246 289.507 80.7549Z" fill="white"/>
<path d="M299.852 75.563L299.913 75.8646C300.339 77.985 301.375 79.9994 302.776 81.6321L298.402 85.9822C296.76 84.5891 294.763 83.5312 292.631 83.1068L292.327 83.0466L299.852 75.563Z" fill="white"/>
<path fill-rule="evenodd" clip-rule="evenodd" d="M306.568 85.5056L303.578 82.5331L299.308 86.7797L302.297 89.7525C303.006 90.4578 304.153 90.455 304.86 89.7525L306.568 88.0539C307.277 87.3485 307.274 86.208 306.568 85.5056ZM304.005 87.2047C303.769 87.4393 303.387 87.4393 303.151 87.2047L302.297 86.3554C302.061 86.1208 302.061 85.7408 302.297 85.5062C302.533 85.2716 302.915 85.2716 303.151 85.5062L304.005 86.3554C304.241 86.59 304.241 86.9701 304.005 87.2047Z" fill="white"/>
<path d="M296.786 90.072L295.965 89.255C295.256 88.5497 295.258 87.4092 295.965 86.7073L296.575 86.1C296.912 86.3253 297.234 86.5701 297.548 86.8314L296.819 87.5571C296.584 87.79 296.582 88.1689 296.819 88.4058L297.654 89.2363L298.881 88.0538L300.589 89.7524L297.849 92.3929C297.382 92.8591 296.614 92.8618 296.142 92.3923C295.671 91.9237 295.671 91.1618 296.142 90.6932L296.786 90.072Z" fill="white"/>
<path d="M294.347 72.2435C294.681 72.2435 294.951 72.5122 294.951 72.8441V74.0453C294.951 74.3773 294.681 74.6459 294.347 74.6459C294.013 74.6459 293.743 74.3773 293.743 74.0453V72.8441C293.743 72.5122 294.013 72.2435 294.347 72.2435Z" fill="white"/>
<path d="M289.515 77.0482H290.723C291.057 77.0482 291.327 77.3168 291.327 77.6488C291.327 77.9808 291.057 78.2494 290.723 78.2494H289.515C289.182 78.2494 288.912 77.9808 288.912 77.6488C288.912 77.3168 289.182 77.0482 289.515 77.0482Z" fill="white"/>
<path d="M290.296 73.6206C290.532 73.3861 290.914 73.3861 291.15 73.6206L292.358 74.8218C292.594 75.0564 292.594 75.4365 292.358 75.6711C292.122 75.9057 291.74 75.9057 291.504 75.6711L290.296 74.4699C290.06 74.2353 290.06 73.8552 290.296 73.6206Z" fill="white"/>
<path fill-rule="evenodd" clip-rule="evenodd" d="M128.152 83L173.842 83.2078L173.69 115.935L173.658 122.828L166.715 115.903L128 115.726L128.152 83Z" fill="#00C620"/>
<path fill-rule="evenodd" clip-rule="evenodd" d="M142.766 106.633H145.543C145.974 106.633 146.325 106.285 146.325 105.859V98.8584C146.325 98.4329 145.974 98.0848 145.543 98.0848H142.766C142.336 98.0848 141.984 98.4329 141.984 98.8584V105.859C141.984 106.285 142.336 106.633 142.766 106.633ZM150.826 92.5069V91.5346C150.817 90.8968 151.384 90.3309 152.028 90.3309C152.64 90.3309 153.051 90.7126 153.193 91.2229C153.5 92.3242 153.809 93.4324 152.384 96.366H155.88H156.654C157.382 96.366 157.973 96.9499 157.973 97.6692C157.973 98.323 157.485 98.8644 156.85 98.958C157.477 98.9983 157.973 99.5142 157.973 100.144C157.973 100.8 157.434 101.332 156.77 101.332H156.762C157.185 101.506 157.483 101.918 157.483 102.399C157.483 102.93 157.119 103.377 156.625 103.512C156.861 103.717 157.01 104.017 157.01 104.351C157.01 104.968 156.504 105.468 155.88 105.468H148.144C147.745 105.468 147.419 105.146 147.419 104.752V99.4427C147.419 95.2567 150.826 93.8372 150.826 92.5069Z" fill="white"/>
<path fill-rule="evenodd" clip-rule="evenodd" d="M113.781 229.708L113.121 199.631L147.598 198.866L153.671 192.394L153.811 198.729L154.471 228.806L113.781 229.708Z" fill="#FFD542"/>
<path fill-rule="evenodd" clip-rule="evenodd" d="M130.663 213.08C130.627 211.329 131.99 209.882 133.706 209.846C135.422 209.811 136.843 211.201 136.878 212.951C136.915 214.701 135.552 216.15 133.836 216.185C132.12 216.221 130.699 214.831 130.663 213.08Z" fill="white"/>
<path fill-rule="evenodd" clip-rule="evenodd" d="M120.457 213.29C120.421 211.54 121.783 210.092 123.499 210.057C125.216 210.023 126.636 211.412 126.672 213.163C126.708 214.913 125.346 216.361 123.63 216.396C121.913 216.431 120.493 215.041 120.457 213.29Z" fill="white"/>
<path fill-rule="evenodd" clip-rule="evenodd" d="M140.635 212.874C140.6 211.124 141.962 209.676 143.679 209.641C145.395 209.604 146.816 210.995 146.852 212.745C146.887 214.495 145.525 215.944 143.808 215.979C142.093 216.014 140.672 214.624 140.635 212.874Z" fill="white"/>
<path fill-rule="evenodd" clip-rule="evenodd" d="M330.879 320.29C330.879 320.29 331.595 325.973 332.543 328.479C333.493 330.986 338.646 336.773 336.468 342.332C334.108 348.359 323.805 342.55 319.601 340.709C315.398 338.871 316.356 335.536 315.909 331.447C315.459 327.36 313.408 327.25 314.167 324.376C314.921 321.502 319.519 316 319.519 316L330.879 320.29Z" fill="#00194D"/>
<path fill-rule="evenodd" clip-rule="evenodd" d="M321.574 313C321.574 313 318.927 316.711 319.002 316.813C319.074 316.913 330.332 323.784 331.116 321.556C331.739 319.785 332 317.221 332 317.221L321.574 313Z" fill="#EEA886"/>
<path fill-rule="evenodd" clip-rule="evenodd" d="M284.578 324.184C284.578 324.184 281.252 327.116 278.265 331.625C275.277 336.132 267.345 336.371 267.008 342.526C266.667 348.678 277.789 348.867 283.628 346.864C289.469 344.862 290.35 338.853 293.88 337.348C297.413 335.846 299.247 334.629 298.973 331.697C298.703 328.762 296.749 324 296.749 324C296.749 324 294.553 324.703 293.264 324.848C291.973 324.99 287.634 325.042 284.578 324.184Z" fill="#00194D"/>
<path fill-rule="evenodd" clip-rule="evenodd" d="M325 157.044C325 157.044 322.723 170.501 320.889 179.388C320.145 182.992 319.475 185.847 319.058 186.743C318.532 187.875 314.261 192.434 309.033 197.788C299.859 207.176 287.738 219 287.738 219L283 210.057C283 210.057 293.766 197.51 301.065 189.137C304.443 185.264 307.077 182.284 307.561 181.853C309.086 180.497 310.856 167.124 313.347 156.107C315.835 145.088 320.824 139 320.824 139L325 157.044Z" fill="#E8E8E8"/>
<path fill-rule="evenodd" clip-rule="evenodd" d="M309 197.691C299.839 207.121 287.733 219 287.733 219L283 210.016C283 210.016 293.752 197.412 301.042 189C303.276 190.096 307.378 192.71 309 197.691Z" fill="#EEA886"/>
<path fill-rule="evenodd" clip-rule="evenodd" d="M285.511 320L285 324.132C285 324.132 290.65 326.203 296.874 323.947L297 320.274L285.511 320Z" fill="#EEA886"/>
<path fill-rule="evenodd" clip-rule="evenodd" d="M368.088 216.47C368.426 217.663 306 216.47 306 216.47C306 216.47 323.268 203.973 324.388 200.636C325.508 197.297 319.991 177.264 319.271 170.747C318.696 165.532 317.252 142.195 320.711 138.632C324.325 134.905 337.338 131 337.338 131L356.313 131.702C356.313 131.702 359.445 132.351 361.683 133.385C363.921 134.419 376.723 138.952 378.8 145.311C380.88 151.672 366.028 172.117 366.028 172.117C366.028 172.117 365.999 173.036 365.954 174.542C365.897 176.549 365.811 179.602 365.734 182.913C365.635 187.199 365.548 191.92 365.548 195.367C365.548 203.476 367.752 215.279 368.088 216.47Z" fill="#E8E8E8"/>
<path fill-rule="evenodd" clip-rule="evenodd" d="M367.437 217.218C367.437 217.218 375.881 229.633 375.999 238.106C376.119 246.58 361.016 274.966 358.731 279.026C351.859 291.233 333.017 317.563 333.017 317.563C333.017 317.563 329.77 317.48 319.635 313.541C319.635 313.541 332.17 278.761 333.759 275.151C340.496 259.836 344.258 248.975 341.993 246.349C339.728 243.721 333.55 241.089 331.762 239.537C329.974 237.986 298.815 245.432 295.548 246.279C287.094 248.472 290.948 263.199 292.819 269.801C295.949 280.845 298.683 320.73 298.683 320.73C298.683 320.73 292.661 323.3 282.574 321.129C282.574 321.129 262.769 249.11 262.133 241.948C261.498 234.787 261.186 222.977 309.993 214L367.437 217.218Z" fill="#303669"/>
<path fill-rule="evenodd" clip-rule="evenodd" d="M342.369 90.2566C342.369 90.2566 325.772 86.5691 329.563 107.151C333.356 127.734 337.348 129.351 347.36 125.091C357.375 120.832 356.478 107.645 356.981 101.179C357.484 94.7121 347.667 90.4827 342.369 90.2566Z" fill="#EEA886"/>
<path fill-rule="evenodd" clip-rule="evenodd" d="M338 136.316C338 136.316 345.364 144.109 357 137.026C357 137.026 354.398 120.136 355.768 111.913C357.137 103.687 340.585 124.657 340.585 124.657C340.802 124.772 340.946 125.557 340.98 126.674C341.01 127.62 340.958 128.805 340.807 130.021C340.465 132.755 339.614 135.644 338 136.316Z" fill="#EEA886"/>
<mask id="mask4" mask-type="alpha" maskUnits="userSpaceOnUse" x="327" y="84" width="31" height="27">
<path fill-rule="evenodd" clip-rule="evenodd" d="M327.644 84.702H357.681V110.99H327.644V84.702Z" fill="white"/>
</mask>
<g mask="url(#mask4)">
<path fill-rule="evenodd" clip-rule="evenodd" d="M355.627 110.99C355.627 110.99 355.2 104.576 352.81 104.377C350.419 104.177 350.053 106.759 350.053 106.759L347.639 107.206C347.639 107.206 348.401 101.585 346.014 100.603C343.626 99.6204 330.548 103.696 328.632 102.045C326.715 100.398 327.618 88.9951 331.084 87.435C334.547 85.8741 344.119 82.3784 351.129 87.0291C351.129 87.0291 356.596 86.4183 357.407 90.74C358.217 95.0625 357.113 107.776 355.627 110.99Z" fill="#3A3F47"/>
</g>
<path fill-rule="evenodd" clip-rule="evenodd" d="M341 130C353.078 126.312 353.988 119.111 354 119C350.024 125.766 341.175 126.661 341.175 126.661C341.204 127.605 341.153 128.788 341 130Z" fill="#A77860"/>
<path fill-rule="evenodd" clip-rule="evenodd" d="M362 133.628C362 133.628 353.199 151.073 338.982 149.948C324.763 148.82 336.558 131.285 337.203 131.124C337.914 130.945 351.785 127.505 362 133.628Z" fill="#EEA886"/>
<path fill-rule="evenodd" clip-rule="evenodd" d="M299 216.355C299 216.355 341.969 221.668 368 217.234L318.26 211C318.26 211 317.965 212.272 299 216.355Z" fill="#E8E8E8"/>
<path fill-rule="evenodd" clip-rule="evenodd" d="M331.161 209L328 210.574C328 210.574 328.721 215.505 330.451 217L334 216.11C334 216.11 333.26 210.702 331.161 209Z" fill="#EEA886"/>
<path fill-rule="evenodd" clip-rule="evenodd" d="M380.89 198.403C380.249 199.145 371.772 202.545 362.197 206.222L362.195 206.222C349.115 211.246 334.359 216 334.359 216L331 208.819C331 208.819 346.452 200.448 356.893 194.577C361.827 191.805 365.639 189.589 366.18 189.078C367.859 187.484 368.294 184.928 367.06 180.469C365.824 176.011 362.98 155.518 362.66 153.127C362.342 150.737 363.46 144.36 369.456 144.04C375.453 143.721 378.506 145.411 378.506 145.411C378.506 145.411 380.01 146.034 381.131 160.541C382.25 175.049 382.409 196.651 380.89 198.403Z" fill="#E8E8E8"/>
<path fill-rule="evenodd" clip-rule="evenodd" d="M366 174.576C365.938 176.597 365.844 179.668 365.759 183C359.358 168.648 363.057 157.192 363.121 157C362.428 160.895 365.951 174.385 366 174.576Z" fill="#B0B0B0"/>
<path fill-rule="evenodd" clip-rule="evenodd" d="M321 178.654C320.196 182.253 319.473 185.104 319.023 186C316.856 176.352 318.805 164 318.805 164C319.101 169.9 321 178.654 321 178.654Z" fill="#B0B0B0"/>
<path fill-rule="evenodd" clip-rule="evenodd" d="M362 205.874L361.999 205.874C349.001 210.997 333.866 216 333.866 216L331 208.522C331 208.522 346.355 199.987 356.731 194C356.731 194 360.506 195.882 362 205.874Z" fill="#EEA886"/>
<path fill-rule="evenodd" clip-rule="evenodd" d="M330 215.92L269 215L299.798 231L330 215.92Z" fill="#959595"/>
<path fill-rule="evenodd" clip-rule="evenodd" d="M299.417 231L330 219.093V216L297 227.963L299.417 231Z" fill="#C8C8C8"/>
<path fill-rule="evenodd" clip-rule="evenodd" d="M328.087 210.39C328.087 210.39 324.309 209.785 321.697 209.158C319.674 208.672 314.648 209.341 313.368 210.676C312.089 212.012 308.016 221.32 307.247 221.887C306.475 222.457 307.641 223.77 308.992 223.11C308.992 223.11 310.234 227.183 313.299 225.658C316.363 224.133 318.444 220.804 320.049 220.219C321.652 219.632 331 216.675 331 216.675C331 216.675 330.496 209.398 328.087 210.39Z" fill="#EEA886"/>
<path fill-rule="evenodd" clip-rule="evenodd" d="M314.909 210C314.909 210 312.518 211.082 311.896 211.563C311.271 212.046 308.74 213.82 308.129 214.237C307.516 214.654 309.052 215.84 313.576 214.007C318.096 212.172 314.909 210 314.909 210Z" fill="#EEA886"/>
<path fill-rule="evenodd" clip-rule="evenodd" d="M300 231L281.772 181L223 181.964L240.373 228.041L300 231Z" fill="#C8C8C8"/>
<path fill-rule="evenodd" clip-rule="evenodd" d="M262.945 203.727C264.734 207.383 264.193 211.363 261.738 212.618C259.284 213.875 255.843 211.927 254.055 208.272C252.266 204.618 252.808 200.638 255.262 199.382C257.716 198.125 261.156 200.071 262.945 203.727Z" fill="white"/>
<path fill-rule="evenodd" clip-rule="evenodd" d="M351.141 104.606C351.343 102.767 354.702 102.092 354.972 104.848C355.244 107.605 353.447 112.443 352.171 111.967C350.896 111.492 350.863 107.14 351.141 104.606Z" fill="#EEA886"/>
<path fill-rule="evenodd" clip-rule="evenodd" d="M212.567 261.723C216.996 272.083 219.088 301.831 218.565 304.963C218.042 308.094 183.02 381.873 183.02 381.873L177.406 378.22L196.747 312.791L190.225 261.723H212.567Z" fill="#464473"/>
<path fill-rule="evenodd" clip-rule="evenodd" d="M190.415 249.641C191.881 251.207 201.648 314.879 203.304 320.098C204.962 325.317 202.346 362.653 208.101 385.997H199.258C199.258 385.997 185.34 343.403 188.088 326.531L171.295 269.748L190.415 249.641Z" fill="#464473"/>
<path fill-rule="evenodd" clip-rule="evenodd" d="M222.935 253.195L209.671 223.807L199.029 235.028L220.873 260.546L222.935 253.195Z" fill="#E38768"/>
<path fill-rule="evenodd" clip-rule="evenodd" d="M209.671 223.808L207.447 218.282C207.447 218.282 210.194 211.119 209.671 209.113C209.147 207.107 201.822 203.068 201.822 203.068L197.317 216.486L204.072 229.711L209.671 223.808Z" fill="#EBDFD2"/>
<path fill-rule="evenodd" clip-rule="evenodd" d="M213.785 264.031L171.294 269.748C171.294 269.748 167.777 258.542 164.575 252.4C159.437 242.543 164.97 219.872 164.97 219.872L201.137 214.747C201.137 214.747 205.88 228.94 213.785 264.031Z" fill="#464473"/>
<path fill-rule="evenodd" clip-rule="evenodd" d="M192.958 104.454C209.844 98.9949 216.737 118.013 216.737 118.013L189.639 123.276L183.094 131.746L178.371 137.036L177.537 141.117C177.537 141.117 175.324 136.36 177.537 131.007C179.207 126.965 180.153 122.589 180.788 119.654C180.994 118.701 181.167 117.9 181.322 117.311C181.358 117.176 181.429 117.026 181.533 116.866C182.234 112.339 184.911 107.055 192.958 104.454Z" fill="#393762"/>
<path fill-rule="evenodd" clip-rule="evenodd" d="M217.88 124.356C217.849 126.854 217.262 129.494 216.59 131.887C215.857 134.495 214.845 136.644 215.652 139.434C216.215 141.379 217.437 143.118 217.768 145.115C218.073 146.955 217.554 148.916 216.379 150.366C216.432 148.457 214.805 146.856 212.988 146.257C211.171 145.658 209.196 145.872 207.3 146.136C205.405 146.401 203.461 146.709 201.595 146.285C197.682 145.396 195.01 140.906 196.101 137.054C196.809 134.555 198.757 132.625 200.665 130.859C203.098 128.607 205.633 126.395 208.611 124.933C211.589 123.472 214.714 123.362 217.88 124.356Z" fill="#393762"/>
<path fill-rule="evenodd" clip-rule="evenodd" d="M181.981 127.259C193.566 125.009 205.152 122.758 216.737 120.508C216.194 122.348 213.791 124.649 211.094 128.411C210.321 129.491 211.213 135.195 210.782 136.366C210.414 137.366 209.275 133.913 208.906 134.806C207.439 138.346 207.342 139.917 206.022 141.598C204.146 143.987 199.176 141.949 196.824 142.506C193.217 143.359 194.904 159.325 194.904 159.325L180.386 142.397L185.819 135.566C183.72 132.146 182.472 130.967 181.981 127.259Z" fill="#E38768"/>
<path fill-rule="evenodd" clip-rule="evenodd" d="M181.981 124.764L216.737 118.013C216.737 118.013 218.256 120.925 217.88 124.356L200.775 125.448C201.981 127.926 201.666 131.057 199.866 133.146C198.956 134.202 197.718 135.02 197.144 136.288C196.175 138.431 197.451 140.858 198.611 142.904C199.77 144.95 201.135 149.22 199.837 151.182C199.198 149.821 197.394 147.625 195.895 147.78C194.397 147.934 192.906 148.454 191.417 148.224C189.504 147.928 188.001 146.46 186.795 144.95C185.588 143.44 184.488 141.768 182.842 140.752C181.196 139.738 178.771 139.631 177.537 141.117C176.131 136.308 178.979 128.779 181.981 124.764Z" fill="#393762"/>
<path fill-rule="evenodd" clip-rule="evenodd" d="M164.97 219.872C164.97 219.872 158.967 192.644 158.604 191.096C157.263 185.373 159.437 169.799 159.832 166.053C160.227 162.308 169.516 148.311 171.887 147.522C174.259 146.734 180.386 142.397 180.386 142.397L194.581 154.691C194.581 154.691 198.963 161.125 204.299 168.222C209.635 175.319 215.169 181.627 206.078 191.09L201.55 216.042L164.97 219.872Z" fill="#EBDFD2"/>
<path fill-rule="evenodd" clip-rule="evenodd" d="M197.281 188.766L198.885 202.109C198.885 202.109 221.756 190.748 223.506 189.993C229.614 187.356 234.741 183.944 235.755 183.083C236.769 182.222 239.586 173.799 239.803 172.987C240.02 172.175 233.616 172.168 233.616 172.168L235.052 165.16C235.052 165.16 232.494 164.784 232.128 165.339C231.762 165.894 228.698 172.47 227.442 173.744C226.187 175.019 225.648 181.439 225.648 181.439L197.281 188.766Z" fill="#E38768"/>
<path fill-rule="evenodd" clip-rule="evenodd" d="M233.616 172.168L235.052 165.16L237.649 153.157L242 154.487L237.363 172.321L233.616 172.168Z" fill="#393762"/>
<path fill-rule="evenodd" clip-rule="evenodd" d="M191.821 190.427L195.396 189.655C195.667 189.596 195.84 189.33 195.781 189.059C195.722 188.788 195.447 188.62 195.184 188.675L192.44 189.267C192.421 188.161 191.573 187.067 190.567 186.61C189.581 186.164 188.362 186.14 186.843 186.532C185.945 186.763 183.487 187.118 182.073 187.27C182.58 181.217 182.555 169.543 181.778 163.743C181.458 161.347 181.008 158.808 179.9 156.474C178.677 153.896 176.787 151.975 174.578 151.065C174.324 150.963 174.025 151.083 173.919 151.338C173.813 151.594 173.937 151.888 174.192 151.994C176.172 152.808 177.876 154.55 178.992 156.901C180.041 159.114 180.471 161.561 180.78 163.876C181.576 169.816 181.576 181.982 181.018 187.779L180.961 188.373L181.558 188.326C182.659 188.242 185.919 187.808 187.095 187.505C188.387 187.173 189.384 187.177 190.151 187.524C190.96 187.893 191.656 188.904 191.367 189.681C191.35 189.718 191.336 189.755 191.328 189.796L192.281 190.102C192.23 190.214 192.13 190.294 192.012 190.318C191.866 190.345 191.717 190.286 191.629 190.159L191.821 190.427Z" fill="#CFAF98"/>
<path fill-rule="evenodd" clip-rule="evenodd" d="M181.008 209.608C185.577 209.608 190.235 208.783 194.553 207.152L194.698 207.097L194.787 206.969C195.18 206.402 195.823 205.344 195.999 204.258L198.132 203.544C198.395 203.457 198.537 203.17 198.448 202.907C198.36 202.645 198.073 202.507 197.809 202.591L195.056 203.515L195.035 203.853C194.975 204.76 194.38 205.771 194.048 206.269C186.91 208.929 178.834 209.341 171.872 207.392C171.602 207.324 171.325 207.475 171.25 207.741C171.176 208.008 171.333 208.285 171.6 208.361C174.59 209.194 177.777 209.608 181.008 209.608Z" fill="#CFAF98"/>
<path fill-rule="evenodd" clip-rule="evenodd" d="M204.029 337.3C204.302 337.3 204.527 337.082 204.532 336.81C204.729 327.78 204.21 308.098 203.762 303.952C203.186 298.635 197.334 269.4 197.084 268.158C197.031 267.888 196.779 267.716 196.492 267.764C196.219 267.82 196.043 268.084 196.097 268.355C196.159 268.659 202.19 298.788 202.76 304.058C203.208 308.182 203.723 327.786 203.526 336.786C203.52 337.064 203.74 337.294 204.018 337.3H204.029Z" fill="#1F1C5D"/>
<path fill-rule="evenodd" clip-rule="evenodd" d="M192.071 360.538C192.1 360.538 192.129 360.536 192.159 360.53C192.432 360.481 192.615 360.22 192.566 359.948C192.141 357.566 191.522 354.634 190.925 351.797C190.331 348.97 189.716 346.049 189.294 343.687C189.245 343.414 188.979 343.228 188.71 343.28C188.437 343.33 188.254 343.59 188.303 343.863C188.728 346.241 189.345 349.17 189.94 352.003C190.538 354.831 191.153 357.756 191.576 360.124C191.619 360.368 191.831 360.538 192.071 360.538Z" fill="#1F1C5D"/>
<path fill-rule="evenodd" clip-rule="evenodd" d="M183.02 381.873L181.418 387.249L184.034 396.295L187.347 399.774H181.418L176.186 392.468L174.442 395.077L172 393.163L177.406 378.22L183.02 381.873Z" fill="#434343"/>
<path fill-rule="evenodd" clip-rule="evenodd" d="M199.258 385.998L201.299 399.774H205.136V395.251L211.066 399.774H219.786L211.763 394.555L208.101 385.998H199.258Z" fill="#434343"/>
<path fill-rule="evenodd" clip-rule="evenodd" d="M221.231 261.657C221.231 261.657 219.422 256.354 219.759 254.903C220.095 253.453 222.935 253.195 222.935 253.195C222.935 253.195 226.791 253.643 227.869 253.127C228.946 252.611 232.455 252.753 232.562 253.462C232.669 254.171 230.007 255.053 230.007 255.053L238.503 266.15C239.845 267.796 238.236 267.712 237.607 267.948C236.977 268.185 232.936 264.474 232.936 264.474C232.936 264.474 231.996 266.345 231.497 266.345C230.997 266.346 229.914 266.355 229.914 266.355C229.914 266.355 228.703 268.395 228.157 268.269C227.612 268.143 226.532 265.656 226.532 265.656C226.532 265.656 225.121 266.161 224.819 266.038C224.518 265.916 221.231 261.657 221.231 261.657Z" fill="#E38768"/>
<path fill-rule="evenodd" clip-rule="evenodd" d="M201.646 215.611C201.883 215.611 202.093 215.444 202.139 215.203L204 205.465C204.053 205.193 203.874 204.931 203.601 204.879C203.328 204.817 203.064 205.005 203.013 205.277L201.152 215.015C201.099 215.287 201.278 215.55 201.551 215.601C201.583 215.609 201.614 215.611 201.646 215.611Z" fill="#CFAF98"/>
<defs>
<filter id="filter0_f" x="178.339" y="-55.7359" width="336.879" height="335.971" filterUnits="userSpaceOnUse" color-interpolation-filters="sRGB">
<feFlood flood-opacity="0" result="BackgroundImageFix"/>
<feBlend mode="normal" in="SourceGraphic" in2="BackgroundImageFix" result="shape"/>
<feGaussianBlur stdDeviation="67.957" result="effect1_foregroundBlur"/>
</filter>
<filter id="filter1_f" x="168.444" y="93.0878" width="336.879" height="335.971" filterUnits="userSpaceOnUse" color-interpolation-filters="sRGB">
<feFlood flood-opacity="0" result="BackgroundImageFix"/>
<feBlend mode="normal" in="SourceGraphic" in2="BackgroundImageFix" result="shape"/>
<feGaussianBlur stdDeviation="67.957" result="effect1_foregroundBlur"/>
</filter>
<filter id="filter2_f" x="37.5437" y="-54.3996" width="336.879" height="335.971" filterUnits="userSpaceOnUse" color-interpolation-filters="sRGB">
<feFlood flood-opacity="0" result="BackgroundImageFix"/>
<feBlend mode="normal" in="SourceGraphic" in2="BackgroundImageFix" result="shape"/>
<feGaussianBlur stdDeviation="67.957" result="effect1_foregroundBlur"/>
</filter>
<filter id="filter3_f" x="20.1103" y="94.423" width="336.879" height="335.971" filterUnits="userSpaceOnUse" color-interpolation-filters="sRGB">
<feFlood flood-opacity="0" result="BackgroundImageFix"/>
<feBlend mode="normal" in="SourceGraphic" in2="BackgroundImageFix" result="shape"/>
<feGaussianBlur stdDeviation="67.957" result="effect1_foregroundBlur"/>
</filter>
<filter id="filter4_f" x="252.333" y="95.0859" width="336.879" height="335.971" filterUnits="userSpaceOnUse" color-interpolation-filters="sRGB">
<feFlood flood-opacity="0" result="BackgroundImageFix"/>
<feBlend mode="normal" in="SourceGraphic" in2="BackgroundImageFix" result="shape"/>
<feGaussianBlur stdDeviation="67.957" result="effect1_foregroundBlur"/>
</filter>
</defs>
</svg>
