<svg width="627" height="362" viewBox="0 0 627 362" fill="none" xmlns="http://www.w3.org/2000/svg">
<path fill-rule="evenodd" clip-rule="evenodd" d="M166.058 179.999V191.787H178.977V197.105H183.683V247.383H183.683V284.6H191.438V340.999H144.5V307.824H151.894V246.794H160.009V197.105H161.535V191.787H165.468V179.999H166.058ZM307.888 179.999V191.787H320.806V197.105H325.513V247.383H325.512V284.6H333.268V340.999H286.329V307.824H293.723V246.794H301.839V197.105H303.365V191.787H307.298V179.999H307.888ZM455.849 179.999V191.787H468.767V197.105H473.474V247.383H473.473V284.6H481.228V340.999H434.29V307.824H441.684V246.794H449.8V197.105H451.325V191.787H455.258V179.999H455.849ZM138.545 340.999H105.709V197.185H138.545V340.999ZM280.375 340.999H247.539V197.185H280.375V340.999ZM428.335 197.185V340.999H395.5V340.778H393.454V237.545H395.5V235.129H394.065V234.982H394.836V229.815H394.065V229.668H395.5V197.185H428.335ZM205.747 204.734V228.053H211.368V204.734H211.958V228.053H213.212V217.387H213.803V228.053H214.367V230.352H215.83V226.659H237.368V243.902H238.113V250.656H241.8L242.744 252.124H242.878V252.332L243.122 252.713H242.878V262.302L243.818 263.445H243.973V263.634L244.303 264.034H243.973V270.495L244.779 271.621H244.923V271.821L245.201 272.21H244.923V340.999H214.607H194.396V289.157H197.833V254.149H201.272V230.352H202.748V228.053H203.313V217.387H203.902V228.053H205.157V204.734H205.747ZM347.576 204.734V228.053H353.198V204.734H353.788V228.053H355.042V217.387H355.633V228.053H356.197V230.352H357.673V254.149H358.482V252.713H358.237L358.482 252.333V252.124H358.616L359.56 250.656H363.247V243.902H363.79V226.659H385.329V263.057L385.647 263.445H385.803V263.634L386.133 264.034H385.803V270.495L386.609 271.621H386.752V271.821L387.03 272.21H386.752V340.999H356.436H336.225V289.157H339.663V254.149H343.101V230.352H344.578V228.053H345.142V217.387H345.732V228.053H346.987V204.734H347.576ZM495.537 204.734V228.053H501.159V204.734H501.749V228.053H503.003V217.387H503.594V228.053H504.158V230.352H505.634V254.149H506.443V252.713H506.198L506.443 252.333V252.124H506.576L507.521 250.656H511.208V243.902H527.903V250.656H531.59L532.534 252.124H532.668V252.332L532.913 252.713H532.668V262.302L533.608 263.445H533.764V263.634L534.093 264.034H533.764V270.495L534.569 271.621H534.713V271.821L534.991 272.21H534.713V340.999H504.397H484.186V289.157H487.624V254.149H491.062V230.352H492.539V228.053H493.103V217.387H493.693V228.053H494.947V204.734H495.537ZM555.281 207.051V224.437H558.576V227.137H563.646V229.668H568.388V229.815H567.618V234.982H568.388V235.129H566.223V237.545H569V340.778H541.414V237.545H544.192V235.129H542.025V234.982H542.796V229.815H542.025V229.668H546.768V227.137H551.838V224.437H555.133V207.051H555.281ZM95.5381 340.999H73.9999V226.659H95.5381V340.999Z" fill="#A58517"/>
<mask id="mask0" mask-type="alpha" maskUnits="userSpaceOnUse" x="2" y="24" width="604" height="318">
<path fill-rule="evenodd" clip-rule="evenodd" d="M606 24.1863H2.14792V341.123H606V24.1863Z" fill="white"/>
</mask>
<g mask="url(#mask0)">
<path fill-rule="evenodd" clip-rule="evenodd" d="M74.3557 338.068C73.713 332.379 73.3738 326.551 73.3732 320.612C73.3812 293.559 81.7111 269.124 94.0142 250.169H85.5826V248.947H94.8151C104.078 235.047 115.482 224.205 127.247 217.597L129.3 173.155V173.154L129.302 173.125L130.522 173.154V216.867L130.523 216.912V256.233H133.952V257.456H130.523V338.068H136.459V304.275H135.956V303.053H137.544L137.819 301.211C137.529 301.037 137.313 300.801 137.178 300.59C136.916 300.194 136.832 299.842 136.82 299.803L136.699 299.315L137.153 299.102C138.275 298.579 139.001 297.57 139.439 296.659C139.658 296.206 139.802 295.783 139.891 295.479C139.935 295.327 139.966 295.204 139.984 295.122C140.003 295.039 140.009 295.005 140.009 295.005L140.407 295.076L141.211 295.005C141.211 295.005 141.217 295.038 141.236 295.121C141.357 295.716 142.1 298.21 144.067 299.102L144.521 299.315L144.4 299.803C144.388 299.842 144.303 300.194 144.042 300.59C143.908 300.801 143.692 301.037 143.403 301.211L143.677 303.053H145.264V304.275H144.762V307.944H173.322V289.851H172.358V288.629H173.322L174.817 288.629L175.259 285.652C174.818 285.43 174.495 285.083 174.293 284.771C173.951 284.252 173.835 283.778 173.823 283.739L173.702 283.25L174.156 283.037C175.813 282.264 176.865 280.791 177.497 279.477C177.812 278.823 178.021 278.215 178.148 277.775C178.212 277.556 178.257 277.378 178.283 277.257C178.311 277.136 178.321 277.082 178.321 277.082L178.718 277.153L179.523 277.081C179.523 277.081 179.532 277.136 179.56 277.257C179.743 278.119 180.786 281.707 183.686 283.037L184.141 283.25L184.019 283.739C184.008 283.778 183.892 284.252 183.55 284.77C183.348 285.082 183.026 285.429 182.584 285.652L183.028 288.629H184.522L185.486 288.629V289.851H184.522V292.872H196.659L196.66 192.446L230.48 158.592V143.554H231.7V157.37L231.701 194.025H228.899V213.011H231.701V283.304H233.628V281.936H232.916V280.714H233.628V280.496C233.634 279.525 234.162 278.704 234.835 278.016C236.871 275.968 240.605 274.673 240.64 274.649L240.845 274.576L241.05 274.649C241.07 274.656 242.745 275.253 244.454 276.239C245.309 276.734 246.174 277.324 246.856 278.016C247.529 278.704 248.058 279.525 248.063 280.496V280.714H248.774V281.936H248.063V283.304H249.301V201.134H252.102V182.147H249.301V131.677H250.522V146.713L284.342 180.568V292.872H297.168V289.852H296.203V288.63H298.662L299.105 285.652C298.664 285.429 298.342 285.082 298.14 284.771C297.797 284.253 297.682 283.778 297.67 283.739L297.549 283.25L298.004 283.037C299.4 282.385 300.362 281.236 301.01 280.104V144.64H303.259V144.175L299.088 144.277L308.73 136.32C308.729 136.289 308.728 136.258 308.728 136.226C308.729 134.459 310.159 133.027 311.925 133.027L315.213 133.026V125.925H318.02V133.026H321.309C323.074 133.027 324.505 134.459 324.506 136.226C324.506 136.258 324.505 136.289 324.504 136.32L334.146 144.276L329.975 144.176V144.64H332.224V307.944H336.929V304.276H336.426V303.053H336.929L338.014 303.053L338.288 301.211C337.998 301.037 337.783 300.801 337.648 300.59C337.387 300.194 337.302 299.842 337.291 299.803L337.169 299.315L337.624 299.102C338.746 298.579 339.471 297.571 339.909 296.659C340.128 296.206 340.272 295.784 340.361 295.479C340.405 295.327 340.435 295.204 340.454 295.121C340.474 295.039 340.478 295.005 340.478 295.005L341.282 295.076L341.681 295.005C341.681 295.005 341.686 295.039 341.705 295.122C341.827 295.717 342.569 298.211 344.536 299.102L344.991 299.315L344.869 299.804C344.858 299.842 344.773 300.194 344.512 300.591C344.377 300.801 344.161 301.037 343.872 301.211L344.147 303.053H345.231L345.733 303.053V304.276H345.231V333.247H348.876V300.357L354.13 295.098V257.497L358.606 253.018V206.652L360.153 205.104L362.434 202.821V150.741L362.612 150.563L366.466 146.705V129.178L366.644 129L366.692 128.951L367.372 128.27V102.227L369.162 100.435V85.1679L370.348 83.9806L370.348 73.0338V65.3162H371.327V56.4119H371.991L372.407 42.5251H372.686L373.161 24.2052V24.2019L373.162 24.1863L374.382 24.2019L374.857 42.5251H375.159V52.1127L376.068 53.0232L376.368 53.3235L376.547 53.5025V71.5447L377.781 72.7805V93.7363L379.495 95.4518V108.325L380.471 109.297V124.781L384.865 129.178V185.888L389.416 190.444V239.232L393.324 243.143V294.924L398.75 300.357V322.985C403.908 316.626 411.322 309.385 421.499 303.401V214.359H426.881V191.313H429.912V165.624H433.16V145.6H438.358V136.912H443.043V145.6H448.241V165.624H451.488V191.313H454.521V214.359H459.902V291.449C460.136 291.428 460.368 291.405 460.603 291.385L467.468 284.514H485.037V285.499H492.671V279.79L493.778 281.344C493.78 281.347 494.349 282.147 495.432 283.566C499.219 288.53 509.224 300.992 522.388 312.365C525.142 314.746 528.035 317.076 531.037 319.281V311.946H544.076L544.076 290.636H543.121V289.414H544.076V289.413H544.66V271.803H543.9V270.582H544.66V268.038H543.899V266.815H544.66L544.738 266.815V263.842C544.745 263.133 545.027 262.428 545.403 261.707C546.357 259.913 548.021 258.03 548.544 257.455V254.552H549.764V257.454C550.081 257.803 550.81 258.627 551.546 259.612C552.034 260.266 552.525 260.989 552.905 261.707C553.281 262.428 553.564 263.133 553.571 263.842V266.815H553.649L554.409 266.815V268.038H553.649V270.582H554.409V271.803H553.649V289.413H554.233V289.414H555.187V290.636H554.233V293.362C554.921 292.906 555.554 292.567 555.932 292.378V288.764H557.152V292.378C557.615 292.609 558.461 293.063 559.322 293.687C560.571 294.613 561.961 295.88 561.997 297.611V300.138L561.997 302.577L563.236 303.671H563.616V304.006L564.62 304.894H563.616L564.62 341.123H612.81L614.327 328.499L620.546 327.973L620.545 319.431C620.582 316.711 622.866 314.548 625.009 312.975C626.648 311.788 628.266 310.954 628.966 310.614V304.053H630.187V310.613C630.887 310.953 632.506 311.787 634.146 312.975C636.287 314.548 638.572 316.711 638.608 319.431V326.751L638.609 335.322L641.043 337.472H646.506V336.549H645.501L646.506 335.662V335.326H646.886L648.125 334.233V333.015L648.125 329.267C648.161 327.535 649.552 326.268 650.8 325.342C651.661 324.719 652.507 324.265 652.969 324.033V320.419H654.19V324.033C654.567 324.222 655.201 324.561 655.889 325.017V322.292H654.934V321.069H656.472V303.459H655.712V302.237H656.472V299.694H655.712V298.471H656.472L656.55 298.471V295.497C656.557 294.788 656.84 294.084 657.216 293.362C658.169 291.569 660.476 289.34 661 288.764V285.861H662.221V288.763C662.538 289.113 663.267 289.936 664.002 290.92C664.49 291.574 664.338 292.644 664.718 293.362C665.094 294.084 665.377 294.788 665.384 295.497V298.471H665.462L666.221 298.471V299.694H665.462V302.237H666.221V303.459H665.462V321.069H667V322.292H666.045V343.602L630.052 311.946V325.584H652.238V338.068H661V341.123H564.62H561H57.1476V338.068H74.3557Z" fill="#D8BB54"/>
</g>
<mask id="mask1" mask-type="alpha" maskUnits="userSpaceOnUse" x="162" y="1" width="180" height="361">
<path fill-rule="evenodd" clip-rule="evenodd" d="M184.462 1.52466C172.141 1.52466 162.062 11.5824 162.062 23.875V338.722C162.062 351.014 172.141 361.071 184.462 361.071H318.868C331.189 361.071 341.27 351.014 341.27 338.722V23.875C341.27 11.5824 331.189 1.52466 318.868 1.52466H184.462Z" fill="white"/>
</mask>
<g mask="url(#mask1)">
<path fill-rule="evenodd" clip-rule="evenodd" d="M184.462 1.52466C172.141 1.52466 162.062 11.5824 162.062 23.875V338.722C162.062 351.014 172.141 361.071 184.462 361.071H318.868C331.189 361.071 341.27 351.014 341.27 338.722V23.875C341.27 11.5824 331.189 1.52466 318.868 1.52466H184.462Z" fill="url(#paint0_linear)"/>
</g>
<mask id="mask2" mask-type="alpha" maskUnits="userSpaceOnUse" x="165" y="5" width="173" height="353">
<path fill-rule="evenodd" clip-rule="evenodd" d="M184.462 5.07666C174.106 5.07666 165.622 13.543 165.622 23.8749V338.722C165.622 349.052 174.106 357.518 184.462 357.518H318.868C329.224 357.518 337.708 349.052 337.708 338.722V23.8749C337.708 13.543 329.224 5.07666 318.868 5.07666H184.462Z" fill="white"/>
</mask>
<g mask="url(#mask2)">
<path fill-rule="evenodd" clip-rule="evenodd" d="M184.462 5.07666C174.106 5.07666 165.622 13.543 165.622 23.8749V338.722C165.622 349.052 174.106 357.518 184.462 357.518H318.868C329.224 357.518 337.708 349.052 337.708 338.722V23.8749C337.708 13.543 329.224 5.07666 318.868 5.07666H184.462Z" fill="url(#paint1_linear)"/>
</g>
<path fill-rule="evenodd" clip-rule="evenodd" d="M299.004 16.0959V17.7056C299.004 21.6395 295.786 24.8503 291.845 24.8503H211.487C207.544 24.8503 204.326 21.6395 204.326 17.7056V16.0959C203.837 14.9604 202.704 14.1926 201.445 14.1926H184.461C179.149 14.1926 174.757 18.574 174.757 23.8742V338.721C174.757 344.021 179.149 348.404 184.461 348.404H318.868C324.181 348.404 328.574 344.021 328.574 338.721V23.8742C328.574 18.574 324.181 14.1926 318.868 14.1926H301.886C300.626 14.1926 299.493 14.9604 299.004 16.0959Z" fill="white"/>
<path fill-rule="evenodd" clip-rule="evenodd" d="M236.827 14.3301C237.608 14.3301 238.24 14.9608 238.24 15.7397C238.24 16.5173 237.608 17.1494 236.827 17.1494H235.623C234.843 17.1494 234.21 16.5173 234.21 15.7397C234.21 14.9608 234.843 14.3301 235.623 14.3301H236.827ZM241.541 17.1494C240.761 17.1494 240.128 16.5173 240.128 15.7397C240.128 14.9608 240.761 14.3301 241.541 14.3301H267.706C268.487 14.3301 269.119 14.9608 269.119 15.7397C269.119 16.5173 268.487 17.1494 267.706 17.1494H241.541Z" fill="#E6E0DE"/>
<path fill-rule="evenodd" clip-rule="evenodd" d="M194.214 332.912L194.2 332.926L194.186 332.94C193.308 333.809 192.156 334.244 191.008 334.244C189.863 334.244 188.722 333.815 187.845 332.958L187.815 332.926C186.934 332.046 186.492 330.892 186.492 329.738C186.492 328.586 186.934 327.432 187.814 326.553C188.694 325.675 189.852 325.235 191.008 325.235C192.162 325.235 193.318 325.675 194.2 326.554C195.081 327.432 195.523 328.586 195.523 329.738C195.523 330.887 195.086 332.035 194.214 332.912ZM186.883 325.627C185.744 326.764 185.175 328.252 185.175 329.738C185.175 331.229 185.744 332.719 186.883 333.856L186.923 333.892C188.055 335.004 189.532 335.56 191.008 335.56C192.294 335.56 193.58 335.138 194.641 334.295L197.077 336.727C197.335 336.983 197.751 336.983 198.009 336.727C198.267 336.469 198.267 336.053 198.009 335.797L195.573 333.365C196.417 332.306 196.84 331.022 196.84 329.738C196.84 328.252 196.271 326.764 195.132 325.627C193.994 324.489 192.5 323.919 191.008 323.919C189.516 323.919 188.024 324.489 186.885 325.624L186.883 325.627Z" fill="#0A1432"/>
<path fill-rule="evenodd" clip-rule="evenodd" d="M183.666 21.6967C183.405 21.6967 183.195 21.4869 183.195 21.2268C183.195 20.9681 183.405 20.7569 183.666 20.7569H193.971C194.23 20.7569 194.44 20.9681 194.44 21.2268C194.44 21.4869 194.23 21.6967 193.971 21.6967H183.666ZM183.666 25.0726C183.405 25.0726 183.195 24.8628 183.195 24.6027C183.195 24.344 183.405 24.1328 183.666 24.1328H193.971C194.23 24.1328 194.44 24.344 194.44 24.6027C194.44 24.8628 194.23 25.0726 193.971 25.0726H183.666ZM183.666 18.3194C183.405 18.3194 183.195 18.1096 183.195 17.8495C183.195 17.5894 183.405 17.3796 183.666 17.3796H193.971C194.23 17.3796 194.44 17.5894 194.44 17.8495C194.44 18.1096 194.23 18.3194 193.971 18.3194H183.666Z" fill="#0A1432"/>
<path fill-rule="evenodd" clip-rule="evenodd" d="M318.705 17.8577H307.324C306.93 17.8577 306.573 18.0185 306.313 18.2786C306.055 18.5359 305.894 18.8925 305.894 19.2841V23.169C305.894 23.562 306.055 23.9186 306.315 24.1773C306.574 24.4347 306.931 24.5955 307.324 24.5955H318.705C319.083 24.5955 319.427 24.4472 319.683 24.2053L319.715 24.1773C319.973 23.9186 320.134 23.562 320.134 23.169V19.2841C320.134 18.8925 319.973 18.5359 319.714 18.2758C319.453 18.0185 319.097 17.8577 318.705 17.8577ZM307.324 18.7974H313.373V23.6557H307.324C307.189 23.6557 307.066 23.5998 306.98 23.5117C306.891 23.4236 306.836 23.3033 306.836 23.169V19.2841C306.836 19.1498 306.891 19.0282 306.98 18.9401C307.067 18.852 307.189 18.7974 307.324 18.7974Z" fill="#0A1432"/>
<path fill-rule="evenodd" clip-rule="evenodd" d="M271.956 320.351C271.289 319.685 270.367 319.273 269.348 319.273C268.329 319.273 267.407 319.685 266.74 320.351C266.072 321.018 265.659 321.938 265.659 322.954C265.659 323.97 266.072 324.891 266.74 325.558L266.773 325.593C267.435 326.237 268.344 326.634 269.348 326.634C270.368 326.634 271.291 326.223 271.956 325.56L271.959 325.558C272.626 324.893 273.037 323.973 273.037 322.954C273.037 321.936 272.626 321.017 271.956 320.351ZM272.382 329.506C271.603 328.728 270.528 328.247 269.348 328.247C268.168 328.247 267.093 328.728 266.315 329.506L266.288 329.529C265.524 330.305 265.051 331.367 265.051 332.533V332.869V332.887V332.905V335.636C265.051 335.697 265.077 335.754 265.116 335.793C265.157 335.834 265.213 335.859 265.275 335.859H273.421C273.484 335.859 273.539 335.834 273.578 335.794L273.581 335.793C273.62 335.754 273.644 335.698 273.644 335.636V332.905L273.645 332.891L273.644 332.869V332.533C273.644 331.354 273.16 330.283 272.382 329.506Z" fill="#0A1432"/>
<path fill-rule="evenodd" clip-rule="evenodd" d="M229.888 326.082C230.838 326.082 231.703 326.461 232.336 327.075L232.377 327.111C233.015 327.747 233.41 328.627 233.41 329.598C233.41 330.564 233.015 331.442 232.377 332.08L232.374 332.083C231.736 332.719 230.856 333.112 229.888 333.112C228.915 333.112 228.035 332.718 227.398 332.081C226.761 331.444 226.364 330.565 226.364 329.598C226.364 328.627 226.759 327.747 227.397 327.111C228.035 326.476 228.915 326.082 229.888 326.082ZM235.623 327.371L237.1 326.521L236.164 324.903L234.647 325.776C234.38 325.932 234.045 325.876 233.84 325.658C233.495 325.314 233.104 325.012 232.677 324.769C232.255 324.524 231.797 324.334 231.314 324.206C231.019 324.13 230.822 323.862 230.822 323.572V321.829H228.953V323.572C228.953 323.893 228.723 324.159 228.419 324.218C227.952 324.345 227.508 324.532 227.097 324.769C226.665 325.016 226.27 325.321 225.922 325.671C225.707 325.886 225.377 325.922 225.126 325.776L223.61 324.903L222.675 326.521L224.189 327.394C224.452 327.545 224.57 327.854 224.494 328.133H224.497C224.43 328.378 224.379 328.619 224.35 328.855C224.318 329.087 224.302 329.335 224.302 329.598C224.302 329.859 224.318 330.107 224.35 330.339C224.379 330.575 224.43 330.816 224.497 331.062C224.582 331.375 224.424 331.698 224.135 331.83L222.675 332.673L223.61 334.291L225.126 333.418C225.395 333.263 225.729 333.319 225.934 333.536C226.28 333.88 226.671 334.182 227.097 334.428C227.519 334.671 227.979 334.861 228.461 334.987C228.756 335.066 228.951 335.331 228.953 335.622V337.365H230.821V335.622C230.821 335.302 231.051 335.035 231.355 334.976C231.823 334.85 232.266 334.664 232.677 334.426C233.108 334.178 233.504 333.873 233.851 333.523C234.067 333.308 234.396 333.273 234.647 333.418L236.164 334.291L237.1 332.673L235.585 331.802C235.322 331.649 235.204 331.341 235.281 331.062H235.277C235.344 330.817 235.394 330.575 235.425 330.339C235.456 330.107 235.472 329.859 235.472 329.598C235.472 329.335 235.456 329.087 235.425 328.855C235.394 328.619 235.344 328.378 235.278 328.135C235.194 327.824 235.345 327.508 235.623 327.371Z" fill="#0A1432"/>
<path fill-rule="evenodd" clip-rule="evenodd" d="M307.058 328.57H313.026C313.228 328.57 313.395 328.735 313.395 328.938C313.395 329.139 313.228 329.303 313.026 329.303H307.058C306.855 329.303 306.691 329.139 306.691 328.938C306.691 328.735 306.855 328.57 307.058 328.57ZM306.036 328.938C306.036 329.139 305.871 329.303 305.669 329.303H305.02C304.817 329.303 304.653 329.139 304.653 328.938C304.653 328.735 304.817 328.57 305.02 328.57H305.669C305.871 328.57 306.036 328.735 306.036 328.938ZM313.063 326.109C313.063 325.906 313.227 325.742 313.43 325.742H314.079C314.281 325.742 314.446 325.906 314.446 326.109C314.446 326.312 314.281 326.475 314.079 326.475H313.43C313.227 326.475 313.063 326.312 313.063 326.109ZM312.039 325.742C312.243 325.742 312.407 325.906 312.407 326.109C312.407 326.312 312.243 326.475 312.039 326.475H305.02C304.817 326.475 304.653 326.312 304.653 326.109C304.653 325.906 304.817 325.742 305.02 325.742H312.039ZM301.303 323.257V325.329V335.708C301.694 335.277 302.152 334.84 302.672 334.459C303.626 333.76 304.782 333.241 306.109 333.241H308.077H316.871C317.126 333.241 317.358 333.136 317.525 332.968C317.693 332.799 317.799 332.568 317.799 332.315V327.822V323.257C317.799 323.133 317.773 323.013 317.727 322.904C317.681 322.792 317.611 322.69 317.525 322.606C317.358 322.438 317.126 322.333 316.871 322.333H316.152H302.843H302.231C301.974 322.333 301.743 322.436 301.575 322.603C301.407 322.772 301.303 323.004 301.303 323.257Z" fill="#0A1432"/>
<rect x="195" y="119.999" width="20" height="30" rx="6" fill="#E3E3E3"/>
<rect x="218" y="119.999" width="20" height="30" rx="6" fill="#E3E3E3"/>
<rect x="242" y="119.999" width="20" height="30" rx="6" fill="#E3E3E3"/>
<rect x="266" y="119.999" width="20" height="30" rx="6" fill="#E3E3E3"/>
<rect x="289" y="119.999" width="20" height="30" rx="6" fill="#E3E3E3"/>
<g clip-path="url(#clip0)">
<path fill-rule="evenodd" clip-rule="evenodd" d="M214.91 158.906L198.703 215.428L266.387 234.836L276.026 201.221L278.514 192.543L278.849 191.374L280.444 185.813L282.594 178.314L214.91 158.906Z" fill="#FFD542"/>
<path fill-rule="evenodd" clip-rule="evenodd" d="M282.384 178.253L278.639 191.313L220.432 174.622L220.096 175.792L278.304 192.483L266.177 234.775L275.533 237.458L278.291 233.819L281.837 229.141L284.727 225.328L285.596 224.181L288.167 220.789L288.73 220.045L291.236 216.739L297.913 207.929L299.857 205.364L300.272 204.817L300.747 204.189L301.938 202.618L304.017 199.874L313.616 187.209L282.384 178.253Z" fill="#C3A026"/>
<path fill-rule="evenodd" clip-rule="evenodd" d="M309.587 208.858L310.054 208.992L313.914 195.527L313.448 195.394L309.587 208.858Z" fill="white"/>
<path fill-rule="evenodd" clip-rule="evenodd" d="M301.568 236.826L302.034 236.96L305.895 223.495L305.429 223.361L301.568 236.826Z" fill="white"/>
<path fill-rule="evenodd" clip-rule="evenodd" d="M310.991 211.216L315.955 193.907C313.552 193.218 312.302 190.22 313.164 187.214L304.382 198.78L296.661 208.948L290.799 216.669L285.162 224.092L285.104 224.169L280.213 230.61L277.863 233.706L277.435 234.269L275.106 237.336L296.992 243.612C297.854 240.605 300.502 238.726 302.905 239.415L307.869 222.106C305.466 221.417 304.216 218.419 305.078 215.413C305.94 212.407 308.588 210.527 310.991 211.216Z" fill="#A58517"/>
<path fill-rule="evenodd" clip-rule="evenodd" d="M214.852 159.023C213.989 162.029 210.594 163.695 207.27 162.742L202.307 180.051C205.631 181.004 207.628 184.216 206.766 187.222C205.904 190.228 202.508 191.894 199.184 190.941L194.221 208.25C197.545 209.203 199.542 212.415 198.68 215.421L198.703 215.427L214.874 159.03L214.852 159.023Z" fill="#C3A026"/>
<path d="M238.091 205.304L239.61 200.01C241.452 200.463 242.899 200.554 243.951 200.281C245.033 199.992 245.759 199.201 246.129 197.909L246.268 197.425C246.519 196.548 246.446 195.803 246.048 195.19C245.672 194.583 245.069 194.16 244.239 193.922C243.339 193.664 242.51 193.726 241.751 194.107C241.016 194.496 240.422 195.087 239.97 195.881L236.254 192.906C236.66 192.273 237.152 191.69 237.729 191.156C238.313 190.6 238.989 190.157 239.758 189.828C240.556 189.483 241.44 189.274 242.409 189.203C243.401 189.138 244.486 189.274 245.662 189.611C246.862 189.955 247.908 190.442 248.801 191.073C249.694 191.704 250.408 192.433 250.945 193.261C251.482 194.089 251.809 194.994 251.926 195.976C252.067 196.966 251.986 197.991 251.681 199.052C251.403 200.021 250.99 200.851 250.443 201.543C249.895 202.235 249.258 202.801 248.532 203.242C247.813 203.66 247.032 203.948 246.187 204.105C245.343 204.263 244.498 204.295 243.651 204.202L242.936 206.694L238.091 205.304ZM238.152 214.497C237.044 214.18 236.321 213.698 235.982 213.051C235.667 212.411 235.614 211.722 235.826 210.984L236.064 210.153C236.276 209.415 236.685 208.858 237.292 208.483C237.922 208.115 238.791 208.089 239.898 208.407C241.006 208.724 241.717 209.203 242.033 209.843C242.372 210.489 242.436 211.181 242.224 211.92L241.986 212.75C241.774 213.489 241.353 214.042 240.723 214.411C240.116 214.786 239.259 214.815 238.152 214.497Z" fill="white"/>
</g>
<path fill-rule="evenodd" clip-rule="evenodd" d="M82.1921 198.936C78.1399 199.11 73.2322 200.378 67.9994 202.602C65.4491 203.68 62.5947 205.053 59.2722 206.801C58.1982 207.361 57.121 207.938 55.9808 208.55C54.256 209.475 52.4836 210.425 50.6244 211.363C51.6807 211.065 53.2761 210.591 55.2148 209.943C56.5178 209.518 57.9871 209.014 59.5426 208.48C62.3117 207.53 65.4505 206.452 68.6306 205.485C71.139 204.713 73.6361 204.052 76.0518 203.52C78.4779 203.004 80.7621 202.646 82.8419 202.454C84.4249 202.299 85.8616 202.254 87.129 202.214C89.1312 202.152 90.7127 202.102 91.6846 201.645C91.8188 201.576 91.8877 201.495 91.8853 201.406C91.8822 201.303 91.7658 200.912 90.3905 200.235C89.5817 199.851 87.5395 199.057 84.2867 198.926C83.6367 198.9 82.9388 198.9 82.1921 198.936Z" fill="#FFB800"/>
<path fill-rule="evenodd" clip-rule="evenodd" d="M53.6198 202.319C53.5331 202.508 53.4458 202.698 53.355 202.884C52.2845 205.327 51.6269 207.747 51.3174 210.409L51.3884 210.16C51.4106 210.088 51.431 210.013 51.4521 209.936C51.4928 209.786 51.5349 209.631 51.5931 209.479L52.2078 207.931C52.2864 207.748 52.3757 207.579 52.4702 207.4C52.5224 207.301 52.5756 207.2 52.6274 207.096C53.8735 204.629 55.8352 202.219 58.0099 200.486L58.8628 199.788L60.1897 198.844L61.5306 198.001L61.8628 197.818C62.9546 197.218 63.986 196.652 64.9605 196.224C65.2725 196.071 65.5768 195.927 65.8687 195.788C67.5013 195.014 68.7908 194.402 69.0982 193.288C69.1264 193.169 69.1203 193.062 69.0793 192.975C69.0154 192.84 68.8071 192.59 68.1302 192.348C68.053 192.32 67.9697 192.293 67.8799 192.265C67.7508 192.226 67.6122 192.189 67.4641 192.153C67.3396 192.132 67.2074 192.121 67.0667 192.109L67.0144 192.105C66.694 192.08 66.3323 192.068 65.9401 192.069C65.1356 192.148 64.2561 192.271 63.3042 192.632C60.8549 193.525 58.6281 195.165 56.685 197.508C56.167 198.086 55.6895 198.784 55.1839 199.522L54.9555 199.856L54.1354 201.28C53.9515 201.597 53.7904 201.947 53.6198 202.319Z" fill="#FFB800"/>
<path fill-rule="evenodd" clip-rule="evenodd" d="M38.5836 255.287C38.492 254.74 38.3882 254.12 38.2451 253.445C38.1619 253.058 38.107 252.644 38.0487 252.205C38.0061 251.885 37.962 251.554 37.9044 251.214C37.7813 250.55 37.7122 249.829 37.6391 249.066L37.5899 248.56C37.1165 243.533 37.2141 238.672 37.8885 233.698C38.3418 230.207 38.9874 227.023 39.8621 223.964C40.8412 220.518 41.9866 217.475 43.3474 214.708L43.071 215.061C42.9509 215.215 42.8224 215.379 42.6919 215.557L41.9895 216.6C41.5895 217.193 41.1362 217.865 40.7111 218.639C39.2935 221.064 36.7 226.072 35.2394 232.399L34.7635 234.496L34.2375 237.702L33.9272 240.929L33.8511 244.109L33.928 245.641L34.02 247.171C34.0669 247.666 34.1411 248.165 34.213 248.648L34.28 249.103C34.312 249.29 34.3407 249.48 34.3688 249.668C34.4341 250.102 34.4958 250.513 34.6045 250.915C34.7512 251.511 34.9001 252.079 35.048 252.608C35.2986 253.622 35.7042 254.527 36.0621 255.326L36.235 255.696C36.3874 256.016 36.5313 256.319 36.7076 256.585C36.9282 256.92 37.1473 257.223 37.3589 257.484C37.7826 258.005 38.1869 258.369 38.5603 258.565C38.7537 258.66 38.8226 258.6 38.8455 258.581C38.9567 258.486 39.1042 258.112 38.8422 256.673C38.7506 256.284 38.6733 255.822 38.5836 255.287Z" fill="#FFB800"/>
<path fill-rule="evenodd" clip-rule="evenodd" d="M43.1508 211.552L43.1049 211.582C42.8823 211.732 42.6297 211.899 42.3526 212.082C41.5911 212.586 40.6432 213.212 39.5887 213.977C36.2787 216.544 32.8006 219.432 29.8111 223.144L28.5737 224.611C28.2949 224.983 28.0181 225.379 27.7504 225.762L27.464 226.171C27.2928 226.422 27.1193 226.673 26.9456 226.923C26.4004 227.71 25.8368 228.523 25.345 229.344C25.1983 229.616 25.0483 229.891 24.8992 230.164C23.8441 232.1 22.8477 233.929 22.2417 235.764C21.8497 236.824 21.5179 237.814 21.2533 238.712C21.0018 239.616 20.877 240.498 20.7708 241.324C20.5819 242.965 20.6787 244.184 21.0588 244.944C21.1705 245.153 21.2739 245.154 21.3023 245.159C21.4525 245.169 21.7993 245.017 22.4406 243.899C22.8127 243.251 23.2411 242.35 23.7144 241.222C23.7646 241.108 23.8113 240.991 23.859 240.873C23.932 240.69 24.0073 240.504 24.0964 240.318L24.5531 239.357C24.8649 238.688 25.1977 237.951 25.5416 237.167C25.943 236.145 26.4878 235.076 27.0644 233.943C27.4079 233.269 27.7632 232.571 28.1178 231.827L28.4906 231.064L29.835 228.747C29.9576 228.535 30.0805 228.319 30.2045 228.101C30.7074 227.216 31.2277 226.3 31.8647 225.411C34.9089 220.63 38.7026 215.972 43.1508 211.552Z" fill="#FFB800"/>
<path fill-rule="evenodd" clip-rule="evenodd" d="M22.3866 215.985C22.5938 216.113 22.9413 216.087 23.4204 215.906C24.1072 215.653 25.0411 215.103 26.3333 214.342L27.3283 213.762C29.0117 212.803 31.1072 211.608 33.8686 210.706C36.8325 209.734 39.9878 209.283 41.0998 209.145C40.1297 208.588 38.9856 208.156 37.8311 207.915C37.2507 207.786 36.6357 207.697 35.9995 207.648C35.1165 207.58 34.1919 207.591 33.2584 207.681C30.28 207.97 27.1974 209.12 25.0131 210.756C22.9209 212.315 21.8258 214.178 22.155 215.619C22.1985 215.795 22.2744 215.915 22.3866 215.985Z" fill="#FFB800"/>
<path fill-rule="evenodd" clip-rule="evenodd" d="M28.5006 198.207C28.8649 198.379 29.3586 198.538 29.9837 198.739C30.4019 198.874 30.876 199.027 31.418 199.217C32.7632 199.695 34.5869 200.411 36.7699 201.723C38.0119 202.453 39.1526 203.233 40.2563 204.107C41.5057 205.095 42.5712 206.078 43.4961 207.098L43.452 206.976C43.3756 206.755 43.2636 206.49 43.0766 206.088C42.9386 205.78 42.7503 205.374 42.5047 204.939C41.9755 203.957 40.497 201.445 38.1669 199.27C37.3016 198.423 36.2494 197.614 35.0367 196.863C33.7403 196.134 32.6939 195.715 31.7484 195.551C31.5271 195.499 31.2999 195.463 31.0628 195.443C30.8063 195.42 30.5386 195.416 30.2543 195.429C29.8744 195.428 29.4848 195.512 29.0226 195.691C28.6938 195.81 28.4011 196.016 28.1741 196.289C27.9621 196.538 27.8224 196.826 27.7584 197.147C27.6813 197.583 27.9307 197.941 28.5006 198.207Z" fill="#FFB800"/>
<path fill-rule="evenodd" clip-rule="evenodd" d="M49.5244 194.385L49.354 194.731C49.0582 195.324 48.7527 195.937 48.5415 196.605C47.3925 199.806 47.1937 203.627 47.9646 207.45L47.9882 207.28C48.0218 206.999 48.0726 206.617 48.1658 206.177C48.1952 206.037 48.2213 205.892 48.2484 205.742C48.3038 205.436 48.3609 205.119 48.4556 204.779C48.8096 203.293 49.6318 200.428 51.1458 197.992C51.7809 196.867 52.6143 195.909 53.3454 195.121C53.5608 194.919 53.7494 194.734 53.9289 194.547C54.044 194.435 54.1632 194.342 54.2783 194.252C54.3652 194.184 54.4514 194.117 54.532 194.044C54.7417 193.836 54.9761 193.673 55.2025 193.516C55.3729 193.398 55.5339 193.286 55.6802 193.158C56.0277 192.897 56.3635 192.668 56.6882 192.446C57.7628 191.712 58.6911 191.078 59.0704 190.003C59.1341 189.814 59.13 189.661 59.0576 189.537C58.9388 189.333 58.6278 189.185 58.1329 189.095C57.8922 189.052 57.6234 189.025 57.3337 189.013C57.0443 189.037 56.6983 189.081 56.3217 189.144L55.717 189.258C55.5824 189.288 55.4417 189.341 55.2928 189.397C55.2271 189.422 55.1609 189.447 55.0932 189.47L54.0422 189.896L53.7034 190.097C53.5934 190.167 53.475 190.239 53.3541 190.312C52.9769 190.539 52.5868 190.774 52.2434 191.102L51.4909 191.766C51.3287 191.929 51.1716 192.114 51.0051 192.311C50.9404 192.387 50.8751 192.464 50.8085 192.54C50.4355 192.939 50.1399 193.411 49.8265 193.91C49.7279 194.067 49.6281 194.226 49.5244 194.385Z" fill="#FFB800"/>
<path fill-rule="evenodd" clip-rule="evenodd" d="M41.9228 199.612C42.4291 201.181 43.0105 202.783 43.6259 204.479C43.8916 205.211 44.1634 205.96 44.4339 206.719C44.4275 206.655 44.4208 206.588 44.4136 206.519C44.3341 205.72 44.1947 204.551 43.9992 203.042C43.9399 202.571 43.8755 202.074 43.8081 201.554C43.465 198.908 43.0377 195.613 42.8692 192.383C42.7576 190.44 42.7747 188.517 42.9188 186.822C43.0994 185.021 43.4116 183.519 43.8469 182.355C44.2993 181.089 44.8619 180.071 45.3138 179.252L45.4804 178.918C45.5464 178.808 45.6041 178.706 45.6577 178.603C45.759 178.411 45.8515 178.206 45.941 177.975C46.1299 177.569 46.2415 177.169 46.2759 176.778C46.2905 176.592 46.2527 176.459 46.1603 176.373C46.1002 176.318 45.9841 176.252 45.7637 176.237C45.5546 176.222 45.2514 176.252 44.813 176.376C44.0743 176.627 43.3722 177.052 42.7323 177.637C42.0951 178.198 41.1949 179.202 40.5143 180.806C39.9015 182.234 39.5328 184.008 39.4483 185.939C39.3569 187.773 39.5326 189.864 39.9856 192.33C40.4039 194.535 41.0377 196.917 41.9228 199.612Z" fill="#FFB800"/>
<path fill-rule="evenodd" clip-rule="evenodd" d="M50.9156 218.24C51.0765 218.352 51.2321 218.495 51.3826 218.634C51.4644 218.709 51.5473 218.786 51.6334 218.859C53.7391 220.7 55.9319 223.49 57.6506 226.515L58.3284 227.688L58.9601 228.899C59.2269 229.379 59.4633 229.882 59.692 230.369C59.8403 230.684 59.987 230.997 60.1412 231.302C60.7729 232.721 61.4902 234.367 62.0499 235.873C62.3473 236.634 62.6172 237.364 62.8555 238.009C63.489 239.725 63.9892 241.08 64.5136 241.666C64.5606 241.714 64.5837 241.719 64.584 241.72C64.5787 241.718 64.7101 241.616 64.6686 240.571C64.6658 240.118 64.567 239.565 64.4419 238.865C64.4131 238.705 64.3833 238.538 64.353 238.364C64.1311 237.444 63.8551 236.349 63.4194 235.131C62.2702 231.879 60.7664 228.908 58.8224 226.045C57.4263 223.976 56.0057 222.266 54.4795 220.818C52.9273 219.345 51.4009 218.238 49.8563 217.471L50.9156 218.24Z" fill="#FFB800"/>
<path fill-rule="evenodd" clip-rule="evenodd" d="M117.533 131.065C113.687 129.777 108.651 129.203 102.969 129.406C100.202 129.499 97.0448 129.759 93.3168 130.202C92.1136 130.339 90.9011 130.493 89.6175 130.656C87.6759 130.901 85.6807 131.154 83.6088 131.365C84.702 131.464 86.3612 131.593 88.4034 131.682C89.7724 131.751 91.3247 131.807 92.9683 131.865C95.894 131.97 99.2103 132.088 102.526 132.323C105.144 132.501 107.713 132.778 110.159 133.147C112.609 133.534 114.87 134.017 116.88 134.582C118.414 135.004 119.771 135.477 120.969 135.894C122.861 136.552 124.355 137.072 125.426 136.993C125.576 136.977 125.67 136.925 125.699 136.842C125.733 136.744 125.765 136.338 124.723 135.213C124.105 134.565 122.483 133.093 119.492 131.806C118.895 131.549 118.243 131.299 117.533 131.065Z" fill="#00D17D"/>
<path fill-rule="evenodd" clip-rule="evenodd" d="M89.6443 123.992C89.4956 124.138 89.3462 124.284 89.1948 124.425C87.3204 126.323 85.8399 128.347 84.5975 130.722L84.7529 130.515C84.7995 130.456 84.8454 130.393 84.8929 130.328C84.9845 130.203 85.0793 130.073 85.1881 129.952L86.3163 128.727C86.4554 128.584 86.5992 128.458 86.7515 128.325C86.8357 128.251 86.9213 128.177 87.0071 128.098C89.054 126.24 91.7484 124.693 94.3996 123.853L95.4457 123.507L97.0227 123.101L98.5768 122.793L98.9523 122.742C100.186 122.573 101.352 122.413 102.415 122.363C102.762 122.331 103.097 122.306 103.419 122.281C105.221 122.143 106.644 122.033 107.33 121.103C107.399 121.002 107.432 120.9 107.424 120.804C107.413 120.655 107.308 120.347 106.763 119.879C106.701 119.825 106.633 119.77 106.559 119.712C106.452 119.629 106.336 119.544 106.211 119.458C106.102 119.394 105.982 119.336 105.855 119.275L105.808 119.252C105.518 119.114 105.184 118.973 104.818 118.834C104.039 118.619 103.173 118.419 102.155 118.416C99.5486 118.372 96.882 119.107 94.2288 120.599C93.5382 120.953 92.8426 121.433 92.1061 121.941L91.7734 122.171L90.4976 123.208C90.2125 123.437 89.9365 123.707 89.6443 123.992Z" fill="#00D17D"/>
<path fill-rule="evenodd" clip-rule="evenodd" d="M56.6384 168.064C56.7488 167.521 56.8738 166.905 56.9819 166.224C57.0431 165.832 57.14 165.425 57.2425 164.995C57.3173 164.681 57.3948 164.356 57.4626 164.018C57.5855 163.354 57.7791 162.656 57.9841 161.918L58.1196 161.427C59.4776 156.564 61.3092 152.06 63.7198 147.658C65.3931 144.561 67.1362 141.819 69.0483 139.276C71.1962 136.41 73.3555 133.978 75.6167 131.882L75.2322 132.113C75.0651 132.213 74.8865 132.32 74.7008 132.439L73.6715 133.162C73.0855 133.573 72.4216 134.038 71.7478 134.608C69.5557 136.365 65.3408 140.112 61.7117 145.496L60.5163 147.284L58.8774 150.089L57.4321 152.991L56.2225 155.933L55.7456 157.391L55.2836 158.852C55.15 159.331 55.0406 159.824 54.9348 160.301L54.8346 160.749C54.7975 160.935 54.7562 161.123 54.7151 161.309C54.6206 161.737 54.5313 162.143 54.4888 162.557C54.4124 163.166 54.3478 163.75 54.2966 164.297C54.1674 165.334 54.222 166.324 54.2703 167.197L54.2993 167.605C54.3267 167.959 54.3525 168.293 54.4222 168.604C54.5079 168.997 54.6042 169.357 54.7084 169.677C54.9173 170.315 55.1646 170.8 55.4428 171.117C55.5894 171.275 55.6753 171.243 55.7034 171.234C55.8413 171.185 56.113 170.888 56.3834 169.451C56.4375 169.055 56.5307 168.596 56.6384 168.064Z" fill="#00D17D"/>
<path fill-rule="evenodd" clip-rule="evenodd" d="M76.5633 128.864L76.5097 128.876C76.2479 128.937 75.9524 129.002 75.6281 129.074C74.7368 129.271 73.6275 129.517 72.3689 129.854C68.3595 131.064 64.0776 132.516 59.9575 134.911L58.2768 135.837C57.8833 136.085 57.4829 136.356 57.0956 136.618L56.6818 136.897C56.4324 137.07 56.1805 137.242 55.9288 137.413C55.1379 137.953 54.3203 138.511 53.5672 139.101C53.333 139.302 53.0945 139.505 52.8572 139.707C51.1789 141.137 49.5938 142.488 48.3709 143.984C47.6255 144.833 46.961 145.639 46.3923 146.383C45.8338 147.137 45.4014 147.916 45.0066 148.649C44.2427 150.113 43.8967 151.286 43.9794 152.131C44.0088 152.367 44.1051 152.405 44.1295 152.42C44.2662 152.483 44.6446 152.465 45.6437 151.651C46.223 151.179 46.9456 150.491 47.7916 149.607C47.8794 149.518 47.9647 149.427 48.0516 149.333C48.185 149.189 48.3223 149.041 48.4721 148.9L49.2423 148.167C49.7731 147.654 50.3478 147.084 50.9497 146.475C51.6904 145.665 52.5819 144.862 53.5257 144.011C54.0881 143.504 54.6698 142.98 55.267 142.412L55.8883 141.833L57.9731 140.152C58.1637 139.997 58.3558 139.84 58.5498 139.68C59.3362 139.034 60.1498 138.365 61.0629 137.763C65.6174 134.389 70.8275 131.398 76.5633 128.864Z" fill="#00D17D"/>
<path fill-rule="evenodd" clip-rule="evenodd" d="M55.5886 125.568C55.7361 125.762 56.07 125.862 56.5821 125.865C57.3141 125.874 58.3828 125.695 59.8617 125.448L60.9984 125.263C62.9138 124.969 65.2981 124.604 68.1996 124.75C71.3148 124.905 74.4224 125.614 75.5101 125.883C74.8037 125.015 73.8901 124.203 72.8986 123.564C72.4029 123.236 71.8607 122.932 71.2841 122.659C70.4838 122.279 69.6168 121.958 68.713 121.708C65.8284 120.912 62.5385 120.881 59.9133 121.626C57.4016 122.333 55.7118 123.681 55.5035 125.144C55.4811 125.323 55.5087 125.463 55.5886 125.568Z" fill="#00D17D"/>
<path fill-rule="evenodd" clip-rule="evenodd" d="M67.6631 111.158C67.9417 111.449 68.3457 111.775 68.8572 112.187C69.1996 112.462 69.5875 112.774 70.0254 113.146C71.1102 114.074 72.5565 115.396 74.1251 117.402C75.0235 118.528 75.8093 119.665 76.5265 120.877C77.3395 122.246 77.9822 123.546 78.4805 124.83L78.483 124.7C78.4911 124.466 78.4814 124.178 78.4508 123.736C78.4321 123.399 78.4018 122.952 78.3281 122.459C78.1856 121.352 77.7047 118.477 76.308 115.612C75.8033 114.511 75.1105 113.379 74.2471 112.244C73.2978 111.099 72.4705 110.334 71.6467 109.841C71.4585 109.714 71.2592 109.599 71.0453 109.495C70.8138 109.382 70.5655 109.282 70.2954 109.192C69.9408 109.056 69.5473 108.994 69.0514 108.996C68.7018 108.99 68.3547 109.077 68.0452 109.25C67.7579 109.407 67.5242 109.627 67.3497 109.903C67.1214 110.283 67.2261 110.706 67.6631 111.158Z" fill="#00D17D"/>
<path fill-rule="evenodd" clip-rule="evenodd" d="M88.6615 115.118L88.3784 115.38C87.8899 115.828 87.3851 116.291 86.9488 116.839C84.7296 119.417 83.1757 122.913 82.5268 126.758L82.6097 126.608C82.7417 126.357 82.9258 126.019 83.1705 125.641C83.248 125.522 83.3243 125.396 83.4033 125.265C83.5646 124.999 83.7314 124.724 83.9415 124.44C84.8042 123.18 86.5978 120.799 88.8837 119.066C89.8795 118.244 91.0006 117.648 91.9654 117.174C92.2389 117.062 92.4814 116.957 92.7157 116.847C92.8633 116.784 93.0079 116.739 93.1477 116.696C93.2531 116.664 93.3577 116.632 93.4589 116.593C93.7295 116.473 94.0065 116.405 94.2742 116.34C94.4756 116.29 94.666 116.244 94.8484 116.177C95.2662 116.058 95.6619 115.964 96.0445 115.873C97.3108 115.572 98.4045 115.312 99.1437 114.444C99.2708 114.291 99.3218 114.146 99.2985 114.005C99.2605 113.772 99.0232 113.522 98.5934 113.261C98.3839 113.135 98.1427 113.013 97.8763 112.899C97.5977 112.817 97.2589 112.734 96.8847 112.659L96.2792 112.548C96.143 112.528 95.9926 112.527 95.8334 112.526C95.7632 112.526 95.6924 112.526 95.6207 112.523L94.4872 112.544L94.0987 112.611C93.9709 112.637 93.8347 112.661 93.6957 112.686C93.2621 112.763 92.8136 112.843 92.3756 113.027L91.4354 113.377C91.2255 113.471 91.0124 113.588 90.7867 113.711C90.699 113.759 90.6106 113.808 90.5209 113.856C90.0297 114.095 89.5849 114.429 89.1136 114.783C88.9654 114.894 88.8153 115.007 88.6615 115.118Z" fill="#00D17D"/>
<path fill-rule="evenodd" clip-rule="evenodd" d="M79.692 117.277C79.6032 118.923 79.5724 120.627 79.5396 122.431C79.5256 123.209 79.5113 124.006 79.4917 124.812C79.5088 124.75 79.5265 124.685 79.5446 124.618C79.7564 123.843 80.0449 122.702 80.4026 121.223C80.516 120.762 80.6339 120.274 80.7569 119.765C81.3844 117.171 82.1651 113.942 83.1644 110.866C83.7558 109.012 84.4604 107.223 85.2017 105.692C86.0154 104.075 86.8447 102.784 87.6679 101.853C88.5437 100.833 89.4337 100.084 90.1486 99.4813L90.4239 99.2287C90.525 99.1493 90.6154 99.0749 90.7023 98.9981C90.8655 98.8553 91.0253 98.697 91.1915 98.5136C91.5134 98.2017 91.7609 97.8682 91.9331 97.5151C92.0132 97.3472 92.0254 97.2096 91.9698 97.0964C91.9338 97.0228 91.8487 96.9202 91.6484 96.8268C91.4585 96.7381 91.1648 96.6573 90.7108 96.6167C89.9315 96.586 89.1239 96.7312 88.3166 97.049C87.5208 97.3445 86.3211 97.9589 85.1111 99.2131C84.0277 100.327 83.0479 101.852 82.2776 103.624C81.5356 105.304 80.9511 107.319 80.4911 109.784C80.0919 111.992 79.8306 114.444 79.692 117.277Z" fill="#00D17D"/>
<path fill-rule="evenodd" clip-rule="evenodd" d="M81.4183 137.89C81.5284 138.052 81.6224 138.241 81.7133 138.425C81.7628 138.524 81.8129 138.625 81.867 138.725C83.1738 141.197 84.2222 144.588 84.7437 148.027L84.9566 149.365L85.1128 150.722C85.19 151.266 85.2305 151.821 85.2697 152.357C85.2953 152.704 85.3203 153.049 85.3552 153.389C85.4367 154.94 85.5171 156.734 85.5004 158.34C85.5057 159.157 85.496 159.936 85.4875 160.624C85.4648 162.452 85.4467 163.896 85.7266 164.631C85.753 164.693 85.7727 164.706 85.7729 164.707C85.7686 164.703 85.9277 164.655 86.2631 163.665C86.423 163.24 86.5286 162.689 86.6623 161.991C86.6929 161.831 86.7249 161.664 86.7589 161.491C86.8811 160.552 87.0155 159.431 87.0447 158.138C87.1361 154.69 86.7962 151.377 86.0062 148.008C85.4436 145.576 84.7293 143.471 83.8229 141.573C82.9011 139.641 81.8721 138.062 80.7047 136.792L81.4183 137.89Z" fill="#00D17D"/>
<path fill-rule="evenodd" clip-rule="evenodd" d="M468.242 187.409C472.294 187.583 477.202 188.851 482.434 191.075C484.985 192.153 487.839 193.526 491.162 195.274C492.236 195.834 493.313 196.411 494.453 197.023C496.178 197.947 497.95 198.898 499.809 199.836C498.753 199.538 497.158 199.064 495.219 198.416C493.916 197.991 492.447 197.487 490.891 196.953C488.122 196.002 484.983 194.925 481.803 193.958C479.295 193.186 476.798 192.525 474.382 191.993C471.956 191.477 469.672 191.119 467.592 190.927C466.009 190.772 464.572 190.727 463.305 190.687C461.303 190.625 459.721 190.575 458.749 190.118C458.615 190.049 458.546 189.967 458.548 189.879C458.552 189.776 458.668 189.385 460.043 188.708C460.852 188.324 462.894 187.53 466.147 187.399C466.797 187.373 467.495 187.373 468.242 187.409Z" fill="#FFD542"/>
<path fill-rule="evenodd" clip-rule="evenodd" d="M496.814 190.792C496.901 190.981 496.988 191.17 497.079 191.357C498.149 193.8 498.807 196.22 499.116 198.882L499.045 198.633C499.023 198.561 499.003 198.486 498.982 198.409C498.941 198.259 498.899 198.104 498.841 197.952L498.226 196.404C498.147 196.22 498.058 196.051 497.963 195.873C497.911 195.774 497.858 195.673 497.806 195.569C496.56 193.102 494.599 190.692 492.424 188.959L491.571 188.261L490.244 187.317L488.903 186.474L488.571 186.291C487.479 185.691 486.448 185.125 485.473 184.697C485.161 184.544 484.857 184.4 484.565 184.261C482.932 183.487 481.643 182.875 481.335 181.761C481.307 181.642 481.313 181.535 481.354 181.448C481.418 181.313 481.627 181.063 482.303 180.821C482.381 180.793 482.464 180.766 482.554 180.738C482.683 180.699 482.821 180.661 482.97 180.626C483.094 180.605 483.226 180.594 483.367 180.582L483.419 180.578C483.74 180.553 484.101 180.541 484.494 180.541C485.298 180.62 486.178 180.743 487.129 181.105C489.579 181.998 491.806 183.638 493.749 185.981C494.267 186.559 494.744 187.257 495.25 187.995L495.478 188.329L496.298 189.753C496.482 190.07 496.643 190.42 496.814 190.792Z" fill="#FFD542"/>
<path fill-rule="evenodd" clip-rule="evenodd" d="M511.85 243.76C511.942 243.213 512.046 242.593 512.189 241.918C512.272 241.53 512.327 241.116 512.385 240.678C512.428 240.358 512.472 240.027 512.529 239.687C512.652 239.023 512.722 238.302 512.795 237.539L512.844 237.033C513.317 232.006 513.22 227.145 512.545 222.171C512.092 218.68 511.446 215.496 510.572 212.436C509.593 208.991 508.447 205.948 507.086 203.181L507.363 203.534C507.483 203.688 507.611 203.852 507.742 204.03L508.444 205.073C508.844 205.666 509.298 206.338 509.723 207.112C511.14 209.537 513.734 214.545 515.194 220.872L515.67 222.969L516.196 226.174L516.507 229.402L516.583 232.582L516.506 234.114L516.414 235.644C516.367 236.139 516.293 236.638 516.221 237.121L516.154 237.576C516.122 237.763 516.093 237.953 516.065 238.141C516 238.575 515.938 238.985 515.829 239.387C515.682 239.984 515.534 240.552 515.386 241.081C515.135 242.095 514.73 243 514.372 243.799L514.199 244.169C514.046 244.489 513.902 244.792 513.726 245.058C513.505 245.393 513.286 245.696 513.075 245.956C512.651 246.478 512.247 246.842 511.873 247.038C511.68 247.133 511.611 247.073 511.588 247.054C511.477 246.959 511.329 246.585 511.592 245.146C511.683 244.757 511.76 244.295 511.85 243.76Z" fill="#FFD542"/>
<path fill-rule="evenodd" clip-rule="evenodd" d="M507.283 200.025L507.329 200.055C507.551 200.205 507.804 200.372 508.081 200.555C508.843 201.059 509.791 201.685 510.845 202.45C514.155 205.017 517.633 207.905 520.623 211.616L521.86 213.083C522.139 213.456 522.416 213.852 522.683 214.235L522.97 214.644C523.141 214.894 523.314 215.145 523.488 215.396C524.033 216.182 524.597 216.996 525.089 217.817C525.235 218.089 525.385 218.364 525.535 218.637C526.59 220.573 527.586 222.402 528.192 224.237C528.584 225.297 528.916 226.287 529.18 227.185C529.432 228.089 529.557 228.971 529.663 229.797C529.852 231.438 529.755 232.656 529.375 233.417C529.263 233.626 529.16 233.627 529.131 233.632C528.981 233.642 528.634 233.49 527.993 232.372C527.621 231.724 527.193 230.823 526.719 229.695C526.669 229.58 526.622 229.464 526.575 229.346C526.502 229.163 526.426 228.976 526.337 228.79L525.881 227.83C525.569 227.161 525.236 226.424 524.892 225.64C524.491 224.618 523.946 223.549 523.369 222.416C523.026 221.741 522.671 221.044 522.316 220.3L521.943 219.537L520.599 217.22C520.476 217.008 520.353 216.792 520.229 216.574C519.726 215.688 519.206 214.773 518.569 213.884C515.525 209.102 511.731 204.444 507.283 200.025Z" fill="#FFD542"/>
<path fill-rule="evenodd" clip-rule="evenodd" d="M528.047 204.458C527.84 204.586 527.492 204.56 527.013 204.379C526.326 204.125 525.393 203.576 524.1 202.815L523.105 202.235C521.422 201.276 519.327 200.081 516.565 199.178C513.601 198.207 510.446 197.756 509.334 197.618C510.304 197.061 511.448 196.629 512.603 196.388C513.183 196.259 513.798 196.17 514.434 196.121C515.317 196.053 516.242 196.064 517.175 196.153C520.154 196.443 523.236 197.593 525.421 199.229C527.513 200.788 528.608 202.651 528.279 204.092C528.235 204.268 528.159 204.388 528.047 204.458Z" fill="#FFD542"/>
<path fill-rule="evenodd" clip-rule="evenodd" d="M521.933 186.68C521.569 186.852 521.075 187.011 520.45 187.212C520.032 187.347 519.558 187.499 519.016 187.69C517.671 188.168 515.847 188.884 513.664 190.196C512.422 190.925 511.281 191.705 510.177 192.58C508.928 193.568 507.862 194.551 506.938 195.571L506.982 195.449C507.058 195.228 507.17 194.962 507.357 194.56C507.495 194.253 507.683 193.847 507.929 193.412C508.458 192.43 509.937 189.918 512.267 187.743C513.132 186.896 514.184 186.087 515.397 185.336C516.693 184.606 517.74 184.188 518.685 184.024C518.907 183.972 519.134 183.936 519.371 183.916C519.627 183.893 519.895 183.889 520.179 183.902C520.559 183.901 520.949 183.984 521.411 184.164C521.74 184.283 522.033 184.489 522.26 184.761C522.472 185.011 522.611 185.299 522.675 185.62C522.752 186.056 522.503 186.414 521.933 186.68Z" fill="#FFD542"/>
<path fill-rule="evenodd" clip-rule="evenodd" d="M500.909 182.858L501.08 183.204C501.376 183.797 501.681 184.41 501.892 185.078C503.041 188.279 503.24 192.1 502.469 195.923L502.446 195.753C502.412 195.472 502.361 195.09 502.268 194.65C502.238 194.51 502.212 194.365 502.185 194.215C502.13 193.909 502.073 193.592 501.978 193.252C501.624 191.766 500.802 188.901 499.288 186.465C498.653 185.34 497.819 184.382 497.088 183.594C496.873 183.392 496.684 183.207 496.505 183.02C496.39 182.908 496.271 182.815 496.155 182.725C496.069 182.657 495.982 182.59 495.902 182.517C495.692 182.309 495.458 182.146 495.231 181.989C495.061 181.871 494.9 181.759 494.753 181.631C494.406 181.37 494.07 181.141 493.745 180.919C492.671 180.185 491.743 179.551 491.363 178.475C491.3 178.287 491.304 178.133 491.376 178.01C491.495 177.806 491.806 177.658 492.301 177.568C492.541 177.525 492.81 177.498 493.1 177.486C493.389 177.51 493.735 177.554 494.112 177.617L494.717 177.731C494.851 177.76 494.992 177.813 495.141 177.87C495.207 177.895 495.273 177.92 495.341 177.943L496.391 178.369L496.73 178.57C496.84 178.64 496.959 178.712 497.08 178.785C497.457 179.012 497.847 179.247 498.19 179.575L498.943 180.239C499.105 180.402 499.262 180.587 499.429 180.784C499.493 180.86 499.559 180.937 499.625 181.013C499.998 181.412 500.294 181.884 500.607 182.383C500.706 182.54 500.806 182.699 500.909 182.858Z" fill="#FFD542"/>
<path fill-rule="evenodd" clip-rule="evenodd" d="M508.511 188.085C508.005 189.653 507.423 191.256 506.808 192.952C506.542 193.684 506.27 194.433 506 195.192C506.006 195.128 506.013 195.061 506.02 194.992C506.1 194.193 506.239 193.024 506.434 191.515C506.494 191.044 506.558 190.547 506.626 190.027C506.969 187.38 507.396 184.086 507.564 180.856C507.676 178.913 507.659 176.99 507.515 175.295C507.334 173.494 507.022 171.992 506.587 170.828C506.134 169.562 505.572 168.544 505.12 167.725L504.953 167.391C504.887 167.28 504.83 167.179 504.776 167.076C504.675 166.884 504.582 166.679 504.493 166.448C504.304 166.042 504.192 165.642 504.158 165.251C504.143 165.065 504.181 164.932 504.273 164.846C504.333 164.791 504.45 164.725 504.67 164.71C504.879 164.695 505.182 164.725 505.621 164.849C506.359 165.1 507.061 165.524 507.701 166.11C508.339 166.671 509.239 167.674 509.919 169.279C510.532 170.706 510.901 172.481 510.985 174.412C511.077 176.246 510.901 178.337 510.448 180.803C510.03 183.008 509.396 185.39 508.511 188.085Z" fill="#FFD542"/>
<path fill-rule="evenodd" clip-rule="evenodd" d="M499.518 206.713C499.357 206.825 499.202 206.968 499.051 207.107C498.969 207.182 498.886 207.258 498.8 207.332C496.695 209.173 494.502 211.963 492.783 214.988L492.105 216.161L491.474 217.372C491.207 217.852 490.97 218.355 490.742 218.842C490.593 219.157 490.447 219.47 490.293 219.775C489.661 221.194 488.943 222.84 488.384 224.346C488.086 225.106 487.817 225.837 487.578 226.482C486.945 228.198 486.444 229.553 485.92 230.138C485.873 230.187 485.85 230.192 485.85 230.192C485.855 230.191 485.724 230.089 485.765 229.044C485.768 228.591 485.867 228.038 485.992 227.338C486.021 227.178 486.05 227.011 486.081 226.837C486.303 225.917 486.579 224.822 487.014 223.604C488.164 220.352 489.667 217.38 491.611 214.518C493.007 212.448 494.428 210.739 495.954 209.291C497.506 207.818 499.033 206.711 500.577 205.944L499.518 206.713Z" fill="#FFD542"/>
<path fill-rule="evenodd" clip-rule="evenodd" d="M96.2417 168.409C100.294 168.583 105.202 169.851 110.434 172.075C112.985 173.153 115.839 174.526 119.162 176.274C120.236 176.834 121.313 177.411 122.453 178.023C124.178 178.947 125.95 179.898 127.809 180.836C126.753 180.538 125.158 180.064 123.219 179.416C121.916 178.991 120.447 178.487 118.891 177.953C116.122 177.002 112.983 175.925 109.803 174.958C107.295 174.186 104.798 173.525 102.382 172.993C99.9558 172.477 97.6717 172.119 95.5919 171.927C94.0089 171.772 92.5722 171.727 91.3048 171.687C89.3025 171.625 87.7211 171.575 86.7492 171.118C86.615 171.049 86.5461 170.967 86.5484 170.879C86.5516 170.776 86.668 170.385 88.0433 169.708C88.8521 169.324 90.8943 168.53 94.1471 168.399C94.7971 168.373 95.495 168.373 96.2417 168.409Z" fill="#FF0000"/>
<path fill-rule="evenodd" clip-rule="evenodd" d="M124.814 171.792C124.901 171.981 124.988 172.17 125.079 172.357C126.149 174.8 126.807 177.22 127.116 179.882L127.045 179.633C127.023 179.561 127.003 179.486 126.982 179.409C126.941 179.259 126.899 179.104 126.841 178.952L126.226 177.404C126.147 177.22 126.058 177.051 125.964 176.873C125.911 176.774 125.858 176.673 125.806 176.569C124.56 174.102 122.599 171.692 120.424 169.959L119.571 169.261L118.244 168.317L116.903 167.474L116.571 167.291C115.479 166.691 114.448 166.125 113.473 165.697C113.161 165.544 112.857 165.4 112.565 165.261C110.932 164.487 109.643 163.875 109.336 162.761C109.307 162.642 109.313 162.535 109.355 162.448C109.418 162.313 109.627 162.063 110.304 161.821C110.381 161.793 110.464 161.766 110.554 161.738C110.683 161.699 110.822 161.661 110.97 161.626C111.094 161.605 111.226 161.594 111.367 161.582L111.419 161.578C111.74 161.553 112.101 161.541 112.494 161.541C113.298 161.62 114.178 161.743 115.13 162.105C117.579 162.998 119.806 164.638 121.749 166.981C122.267 167.559 122.744 168.257 123.25 168.995L123.478 169.329L124.298 170.753C124.482 171.07 124.643 171.42 124.814 171.792Z" fill="#FF0000"/>
<path fill-rule="evenodd" clip-rule="evenodd" d="M139.85 224.76C139.942 224.213 140.046 223.593 140.189 222.918C140.272 222.53 140.327 222.116 140.385 221.678C140.428 221.358 140.472 221.027 140.529 220.687C140.653 220.023 140.722 219.302 140.795 218.539L140.844 218.033C141.317 213.006 141.22 208.145 140.545 203.171C140.092 199.68 139.446 196.496 138.572 193.436C137.593 189.991 136.447 186.948 135.086 184.181L135.363 184.534C135.483 184.688 135.611 184.852 135.742 185.03L136.444 186.073C136.844 186.666 137.298 187.338 137.723 188.112C139.14 190.537 141.734 195.545 143.194 201.872L143.67 203.969L144.196 207.174L144.507 210.402L144.583 213.582L144.506 215.114L144.414 216.644C144.367 217.139 144.293 217.638 144.221 218.121L144.154 218.576C144.122 218.763 144.093 218.953 144.065 219.141C144 219.575 143.938 219.985 143.829 220.387C143.683 220.984 143.534 221.552 143.386 222.081C143.135 223.095 142.73 224 142.372 224.799L142.199 225.169C142.046 225.489 141.903 225.792 141.726 226.058C141.506 226.393 141.286 226.696 141.075 226.956C140.651 227.478 140.247 227.842 139.874 228.038C139.68 228.133 139.611 228.073 139.588 228.054C139.477 227.959 139.33 227.585 139.592 226.146C139.683 225.757 139.761 225.295 139.85 224.76Z" fill="#FF0000"/>
<path fill-rule="evenodd" clip-rule="evenodd" d="M135.283 181.025L135.329 181.055C135.552 181.205 135.804 181.372 136.081 181.555C136.843 182.059 137.791 182.685 138.845 183.45C142.155 186.017 145.633 188.905 148.623 192.616L149.86 194.083C150.139 194.456 150.416 194.852 150.683 195.235L150.97 195.644C151.141 195.894 151.315 196.145 151.488 196.396C152.033 197.182 152.597 197.996 153.089 198.817C153.236 199.089 153.385 199.364 153.535 199.637C154.59 201.573 155.586 203.402 156.192 205.237C156.584 206.297 156.916 207.287 157.18 208.185C157.432 209.089 157.557 209.971 157.663 210.797C157.852 212.438 157.755 213.656 157.375 214.417C157.263 214.626 157.16 214.627 157.132 214.632C156.981 214.642 156.634 214.49 155.993 213.372C155.621 212.724 155.193 211.823 154.719 210.695C154.669 210.58 154.622 210.464 154.575 210.346C154.502 210.163 154.426 209.976 154.337 209.79L153.881 208.83C153.569 208.161 153.236 207.424 152.892 206.64C152.491 205.618 151.946 204.549 151.369 203.416C151.026 202.741 150.671 202.044 150.316 201.3L149.943 200.537L148.599 198.22C148.476 198.008 148.353 197.792 148.229 197.574C147.726 196.688 147.206 195.773 146.569 194.884C143.525 190.102 139.731 185.444 135.283 181.025Z" fill="#FF0000"/>
<path fill-rule="evenodd" clip-rule="evenodd" d="M156.047 185.458C155.84 185.586 155.492 185.56 155.013 185.379C154.327 185.125 153.393 184.576 152.1 183.815L151.106 183.235C149.422 182.276 147.327 181.081 144.565 180.178C141.601 179.207 138.446 178.756 137.334 178.618C138.304 178.061 139.448 177.629 140.603 177.388C141.183 177.259 141.798 177.17 142.434 177.121C143.317 177.053 144.242 177.064 145.175 177.153C148.154 177.443 151.236 178.593 153.421 180.229C155.513 181.788 156.608 183.651 156.279 185.092C156.235 185.268 156.159 185.388 156.047 185.458Z" fill="#FF0000"/>
<path fill-rule="evenodd" clip-rule="evenodd" d="M149.933 167.68C149.569 167.852 149.075 168.011 148.45 168.212C148.032 168.347 147.558 168.499 147.016 168.69C145.671 169.168 143.847 169.884 141.664 171.196C140.422 171.925 139.281 172.705 138.178 173.58C136.928 174.568 135.863 175.551 134.938 176.571L134.982 176.449C135.058 176.228 135.17 175.962 135.357 175.56C135.495 175.253 135.683 174.847 135.929 174.412C136.458 173.43 137.937 170.918 140.267 168.743C141.132 167.896 142.184 167.087 143.397 166.336C144.694 165.606 145.74 165.188 146.685 165.024C146.907 164.972 147.134 164.936 147.371 164.916C147.627 164.893 147.895 164.889 148.179 164.902C148.559 164.901 148.949 164.984 149.411 165.164C149.74 165.283 150.033 165.489 150.26 165.761C150.472 166.011 150.611 166.299 150.675 166.62C150.753 167.056 150.503 167.414 149.933 167.68Z" fill="#FF0000"/>
<path fill-rule="evenodd" clip-rule="evenodd" d="M128.909 163.858L129.08 164.204C129.376 164.797 129.681 165.41 129.892 166.078C131.041 169.279 131.24 173.1 130.469 176.923L130.446 176.753C130.412 176.472 130.361 176.09 130.268 175.65C130.239 175.51 130.212 175.365 130.185 175.215C130.13 174.909 130.073 174.592 129.978 174.252C129.624 172.766 128.802 169.901 127.288 167.465C126.653 166.34 125.819 165.382 125.088 164.594C124.873 164.392 124.684 164.207 124.505 164.02C124.39 163.908 124.271 163.815 124.155 163.725C124.069 163.657 123.982 163.59 123.902 163.517C123.692 163.309 123.458 163.146 123.231 162.989C123.061 162.871 122.9 162.759 122.754 162.631C122.406 162.37 122.07 162.141 121.746 161.919C120.671 161.185 119.743 160.551 119.363 159.475C119.3 159.287 119.304 159.133 119.376 159.01C119.495 158.806 119.806 158.658 120.301 158.568C120.542 158.525 120.81 158.498 121.1 158.486C121.39 158.51 121.735 158.554 122.112 158.617L122.717 158.731C122.851 158.76 122.992 158.813 123.141 158.87C123.207 158.895 123.273 158.92 123.341 158.943L124.392 159.369L124.73 159.57C124.84 159.64 124.959 159.712 125.08 159.785C125.457 160.012 125.847 160.247 126.19 160.575L126.943 161.239C127.105 161.402 127.262 161.587 127.429 161.784C127.493 161.86 127.559 161.937 127.625 162.013C127.998 162.412 128.294 162.884 128.607 163.383C128.706 163.54 128.806 163.699 128.909 163.858Z" fill="#FF0000"/>
<path fill-rule="evenodd" clip-rule="evenodd" d="M136.511 169.085C136.005 170.653 135.423 172.256 134.808 173.952C134.542 174.684 134.27 175.433 134 176.192C134.006 176.128 134.013 176.061 134.02 175.992C134.1 175.193 134.239 174.024 134.435 172.515C134.494 172.044 134.558 171.547 134.626 171.027C134.969 168.38 135.396 165.086 135.565 161.856C135.676 159.913 135.659 157.99 135.515 156.295C135.334 154.494 135.022 152.992 134.587 151.828C134.135 150.562 133.572 149.544 133.12 148.725L132.953 148.391C132.887 148.28 132.83 148.179 132.776 148.076C132.675 147.884 132.582 147.679 132.493 147.448C132.304 147.042 132.192 146.642 132.158 146.251C132.143 146.065 132.181 145.932 132.274 145.846C132.334 145.791 132.45 145.725 132.67 145.71C132.879 145.695 133.182 145.725 133.621 145.849C134.359 146.1 135.062 146.524 135.701 147.11C136.339 147.671 137.239 148.674 137.92 150.279C138.532 151.706 138.901 153.481 138.986 155.412C139.077 157.246 138.901 159.337 138.448 161.803C138.03 164.008 137.396 166.39 136.511 169.085Z" fill="#FF0000"/>
<path fill-rule="evenodd" clip-rule="evenodd" d="M127.518 187.713C127.357 187.825 127.202 187.968 127.051 188.107C126.969 188.182 126.886 188.258 126.8 188.332C124.695 190.173 122.502 192.963 120.783 195.988L120.105 197.161L119.474 198.372C119.207 198.852 118.97 199.355 118.742 199.842C118.594 200.157 118.447 200.47 118.293 200.775C117.661 202.194 116.944 203.84 116.384 205.346C116.087 206.106 115.817 206.837 115.578 207.482C114.945 209.198 114.445 210.553 113.92 211.138C113.873 211.187 113.85 211.192 113.85 211.192C113.855 211.191 113.724 211.089 113.765 210.044C113.768 209.591 113.867 209.038 113.992 208.338C114.021 208.178 114.05 208.011 114.081 207.837C114.303 206.917 114.579 205.822 115.014 204.604C116.164 201.352 117.667 198.38 119.611 195.518C121.007 193.448 122.428 191.739 123.954 190.291C125.507 188.818 127.033 187.711 128.577 186.944L127.518 187.713Z" fill="#FF0000"/>
<path fill-rule="evenodd" clip-rule="evenodd" d="M472.169 99.8866C467.147 100.103 461.064 101.674 454.578 104.431C451.417 105.767 447.88 107.469 443.762 109.635C442.43 110.329 441.095 111.044 439.682 111.803C437.544 112.949 435.348 114.127 433.043 115.29C434.353 114.92 436.33 114.333 438.733 113.529C440.348 113.002 442.169 112.377 444.097 111.716C447.529 110.538 451.419 109.203 455.361 108.004C458.47 107.047 461.565 106.228 464.559 105.569C467.566 104.929 470.397 104.485 472.975 104.247C474.937 104.055 476.717 103.999 478.288 103.95C480.77 103.873 482.73 103.811 483.934 103.245C484.101 103.159 484.186 103.058 484.183 102.949C484.179 102.82 484.035 102.336 482.33 101.497C481.328 101.021 478.797 100.037 474.765 99.8749C473.96 99.8426 473.095 99.8427 472.169 99.8866Z" fill="#BF47EA"/>
<path fill-rule="evenodd" clip-rule="evenodd" d="M436.756 104.08C436.649 104.314 436.54 104.549 436.428 104.78C435.101 107.808 434.286 110.807 433.902 114.107L433.99 113.799C434.018 113.709 434.043 113.616 434.069 113.52C434.12 113.335 434.172 113.143 434.244 112.954L435.006 111.035C435.103 110.808 435.214 110.599 435.331 110.377C435.396 110.254 435.462 110.13 435.526 110.001C437.07 106.943 439.502 103.956 442.197 101.808L443.254 100.943L444.899 99.7731L446.561 98.7276L446.973 98.5014C448.326 97.758 449.604 97.0561 450.812 96.5255C451.199 96.3357 451.576 96.1569 451.938 95.9852C453.961 95.0259 455.559 94.2678 455.94 92.887C455.975 92.7388 455.968 92.6065 455.917 92.499C455.838 92.3312 455.58 92.0214 454.741 91.7213C454.645 91.6872 454.542 91.6529 454.43 91.6191C454.27 91.5703 454.099 91.5239 453.915 91.4803C453.761 91.4538 453.597 91.4403 453.422 91.4257L453.358 91.4203C452.961 91.3896 452.512 91.3744 452.026 91.3751C451.029 91.473 449.939 91.6254 448.759 92.074C445.723 93.1802 442.963 95.2132 440.555 98.1172C439.913 98.8334 439.321 99.6981 438.695 100.613L438.411 101.027L437.395 102.792C437.167 103.185 436.967 103.619 436.756 104.08Z" fill="#BF47EA"/>
<path fill-rule="evenodd" clip-rule="evenodd" d="M418.12 169.73C418.006 169.052 417.877 168.284 417.7 167.447C417.597 166.967 417.529 166.454 417.457 165.91C417.404 165.513 417.349 165.103 417.278 164.682C417.125 163.859 417.04 162.965 416.949 162.019L416.888 161.392C416.301 155.161 416.422 149.137 417.258 142.972C417.82 138.646 418.62 134.699 419.704 130.907C420.918 126.637 422.337 122.864 424.024 119.435L423.682 119.873C423.533 120.063 423.373 120.266 423.212 120.487L422.341 121.78C421.845 122.515 421.283 123.349 420.757 124.307C419 127.313 415.785 133.521 413.975 141.362L413.385 143.961L412.733 147.934L412.348 151.934L412.254 155.875L412.349 157.774L412.463 159.671C412.522 160.285 412.614 160.903 412.703 161.502L412.786 162.065C412.825 162.297 412.861 162.532 412.896 162.766C412.977 163.304 413.053 163.812 413.188 164.311C413.37 165.05 413.554 165.754 413.738 166.409C414.048 167.666 414.551 168.788 414.995 169.778L415.209 170.236C415.398 170.634 415.576 171.01 415.795 171.338C416.068 171.754 416.34 172.129 416.602 172.452C417.127 173.098 417.628 173.549 418.091 173.793C418.331 173.911 418.416 173.836 418.444 173.813C418.582 173.695 418.765 173.231 418.44 171.448C418.327 170.965 418.231 170.393 418.12 169.73Z" fill="#BF47EA"/>
<path fill-rule="evenodd" clip-rule="evenodd" d="M423.78 115.524L423.723 115.561C423.448 115.747 423.134 115.954 422.791 116.181C421.847 116.805 420.672 117.581 419.365 118.53C415.263 121.71 410.952 125.291 407.247 129.89L405.713 131.709C405.368 132.17 405.025 132.661 404.693 133.136L404.338 133.643C404.125 133.953 403.91 134.264 403.695 134.574C403.019 135.55 402.321 136.558 401.711 137.576C401.529 137.912 401.344 138.253 401.159 138.592C399.851 140.992 398.616 143.258 397.865 145.533C397.379 146.846 396.968 148.073 396.64 149.187C396.328 150.307 396.174 151.4 396.042 152.424C395.808 154.458 395.928 155.968 396.399 156.91C396.537 157.169 396.666 157.17 396.701 157.177C396.887 157.19 397.317 157.001 398.112 155.615C398.573 154.812 399.104 153.696 399.69 152.297C399.753 152.156 399.81 152.011 399.87 151.864C399.96 151.639 400.053 151.407 400.164 151.176L400.73 149.986C401.116 149.157 401.529 148.243 401.955 147.271C402.453 146.005 403.128 144.679 403.842 143.276C404.268 142.44 404.709 141.575 405.148 140.653L405.61 139.708L407.276 136.836C407.428 136.573 407.581 136.305 407.734 136.034C408.358 134.937 409.002 133.803 409.792 132.701C413.565 126.775 418.267 121.001 423.78 115.524Z" fill="#BF47EA"/>
<path fill-rule="evenodd" clip-rule="evenodd" d="M398.045 121.018C398.302 121.177 398.732 121.144 399.326 120.92C400.177 120.606 401.335 119.925 402.936 118.982L404.169 118.263C406.256 117.074 408.853 115.593 412.276 114.474C415.949 113.271 419.86 112.712 421.238 112.54C420.036 111.85 418.618 111.315 417.187 111.016C416.468 110.856 415.705 110.745 414.917 110.685C413.822 110.601 412.677 110.614 411.519 110.725C407.828 111.084 404.007 112.509 401.3 114.537C398.707 116.469 397.35 118.779 397.758 120.564C397.811 120.782 397.906 120.932 398.045 121.018Z" fill="#BF47EA"/>
<path fill-rule="evenodd" clip-rule="evenodd" d="M405.623 98.9833C406.074 99.1964 406.686 99.3934 407.461 99.6432C407.979 99.8099 408.567 99.9991 409.238 100.235C410.906 100.828 413.166 101.716 415.872 103.341C417.411 104.245 418.825 105.212 420.193 106.297C421.741 107.52 423.062 108.739 424.208 110.004L424.154 109.852C424.059 109.578 423.92 109.249 423.688 108.751C423.517 108.369 423.284 107.866 422.98 107.327C422.324 106.11 420.491 102.997 417.603 100.3C416.531 99.2509 415.227 98.2484 413.724 97.3174C412.117 96.4134 410.82 95.8952 409.648 95.691C409.374 95.6272 409.092 95.5826 408.798 95.5571C408.48 95.5294 408.148 95.5237 407.796 95.5399C407.325 95.5394 406.842 95.6425 406.27 95.8649C405.862 96.0124 405.499 96.268 405.218 96.6056C404.955 96.9149 404.782 97.2723 404.703 97.6694C404.607 98.2105 404.916 98.6539 405.623 98.9833Z" fill="#BF47EA"/>
<path fill-rule="evenodd" clip-rule="evenodd" d="M431.68 94.2462L431.469 94.6752C431.102 95.41 430.723 96.1698 430.462 96.9976C429.038 100.966 428.791 105.702 429.747 110.44L429.776 110.229C429.818 109.88 429.881 109.407 429.996 108.861C430.033 108.688 430.065 108.509 430.099 108.323C430.167 107.943 430.238 107.551 430.355 107.129C430.794 105.288 431.813 101.736 433.69 98.7167C434.477 97.3228 435.51 96.1354 436.416 95.1588C436.683 94.9084 436.917 94.6785 437.139 94.4477C437.282 94.309 437.429 94.1934 437.572 94.0817C437.68 93.9974 437.787 93.9142 437.887 93.8243C438.147 93.5655 438.437 93.3639 438.718 93.1692C438.929 93.0226 439.128 92.8842 439.31 92.7254C439.74 92.4025 440.157 92.118 440.559 91.843C441.891 90.9329 443.041 90.1472 443.512 88.8146C443.591 88.5806 443.586 88.3907 443.496 88.2373C443.349 87.9851 442.963 87.8012 442.35 87.6897C442.051 87.6369 441.718 87.6028 441.359 87.5886C441 87.6177 440.572 87.6722 440.105 87.7506L439.355 87.8918C439.189 87.9284 439.014 87.9941 438.829 88.064C438.748 88.0947 438.666 88.1257 438.582 88.1551L437.28 88.6822L436.86 88.9316C436.723 89.0188 436.576 89.1075 436.427 89.198C435.959 89.4796 435.476 89.7712 435.05 90.1779L434.117 90.9999C433.916 91.2024 433.722 91.4322 433.515 91.6753C433.435 91.7697 433.354 91.8649 433.272 91.96C432.809 92.4547 432.443 93.0389 432.054 93.6575C431.932 93.852 431.809 94.0491 431.68 94.2462Z" fill="#BF47EA"/>
<path fill-rule="evenodd" clip-rule="evenodd" d="M422.258 100.725C422.886 102.669 423.607 104.655 424.369 106.757C424.699 107.664 425.036 108.592 425.371 109.534C425.363 109.454 425.354 109.371 425.346 109.285C425.247 108.296 425.074 106.846 424.832 104.976C424.758 104.392 424.679 103.776 424.595 103.132C424.17 99.8516 423.64 95.7685 423.431 91.7649C423.293 89.357 423.314 86.9735 423.493 84.873C423.717 82.6403 424.104 80.7786 424.643 79.3362C425.204 77.7669 425.901 76.5047 426.461 75.4905L426.668 75.0759C426.75 74.9392 426.821 74.813 426.888 74.6855C427.013 74.4479 427.128 74.1938 427.239 73.9078C427.473 73.404 427.611 72.9081 427.654 72.4232C427.672 72.1932 427.625 72.0286 427.51 71.9223C427.436 71.8531 427.292 71.7722 427.019 71.7529C426.76 71.7345 426.384 71.7714 425.841 71.926C424.925 72.2363 424.055 72.7627 423.262 73.4888C422.472 74.1839 421.356 75.4274 420.513 77.4158C419.753 79.1854 419.296 81.3852 419.191 83.7783C419.078 86.0517 419.296 88.6423 419.857 91.6989C420.376 94.4322 421.161 97.3851 422.258 100.725Z" fill="#BF47EA"/>
<path fill-rule="evenodd" clip-rule="evenodd" d="M433.404 123.813C433.604 123.952 433.797 124.129 433.983 124.301C434.085 124.394 434.187 124.489 434.294 124.58C436.904 126.862 439.622 130.32 441.752 134.069L442.592 135.523L443.375 137.024C443.706 137.618 443.999 138.242 444.282 138.846C444.466 139.236 444.648 139.624 444.839 140.002C445.622 141.761 446.511 143.801 447.204 145.668C447.573 146.61 447.908 147.516 448.203 148.316C448.988 150.442 449.608 152.121 450.258 152.847C450.316 152.907 450.345 152.914 450.345 152.914C450.339 152.912 450.502 152.786 450.45 151.491C450.447 150.929 450.324 150.243 450.169 149.376C450.134 149.177 450.097 148.971 450.059 148.755C449.784 147.615 449.442 146.257 448.902 144.748C447.477 140.718 445.614 137.034 443.204 133.486C441.474 130.922 439.713 128.803 437.822 127.008C435.898 125.182 434.006 123.811 432.091 122.86L433.404 123.813Z" fill="#BF47EA"/>
<path fill-rule="evenodd" clip-rule="evenodd" d="M565.336 132.68C559.899 130.27 552.627 128.739 544.304 128.253C540.251 128.008 535.607 127.953 530.104 128.086C528.329 128.121 526.537 128.178 524.641 128.239C521.773 128.33 518.826 128.425 515.772 128.446C517.354 128.742 519.759 129.159 522.727 129.57C524.716 129.86 526.975 130.155 529.366 130.467C533.623 131.022 538.447 131.651 543.255 132.451C547.053 133.071 550.764 133.829 554.284 134.704C557.807 135.606 561.041 136.623 563.899 137.726C566.079 138.553 567.996 139.43 569.687 140.203C572.358 141.425 574.468 142.39 576.042 142.422C576.264 142.418 576.407 142.357 576.461 142.239C576.525 142.101 576.626 141.512 575.261 139.727C574.448 138.695 572.282 136.323 568.094 134.032C567.257 133.575 566.34 133.12 565.336 132.68Z" fill="#F10D0D"/>
<path fill-rule="evenodd" clip-rule="evenodd" d="M525.598 118.515C525.361 118.707 525.123 118.899 524.882 119.085C521.885 121.597 519.445 124.348 517.304 127.644L517.559 127.363C517.636 127.283 517.711 127.198 517.789 127.11C517.94 126.939 518.097 126.764 518.272 126.602L520.088 124.968C520.311 124.779 520.538 124.615 520.779 124.441C520.912 124.345 521.047 124.248 521.183 124.145C524.427 121.715 528.573 119.828 532.559 118.967L534.134 118.606L536.492 118.23L538.803 117.995L539.358 117.972C541.183 117.895 542.907 117.823 544.466 117.895C544.975 117.897 545.469 117.906 545.943 117.914C548.592 117.96 550.684 117.997 551.814 116.733C551.928 116.595 551.99 116.45 551.992 116.31C551.997 116.09 551.886 115.626 551.154 114.867C551.071 114.781 550.979 114.69 550.879 114.596C550.735 114.46 550.578 114.321 550.406 114.178C550.256 114.069 550.09 113.968 549.913 113.861L549.847 113.822C549.442 113.58 548.975 113.329 548.459 113.074C547.351 112.654 546.115 112.242 544.629 112.098C540.83 111.675 536.837 112.38 532.758 114.192C531.701 114.614 530.619 115.219 529.474 115.86L528.957 116.149L526.952 117.487C526.504 117.783 526.064 118.139 525.598 118.515Z" fill="#F10D0D"/>
<path fill-rule="evenodd" clip-rule="evenodd" d="M471.346 178.306C471.582 177.528 471.85 176.646 472.101 175.667C472.245 175.103 472.442 174.523 472.651 173.909C472.803 173.461 472.961 172.997 473.107 172.514C473.378 171.561 473.756 170.569 474.157 169.519L474.423 168.821C477.075 161.909 480.369 155.587 484.494 149.493C487.363 145.202 490.286 141.439 493.427 137.99C496.957 134.102 500.444 130.849 504.034 128.101L503.441 128.385C503.183 128.508 502.908 128.64 502.62 128.789L501.018 129.701C500.106 130.221 499.073 130.809 498.011 131.548C494.569 133.81 487.9 138.701 481.86 146.06L479.869 148.506L477.091 152.374L474.581 156.412L472.41 160.539L471.513 162.602L470.637 164.672C470.376 165.353 470.149 166.057 469.929 166.738L469.721 167.379C469.641 167.646 469.555 167.914 469.469 168.18C469.272 168.793 469.086 169.372 468.967 169.971C468.771 170.849 468.597 171.693 468.447 172.484C468.115 173.98 468.059 175.433 468.009 176.715L467.995 177.314C467.986 177.834 467.978 178.326 468.037 178.789C468.108 179.374 468.199 179.914 468.307 180.394C468.524 181.355 468.818 182.096 469.181 182.598C469.373 182.848 469.503 182.814 469.545 182.804C469.753 182.752 470.191 182.356 470.783 180.296C470.917 179.724 471.116 179.067 471.346 178.306Z" fill="#F10D0D"/>
<path fill-rule="evenodd" clip-rule="evenodd" d="M505.831 123.827L505.751 123.836C505.361 123.889 504.92 123.944 504.437 124.004C503.109 124.169 501.456 124.374 499.572 124.693C493.552 125.908 487.102 127.438 480.757 130.366L478.176 131.487C477.568 131.795 476.946 132.135 476.344 132.464L475.702 132.815C475.314 133.032 474.923 133.249 474.532 133.464C473.303 134.143 472.032 134.845 470.852 135.603C470.482 135.864 470.106 136.128 469.732 136.39C467.085 138.246 464.585 139.999 462.594 142.015C461.388 143.152 460.308 144.237 459.375 145.245C458.456 146.269 457.717 147.346 457.04 148.362C455.723 150.394 455.057 152.058 455.061 153.304C455.071 153.652 455.207 153.72 455.24 153.746C455.431 153.857 455.986 153.883 457.557 152.832C458.467 152.223 459.617 151.319 460.974 150.144C461.114 150.027 461.251 149.905 461.391 149.78C461.605 149.588 461.826 149.392 462.064 149.205L463.29 148.241C464.135 147.566 465.052 146.814 466.015 146.008C467.208 144.927 468.62 143.877 470.115 142.765C471.006 142.102 471.927 141.417 472.877 140.671L473.864 139.911L477.139 137.743C477.438 137.544 477.74 137.341 478.045 137.134C479.283 136.299 480.562 135.435 481.978 134.683C489.092 130.384 497.109 126.735 505.831 123.827Z" fill="#F10D0D"/>
<path fill-rule="evenodd" clip-rule="evenodd" d="M475.666 116.126C475.855 116.43 476.329 116.622 477.076 116.696C478.143 116.81 479.728 116.697 481.921 116.539L483.606 116.425C486.442 116.261 489.973 116.056 494.189 116.669C498.715 117.324 503.154 118.786 504.704 119.329C503.793 117.966 502.571 116.653 501.212 115.584C500.533 115.037 499.783 114.519 498.979 114.04C497.863 113.376 496.642 112.788 495.357 112.298C491.256 110.739 486.457 110.241 482.522 110.967C478.758 111.653 476.106 113.388 475.601 115.495C475.543 115.754 475.564 115.962 475.666 116.126Z" fill="#F10D0D"/>
<path fill-rule="evenodd" clip-rule="evenodd" d="M495.277 96.7534C495.644 97.2166 496.189 97.747 496.879 98.4188C497.34 98.8679 497.864 99.3772 498.452 99.9803C499.908 101.484 501.837 103.613 503.85 106.758C505.007 108.526 505.997 110.293 506.877 112.161C507.876 114.272 508.635 116.258 509.186 118.201L509.207 118.012C509.251 117.671 509.277 117.249 509.293 116.6C509.312 116.106 509.329 115.449 509.29 114.718C509.234 113.083 508.928 108.82 507.284 104.445C506.698 102.769 505.843 101.021 504.739 99.2447C503.511 97.4422 502.409 96.2114 501.274 95.3792C501.017 95.1674 500.741 94.9722 500.444 94.7907C500.121 94.5943 499.772 94.4139 499.39 94.2459C498.892 93.9979 498.326 93.8535 497.602 93.7881C497.092 93.7303 496.573 93.8106 496.098 94.0206C495.657 94.2104 495.285 94.4981 494.992 94.8774C494.607 95.4006 494.701 96.033 495.277 96.7534Z" fill="#F10D0D"/>
<path fill-rule="evenodd" clip-rule="evenodd" d="M525.385 105.425L524.936 105.769C524.161 106.355 523.361 106.962 522.648 107.702C519.053 111.159 516.304 116.049 514.827 121.573L514.969 121.365C515.196 121.018 515.511 120.549 515.92 120.031C516.05 119.867 516.179 119.694 516.312 119.514C516.584 119.148 516.865 118.769 517.211 118.384C518.644 116.663 521.59 113.434 525.166 111.22C526.733 110.156 528.452 109.44 529.925 108.881C530.34 108.756 530.708 108.635 531.065 108.508C531.29 108.436 531.507 108.391 531.717 108.347C531.875 108.315 532.032 108.283 532.185 108.24C532.597 108.102 533.011 108.041 533.41 107.982C533.711 107.938 533.996 107.896 534.271 107.823C534.897 107.707 535.488 107.624 536.059 107.544C537.949 107.279 539.581 107.051 540.78 105.886C540.987 105.679 541.081 105.475 541.066 105.266C541.043 104.921 540.731 104.523 540.14 104.083C539.851 103.87 539.516 103.659 539.143 103.455C538.747 103.298 538.264 103.13 537.728 102.968L536.859 102.724C536.663 102.675 536.444 102.653 536.212 102.63C536.109 102.62 536.006 102.609 535.902 102.596L534.244 102.471L533.668 102.514C533.478 102.535 533.275 102.552 533.069 102.569C532.426 102.622 531.76 102.677 531.095 102.884L529.674 103.265C529.355 103.374 529.028 103.516 528.681 103.665C528.547 103.723 528.411 103.781 528.273 103.839C527.524 104.12 526.828 104.547 526.091 104.998C525.86 105.14 525.625 105.284 525.385 105.425Z" fill="#F10D0D"/>
<path fill-rule="evenodd" clip-rule="evenodd" d="M511.994 107.342C511.638 109.732 511.359 112.215 511.062 114.844C510.935 115.979 510.804 117.139 510.664 118.314C510.698 118.225 510.733 118.133 510.768 118.037C511.184 116.936 511.763 115.309 512.488 113.2C512.717 112.542 512.957 111.847 513.206 111.121C514.48 107.42 516.064 102.814 517.946 98.461C519.065 95.8361 520.34 93.3209 521.633 91.1884C523.044 88.9396 524.432 87.1696 525.762 85.9243C527.181 84.5556 528.583 83.5842 529.71 82.8036L530.146 82.4727C530.305 82.3707 530.447 82.2745 530.585 82.1744C530.842 81.9884 531.097 81.7794 531.365 81.5346C531.878 81.1235 532.286 80.6707 532.586 80.1791C532.726 79.9449 532.762 79.7458 532.697 79.5729C532.654 79.4605 532.544 79.299 532.265 79.1351C532 78.9794 531.582 78.821 530.925 78.6993C529.792 78.5471 528.593 78.6478 527.37 79.0006C526.168 79.3224 524.332 80.0541 522.393 81.7182C520.658 83.1948 519.018 85.2863 517.649 87.7677C516.334 90.1179 515.204 92.9781 514.193 96.5129C513.306 99.6824 512.587 103.225 511.994 107.342Z" fill="#F10D0D"/>
<path fill-rule="evenodd" clip-rule="evenodd" d="M511.676 137.67C511.814 137.922 511.925 138.212 512.033 138.492C512.091 138.644 512.151 138.798 512.216 138.951C513.783 142.74 514.847 147.834 515.134 152.927L515.261 154.91L515.302 156.912C515.34 157.716 515.322 158.531 515.306 159.32C515.295 159.83 515.284 160.337 515.288 160.838C515.194 163.114 515.064 165.743 514.818 168.086C514.714 169.279 514.592 170.415 514.485 171.417C514.2 174.084 513.975 176.189 514.282 177.3C514.312 177.395 514.339 177.417 514.34 177.417C514.334 177.411 514.573 177.363 515.199 175.964C515.49 175.366 515.721 174.576 516.012 173.575C516.079 173.345 516.148 173.107 516.222 172.858C516.529 171.505 516.88 169.887 517.101 168.004C517.709 162.983 517.669 158.1 516.98 153.073C516.493 149.445 515.741 146.274 514.679 143.378C513.599 140.431 512.315 137.984 510.785 135.97L511.676 137.67Z" fill="#F10D0D"/>
<defs>
<linearGradient id="paint0_linear" x1="64.7982" y1="164.244" x2="312.619" y2="265.421" gradientUnits="userSpaceOnUse">
<stop stop-color="#0A1431"/>
<stop offset="1" stop-color="#23509E"/>
</linearGradient>
<linearGradient id="paint1_linear" x1="213.339" y1="333.101" x2="345.233" y2="320.395" gradientUnits="userSpaceOnUse">
<stop stop-color="#0A1431"/>
<stop offset="1" stop-color="#23509E"/>
</linearGradient>
<clipPath id="clip0">
<rect width="114" height="59" fill="white" transform="translate(208.263 156.999) rotate(16)"/>
</clipPath>
</defs>
</svg>
