<svg width="1433" height="1108" viewBox="0 0 1433 1108" fill="none" xmlns="http://www.w3.org/2000/svg">
<path d="M555.86 5.65469C810.448 -26.864 1206.46 85.613 1231.19 221.462C1250.8 329.157 1078.6 402.763 1095.54 540.555C1111.98 674.09 1283.02 680.237 1279.61 775.69C1274.31 924.819 818.524 1169.25 531.353 1092.93C441.203 1068.96 374.359 945.655 232.86 846.155C28.5578 680.431 -23.8023 596.655 9.08342 431.131C47.4616 237.961 296.336 38.8386 555.86 5.65469Z" fill="#F8F9FB" fill-opacity="0.65"/>
<path d="M1178.9 577.842C1218.22 663.848 1341.98 707.81 1393.45 676.249C1481.55 622.255 1407.34 316.734 1314.92 317C1251.64 317.186 1125.38 460.806 1178.9 577.842Z" fill="#F8F9FB" fill-opacity="0.65"/>
</svg>
