<svg width="126" height="89" viewBox="0 0 126 89" fill="none" xmlns="http://www.w3.org/2000/svg">
<g clip-path="url(#clip0)">
<path fill-rule="evenodd" clip-rule="evenodd" d="M22.9102 1.90625L6.70271 58.4284L74.3868 77.8365L84.0259 44.2213L86.5141 35.5437L86.8494 34.3743L88.4439 28.8137L90.5943 21.3144L22.9102 1.90625Z" fill="#FFD542"/>
<path fill-rule="evenodd" clip-rule="evenodd" d="M90.3841 21.254L86.6392 34.314L28.4316 17.6232L28.0963 18.7925L86.3039 35.4833L74.1766 77.7762L83.5333 80.4592L86.2915 76.8198L89.8371 72.1415L92.7266 68.3287L93.5959 67.1818L96.1668 63.7897L96.7303 63.046L99.2362 59.7396L105.913 50.9294L107.857 48.3652L108.272 47.8174L108.747 47.1902L109.938 45.6189L112.017 42.875L121.616 30.2097L90.3841 21.254Z" fill="#C3A026"/>
<path fill-rule="evenodd" clip-rule="evenodd" d="M117.587 51.8586L118.054 51.9923L121.915 38.528L121.448 38.3943L117.587 51.8586Z" fill="white"/>
<path fill-rule="evenodd" clip-rule="evenodd" d="M109.568 79.8265L110.034 79.9602L113.895 66.4958L113.429 66.3621L109.568 79.8265Z" fill="white"/>
<path fill-rule="evenodd" clip-rule="evenodd" d="M118.991 54.2167L123.955 36.9073C121.552 36.2183 120.302 33.221 121.164 30.2146L112.382 41.7807L104.661 51.9491L98.799 59.6696L93.1625 67.0931L93.104 67.17L88.2135 73.6109L85.8629 76.7067L85.4352 77.2701L83.1066 80.3368L104.992 86.6124C105.854 83.606 108.503 81.7265 110.906 82.4156L115.869 65.1063C113.466 64.4173 112.216 61.4197 113.078 58.4136C113.94 55.4073 116.589 53.5277 118.991 54.2167Z" fill="#A58517"/>
<path fill-rule="evenodd" clip-rule="evenodd" d="M22.8516 2.0239C21.9895 5.0302 18.5941 6.69556 15.27 5.74241L10.3066 23.0518C13.6307 24.005 15.6277 27.2165 14.7656 30.2229C13.9036 33.2291 10.5081 34.8946 7.18406 33.9414L2.22075 51.2505C5.54481 52.2037 7.54178 55.4155 6.67977 58.4216L6.7027 58.4282L22.8745 2.03047L22.8516 2.0239Z" fill="#C3A026"/>
<path d="M46.0914 48.3051L47.6096 43.0105C49.452 43.4639 50.8992 43.5542 51.9511 43.2816C53.0327 42.9925 53.7587 42.202 54.1291 40.9101L54.2681 40.4256C54.5194 39.549 54.446 38.8038 54.0477 38.1903C53.6724 37.5833 53.0695 37.1608 52.239 36.9226C51.3393 36.6647 50.5101 36.7265 49.7515 37.1082C49.016 37.4965 48.422 38.0877 47.9696 38.8817L44.2538 35.9063C44.6599 35.2737 45.1517 34.6907 45.7291 34.1571C46.3131 33.6006 46.9894 33.1578 47.7578 32.8289C48.5559 32.4835 49.4396 32.275 50.4089 32.2034C51.4013 32.1384 52.4857 32.2746 53.6623 32.612C54.862 32.956 55.9082 33.4432 56.801 34.0737C57.6938 34.7043 58.4085 35.4335 58.945 36.2615C59.4816 37.0894 59.8088 37.9947 59.9265 38.9772C60.0673 39.9663 59.9856 40.9915 59.6813 42.0527C59.4034 43.0217 58.9905 43.8521 58.4426 44.5438C57.8947 45.2356 57.2579 45.802 56.5323 46.2431C55.8132 46.6611 55.0316 46.9488 54.1875 47.1062C53.3434 47.2637 52.4978 47.2958 51.6506 47.2027L50.9362 49.6943L46.0914 48.3051ZM46.1519 57.4979C45.0445 57.1803 44.3214 56.6983 43.9824 56.0519C43.6666 55.412 43.6145 54.723 43.8262 53.9847L44.0643 53.1542C44.276 52.4159 44.6853 51.8592 45.2923 51.4839C45.9223 51.1153 46.791 51.0898 47.8983 51.4073C49.0057 51.7248 49.7173 52.2035 50.0332 52.8434C50.3721 53.4899 50.4358 54.1822 50.2241 54.9205L49.9859 55.751C49.7742 56.4892 49.3534 57.0427 48.7234 57.4113C48.1164 57.7865 47.2593 57.8154 46.1519 57.4979Z" fill="white"/>
</g>
<defs>
<clipPath id="clip0">
<rect width="114" height="59" fill="white" transform="translate(16.2626) rotate(16)"/>
</clipPath>
</defs>
</svg>
