<svg width="797" height="105" viewBox="0 0 797 105" fill="none" xmlns="http://www.w3.org/2000/svg">
<path d="M14.0647 38.1482C14.0647 38.1482 222.021 73.788 413.987 46.0646C605.953 18.3411 782.189 91.8606 782.189 91.8606" stroke="#BC995A" stroke-width="2"/>
<path fill-rule="evenodd" clip-rule="evenodd" d="M14.403 26.1425C21.0143 26.6048 25.999 32.3391 25.5367 38.9503C25.0744 45.5616 19.3401 50.5463 12.7288 50.084C6.11755 49.6217 1.13283 43.8875 1.59513 37.2762C2.05744 30.6649 7.79171 25.6802 14.403 26.1425Z" fill="#037F4D"/>
<circle cx="250" cy="55" r="20" fill="#037F4D"/>
<circle cx="570" cy="42" r="20" fill="#037F4D"/>
<path fill-rule="evenodd" clip-rule="evenodd" d="M782.527 79.855C789.139 80.3173 794.123 86.0516 793.661 92.6629C793.199 99.2741 787.464 104.259 780.853 103.797C774.242 103.334 769.257 97.6 769.719 90.9887C770.182 84.3774 775.916 79.3927 782.527 79.855Z" fill="#037F4D"/>
</svg>
