<svg width="400" height="264" viewBox="0 0 400 264" fill="none" xmlns="http://www.w3.org/2000/svg">
<rect width="399.5" height="263.5" fill="black"/>
<g opacity="0.15">
<g clip-path="url(#clip0)">
<path d="M47.7609 74.6678H46.39L46.133 76.15H45.3276L45.5846 74.6678H44.7192V73.8966H45.7217L45.9702 72.4229H45.1048V71.6518H46.1073L46.3643 70.1696H47.1611L46.9041 71.6518H48.275L48.532 70.1696H49.3374L49.0804 71.6518H49.9457V72.4229H48.9433L48.6948 73.8966H49.5602V74.6678H48.5577L48.3007 76.15H47.5038L47.7609 74.6678ZM47.8894 73.8966L48.1464 72.4229H46.7756L46.5185 73.8966H47.8894ZM51.6408 76.15L50.287 70.1696H51.5722L52.1377 73.0398L52.4547 74.702H52.4805L52.8574 73.0398L53.5172 70.1696H54.9395L55.6078 73.0398L55.9762 74.702H56.0019L56.3189 73.0398L56.893 70.1696H58.1268L56.7387 76.15H55.2565L54.5025 72.9113L54.2112 71.6004H54.1855L53.8856 72.9113L53.1316 76.15H51.6408ZM59.5975 71.172C59.3405 71.172 59.152 71.1149 59.032 71.0007C58.9178 70.8807 58.8607 70.7293 58.8607 70.5466V70.3581C58.8607 70.1753 58.9178 70.0268 59.032 69.9125C59.152 69.7926 59.3405 69.7326 59.5975 69.7326C59.8546 69.7326 60.0402 69.7926 60.1544 69.9125C60.2744 70.0268 60.3344 70.1753 60.3344 70.3581V70.5466C60.3344 70.7293 60.2744 70.8807 60.1544 71.0007C60.0402 71.1149 59.8546 71.172 59.5975 71.172ZM58.9635 71.6518H60.2315V76.15H58.9635V71.6518ZM61.4151 76.15V71.6518H62.6831V72.4144H62.7345C62.8145 72.1802 62.9545 71.9774 63.1544 71.806C63.3543 71.6347 63.6313 71.549 63.9855 71.549C64.4481 71.549 64.7966 71.7032 65.0308 72.0117C65.2707 72.3201 65.3906 72.76 65.3906 73.3312V76.15H64.1226V73.434C64.1226 73.1427 64.0769 72.9285 63.9855 72.7914C63.8941 72.6486 63.7313 72.5772 63.4971 72.5772C63.3943 72.5772 63.2943 72.5914 63.1972 72.62C63.1001 72.6429 63.0116 72.6828 62.9316 72.74C62.8573 72.7971 62.7974 72.8685 62.7517 72.9542C62.706 73.0341 62.6831 73.1284 62.6831 73.2369V76.15H61.4151ZM67.3125 76.15L65.9588 70.1696H67.244L67.8095 73.0398L68.1265 74.702H68.1522L68.5292 73.0398L69.1889 70.1696H70.6112L71.2795 73.0398L71.6479 74.702H71.6736L71.9907 73.0398L72.5647 70.1696H73.7985L72.4105 76.15H70.9282L70.1742 72.9113L69.8829 71.6004H69.8572L69.5573 72.9113L68.8034 76.15H67.3125ZM75.2693 71.172C75.0122 71.172 74.8237 71.1149 74.7038 71.0007C74.5895 70.8807 74.5324 70.7293 74.5324 70.5466V70.3581C74.5324 70.1753 74.5895 70.0268 74.7038 69.9125C74.8237 69.7926 75.0122 69.7326 75.2693 69.7326C75.5263 69.7326 75.7119 69.7926 75.8262 69.9125C75.9461 70.0268 76.0061 70.1753 76.0061 70.3581V70.5466C76.0061 70.7293 75.9461 70.8807 75.8262 71.0007C75.7119 71.1149 75.5263 71.172 75.2693 71.172ZM74.6352 71.6518H75.9033V76.15H74.6352V71.6518ZM78.6633 76.15C78.2235 76.15 77.8893 76.0386 77.6609 75.8159C77.4381 75.5931 77.3267 75.2675 77.3267 74.8391V72.6371H76.6927V71.6518H77.0097C77.1811 71.6518 77.2982 71.6118 77.361 71.5319C77.4238 71.4462 77.4552 71.3262 77.4552 71.172V70.4352H78.5948V71.6518H79.4858V72.6371H78.5948V75.1647H79.4173V76.15H78.6633ZM80.3667 69.8097H81.6348V72.4144H81.6862C81.7662 72.1802 81.9061 71.9774 82.1061 71.806C82.306 71.6347 82.583 71.549 82.9371 71.549C83.3998 71.549 83.7483 71.7032 83.9824 72.0117C84.2223 72.3201 84.3423 72.76 84.3423 73.3312V76.15H83.0742V73.434C83.0742 73.1427 83.0285 72.9285 82.9371 72.7914C82.8458 72.6486 82.683 72.5772 82.4488 72.5772C82.346 72.5772 82.246 72.5914 82.1489 72.62C82.0518 72.6429 81.9633 72.6828 81.8833 72.74C81.809 72.7971 81.7491 72.8685 81.7034 72.9542C81.6577 73.0341 81.6348 73.1284 81.6348 73.2369V76.15H80.3667V69.8097ZM85.5393 76.15V70.1696H89.6091V71.3262H86.8416V72.5515H89.2149V73.6996H86.8416V74.9933H89.6091V76.15H85.5393ZM90.6751 76.15V71.6518H91.9432V72.4144H91.9946C92.0746 72.1745 92.2116 71.9717 92.4059 71.806C92.6001 71.6347 92.8657 71.549 93.2027 71.549C93.5111 71.549 93.7739 71.6261 93.9909 71.7803C94.208 71.9346 94.3651 72.1602 94.4622 72.4572H94.4879C94.5279 72.3316 94.5878 72.2145 94.6678 72.1059C94.7535 71.9917 94.8563 71.8946 94.9763 71.8146C95.0962 71.7346 95.2304 71.6718 95.379 71.6261C95.5275 71.5747 95.6874 71.549 95.8588 71.549C96.2929 71.549 96.6242 71.7032 96.8526 72.0117C97.0868 72.3201 97.2039 72.76 97.2039 73.3312V76.15H95.9359V73.434C95.9359 72.8628 95.7302 72.5772 95.319 72.5772C95.1305 72.5772 94.9591 72.6314 94.8049 72.74C94.6507 72.8485 94.5736 73.0141 94.5736 73.2369V76.15H93.3055V73.434C93.3055 72.8628 93.0999 72.5772 92.6886 72.5772C92.5972 72.5772 92.5058 72.5914 92.4144 72.62C92.3287 72.6429 92.2488 72.6828 92.1745 72.74C92.106 72.7971 92.0489 72.8685 92.0032 72.9542C91.9632 73.0341 91.9432 73.1284 91.9432 73.2369V76.15H90.6751ZM98.9651 71.172C98.7081 71.172 98.5196 71.1149 98.3996 71.0007C98.2854 70.8807 98.2283 70.7293 98.2283 70.5466V70.3581C98.2283 70.1753 98.2854 70.0268 98.3996 69.9125C98.5196 69.7926 98.7081 69.7326 98.9651 69.7326C99.2222 69.7326 99.4078 69.7926 99.5221 69.9125C99.642 70.0268 99.702 70.1753 99.702 70.3581V70.5466C99.702 70.7293 99.642 70.8807 99.5221 71.0007C99.4078 71.1149 99.2222 71.172 98.9651 71.172ZM98.3311 71.6518H99.5992V76.15H98.3311V71.6518ZM100.783 76.15V71.6518H102.051V72.6286H102.094C102.116 72.5029 102.156 72.383 102.214 72.2687C102.271 72.1488 102.345 72.0431 102.436 71.9517C102.533 71.8603 102.648 71.7889 102.779 71.7375C102.91 71.6804 103.065 71.6518 103.242 71.6518H103.464V72.8342H103.147C102.776 72.8342 102.499 72.8828 102.316 72.9799C102.139 73.077 102.051 73.2569 102.051 73.5196V76.15H100.783ZM106.081 76.2528C105.739 76.2528 105.433 76.1986 105.164 76.09C104.896 75.9758 104.668 75.8187 104.479 75.6188C104.296 75.4132 104.156 75.1647 104.059 74.8734C103.968 74.5821 103.922 74.2565 103.922 73.8966C103.922 73.5425 103.968 73.2226 104.059 72.937C104.151 72.6457 104.285 72.3972 104.462 72.1916C104.645 71.986 104.867 71.8289 105.13 71.7204C105.393 71.6061 105.693 71.549 106.03 71.549C106.401 71.549 106.718 71.6118 106.981 71.7375C107.249 71.8632 107.466 72.0317 107.632 72.243C107.803 72.4544 107.926 72.7 108 72.9799C108.08 73.254 108.12 73.5425 108.12 73.8452V74.2222H105.233V74.2908C105.233 74.5878 105.313 74.8248 105.473 75.0019C105.633 75.1733 105.884 75.259 106.227 75.259C106.49 75.259 106.704 75.2075 106.87 75.1047C107.035 74.9962 107.189 74.8677 107.332 74.7192L107.966 75.5074C107.766 75.7416 107.504 75.9244 107.178 76.0558C106.858 76.1872 106.493 76.2528 106.081 76.2528ZM106.056 72.4829C105.799 72.4829 105.596 72.5686 105.447 72.74C105.304 72.9056 105.233 73.1284 105.233 73.4083V73.4768H106.81V73.3997C106.81 73.1255 106.747 72.9056 106.621 72.74C106.501 72.5686 106.313 72.4829 106.056 72.4829ZM108.445 76.15L109.927 73.8624L108.462 71.6518H109.902L110.741 73.0655H110.776L111.59 71.6518H112.926L111.435 73.9052L112.935 76.15H111.495L110.63 74.6849H110.596L109.765 76.15H108.445Z" fill="white"/>
<path d="M48.1754 133.686V140.562C48.1754 141.355 48.3307 141.949 48.6413 142.345C48.9518 142.731 49.4713 142.924 50.1996 142.924C50.9278 142.924 51.4473 142.731 51.7579 142.345C52.0685 141.949 52.2237 141.355 52.2237 140.562V133.686H54.6014V140.305C54.6014 141.13 54.521 141.847 54.3604 142.458C54.2105 143.057 53.9588 143.555 53.6053 143.952C53.2519 144.337 52.7967 144.626 52.2398 144.819C51.6829 145.001 51.0028 145.092 50.1996 145.092C49.3963 145.092 48.7162 145.001 48.1593 144.819C47.6024 144.626 47.1472 144.337 46.7938 143.952C46.4403 143.555 46.1833 143.057 46.0227 142.458C45.8727 141.847 45.7977 141.13 45.7977 140.305V133.686H48.1754ZM60.6472 145.092C59.6619 145.092 58.8265 144.926 58.1411 144.594C57.4556 144.252 56.8719 143.812 56.39 143.277L57.9965 141.654C58.7569 142.511 59.694 142.94 60.8079 142.94C61.4076 142.94 61.8521 142.816 62.1412 142.57C62.4304 142.324 62.575 141.997 62.575 141.59C62.575 141.28 62.4893 141.023 62.318 140.819C62.1466 140.605 61.7985 140.46 61.2737 140.385L60.1653 140.241C58.9764 140.091 58.1036 139.732 57.5467 139.164C57.0004 138.597 56.7273 137.842 56.7273 136.899C56.7273 136.396 56.8237 135.935 57.0165 135.518C57.2093 135.1 57.4824 134.741 57.8358 134.441C58.2 134.141 58.6391 133.911 59.1532 133.75C59.6779 133.579 60.2724 133.493 60.9364 133.493C61.7825 133.493 62.5268 133.627 63.1694 133.895C63.812 134.163 64.3636 134.554 64.8241 135.068L63.2015 136.706C62.9338 136.396 62.6071 136.144 62.2216 135.951C61.8467 135.748 61.3701 135.646 60.7918 135.646C60.2456 135.646 59.8386 135.742 59.5708 135.935C59.3031 136.128 59.1692 136.396 59.1692 136.739C59.1692 137.124 59.271 137.403 59.4745 137.574C59.6887 137.745 60.0314 137.868 60.5026 137.943L61.6111 138.12C62.7678 138.302 63.6246 138.661 64.1815 139.196C64.7384 139.721 65.0169 140.471 65.0169 141.446C65.0169 141.981 64.9205 142.474 64.7277 142.924C64.5349 143.373 64.2511 143.759 63.8763 144.08C63.5121 144.402 63.057 144.653 62.5107 144.835C61.9645 145.007 61.3434 145.092 60.6472 145.092ZM67.0414 133.686H71.2665C72.0055 133.686 72.6803 133.804 73.2907 134.04C73.9012 134.275 74.4206 134.629 74.849 135.1C75.2774 135.56 75.6094 136.144 75.8451 136.851C76.0807 137.547 76.1985 138.361 76.1985 139.293C76.1985 140.225 76.0807 141.044 75.8451 141.751C75.6094 142.447 75.2774 143.031 74.849 143.502C74.4206 143.962 73.9012 144.31 73.2907 144.546C72.6803 144.782 72.0055 144.9 71.2665 144.9H67.0414V133.686ZM71.2665 142.731C71.9948 142.731 72.5678 142.527 72.9855 142.12C73.4032 141.713 73.612 141.06 73.612 140.16V138.425C73.612 137.526 73.4032 136.872 72.9855 136.465C72.5678 136.058 71.9948 135.855 71.2665 135.855H69.4833V142.731H71.2665Z" fill="white"/>
<path d="M109.46 170.517V177.392C109.46 178.185 109.616 178.779 109.926 179.176C110.237 179.561 110.756 179.754 111.485 179.754C112.213 179.754 112.732 179.561 113.043 179.176C113.353 178.779 113.509 178.185 113.509 177.392V170.517H115.886V177.135C115.886 177.96 115.806 178.678 115.645 179.288C115.495 179.888 115.244 180.386 114.89 180.782C114.537 181.168 114.082 181.457 113.525 181.65C112.968 181.832 112.288 181.923 111.485 181.923C110.681 181.923 110.001 181.832 109.444 181.65C108.887 181.457 108.432 181.168 108.079 180.782C107.725 180.386 107.468 179.888 107.308 179.288C107.158 178.678 107.083 177.96 107.083 177.135V170.517H109.46ZM121.932 181.923C120.947 181.923 120.112 181.757 119.426 181.425C118.741 181.082 118.157 180.643 117.675 180.107L119.281 178.485C120.042 179.342 120.979 179.77 122.093 179.77C122.693 179.77 123.137 179.647 123.426 179.401C123.715 179.154 123.86 178.828 123.86 178.421C123.86 178.11 123.774 177.853 123.603 177.649C123.432 177.435 123.084 177.291 122.559 177.216L121.45 177.071C120.261 176.921 119.389 176.562 118.832 175.995C118.285 175.427 118.012 174.672 118.012 173.73C118.012 173.226 118.109 172.766 118.302 172.348C118.494 171.93 118.767 171.572 119.121 171.272C119.485 170.972 119.924 170.742 120.438 170.581C120.963 170.41 121.557 170.324 122.221 170.324C123.067 170.324 123.812 170.458 124.454 170.725C125.097 170.993 125.649 171.384 126.109 171.898L124.487 173.537C124.219 173.226 123.892 172.975 123.507 172.782C123.132 172.578 122.655 172.477 122.077 172.477C121.531 172.477 121.124 172.573 120.856 172.766C120.588 172.958 120.454 173.226 120.454 173.569C120.454 173.955 120.556 174.233 120.759 174.404C120.974 174.576 121.316 174.699 121.788 174.774L122.896 174.951C124.053 175.133 124.91 175.491 125.467 176.027C126.023 176.552 126.302 177.301 126.302 178.276C126.302 178.812 126.205 179.304 126.013 179.754C125.82 180.204 125.536 180.589 125.161 180.911C124.797 181.232 124.342 181.484 123.796 181.666C123.25 181.837 122.628 181.923 121.932 181.923ZM128.326 170.517H132.552C133.291 170.517 133.965 170.634 134.576 170.87C135.186 171.106 135.706 171.459 136.134 171.93C136.562 172.391 136.894 172.975 137.13 173.681C137.366 174.378 137.484 175.192 137.484 176.123C137.484 177.055 137.366 177.874 137.13 178.581C136.894 179.277 136.562 179.861 136.134 180.332C135.706 180.793 135.186 181.141 134.576 181.377C133.965 181.612 133.291 181.73 132.552 181.73H128.326V170.517ZM132.552 179.561C133.28 179.561 133.853 179.358 134.271 178.951C134.688 178.544 134.897 177.89 134.897 176.991V175.256C134.897 174.356 134.688 173.703 134.271 173.296C133.853 172.889 133.28 172.685 132.552 172.685H130.768V179.561H132.552Z" fill="white"/>
<path d="M78.0878 182.441V172.588H69.0378V166.269H78.0878V156.416H84.9422V166.269H93.9921V172.588H84.9422V182.441H78.0878Z" fill="#FFD542"/>
<path d="M90.678 147.469V144.513C89.0501 144.363 87.6792 143.988 86.5654 143.389C85.4515 142.789 84.4876 142.039 83.6737 141.14L86.5654 138.505C87.1865 139.147 87.872 139.683 88.6217 140.111C89.3714 140.518 90.1961 140.786 91.0957 140.915V135.131C88.6752 134.639 86.9402 133.867 85.8906 132.818C84.8411 131.768 84.3163 130.462 84.3163 128.898C84.3163 127.206 84.8518 125.824 85.9228 124.753C87.0152 123.682 88.6003 123.029 90.678 122.793V119.773H94.3408V122.793C95.626 122.943 96.7506 123.265 97.7145 123.757C98.6784 124.228 99.5138 124.871 100.221 125.685L97.2968 128.32C96.9112 127.891 96.4507 127.506 95.9152 127.163C95.3797 126.82 94.7264 126.563 93.9553 126.392V131.725C96.2258 132.24 97.8965 132.979 98.9675 133.942C100.06 134.906 100.606 136.213 100.606 137.862C100.606 139.447 100.092 140.84 99.0639 142.039C98.0572 143.239 96.4828 144.021 94.3408 144.385V147.469H90.678ZM88.7502 128.769C88.7502 129.391 88.9323 129.873 89.2964 130.215C89.682 130.558 90.2817 130.847 91.0957 131.083V126.328C90.2817 126.499 89.682 126.799 89.2964 127.227C88.9323 127.634 88.7502 128.148 88.7502 128.769ZM96.1722 138.216C96.1722 137.744 96.033 137.295 95.7545 136.866C95.4761 136.416 94.8763 136.052 93.9553 135.774V140.85C94.705 140.636 95.2619 140.304 95.626 139.854C95.9902 139.383 96.1722 138.837 96.1722 138.216ZM104.963 144.834V140.947H111.003V125.91H110.714L106.151 131.886L103.067 129.476L108.433 122.408H115.822V140.947H120.578V144.834H104.963ZM130.847 145.22C127.912 145.22 125.738 144.203 124.324 142.168C122.911 140.133 122.204 137.284 122.204 133.621C122.204 129.958 122.911 127.109 124.324 125.075C125.738 123.04 127.912 122.022 130.847 122.022C133.781 122.022 135.955 123.04 137.369 125.075C138.783 127.109 139.49 129.958 139.49 133.621C139.49 137.284 138.783 140.133 137.369 142.168C135.955 144.203 133.781 145.22 130.847 145.22ZM130.847 141.14C132.132 141.14 133.021 140.668 133.514 139.726C134.006 138.783 134.253 137.455 134.253 135.742V131.501C134.253 129.787 134.006 128.459 133.514 127.516C133.021 126.574 132.132 126.103 130.847 126.103C129.562 126.103 128.673 126.574 128.18 127.516C127.687 128.459 127.441 129.787 127.441 131.501V135.742C127.441 137.455 127.687 138.783 128.18 139.726C128.673 140.668 129.562 141.14 130.847 141.14ZM150.112 145.22C147.178 145.22 145.004 144.203 143.59 142.168C142.176 140.133 141.469 137.284 141.469 133.621C141.469 129.958 142.176 127.109 143.59 125.075C145.004 123.04 147.178 122.022 150.112 122.022C153.047 122.022 155.221 123.04 156.635 125.075C158.048 127.109 158.755 129.958 158.755 133.621C158.755 137.284 158.048 140.133 156.635 142.168C155.221 144.203 153.047 145.22 150.112 145.22ZM150.112 141.14C151.397 141.14 152.286 140.668 152.779 139.726C153.272 138.783 153.518 137.455 153.518 135.742V131.501C153.518 129.787 153.272 128.459 152.779 127.516C152.286 126.574 151.397 126.103 150.112 126.103C148.827 126.103 147.938 126.574 147.445 127.516C146.953 128.459 146.706 129.787 146.706 131.501V135.742C146.706 137.455 146.953 138.783 147.445 139.726C147.938 140.668 148.827 141.14 150.112 141.14ZM164.783 139.405C165.747 139.405 166.454 139.651 166.904 140.143C167.375 140.615 167.611 141.225 167.611 141.975V142.618C167.611 143.924 167.289 145.209 166.647 146.473C166.025 147.737 165.201 148.765 164.173 149.558H160.96C161.709 148.851 162.352 148.144 162.887 147.437C163.423 146.752 163.83 145.98 164.108 145.124C163.359 144.995 162.812 144.706 162.47 144.256C162.127 143.785 161.956 143.239 161.956 142.618V141.975C161.956 141.225 162.181 140.615 162.63 140.143C163.102 139.651 163.819 139.405 164.783 139.405ZM179.324 145.22C176.39 145.22 174.216 144.203 172.802 142.168C171.388 140.133 170.681 137.284 170.681 133.621C170.681 129.958 171.388 127.109 172.802 125.075C174.216 123.04 176.39 122.022 179.324 122.022C182.259 122.022 184.433 123.04 185.847 125.075C187.26 127.109 187.967 129.958 187.967 133.621C187.967 137.284 187.26 140.133 185.847 142.168C184.433 144.203 182.259 145.22 179.324 145.22ZM179.324 141.14C180.609 141.14 181.498 140.668 181.991 139.726C182.484 138.783 182.73 137.455 182.73 135.742V131.501C182.73 129.787 182.484 128.459 181.991 127.516C181.498 126.574 180.609 126.103 179.324 126.103C178.039 126.103 177.15 126.574 176.657 127.516C176.165 128.459 175.918 129.787 175.918 131.501V135.742C175.918 137.455 176.165 138.783 176.657 139.726C177.15 140.668 178.039 141.14 179.324 141.14ZM198.59 145.22C195.655 145.22 193.481 144.203 192.067 142.168C190.654 140.133 189.947 137.284 189.947 133.621C189.947 129.958 190.654 127.109 192.067 125.075C193.481 123.04 195.655 122.022 198.59 122.022C201.524 122.022 203.698 123.04 205.112 125.075C206.526 127.109 207.233 129.958 207.233 133.621C207.233 137.284 206.526 140.133 205.112 142.168C203.698 144.203 201.524 145.22 198.59 145.22ZM198.59 141.14C199.875 141.14 200.764 140.668 201.256 139.726C201.749 138.783 201.995 137.455 201.995 135.742V131.501C201.995 129.787 201.749 128.459 201.256 127.516C200.764 126.574 199.875 126.103 198.59 126.103C197.304 126.103 196.416 126.574 195.923 127.516C195.43 128.459 195.184 129.787 195.184 131.501V135.742C195.184 137.455 195.43 138.783 195.923 139.726C196.416 140.668 197.304 141.14 198.59 141.14ZM217.855 145.22C214.921 145.22 212.746 144.203 211.333 142.168C209.919 140.133 209.212 137.284 209.212 133.621C209.212 129.958 209.919 127.109 211.333 125.075C212.746 123.04 214.921 122.022 217.855 122.022C220.79 122.022 222.964 123.04 224.377 125.075C225.791 127.109 226.498 129.958 226.498 133.621C226.498 137.284 225.791 140.133 224.377 142.168C222.964 144.203 220.79 145.22 217.855 145.22ZM217.855 141.14C219.14 141.14 220.029 140.668 220.522 139.726C221.015 138.783 221.261 137.455 221.261 135.742V131.501C221.261 129.787 221.015 128.459 220.522 127.516C220.029 126.574 219.14 126.103 217.855 126.103C216.57 126.103 215.681 126.574 215.188 127.516C214.696 128.459 214.449 129.787 214.449 131.501V135.742C214.449 137.455 214.696 138.783 215.188 139.726C215.681 140.668 216.57 141.14 217.855 141.14Z" fill="white"/>
<path d="M51.6347 111.505L45.7121 85.3405H51.3348L53.8088 97.8979L55.1958 105.17H55.3082L56.9576 97.8979L59.8439 85.3405H66.0664L68.9903 97.8979L70.6021 105.17H70.7146L72.1015 97.8979L74.613 85.3405H80.0108L73.9383 111.505H67.4534L64.1547 97.3357L62.8802 91.6005H62.7677L61.4558 97.3357L58.1571 111.505H51.6347ZM82.9593 111.505V106.969H86.3329V89.8762H82.9593V85.3405H95.4043V89.8762H92.0306V106.969H95.4043V111.505H82.9593ZM108.136 99.135L105.624 93.8871H105.512V111.505H100.151V85.3405H106.374L113.534 97.7105L116.045 102.958H116.158V85.3405H121.518V111.505H115.295L108.136 99.135Z" fill="#FFD542"/>
<path d="M151.427 184.3V181.344C149.8 181.194 148.429 180.819 147.315 180.219C146.201 179.619 145.237 178.87 144.423 177.97L147.315 175.335C147.936 175.978 148.621 176.514 149.371 176.942C150.121 177.349 150.946 177.617 151.845 177.745V171.962C149.425 171.469 147.69 170.698 146.64 169.648C145.591 168.599 145.066 167.292 145.066 165.729C145.066 164.036 145.601 162.655 146.672 161.584C147.765 160.513 149.35 159.859 151.427 159.624V156.604H155.09V159.624C156.376 159.774 157.5 160.095 158.464 160.588C159.428 161.059 160.263 161.702 160.97 162.516L158.046 165.15C157.661 164.722 157.2 164.336 156.665 163.994C156.129 163.651 155.476 163.394 154.705 163.222V168.556C156.975 169.07 158.646 169.809 159.717 170.773C160.809 171.737 161.356 173.043 161.356 174.693C161.356 176.278 160.842 177.67 159.813 178.87C158.807 180.069 157.232 180.851 155.09 181.215V184.3H151.427ZM149.5 165.6C149.5 166.221 149.682 166.703 150.046 167.046C150.431 167.389 151.031 167.678 151.845 167.913V163.158C151.031 163.33 150.431 163.629 150.046 164.058C149.682 164.465 149.5 164.979 149.5 165.6ZM156.922 175.046C156.922 174.575 156.782 174.125 156.504 173.697C156.226 173.247 155.626 172.883 154.705 172.604V177.681C155.454 177.467 156.011 177.135 156.376 176.685C156.74 176.214 156.922 175.667 156.922 175.046ZM165.712 181.665V177.777H171.752V162.74H171.463L166.901 168.717L163.816 166.307L169.182 159.238H176.572V177.777H181.327V181.665H165.712ZM191.596 182.051C188.662 182.051 186.488 181.033 185.074 178.998C183.66 176.963 182.953 174.114 182.953 170.452C182.953 166.789 183.66 163.94 185.074 161.905C186.488 159.87 188.662 158.853 191.596 158.853C194.531 158.853 196.705 159.87 198.119 161.905C199.532 163.94 200.239 166.789 200.239 170.452C200.239 174.114 199.532 176.963 198.119 178.998C196.705 181.033 194.531 182.051 191.596 182.051ZM191.596 177.97C192.881 177.97 193.77 177.499 194.263 176.556C194.756 175.614 195.002 174.286 195.002 172.572V168.331C195.002 166.617 194.756 165.289 194.263 164.347C193.77 163.404 192.881 162.933 191.596 162.933C190.311 162.933 189.422 163.404 188.929 164.347C188.437 165.289 188.19 166.617 188.19 168.331V172.572C188.19 174.286 188.437 175.614 188.929 176.556C189.422 177.499 190.311 177.97 191.596 177.97ZM210.862 182.051C207.927 182.051 205.753 181.033 204.339 178.998C202.926 176.963 202.219 174.114 202.219 170.452C202.219 166.789 202.926 163.94 204.339 161.905C205.753 159.87 207.927 158.853 210.862 158.853C213.796 158.853 215.97 159.87 217.384 161.905C218.798 163.94 219.505 166.789 219.505 170.452C219.505 174.114 218.798 176.963 217.384 178.998C215.97 181.033 213.796 182.051 210.862 182.051ZM210.862 177.97C212.147 177.97 213.036 177.499 213.529 176.556C214.021 175.614 214.267 174.286 214.267 172.572V168.331C214.267 166.617 214.021 165.289 213.529 164.347C213.036 163.404 212.147 162.933 210.862 162.933C209.577 162.933 208.688 163.404 208.195 164.347C207.702 165.289 207.456 166.617 207.456 168.331V172.572C207.456 174.286 207.702 175.614 208.195 176.556C208.688 177.499 209.577 177.97 210.862 177.97ZM225.533 176.235C226.496 176.235 227.203 176.481 227.653 176.974C228.124 177.445 228.36 178.056 228.36 178.805V179.448C228.36 180.755 228.039 182.04 227.396 183.304C226.775 184.567 225.95 185.596 224.922 186.388H221.709C222.459 185.681 223.101 184.974 223.637 184.268C224.172 183.582 224.579 182.811 224.858 181.954C224.108 181.826 223.562 181.537 223.219 181.087C222.876 180.615 222.705 180.069 222.705 179.448V178.805C222.705 178.056 222.93 177.445 223.38 176.974C223.851 176.481 224.569 176.235 225.533 176.235ZM240.074 182.051C237.139 182.051 234.965 181.033 233.551 178.998C232.138 176.963 231.431 174.114 231.431 170.452C231.431 166.789 232.138 163.94 233.551 161.905C234.965 159.87 237.139 158.853 240.074 158.853C243.008 158.853 245.182 159.87 246.596 161.905C248.01 163.94 248.717 166.789 248.717 170.452C248.717 174.114 248.01 176.963 246.596 178.998C245.182 181.033 243.008 182.051 240.074 182.051ZM240.074 177.97C241.359 177.97 242.248 177.499 242.74 176.556C243.233 175.614 243.479 174.286 243.479 172.572V168.331C243.479 166.617 243.233 165.289 242.74 164.347C242.248 163.404 241.359 162.933 240.074 162.933C238.788 162.933 237.9 163.404 237.407 164.347C236.914 165.289 236.668 166.617 236.668 168.331V172.572C236.668 174.286 236.914 175.614 237.407 176.556C237.9 177.499 238.788 177.97 240.074 177.97ZM259.339 182.051C256.405 182.051 254.23 181.033 252.817 178.998C251.403 176.963 250.696 174.114 250.696 170.452C250.696 166.789 251.403 163.94 252.817 161.905C254.23 159.87 256.405 158.853 259.339 158.853C262.274 158.853 264.448 159.87 265.862 161.905C267.275 163.94 267.982 166.789 267.982 170.452C267.982 174.114 267.275 176.963 265.862 178.998C264.448 181.033 262.274 182.051 259.339 182.051ZM259.339 177.97C260.624 177.97 261.513 177.499 262.006 176.556C262.499 175.614 262.745 174.286 262.745 172.572V168.331C262.745 166.617 262.499 165.289 262.006 164.347C261.513 163.404 260.624 162.933 259.339 162.933C258.054 162.933 257.165 163.404 256.672 164.347C256.18 165.289 255.933 166.617 255.933 168.331V172.572C255.933 174.286 256.18 175.614 256.672 176.556C257.165 177.499 258.054 177.97 259.339 177.97ZM278.605 182.051C275.67 182.051 273.496 181.033 272.082 178.998C270.668 176.963 269.962 174.114 269.962 170.452C269.962 166.789 270.668 163.94 272.082 161.905C273.496 159.87 275.67 158.853 278.605 158.853C281.539 158.853 283.713 159.87 285.127 161.905C286.541 163.94 287.248 166.789 287.248 170.452C287.248 174.114 286.541 176.963 285.127 178.998C283.713 181.033 281.539 182.051 278.605 182.051ZM278.605 177.97C279.89 177.97 280.779 177.499 281.271 176.556C281.764 175.614 282.01 174.286 282.01 172.572V168.331C282.01 166.617 281.764 165.289 281.271 164.347C280.779 163.404 279.89 162.933 278.605 162.933C277.319 162.933 276.43 163.404 275.938 164.347C275.445 165.289 275.199 166.617 275.199 168.331V172.572C275.199 174.286 275.445 175.614 275.938 176.556C276.43 177.499 277.319 177.97 278.605 177.97Z" fill="white"/>
<path d="M295.472 171.882C295.108 171.882 294.84 171.796 294.668 171.625C294.508 171.454 294.427 171.234 294.427 170.966V170.693C294.427 170.426 294.508 170.206 294.668 170.035C294.84 169.863 295.108 169.778 295.472 169.778C295.836 169.778 296.098 169.863 296.259 170.035C296.419 170.206 296.5 170.426 296.5 170.693V170.966C296.5 171.234 296.419 171.454 296.259 171.625C296.098 171.796 295.836 171.882 295.472 171.882ZM294.588 173.376H296.339V181.73H294.588V173.376ZM298.84 181.73V173.376H300.591V174.758H300.671C300.853 174.308 301.126 173.933 301.49 173.633C301.865 173.333 302.374 173.183 303.017 173.183C303.873 173.183 304.537 173.467 305.009 174.035C305.491 174.592 305.732 175.39 305.732 176.429V181.73H303.98V176.653C303.98 175.347 303.456 174.694 302.406 174.694C302.181 174.694 301.956 174.726 301.731 174.79C301.517 174.843 301.324 174.929 301.153 175.047C300.982 175.165 300.842 175.315 300.735 175.497C300.639 175.679 300.591 175.893 300.591 176.139V181.73H298.84ZM312.084 181.73V170.517H319.265V172.123H313.899V175.24H318.767V176.846H313.899V180.123H319.265V181.73H312.084ZM321.478 181.73V173.376H323.229V174.758H323.31C323.395 174.544 323.497 174.34 323.615 174.147C323.743 173.955 323.893 173.789 324.065 173.649C324.247 173.499 324.456 173.387 324.691 173.312C324.937 173.226 325.221 173.183 325.543 173.183C326.11 173.183 326.614 173.323 327.053 173.601C327.492 173.88 327.813 174.308 328.017 174.886H328.065C328.215 174.415 328.504 174.013 328.932 173.681C329.361 173.349 329.912 173.183 330.587 173.183C331.422 173.183 332.07 173.467 332.531 174.035C332.991 174.592 333.222 175.39 333.222 176.429V181.73H331.471V176.637C331.471 175.995 331.347 175.513 331.101 175.192C330.855 174.86 330.464 174.694 329.928 174.694C329.703 174.694 329.489 174.726 329.286 174.79C329.082 174.843 328.9 174.929 328.74 175.047C328.59 175.165 328.466 175.315 328.37 175.497C328.274 175.679 328.225 175.888 328.225 176.123V181.73H326.474V176.637C326.474 175.341 325.966 174.694 324.948 174.694C324.734 174.694 324.52 174.726 324.306 174.79C324.102 174.843 323.92 174.929 323.759 175.047C323.599 175.165 323.47 175.315 323.374 175.497C323.277 175.679 323.229 175.888 323.229 176.123V181.73H321.478ZM336.528 171.882C336.164 171.882 335.897 171.796 335.725 171.625C335.564 171.454 335.484 171.234 335.484 170.966V170.693C335.484 170.426 335.564 170.206 335.725 170.035C335.897 169.863 336.164 169.778 336.528 169.778C336.893 169.778 337.155 169.863 337.316 170.035C337.476 170.206 337.557 170.426 337.557 170.693V170.966C337.557 171.234 337.476 171.454 337.316 171.625C337.155 171.796 336.893 171.882 336.528 171.882ZM335.645 173.376H337.396V181.73H335.645V173.376ZM339.896 181.73V173.376H341.647V174.983H341.728C341.846 174.554 342.092 174.179 342.467 173.858C342.842 173.537 343.361 173.376 344.025 173.376H344.491V175.063H343.8C343.104 175.063 342.569 175.175 342.194 175.4C341.83 175.625 341.647 175.957 341.647 176.396V181.73H339.896ZM349.245 181.923C348.645 181.923 348.11 181.821 347.639 181.618C347.167 181.414 346.766 181.125 346.434 180.75C346.102 180.364 345.845 179.904 345.663 179.368C345.491 178.822 345.406 178.217 345.406 177.553C345.406 176.889 345.491 176.289 345.663 175.754C345.845 175.208 346.102 174.747 346.434 174.372C346.766 173.987 347.167 173.692 347.639 173.489C348.11 173.285 348.645 173.183 349.245 173.183C349.856 173.183 350.391 173.291 350.852 173.505C351.323 173.719 351.714 174.019 352.024 174.404C352.335 174.779 352.565 175.218 352.715 175.722C352.876 176.225 352.956 176.766 352.956 177.344V178.003H347.221V178.276C347.221 178.919 347.408 179.449 347.783 179.866C348.169 180.273 348.715 180.477 349.422 180.477C349.936 180.477 350.37 180.364 350.723 180.14C351.077 179.915 351.376 179.609 351.623 179.224L352.651 180.236C352.34 180.75 351.89 181.162 351.301 181.473C350.712 181.773 350.027 181.923 349.245 181.923ZM349.245 174.549C348.945 174.549 348.667 174.602 348.41 174.71C348.163 174.817 347.949 174.967 347.767 175.159C347.596 175.352 347.462 175.582 347.365 175.85C347.269 176.118 347.221 176.412 347.221 176.734V176.846H351.109V176.686C351.109 176.043 350.943 175.529 350.611 175.143C350.279 174.747 349.823 174.549 349.245 174.549ZM353.743 181.73L356.683 177.505L353.824 173.376H355.848L357.727 176.284H357.775L359.703 173.376H361.567L358.707 177.489L361.615 181.73H359.591L357.663 178.694H357.615L355.607 181.73H353.743Z" fill="white"/>
<path d="M236.567 134.992C236.202 134.992 235.935 134.906 235.763 134.735C235.603 134.564 235.522 134.344 235.522 134.076V133.803C235.522 133.536 235.603 133.316 235.763 133.145C235.935 132.973 236.202 132.888 236.567 132.888C236.931 132.888 237.193 132.973 237.354 133.145C237.514 133.316 237.595 133.536 237.595 133.803V134.076C237.595 134.344 237.514 134.564 237.354 134.735C237.193 134.906 236.931 134.992 236.567 134.992ZM235.683 136.486H237.434V144.84H235.683V136.486ZM239.935 144.84V136.486H241.686V137.868H241.766C241.948 137.418 242.221 137.043 242.585 136.743C242.96 136.443 243.469 136.293 244.112 136.293C244.968 136.293 245.632 136.577 246.104 137.145C246.586 137.702 246.827 138.5 246.827 139.539V144.84H245.075V139.763C245.075 138.457 244.551 137.803 243.501 137.803C243.276 137.803 243.051 137.836 242.826 137.9C242.612 137.953 242.419 138.039 242.248 138.157C242.077 138.275 241.937 138.425 241.83 138.607C241.734 138.789 241.686 139.003 241.686 139.249V144.84H239.935ZM253.179 133.627H258.143C259.075 133.627 259.803 133.889 260.328 134.414C260.863 134.939 261.131 135.64 261.131 136.518C261.131 136.936 261.072 137.295 260.954 137.595C260.836 137.884 260.686 138.125 260.504 138.318C260.322 138.5 260.113 138.639 259.878 138.735C259.642 138.821 259.412 138.874 259.187 138.896V138.992C259.412 139.003 259.658 139.057 259.926 139.153C260.204 139.249 260.462 139.405 260.697 139.619C260.933 139.822 261.131 140.09 261.292 140.422C261.452 140.743 261.533 141.14 261.533 141.611C261.533 142.061 261.458 142.484 261.308 142.88C261.168 143.276 260.97 143.619 260.713 143.908C260.456 144.197 260.151 144.428 259.798 144.599C259.444 144.76 259.059 144.84 258.641 144.84H253.179V133.627ZM254.994 143.282H258.111C258.582 143.282 258.951 143.158 259.219 142.912C259.487 142.666 259.621 142.312 259.621 141.852V141.306C259.621 140.845 259.487 140.492 259.219 140.245C258.951 139.999 258.582 139.876 258.111 139.876H254.994V143.282ZM254.994 138.366H257.805C258.255 138.366 258.603 138.253 258.85 138.028C259.096 137.793 259.219 137.461 259.219 137.032V136.518C259.219 136.09 259.096 135.763 258.85 135.538C258.603 135.303 258.255 135.185 257.805 135.185H254.994V138.366ZM264.524 134.992C264.159 134.992 263.892 134.906 263.72 134.735C263.56 134.564 263.479 134.344 263.479 134.076V133.803C263.479 133.536 263.56 133.316 263.72 133.145C263.892 132.973 264.159 132.888 264.524 132.888C264.888 132.888 265.15 132.973 265.311 133.145C265.471 133.316 265.552 133.536 265.552 133.803V134.076C265.552 134.344 265.471 134.564 265.311 134.735C265.15 134.906 264.888 134.992 264.524 134.992ZM263.64 136.486H265.391V144.84H263.64V136.486ZM270.205 144.84C269.594 144.84 269.134 144.685 268.823 144.374C268.513 144.053 268.357 143.603 268.357 143.025V137.916H267.056V136.486H267.763C268.052 136.486 268.25 136.422 268.357 136.293C268.475 136.165 268.534 135.956 268.534 135.667V134.205H270.108V136.486H271.86V137.916H270.108V143.41H271.731V144.84H270.205ZM276.925 145.033C276.326 145.033 275.79 144.931 275.319 144.728C274.848 144.524 274.451 144.235 274.13 143.86C273.809 143.474 273.562 143.014 273.391 142.478C273.22 141.932 273.134 141.327 273.134 140.663C273.134 139.999 273.22 139.399 273.391 138.864C273.562 138.318 273.809 137.857 274.13 137.482C274.451 137.097 274.848 136.802 275.319 136.599C275.79 136.395 276.326 136.293 276.925 136.293C277.761 136.293 278.446 136.481 278.982 136.856C279.517 137.231 279.908 137.729 280.154 138.35L278.709 139.024C278.591 138.639 278.382 138.334 278.082 138.109C277.793 137.873 277.407 137.755 276.925 137.755C276.283 137.755 275.795 137.959 275.463 138.366C275.142 138.762 274.981 139.281 274.981 139.924V141.418C274.981 142.061 275.142 142.586 275.463 142.992C275.795 143.389 276.283 143.587 276.925 143.587C277.439 143.587 277.846 143.464 278.146 143.217C278.457 142.96 278.703 142.623 278.885 142.205L280.219 142.912C279.94 143.598 279.522 144.122 278.966 144.487C278.409 144.851 277.729 145.033 276.925 145.033ZM285.069 145.033C284.49 145.033 283.96 144.931 283.478 144.728C283.007 144.524 282.605 144.235 282.273 143.86C281.941 143.474 281.684 143.014 281.502 142.478C281.32 141.932 281.229 141.327 281.229 140.663C281.229 139.999 281.32 139.399 281.502 138.864C281.684 138.318 281.941 137.857 282.273 137.482C282.605 137.097 283.007 136.802 283.478 136.599C283.96 136.395 284.49 136.293 285.069 136.293C285.647 136.293 286.172 136.395 286.643 136.599C287.125 136.802 287.532 137.097 287.864 137.482C288.196 137.857 288.453 138.318 288.635 138.864C288.817 139.399 288.908 139.999 288.908 140.663C288.908 141.327 288.817 141.932 288.635 142.478C288.453 143.014 288.196 143.474 287.864 143.86C287.532 144.235 287.125 144.524 286.643 144.728C286.172 144.931 285.647 145.033 285.069 145.033ZM285.069 143.587C285.669 143.587 286.15 143.405 286.515 143.041C286.879 142.666 287.061 142.109 287.061 141.37V139.956C287.061 139.217 286.879 138.666 286.515 138.302C286.15 137.927 285.669 137.739 285.069 137.739C284.469 137.739 283.987 137.927 283.623 138.302C283.259 138.666 283.077 139.217 283.077 139.956V141.37C283.077 142.109 283.259 142.666 283.623 143.041C283.987 143.405 284.469 143.587 285.069 143.587ZM291.743 134.992C291.379 134.992 291.111 134.906 290.94 134.735C290.779 134.564 290.699 134.344 290.699 134.076V133.803C290.699 133.536 290.779 133.316 290.94 133.145C291.111 132.973 291.379 132.888 291.743 132.888C292.107 132.888 292.37 132.973 292.53 133.145C292.691 133.316 292.771 133.536 292.771 133.803V134.076C292.771 134.344 292.691 134.564 292.53 134.735C292.37 134.906 292.107 134.992 291.743 134.992ZM290.859 136.486H292.611V144.84H290.859V136.486ZM295.111 144.84V136.486H296.862V137.868H296.942C297.124 137.418 297.398 137.043 297.762 136.743C298.137 136.443 298.645 136.293 299.288 136.293C300.145 136.293 300.809 136.577 301.28 137.145C301.762 137.702 302.003 138.5 302.003 139.539V144.84H300.252V139.763C300.252 138.457 299.727 137.803 298.677 137.803C298.453 137.803 298.228 137.836 298.003 137.9C297.789 137.953 297.596 138.039 297.424 138.157C297.253 138.275 297.114 138.425 297.007 138.607C296.91 138.789 296.862 139.003 296.862 139.249V144.84H295.111Z" fill="white"/>
</g>
<mask id="mask0" mask-type="alpha" maskUnits="userSpaceOnUse" x="233" y="108" width="154" height="56">
<rect x="233.835" y="108.8" width="152.32" height="54.74" fill="white"/>
</mask>
<g mask="url(#mask0)">
<rect x="188.615" y="121.89" width="173.145" height="66.64" rx="6.545" stroke="#FFD542" stroke-width="1.19"/>
</g>
<mask id="mask1" mask-type="alpha" maskUnits="userSpaceOnUse" x="11" y="150" width="56" height="49">
<rect x="66.64" y="198.05" width="54.74" height="47.6" transform="rotate(-180 66.64 198.05)" fill="white"/>
</mask>
<g mask="url(#mask1)">
<rect x="172.55" y="183.77" width="126.735" height="66.64" rx="6.545" transform="rotate(-180 172.55 183.77)" stroke="#FFD542" stroke-width="1.19"/>
</g>
</g>
<path fill-rule="evenodd" clip-rule="evenodd" d="M199.75 145.75C218.528 145.75 233.75 130.528 233.75 111.75C233.75 92.9723 218.528 77.75 199.75 77.75C180.972 77.75 165.75 92.9723 165.75 111.75C165.75 130.528 180.972 145.75 199.75 145.75Z" stroke="white" stroke-width="4.25"/>
<path fill-rule="evenodd" clip-rule="evenodd" d="M204.425 111.75L195.925 118.975V104.525L204.425 111.75Z" fill="#FFD542" stroke="#FFD542" stroke-width="3.4" stroke-linejoin="round"/>
<path d="M79.924 199.432C78.22 199.432 76.684 199.168 75.316 198.64C73.948 198.088 72.784 197.284 71.824 196.228C70.864 195.148 70.12 193.816 69.592 192.232C69.064 190.624 68.8 188.752 68.8 186.616C68.8 184.504 69.064 182.632 69.592 181C70.12 179.344 70.864 177.964 71.824 176.86C72.784 175.732 73.948 174.88 75.316 174.304C76.684 173.728 78.22 173.44 79.924 173.44C82.252 173.44 84.172 173.92 85.684 174.88C87.196 175.816 88.408 177.304 89.32 179.344L84.604 181.792C84.268 180.736 83.74 179.896 83.02 179.272C82.324 178.624 81.292 178.3 79.924 178.3C78.316 178.3 77.02 178.828 76.036 179.884C75.076 180.916 74.596 182.428 74.596 184.42V188.452C74.596 190.444 75.076 191.968 76.036 193.024C77.02 194.056 78.316 194.572 79.924 194.572C81.268 194.572 82.336 194.212 83.128 193.492C83.944 192.748 84.544 191.86 84.928 190.828L89.392 193.42C88.456 195.34 87.22 196.828 85.684 197.884C84.172 198.916 82.252 199.432 79.924 199.432ZM104.788 199.432C103.132 199.432 101.62 199.156 100.252 198.604C98.8837 198.052 97.7197 197.236 96.7597 196.156C95.7997 195.052 95.0557 193.696 94.5277 192.088C93.9997 190.456 93.7357 188.572 93.7357 186.436C93.7357 184.3 93.9997 182.428 94.5277 180.82C95.0557 179.188 95.7997 177.832 96.7597 176.752C97.7197 175.648 98.8837 174.82 100.252 174.268C101.62 173.716 103.132 173.44 104.788 173.44C106.444 173.44 107.956 173.716 109.324 174.268C110.692 174.82 111.856 175.648 112.816 176.752C113.776 177.832 114.52 179.188 115.048 180.82C115.576 182.428 115.84 184.3 115.84 186.436C115.84 188.572 115.576 190.456 115.048 192.088C114.52 193.696 113.776 195.052 112.816 196.156C111.856 197.236 110.692 198.052 109.324 198.604C107.956 199.156 106.444 199.432 104.788 199.432ZM104.788 194.572C106.444 194.572 107.728 194.032 108.64 192.952C109.576 191.872 110.044 190.324 110.044 188.308V184.564C110.044 182.548 109.576 181 108.64 179.92C107.728 178.84 106.444 178.3 104.788 178.3C103.132 178.3 101.836 178.84 100.9 179.92C99.9877 181 99.5317 182.548 99.5317 184.564V188.308C99.5317 190.324 99.9877 191.872 100.9 192.952C101.836 194.032 103.132 194.572 104.788 194.572ZM141.142 182.512H141.034L139.198 186.184L134.302 195.076L129.514 186.22L127.606 182.26H127.498V199H122.35V173.872H128.146L134.302 185.644H134.374L140.458 173.872H146.29V199H141.142V182.512ZM152.818 199V194.644H156.058V178.228H152.818V173.872H164.77V178.228H161.53V194.644H164.77V199H152.818ZM178.941 187.12L176.529 182.08H176.421V199H171.273V173.872H177.249L184.125 185.752L186.537 190.792H186.645V173.872H191.793V199H185.817L178.941 187.12ZM215.215 195.004H215.035C214.843 196.276 214.195 197.332 213.091 198.172C211.987 199.012 210.487 199.432 208.591 199.432C207.151 199.432 205.807 199.156 204.559 198.604C203.311 198.052 202.219 197.236 201.283 196.156C200.347 195.076 199.615 193.732 199.087 192.124C198.559 190.516 198.295 188.656 198.295 186.544C198.295 184.432 198.571 182.56 199.123 180.928C199.675 179.296 200.443 177.928 201.427 176.824C202.435 175.72 203.635 174.88 205.027 174.304C206.419 173.728 207.967 173.44 209.671 173.44C211.927 173.44 213.871 173.932 215.503 174.916C217.135 175.876 218.419 177.328 219.355 179.272L214.891 181.828C214.507 180.844 213.907 180.016 213.091 179.344C212.275 178.648 211.135 178.3 209.671 178.3C207.967 178.3 206.611 178.792 205.603 179.776C204.595 180.76 204.091 182.308 204.091 184.42V188.452C204.091 190.54 204.595 192.088 205.603 193.096C206.611 194.08 207.967 194.572 209.671 194.572C210.343 194.572 210.979 194.5 211.579 194.356C212.179 194.188 212.707 193.948 213.163 193.636C213.619 193.3 213.967 192.904 214.207 192.448C214.471 191.992 214.603 191.452 214.603 190.828V189.568H209.923V184.996H219.823V199H215.215V195.004ZM245.673 199.432C243.465 199.432 241.593 199.06 240.057 198.316C238.521 197.548 237.213 196.564 236.133 195.364L239.733 191.728C241.437 193.648 243.537 194.608 246.033 194.608C247.377 194.608 248.373 194.332 249.021 193.78C249.669 193.228 249.993 192.496 249.993 191.584C249.993 190.888 249.801 190.312 249.417 189.856C249.033 189.376 248.253 189.052 247.077 188.884L244.593 188.56C241.929 188.224 239.973 187.42 238.725 186.148C237.501 184.876 236.889 183.184 236.889 181.072C236.889 179.944 237.105 178.912 237.537 177.976C237.969 177.04 238.581 176.236 239.373 175.564C240.189 174.892 241.173 174.376 242.325 174.016C243.501 173.632 244.833 173.44 246.321 173.44C248.217 173.44 249.885 173.74 251.325 174.34C252.765 174.94 254.001 175.816 255.033 176.968L251.397 180.64C250.797 179.944 250.065 179.38 249.201 178.948C248.361 178.492 247.293 178.264 245.997 178.264C244.773 178.264 243.861 178.48 243.261 178.912C242.661 179.344 242.361 179.944 242.361 180.712C242.361 181.576 242.589 182.2 243.045 182.584C243.525 182.968 244.293 183.244 245.349 183.412L247.833 183.808C250.425 184.216 252.345 185.02 253.593 186.22C254.841 187.396 255.465 189.076 255.465 191.26C255.465 192.46 255.249 193.564 254.817 194.572C254.385 195.58 253.749 196.444 252.909 197.164C252.093 197.884 251.073 198.448 249.849 198.856C248.625 199.24 247.233 199.432 245.673 199.432ZM272.025 199.432C270.369 199.432 268.857 199.156 267.489 198.604C266.121 198.052 264.957 197.236 263.997 196.156C263.037 195.052 262.293 193.696 261.765 192.088C261.237 190.456 260.973 188.572 260.973 186.436C260.973 184.3 261.237 182.428 261.765 180.82C262.293 179.188 263.037 177.832 263.997 176.752C264.957 175.648 266.121 174.82 267.489 174.268C268.857 173.716 270.369 173.44 272.025 173.44C273.681 173.44 275.193 173.716 276.561 174.268C277.929 174.82 279.093 175.648 280.053 176.752C281.013 177.832 281.757 179.188 282.285 180.82C282.813 182.428 283.077 184.3 283.077 186.436C283.077 188.572 282.813 190.456 282.285 192.088C281.757 193.696 281.013 195.052 280.053 196.156C279.093 197.236 277.929 198.052 276.561 198.604C275.193 199.156 273.681 199.432 272.025 199.432ZM272.025 194.572C273.681 194.572 274.965 194.032 275.877 192.952C276.813 191.872 277.281 190.324 277.281 188.308V184.564C277.281 182.548 276.813 181 275.877 179.92C274.965 178.84 273.681 178.3 272.025 178.3C270.369 178.3 269.073 178.84 268.137 179.92C267.225 181 266.769 182.548 266.769 184.564V188.308C266.769 190.324 267.225 191.872 268.137 192.952C269.073 194.032 270.369 194.572 272.025 194.572ZM299.668 199.432C298.012 199.432 296.5 199.156 295.132 198.604C293.764 198.052 292.6 197.236 291.64 196.156C290.68 195.052 289.936 193.696 289.408 192.088C288.88 190.456 288.616 188.572 288.616 186.436C288.616 184.3 288.88 182.428 289.408 180.82C289.936 179.188 290.68 177.832 291.64 176.752C292.6 175.648 293.764 174.82 295.132 174.268C296.5 173.716 298.012 173.44 299.668 173.44C301.324 173.44 302.836 173.716 304.204 174.268C305.572 174.82 306.736 175.648 307.696 176.752C308.656 177.832 309.4 179.188 309.928 180.82C310.456 182.428 310.72 184.3 310.72 186.436C310.72 188.572 310.456 190.456 309.928 192.088C309.4 193.696 308.656 195.052 307.696 196.156C306.736 197.236 305.572 198.052 304.204 198.604C302.836 199.156 301.324 199.432 299.668 199.432ZM299.668 194.572C301.324 194.572 302.608 194.032 303.52 192.952C304.456 191.872 304.924 190.324 304.924 188.308V184.564C304.924 182.548 304.456 181 303.52 179.92C302.608 178.84 301.324 178.3 299.668 178.3C298.012 178.3 296.716 178.84 295.78 179.92C294.868 181 294.412 182.548 294.412 184.564V188.308C294.412 190.324 294.868 191.872 295.78 192.952C296.716 194.032 298.012 194.572 299.668 194.572ZM324.898 187.12L322.486 182.08H322.378V199H317.23V173.872H323.206L330.082 185.752L332.494 190.792H332.602V173.872H337.75V199H331.774L324.898 187.12Z" fill="white" fill-opacity="0.7"/>
<defs>
<clipPath id="clip0">
<rect width="318" height="134" fill="white" transform="translate(44.625 67.15)"/>
</clipPath>
</defs>
</svg>
