<svg width="1165" height="52" viewBox="0 0 1165 52" fill="none" xmlns="http://www.w3.org/2000/svg">
<path d="M21 27C68.021 20.4016 117.5 1 190.576 1C271 1 321.5 36 436.185 36C538 36 624.5 1 721 1C806 1 876 36 992.933 33.7049C1067.13 32.2486 1116 31 1144 28" stroke="black" stroke-width="2"/>
<path d="M21.32 40.8386C28.5082 40.8386 34.3353 34.9034 34.3353 27.5819C34.3353 20.2605 28.5082 14.3253 21.32 14.3253C14.1318 14.3253 8.30469 20.2605 8.30469 27.5819C8.30469 34.9034 14.1318 40.8386 21.32 40.8386Z" fill="black"/>
<path d="M1143.5 41.3906C1150.4 41.3906 1156 35.7942 1156 28.8906C1156 21.9871 1150.4 16.3906 1143.5 16.3906C1136.6 16.3906 1131 21.9871 1131 28.8906C1131 35.7942 1136.6 41.3906 1143.5 41.3906Z" fill="#181818"/>
<path d="M1143.58 39.8922C1149.54 39.8922 1154.37 34.9716 1154.37 28.9017C1154.37 22.8318 1149.54 17.9111 1143.58 17.9111C1137.62 17.9111 1132.79 22.8318 1132.79 28.9017C1132.79 34.9716 1137.62 39.8922 1143.58 39.8922Z" stroke="black" stroke-width="4"/>
</svg>
