<svg width="754" height="555" viewBox="0 0 754 555" fill="none" xmlns="http://www.w3.org/2000/svg">
<mask id="mask0" mask-type="alpha" maskUnits="userSpaceOnUse" x="563" y="298" width="191" height="192">
<path fill-rule="evenodd" clip-rule="evenodd" d="M563.189 298.664H753.654V489.721H563.189V298.664Z" fill="white"/>
</mask>
<g mask="url(#mask0)">
<path d="M753.655 394.192C753.655 446.952 711.017 489.721 658.421 489.721C605.827 489.721 563.189 446.952 563.189 394.192C563.189 341.433 605.827 298.664 658.421 298.664C711.017 298.664 753.655 341.433 753.655 394.192" stroke="white"/>
</g>
<path d="M194.716 16.704C149.59 51.3938 114.019 97.9635 95.8706 151.976C55.6173 271.784 114.425 428.703 241.541 465.607C360.289 500.084 496.423 427.23 517.897 301.615C529.65 232.864 538.647 166.542 609.098 134.271C623.47 127.686 638.813 123.247 652.712 115.703C728.834 74.3766 611.471 14.5329 577.568 -3.2425C500.628 -43.5862 410.238 -60.7532 324.582 -43.0616C277.641 -33.3667 232.779 -12.5578 194.716 16.704" stroke="white"/>
<path d="M49.962 222.75C49.962 236.302 39.002 247.286 25.4803 247.286C11.96 247.286 1 236.302 1 222.75C1 209.2 11.96 198.215 25.4803 198.215C39.002 198.215 49.962 209.2 49.962 222.75" stroke="white"/>
<path d="M218.927 506.146C218.927 532.554 197.567 553.961 171.217 553.961C144.867 553.961 123.506 532.554 123.506 506.146C123.506 479.737 144.867 458.329 171.217 458.329C197.567 458.329 218.927 479.737 218.927 506.146" stroke="white"/>
<path d="M56.999 259.462C56.999 262.5 54.5364 264.962 51.499 264.962C48.4616 264.962 45.999 262.5 45.999 259.462C45.999 256.425 48.4616 253.962 51.499 253.962C54.5364 253.962 56.999 256.425 56.999 259.462" stroke="white"/>
<mask id="mask1" mask-type="alpha" maskUnits="userSpaceOnUse" x="582" y="314" width="143" height="144">
<path fill-rule="evenodd" clip-rule="evenodd" d="M582.187 386.196C582.187 425.829 614.094 457.959 653.455 457.959C692.816 457.959 724.723 425.829 724.723 386.196C724.723 346.559 692.816 314.428 653.455 314.428C614.094 314.428 582.187 346.559 582.187 386.196Z" fill="white"/>
</mask>
<g mask="url(#mask1)">
<path d="M582.187 386.196C582.187 425.829 614.094 457.959 653.455 457.959V457.959C692.816 457.959 724.723 425.829 724.723 386.196V386.196C724.723 346.559 692.816 314.428 653.455 314.428V314.428C614.094 314.428 582.187 346.559 582.187 386.196" stroke="white"/>
</g>
<mask id="mask2" mask-type="alpha" maskUnits="userSpaceOnUse" x="134" y="-29" width="485" height="433">
<path fill-rule="evenodd" clip-rule="evenodd" d="M324.27 -20.8088C286.001 -11.4529 249.775 6.94511 219.385 32.0648C183.357 61.8449 155.534 101.074 142.243 145.875C112.765 245.251 165.774 372.059 271.292 398.476C369.868 423.155 479.509 359.368 493.388 255.797C500.983 199.113 506.385 144.499 563.291 115.937C574.9 110.112 587.368 106.014 598.558 99.4149C659.85 63.2646 561.655 17.7597 533.274 4.21184C489.23 -16.8079 440.344 -28.7618 391.508 -28.7632C368.923 -28.7632 346.352 -26.207 324.27 -20.8088Z" fill="white"/>
</mask>
<g mask="url(#mask2)">
<path d="M324.27 -20.8088C286.001 -11.4529 249.775 6.94511 219.385 32.0648V32.0648C183.357 61.8449 155.534 101.074 142.243 145.875V145.875C112.765 245.251 165.774 372.059 271.292 398.476V398.476C369.868 423.155 479.509 359.368 493.388 255.797V255.797C500.983 199.113 506.385 144.499 563.291 115.937V115.937C574.9 110.112 587.368 106.014 598.558 99.4149V99.4149C659.85 63.2646 561.655 17.7597 533.274 4.21184V4.21184C489.23 -16.8079 440.344 -28.7618 391.508 -28.7632V-28.7632C368.923 -28.7632 346.352 -26.207 324.27 -20.8088" stroke="white"/>
</g>
</svg>
