<svg width="52" height="51" viewBox="0 0 52 51" fill="none" xmlns="http://www.w3.org/2000/svg">
<path d="M23.901 34.5907C24.2966 34.2012 24.2966 33.5709 23.901 33.1814C23.5051 32.7931 22.8636 32.7931 22.4673 33.1814C22.0721 33.5709 22.0721 34.2012 22.4673 34.5907C22.8636 34.979 23.5051 34.979 23.901 34.5907Z" fill="#BC995A"/>
<path fill-rule="evenodd" clip-rule="evenodd" d="M30.249 21.9082C24.1026 21.9082 19.1021 16.9939 19.1021 10.9539C19.1021 4.91393 24.1026 0 30.249 0C36.3954 0 41.3959 4.91393 41.3959 10.9539C41.3959 16.9939 36.3954 21.9082 30.249 21.9082ZM30.249 19.9164C35.278 19.9164 39.3694 15.8959 39.3694 10.9539C39.3694 6.01236 35.278 1.9918 30.249 1.9918C25.22 1.9918 21.1285 6.01236 21.1285 10.9539C21.1285 15.8959 25.22 19.9164 30.249 19.9164Z" fill="#00732F"/>
<path fill-rule="evenodd" clip-rule="evenodd" d="M11.723 50.7054C12.1158 51.0945 12.7553 51.0988 13.1532 50.7136L18.0662 45.9572C18.9009 45.137 19.1547 43.9226 18.7877 42.867L19.8445 41.8654C20.4135 41.3254 21.1626 41.0277 21.9545 41.0277H35.4261C37.8161 41.0277 40.075 40.1258 41.7875 38.4881C41.7903 38.4854 41.792 38.4839 41.7934 38.4829C41.7941 38.4823 41.7947 38.4819 41.7953 38.4814C41.8107 38.47 41.8234 38.455 43.4736 36.5157C44.7476 35.0185 46.9975 32.3742 50.978 27.6991C52.4205 26.0221 52.2047 23.5039 50.4966 22.0848C48.7991 20.679 46.2563 20.8809 44.8099 22.5292L38.8301 28.5688C38.0751 27.6555 36.9236 27.0863 35.6795 27.0863H24.3794C22.7714 26.4252 21.0652 26.0906 19.3048 26.0906C14.425 26.0906 10.1642 28.3053 7.87753 32.4578C6.91417 32.2784 5.89815 32.5648 5.16722 33.2831L0.346461 38.0344C-0.047118 38.4223 -0.0479099 39.0499 0.344878 39.439L11.723 50.7054ZM19.3044 28.082C20.8565 28.082 22.3572 28.389 23.7656 28.9944C23.8939 29.0497 24.0321 29.0781 24.1719 29.0781H35.6795C36.7783 29.0781 37.7064 29.9586 37.7064 31.0695C37.7064 32.1679 36.7973 33.0613 35.6795 33.0613H27.4116C26.8521 33.0613 26.3983 33.5072 26.3983 34.057C26.3983 34.6072 26.8521 35.0527 27.4116 35.0527H35.6795C37.9147 35.0527 39.7329 33.266 39.7329 31.0695C39.7329 30.8944 39.7202 30.7209 39.6973 30.5489C41.5736 28.6535 42.9272 27.2866 43.9008 26.3033L43.9158 26.2881C45.9307 24.2534 46.3088 23.8715 46.3323 23.8439C47.0545 23.0062 48.3366 22.9 49.1895 23.6066C50.0432 24.3159 50.1513 25.575 49.4271 26.4174L40.3379 37.0951C39.0107 38.3472 37.2681 39.0363 35.4261 39.0363H21.9545C20.6344 39.0363 19.3848 39.5324 18.4369 40.4324L17.5757 41.2491L9.63676 33.4481C11.4922 30.0275 14.9738 28.082 19.3044 28.082ZM7.85615 34.5504C7.44871 34.3029 6.93555 34.3621 6.60137 34.6905L2.49333 38.739L12.4504 48.5984L16.6388 44.5436C17.0166 44.1724 17.0383 43.5382 16.6333 43.1401C8.09621 34.7626 8.00612 34.6358 7.88356 34.566C7.8754 34.5613 7.86709 34.5569 7.85615 34.5504Z" fill="#BC995A"/>
<path d="M29.0331 4.97949V6.1464C27.8535 6.55729 27.0062 7.66428 27.0062 8.9627C27.0062 10.6098 28.3699 11.9502 30.0463 11.9502C30.605 11.9502 31.0596 12.3969 31.0596 12.9459C31.0596 13.4949 30.605 13.9416 30.0463 13.9416C29.6135 13.9416 29.1459 13.6743 28.7306 13.1883C28.3702 12.7673 27.7312 12.7132 27.3028 13.0669C26.8743 13.421 26.8189 14.049 27.1792 14.47C27.7209 15.1031 28.358 15.5443 29.0331 15.7669V16.9291C29.0331 17.4793 29.4868 17.9248 30.0463 17.9248C30.6058 17.9248 31.0596 17.4793 31.0596 16.9291V15.7622C32.2391 15.3509 33.0865 14.2439 33.0865 12.9459C33.0865 11.2985 31.7228 9.9584 30.0463 9.9584C29.4876 9.9584 29.0331 9.51172 29.0331 8.9627C29.0331 8.41368 29.4876 7.96661 30.0463 7.96661C30.4055 7.96661 30.7844 8.14676 31.1423 8.48722C31.5446 8.86971 32.1861 8.8592 32.5753 8.46426C32.9645 8.06894 32.9538 7.4386 32.5519 7.05611C32.0376 6.56702 31.5228 6.29037 31.0596 6.1394V4.97949C31.0596 4.42931 30.6058 3.9834 30.0463 3.9834C29.4868 3.9834 29.0331 4.42931 29.0331 4.97949Z" fill="#00732F"/>
</svg>
