<svg width="50" height="50" viewBox="0 0 50 50" fill="none" xmlns="http://www.w3.org/2000/svg">
<path d="M11.2906 37.0969C11.7357 37.0969 12.097 37.4582 12.097 37.9034H13.7099C13.7099 36.5695 12.6244 35.484 11.2906 35.484V33.8711H9.67766V35.484H7.2583V37.9034C7.2583 39.2372 8.34378 40.3227 9.67766 40.3227H11.2906C11.7357 40.3227 12.097 40.684 12.097 41.1292V41.9356H9.67766C9.23249 41.9356 8.8712 41.5743 8.8712 41.1292H7.2583C7.2583 42.463 8.34378 43.5485 9.67766 43.5485V45.1614H11.2906V43.5485H13.7099V41.1292C13.7099 39.7953 12.6244 38.7098 11.2906 38.7098H9.67766C9.23249 38.7098 8.8712 38.3485 8.8712 37.9034V37.0969H11.2906Z" fill="#00732F"/>
<path fill-rule="evenodd" clip-rule="evenodd" d="M50 10.4839V0H39.5161V1.6129H47.2468L33.0645 15.7952L27.4194 10.15L17.7573 19.8121C17.2774 19.5282 16.7258 19.3548 16.129 19.3548C15.0575 19.3548 14.4882 20.0044 14.1107 20.4351L14.1097 20.4363C13.7581 20.8379 13.6177 20.9677 13.304 20.9677C12.9895 20.9677 12.85 20.8379 12.4976 20.4363L12.4965 20.4351C12.1191 20.0044 11.5498 19.3548 10.479 19.3548C9.40978 19.3548 8.84053 20.0044 8.46311 20.435L8.46129 20.4371C8.11129 20.8379 7.97097 20.9677 7.65806 20.9677C7.34516 20.9677 7.20565 20.8379 6.85565 20.4371L6.85512 20.4365C6.4785 20.0058 5.90918 19.3548 4.83871 19.3548C3.05968 19.3548 1.6129 20.8016 1.6129 22.5806C1.6129 23.2734 1.84194 23.9605 2.25806 24.5161L6.16452 29.7242L3.49597 32.0589C1.27419 34.0032 0 36.8113 0 39.7637C0 45.4081 4.59194 50 10.2363 50H10.7306C12.7718 50 14.6702 49.3927 16.2685 48.3597C16.5952 49.3105 17.4887 50 18.5484 50H34.6774H47.5806C48.9145 50 50 48.9145 50 47.5806V45.9677C50 45.346 49.7573 44.7839 49.371 44.3548C49.7581 43.9258 50 43.3637 50 42.7419V41.129C50 40.5073 49.7573 39.9452 49.371 39.5161C49.7581 39.0871 50 38.525 50 37.9032V36.2903C50 35.6685 49.7573 35.1064 49.371 34.6774C49.7581 34.2484 50 33.6863 50 33.0645V31.4516C50 30.1177 48.9145 29.0323 47.5806 29.0323H46.7742V12.9032H40.3226V29.0323H38.7097V20.9677H32.2581V29.0323H31.4516C31.1677 29.0323 30.8984 29.0903 30.6452 29.1806V17.7419H24.1935V33.871H19.0895C18.625 33.2121 18.0895 32.5992 17.4718 32.0589L14.8032 29.7242L18.7105 24.5161C19.1258 23.9605 19.3548 23.2734 19.3548 22.5806C19.3548 21.9839 19.1815 21.4323 18.8976 20.9524L27.4194 12.4306L33.0645 18.0758L48.3871 2.75323V10.4839H50ZM18.5484 48.3871C18.1032 48.3871 17.7419 48.0258 17.7419 47.5806V47.2024C18.3565 46.6234 18.8984 45.971 19.3548 45.2565V46.7742H20.9677V45.1613H22.5806V46.7742H24.1935V45.1613H25.8065V46.7742H27.4194V45.1613H29.0323V46.7742H30.6452V45.1613H32.2581V46.7742H33.871V45.1613H34.6774C35.1226 45.1613 35.4839 45.5226 35.4839 45.9677V47.5806C35.4839 48.0258 35.1226 48.3871 34.6774 48.3871H18.5484ZM22.5806 40.3226H20.9395C20.8774 41.4565 20.6363 42.5411 20.2339 43.5484H34.6774C35.1226 43.5484 35.4839 43.1871 35.4839 42.7419V41.129C35.4839 40.6839 35.1226 40.3226 34.6774 40.3226H33.871V41.9355H32.2581V40.3226H30.6452V41.9355H29.0323V40.3226H27.4194V41.9355H25.8065V40.3226H24.1935V41.9355H22.5806V40.3226ZM40.3226 35.4839H41.9355V37.0968H43.5484V35.4839H45.1613V37.0968H46.7742V35.4839H47.5806C48.0258 35.4839 48.3871 35.8452 48.3871 36.2903V37.9032C48.3871 38.3484 48.0258 38.7097 47.5806 38.7097H36.9484C37.0387 38.4565 37.0968 38.1871 37.0968 37.9032V36.2903C37.0968 36.0065 37.0387 35.7371 36.9484 35.4839H38.7097V37.0968H40.3226V35.4839ZM47.5806 43.5484C48.0258 43.5484 48.3871 43.1871 48.3871 42.7419V41.129C48.3871 40.6839 48.0258 40.3226 47.5806 40.3226H46.7742V41.9355H45.1613V40.3226H43.5484V41.9355H41.9355V40.3226H40.3226V41.9355H38.7097V40.3226H36.9484C37.0387 40.5758 37.0968 40.8452 37.0968 41.129V42.7419C37.0968 43.0258 37.0387 43.2952 36.9484 43.5484H47.5806ZM48.3871 47.5806C48.3871 48.0258 48.0258 48.3871 47.5806 48.3871H36.9484C37.0387 48.1339 37.0968 47.8645 37.0968 47.5806V45.9677C37.0968 45.6839 37.0387 45.4145 36.9484 45.1613H38.7097V46.7742H40.3226V45.1613H41.9355V46.7742H43.5484V45.1613H45.1613V46.7742H46.7742V45.1613H47.5806C48.0258 45.1613 48.3871 45.5226 48.3871 45.9677V47.5806ZM45.1613 14.5161H41.9355V29.0323H45.1613V14.5161ZM33.871 22.5806H37.0968V29.0323H33.871V22.5806ZM32.2581 30.6452H31.4516C31.0065 30.6452 30.6452 31.0065 30.6452 31.4516V33.0645C30.6452 33.5097 31.0065 33.871 31.4516 33.871H34.6774H36.2903H47.5806C48.0258 33.871 48.3871 33.5097 48.3871 33.0645V31.4516C48.3871 31.0065 48.0258 30.6452 47.5806 30.6452H46.7742V32.2581H45.1613V30.6452H43.5484V32.2581H41.9355V30.6452H40.3226V32.2581H38.7097V30.6452H37.0968V32.2581H35.4839V30.6452H33.871V32.2581H32.2581V30.6452ZM29.0323 19.3548V31.4516V33.0645V33.871H25.8065V19.3548H29.0323ZM22.5806 37.0968V35.4839H20.0274C20.4944 36.4976 20.7952 37.5863 20.9113 38.7097H34.6774C35.1226 38.7097 35.4839 38.3484 35.4839 37.9032V36.2903C35.4839 35.8452 35.1226 35.4839 34.6774 35.4839H33.871V37.0968H32.2581V35.4839H31.4516H30.6452V37.0968H29.0323V35.4839H27.4194V37.0968H25.8065V35.4839H24.1936V37.0968H22.5806ZM19.3548 39.7637C19.3548 44.5185 15.4863 48.3871 10.7315 48.3871H10.2371C5.48145 48.3871 1.6129 44.5185 1.6129 39.7637C1.6129 37.2774 2.68629 34.9113 4.55726 33.2734L7.56129 30.6452H13.4065L16.4105 33.2734C18.2815 34.9113 19.3548 37.2774 19.3548 39.7637ZM13.3065 29.0323L17.4202 23.5484C17.6274 23.271 17.7419 22.9274 17.7419 22.5806C17.7419 21.6911 17.0185 20.9677 16.129 20.9677C15.8145 20.9677 15.675 21.0976 15.3226 21.4992L15.3215 21.5004C14.9441 21.9311 14.3748 22.5806 13.304 22.5806C12.2325 22.5806 11.6632 21.9311 11.2857 21.5004L11.2847 21.4992C10.9331 21.0976 10.7927 20.9677 10.479 20.9677C10.1661 20.9677 10.0266 21.0976 9.67581 21.4984L9.67399 21.5005C9.29656 21.9311 8.72732 22.5806 7.65806 22.5806C6.5876 22.5806 6.01828 21.9296 5.64166 21.499L5.64113 21.4984C5.29113 21.0976 5.15161 20.9677 4.83871 20.9677C3.94919 20.9677 3.22581 21.6911 3.22581 22.5806C3.22581 22.9274 3.34032 23.271 3.54839 23.5484L7.66129 29.0323H13.3065Z" fill="#BC995A"/>
</svg>
