<svg width="50" height="50" viewBox="0 0 50 50" fill="none" xmlns="http://www.w3.org/2000/svg">
<path fill-rule="evenodd" clip-rule="evenodd" d="M50 25C50 11.2153 38.7847 0 25 0C20.6782 0 16.4677 1.11935 12.7347 3.22581H9.67742V0H4.83871V10.2315C1.67742 14.5379 0 19.6347 0 25C0 38.7855 11.2153 50 25 50C28.0718 50 31.0702 49.4476 33.9129 48.3621C35.5355 49.3935 37.4548 50 39.5161 50C42.0306 50 44.4629 49.096 46.3645 47.4548L45.3105 46.2339C43.7016 47.6226 41.6444 48.3871 39.5161 48.3871C34.625 48.3871 30.6452 44.4073 30.6452 39.5161C30.6452 34.625 34.625 30.6452 39.5161 30.6452C44.4073 30.6452 48.3871 34.625 48.3871 39.5161C48.3871 41.5605 47.7113 43.4823 46.4314 45.0734L47.6887 46.0847C49.179 44.2306 50 41.8984 50 39.5161C50 37.4532 49.3927 35.5339 48.3605 33.9105C49.4452 31.0669 50 28.0718 50 25ZM12.9032 8.06452H14.5161V9.67742V19.3548H12.9032V8.06452ZM11.2903 4.83871H9.67742V19.3548H11.2903V6.45161V4.83871ZM6.45161 1.6129H8.06452V3.22581V19.3548H6.45161V1.6129ZM1.63306 25.8065C2.05161 38.0613 11.9387 47.9484 24.1935 48.3669V25.8065H1.63306ZM24.1935 24.1935H1.64516C1.77661 20.2677 2.86694 16.5161 4.83871 13.1718V20.9677H8.06452H9.67742H11.2903H12.9032H14.5161H16.129H17.7419H19.3548H22.5806V12.9032H19.3548V9.67742H16.129V6.45161H12.9032V4.99355C16.3153 2.92581 20.1927 1.77823 24.1935 1.64113V24.1935ZM16.129 11.2903V19.3548H17.7419V12.9032V11.2903H16.129ZM19.3548 19.3548V14.5161H20.9677V19.3548H19.3548ZM41.4629 24.1935H48.3669C48.2968 22.1387 47.9629 20.1508 47.3935 18.2629L41.4629 24.1935ZM44.3032 11.8145L35.296 20.8218L36.4363 21.9621L45.1863 13.2121C45.8121 14.2798 46.3548 15.4008 46.8081 16.5677L39.1823 24.1935H34.2048L35.2476 23.1508L34.1073 22.0105L31.9242 24.1935H26.9468L42.0863 9.05403C42.8911 9.91694 43.6339 10.8379 44.3032 11.8145ZM31.7371 2.60645C29.8492 2.0371 27.8613 1.70323 25.8065 1.63306V8.5371L31.7371 2.60645ZM25.8065 18.0758L35.6073 8.275L34.4669 7.13468L25.8065 15.7952V10.8177L33.4323 3.19194C34.5992 3.64435 35.7202 4.1871 36.7879 4.81371L35.4887 6.1129L36.629 7.25323L38.1855 5.69677C39.1621 6.36613 40.0831 7.10806 40.946 7.91371L25.8065 23.0532V18.0758ZM29.0323 39.5161C29.0323 33.7355 33.7355 29.0323 39.5161 29.0323C42.5476 29.0323 45.2742 30.3331 47.1903 32.3976C47.8984 30.2726 48.2927 28.0637 48.3685 25.8065H25.8065V48.3685C28.0645 48.2927 30.275 47.9016 32.4 47.1927C30.3347 45.2766 29.0323 42.5492 29.0323 39.5161Z" fill="#BC995A"/>
<path d="M9.91699 38.9458L19.5945 29.2683L20.735 30.4088L11.0575 40.0863L9.91699 38.9458Z" fill="#00732F"/>
<path fill-rule="evenodd" clip-rule="evenodd" d="M16.1289 37.9032C16.1289 36.5694 17.2144 35.4839 18.5483 35.4839C19.8821 35.4839 20.9676 36.5694 20.9676 37.9032C20.9676 39.2371 19.8821 40.3226 18.5483 40.3226C17.2144 40.3226 16.1289 39.2371 16.1289 37.9032ZM17.7418 37.9032C17.7418 38.3484 18.1039 38.7097 18.5483 38.7097C18.9926 38.7097 19.3547 38.3484 19.3547 37.9032C19.3547 37.4581 18.9926 37.0968 18.5483 37.0968C18.1039 37.0968 17.7418 37.4581 17.7418 37.9032Z" fill="#00732F"/>
<path fill-rule="evenodd" clip-rule="evenodd" d="M9.67725 31.4516C9.67725 30.1177 10.7627 29.0322 12.0966 29.0322C13.4305 29.0322 14.516 30.1177 14.516 31.4516C14.516 32.7855 13.4305 33.8709 12.0966 33.8709C10.7627 33.8709 9.67725 32.7855 9.67725 31.4516ZM11.2901 31.4516C11.2901 31.8967 11.6522 32.258 12.0966 32.258C12.541 32.258 12.9031 31.8967 12.9031 31.4516C12.9031 31.0064 12.541 30.6451 12.0966 30.6451C11.6522 30.6451 11.2901 31.0064 11.2901 31.4516Z" fill="#00732F"/>
<path d="M39.5163 38.7099C38.6268 38.7099 37.9034 37.9865 37.9034 37.097C37.9034 36.2075 38.6268 35.4841 39.5163 35.4841C40.4058 35.4841 41.1292 36.2075 41.1292 37.097H42.7421C42.7421 35.5978 41.7099 34.3462 40.3228 33.9857V32.2583H38.7099V33.9857C37.3228 34.3462 36.2905 35.5978 36.2905 37.097C36.2905 38.876 37.7373 40.3228 39.5163 40.3228C40.4058 40.3228 41.1292 41.0462 41.1292 41.9357C41.1292 42.8252 40.4058 43.5486 39.5163 43.5486C38.6268 43.5486 37.9034 42.8252 37.9034 41.9357H36.2905C36.2905 43.4349 37.3228 44.6865 38.7099 45.047V46.7744H40.3228V45.047C41.7099 44.6865 42.7421 43.4349 42.7421 41.9357C42.7421 40.1567 41.2954 38.7099 39.5163 38.7099Z" fill="#00732F"/>
<rect x="45.1611" y="38.7095" width="1.6129" height="1.6129" fill="#00732F"/>
<rect x="32.2583" y="38.7095" width="1.6129" height="1.6129" fill="#00732F"/>
</svg>
