<svg width="51" height="51" viewBox="0 0 51 51" fill="none" xmlns="http://www.w3.org/2000/svg">
<path fill-rule="evenodd" clip-rule="evenodd" d="M36.594 16.7336C38.1212 15.4049 40.1034 14.6009 42.2671 14.6009C47.0825 14.6009 51 18.5806 51 23.4723C51 28.3641 47.0825 32.3438 42.2671 32.3438C37.4518 32.3438 33.5343 28.3641 33.5343 23.4723C33.5343 21.3269 34.2879 19.357 35.5403 17.8212L31.983 14.8098C30.3835 16.6103 28.0697 17.7439 25.5 17.7439C23.7574 17.7439 22.1326 17.2225 20.7683 16.3255L14.666 21.8359C16.3868 23.4573 17.4657 25.7724 17.4657 28.3391C17.4657 33.2308 13.5482 37.2105 8.73285 37.2105C3.91754 37.2105 0 33.2309 0 28.3391C0 23.4472 3.91754 19.4676 8.73285 19.4675C10.4754 19.4675 12.1002 19.9889 13.4646 20.8859L19.5669 15.3756C17.846 13.7542 16.7671 11.4391 16.7671 8.87245C16.7671 3.9807 20.6847 0.000976562 25.5 0.000976562C30.3153 0.000976562 34.2329 3.9807 34.2329 8.87245C34.2329 10.6077 33.7396 12.2278 32.8884 13.5966L36.594 16.7336ZM8.73285 35.6897C12.7227 35.6897 15.9687 32.3923 15.9687 28.3391C15.9687 24.2859 12.7227 20.9884 8.73285 20.9884C4.743 20.9884 1.49703 24.2859 1.49703 28.3391C1.49703 32.3923 4.743 35.6897 8.73285 35.6897ZM25.5 16.2231C21.5101 16.2231 18.2642 12.9256 18.2642 8.87245C18.2642 4.81926 21.5101 1.52177 25.5 1.52177C29.4899 1.52177 32.7358 4.81926 32.7358 8.87245C32.7358 12.9256 29.4899 16.2231 25.5 16.2231ZM35.0313 23.4724C35.0313 27.5256 38.2773 30.8231 42.2671 30.8231C46.257 30.8231 49.503 27.5256 49.5029 23.4725C49.5029 19.4193 46.2569 16.1218 42.267 16.1218C40.3845 16.1218 38.6682 16.8565 37.3797 18.0575C37.3509 18.1367 37.3094 18.2128 37.2531 18.2814C37.166 18.3876 37.0561 18.4627 36.937 18.5072C35.7545 19.8161 35.0313 21.5599 35.0313 23.4724Z" fill="#BC995A"/>
<path fill-rule="evenodd" clip-rule="evenodd" d="M9.53128 39.7451H15.9187C16.3321 39.7451 16.6673 40.0854 16.6673 40.5056V50.2389C16.6673 50.6589 16.3321 50.9993 15.9187 50.9993H9.53128C9.1179 50.9993 8.78271 50.6589 8.78271 50.2389V40.5056C8.78271 40.0855 9.1179 39.7451 9.53128 39.7451ZM10.2797 49.4784H15.1702V41.2659H10.2797V49.4784Z" fill="#BC995A"/>
<path fill-rule="evenodd" clip-rule="evenodd" d="M40.6704 39.7451H47.0579C47.4714 39.7451 47.8064 40.0854 47.8065 40.5056V50.2389C47.8065 50.6589 47.4714 50.9993 47.0579 50.9993H40.6704C40.257 50.9993 39.9219 50.6589 39.9219 50.2389V40.5056C39.9219 40.0855 40.257 39.7451 40.6704 39.7451ZM41.4189 49.4784H46.3093V41.2659H41.4189V49.4784Z" fill="#BC995A"/>
<path d="M26.2982 42.9391C26.7117 42.9391 27.0468 42.5987 27.0468 42.1787V30.7722C27.0468 30.3521 26.7117 30.0117 26.2982 30.0117H19.9107C19.4973 30.0117 19.1621 30.3521 19.1621 30.7722V50.2388C19.1621 50.6588 19.4973 50.9992 19.9107 50.9992H26.2981C26.7116 50.9992 27.0467 50.6588 27.0467 50.2388V45.7272C27.0467 45.3072 26.7116 44.9668 26.2981 44.9668C25.8846 44.9668 25.5496 45.3072 25.5496 45.7272V49.4783H20.6591V31.5325H25.5496V42.1786C25.5497 42.5987 25.8847 42.9391 26.2982 42.9391Z" fill="#00732F"/>
<path fill-rule="evenodd" clip-rule="evenodd" d="M30.2906 34.8784H36.678C37.0915 34.8784 37.4266 35.2188 37.4266 35.6389V50.2388C37.4266 50.6589 37.0915 50.9993 36.678 50.9993H30.2906C29.8771 50.9993 29.542 50.6589 29.542 50.2388V35.6389C29.542 35.2188 29.8771 34.8784 30.2906 34.8784ZM31.0391 49.4784H35.9295V36.3992H31.0391V49.4784Z" fill="#BC995A"/>
</svg>
