<svg width="50" height="50" viewBox="0 0 50 50" fill="none" xmlns="http://www.w3.org/2000/svg">
<path d="M20.1611 45.1611H29.8386V46.774H20.1611V45.1611Z" fill="#BC995A"/>
<path fill-rule="evenodd" clip-rule="evenodd" d="M38.7097 41.9355H11.2903V35.463L10.5985 35.3638C5.47584 34.629 1.6129 30.1734 1.6129 25C1.6129 19.8266 5.47584 15.371 10.5985 14.6362L11.2903 14.537V7.25806H38.7097V10.4839H40.3226V4.03226C40.3226 1.809 38.5136 0 36.2903 0H13.7097C11.4864 0 9.67742 1.809 9.67742 4.03226V13.1596C4.11377 14.2944 0 19.2655 0 25C0 30.7345 4.11377 35.7056 9.67742 36.8404V45.9677C9.67742 48.191 11.4864 50 13.7097 50H36.2903C38.5136 50 40.3226 48.191 40.3226 45.9677V32.2581H38.7097V41.9355ZM13.7097 1.6129H36.2903C37.624 1.6129 38.7097 2.69854 38.7097 4.03226V5.64516H11.2903V4.03226C11.2903 2.69854 12.376 1.6129 13.7097 1.6129ZM13.7097 48.3871H36.2903C37.624 48.3871 38.7097 47.3015 38.7097 45.9677V43.5484H11.2903V45.9677C11.2903 47.3015 12.376 48.3871 13.7097 48.3871Z" fill="#BC995A"/>
<path d="M5.22872 19.3862C3.93674 20.9653 3.22559 22.959 3.22559 24.9999C3.22559 29.891 7.20547 33.8709 12.0966 33.8709C14.1375 33.8709 16.1312 33.1589 17.7102 31.8669L16.6884 30.6191C15.3972 31.6756 13.7658 32.258 12.0966 32.258C8.09501 32.258 4.83849 29.0022 4.83849 24.9999C4.83849 23.3307 5.42088 21.6993 6.47738 20.4089L5.22872 19.3862Z" fill="#00732F"/>
<path d="M18.9644 30.6135C20.2564 29.0345 20.9675 27.0408 20.9675 24.9999C20.9675 20.1088 16.9877 16.1289 12.0966 16.1289C10.0556 16.1289 8.06195 16.8409 6.48291 18.1328L7.50476 19.3807C8.79595 18.3242 10.4274 17.7418 12.0966 17.7418C16.0981 17.7418 19.3546 20.9975 19.3546 24.9999C19.3546 26.6691 18.7722 28.3005 17.7157 29.5909L18.9644 30.6135Z" fill="#00732F"/>
<path d="M24.1936 24.9998C24.1936 18.6868 19.2588 13.3917 12.9604 12.9468L12.8462 14.5546C18.3051 14.9416 22.5807 19.5295 22.5807 24.9998C22.5807 30.4702 18.3051 35.058 12.8462 35.4451L12.9604 37.0529C19.2588 36.6079 24.1936 31.3128 24.1936 24.9998Z" fill="#BC995A"/>
<path fill-rule="evenodd" clip-rule="evenodd" d="M29.0324 32.2578V37.0965H27.4195V32.2578H25.8066V22.5804H27.4195V17.7417H29.0324V22.5804H30.6454V32.2578H29.0324ZM29.0324 24.1933H27.4195V30.6449H29.0324V24.1933Z" fill="#00732F"/>
<path fill-rule="evenodd" clip-rule="evenodd" d="M35.4841 21.7742V33.871H33.8712V21.7742H32.2583V16.9355H33.8712V14.5161H35.4841V16.9355H37.097V21.7742H35.4841ZM35.4841 18.5484H33.8712V20.1613H35.4841V18.5484Z" fill="#00732F"/>
<path fill-rule="evenodd" clip-rule="evenodd" d="M40.3224 12.0967H41.9353V23.387H43.5482V28.2257H41.9353V30.6451H40.3224V28.2257H38.7095V23.387H40.3224V12.0967ZM40.3224 26.6128H41.9353V24.9999H40.3224V26.6128Z" fill="#BC995A"/>
<path fill-rule="evenodd" clip-rule="evenodd" d="M48.3869 10.4838H49.9998V20.1612H48.3869V27.4193H46.774V20.1612H45.1611V10.4838H46.774V8.06445H48.3869V10.4838ZM46.774 18.5483H48.3869V12.0967H46.774V18.5483Z" fill="#BC995A"/>
</svg>
