<svg width="43" height="43" viewBox="0 0 43 43" fill="none" xmlns="http://www.w3.org/2000/svg">
<path fill-rule="evenodd" clip-rule="evenodd" d="M40.4805 22.7598H41.7402C42.4361 22.7598 43 23.3237 43 24.0195V34.0977C43 34.7935 42.4361 35.3574 41.7402 35.3574H40.4805V39.2207C40.4805 41.3046 38.785 43 36.7012 43H6.29883C4.61586 43 3.03065 42.3262 1.83486 41.1028C0.651535 39.8926 0 38.2995 0 36.6172V12.5977C0 9.81895 2.26036 7.55859 5.03906 7.55859H7.64258V1.25977C7.64258 0.563942 8.20652 0 8.90234 0H29.1426C29.8384 0 30.4023 0.563942 30.4023 1.25977V7.55859H34.1816C36.2655 7.55859 37.9609 9.25403 37.9609 11.3379V15.3337C39.4274 15.854 40.4805 17.2542 40.4805 18.8965V22.7598ZM35.4414 11.3379C35.4414 10.6434 34.8762 10.0781 34.1816 10.0781H30.4023V15.1172H35.4414V11.3379ZM27.8828 15.1172H20.2402V2.51953H27.8828V15.1172ZM15.2012 2.51953V15.1172H17.7207V2.51953H15.2012ZM10.1621 2.51953H12.6816V15.1172H10.1621V2.51953ZM7.64258 10.0781H5.03906C3.64971 10.0781 2.51953 11.2083 2.51953 12.5977C2.51953 13.987 3.64971 15.1172 5.03906 15.1172H7.64258V10.0781ZM37.9609 39.2207C37.9609 39.9152 37.3957 40.4805 36.7012 40.4805H6.29883C4.25007 40.4805 2.51953 38.7112 2.51953 36.6172V16.9589C3.26128 17.389 4.12147 17.6367 5.03906 17.6367H36.7012C37.3957 17.6367 37.9609 18.202 37.9609 18.8965V22.7598H34.1816C30.7084 22.7598 27.8828 25.5854 27.8828 29.0586C27.8828 32.5318 30.7084 35.3574 34.1816 35.3574H37.9609V39.2207ZM34.1816 32.8379H40.4805V25.2793H34.1816C32.0978 25.2793 30.4023 26.9747 30.4023 29.0586C30.4023 31.1425 32.0978 32.8379 34.1816 32.8379Z" fill="#BC995A"/>
<path d="M35.4414 29.0586C35.4414 29.7544 34.8775 30.3184 34.1816 30.3184C33.4858 30.3184 32.9219 29.7544 32.9219 29.0586C32.9219 28.3628 33.4858 27.7988 34.1816 27.7988C34.8775 27.7988 35.4414 28.3628 35.4414 29.0586Z" fill="#00732F"/>
</svg>
