<svg width="16" height="16" viewBox="0 0 16 16" fill="none" xmlns="http://www.w3.org/2000/svg">
<path fill-rule="evenodd" clip-rule="evenodd" d="M10.4423 2.51561C9.26049 1.98901 7.94008 1.85856 6.67804 2.1437C5.416 2.42884 4.27994 3.1143 3.43929 4.09785C2.59865 5.08141 2.09846 6.31035 2.01333 7.6014C1.9282 8.89245 2.26269 10.1764 2.9669 11.2619C3.67112 12.3473 4.70733 13.176 5.92101 13.6244C7.13468 14.0728 8.46078 14.1168 9.70154 13.75C10.9423 13.3831 12.0312 12.625 12.8059 11.5887C13.5806 10.5524 13.9996 9.29346 14.0003 7.99961V7.38666C14.0003 7.01847 14.2988 6.71999 14.667 6.71999C15.0352 6.71999 15.3337 7.01847 15.3337 7.38666V7.99999C15.3328 9.58137 14.8207 11.1205 13.8738 12.387C12.927 13.6536 11.5961 14.5802 10.0796 15.0286C8.56311 15.4769 6.94232 15.4231 5.45894 14.8751C3.97556 14.327 2.70907 13.3142 1.84836 11.9876C0.987654 10.6609 0.578839 9.09162 0.682888 7.51367C0.786938 5.93572 1.39828 4.43368 2.42573 3.23156C3.45318 2.02944 4.8417 1.19165 6.3842 0.843146C7.92669 0.49464 9.54052 0.654086 10.985 1.29771C11.3213 1.44756 11.4725 1.84168 11.3226 2.17799C11.1728 2.51431 10.7786 2.66546 10.4423 2.51561Z" fill="#54B489"/>
<path fill-rule="evenodd" clip-rule="evenodd" d="M15.1385 2.19503C15.399 2.45525 15.3992 2.87736 15.139 3.13784L8.47229 9.81117C8.34729 9.9363 8.17769 10.0066 8.00082 10.0067C7.82395 10.0067 7.65431 9.93647 7.52925 9.8114L5.52925 7.8114C5.2689 7.55106 5.2689 7.12895 5.52925 6.8686C5.7896 6.60825 6.21171 6.60825 6.47206 6.8686L8.00042 8.39696L14.1957 2.1955C14.4559 1.93502 14.878 1.93481 15.1385 2.19503Z" fill="#54B489"/>
</svg>
