<svg width="16" height="16" viewBox="0 0 16 16" fill="none" xmlns="http://www.w3.org/2000/svg">
<path fill-rule="evenodd" clip-rule="evenodd" d="M8.00033 2.00008C4.68662 2.00008 2.00033 4.68637 2.00033 8.00008C2.00033 11.3138 4.68662 14.0001 8.00033 14.0001C11.314 14.0001 14.0003 11.3138 14.0003 8.00008C14.0003 4.68637 11.314 2.00008 8.00033 2.00008ZM0.666992 8.00008C0.666992 3.94999 3.95024 0.666748 8.00033 0.666748C12.0504 0.666748 15.3337 3.94999 15.3337 8.00008C15.3337 12.0502 12.0504 15.3334 8.00033 15.3334C3.95024 15.3334 0.666992 12.0502 0.666992 8.00008Z" fill="#E85E59"/>
<path fill-rule="evenodd" clip-rule="evenodd" d="M8.00033 8.66675C8.36852 8.66675 8.66699 8.36827 8.66699 8.00008V5.33342C8.66699 4.96523 8.36852 4.66675 8.00033 4.66675C7.63214 4.66675 7.33366 4.96523 7.33366 5.33342V8.00008C7.33366 8.36827 7.63214 8.66675 8.00033 8.66675Z" fill="#E85E59"/>
<path d="M8.66699 10.6667C8.66699 10.2986 8.36852 10.0001 8.00033 10.0001C7.63214 10.0001 7.33366 10.2986 7.33366 10.6667C7.33366 11.0349 7.63214 11.3334 8.00033 11.3334C8.36852 11.3334 8.66699 11.0349 8.66699 10.6667Z" fill="#E85E59"/>
</svg>
