<svg width="49" height="48" viewBox="0 0 49 48" fill="none" xmlns="http://www.w3.org/2000/svg">
<path fill-rule="evenodd" clip-rule="evenodd" d="M48.0196 24C48.0196 37.2552 37.2704 48 24.0098 48C10.7492 48 0 37.2552 0 24C0 10.7448 10.7492 0 24.0098 0C37.2704 0 48.0196 10.7448 48.0196 24Z" fill="#FFD541"/>
<path fill-rule="evenodd" clip-rule="evenodd" d="M31.9232 15.1101H16.0947C15.8354 15.1101 15.5869 15.2133 15.4032 15.3969C15.2196 15.5805 15.1163 15.8301 15.1163 16.0881V31.9101C15.1163 32.0385 15.1415 32.1657 15.1908 32.2857C15.2412 32.4033 15.312 32.5113 15.4032 32.6013C15.4933 32.6925 15.6013 32.7645 15.7202 32.8137C15.8402 32.8629 15.9663 32.8881 16.0947 32.8881H24.6134V25.9989H22.3013V23.3337H24.6134V21.3333C24.5654 20.8629 24.6218 20.3889 24.7767 19.9425C24.9315 19.4973 25.1824 19.0905 25.5102 18.7521C25.8403 18.4125 26.2389 18.1497 26.6794 17.9829C27.1212 17.8137 27.5942 17.7429 28.0636 17.7777C28.7563 17.7729 29.4478 17.8089 30.1369 17.8845V20.2845H28.7227C27.6014 20.2845 27.3889 20.8173 27.3889 21.5901V23.3061H30.0552L29.7095 25.9737H27.3889V32.8881H31.9232C32.0516 32.8881 32.1789 32.8629 32.2977 32.8137C32.4166 32.7645 32.5246 32.6925 32.6147 32.6013C32.7059 32.5113 32.7779 32.4033 32.8271 32.2857C32.8764 32.1657 32.9016 32.0385 32.9016 31.9101V16.0881C32.9016 15.9597 32.8764 15.8337 32.8271 15.7149C32.7779 15.5949 32.7059 15.4869 32.6147 15.3969C32.5246 15.3057 32.4166 15.2349 32.2977 15.1845C32.1789 15.1353 32.0516 15.1101 31.9232 15.1101Z" fill="black"/>
</svg>
