<svg width="50" height="48" viewBox="0 0 50 48" fill="none" xmlns="http://www.w3.org/2000/svg">
<path fill-rule="evenodd" clip-rule="evenodd" d="M48.383 24C48.383 37.2552 37.6338 48 24.3732 48C11.1126 48 0.363464 37.2552 0.363464 24C0.363464 10.7448 11.1126 0 24.3732 0C37.6338 0 48.383 10.7448 48.383 24Z" fill="#FFD541"/>
<path fill-rule="evenodd" clip-rule="evenodd" d="M27.5973 24.7829C27.5973 23.8925 27.2816 23.1329 26.6525 22.5041C26.0222 21.8741 25.2623 21.5585 24.3716 21.5585C23.482 21.5585 22.7221 21.8741 22.0918 22.5041C21.4628 23.1329 21.1471 23.8925 21.1471 24.7829C21.1471 25.6721 21.4628 26.4317 22.0918 27.0605C22.7221 27.6917 23.482 28.0061 24.3716 28.0061C25.2623 28.0061 26.0222 27.6917 26.6525 27.0605C27.2816 26.4317 27.5973 25.6721 27.5973 24.7829ZM29.3356 24.7829C29.3356 26.1581 28.853 27.3305 27.8866 28.2965C26.9214 29.2601 25.7497 29.7437 24.3716 29.7437C22.9946 29.7437 21.8229 29.2601 20.8577 28.2965C19.8925 27.3305 19.4099 26.1581 19.4099 24.7829C19.4099 23.4065 19.8925 22.2353 20.8577 21.2693C21.8229 20.3045 22.9946 19.8209 24.3716 19.8209C25.7497 19.8209 26.9214 20.3045 27.8866 21.2693C28.853 22.2353 29.3356 23.4065 29.3356 24.7829ZM30.6957 19.6193C30.6957 19.9385 30.5817 20.2109 30.356 20.4389C30.1291 20.6645 29.8566 20.7785 29.5373 20.7785C29.2179 20.7785 28.9454 20.6645 28.7185 20.4389C28.4916 20.2109 28.3776 19.9385 28.3776 19.6193C28.3776 19.3013 28.4916 19.0277 28.7185 18.8021C28.9454 18.5741 29.2179 18.4613 29.5373 18.4613C29.8566 18.4613 30.1291 18.5741 30.356 18.8021C30.5817 19.0277 30.6957 19.3013 30.6957 19.6193ZM24.3716 16.8497C24.3139 16.8497 23.9922 16.8485 23.4088 16.8437C22.8241 16.8401 22.3824 16.8401 22.0798 16.8437C21.7773 16.8485 21.3715 16.8593 20.8649 16.8809C20.3559 16.9025 19.9226 16.9445 19.5672 17.0081C19.2107 17.0693 18.9105 17.1485 18.6668 17.2409C18.2467 17.4077 17.8757 17.6513 17.5576 17.9705C17.2383 18.2897 16.9946 18.6581 16.8265 19.0781C16.7341 19.3217 16.6572 19.6217 16.5936 19.9781C16.53 20.3357 16.4892 20.7677 16.4675 21.2753C16.4471 21.7841 16.4339 22.1885 16.4303 22.4909C16.4255 22.7933 16.4255 23.2361 16.4303 23.8193C16.4339 24.4037 16.4363 24.7241 16.4363 24.7829C16.4363 24.8417 16.4339 25.1621 16.4303 25.7465C16.4255 26.3297 16.4255 26.7713 16.4303 27.0737C16.4339 27.3761 16.4471 27.7817 16.4675 28.2893C16.4892 28.7981 16.53 29.2289 16.5936 29.5865C16.6572 29.9429 16.7341 30.2429 16.8265 30.4865C16.9946 30.9065 17.2383 31.2749 17.5576 31.5953C17.8757 31.9133 18.2467 32.1581 18.6668 32.3249C18.9105 32.4173 19.2107 32.4953 19.5672 32.5577C19.9226 32.6201 20.3559 32.6621 20.8649 32.6837C21.3715 32.7053 21.7773 32.7173 22.0798 32.7209C22.3824 32.7257 22.8241 32.7257 23.4088 32.7209C23.9922 32.7173 24.3139 32.7149 24.3716 32.7149C24.4304 32.7149 24.7521 32.7173 25.3356 32.7209C25.9202 32.7257 26.3632 32.7257 26.6657 32.7209C26.9682 32.7173 27.3728 32.7053 27.8806 32.6837C28.3884 32.6621 28.8218 32.6201 29.1771 32.5577C29.5349 32.4953 29.835 32.4173 30.0787 32.3249C30.4989 32.1581 30.8686 31.9133 31.1867 31.5953C31.5061 31.2749 31.7498 30.9065 31.9178 30.4865C32.0103 30.2429 32.0871 29.9429 32.1507 29.5865C32.2144 29.2289 32.2564 28.7981 32.2768 28.2893C32.2984 27.7817 32.3104 27.3761 32.3152 27.0737C32.3188 26.7713 32.3188 26.3297 32.3152 25.7465C32.3104 25.1621 32.308 24.8417 32.308 24.7829C32.308 24.7241 32.3104 24.4037 32.3152 23.8193C32.3188 23.2361 32.3188 22.7933 32.3152 22.4909C32.3104 22.1885 32.2984 21.7841 32.2768 21.2753C32.2564 20.7677 32.2144 20.3357 32.1507 19.9781C32.0871 19.6217 32.0103 19.3217 31.9178 19.0781C31.7498 18.6581 31.5061 18.2897 31.1867 17.9705C30.8686 17.6513 30.4989 17.4077 30.0787 17.2409C29.835 17.1485 29.5349 17.0693 29.1771 17.0081C28.8218 16.9445 28.3884 16.9025 27.8806 16.8809C27.3728 16.8593 26.9682 16.8485 26.6657 16.8437C26.3632 16.8401 25.9202 16.8401 25.3356 16.8437C24.7521 16.8485 24.4304 16.8497 24.3716 16.8497ZM34.0463 24.7829C34.0463 26.7053 34.0247 28.0361 33.9839 28.7741C33.8999 30.5201 33.3788 31.8713 32.422 32.8289C31.4641 33.7853 30.1123 34.3061 28.3656 34.3901C27.6261 34.4321 26.296 34.4537 24.3716 34.4537C22.4496 34.4537 21.1194 34.4321 20.3787 34.3901C18.632 34.3061 17.2803 33.7853 16.3223 32.8289C15.3667 31.8713 14.8445 30.5201 14.7617 28.7741C14.7184 28.0361 14.698 26.7053 14.698 24.7829C14.698 22.8593 14.7184 21.5297 14.7617 20.7917C14.8445 19.0457 15.3667 17.6933 16.3223 16.7369C17.2803 15.7793 18.632 15.2585 20.3787 15.1745C21.1194 15.1337 22.4496 15.1121 24.3716 15.1121C26.296 15.1121 27.6261 15.1337 28.3656 15.1745C30.1123 15.2585 31.4641 15.7793 32.422 16.7369C33.3788 17.6933 33.8999 19.0457 33.9839 20.7917C34.0247 21.5297 34.0463 22.8593 34.0463 24.7829Z" fill="black"/>
</svg>
