<svg width="50" height="48" viewBox="0 0 50 48" fill="none" xmlns="http://www.w3.org/2000/svg">
<path fill-rule="evenodd" clip-rule="evenodd" d="M48.5041 24C48.5041 37.2552 37.7549 48 24.4943 48C11.2337 48 0.484497 37.2552 0.484497 24C0.484497 10.7448 11.2337 0 24.4943 0C37.7549 0 48.5041 10.7448 48.5041 24Z" fill="#FFD541"/>
<path fill-rule="evenodd" clip-rule="evenodd" d="M30.1356 14.3296H18.851C16.6241 14.3296 14.8186 16.1332 14.8186 18.358V29.6404C14.8186 31.8652 16.6241 33.6688 18.851 33.6688H30.1356C32.3625 33.6688 34.1669 31.8652 34.1669 29.6404V18.358C34.1669 16.1332 32.3625 14.3296 30.1356 14.3296ZM18.8498 29.6404H21.2676V20.776H18.8498V29.6404ZM20.0587 19.7548C19.2808 19.7548 18.6493 19.1176 18.6493 18.3328C18.6493 17.548 19.2808 16.9108 20.0587 16.9108C20.8378 16.9108 21.4693 17.548 21.4693 18.3328C21.4693 19.1176 20.839 19.7548 20.0587 19.7548ZM30.9423 29.6404H28.5234V25.1248C28.5234 22.4104 25.3 22.6156 25.3 25.1248V29.6404H22.8811V20.776H25.3V22.1992C26.4249 20.1136 30.9423 19.96 30.9423 24.1936V29.6404Z" fill="black"/>
</svg>
