<svg width="50" height="48" viewBox="0 0 50 48" fill="none" xmlns="http://www.w3.org/2000/svg">
<path fill-rule="evenodd" clip-rule="evenodd" d="M48.1382 24C48.1382 37.2552 37.389 48 24.1284 48C10.8678 48 0.118652 37.2552 0.118652 24C0.118652 10.7448 10.8678 0 24.1284 0C37.389 0 48.1382 10.7448 48.1382 24Z" fill="#FFD541"/>
<path fill-rule="evenodd" clip-rule="evenodd" d="M16.5786 19.3488C16.6026 19.1064 16.5089 18.8664 16.3289 18.702L14.4801 16.476V16.1436H20.2196L24.6566 25.8708L28.5582 16.1436H34.0301V16.476L32.4502 17.9904C32.3134 18.0948 32.2461 18.2652 32.2738 18.4344V29.5668C32.2461 29.7348 32.3134 29.9052 32.4502 30.0096L33.9941 31.524V31.8564H26.2293V31.524L27.8283 29.9724C27.9856 29.8152 27.9856 29.7696 27.9856 29.5284V20.5308L23.539 31.8204H22.9375L17.761 20.5308V28.0968C17.7178 28.416 17.8235 28.7352 18.048 28.9656L20.1272 31.4868V31.8204H14.2304V31.4868L16.3096 28.9656C16.5317 28.734 16.6326 28.4124 16.5786 28.0968V19.3488Z" fill="black"/>
</svg>
