<svg width="50" height="48" viewBox="0 0 50 48" fill="none" xmlns="http://www.w3.org/2000/svg">
<path fill-rule="evenodd" clip-rule="evenodd" d="M48.8651 24C48.8651 37.2552 38.116 48 24.8554 48C11.5948 48 0.845581 37.2552 0.845581 24C0.845581 10.7448 11.5948 0 24.8554 0C38.116 0 48.8651 10.7448 48.8651 24Z" fill="#FFD541"/>
<path fill-rule="evenodd" clip-rule="evenodd" d="M26.7722 26.864C26.8454 26.936 26.8454 27.0524 26.7722 27.1256C26.3736 27.5216 25.7494 27.7136 24.8622 27.7136L24.855 27.7124L24.8478 27.7136C23.9618 27.7136 23.3376 27.5216 22.9402 27.1256C22.8658 27.0524 22.8658 26.936 22.9402 26.864C23.011 26.792 23.1299 26.792 23.2019 26.864C23.5261 27.1868 24.0651 27.344 24.8478 27.344L24.855 27.3452L24.8622 27.344C25.6461 27.344 26.1839 27.1868 26.5093 26.864C26.5825 26.792 26.6989 26.792 26.7722 26.864ZM23.8274 24.7952C23.8274 24.3608 23.4732 24.0092 23.0387 24.0092C22.6017 24.0092 22.2475 24.3608 22.2475 24.7952C22.2475 25.2284 22.6017 25.5812 23.0387 25.5812C23.4732 25.5824 23.8274 25.2296 23.8274 24.7952ZM35.1276 23.9996C35.1276 29.6696 30.5285 34.2668 24.8562 34.2668C19.1851 34.2668 14.586 29.6696 14.586 23.9996C14.586 18.3308 19.1851 13.7336 24.8562 13.7336C30.5285 13.7336 35.1276 18.3308 35.1276 23.9996ZM30.8478 23.8892C30.8478 23.1608 30.2524 22.5692 29.5213 22.5692C29.1636 22.5692 28.8406 22.712 28.6017 22.9412C27.6978 22.346 26.4745 21.968 25.1215 21.92L25.8622 19.5896L27.867 20.0588L27.8646 20.0888C27.8646 20.684 28.3508 21.1676 28.9499 21.1676C29.5489 21.1676 30.0351 20.684 30.0351 20.0888C30.0351 19.4924 29.5489 19.0076 28.9499 19.0076C28.4913 19.0076 28.0987 19.2944 27.9415 19.6952L25.7806 19.1888C25.6857 19.1672 25.5897 19.2212 25.5597 19.3136L24.7337 21.9128C23.316 21.9308 22.0338 22.3112 21.0903 22.9232C20.8526 22.7048 20.5392 22.568 20.1911 22.568C19.46 22.5692 18.8646 23.1608 18.8646 23.8892C18.8646 24.374 19.1311 24.7916 19.5224 25.0232C19.496 25.1636 19.4792 25.3052 19.4792 25.4504C19.4792 27.4016 21.8802 28.9892 24.8322 28.9892C27.783 28.9892 30.184 27.4016 30.184 25.4504C30.184 25.3136 30.1684 25.1792 30.1468 25.046C30.5621 24.824 30.8478 24.3908 30.8478 23.8892ZM26.6773 24.0092C26.2428 24.0092 25.8886 24.362 25.8886 24.7952C25.8886 25.2296 26.244 25.5824 26.6773 25.5824C27.1119 25.5824 27.4673 25.2296 27.4673 24.7952C27.4673 24.362 27.1131 24.0092 26.6773 24.0092Z" fill="black"/>
</svg>
