<svg width="50" height="48" viewBox="0 0 50 48" fill="none" xmlns="http://www.w3.org/2000/svg">
<path fill-rule="evenodd" clip-rule="evenodd" d="M48.1076 24C48.1076 37.2552 37.3585 48 24.0979 48C10.8373 48 0.0880737 37.2552 0.0880737 24C0.0880737 10.7448 10.8373 0 24.0979 0C37.3585 0 48.1076 10.7448 48.1076 24Z" fill="#FFD541"/>
<path fill-rule="evenodd" clip-rule="evenodd" d="M33.071 19.8515C33.5848 21.0767 33.861 22.3403 33.861 23.6831C33.861 25.0259 33.5848 26.2907 33.071 27.5159C32.556 28.7399 31.8453 29.7683 30.9762 30.6767C30.1058 31.5455 29.0398 32.2571 27.8141 32.7707C26.5896 33.2831 25.3243 33.5603 23.9809 33.5603C22.6376 33.5603 21.3723 33.2831 20.1466 32.7707C18.9221 32.2571 17.8932 31.5455 16.9857 30.6767C16.1153 29.8067 15.4034 28.7399 14.8896 27.5159C14.377 26.2907 14.0997 25.0259 14.0997 23.6831C14.0997 22.3403 14.377 21.0767 14.8896 19.8515C15.4034 18.6263 16.1153 17.5991 16.9857 16.6907C17.8548 15.8219 18.9221 15.1103 20.1466 14.5967C21.3723 14.0831 22.6376 13.8071 23.9809 13.8071C25.3243 13.8071 26.5896 14.0831 27.8141 14.5967C29.0398 15.1103 30.0674 15.8219 30.9762 16.6907C31.8453 17.5991 32.5176 18.6671 33.071 19.8515ZM27.1826 28.2263L28.8021 20.6015C28.8813 20.2859 28.8417 20.0483 28.6844 19.8911C28.526 19.7327 28.3675 19.7327 28.131 19.8119L18.6051 23.4863C18.4071 23.5655 18.2498 23.6435 18.1706 23.7635C18.0913 23.8811 18.0913 23.9603 18.1309 24.0395C18.1706 24.1187 18.2894 24.1967 18.4875 24.2363L20.9377 24.9863L26.5896 21.4307C26.7469 21.3131 26.8657 21.3131 26.9437 21.3527C26.9845 21.3923 26.9845 21.4307 26.9053 21.5111L22.3207 25.6979L22.1238 28.2263C22.281 28.2263 22.4395 28.1483 22.6376 27.9899L23.8225 26.8439L26.2727 28.6619C26.7877 28.9379 27.0638 28.7795 27.1826 28.2263Z" fill="black"/>
</svg>
