<svg width="50" height="48" viewBox="0 0 50 48" fill="none" xmlns="http://www.w3.org/2000/svg">
<path fill-rule="evenodd" clip-rule="evenodd" d="M48.7466 24C48.7466 37.2552 37.9974 48 24.7368 48C11.4762 48 0.72699 37.2552 0.72699 24C0.72699 10.7448 11.4762 0 24.7368 0C37.9974 0 48.7466 10.7448 48.7466 24Z" fill="#FFD541"/>
<path fill-rule="evenodd" clip-rule="evenodd" d="M33.629 18.4968C32.9592 18.786 32.2533 18.978 31.5306 19.0668C32.2941 18.6108 32.8643 17.8932 33.1404 17.0484C32.4225 17.4744 31.6374 17.7744 30.8187 17.9364C30.2713 17.3436 29.5426 16.9488 28.7466 16.8144C27.9507 16.6788 27.132 16.8132 26.4201 17.1924C25.7082 17.5728 25.1428 18.1788 24.8114 18.9156C24.4813 19.6512 24.4045 20.4768 24.5941 21.2616C23.144 21.1872 21.7262 20.8104 20.4308 20.154C19.1367 19.4964 17.9951 18.5736 17.0803 17.448C16.7586 18.0084 16.5905 18.642 16.5917 19.2876C16.5893 19.8876 16.7369 20.4768 17.0191 21.0072C17.3012 21.5352 17.7093 21.9864 18.2087 22.32C17.6289 22.3032 17.0611 22.1484 16.5545 21.8664V21.9108C16.5593 22.7496 16.8534 23.5632 17.3888 24.2112C17.923 24.8592 18.6649 25.302 19.4897 25.4664C19.1727 25.5624 18.8438 25.6128 18.5113 25.6176C18.282 25.6152 18.0527 25.5936 17.827 25.5552C18.0611 26.2764 18.5149 26.9088 19.1259 27.3612C19.737 27.8136 20.4729 28.0644 21.2328 28.0788C19.9483 29.088 18.3648 29.6388 16.7333 29.6436C16.4356 29.6448 16.1391 29.6268 15.8438 29.5896C17.5101 30.666 19.4525 31.2372 21.4369 31.2348C22.8054 31.2492 24.1644 30.99 25.4333 30.4728C26.701 29.958 27.8523 29.1936 28.8223 28.2264C29.7923 27.2604 30.5582 26.1108 31.0792 24.8436C31.599 23.5776 31.8607 22.2216 31.8511 20.8524V20.3808C32.5486 19.8612 33.15 19.2228 33.629 18.4968Z" fill="black"/>
</svg>
