<svg width="16" height="16" viewBox="0 0 16 16" fill="none" xmlns="http://www.w3.org/2000/svg">
<path d="M13.9335 1.33325H2.06683C1.87234 1.33325 1.68581 1.41051 1.54828 1.54804C1.41076 1.68557 1.3335 1.87209 1.3335 2.06659V13.9333C1.3335 14.0296 1.35246 14.1249 1.38932 14.2139C1.42617 14.3029 1.48019 14.3837 1.54828 14.4518C1.61638 14.5199 1.69722 14.5739 1.78619 14.6108C1.87517 14.6476 1.97053 14.6666 2.06683 14.6666H8.4535V9.49992H6.72016V7.49992H8.4535V5.99992C8.41759 5.64776 8.45917 5.292 8.57531 4.95761C8.69145 4.62322 8.87934 4.31828 9.12581 4.06419C9.37227 3.8101 9.67134 3.61301 10.002 3.48674C10.3327 3.36048 10.6871 3.30809 11.0402 3.33325C11.559 3.33006 12.0777 3.35677 12.5935 3.41325V5.21325H11.5335C10.6935 5.21325 10.5335 5.61325 10.5335 6.19325V7.47992H12.5335L12.2735 9.47992H10.5335V14.6666H13.9335C14.0298 14.6666 14.1252 14.6476 14.2141 14.6108C14.3031 14.5739 14.3839 14.5199 14.452 14.4518C14.5201 14.3837 14.5742 14.3029 14.611 14.2139C14.6479 14.1249 14.6668 14.0296 14.6668 13.9333V2.06659C14.6668 1.97028 14.6479 1.87492 14.611 1.78595C14.5742 1.69698 14.5201 1.61614 14.452 1.54804C14.3839 1.47994 14.3031 1.42593 14.2141 1.38907C14.1252 1.35222 14.0298 1.33325 13.9335 1.33325Z" fill="white"/>
</svg>
