<svg width="16" height="16" viewBox="0 0 16 16" fill="none" xmlns="http://www.w3.org/2000/svg">
<g clip-path="url(#clip0)">
<path d="M10.3368 8.32233C10.3368 7.65497 10.1007 7.08521 9.62856 6.61302C9.15637 6.14084 8.5866 5.90474 7.91925 5.90474C7.2519 5.90474 6.68213 6.14084 6.20994 6.61302C5.73776 7.08521 5.50167 7.65497 5.50167 8.32233C5.50167 8.98968 5.73776 9.55945 6.20994 10.0316C6.68213 10.5038 7.2519 10.7399 7.91925 10.7399C8.5866 10.7399 9.15637 10.5038 9.62856 10.0316C10.1007 9.55945 10.3368 8.98968 10.3368 8.32233ZM11.6401 8.32233C11.6401 9.35484 11.2781 10.2331 10.554 10.9571C9.83002 11.6811 8.95176 12.0431 7.91925 12.0431C6.88674 12.0431 6.00848 11.6811 5.28446 10.9571C4.56045 10.2331 4.19844 9.35484 4.19844 8.32233C4.19844 7.28982 4.56045 6.41156 5.28446 5.68754C6.00848 4.96353 6.88674 4.60152 7.91925 4.60152C8.95176 4.60152 9.83002 4.96353 10.554 5.68754C11.2781 6.41156 11.6401 7.28982 11.6401 8.32233ZM12.66 4.45042C12.66 4.68966 12.575 4.89427 12.405 5.06426C12.235 5.23424 12.0304 5.31924 11.7912 5.31924C11.5519 5.31924 11.3473 5.23424 11.1773 5.06426C11.0073 4.89427 10.9223 4.68966 10.9223 4.45042C10.9223 4.21118 11.0073 4.00656 11.1773 3.83658C11.3473 3.66659 11.5519 3.5816 11.7912 3.5816C12.0304 3.5816 12.235 3.66659 12.405 3.83658C12.575 4.00656 12.66 4.21118 12.66 4.45042ZM7.91925 2.37281C7.87518 2.37281 7.63437 2.37123 7.19681 2.36809C6.75925 2.36494 6.42715 2.36494 6.2005 2.36809C5.97385 2.37123 5.67008 2.38068 5.28919 2.39642C4.90829 2.41216 4.58406 2.44364 4.31649 2.49085C4.04892 2.53807 3.82384 2.59631 3.64126 2.66556C3.32647 2.79148 3.04946 2.97406 2.81022 3.2133C2.57098 3.45254 2.3884 3.72955 2.26249 4.04434C2.19323 4.22692 2.135 4.45199 2.08778 4.71956C2.04056 4.98713 2.00908 5.31137 1.99334 5.69226C1.9776 6.07316 1.96816 6.37693 1.96501 6.60358C1.96186 6.83023 1.96186 7.16233 1.96501 7.59989C1.96816 8.03744 1.96973 8.27826 1.96973 8.32233C1.96973 8.3664 1.96816 8.60721 1.96501 9.04477C1.96186 9.48233 1.96186 9.81443 1.96501 10.0411C1.96816 10.2677 1.9776 10.5715 1.99334 10.9524C2.00908 11.3333 2.04056 11.6575 2.08778 11.9251C2.135 12.1927 2.19323 12.4177 2.26249 12.6003C2.3884 12.9151 2.57098 13.1921 2.81022 13.4314C3.04946 13.6706 3.32647 13.8532 3.64126 13.9791C3.82384 14.0483 4.04892 14.1066 4.31649 14.1538C4.58406 14.201 4.90829 14.2325 5.28919 14.2482C5.67008 14.264 5.97385 14.2734 6.2005 14.2766C6.42715 14.2797 6.75925 14.2797 7.19681 14.2766C7.63437 14.2734 7.87518 14.2718 7.91925 14.2718C7.96332 14.2718 8.20414 14.2734 8.64169 14.2766C9.07925 14.2797 9.41135 14.2797 9.638 14.2766C9.86465 14.2734 10.1684 14.264 10.5493 14.2482C10.9302 14.2325 11.2544 14.201 11.522 14.1538C11.7896 14.1066 12.0147 14.0483 12.1972 13.9791C12.512 13.8532 12.789 13.6706 13.0283 13.4314C13.2675 13.1921 13.4501 12.9151 13.576 12.6003C13.6453 12.4177 13.7035 12.1927 13.7507 11.9251C13.7979 11.6575 13.8294 11.3333 13.8452 10.9524C13.8609 10.5715 13.8703 10.2677 13.8735 10.0411C13.8766 9.81443 13.8766 9.48233 13.8735 9.04477C13.8703 8.60721 13.8688 8.3664 13.8688 8.32233C13.8688 8.27826 13.8703 8.03744 13.8735 7.59989C13.8766 7.16233 13.8766 6.83023 13.8735 6.60358C13.8703 6.37693 13.8609 6.07316 13.8452 5.69226C13.8294 5.31137 13.7979 4.98713 13.7507 4.71956C13.7035 4.45199 13.6453 4.22692 13.576 4.04434C13.4501 3.72955 13.2675 3.45254 13.0283 3.2133C12.789 2.97406 12.512 2.79148 12.1972 2.66556C12.0147 2.59631 11.7896 2.53807 11.522 2.49085C11.2544 2.44364 10.9302 2.41216 10.5493 2.39642C10.1684 2.38068 9.86465 2.37123 9.638 2.36809C9.41135 2.36494 9.07925 2.36494 8.64169 2.36809C8.20414 2.37123 7.96332 2.37281 7.91925 2.37281ZM15.172 8.32233C15.172 9.76406 15.1563 10.7619 15.1248 11.316C15.0618 12.6255 14.6715 13.6391 13.9538 14.3568C13.236 15.0746 12.2224 15.4649 10.9129 15.5279C10.3589 15.5593 9.36099 15.5751 7.91925 15.5751C6.47752 15.5751 5.47963 15.5593 4.9256 15.5279C3.61608 15.4649 2.60246 15.0746 1.88474 14.3568C1.16702 13.6391 0.77668 12.6255 0.713722 11.316C0.682243 10.7619 0.666504 9.76406 0.666504 8.32233C0.666504 6.88059 0.682243 5.88271 0.713722 5.32868C0.77668 4.01916 1.16702 3.00553 1.88474 2.28781C2.60246 1.57009 3.61608 1.17976 4.9256 1.1168C5.47963 1.08532 6.47752 1.06958 7.91925 1.06958C9.36099 1.06958 10.3589 1.08532 10.9129 1.1168C12.2224 1.17976 13.236 1.57009 13.9538 2.28781C14.6715 3.00553 15.0618 4.01916 15.1248 5.32868C15.1563 5.88271 15.172 6.88059 15.172 8.32233Z" fill="white"/>
</g>
<defs>
<clipPath id="clip0">
<rect width="14.6667" height="15.3333" fill="white" transform="translate(0.666504 0.666748)"/>
</clipPath>
</defs>
</svg>
