<svg width="16" height="16" viewBox="0 0 16 16" fill="none" xmlns="http://www.w3.org/2000/svg">
<g clip-path="url(#clip0)">
<path d="M9.4361 10.1481C9.49064 10.202 9.49064 10.2899 9.4361 10.3445C9.13772 10.6409 8.66995 10.7853 8.00454 10.7853L7.99941 10.784L7.99427 10.7853C7.32951 10.7853 6.86109 10.6409 6.56272 10.3438C6.50817 10.2899 6.50817 10.202 6.56272 10.1481C6.61662 10.0942 6.70517 10.0942 6.75971 10.1481C7.0029 10.39 7.40651 10.5081 7.99427 10.5081L7.99941 10.5094L8.00454 10.5081C8.59167 10.5081 8.99527 10.39 9.23911 10.1481C9.29365 10.0942 9.3822 10.0942 9.4361 10.1481ZM7.22877 8.59655C7.22877 8.27123 6.96312 8.00686 6.63715 8.00686C6.31054 8.00686 6.04489 8.27123 6.04489 8.59655C6.04489 8.92124 6.31054 9.1856 6.63715 9.1856C6.96312 9.18625 7.22877 8.92188 7.22877 8.59655ZM15.7 7.9998C15.7 12.2521 12.2524 15.6998 8.00005 15.6998C3.74772 15.6998 0.300049 12.2521 0.300049 7.9998C0.300049 3.74748 3.74772 0.299805 8.00005 0.299805C12.2524 0.299805 15.7 3.74748 15.7 7.9998ZM12.4917 7.91703C12.4917 7.37097 12.0458 6.92694 11.4971 6.92694C11.2296 6.92694 10.987 7.0341 10.808 7.20606C10.1304 6.7601 9.21344 6.47649 8.19897 6.43991L8.75401 4.69201L10.2574 5.04429L10.2555 5.0661C10.2555 5.5127 10.6206 5.87589 11.0691 5.87589C11.5177 5.87589 11.8821 5.5127 11.8821 5.0661C11.8821 4.6195 11.5177 4.25632 11.0691 4.25632C10.7246 4.25632 10.4313 4.47128 10.3126 4.77222L8.69241 4.39235C8.62182 4.37503 8.54932 4.4161 8.5275 4.4854L7.90829 6.43478C6.84569 6.44761 5.88383 6.7338 5.17607 7.19259C4.99833 7.02896 4.76284 6.9263 4.50232 6.9263C3.95434 6.92694 3.50838 7.37097 3.50838 7.91703C3.50838 8.28021 3.70794 8.59463 4.00118 8.76724C3.98193 8.87247 3.9691 8.97963 3.9691 9.08807C3.9691 10.5517 5.76897 11.7426 7.98144 11.7426C10.1939 11.7426 11.9938 10.5517 11.9938 9.08807C11.9938 8.9854 11.9829 8.88466 11.9655 8.7852C12.2774 8.61773 12.4917 8.29369 12.4917 7.91703ZM9.36552 8.0075C9.03891 8.0075 8.7739 8.27187 8.7739 8.5972C8.7739 8.92188 9.03955 9.18625 9.36552 9.18625C9.69148 9.18625 9.95713 8.92188 9.95713 8.5972C9.95713 8.27187 9.69212 8.0075 9.36552 8.0075Z" fill="white"/>
</g>
<defs>
<clipPath id="clip0">
<rect width="15.4" height="15.4" fill="white" transform="translate(0.300049 0.299805)"/>
</clipPath>
</defs>
</svg>
