<svg width="16" height="16" viewBox="0 0 16 16" fill="none" xmlns="http://www.w3.org/2000/svg">
<g clip-path="url(#clip0)">
<path d="M14.7252 4.8888C15.1103 5.80732 15.3177 6.75547 15.3177 7.76288C15.3177 8.77028 15.1103 9.71843 14.7252 10.637C14.34 11.5555 13.8066 12.3258 13.1548 13.0073C12.5029 13.6592 11.7029 14.1925 10.7844 14.5777C9.86589 14.9629 8.91774 15.1703 7.91034 15.1703C6.90293 15.1703 5.95478 14.9629 5.03626 14.5777C4.11774 14.1925 3.34737 13.6592 2.66589 13.0073C2.01404 12.3555 1.48071 11.5555 1.09552 10.637C0.710337 9.71843 0.50293 8.77028 0.50293 7.76288C0.50293 6.75547 0.710337 5.80732 1.09552 4.8888C1.48071 3.97028 2.01404 3.19991 2.66589 2.51843C3.31774 1.86658 4.11774 1.33325 5.03626 0.948061C5.95478 0.562876 6.90293 0.355469 7.91034 0.355469C8.91774 0.355469 9.86589 0.562876 10.7844 0.948061C11.7029 1.33325 12.4733 1.86658 13.1548 2.51843C13.8066 3.19991 14.3103 3.99991 14.7252 4.8888ZM10.3103 11.1703L11.5252 5.45176C11.5844 5.21473 11.5548 5.03695 11.4363 4.91843C11.3177 4.79991 11.1992 4.79991 11.0214 4.85917L3.88071 7.61473C3.73256 7.67399 3.61404 7.73325 3.55478 7.82213C3.49552 7.91102 3.49552 7.97028 3.52515 8.02954C3.55478 8.0888 3.64367 8.14806 3.79182 8.17769L5.62886 8.74065L9.86589 6.07399C9.98441 5.9851 10.0733 5.9851 10.1326 6.01473C10.1622 6.04436 10.1622 6.07399 10.1029 6.13325L6.66589 9.27399L6.51774 11.1703C6.63626 11.1703 6.75478 11.111 6.90293 10.9925L7.79182 10.1332L9.62886 11.4962C10.014 11.7036 10.2214 11.5851 10.3103 11.1703Z" fill="white"/>
</g>
<defs>
<clipPath id="clip0">
<rect width="16" height="16" fill="white"/>
</clipPath>
</defs>
</svg>
